<?xml version="1.0" encoding="utf-8"?>
<!-- Generator: Adobe Illustrator 16.0.0, SVG Export Plug-In . SVG Version: 6.00 Build 0)  -->
<!DOCTYPE svg PUBLIC "-//W3C//DTD SVG 1.1//EN" "http://www.w3.org/Graphics/SVG/1.1/DTD/svg11.dtd">
<svg version="1.1" xmlns="http://www.w3.org/2000/svg" xmlns:xlink="http://www.w3.org/1999/xlink" x="0px" y="0px" width="30px"
	 height="30px" viewBox="0 0 30 30" enable-background="new 0 0 30 30" xml:space="preserve">
<g id="首頁BK">
</g>
<g id="首頁UI__x26__logo">
	<g>
		<path d="M27.101,12.401l0.12-0.17c-0.106-0.074-1.761-1.742-6.414-2.934c-0.344-0.084-0.665-0.146-0.995-0.215
			c0,0-0.047,3.002,0,3.014c2.13,0.545,3.514,1.371,4.345,2.021l-3.232,1.885l8.75,1.313v-6.416L27.101,12.401z"/>
		<path d="M13.649,26.485c-1.515-0.553-3.312-1.27-4.4-1.742c-2.875-1.252-4.565-3.756-4.682-5.898
			c-0.162-2.959,4.192-5.572,7.346-6.674V9.269c-2.842,0.686-5.809,1.807-8.211,3.508c-5.135,3.633-4.358,11.07,1.957,14.066
			c2.979,1.412,6.388,2.422,7.215,2.5l3.358-2.051c-0.011-0.002-0.031-0.006-0.043-0.008l1.914-1.141l0.183-25.486l-4.471,2.664
			L13.649,26.485z"/>
	</g>
</g>
<g id="內頁_x5F_左" display="none">
</g>
<g id="內頁" display="none">
</g>
<g id="Easy_我的作品" display="none">
</g>
<g id="EASY_雲端作品庫" display="none">
</g>
<g id="福利中心頁_x5F_bk" display="none">
</g>
<g id="兌換商品" display="none">
</g>
<g id="版型下載" display="none">
</g>
<g id="Top_banner_1_" display="none">
</g>
<g id="商品說明" display="none">
</g>
<g id="填寫兌換頁" display="none">
</g>
<g id="會員資料" display="none">
</g>
<g id="集到先師" display="none">
</g>
<g id="Play" display="none">
</g>
<g id="製作頁" display="none">
</g>
<g id="pop_up" display="none">
</g>
<g id="guide">
</g>
<g id="說明">
</g>
</svg>
