<?xml version="1.0" encoding="utf-8"?>
<!-- Generator: Adobe Illustrator 15.1.0, SVG Export Plug-In . SVG Version: 6.00 Build 0)  -->
<!DOCTYPE svg PUBLIC "-//W3C//DTD SVG 1.1//EN" "http://www.w3.org/Graphics/SVG/1.1/DTD/svg11.dtd">
<svg version="1.1" id="圖層_1" xmlns="http://www.w3.org/2000/svg" xmlns:xlink="http://www.w3.org/1999/xlink" x="0px" y="0px"
	 width="110px" height="30px" viewBox="0 0 110 30" enable-background="new 0 0 110 30" xml:space="preserve">
<path fill-rule="evenodd" clip-rule="evenodd" fill="#3659A6" d="M109.945,27c0,1.656-1.344,3-3,3h-104c-1.657,0-3-1.344-3-3V3
	c0-1.657,1.343-3,3-3h104c1.656,0,3,1.343,3,3V27z"/>
<path fill-rule="evenodd" clip-rule="evenodd" fill="#4C71B6" d="M108.945,26c0,1.656-1.344,3-3,3h-102c-1.657,0-3-1.344-3-3V4
	c0-1.657,1.343-3,3-3h102c1.656,0,3,1.343,3,3V26z"/>
<g>
	<g opacity="0.75">
		<path fill-rule="evenodd" clip-rule="evenodd" fill="#1C4685" d="M12.426,16.48v8.35h4.06v-8.31h2.773l0.671-3.463h-3.413
			c0,0,0-1.629,0-2.54c0-0.352,0.186-0.821,0.754-0.821c0.877,0,1.974,0,1.974,0V6.17c0,0-1.779,0-3.686,0
			c-1.271,0-3.148,1.565-3.148,3.23c0,1.713,0,3.56,0,3.56h-2.13v3.507L12.426,16.48z"/>
	</g>
	<g>
		<path fill-rule="evenodd" clip-rule="evenodd" fill="#FFFFFF" d="M11.926,15.98v8.35h4.06v-8.31h2.773l0.671-3.463h-3.413
			c0,0,0-1.629,0-2.54c0-0.352,0.186-0.821,0.754-0.821c0.877,0,1.974,0,1.974,0V5.67c0,0-1.779,0-3.686,0
			c-1.271,0-3.148,1.565-3.148,3.23c0,1.713,0,3.56,0,3.56H9.78v3.507L11.926,15.98z"/>
	</g>
</g>
<g>
	<g opacity="0.75">
		<path fill="#1C4685" d="M31.871,20.74V10.719h6.87v1.695h-4.847v2.372h4.184v1.696h-4.184v4.258H31.871z"/>
		<path fill="#1C4685" d="M41.83,15.696l-1.743-0.314c0.196-0.702,0.533-1.221,1.012-1.559c0.479-0.337,1.19-0.506,2.133-0.506
			c0.856,0,1.494,0.102,1.914,0.304c0.419,0.203,0.714,0.46,0.885,0.772s0.256,0.885,0.256,1.72l-0.02,2.242
			c0,0.638,0.03,1.107,0.092,1.411s0.177,0.628,0.346,0.974h-1.9c-0.051-0.127-0.112-0.316-0.186-0.566
			c-0.031-0.114-0.055-0.189-0.068-0.227c-0.328,0.319-0.679,0.559-1.053,0.719c-0.373,0.159-0.771,0.238-1.195,0.238
			c-0.748,0-1.337-0.202-1.768-0.607c-0.431-0.406-0.646-0.919-0.646-1.539c0-0.41,0.098-0.775,0.294-1.097s0.471-0.567,0.824-0.738
			c0.354-0.171,0.862-0.32,1.528-0.448c0.897-0.168,1.52-0.325,1.865-0.471v-0.192c0-0.369-0.091-0.632-0.273-0.79
			c-0.182-0.157-0.525-0.236-1.031-0.236c-0.342,0-0.609,0.067-0.801,0.202S41.949,15.358,41.83,15.696z M44.4,17.254
			c-0.246,0.082-0.635,0.181-1.168,0.295c-0.533,0.113-0.883,0.225-1.047,0.334c-0.25,0.178-0.375,0.404-0.375,0.678
			c0,0.269,0.1,0.501,0.301,0.697c0.2,0.195,0.455,0.293,0.766,0.293c0.346,0,0.676-0.113,0.99-0.342
			c0.232-0.173,0.386-0.385,0.459-0.635c0.05-0.164,0.074-0.477,0.074-0.938V17.254z"/>
		<path fill="#1C4685" d="M54.511,15.627l-1.894,0.342c-0.063-0.378-0.209-0.663-0.434-0.854c-0.227-0.191-0.519-0.287-0.879-0.287
			c-0.479,0-0.86,0.165-1.145,0.496c-0.285,0.331-0.428,0.883-0.428,1.657c0,0.861,0.145,1.471,0.434,1.826
			c0.29,0.355,0.679,0.533,1.166,0.533c0.364,0,0.663-0.104,0.896-0.312s0.396-0.563,0.492-1.069l1.887,0.32
			c-0.196,0.866-0.572,1.521-1.128,1.963c-0.556,0.441-1.301,0.662-2.235,0.662c-1.062,0-1.908-0.334-2.54-1.004
			c-0.631-0.67-0.946-1.598-0.946-2.783c0-1.198,0.316-2.131,0.95-2.799s1.49-1.001,2.57-1.001c0.884,0,1.587,0.19,2.109,0.571
			C53.908,14.268,54.283,14.848,54.511,15.627z"/>
		<path fill="#1C4685" d="M60.172,18.43l1.914,0.322c-0.246,0.701-0.635,1.236-1.166,1.603c-0.53,0.366-1.194,0.55-1.992,0.55
			c-1.263,0-2.196-0.412-2.803-1.236c-0.479-0.661-0.718-1.495-0.718-2.502c0-1.204,0.314-2.146,0.943-2.827
			s1.424-1.022,2.386-1.022c1.08,0,1.933,0.356,2.557,1.07s0.923,1.806,0.896,3.277h-4.813c0.014,0.57,0.169,1.014,0.465,1.33
			s0.665,0.475,1.107,0.475c0.301,0,0.554-0.082,0.759-0.246S60.067,18.795,60.172,18.43z M60.281,16.488
			c-0.014-0.556-0.157-0.978-0.431-1.268s-0.606-0.434-0.998-0.434c-0.419,0-0.766,0.153-1.039,0.458s-0.408,0.72-0.403,1.244
			H60.281z"/>
		<path fill="#1C4685" d="M63.671,20.74V10.719h1.921v3.609c0.593-0.674,1.294-1.012,2.105-1.012c0.884,0,1.615,0.32,2.194,0.96
			s0.868,1.56,0.868,2.758c0,1.24-0.295,2.195-0.885,2.865c-0.591,0.67-1.308,1.004-2.15,1.004c-0.415,0-0.824-0.104-1.227-0.311
			c-0.404-0.207-0.751-0.514-1.043-0.92v1.066H63.671z M65.578,16.953c0,0.752,0.118,1.309,0.355,1.668
			c0.333,0.511,0.774,0.766,1.326,0.766c0.424,0,0.785-0.181,1.084-0.543c0.298-0.362,0.447-0.934,0.447-1.713
			c0-0.829-0.15-1.427-0.451-1.794s-0.686-0.55-1.155-0.55c-0.46,0-0.843,0.179-1.148,0.537S65.578,16.225,65.578,16.953z"/>
		<path fill="#1C4685" d="M71.861,17.008c0-0.638,0.157-1.255,0.472-1.852s0.76-1.053,1.337-1.367
			c0.576-0.314,1.22-0.472,1.931-0.472c1.099,0,1.998,0.356,2.7,1.07s1.053,1.614,1.053,2.703c0,1.099-0.354,2.01-1.063,2.731
			c-0.709,0.722-1.602,1.083-2.677,1.083c-0.665,0-1.3-0.15-1.903-0.451c-0.604-0.301-1.063-0.741-1.378-1.322
			S71.861,17.842,71.861,17.008z M73.83,17.111c0,0.72,0.171,1.271,0.513,1.654s0.764,0.574,1.265,0.574s0.922-0.191,1.262-0.574
			c0.339-0.383,0.509-0.939,0.509-1.668c0-0.711-0.17-1.258-0.509-1.641c-0.34-0.383-0.761-0.574-1.262-0.574
			s-0.923,0.191-1.265,0.574S73.83,16.391,73.83,17.111z"/>
		<path fill="#1C4685" d="M80.412,17.008c0-0.638,0.157-1.255,0.472-1.852s0.76-1.053,1.337-1.367
			c0.576-0.314,1.22-0.472,1.931-0.472c1.099,0,1.998,0.356,2.7,1.07s1.053,1.614,1.053,2.703c0,1.099-0.354,2.01-1.063,2.731
			c-0.709,0.722-1.602,1.083-2.677,1.083c-0.665,0-1.3-0.15-1.903-0.451c-0.604-0.301-1.063-0.741-1.378-1.322
			S80.412,17.842,80.412,17.008z M82.381,17.111c0,0.72,0.171,1.271,0.513,1.654s0.764,0.574,1.265,0.574s0.922-0.191,1.262-0.574
			c0.339-0.383,0.509-0.939,0.509-1.668c0-0.711-0.17-1.258-0.509-1.641c-0.34-0.383-0.761-0.574-1.262-0.574
			s-0.923,0.191-1.265,0.574S82.381,16.391,82.381,17.111z"/>
		<path fill="#1C4685" d="M89.341,20.74V10.719h1.921v5.318l2.249-2.556h2.365l-2.481,2.652l2.659,4.607h-2.071l-1.825-3.26
			l-0.896,0.936v2.324H89.341z"/>
	</g>
	<g>
		<g>
			<path fill="#FFFFFF" d="M31.371,20.24V10.219h6.87v1.695h-4.847v2.372h4.184v1.695h-4.184v4.258H31.371z"/>
			<path fill="#FFFFFF" d="M41.33,15.196l-1.743-0.314c0.196-0.702,0.533-1.221,1.012-1.559c0.479-0.337,1.19-0.506,2.133-0.506
				c0.856,0,1.494,0.102,1.914,0.304c0.419,0.203,0.714,0.46,0.885,0.772s0.256,0.885,0.256,1.719l-0.02,2.243
				c0,0.638,0.03,1.107,0.092,1.411s0.177,0.628,0.346,0.974h-1.9c-0.051-0.127-0.112-0.316-0.186-0.566
				c-0.031-0.114-0.055-0.189-0.068-0.227c-0.328,0.319-0.679,0.559-1.053,0.719c-0.373,0.159-0.771,0.238-1.195,0.238
				c-0.748,0-1.337-0.202-1.768-0.607c-0.431-0.406-0.646-0.919-0.646-1.539c0-0.41,0.098-0.775,0.294-1.097
				s0.471-0.567,0.824-0.738c0.354-0.171,0.862-0.32,1.528-0.448c0.897-0.168,1.52-0.326,1.865-0.472v-0.191
				c0-0.369-0.091-0.632-0.273-0.79c-0.182-0.157-0.525-0.236-1.031-0.236c-0.342,0-0.609,0.067-0.801,0.202
				S41.449,14.858,41.33,15.196z M43.9,16.754c-0.246,0.082-0.635,0.181-1.168,0.295c-0.533,0.113-0.883,0.225-1.047,0.334
				c-0.25,0.178-0.375,0.404-0.375,0.678c0,0.269,0.1,0.501,0.301,0.697c0.2,0.195,0.455,0.293,0.766,0.293
				c0.346,0,0.676-0.113,0.99-0.342c0.232-0.173,0.386-0.385,0.459-0.635c0.05-0.164,0.074-0.477,0.074-0.938V16.754z"/>
			<path fill="#FFFFFF" d="M54.011,15.127l-1.894,0.342c-0.063-0.378-0.209-0.663-0.434-0.854c-0.227-0.191-0.519-0.287-0.879-0.287
				c-0.479,0-0.86,0.165-1.145,0.496c-0.285,0.331-0.428,0.883-0.428,1.657c0,0.861,0.145,1.471,0.434,1.826
				c0.29,0.355,0.679,0.533,1.166,0.533c0.364,0,0.663-0.104,0.896-0.312s0.396-0.563,0.492-1.069l1.887,0.32
				c-0.196,0.866-0.572,1.521-1.128,1.963c-0.556,0.441-1.301,0.662-2.235,0.662c-1.062,0-1.908-0.334-2.54-1.004
				c-0.631-0.67-0.946-1.598-0.946-2.783c0-1.198,0.316-2.131,0.95-2.799s1.49-1.001,2.57-1.001c0.884,0,1.587,0.19,2.109,0.571
				C53.408,13.768,53.783,14.348,54.011,15.127z"/>
			<path fill="#FFFFFF" d="M59.672,17.93l1.914,0.322c-0.246,0.701-0.635,1.236-1.166,1.603c-0.53,0.366-1.194,0.55-1.992,0.55
				c-1.263,0-2.196-0.412-2.803-1.236c-0.479-0.661-0.718-1.495-0.718-2.502c0-1.204,0.314-2.146,0.943-2.827
				s1.424-1.022,2.386-1.022c1.08,0,1.933,0.356,2.557,1.07s0.923,1.806,0.896,3.277h-4.813c0.014,0.57,0.169,1.014,0.465,1.33
				s0.665,0.475,1.107,0.475c0.301,0,0.554-0.082,0.759-0.246S59.567,18.295,59.672,17.93z M59.781,15.989
				c-0.014-0.556-0.157-0.979-0.431-1.268s-0.606-0.434-0.998-0.434c-0.419,0-0.766,0.153-1.039,0.458s-0.408,0.72-0.403,1.244
				H59.781z"/>
			<path fill="#FFFFFF" d="M63.171,20.24V10.219h1.921v3.609c0.593-0.674,1.294-1.012,2.105-1.012c0.884,0,1.615,0.32,2.194,0.96
				s0.868,1.56,0.868,2.758c0,1.24-0.295,2.195-0.885,2.865c-0.591,0.67-1.308,1.004-2.15,1.004c-0.415,0-0.824-0.104-1.227-0.311
				c-0.404-0.207-0.751-0.514-1.043-0.92v1.066H63.171z M65.078,16.453c0,0.752,0.118,1.309,0.355,1.668
				c0.333,0.511,0.774,0.766,1.326,0.766c0.424,0,0.785-0.181,1.084-0.543c0.298-0.362,0.447-0.934,0.447-1.713
				c0-0.829-0.15-1.427-0.451-1.794s-0.686-0.55-1.155-0.55c-0.46,0-0.843,0.179-1.148,0.537S65.078,15.725,65.078,16.453z"/>
			<path fill="#FFFFFF" d="M71.361,16.508c0-0.638,0.157-1.255,0.472-1.852s0.76-1.053,1.337-1.367
				c0.576-0.314,1.22-0.472,1.931-0.472c1.099,0,1.998,0.356,2.7,1.07s1.053,1.614,1.053,2.703c0,1.099-0.354,2.01-1.063,2.731
				c-0.709,0.722-1.602,1.083-2.677,1.083c-0.665,0-1.3-0.15-1.903-0.451c-0.604-0.301-1.063-0.741-1.378-1.322
				S71.361,17.342,71.361,16.508z M73.33,16.611c0,0.72,0.171,1.271,0.513,1.654s0.764,0.574,1.265,0.574s0.922-0.191,1.262-0.574
				c0.339-0.383,0.509-0.939,0.509-1.668c0-0.711-0.17-1.258-0.509-1.641c-0.34-0.383-0.761-0.574-1.262-0.574
				s-0.923,0.191-1.265,0.574S73.33,15.891,73.33,16.611z"/>
			<path fill="#FFFFFF" d="M79.912,16.508c0-0.638,0.157-1.255,0.472-1.852s0.76-1.053,1.337-1.367
				c0.576-0.314,1.22-0.472,1.931-0.472c1.099,0,1.998,0.356,2.7,1.07s1.053,1.614,1.053,2.703c0,1.099-0.354,2.01-1.063,2.731
				c-0.709,0.722-1.602,1.083-2.677,1.083c-0.665,0-1.3-0.15-1.903-0.451c-0.604-0.301-1.063-0.741-1.378-1.322
				S79.912,17.342,79.912,16.508z M81.881,16.611c0,0.72,0.171,1.271,0.513,1.654s0.764,0.574,1.265,0.574s0.922-0.191,1.262-0.574
				c0.339-0.383,0.509-0.939,0.509-1.668c0-0.711-0.17-1.258-0.509-1.641c-0.34-0.383-0.761-0.574-1.262-0.574
				s-0.923,0.191-1.265,0.574S81.881,15.891,81.881,16.611z"/>
			<path fill="#FFFFFF" d="M88.841,20.24V10.219h1.921v5.318l2.249-2.557h2.365l-2.481,2.652l2.659,4.607h-2.071l-1.825-3.26
				l-0.896,0.936v2.324H88.841z"/>
		</g>
	</g>
</g>
</svg>
