<?xml version="1.0" encoding="utf-8"?>
<!-- Generator: Adobe Illustrator 16.0.0, SVG Export Plug-In . SVG Version: 6.00 Build 0)  -->
<!DOCTYPE svg PUBLIC "-//W3C//DTD SVG 1.1//EN" "http://www.w3.org/Graphics/SVG/1.1/DTD/svg11.dtd">
<svg version="1.1" id="圖層_1" xmlns="http://www.w3.org/2000/svg" xmlns:xlink="http://www.w3.org/1999/xlink" x="0px" y="0px"
	 width="110px" height="30px" viewBox="0 0 110 30" enable-background="new 0 0 110 30" xml:space="preserve">
<path fill="#8A2B23" d="M110,27c0,1.656-1.344,3-3,3H3c-1.657,0-3-1.344-3-3V3c0-1.657,1.343-3,3-3h104c1.656,0,3,1.343,3,3V27z"/>
<path fill="#DB4437" d="M109,26c0,1.656-1.343,3-3,3H4c-1.657,0-3-1.344-3-3V4c0-1.657,1.343-3,3-3h102c1.657,0,3,1.343,3,3V26z"/>
<g>
	<g opacity="0.75">
		<path fill="#231815" d="M21.58,15.816c0,4.108-3.291,7.449-7.335,7.449s-7.333-3.341-7.333-7.449c0-4.106,3.29-7.446,7.334-7.446
			c1.63,0,3.177,0.533,4.47,1.542l-1.703,2.25c-0.8-0.626-1.757-0.956-2.767-0.956c-2.504,0-4.541,2.068-4.541,4.61
			c0,2.544,2.036,4.611,4.541,4.611c2.017,0,3.729-1.343,4.319-3.192h-4.319v-2.836h7.335L21.58,15.816L21.58,15.816z"/>
		<polygon fill="#231815" points="31.007,16.632 28.184,16.632 28.184,19.496 25.729,19.496 25.729,16.632 22.907,16.632 
			22.907,14.137 25.729,14.137 25.729,11.272 28.184,11.272 28.184,14.137 31.007,14.137 		"/>
	</g>
	<g>
		<path fill="#FDFDFD" d="M20.934,15.336c0,4.109-3.342,7.45-7.449,7.45s-7.448-3.341-7.448-7.45c0-4.105,3.341-7.446,7.449-7.446
			c1.656,0,3.226,0.533,4.54,1.542l-1.729,2.25c-0.813-0.626-1.784-0.956-2.81-0.956c-2.543,0-4.611,2.068-4.611,4.61
			c0,2.544,2.068,4.612,4.611,4.612c2.048,0,3.787-1.343,4.386-3.192h-4.386v-2.836h7.449L20.934,15.336L20.934,15.336z"/>
		<polygon fill="#FDFDFD" points="30.507,16.152 27.64,16.152 27.64,19.017 25.146,19.017 25.146,16.152 22.281,16.152 
			22.281,13.658 25.146,13.658 25.146,10.792 27.64,10.792 27.64,13.658 30.507,13.658 		"/>
	</g>
</g>
<g>
	<polygon opacity="0.75" fill="#231815" points="98.349,16.852 95.661,16.852 95.661,19.555 94.458,19.555 94.458,16.852 
		91.739,16.852 91.739,15.68 94.458,15.68 94.458,12.977 95.661,12.977 95.661,15.68 98.349,15.68 	"/>
	<polygon fill="#FFFFFF" points="97.942,16.32 95.255,16.32 95.255,19.023 94.052,19.023 94.052,16.32 91.333,16.32 91.333,15.148 
		94.052,15.148 94.052,12.445 95.255,12.445 95.255,15.148 97.942,15.148 	"/>
</g>
<g>
	<g opacity="0.75">
		<g>
			<path fill="#231815" d="M53.629,13.904h-5.6v1.6H51.9c-0.479,1.711-2.046,2.967-3.91,2.967c-2.244,0-4.064-1.818-4.064-4.063
				c0-2.243,1.82-4.063,4.064-4.063c1.018,0,1.946,0.377,2.659,0.995l1.229-1.042c-1.015-0.96-2.381-1.553-3.888-1.553
				c-3.128,0-5.664,2.535-5.664,5.663s2.536,5.665,5.664,5.665c2.752,0,5.044-1.965,5.555-4.568L53.629,13.904z"/>
		</g>
		<g>
			<rect x="79.507" y="8.957" fill="#231815" width="1.6" height="11.074"/>
		</g>
		<g>
			<path fill="#231815" d="M57.928,12.894c-2.012,0-3.642,1.631-3.642,3.644c0,2.01,1.63,3.641,3.642,3.641
				c2.013,0,3.644-1.631,3.644-3.641C61.571,14.524,59.94,12.894,57.928,12.894z M57.928,18.662c-1.174,0-2.127-0.951-2.127-2.125
				c0-1.176,0.953-2.127,2.127-2.127s2.127,0.951,2.127,2.127C60.055,17.711,59.102,18.662,57.928,18.662z"/>
		</g>
		<g>
			<path fill="#231815" d="M66.351,12.894c-2.013,0-3.644,1.631-3.644,3.644c0,2.01,1.631,3.641,3.644,3.641
				c2.012,0,3.643-1.631,3.643-3.641C69.993,14.524,68.362,12.894,66.351,12.894z M66.351,18.662c-1.175,0-2.127-0.951-2.127-2.125
				c0-1.176,0.952-2.127,2.127-2.127s2.127,0.951,2.127,2.127C68.478,17.711,67.525,18.662,66.351,18.662z"/>
		</g>
		<g>
			<path fill="#231815" d="M89.396,15.713c-0.374-1.615-1.82-2.819-3.549-2.819c-2.013,0-3.644,1.631-3.644,3.644
				c0,2.01,1.631,3.641,3.644,3.641c1.302,0,2.44-0.684,3.086-1.711l-1.206-0.959c-0.354,0.684-1.059,1.154-1.88,1.154
				c-0.665,0-1.253-0.311-1.642-0.789C84.206,17.873,89.458,15.977,89.396,15.713z M85.848,14.41c0.533,0,1.015,0.203,1.389,0.527
				l-3.496,1.398C83.843,15.257,84.742,14.41,85.848,14.41z"/>
		</g>
		<g>
			<path fill="#231815" d="M78.37,12.914h-1.602v0.592c-0.591-0.411-1.307-0.654-2.081-0.654c-2.012,0-3.643,1.631-3.643,3.643
				s1.631,3.643,3.643,3.643c0.734,0,1.415-0.219,1.987-0.592c0.04,0.178,0.056,0.389,0.056,0.654c0,1.176-0.953,2.127-2.128,2.127
				c-1.048,0-1.915-0.762-2.089-1.76l-1.168,0.871c0.561,1.291,1.845,2.193,3.342,2.193c1.998,0,3.618-1.607,3.643-3.6h0.04V12.914z
				 M74.688,18.621c-1.175,0-2.126-0.953-2.126-2.127s0.951-2.127,2.126-2.127c1.025,0,1.88,0.725,2.081,1.689v0.875
				C76.567,17.896,75.713,18.621,74.688,18.621z"/>
		</g>
	</g>
	<g>
		<g>
			<path fill="#FFFFFF" d="M53.066,13.529h-5.6v1.601h3.871c-0.479,1.71-2.046,2.966-3.91,2.966c-2.244,0-4.064-1.818-4.064-4.063
				c0-2.243,1.82-4.063,4.064-4.063c1.018,0,1.946,0.377,2.659,0.995l1.229-1.042c-1.015-0.96-2.381-1.553-3.888-1.553
				c-3.128,0-5.664,2.535-5.664,5.663s2.536,5.665,5.664,5.665c2.752,0,5.044-1.965,5.555-4.567L53.066,13.529z"/>
		</g>
		<g>
			<rect x="78.944" y="8.582" fill="#FFFFFF" width="1.6" height="11.074"/>
		</g>
		<g>
			<path fill="#FFFFFF" d="M57.365,12.519c-2.012,0-3.642,1.631-3.642,3.644c0,2.01,1.63,3.641,3.642,3.641
				c2.013,0,3.644-1.631,3.644-3.641C61.009,14.149,59.378,12.519,57.365,12.519z M57.365,18.287c-1.174,0-2.126-0.951-2.126-2.125
				c0-1.175,0.953-2.127,2.126-2.127s2.127,0.952,2.127,2.127C59.492,17.336,58.539,18.287,57.365,18.287z"/>
		</g>
		<g>
			<path fill="#FFFFFF" d="M65.788,12.519c-2.013,0-3.644,1.631-3.644,3.644c0,2.01,1.631,3.641,3.644,3.641
				c2.012,0,3.643-1.631,3.643-3.641C69.431,14.149,67.8,12.519,65.788,12.519z M65.788,18.287c-1.175,0-2.127-0.951-2.127-2.125
				c0-1.175,0.952-2.127,2.127-2.127s2.127,0.952,2.127,2.127C67.915,17.336,66.963,18.287,65.788,18.287z"/>
		</g>
		<g>
			<path fill="#FFFFFF" d="M88.834,15.338c-0.374-1.615-1.82-2.819-3.549-2.819c-2.013,0-3.644,1.631-3.644,3.644
				c0,2.01,1.631,3.641,3.644,3.641c1.302,0,2.44-0.684,3.086-1.711l-1.206-0.959c-0.354,0.684-1.059,1.154-1.88,1.154
				c-0.665,0-1.253-0.311-1.642-0.789C83.644,17.498,88.896,15.602,88.834,15.338z M85.285,14.035c0.533,0,1.015,0.203,1.389,0.527
				l-3.496,1.398C83.28,14.882,84.18,14.035,85.285,14.035z"/>
		</g>
		<g>
			<path fill="#FFFFFF" d="M77.808,12.539h-1.602v0.592c-0.591-0.411-1.307-0.654-2.081-0.654c-2.012,0-3.643,1.631-3.643,3.643
				s1.631,3.643,3.643,3.643c0.734,0,1.415-0.219,1.987-0.592c0.04,0.178,0.056,0.389,0.056,0.654c0,1.176-0.953,2.127-2.128,2.127
				c-1.048,0-1.915-0.762-2.089-1.76l-1.168,0.871c0.561,1.291,1.845,2.193,3.342,2.193c1.998,0,3.618-1.607,3.643-3.6h0.04V12.539z
				 M74.125,18.246c-1.175,0-2.126-0.953-2.126-2.127s0.951-2.127,2.126-2.127c1.025,0,1.88,0.725,2.081,1.689v0.875
				C76.005,17.521,75.15,18.246,74.125,18.246z"/>
		</g>
	</g>
</g>
</svg>
