<?xml version="1.0" encoding="utf-8"?>
<!-- Generator: Adobe Illustrator 16.0.0, SVG Export Plug-In . SVG Version: 6.00 Build 0)  -->
<!DOCTYPE svg PUBLIC "-//W3C//DTD SVG 1.1//EN" "http://www.w3.org/Graphics/SVG/1.1/DTD/svg11.dtd">
<svg version="1.1" id="圖層_1" xmlns="http://www.w3.org/2000/svg" xmlns:xlink="http://www.w3.org/1999/xlink" x="0px" y="0px"
	 width="140px" height="30px" viewBox="0 0 140 30" enable-background="new 0 0 140 30" xml:space="preserve">
<path fill="#FF6200" d="M140,27c0,1.656-1.344,3-3,3H2.945c-1.657,0-3-1.344-3-3V3c0-1.657,1.343-3,3-3H137c1.656,0,3,1.343,3,3V27z
	"/>
<path fill="#FFB74D" d="M139,26c0,1.656-1.344,3-3,3H3.945c-1.657,0-3-1.344-3-3V4c0-1.657,1.343-3,3-3H136c1.656,0,3,1.343,3,3V26z
	"/>
<g display="none">
	<g display="inline" opacity="0.75">
		<path fill="#1C4685" d="M12.426,16.48v8.35h4.06V16.52h2.773l0.671-3.461h-3.413c0,0,0-1.629,0-2.54
			c0-0.352,0.186-0.821,0.754-0.821c0.877,0,1.974,0,1.974,0V6.17c0,0-1.779,0-3.686,0c-1.271,0-3.148,1.565-3.148,3.23
			c0,1.713,0,3.56,0,3.56h-2.13v3.507L12.426,16.48z"/>
	</g>
	<g display="inline">
		<path fill="#FFFFFF" d="M11.926,15.98v8.35h4.06V16.02h2.773l0.671-3.461h-3.413c0,0,0-1.629,0-2.54
			c0-0.352,0.186-0.821,0.754-0.821c0.877,0,1.974,0,1.974,0V5.67c0,0-1.779,0-3.686,0c-1.271,0-3.148,1.565-3.148,3.23
			c0,1.713,0,3.56,0,3.56H9.78v3.507L11.926,15.98z"/>
	</g>
</g>
<g display="none">
	<g display="inline" opacity="0.75">
		<path fill="#1C4685" d="M31.871,20.74V10.719h6.87v1.695h-4.847v2.372h4.184v1.696h-4.184v4.258H31.871z"/>
		<path fill="#1C4685" d="M41.83,15.695l-1.743-0.313c0.196-0.702,0.533-1.221,1.012-1.559c0.479-0.337,1.19-0.506,2.133-0.506
			c0.856,0,1.494,0.102,1.914,0.304c0.419,0.203,0.714,0.46,0.885,0.772c0.171,0.312,0.256,0.885,0.256,1.72l-0.02,2.242
			c0,0.638,0.03,1.105,0.092,1.41s0.177,0.629,0.346,0.975h-1.9c-0.051-0.127-0.112-0.316-0.186-0.566
			c-0.031-0.113-0.055-0.189-0.068-0.227c-0.328,0.318-0.679,0.559-1.053,0.719c-0.373,0.159-0.771,0.238-1.195,0.238
			c-0.748,0-1.337-0.202-1.768-0.607c-0.431-0.406-0.646-0.919-0.646-1.539c0-0.41,0.098-0.775,0.294-1.097
			c0.196-0.322,0.471-0.567,0.824-0.738c0.354-0.171,0.862-0.319,1.528-0.448c0.897-0.168,1.52-0.324,1.865-0.471v-0.191
			c0-0.37-0.091-0.631-0.273-0.791c-0.182-0.157-0.525-0.236-1.031-0.236c-0.342,0-0.609,0.067-0.801,0.202
			C42.103,15.123,41.949,15.358,41.83,15.695z M44.4,17.254c-0.246,0.082-0.635,0.182-1.168,0.295
			c-0.533,0.113-0.883,0.225-1.047,0.334c-0.25,0.178-0.375,0.404-0.375,0.678c0,0.271,0.1,0.502,0.301,0.697
			c0.2,0.195,0.455,0.293,0.766,0.293c0.346,0,0.676-0.113,0.99-0.342c0.232-0.173,0.386-0.385,0.459-0.635
			c0.05-0.164,0.074-0.477,0.074-0.938V17.254z"/>
		<path fill="#1C4685" d="M54.511,15.627l-1.894,0.342c-0.063-0.378-0.209-0.663-0.434-0.854c-0.227-0.191-0.519-0.287-0.879-0.287
			c-0.479,0-0.86,0.165-1.145,0.496c-0.285,0.331-0.428,0.883-0.428,1.657c0,0.86,0.145,1.472,0.434,1.826
			c0.29,0.354,0.679,0.532,1.166,0.532c0.364,0,0.663-0.104,0.896-0.313c0.233-0.207,0.396-0.563,0.492-1.067l1.887,0.319
			c-0.196,0.865-0.572,1.521-1.128,1.964c-0.556,0.44-1.301,0.661-2.235,0.661c-1.062,0-1.908-0.334-2.54-1.004
			c-0.631-0.67-0.946-1.599-0.946-2.782c0-1.198,0.316-2.131,0.95-2.799s1.49-1.001,2.57-1.001c0.884,0,1.587,0.19,2.109,0.571
			C53.908,14.268,54.283,14.848,54.511,15.627z"/>
		<path fill="#1C4685" d="M60.172,18.43l1.914,0.322c-0.246,0.701-0.635,1.236-1.166,1.604c-0.529,0.365-1.193,0.551-1.992,0.551
			c-1.263,0-2.195-0.412-2.803-1.236c-0.479-0.661-0.718-1.495-0.718-2.502c0-1.204,0.313-2.146,0.942-2.827
			c0.629-0.681,1.424-1.022,2.387-1.022c1.08,0,1.933,0.356,2.557,1.07c0.624,0.714,0.923,1.804,0.896,3.277h-4.813
			c0.015,0.568,0.169,1.016,0.465,1.33s0.665,0.475,1.107,0.475c0.301,0,0.554-0.08,0.759-0.244S60.066,18.795,60.172,18.43z
			 M60.281,16.488c-0.014-0.557-0.157-0.979-0.432-1.269c-0.273-0.29-0.605-0.434-0.998-0.434c-0.418,0-0.767,0.153-1.039,0.458
			c-0.272,0.305-0.408,0.72-0.402,1.243h2.871V16.488z"/>
		<path fill="#1C4685" d="M63.671,20.74V10.719h1.921v3.609c0.594-0.674,1.295-1.012,2.105-1.012c0.884,0,1.615,0.32,2.193,0.96
			c0.58,0.64,0.867,1.56,0.867,2.758c0,1.239-0.295,2.194-0.885,2.864c-0.591,0.67-1.309,1.004-2.148,1.004
			c-0.416,0-0.824-0.104-1.229-0.312s-0.751-0.514-1.043-0.92v1.065H63.67L63.671,20.74L63.671,20.74z M65.578,16.953
			c0,0.752,0.117,1.309,0.355,1.668c0.332,0.511,0.772,0.766,1.324,0.766c0.426,0,0.785-0.181,1.084-0.543
			c0.299-0.361,0.447-0.934,0.447-1.713c0-0.828-0.148-1.427-0.451-1.794c-0.301-0.367-0.688-0.55-1.154-0.55
			c-0.459,0-0.844,0.179-1.147,0.537C65.73,15.682,65.578,16.225,65.578,16.953z"/>
		<path fill="#1C4685" d="M71.861,17.008c0-0.638,0.156-1.255,0.472-1.852c0.315-0.597,0.76-1.053,1.337-1.367
			c0.576-0.314,1.221-0.472,1.932-0.472c1.1,0,1.998,0.356,2.699,1.07c0.702,0.714,1.053,1.614,1.053,2.703
			c0,1.1-0.354,2.01-1.063,2.73c-0.709,0.723-1.602,1.084-2.678,1.084c-0.664,0-1.299-0.15-1.902-0.451s-1.063-0.741-1.378-1.322
			S71.861,17.842,71.861,17.008z M73.83,17.111c0,0.72,0.171,1.271,0.513,1.654c0.343,0.383,0.765,0.572,1.265,0.572
			c0.502,0,0.922-0.189,1.264-0.572c0.339-0.385,0.509-0.939,0.509-1.668c0-0.713-0.17-1.26-0.509-1.643
			c-0.342-0.383-0.762-0.574-1.264-0.574c-0.5,0-0.922,0.191-1.265,0.574C74.001,15.839,73.83,16.391,73.83,17.111z"/>
		<path fill="#1C4685" d="M80.412,17.008c0-0.638,0.156-1.255,0.472-1.852c0.315-0.597,0.761-1.053,1.337-1.367
			s1.221-0.472,1.932-0.472c1.1,0,1.998,0.356,2.699,1.07c0.703,0.714,1.053,1.614,1.053,2.703c0,1.1-0.354,2.01-1.063,2.73
			c-0.709,0.723-1.602,1.084-2.677,1.084c-0.665,0-1.3-0.15-1.903-0.451c-0.603-0.301-1.063-0.741-1.378-1.322
			S80.412,17.842,80.412,17.008z M82.381,17.111c0,0.72,0.171,1.271,0.514,1.654c0.342,0.383,0.765,0.572,1.266,0.572
			s0.922-0.189,1.262-0.572c0.34-0.385,0.51-0.939,0.51-1.668c0-0.713-0.17-1.26-0.51-1.643c-0.34-0.383-0.761-0.574-1.262-0.574
			s-0.924,0.191-1.266,0.574C82.552,15.839,82.381,16.391,82.381,17.111z"/>
		<path fill="#1C4685" d="M89.341,20.74V10.719h1.921v5.318l2.25-2.556h2.364l-2.481,2.652l2.66,4.607h-2.072l-1.823-3.26
			l-0.896,0.936v2.324H89.341z"/>
	</g>
	<g display="inline">
		<g>
			<path fill="#FFFFFF" d="M31.371,20.24V10.219h6.87v1.695h-4.847v2.372h4.184v1.694h-4.184v4.258L31.371,20.24L31.371,20.24z"/>
			<path fill="#FFFFFF" d="M41.33,15.196l-1.743-0.314c0.196-0.702,0.533-1.221,1.012-1.559c0.479-0.337,1.19-0.506,2.133-0.506
				c0.856,0,1.494,0.102,1.914,0.304c0.419,0.203,0.714,0.46,0.885,0.772c0.171,0.312,0.256,0.885,0.256,1.718l-0.02,2.244
				c0,0.638,0.03,1.105,0.092,1.41s0.177,0.629,0.346,0.975h-1.9c-0.051-0.127-0.112-0.316-0.186-0.566
				c-0.031-0.113-0.055-0.189-0.068-0.227c-0.328,0.318-0.679,0.559-1.053,0.719c-0.373,0.159-0.771,0.238-1.195,0.238
				c-0.748,0-1.337-0.202-1.768-0.607c-0.431-0.406-0.646-0.919-0.646-1.539c0-0.41,0.098-0.775,0.294-1.097
				c0.196-0.322,0.471-0.567,0.824-0.738c0.354-0.171,0.862-0.319,1.528-0.448c0.897-0.168,1.52-0.326,1.865-0.472v-0.191
				c0-0.369-0.091-0.632-0.273-0.79c-0.182-0.157-0.525-0.236-1.031-0.236c-0.342,0-0.609,0.067-0.801,0.202
				C41.603,14.623,41.449,14.858,41.33,15.196z M43.9,16.754c-0.246,0.082-0.635,0.182-1.168,0.295
				c-0.533,0.113-0.883,0.225-1.047,0.334c-0.25,0.178-0.375,0.404-0.375,0.678c0,0.271,0.1,0.502,0.301,0.697
				c0.2,0.195,0.455,0.293,0.766,0.293c0.346,0,0.676-0.113,0.99-0.342c0.232-0.173,0.386-0.385,0.459-0.635
				c0.05-0.164,0.074-0.477,0.074-0.938V16.754z"/>
			<path fill="#FFFFFF" d="M54.011,15.127l-1.894,0.342c-0.063-0.378-0.209-0.663-0.434-0.854c-0.227-0.191-0.519-0.287-0.879-0.287
				c-0.479,0-0.86,0.165-1.145,0.496c-0.285,0.331-0.428,0.883-0.428,1.657c0,0.86,0.145,1.472,0.434,1.826
				c0.29,0.354,0.679,0.532,1.166,0.532c0.364,0,0.663-0.104,0.896-0.313c0.233-0.207,0.396-0.563,0.492-1.067l1.887,0.319
				c-0.196,0.865-0.572,1.521-1.128,1.964c-0.556,0.44-1.301,0.661-2.235,0.661c-1.062,0-1.908-0.334-2.54-1.004
				c-0.631-0.67-0.946-1.599-0.946-2.782c0-1.198,0.316-2.131,0.95-2.799s1.49-1.001,2.57-1.001c0.884,0,1.587,0.19,2.109,0.571
				C53.408,13.768,53.783,14.348,54.011,15.127z"/>
			<path fill="#FFFFFF" d="M59.672,17.93l1.914,0.322c-0.246,0.701-0.635,1.236-1.166,1.604c-0.529,0.365-1.193,0.551-1.992,0.551
				c-1.263,0-2.195-0.412-2.803-1.236c-0.479-0.661-0.718-1.495-0.718-2.502c0-1.204,0.314-2.146,0.942-2.827
				c0.629-0.681,1.424-1.022,2.387-1.022c1.08,0,1.933,0.356,2.557,1.07c0.624,0.714,0.923,1.804,0.896,3.277h-4.813
				c0.015,0.568,0.169,1.016,0.465,1.33s0.665,0.475,1.107,0.475c0.301,0,0.554-0.08,0.759-0.244S59.566,18.295,59.672,17.93z
				 M59.781,15.988c-0.014-0.555-0.157-0.978-0.432-1.267c-0.273-0.289-0.605-0.434-0.998-0.434c-0.418,0-0.767,0.153-1.039,0.458
				c-0.272,0.305-0.408,0.72-0.402,1.243H59.781z"/>
			<path fill="#FFFFFF" d="M63.171,20.24V10.219h1.921v3.609c0.594-0.674,1.295-1.012,2.105-1.012c0.884,0,1.615,0.32,2.193,0.96
				c0.58,0.64,0.867,1.56,0.867,2.758c0,1.239-0.295,2.194-0.885,2.864c-0.591,0.67-1.309,1.004-2.148,1.004
				c-0.416,0-0.824-0.104-1.229-0.312s-0.751-0.514-1.043-0.92v1.065H63.17L63.171,20.24L63.171,20.24z M65.078,16.453
				c0,0.752,0.117,1.309,0.355,1.668c0.332,0.511,0.772,0.766,1.324,0.766c0.426,0,0.785-0.181,1.084-0.543
				c0.299-0.361,0.447-0.934,0.447-1.713c0-0.828-0.148-1.427-0.451-1.794c-0.301-0.367-0.688-0.55-1.154-0.55
				c-0.459,0-0.844,0.179-1.147,0.537C65.23,15.182,65.078,15.725,65.078,16.453z"/>
			<path fill="#FFFFFF" d="M71.361,16.508c0-0.638,0.156-1.255,0.472-1.852c0.315-0.597,0.76-1.053,1.337-1.367
				c0.576-0.314,1.221-0.472,1.932-0.472c1.1,0,1.998,0.356,2.699,1.07c0.702,0.714,1.053,1.614,1.053,2.703
				c0,1.1-0.354,2.01-1.063,2.73c-0.709,0.723-1.602,1.084-2.678,1.084c-0.664,0-1.299-0.15-1.902-0.451s-1.063-0.741-1.378-1.322
				S71.361,17.342,71.361,16.508z M73.33,16.611c0,0.72,0.171,1.271,0.513,1.654c0.343,0.383,0.765,0.572,1.265,0.572
				c0.502,0,0.922-0.189,1.264-0.572c0.339-0.385,0.509-0.939,0.509-1.668c0-0.713-0.17-1.26-0.509-1.643
				c-0.342-0.383-0.762-0.574-1.264-0.574c-0.5,0-0.922,0.191-1.265,0.574C73.501,15.339,73.33,15.891,73.33,16.611z"/>
			<path fill="#FFFFFF" d="M79.912,16.508c0-0.638,0.156-1.255,0.472-1.852c0.315-0.597,0.761-1.053,1.337-1.367
				s1.221-0.472,1.932-0.472c1.1,0,1.998,0.356,2.699,1.07c0.703,0.714,1.053,1.614,1.053,2.703c0,1.1-0.354,2.01-1.063,2.73
				c-0.709,0.723-1.602,1.084-2.677,1.084c-0.665,0-1.3-0.15-1.903-0.451c-0.603-0.301-1.063-0.741-1.378-1.322
				S79.912,17.342,79.912,16.508z M81.881,16.611c0,0.72,0.171,1.271,0.514,1.654c0.342,0.383,0.765,0.572,1.266,0.572
				s0.922-0.189,1.262-0.572c0.34-0.385,0.51-0.939,0.51-1.668c0-0.713-0.17-1.26-0.51-1.643c-0.34-0.383-0.761-0.574-1.262-0.574
				s-0.924,0.191-1.266,0.574C82.052,15.339,81.881,15.891,81.881,16.611z"/>
			<path fill="#FFFFFF" d="M88.841,20.24V10.219h1.921v5.318l2.25-2.557h2.364l-2.481,2.652l2.66,4.606h-2.072l-1.823-3.26
				l-0.896,0.937v2.323L88.841,20.24L88.841,20.24z"/>
		</g>
	</g>
</g>
<g display="none">
	<g display="inline" opacity="0.75">
		<path fill="#1C4685" d="M31.871,20.551V10.529h6.87v1.695h-4.847v2.372h4.184v1.696h-4.184v4.258L31.871,20.551L31.871,20.551z"/>
		<path fill="#1C4685" d="M41.83,15.506l-1.743-0.313c0.196-0.701,0.533-1.221,1.012-1.559c0.479-0.337,1.19-0.506,2.133-0.506
			c0.855,0,1.494,0.102,1.914,0.304c0.418,0.203,0.713,0.46,0.885,0.772c0.171,0.312,0.256,0.885,0.256,1.72l-0.02,2.242
			c0,0.639,0.029,1.107,0.092,1.41c0.062,0.305,0.177,0.629,0.346,0.975h-1.9c-0.051-0.127-0.111-0.316-0.186-0.566
			c-0.031-0.112-0.055-0.188-0.068-0.227c-0.328,0.318-0.679,0.559-1.053,0.719c-0.373,0.16-0.771,0.238-1.195,0.238
			c-0.748,0-1.337-0.201-1.768-0.607c-0.431-0.405-0.646-0.918-0.646-1.539c0-0.409,0.098-0.774,0.294-1.096
			c0.196-0.322,0.471-0.568,0.824-0.738c0.354-0.172,0.862-0.319,1.528-0.448c0.896-0.168,1.52-0.324,1.865-0.472v-0.19
			c0-0.369-0.092-0.632-0.273-0.79c-0.182-0.157-0.525-0.236-1.031-0.236c-0.342,0-0.609,0.067-0.801,0.202
			C42.103,14.935,41.949,15.169,41.83,15.506z M44.4,17.064c-0.246,0.082-0.635,0.182-1.168,0.295
			c-0.533,0.113-0.883,0.225-1.047,0.334c-0.25,0.178-0.375,0.404-0.375,0.678c0,0.27,0.1,0.502,0.301,0.697
			c0.2,0.195,0.455,0.293,0.766,0.293c0.346,0,0.676-0.113,0.99-0.342c0.232-0.172,0.386-0.386,0.459-0.636
			c0.05-0.163,0.074-0.478,0.074-0.938V17.064z"/>
		<path fill="#1C4685" d="M54.512,15.438l-1.895,0.341c-0.063-0.377-0.209-0.661-0.434-0.853c-0.228-0.191-0.52-0.287-0.879-0.287
			c-0.479,0-0.861,0.165-1.146,0.496c-0.285,0.331-0.429,0.882-0.429,1.656c0,0.861,0.146,1.473,0.435,1.826
			c0.29,0.355,0.679,0.533,1.166,0.533c0.364,0,0.663-0.104,0.896-0.313c0.233-0.207,0.396-0.563,0.492-1.067l1.887,0.319
			c-0.195,0.865-0.571,1.521-1.127,1.964c-0.557,0.44-1.302,0.661-2.235,0.661c-1.062,0-1.908-0.334-2.54-1.004
			c-0.631-0.67-0.946-1.599-0.946-2.782c0-1.199,0.316-2.132,0.95-2.8s1.49-1.001,2.57-1.001c0.884,0,1.586,0.189,2.109,0.571
			C53.908,14.079,54.283,14.659,54.512,15.438z"/>
		<path fill="#1C4685" d="M60.172,18.24l1.914,0.322c-0.246,0.701-0.635,1.235-1.166,1.604c-0.529,0.365-1.193,0.551-1.992,0.551
			c-1.263,0-2.195-0.412-2.803-1.236c-0.479-0.662-0.718-1.496-0.718-2.502c0-1.205,0.313-2.146,0.942-2.828
			c0.629-0.681,1.424-1.021,2.387-1.021c1.08,0,1.933,0.355,2.557,1.07c0.624,0.714,0.923,1.805,0.896,3.276h-4.813
			c0.015,0.568,0.169,1.015,0.465,1.33c0.296,0.314,0.665,0.475,1.107,0.475c0.301,0,0.554-0.081,0.759-0.245
			S60.066,18.605,60.172,18.24z M60.281,16.299c-0.014-0.557-0.157-0.979-0.432-1.269c-0.273-0.289-0.605-0.434-0.998-0.434
			c-0.418,0-0.767,0.153-1.039,0.458c-0.272,0.305-0.408,0.719-0.402,1.244L60.281,16.299L60.281,16.299z"/>
		<path fill="#1C4685" d="M63.671,20.551V10.529h1.921v3.609c0.594-0.674,1.295-1.012,2.105-1.012c0.884,0,1.615,0.319,2.193,0.96
			c0.58,0.64,0.867,1.561,0.867,2.76c0,1.237-0.295,2.192-0.885,2.862c-0.591,0.67-1.309,1.004-2.148,1.004
			c-0.416,0-0.824-0.104-1.229-0.312s-0.751-0.514-1.043-0.92v1.066H63.67L63.671,20.551L63.671,20.551z M65.578,16.764
			c0,0.752,0.117,1.309,0.355,1.668c0.332,0.512,0.772,0.766,1.324,0.766c0.426,0,0.785-0.18,1.084-0.543
			c0.299-0.36,0.447-0.934,0.447-1.713c0-0.828-0.148-1.426-0.451-1.793c-0.301-0.367-0.688-0.55-1.154-0.55
			c-0.459,0-0.844,0.179-1.147,0.537C65.73,15.492,65.578,16.035,65.578,16.764z"/>
		<path fill="#1C4685" d="M71.861,16.818c0-0.637,0.156-1.256,0.472-1.853s0.76-1.053,1.337-1.367
			c0.576-0.313,1.221-0.472,1.932-0.472c1.1,0,1.998,0.355,2.699,1.07c0.702,0.714,1.053,1.614,1.053,2.702
			c0,1.101-0.354,2.011-1.063,2.73c-0.709,0.723-1.602,1.084-2.678,1.084c-0.664,0-1.299-0.15-1.902-0.451s-1.063-0.74-1.378-1.322
			C72.018,18.361,71.861,17.652,71.861,16.818z M73.83,16.922c0,0.721,0.171,1.271,0.513,1.654c0.343,0.383,0.765,0.574,1.265,0.574
			c0.502,0,0.922-0.191,1.264-0.574c0.339-0.383,0.509-0.939,0.509-1.668c0-0.711-0.17-1.26-0.509-1.642
			c-0.342-0.383-0.762-0.574-1.264-0.574c-0.5,0-0.922,0.191-1.265,0.574C74.001,15.648,73.83,16.201,73.83,16.922z"/>
		<path fill="#1C4685" d="M80.412,16.818c0-0.637,0.156-1.256,0.472-1.853c0.316-0.597,0.761-1.053,1.337-1.367
			c0.576-0.313,1.221-0.472,1.932-0.472c1.1,0,1.998,0.355,2.699,1.07c0.703,0.714,1.053,1.614,1.053,2.702
			c0,1.101-0.354,2.011-1.063,2.73c-0.709,0.723-1.602,1.084-2.677,1.084c-0.665,0-1.3-0.15-1.903-0.451
			c-0.603-0.301-1.063-0.74-1.378-1.322C80.568,18.361,80.412,17.652,80.412,16.818z M82.381,16.922
			c0,0.721,0.171,1.271,0.514,1.654c0.342,0.383,0.765,0.574,1.266,0.574s0.922-0.191,1.262-0.574s0.51-0.939,0.51-1.668
			c0-0.711-0.17-1.26-0.51-1.642c-0.34-0.383-0.761-0.574-1.262-0.574s-0.924,0.191-1.266,0.574
			C82.552,15.648,82.381,16.201,82.381,16.922z"/>
		<path fill="#1C4685" d="M89.341,20.551V10.529h1.921v5.319l2.25-2.557h2.364l-2.481,2.65l2.66,4.607h-2.072l-1.823-3.26
			l-0.896,0.936v2.324h-1.923V20.551z"/>
	</g>
	<g display="inline">
		<g>
			<path fill="#FFFFFF" d="M31.371,20.051V10.029h6.87v1.695h-4.847v2.372h4.184v1.694h-4.184v4.26L31.371,20.051L31.371,20.051z"/>
			<path fill="#FFFFFF" d="M41.33,15.007l-1.743-0.314c0.196-0.701,0.533-1.221,1.012-1.559c0.479-0.337,1.19-0.506,2.133-0.506
				c0.855,0,1.494,0.102,1.914,0.304c0.418,0.203,0.713,0.46,0.885,0.772c0.171,0.312,0.256,0.885,0.256,1.718l-0.02,2.244
				c0,0.639,0.029,1.107,0.092,1.41c0.062,0.305,0.177,0.629,0.346,0.975h-1.9c-0.051-0.127-0.111-0.316-0.186-0.566
				c-0.031-0.112-0.055-0.188-0.068-0.227c-0.328,0.318-0.679,0.559-1.053,0.719c-0.373,0.16-0.771,0.238-1.195,0.238
				c-0.748,0-1.337-0.201-1.768-0.607c-0.431-0.405-0.646-0.918-0.646-1.539c0-0.409,0.098-0.774,0.294-1.096
				c0.196-0.322,0.471-0.568,0.824-0.738c0.354-0.172,0.862-0.319,1.528-0.448c0.896-0.168,1.52-0.326,1.865-0.472v-0.19
				c0-0.369-0.092-0.632-0.273-0.79c-0.182-0.157-0.525-0.236-1.031-0.236c-0.342,0-0.609,0.067-0.801,0.202
				C41.603,14.435,41.449,14.669,41.33,15.007z M43.9,16.564c-0.246,0.082-0.635,0.182-1.168,0.295
				c-0.533,0.113-0.883,0.225-1.047,0.334c-0.25,0.178-0.375,0.404-0.375,0.678c0,0.27,0.1,0.502,0.301,0.697
				c0.2,0.195,0.455,0.293,0.766,0.293c0.346,0,0.676-0.113,0.99-0.342c0.232-0.172,0.386-0.386,0.459-0.636
				c0.05-0.163,0.074-0.478,0.074-0.938V16.564z"/>
			<path fill="#FFFFFF" d="M54.012,14.938l-1.895,0.342c-0.063-0.378-0.209-0.662-0.434-0.854c-0.228-0.191-0.52-0.287-0.879-0.287
				c-0.479,0-0.861,0.165-1.146,0.496c-0.285,0.331-0.429,0.882-0.429,1.656c0,0.861,0.146,1.473,0.435,1.826
				c0.29,0.355,0.679,0.533,1.166,0.533c0.364,0,0.663-0.104,0.896-0.313c0.233-0.207,0.396-0.563,0.492-1.067l1.887,0.319
				c-0.195,0.865-0.571,1.521-1.127,1.964c-0.557,0.44-1.302,0.661-2.235,0.661c-1.062,0-1.908-0.334-2.54-1.004
				c-0.631-0.67-0.946-1.599-0.946-2.782c0-1.199,0.316-2.132,0.95-2.8s1.49-1.001,2.57-1.001c0.884,0,1.586,0.189,2.109,0.571
				C53.408,13.579,53.783,14.159,54.012,14.938z"/>
			<path fill="#FFFFFF" d="M59.672,17.74l1.914,0.322c-0.246,0.701-0.635,1.235-1.166,1.604c-0.529,0.365-1.193,0.551-1.992,0.551
				c-1.263,0-2.195-0.412-2.803-1.236c-0.479-0.662-0.718-1.496-0.718-2.502c0-1.205,0.313-2.146,0.942-2.828
				c0.629-0.681,1.424-1.021,2.387-1.021c1.08,0,1.933,0.355,2.557,1.07c0.624,0.714,0.923,1.805,0.896,3.276h-4.813
				c0.015,0.568,0.169,1.015,0.465,1.33c0.296,0.314,0.665,0.475,1.107,0.475c0.301,0,0.554-0.081,0.759-0.245
				S59.566,18.105,59.672,17.74z M59.781,15.8c-0.014-0.556-0.157-0.979-0.432-1.268c-0.273-0.289-0.605-0.435-0.998-0.435
				c-0.418,0-0.767,0.153-1.039,0.458c-0.272,0.305-0.408,0.72-0.402,1.244L59.781,15.8L59.781,15.8z"/>
			<path fill="#FFFFFF" d="M63.171,20.051V10.029h1.921v3.609c0.594-0.674,1.295-1.012,2.105-1.012c0.884,0,1.615,0.319,2.193,0.96
				c0.58,0.64,0.867,1.56,0.867,2.76c0,1.237-0.295,2.192-0.885,2.862c-0.591,0.67-1.309,1.004-2.148,1.004
				c-0.416,0-0.824-0.104-1.229-0.312s-0.751-0.514-1.043-0.92v1.066H63.17L63.171,20.051L63.171,20.051z M65.078,16.264
				c0,0.752,0.117,1.309,0.355,1.668c0.332,0.512,0.772,0.766,1.324,0.766c0.426,0,0.785-0.18,1.084-0.543
				c0.299-0.36,0.447-0.934,0.447-1.713c0-0.828-0.148-1.426-0.451-1.793c-0.301-0.367-0.688-0.55-1.154-0.55
				c-0.459,0-0.844,0.179-1.147,0.537C65.23,14.993,65.078,15.535,65.078,16.264z"/>
			<path fill="#FFFFFF" d="M71.361,16.318c0-0.639,0.156-1.255,0.472-1.853c0.315-0.597,0.76-1.053,1.337-1.367
				c0.576-0.313,1.221-0.472,1.932-0.472c1.1,0,1.998,0.355,2.699,1.07c0.702,0.714,1.053,1.613,1.053,2.702
				c0,1.101-0.354,2.011-1.063,2.73c-0.709,0.723-1.602,1.084-2.678,1.084c-0.664,0-1.299-0.15-1.902-0.451s-1.063-0.74-1.378-1.322
				C71.518,17.861,71.361,17.152,71.361,16.318z M73.33,16.422c0,0.721,0.171,1.271,0.513,1.654
				c0.343,0.383,0.765,0.574,1.265,0.574c0.502,0,0.922-0.191,1.264-0.574c0.339-0.383,0.509-0.939,0.509-1.668
				c0-0.713-0.17-1.259-0.509-1.642c-0.342-0.383-0.762-0.574-1.264-0.574c-0.5,0-0.922,0.191-1.265,0.574
				C73.501,15.149,73.33,15.701,73.33,16.422z"/>
			<path fill="#FFFFFF" d="M79.912,16.318c0-0.639,0.156-1.255,0.472-1.853c0.316-0.597,0.761-1.053,1.337-1.367
				c0.576-0.313,1.221-0.472,1.932-0.472c1.1,0,1.998,0.355,2.699,1.07c0.703,0.714,1.053,1.613,1.053,2.702
				c0,1.101-0.354,2.011-1.063,2.73c-0.709,0.723-1.602,1.084-2.677,1.084c-0.665,0-1.3-0.15-1.903-0.451
				c-0.603-0.301-1.063-0.74-1.378-1.322C80.068,17.861,79.912,17.152,79.912,16.318z M81.881,16.422
				c0,0.721,0.171,1.271,0.514,1.654c0.342,0.383,0.765,0.574,1.266,0.574s0.922-0.191,1.262-0.574s0.51-0.939,0.51-1.668
				c0-0.713-0.17-1.259-0.51-1.642c-0.34-0.383-0.761-0.574-1.262-0.574s-0.924,0.191-1.266,0.574
				C82.052,15.149,81.881,15.701,81.881,16.422z"/>
			<path fill="#FFFFFF" d="M88.841,20.051V10.029h1.921v5.318l2.25-2.557h2.364l-2.481,2.651l2.66,4.608h-2.072l-1.823-3.262
				l-0.896,0.938v2.324h-1.923V20.051z"/>
		</g>
	</g>
</g>
<g>
	<g id="g2202_4_" transform="matrix(1.031807e-2,0,0,1.031807e-2,143.3621,-90.91537)">
		<path id="path2204_4_" fill="#616161" d="M-9162.238,10075.152c-192.129-119.443-459.508-193.031-752.152-193.031
			c-589.648,0-1066.477,294.303-1066.477,657.65c0,332.777,397.988,604.98,913.148,651.736v-191.375
			c-347.449-43.35-608.012-233.777-608.012-460.361c0-258.574,340.258-469.873,761.34-469.873
			c209.449,0,399.598,52.197,536.453,137.191l-195.16,121.053h609.051V9952.49L-9162.238,10075.152z"/>
		<path id="path2206_4_" fill="#616161" d="M-10067.719,9555.969v1444.164v191.375l305.328-191.375V9359.34L-10067.719,9555.969z"/>
	</g>
	<g>
		<g>
			<g>
				<path fill="#616161" d="M73.811,9.573C73.352,9,72.743,8.524,72.052,8.196c-0.706-0.354-1.521-0.527-2.498-0.527
					c-0.959,0-1.767,0.171-2.463,0.522c-0.68,0.313-1.266,0.763-1.792,1.382c-0.494,0.619-0.835,1.271-1.04,1.984
					c-0.23,0.696-0.349,1.481-0.349,2.332c0,0.839,0.117,1.634,0.346,2.356c0.209,0.707,0.562,1.371,1.048,1.977
					c0.53,0.613,1.114,1.063,1.782,1.375c0.709,0.34,1.54,0.512,2.468,0.512c0.958,0,1.773-0.168,2.494-0.512
					c0.688-0.334,1.299-0.813,1.763-1.383c0.482-0.604,0.833-1.264,1.04-1.963c0.229-0.725,0.347-1.52,0.347-2.362
					c0-0.854-0.115-1.636-0.343-2.322C74.642,10.838,74.301,10.187,73.811,9.573z M69.554,18.652c-0.721,0-1.293-0.123-1.796-0.381
					c-0.521-0.297-0.939-0.658-1.243-1.074c-0.355-0.479-0.598-0.977-0.736-1.521c-0.147-0.563-0.226-1.179-0.226-1.786
					c0-0.598,0.073-1.174,0.226-1.761c0.146-0.561,0.399-1.083,0.74-1.518c0.312-0.438,0.726-0.797,1.229-1.065
					c0.51-0.265,1.084-0.388,1.807-0.388c0.732,0,1.33,0.127,1.828,0.388c0.469,0.245,0.862,0.584,1.235,1.067
					c0.325,0.444,0.571,0.968,0.715,1.514c0.173,0.679,0.254,1.239,0.254,1.763c0,0.539-0.085,1.14-0.254,1.788
					c-0.14,0.533-0.372,1.031-0.707,1.514c-0.375,0.469-0.771,0.813-1.243,1.076C70.889,18.523,70.273,18.652,69.554,18.652z"/>
				<path fill="#616161" d="M82.557,12.268c-0.323-0.432-0.737-0.774-1.271-1.047c-0.521-0.249-1.104-0.37-1.779-0.37
					c-0.727,0-1.393,0.176-1.924,0.506c-0.295,0.174-0.551,0.383-0.762,0.626v-0.896h-1.496v11.816h1.565v-3.889
					c0.202,0.225,0.437,0.416,0.765,0.621c0.34,0.182,0.623,0.297,0.896,0.361c0.286,0.061,0.6,0.113,0.954,0.113
					c0.612,0,1.194-0.119,1.788-0.365c0.535-0.279,0.947-0.623,1.262-1.053c0.299-0.406,0.537-0.896,0.709-1.453
					c0.17-0.545,0.252-1.121,0.252-1.759c0-0.621-0.087-1.228-0.252-1.753C83.095,13.169,82.856,12.68,82.557,12.268z
					 M79.507,18.723c-0.503,0-0.922-0.096-1.215-0.277c-0.322-0.172-0.582-0.406-0.795-0.719c-0.197-0.266-0.346-0.594-0.461-1.023
					c-0.098-0.441-0.146-0.842-0.146-1.223c0-0.472,0.067-0.925,0.123-1.257c0.104-0.404,0.253-0.771,0.409-1.021
					c0.264-0.33,0.516-0.534,0.859-0.69c0.271-0.169,0.66-0.249,1.224-0.249c0.491,0,0.81,0.073,1.1,0.253
					c0.257,0.149,0.517,0.388,0.765,0.692c0.211,0.382,0.342,0.708,0.438,1.088c0.1,0.362,0.146,0.75,0.146,1.184
					c0,0.453-0.049,0.85-0.149,1.215c-0.097,0.383-0.243,0.744-0.414,1.031c-0.231,0.309-0.489,0.547-0.792,0.729
					C80.301,18.643,79.974,18.723,79.507,18.723z"/>
				<path fill="#616161" d="M97.903,11.816c-0.248-0.306-0.601-0.555-1.055-0.742c-0.452-0.151-0.951-0.225-1.525-0.225
					c-0.648,0-1.242,0.165-1.766,0.489c-0.252,0.156-0.469,0.335-0.654,0.544v-0.797h-1.539v3.721
					c-0.027-0.269-0.067-0.541-0.129-0.819c-0.125-0.563-0.348-1.079-0.678-1.578c-0.331-0.487-0.761-0.878-1.238-1.126
					c-0.5-0.288-1.113-0.434-1.822-0.434c-0.666,0-1.271,0.133-1.797,0.396c-0.521,0.272-0.924,0.613-1.27,1.074
					c-0.346,0.505-0.574,0.995-0.697,1.491c-0.148,0.498-0.215,1.013-0.215,1.669c0,0.718,0.064,1.257,0.211,1.745
					c0.133,0.514,0.371,1.008,0.709,1.467c0.342,0.465,0.745,0.801,1.278,1.061c0.547,0.236,1.146,0.357,1.78,0.357
					c1.097,0,1.972-0.285,2.598-0.846c0.624-0.549,1.048-1.326,1.261-2.314l0.009-0.039v2.969h1.539v-5.064
					c0.023-0.409,0.088-0.739,0.202-1.042c0.109-0.333,0.25-0.585,0.451-0.814c0.194-0.195,0.408-0.396,0.718-0.522
					c0.243-0.121,0.53-0.173,0.961-0.173c0.396,0,0.674,0.048,0.883,0.151c0.258,0.121,0.416,0.248,0.547,0.443
					c0.146,0.203,0.248,0.435,0.293,0.675c0.072,0.318,0.104,0.614,0.104,0.931v5.417h1.527v-5.568c0-0.578-0.042-1.021-0.132-1.396
					C98.335,12.454,98.153,12.091,97.903,11.816z M87.497,12.264c0.375,0,0.683,0.063,0.963,0.195
					c0.258,0.135,0.496,0.327,0.726,0.58c0.198,0.259,0.356,0.548,0.47,0.852c0.066,0.214,0.137,0.466,0.166,0.742h-4.715
					c0.045-0.241,0.108-0.479,0.199-0.736c0.1-0.292,0.26-0.57,0.488-0.847c0.199-0.238,0.453-0.442,0.729-0.588
					C86.784,12.33,87.11,12.264,87.497,12.264z M89.851,16.619L89.8,16.832c-0.137,0.574-0.396,1.043-0.778,1.395
					c-0.343,0.334-0.842,0.496-1.524,0.496c-0.457,0-0.813-0.088-1.099-0.275c-0.288-0.156-0.547-0.389-0.749-0.67
					c-0.199-0.281-0.345-0.594-0.443-0.953c-0.068-0.256-0.113-0.531-0.133-0.805h6.291v0.602h-1.514V16.619z"/>
				<rect x="98.899" y="7.935" fill="#616161" width="1.627" height="11.946"/>
				<path fill="#616161" d="M109.157,9.478c-0.944-1.001-2.334-1.521-4.134-1.543h-4.204v11.946h4.215h0.002
					c1.857-0.064,3.205-0.576,4.121-1.561c0.91-0.99,1.373-2.48,1.373-4.432C110.53,11.96,110.067,10.477,109.157,9.478z
					 M102.444,9.388h2.051c0.733,0,1.422,0.093,2.045,0.276c0.521,0.147,0.972,0.407,1.341,0.771c0.341,0.337,0.6,0.798,0.771,1.37
					c0.168,0.567,0.252,1.269,0.252,2.085c0,0.847-0.082,1.537-0.252,2.108c-0.176,0.563-0.443,1.035-0.771,1.371
					c-0.351,0.344-0.79,0.594-1.349,0.766c-0.529,0.17-1.197,0.252-2.037,0.252h-2.051V9.388L102.444,9.388z"/>
			</g>
			<g>
				<path fill="#FFFFFF" d="M73.309,9.002c-0.461-0.574-1.069-1.051-1.758-1.377c-0.706-0.354-1.521-0.527-2.498-0.527
					c-0.959,0-1.767,0.171-2.463,0.522c-0.68,0.312-1.266,0.763-1.792,1.382c-0.494,0.618-0.834,1.269-1.04,1.984
					c-0.23,0.696-0.349,1.481-0.349,2.332c0,0.839,0.117,1.633,0.346,2.357c0.209,0.705,0.561,1.369,1.048,1.977
					c0.531,0.613,1.114,1.063,1.782,1.373c0.709,0.342,1.54,0.514,2.468,0.514c0.958,0,1.773-0.168,2.494-0.514
					c0.689-0.332,1.298-0.811,1.762-1.381c0.483-0.602,0.835-1.264,1.042-1.965c0.229-0.723,0.344-1.517,0.344-2.361
					c0-0.856-0.115-1.639-0.343-2.321C74.144,10.272,73.803,9.621,73.309,9.002z M69.053,18.08c-0.723,0-1.295-0.121-1.796-0.379
					c-0.521-0.299-0.938-0.66-1.243-1.074c-0.355-0.477-0.597-0.975-0.737-1.522c-0.146-0.562-0.225-1.179-0.225-1.786
					c0-0.597,0.073-1.173,0.225-1.761c0.146-0.562,0.401-1.085,0.741-1.519c0.312-0.438,0.726-0.797,1.229-1.065
					c0.51-0.265,1.084-0.388,1.807-0.388c0.731,0,1.329,0.127,1.828,0.388c0.467,0.244,0.86,0.583,1.235,1.067
					c0.323,0.444,0.569,0.968,0.713,1.514c0.175,0.687,0.257,1.247,0.257,1.763c0,0.535-0.086,1.136-0.257,1.787
					c-0.136,0.53-0.368,1.026-0.706,1.513c-0.374,0.469-0.771,0.814-1.242,1.078C70.388,17.951,69.772,18.08,69.053,18.08z"/>
				<path fill="#FFFFFF" d="M82.054,11.696c-0.318-0.43-0.732-0.771-1.27-1.048c-0.518-0.249-1.1-0.37-1.776-0.37
					c-0.728,0-1.394,0.176-1.927,0.506c-0.295,0.174-0.549,0.384-0.76,0.626v-0.896h-1.496V22.33h1.565v-3.887
					c0.201,0.225,0.437,0.414,0.763,0.621c0.338,0.182,0.623,0.297,0.896,0.359c0.271,0.057,0.596,0.113,0.958,0.113
					c0.613,0,1.195-0.119,1.785-0.365c0.533-0.275,0.945-0.621,1.261-1.053c0.301-0.406,0.541-0.896,0.712-1.453
					c0.17-0.553,0.252-1.127,0.252-1.758c0-0.615-0.087-1.221-0.252-1.753C82.592,12.597,82.353,12.105,82.054,11.696z
					 M79.008,18.15c-0.505,0-0.923-0.094-1.216-0.277c-0.325-0.172-0.584-0.404-0.795-0.717c-0.195-0.262-0.343-0.59-0.462-1.023
					c-0.098-0.445-0.145-0.847-0.145-1.224c0-0.483,0.072-0.954,0.124-1.257c0.102-0.398,0.249-0.765,0.408-1.021
					c0.262-0.33,0.514-0.533,0.859-0.69c0.271-0.169,0.658-0.249,1.225-0.249c0.49,0,0.809,0.073,1.099,0.253
					c0.257,0.149,0.511,0.381,0.765,0.692c0.215,0.387,0.344,0.712,0.436,1.088c0.1,0.367,0.148,0.754,0.148,1.183
					c0,0.445-0.049,0.842-0.149,1.213c-0.099,0.385-0.245,0.746-0.413,1.033c-0.232,0.309-0.492,0.547-0.793,0.729
					C79.801,18.07,79.475,18.15,79.008,18.15z"/>
				<path fill="#FFFFFF" d="M97.401,11.247c-0.248-0.306-0.6-0.555-1.053-0.742c-0.452-0.151-0.951-0.225-1.525-0.225
					c-0.648,0-1.242,0.165-1.766,0.489c-0.252,0.156-0.469,0.335-0.654,0.544v-0.797h-1.539v3.722
					c-0.029-0.271-0.068-0.544-0.132-0.82c-0.125-0.562-0.346-1.077-0.675-1.578c-0.331-0.487-0.761-0.878-1.238-1.126
					c-0.5-0.288-1.115-0.434-1.824-0.434c-0.666,0-1.271,0.133-1.797,0.396c-0.523,0.272-0.926,0.614-1.268,1.074
					c-0.346,0.503-0.574,0.992-0.7,1.491c-0.146,0.495-0.212,1.009-0.212,1.669c0,0.723,0.064,1.264,0.211,1.745
					c0.137,0.523,0.374,1.018,0.707,1.465c0.34,0.467,0.744,0.803,1.278,1.063c0.547,0.236,1.146,0.357,1.778,0.357
					c1.097,0,1.972-0.285,2.602-0.846c0.621-0.543,1.046-1.322,1.261-2.313l0.009-0.041v2.971h1.539v-5.066
					c0.023-0.415,0.088-0.745,0.202-1.043c0.104-0.326,0.245-0.579,0.448-0.813c0.206-0.205,0.416-0.399,0.723-0.523
					c0.239-0.121,0.526-0.173,0.959-0.173c0.396,0,0.674,0.048,0.883,0.151c0.256,0.119,0.412,0.247,0.547,0.443
					c0.147,0.203,0.248,0.434,0.289,0.677c0.076,0.316,0.109,0.611,0.109,0.929v5.418h1.523v-5.569c0-0.586-0.041-1.029-0.129-1.396
					C97.837,11.885,97.653,11.522,97.401,11.247z M86.993,11.692c0.375,0,0.685,0.063,0.967,0.195
					c0.256,0.135,0.494,0.328,0.726,0.58c0.196,0.26,0.354,0.548,0.468,0.851c0.07,0.229,0.137,0.477,0.166,0.743h-4.713
					c0.045-0.246,0.107-0.483,0.197-0.736c0.102-0.295,0.261-0.573,0.492-0.848c0.195-0.236,0.447-0.44,0.728-0.588
					C86.282,11.758,86.607,11.692,86.993,11.692z M89.349,16.049l-0.051,0.213c-0.135,0.574-0.396,1.043-0.779,1.395
					c-0.343,0.334-0.842,0.496-1.523,0.496c-0.463,0-0.809-0.086-1.1-0.275c-0.285-0.154-0.543-0.389-0.746-0.672
					c-0.201-0.281-0.347-0.592-0.441-0.953c-0.07-0.254-0.115-0.529-0.135-0.804h6.291v0.601H89.349L89.349,16.049z"/>
				<rect x="98.397" y="7.362" fill="#FFFFFF" width="1.629" height="11.948"/>
				<path fill="#FFFFFF" d="M108.653,8.906c-0.943-1.001-2.332-1.521-4.13-1.543h-4.204v11.947h4.211h0.004
					c1.856-0.066,3.205-0.576,4.123-1.561c0.91-0.992,1.373-2.482,1.373-4.432C110.03,11.391,109.567,9.906,108.653,8.906z
					 M101.944,8.816h2.051c0.732,0,1.42,0.093,2.043,0.276c0.521,0.146,0.973,0.406,1.343,0.771c0.341,0.338,0.6,0.799,0.768,1.37
					c0.171,0.574,0.257,1.275,0.257,2.085c0,0.835-0.084,1.525-0.254,2.109c-0.174,0.559-0.441,1.031-0.771,1.369
					c-0.351,0.346-0.792,0.598-1.351,0.768c-0.533,0.17-1.199,0.252-2.035,0.252h-2.051V8.816z"/>
			</g>
		</g>
		<g id="g2202_3_" transform="matrix(1.031807e-2,0,0,1.031807e-2,143.3621,-90.91537)">
			<path id="path2204_3_" fill="#FFFFFF" d="M-9219.688,10054.424c-192.133-119.396-459.414-192.984-752.156-192.984
				c-589.648,0-1066.383,294.352-1066.383,657.699c0,332.777,397.895,604.98,913.152,651.736V10979.5
				c-347.449-43.35-608.012-233.777-608.012-460.361c0-258.668,340.254-469.92,761.242-469.92
				c209.547,0,399.598,52.197,536.551,137.238l-195.16,120.957h609.051v-375.604L-9219.688,10054.424z"/>
			<path id="path2206_3_" fill="#FFFFFF" d="M-10125.074,9535.289V10979.5v191.375l305.234-191.375V9338.66L-10125.074,9535.289z"/>
		</g>
	</g>
</g>
</svg>
