<?xml version="1.0" encoding="utf-8"?>
<!-- Generator: Adobe Illustrator 16.0.0, SVG Export Plug-In . SVG Version: 6.00 Build 0)  -->
<!DOCTYPE svg PUBLIC "-//W3C//DTD SVG 1.1//EN" "http://www.w3.org/Graphics/SVG/1.1/DTD/svg11.dtd">
<svg version="1.1" id="圖層_1" xmlns="http://www.w3.org/2000/svg" xmlns:xlink="http://www.w3.org/1999/xlink" x="0px" y="0px"
	 width="110px" height="30px" viewBox="0 0 110 30" enable-background="new 0 0 110 30" xml:space="preserve">
<path fill="#FF6200" d="M109.945,27c0,1.656-1.344,3-3,3h-104c-1.657,0-3-1.344-3-3V3c0-1.657,1.343-3,3-3h104c1.656,0,3,1.343,3,3
	V27z"/>
<path fill="#FFB74D" d="M108.945,26c0,1.656-1.344,3-3,3h-102c-1.657,0-3-1.344-3-3V4c0-1.657,1.343-3,3-3h102c1.656,0,3,1.343,3,3
	V26z"/>
<g display="none">
	<g display="inline" opacity="0.75">
		<path fill="#1C4685" d="M12.426,16.48v8.35h4.06V16.52h2.773l0.671-3.462h-3.413c0,0,0-1.629,0-2.54
			c0-0.352,0.186-0.821,0.754-0.821c0.877,0,1.974,0,1.974,0V6.17c0,0-1.779,0-3.686,0c-1.271,0-3.148,1.565-3.148,3.23
			c0,1.713,0,3.56,0,3.56h-2.13v3.507L12.426,16.48z"/>
	</g>
	<g display="inline">
		<path fill="#FFFFFF" d="M11.926,15.98v8.35h4.06V16.02h2.773l0.671-3.462h-3.413c0,0,0-1.629,0-2.54
			c0-0.352,0.186-0.821,0.754-0.821c0.877,0,1.974,0,1.974,0V5.67c0,0-1.779,0-3.686,0c-1.271,0-3.148,1.565-3.148,3.23
			c0,1.713,0,3.56,0,3.56H9.78v3.507L11.926,15.98z"/>
	</g>
</g>
<g display="none">
	<g display="inline" opacity="0.75">
		<path fill="#1C4685" d="M31.871,20.74V10.719h6.87v1.695h-4.847v2.372h4.184v1.696h-4.184v4.258H31.871z"/>
		<path fill="#1C4685" d="M41.83,15.695l-1.743-0.313c0.196-0.702,0.533-1.221,1.012-1.559c0.479-0.337,1.19-0.506,2.133-0.506
			c0.856,0,1.494,0.102,1.914,0.304c0.419,0.203,0.714,0.46,0.885,0.772c0.171,0.312,0.256,0.885,0.256,1.72l-0.02,2.242
			c0,0.638,0.03,1.106,0.092,1.41c0.062,0.305,0.177,0.629,0.346,0.975h-1.9c-0.051-0.127-0.112-0.316-0.186-0.566
			c-0.031-0.113-0.055-0.189-0.068-0.227c-0.328,0.318-0.679,0.559-1.053,0.719c-0.373,0.159-0.771,0.238-1.195,0.238
			c-0.748,0-1.337-0.202-1.768-0.607c-0.431-0.406-0.646-0.919-0.646-1.539c0-0.41,0.098-0.775,0.294-1.097
			c0.196-0.322,0.471-0.567,0.824-0.738c0.354-0.171,0.862-0.319,1.528-0.448c0.897-0.168,1.52-0.324,1.865-0.471v-0.191
			c0-0.37-0.091-0.632-0.273-0.791c-0.182-0.157-0.525-0.236-1.031-0.236c-0.342,0-0.609,0.067-0.801,0.202
			C42.103,15.123,41.949,15.358,41.83,15.695z M44.4,17.254c-0.246,0.082-0.635,0.182-1.168,0.295
			c-0.533,0.113-0.883,0.225-1.047,0.334c-0.25,0.178-0.375,0.404-0.375,0.678c0,0.27,0.1,0.502,0.301,0.697
			c0.2,0.195,0.455,0.293,0.766,0.293c0.346,0,0.676-0.113,0.99-0.342c0.232-0.173,0.386-0.385,0.459-0.635
			c0.05-0.164,0.074-0.477,0.074-0.938V17.254z"/>
		<path fill="#1C4685" d="M54.511,15.627l-1.894,0.342c-0.063-0.378-0.209-0.663-0.434-0.854c-0.227-0.191-0.519-0.287-0.879-0.287
			c-0.479,0-0.86,0.165-1.145,0.496c-0.285,0.331-0.428,0.883-0.428,1.656c0,0.861,0.145,1.472,0.434,1.826
			c0.29,0.355,0.679,0.533,1.166,0.533c0.364,0,0.663-0.104,0.896-0.313c0.233-0.207,0.396-0.563,0.492-1.068l1.887,0.32
			c-0.196,0.865-0.572,1.521-1.128,1.963c-0.556,0.441-1.301,0.662-2.235,0.662c-1.062,0-1.908-0.334-2.54-1.004
			c-0.631-0.67-0.946-1.599-0.946-2.783c0-1.198,0.316-2.131,0.95-2.799s1.49-1.001,2.57-1.001c0.884,0,1.587,0.19,2.109,0.571
			C53.908,14.268,54.283,14.848,54.511,15.627z"/>
		<path fill="#1C4685" d="M60.172,18.43l1.914,0.322c-0.246,0.701-0.635,1.236-1.166,1.604c-0.529,0.365-1.193,0.55-1.992,0.55
			c-1.263,0-2.195-0.412-2.803-1.236c-0.479-0.661-0.718-1.495-0.718-2.502c0-1.204,0.313-2.146,0.942-2.827
			c0.629-0.681,1.424-1.022,2.387-1.022c1.08,0,1.933,0.356,2.557,1.07c0.624,0.714,0.923,1.805,0.896,3.277h-4.813
			c0.015,0.569,0.169,1.015,0.465,1.33s0.665,0.475,1.107,0.475c0.301,0,0.554-0.081,0.759-0.245S60.066,18.795,60.172,18.43z
			 M60.281,16.488c-0.014-0.557-0.157-0.979-0.432-1.269c-0.273-0.29-0.605-0.434-0.998-0.434c-0.418,0-0.766,0.153-1.039,0.458
			c-0.272,0.305-0.408,0.72-0.402,1.244H60.281z"/>
		<path fill="#1C4685" d="M63.671,20.74V10.719h1.921v3.609c0.594-0.674,1.295-1.012,2.105-1.012c0.884,0,1.615,0.32,2.193,0.96
			c0.58,0.64,0.868,1.56,0.868,2.758c0,1.239-0.295,2.194-0.885,2.864c-0.591,0.67-1.308,1.004-2.149,1.004
			c-0.416,0-0.824-0.104-1.228-0.311c-0.404-0.207-0.751-0.514-1.043-0.92v1.066h-1.783V20.74z M65.578,16.953
			c0,0.752,0.117,1.309,0.355,1.668c0.332,0.511,0.773,0.766,1.325,0.766c0.425,0,0.785-0.181,1.084-0.543
			c0.298-0.361,0.447-0.934,0.447-1.713c0-0.829-0.149-1.427-0.451-1.794c-0.301-0.367-0.687-0.55-1.155-0.55
			c-0.459,0-0.843,0.179-1.147,0.537C65.73,15.682,65.578,16.225,65.578,16.953z"/>
		<path fill="#1C4685" d="M71.861,17.008c0-0.638,0.156-1.255,0.472-1.852c0.315-0.597,0.76-1.053,1.337-1.367
			c0.576-0.314,1.221-0.472,1.932-0.472c1.099,0,1.998,0.356,2.699,1.07c0.702,0.714,1.053,1.614,1.053,2.703
			c0,1.1-0.354,2.01-1.063,2.73c-0.709,0.723-1.602,1.084-2.678,1.084c-0.664,0-1.299-0.15-1.902-0.451s-1.063-0.741-1.378-1.322
			S71.861,17.842,71.861,17.008z M73.83,17.111c0,0.72,0.171,1.271,0.513,1.654c0.343,0.383,0.765,0.573,1.265,0.573
			c0.502,0,0.922-0.19,1.263-0.573c0.339-0.384,0.509-0.939,0.509-1.668c0-0.712-0.17-1.259-0.509-1.642
			c-0.341-0.383-0.761-0.574-1.263-0.574c-0.5,0-0.922,0.191-1.265,0.574C74.001,15.839,73.83,16.391,73.83,17.111z"/>
		<path fill="#1C4685" d="M80.412,17.008c0-0.638,0.156-1.255,0.472-1.852c0.315-0.597,0.761-1.053,1.337-1.367
			s1.221-0.472,1.932-0.472c1.099,0,1.998,0.356,2.699,1.07c0.703,0.714,1.053,1.614,1.053,2.703c0,1.1-0.354,2.01-1.063,2.73
			c-0.709,0.723-1.602,1.084-2.677,1.084c-0.665,0-1.3-0.15-1.903-0.451s-1.063-0.741-1.378-1.322S80.412,17.842,80.412,17.008z
			 M82.381,17.111c0,0.72,0.171,1.271,0.514,1.654c0.342,0.383,0.764,0.573,1.265,0.573s0.922-0.19,1.262-0.573
			c0.339-0.384,0.509-0.939,0.509-1.668c0-0.712-0.17-1.259-0.509-1.642c-0.34-0.383-0.761-0.574-1.262-0.574
			s-0.923,0.191-1.265,0.574C82.552,15.839,82.381,16.391,82.381,17.111z"/>
		<path fill="#1C4685" d="M89.341,20.74V10.719h1.921v5.318l2.25-2.556h2.364l-2.481,2.652l2.66,4.607h-2.072l-1.824-3.26
			l-0.896,0.936v2.324H89.341z"/>
	</g>
	<g display="inline">
		<g>
			<path fill="#FFFFFF" d="M31.371,20.24V10.219h6.87v1.695h-4.847v2.372h4.184v1.694h-4.184v4.259L31.371,20.24L31.371,20.24z"/>
			<path fill="#FFFFFF" d="M41.33,15.196l-1.743-0.314c0.196-0.702,0.533-1.221,1.012-1.559c0.479-0.337,1.19-0.506,2.133-0.506
				c0.856,0,1.494,0.102,1.914,0.304c0.419,0.203,0.714,0.46,0.885,0.772c0.171,0.312,0.256,0.885,0.256,1.718l-0.02,2.244
				c0,0.638,0.03,1.106,0.092,1.41c0.062,0.305,0.177,0.629,0.346,0.975h-1.9c-0.051-0.127-0.112-0.316-0.186-0.566
				c-0.031-0.113-0.055-0.189-0.068-0.227c-0.328,0.318-0.679,0.559-1.053,0.719c-0.373,0.159-0.771,0.238-1.195,0.238
				c-0.748,0-1.337-0.202-1.768-0.607c-0.431-0.406-0.646-0.919-0.646-1.539c0-0.41,0.098-0.775,0.294-1.097
				c0.196-0.322,0.471-0.567,0.824-0.738c0.354-0.171,0.862-0.319,1.528-0.448c0.897-0.168,1.52-0.326,1.865-0.472v-0.191
				c0-0.369-0.091-0.632-0.273-0.79c-0.182-0.157-0.525-0.236-1.031-0.236c-0.342,0-0.609,0.067-0.801,0.202
				C41.603,14.623,41.449,14.858,41.33,15.196z M43.9,16.754c-0.246,0.082-0.635,0.182-1.168,0.295
				c-0.533,0.113-0.883,0.225-1.047,0.334c-0.25,0.178-0.375,0.404-0.375,0.678c0,0.27,0.1,0.502,0.301,0.697
				c0.2,0.195,0.455,0.293,0.766,0.293c0.346,0,0.676-0.113,0.99-0.342c0.232-0.173,0.386-0.385,0.459-0.635
				c0.05-0.164,0.074-0.477,0.074-0.938V16.754z"/>
			<path fill="#FFFFFF" d="M54.011,15.127l-1.894,0.342c-0.063-0.378-0.209-0.663-0.434-0.854c-0.227-0.191-0.519-0.287-0.879-0.287
				c-0.479,0-0.86,0.165-1.145,0.496c-0.285,0.331-0.428,0.883-0.428,1.656c0,0.861,0.145,1.472,0.434,1.826
				c0.29,0.355,0.679,0.533,1.166,0.533c0.364,0,0.663-0.104,0.896-0.313c0.233-0.207,0.396-0.563,0.492-1.068l1.887,0.32
				c-0.196,0.865-0.572,1.521-1.128,1.963c-0.556,0.441-1.301,0.662-2.235,0.662c-1.062,0-1.908-0.334-2.54-1.004
				c-0.631-0.67-0.946-1.599-0.946-2.783c0-1.198,0.316-2.131,0.95-2.799s1.49-1.001,2.57-1.001c0.884,0,1.587,0.19,2.109,0.571
				C53.408,13.768,53.783,14.348,54.011,15.127z"/>
			<path fill="#FFFFFF" d="M59.672,17.93l1.914,0.322c-0.246,0.701-0.635,1.236-1.166,1.604c-0.529,0.365-1.193,0.55-1.992,0.55
				c-1.263,0-2.195-0.412-2.803-1.236c-0.479-0.661-0.718-1.495-0.718-2.502c0-1.204,0.314-2.146,0.942-2.827
				c0.629-0.681,1.424-1.022,2.387-1.022c1.08,0,1.933,0.356,2.557,1.07c0.624,0.714,0.923,1.805,0.896,3.277h-4.813
				c0.015,0.569,0.169,1.015,0.465,1.33s0.665,0.475,1.107,0.475c0.301,0,0.554-0.081,0.759-0.245S59.566,18.295,59.672,17.93z
				 M59.781,15.989c-0.014-0.556-0.157-0.979-0.432-1.268c-0.273-0.289-0.605-0.434-0.998-0.434c-0.418,0-0.766,0.153-1.039,0.458
				c-0.272,0.305-0.408,0.72-0.402,1.244H59.781z"/>
			<path fill="#FFFFFF" d="M63.171,20.24V10.219h1.921v3.609c0.594-0.674,1.295-1.012,2.105-1.012c0.884,0,1.615,0.32,2.193,0.96
				c0.58,0.64,0.868,1.56,0.868,2.758c0,1.239-0.295,2.194-0.885,2.864c-0.591,0.67-1.308,1.004-2.149,1.004
				c-0.416,0-0.824-0.104-1.228-0.311c-0.404-0.207-0.751-0.514-1.043-0.92v1.066h-1.783V20.24z M65.078,16.453
				c0,0.752,0.117,1.309,0.355,1.668c0.332,0.511,0.773,0.766,1.325,0.766c0.425,0,0.785-0.181,1.084-0.543
				c0.298-0.361,0.447-0.934,0.447-1.713c0-0.829-0.149-1.427-0.451-1.794c-0.301-0.367-0.687-0.55-1.155-0.55
				c-0.459,0-0.843,0.179-1.147,0.537C65.23,15.182,65.078,15.725,65.078,16.453z"/>
			<path fill="#FFFFFF" d="M71.361,16.508c0-0.638,0.156-1.255,0.472-1.852c0.315-0.597,0.76-1.053,1.337-1.367
				c0.576-0.314,1.221-0.472,1.932-0.472c1.099,0,1.998,0.356,2.699,1.07c0.702,0.714,1.053,1.614,1.053,2.703
				c0,1.1-0.354,2.01-1.063,2.73c-0.709,0.723-1.602,1.084-2.678,1.084c-0.664,0-1.299-0.15-1.902-0.451s-1.063-0.741-1.378-1.322
				S71.361,17.342,71.361,16.508z M73.33,16.611c0,0.72,0.171,1.271,0.513,1.654c0.343,0.383,0.765,0.573,1.265,0.573
				c0.502,0,0.922-0.19,1.263-0.573c0.339-0.384,0.509-0.939,0.509-1.668c0-0.712-0.17-1.259-0.509-1.642
				c-0.341-0.383-0.761-0.574-1.263-0.574c-0.5,0-0.922,0.191-1.265,0.574C73.501,15.339,73.33,15.891,73.33,16.611z"/>
			<path fill="#FFFFFF" d="M79.912,16.508c0-0.638,0.156-1.255,0.472-1.852c0.315-0.597,0.761-1.053,1.337-1.367
				s1.221-0.472,1.932-0.472c1.099,0,1.998,0.356,2.699,1.07c0.703,0.714,1.053,1.614,1.053,2.703c0,1.1-0.354,2.01-1.063,2.73
				c-0.709,0.723-1.602,1.084-2.677,1.084c-0.665,0-1.3-0.15-1.903-0.451s-1.063-0.741-1.378-1.322S79.912,17.342,79.912,16.508z
				 M81.881,16.611c0,0.72,0.171,1.271,0.514,1.654c0.342,0.383,0.764,0.573,1.265,0.573s0.922-0.19,1.262-0.573
				c0.339-0.384,0.509-0.939,0.509-1.668c0-0.712-0.17-1.259-0.509-1.642c-0.34-0.383-0.761-0.574-1.262-0.574
				s-0.923,0.191-1.265,0.574C82.052,15.339,81.881,15.891,81.881,16.611z"/>
			<path fill="#FFFFFF" d="M88.841,20.24V10.219h1.921v5.318l2.25-2.557h2.364l-2.481,2.652l2.66,4.607h-2.072l-1.824-3.261
				l-0.896,0.937v2.324L88.841,20.24L88.841,20.24z"/>
		</g>
	</g>
</g>
<g display="none">
	<g display="inline" opacity="0.75">
		<path fill="#1C4685" d="M31.871,20.551V10.529h6.87v1.695h-4.847v2.372h4.184v1.696h-4.184v4.258H31.871z"/>
		<path fill="#1C4685" d="M41.83,15.506l-1.743-0.313c0.196-0.701,0.533-1.221,1.012-1.559c0.479-0.337,1.19-0.506,2.133-0.506
			c0.855,0,1.494,0.102,1.914,0.304c0.418,0.203,0.713,0.46,0.885,0.772c0.171,0.312,0.256,0.885,0.256,1.72l-0.02,2.242
			c0,0.639,0.029,1.107,0.092,1.41c0.062,0.305,0.177,0.629,0.346,0.975h-1.9c-0.051-0.127-0.111-0.316-0.186-0.566
			c-0.031-0.113-0.055-0.189-0.068-0.227c-0.328,0.318-0.679,0.559-1.053,0.719c-0.373,0.16-0.771,0.238-1.195,0.238
			c-0.748,0-1.337-0.201-1.768-0.607c-0.431-0.406-0.646-0.918-0.646-1.539c0-0.41,0.098-0.775,0.294-1.096
			c0.196-0.322,0.471-0.568,0.824-0.738c0.354-0.172,0.862-0.32,1.528-0.449c0.896-0.168,1.52-0.324,1.865-0.471v-0.191
			c0-0.369-0.092-0.632-0.273-0.79c-0.182-0.157-0.525-0.236-1.031-0.236c-0.342,0-0.609,0.067-0.801,0.202
			S41.949,15.169,41.83,15.506z M44.4,17.064c-0.246,0.082-0.635,0.182-1.168,0.295s-0.883,0.225-1.047,0.334
			c-0.25,0.178-0.375,0.404-0.375,0.678c0,0.27,0.1,0.502,0.301,0.697c0.2,0.195,0.455,0.293,0.766,0.293
			c0.346,0,0.676-0.113,0.99-0.342c0.232-0.172,0.386-0.385,0.459-0.635c0.05-0.164,0.074-0.477,0.074-0.938V17.064z"/>
		<path fill="#1C4685" d="M54.512,15.438l-1.895,0.342c-0.063-0.378-0.209-0.662-0.434-0.854c-0.228-0.191-0.52-0.287-0.879-0.287
			c-0.479,0-0.861,0.165-1.146,0.496c-0.285,0.331-0.429,0.883-0.429,1.656c0,0.861,0.146,1.473,0.435,1.826
			c0.29,0.355,0.679,0.533,1.166,0.533c0.364,0,0.663-0.104,0.896-0.313c0.233-0.207,0.396-0.563,0.492-1.068l1.887,0.32
			c-0.195,0.865-0.571,1.521-1.127,1.963c-0.557,0.441-1.302,0.662-2.235,0.662c-1.062,0-1.908-0.334-2.54-1.004
			c-0.631-0.67-0.946-1.598-0.946-2.783c0-1.198,0.316-2.131,0.95-2.799s1.49-1.001,2.57-1.001c0.884,0,1.586,0.189,2.109,0.571
			C53.908,14.079,54.283,14.659,54.512,15.438z"/>
		<path fill="#1C4685" d="M60.172,18.24l1.914,0.322c-0.246,0.701-0.635,1.236-1.166,1.604c-0.529,0.365-1.193,0.551-1.992,0.551
			c-1.263,0-2.195-0.412-2.803-1.236c-0.479-0.662-0.718-1.496-0.718-2.502c0-1.205,0.313-2.146,0.942-2.828
			c0.629-0.681,1.424-1.021,2.387-1.021c1.08,0,1.933,0.355,2.557,1.07c0.624,0.714,0.923,1.805,0.896,3.277h-4.813
			c0.015,0.568,0.169,1.014,0.465,1.33c0.296,0.314,0.665,0.475,1.107,0.475c0.301,0,0.554-0.082,0.759-0.246
			S60.066,18.605,60.172,18.24z M60.281,16.299c-0.014-0.557-0.157-0.979-0.432-1.269c-0.273-0.289-0.605-0.434-0.998-0.434
			c-0.418,0-0.766,0.153-1.039,0.458c-0.272,0.305-0.408,0.72-0.402,1.244H60.281z"/>
		<path fill="#1C4685" d="M63.671,20.551V10.529h1.921v3.609c0.594-0.674,1.295-1.012,2.105-1.012c0.884,0,1.615,0.319,2.193,0.96
			c0.58,0.64,0.868,1.56,0.868,2.759c0,1.238-0.295,2.193-0.885,2.863c-0.591,0.67-1.308,1.004-2.149,1.004
			c-0.416,0-0.824-0.104-1.228-0.311c-0.404-0.207-0.751-0.514-1.043-0.92v1.066h-1.783V20.551z M65.578,16.764
			c0,0.752,0.117,1.309,0.355,1.668c0.332,0.512,0.773,0.766,1.325,0.766c0.425,0,0.785-0.18,1.084-0.543
			c0.298-0.361,0.447-0.934,0.447-1.713c0-0.828-0.149-1.427-0.451-1.794c-0.301-0.367-0.687-0.55-1.155-0.55
			c-0.459,0-0.843,0.179-1.147,0.537C65.73,15.492,65.578,16.035,65.578,16.764z"/>
		<path fill="#1C4685" d="M71.861,16.818c0-0.637,0.156-1.255,0.472-1.852s0.76-1.053,1.337-1.367
			c0.576-0.313,1.221-0.472,1.932-0.472c1.099,0,1.998,0.355,2.699,1.07c0.702,0.714,1.053,1.613,1.053,2.702
			c0,1.1-0.354,2.01-1.063,2.73c-0.709,0.723-1.602,1.084-2.678,1.084c-0.664,0-1.299-0.15-1.902-0.451s-1.063-0.74-1.378-1.322
			C72.018,18.361,71.861,17.652,71.861,16.818z M73.83,16.922c0,0.721,0.171,1.271,0.513,1.654c0.343,0.383,0.765,0.574,1.265,0.574
			c0.502,0,0.922-0.191,1.263-0.574c0.339-0.383,0.509-0.939,0.509-1.668c0-0.711-0.17-1.259-0.509-1.642
			c-0.341-0.383-0.761-0.574-1.263-0.574c-0.5,0-0.922,0.191-1.265,0.574C74.001,15.649,73.83,16.201,73.83,16.922z"/>
		<path fill="#1C4685" d="M80.412,16.818c0-0.637,0.156-1.255,0.472-1.852s0.761-1.053,1.337-1.367
			c0.576-0.313,1.221-0.472,1.932-0.472c1.099,0,1.998,0.355,2.699,1.07c0.703,0.714,1.053,1.613,1.053,2.702
			c0,1.1-0.354,2.01-1.063,2.73c-0.709,0.723-1.602,1.084-2.677,1.084c-0.665,0-1.3-0.15-1.903-0.451s-1.063-0.74-1.378-1.322
			C80.568,18.361,80.412,17.652,80.412,16.818z M82.381,16.922c0,0.721,0.171,1.271,0.514,1.654
			c0.342,0.383,0.764,0.574,1.265,0.574s0.922-0.191,1.262-0.574c0.339-0.383,0.509-0.939,0.509-1.668
			c0-0.711-0.17-1.259-0.509-1.642c-0.34-0.383-0.761-0.574-1.262-0.574s-0.923,0.191-1.265,0.574
			C82.552,15.649,82.381,16.201,82.381,16.922z"/>
		<path fill="#1C4685" d="M89.341,20.551V10.529h1.921v5.318l2.25-2.556h2.364l-2.481,2.651l2.66,4.607h-2.072l-1.824-3.26
			l-0.896,0.936v2.324H89.341z"/>
	</g>
	<g display="inline">
		<g>
			<path fill="#FFFFFF" d="M31.371,20.051V10.029h6.87v1.695h-4.847v2.372h4.184v1.694h-4.184v4.26H31.371L31.371,20.051z"/>
			<path fill="#FFFFFF" d="M41.33,15.007l-1.743-0.314c0.196-0.701,0.533-1.221,1.012-1.559c0.479-0.337,1.19-0.506,2.133-0.506
				c0.855,0,1.494,0.102,1.914,0.304c0.418,0.203,0.713,0.46,0.885,0.772c0.171,0.312,0.256,0.885,0.256,1.718l-0.02,2.244
				c0,0.639,0.029,1.107,0.092,1.41c0.062,0.305,0.177,0.629,0.346,0.975h-1.9c-0.051-0.127-0.111-0.316-0.186-0.566
				c-0.031-0.113-0.055-0.189-0.068-0.227c-0.328,0.318-0.679,0.559-1.053,0.719c-0.373,0.16-0.771,0.238-1.195,0.238
				c-0.748,0-1.337-0.201-1.768-0.607c-0.431-0.406-0.646-0.918-0.646-1.539c0-0.41,0.098-0.775,0.294-1.096
				c0.196-0.322,0.471-0.568,0.824-0.738c0.354-0.172,0.862-0.32,1.528-0.449c0.896-0.168,1.52-0.326,1.865-0.472v-0.19
				c0-0.369-0.092-0.632-0.273-0.79c-0.182-0.157-0.525-0.236-1.031-0.236c-0.342,0-0.609,0.067-0.801,0.202
				S41.449,14.669,41.33,15.007z M43.9,16.564c-0.246,0.082-0.635,0.182-1.168,0.295s-0.883,0.225-1.047,0.334
				c-0.25,0.178-0.375,0.404-0.375,0.678c0,0.27,0.1,0.502,0.301,0.697c0.2,0.195,0.455,0.293,0.766,0.293
				c0.346,0,0.676-0.113,0.99-0.342c0.232-0.172,0.386-0.385,0.459-0.635c0.05-0.164,0.074-0.477,0.074-0.938V16.564z"/>
			<path fill="#FFFFFF" d="M54.012,14.938l-1.895,0.342c-0.063-0.378-0.209-0.662-0.434-0.854c-0.228-0.191-0.52-0.287-0.879-0.287
				c-0.479,0-0.861,0.165-1.146,0.496c-0.285,0.331-0.429,0.883-0.429,1.656c0,0.861,0.146,1.473,0.435,1.826
				c0.29,0.355,0.679,0.533,1.166,0.533c0.364,0,0.663-0.104,0.896-0.313c0.233-0.207,0.396-0.563,0.492-1.068l1.887,0.32
				c-0.195,0.865-0.571,1.521-1.127,1.963c-0.557,0.441-1.302,0.662-2.235,0.662c-1.062,0-1.908-0.334-2.54-1.004
				c-0.631-0.67-0.946-1.598-0.946-2.783c0-1.198,0.316-2.131,0.95-2.799s1.49-1.001,2.57-1.001c0.884,0,1.586,0.189,2.109,0.571
				C53.408,13.579,53.783,14.159,54.012,14.938z"/>
			<path fill="#FFFFFF" d="M59.672,17.74l1.914,0.322c-0.246,0.701-0.635,1.236-1.166,1.604c-0.529,0.365-1.193,0.551-1.992,0.551
				c-1.263,0-2.195-0.412-2.803-1.236c-0.479-0.662-0.718-1.496-0.718-2.502c0-1.205,0.313-2.146,0.942-2.828
				c0.629-0.681,1.424-1.021,2.387-1.021c1.08,0,1.933,0.355,2.557,1.07c0.624,0.714,0.923,1.805,0.896,3.277h-4.813
				c0.015,0.568,0.169,1.014,0.465,1.33c0.296,0.314,0.665,0.475,1.107,0.475c0.301,0,0.554-0.082,0.759-0.246
				S59.566,18.105,59.672,17.74z M59.781,15.8c-0.014-0.556-0.157-0.979-0.432-1.268c-0.273-0.289-0.605-0.435-0.998-0.435
				c-0.418,0-0.766,0.153-1.039,0.458c-0.272,0.305-0.408,0.72-0.402,1.244H59.781z"/>
			<path fill="#FFFFFF" d="M63.171,20.051V10.029h1.921v3.609c0.594-0.674,1.295-1.012,2.105-1.012c0.884,0,1.615,0.319,2.193,0.96
				c0.58,0.64,0.868,1.56,0.868,2.759c0,1.238-0.295,2.193-0.885,2.863c-0.591,0.67-1.308,1.004-2.149,1.004
				c-0.416,0-0.824-0.104-1.228-0.311c-0.404-0.207-0.751-0.514-1.043-0.92v1.066h-1.783V20.051z M65.078,16.264
				c0,0.752,0.117,1.309,0.355,1.668c0.332,0.512,0.773,0.766,1.325,0.766c0.425,0,0.785-0.18,1.084-0.543
				c0.298-0.361,0.447-0.934,0.447-1.713c0-0.829-0.149-1.427-0.451-1.794c-0.301-0.367-0.687-0.55-1.155-0.55
				c-0.459,0-0.843,0.179-1.147,0.537C65.23,14.993,65.078,15.535,65.078,16.264z"/>
			<path fill="#FFFFFF" d="M71.361,16.318c0-0.638,0.156-1.255,0.472-1.852s0.76-1.053,1.337-1.367
				c0.576-0.313,1.221-0.472,1.932-0.472c1.099,0,1.998,0.355,2.699,1.07c0.702,0.714,1.053,1.613,1.053,2.702
				c0,1.1-0.354,2.01-1.063,2.73c-0.709,0.723-1.602,1.084-2.678,1.084c-0.664,0-1.299-0.15-1.902-0.451s-1.063-0.74-1.378-1.322
				C71.518,17.861,71.361,17.152,71.361,16.318z M73.33,16.422c0,0.721,0.171,1.271,0.513,1.654
				c0.343,0.383,0.765,0.574,1.265,0.574c0.502,0,0.922-0.191,1.263-0.574c0.339-0.383,0.509-0.939,0.509-1.668
				c0-0.712-0.17-1.259-0.509-1.642c-0.341-0.383-0.761-0.574-1.263-0.574c-0.5,0-0.922,0.191-1.265,0.574
				C73.501,15.149,73.33,15.701,73.33,16.422z"/>
			<path fill="#FFFFFF" d="M79.912,16.318c0-0.638,0.156-1.255,0.472-1.852s0.761-1.053,1.337-1.367
				c0.576-0.313,1.221-0.472,1.932-0.472c1.099,0,1.998,0.355,2.699,1.07c0.703,0.714,1.053,1.613,1.053,2.702
				c0,1.1-0.354,2.01-1.063,2.73c-0.709,0.723-1.602,1.084-2.677,1.084c-0.665,0-1.3-0.15-1.903-0.451s-1.063-0.74-1.378-1.322
				C80.068,17.861,79.912,17.152,79.912,16.318z M81.881,16.422c0,0.721,0.171,1.271,0.514,1.654
				c0.342,0.383,0.764,0.574,1.265,0.574s0.922-0.191,1.262-0.574c0.339-0.383,0.509-0.939,0.509-1.668
				c0-0.712-0.17-1.259-0.509-1.642c-0.34-0.383-0.761-0.574-1.262-0.574s-0.923,0.191-1.265,0.574
				C82.052,15.149,81.881,15.701,81.881,16.422z"/>
			<path fill="#FFFFFF" d="M88.841,20.051V10.029h1.921v5.318l2.25-2.557h2.364l-2.481,2.651l2.66,4.608h-2.072l-1.824-3.262
				l-0.896,0.938v2.324H88.841L88.841,20.051z"/>
		</g>
	</g>
</g>
<g>
	<g>
		<path fill="#616161" d="M52.63,9.574c-0.459-0.573-1.068-1.049-1.759-1.377c-0.706-0.354-1.522-0.527-2.498-0.527
			c-0.959,0-1.767,0.171-2.463,0.522c-0.68,0.313-1.266,0.763-1.792,1.382c-0.494,0.619-0.835,1.27-1.04,1.984
			c-0.231,0.696-0.349,1.481-0.349,2.332c0,0.839,0.117,1.633,0.346,2.356c0.209,0.707,0.561,1.371,1.048,1.977
			c0.53,0.614,1.114,1.063,1.782,1.374c0.709,0.341,1.54,0.513,2.468,0.513c0.958,0,1.773-0.168,2.494-0.513
			c0.688-0.333,1.299-0.811,1.763-1.382c0.482-0.603,0.833-1.264,1.04-1.963c0.229-0.725,0.346-1.519,0.346-2.362
			c0-0.854-0.115-1.636-0.342-2.322C53.461,10.839,53.12,10.187,52.63,9.574z M48.373,18.652c-0.721,0-1.293-0.122-1.796-0.38
			c-0.522-0.298-0.94-0.659-1.243-1.075c-0.356-0.478-0.598-0.976-0.737-1.521c-0.147-0.562-0.225-1.179-0.225-1.786
			c0-0.598,0.073-1.174,0.225-1.761c0.146-0.561,0.4-1.083,0.741-1.518c0.311-0.438,0.725-0.797,1.229-1.065
			c0.51-0.265,1.084-0.388,1.807-0.388c0.732,0,1.33,0.127,1.828,0.388c0.469,0.245,0.862,0.584,1.235,1.067
			c0.325,0.444,0.572,0.968,0.715,1.514c0.173,0.679,0.254,1.239,0.254,1.763c0,0.539-0.085,1.14-0.254,1.787
			c-0.14,0.535-0.372,1.032-0.707,1.514c-0.375,0.47-0.771,0.813-1.243,1.077C49.708,18.523,49.093,18.652,48.373,18.652z"/>
		<path fill="#616161" d="M61.376,12.268c-0.323-0.432-0.737-0.774-1.271-1.047c-0.521-0.249-1.103-0.37-1.779-0.37
			c-0.727,0-1.393,0.176-1.923,0.506c-0.296,0.174-0.552,0.383-0.763,0.626v-0.896h-1.496v11.815h1.566v-3.889
			c0.202,0.226,0.437,0.417,0.765,0.622c0.339,0.182,0.623,0.297,0.896,0.362c0.286,0.059,0.6,0.112,0.954,0.112
			c0.613,0,1.195-0.118,1.788-0.365c0.535-0.279,0.948-0.623,1.262-1.053c0.299-0.405,0.537-0.895,0.709-1.453
			c0.17-0.545,0.252-1.12,0.252-1.758c0-0.621-0.087-1.228-0.252-1.753C61.914,13.17,61.676,12.68,61.376,12.268z M58.326,18.722
			c-0.503,0-0.921-0.094-1.215-0.276c-0.322-0.173-0.581-0.406-0.794-0.719c-0.198-0.266-0.346-0.593-0.461-1.024
			c-0.098-0.442-0.146-0.842-0.146-1.222c0-0.472,0.067-0.925,0.123-1.257c0.105-0.404,0.253-0.771,0.409-1.021
			c0.264-0.33,0.516-0.534,0.859-0.69c0.271-0.169,0.661-0.249,1.224-0.249c0.491,0,0.81,0.073,1.1,0.253
			c0.256,0.149,0.517,0.388,0.764,0.692c0.212,0.382,0.342,0.708,0.438,1.088c0.099,0.362,0.146,0.75,0.146,1.184
			c0,0.452-0.049,0.849-0.149,1.215c-0.097,0.383-0.243,0.744-0.414,1.031c-0.232,0.309-0.49,0.547-0.792,0.729
			C59.12,18.642,58.793,18.722,58.326,18.722z"/>
		<path fill="#616161" d="M76.723,11.817c-0.248-0.306-0.601-0.555-1.055-0.742c-0.452-0.151-0.951-0.225-1.525-0.225
			c-0.649,0-1.243,0.165-1.766,0.489c-0.252,0.156-0.469,0.335-0.655,0.544v-0.797h-1.538v3.721
			c-0.028-0.269-0.068-0.541-0.13-0.819c-0.125-0.563-0.347-1.079-0.677-1.578c-0.331-0.487-0.761-0.878-1.238-1.126
			c-0.501-0.288-1.114-0.434-1.822-0.434c-0.666,0-1.271,0.133-1.797,0.396c-0.522,0.272-0.925,0.613-1.27,1.074
			c-0.346,0.505-0.574,0.995-0.697,1.491c-0.148,0.498-0.215,1.013-0.215,1.669c0,0.718,0.065,1.257,0.211,1.744
			c0.133,0.515,0.371,1.009,0.709,1.467c0.341,0.465,0.745,0.802,1.278,1.061c0.547,0.237,1.146,0.357,1.78,0.357
			c1.097,0,1.972-0.285,2.598-0.846c0.624-0.547,1.048-1.325,1.261-2.313l0.009-0.04v2.97h1.538v-5.065
			c0.024-0.409,0.088-0.739,0.203-1.042c0.109-0.333,0.25-0.585,0.451-0.814c0.194-0.195,0.408-0.396,0.718-0.522
			c0.243-0.121,0.53-0.173,0.96-0.173c0.396,0,0.675,0.048,0.883,0.151c0.259,0.121,0.416,0.248,0.547,0.443
			c0.147,0.203,0.249,0.435,0.293,0.675c0.072,0.318,0.105,0.614,0.105,0.931v5.417h1.527v-5.568c0-0.578-0.042-1.021-0.132-1.396
			C77.155,12.454,76.973,12.092,76.723,11.817z M66.316,12.264c0.375,0,0.683,0.063,0.964,0.195c0.257,0.135,0.496,0.327,0.725,0.58
			c0.198,0.259,0.356,0.548,0.469,0.852c0.067,0.214,0.138,0.466,0.167,0.742h-4.715c0.044-0.241,0.108-0.479,0.199-0.736
			c0.1-0.292,0.26-0.57,0.489-0.847c0.199-0.238,0.452-0.442,0.729-0.588C65.603,12.33,65.93,12.264,66.316,12.264z M68.67,16.62
			l-0.051,0.212c-0.136,0.574-0.396,1.043-0.778,1.394c-0.343,0.334-0.842,0.496-1.524,0.496c-0.458,0-0.813-0.088-1.099-0.275
			c-0.288-0.155-0.547-0.388-0.749-0.669c-0.199-0.281-0.345-0.594-0.443-0.954c-0.069-0.256-0.114-0.531-0.133-0.805h6.291v0.602
			H68.67z"/>
		<rect x="77.719" y="7.935" fill="#616161" width="1.627" height="11.946"/>
		<path fill="#616161" d="M87.976,9.478c-0.944-1.001-2.334-1.521-4.133-1.543h-4.205v11.946h4.215h0.003
			c1.857-0.065,3.205-0.576,4.121-1.56c0.91-0.991,1.372-2.481,1.372-4.432C89.349,11.961,88.887,10.477,87.976,9.478z
			 M81.264,9.388h2.05c0.734,0,1.423,0.093,2.046,0.276c0.52,0.147,0.971,0.407,1.34,0.771c0.341,0.337,0.6,0.798,0.77,1.37
			c0.168,0.567,0.253,1.269,0.253,2.085c0,0.847-0.083,1.537-0.252,2.109c-0.176,0.561-0.443,1.035-0.771,1.37
			c-0.35,0.345-0.79,0.595-1.348,0.766c-0.53,0.17-1.197,0.252-2.038,0.252h-2.05V9.388z"/>
	</g>
	<g>
		<path fill="#FFFFFF" d="M52.128,9.003c-0.461-0.574-1.07-1.051-1.758-1.377c-0.706-0.354-1.522-0.527-2.498-0.527
			c-0.959,0-1.767,0.171-2.463,0.522c-0.68,0.312-1.266,0.763-1.792,1.382c-0.494,0.618-0.834,1.269-1.04,1.984
			c-0.231,0.696-0.349,1.481-0.349,2.332c0,0.839,0.117,1.633,0.346,2.357c0.209,0.706,0.561,1.369,1.048,1.976
			c0.531,0.614,1.114,1.064,1.782,1.374c0.709,0.341,1.54,0.513,2.468,0.513c0.958,0,1.773-0.168,2.494-0.513
			c0.689-0.333,1.298-0.811,1.762-1.382c0.483-0.601,0.835-1.263,1.042-1.964c0.228-0.723,0.343-1.517,0.343-2.361
			c0-0.856-0.115-1.639-0.342-2.321C52.963,10.273,52.622,9.621,52.128,9.003z M47.872,18.081c-0.723,0-1.295-0.121-1.796-0.38
			c-0.521-0.298-0.939-0.659-1.243-1.074c-0.356-0.477-0.597-0.975-0.738-1.522c-0.146-0.562-0.224-1.179-0.224-1.786
			c0-0.597,0.073-1.173,0.224-1.761c0.147-0.562,0.402-1.085,0.742-1.519c0.311-0.438,0.725-0.797,1.229-1.065
			c0.51-0.265,1.084-0.388,1.807-0.388c0.731,0,1.329,0.127,1.828,0.388c0.467,0.244,0.86,0.583,1.235,1.067
			c0.324,0.444,0.57,0.968,0.713,1.514c0.175,0.687,0.257,1.247,0.257,1.763c0,0.535-0.086,1.136-0.257,1.787
			c-0.136,0.53-0.368,1.027-0.706,1.513c-0.374,0.469-0.77,0.813-1.242,1.077C49.207,17.952,48.592,18.081,47.872,18.081z"/>
		<path fill="#FFFFFF" d="M60.873,11.697c-0.318-0.43-0.732-0.771-1.269-1.048c-0.518-0.249-1.1-0.37-1.777-0.37
			c-0.727,0-1.394,0.176-1.926,0.506c-0.296,0.174-0.55,0.384-0.761,0.626v-0.896h-1.496v11.816h1.566v-3.887
			c0.201,0.224,0.436,0.414,0.762,0.62c0.339,0.182,0.623,0.297,0.896,0.361c0.271,0.056,0.596,0.112,0.958,0.112
			c0.614,0,1.195-0.118,1.785-0.364c0.534-0.277,0.946-0.622,1.261-1.054c0.301-0.406,0.541-0.896,0.712-1.453
			c0.17-0.552,0.252-1.126,0.252-1.758c0-0.615-0.087-1.221-0.252-1.753C61.411,12.597,61.172,12.106,60.873,11.697z M57.827,18.151
			c-0.505,0-0.922-0.095-1.216-0.277c-0.325-0.173-0.584-0.406-0.794-0.718c-0.196-0.262-0.344-0.589-0.463-1.023
			c-0.097-0.446-0.144-0.847-0.144-1.224c0-0.483,0.072-0.954,0.124-1.257c0.101-0.398,0.249-0.765,0.408-1.021
			c0.262-0.33,0.514-0.533,0.859-0.69c0.271-0.169,0.659-0.249,1.225-0.249c0.491,0,0.809,0.073,1.099,0.253
			c0.256,0.149,0.51,0.381,0.764,0.692c0.215,0.387,0.344,0.712,0.436,1.088c0.1,0.367,0.148,0.754,0.148,1.183
			c0,0.445-0.049,0.842-0.149,1.214c-0.099,0.384-0.245,0.745-0.413,1.033c-0.233,0.308-0.492,0.546-0.793,0.729
			C58.62,18.071,58.294,18.151,57.827,18.151z"/>
		<path fill="#FFFFFF" d="M76.221,11.247c-0.248-0.306-0.6-0.555-1.053-0.742c-0.452-0.151-0.951-0.225-1.525-0.225
			c-0.649,0-1.243,0.165-1.766,0.489c-0.252,0.156-0.469,0.335-0.655,0.544v-0.797h-1.538v3.722
			c-0.029-0.271-0.069-0.544-0.132-0.82c-0.125-0.562-0.346-1.077-0.675-1.578c-0.331-0.487-0.761-0.878-1.238-1.126
			c-0.501-0.288-1.115-0.434-1.825-0.434c-0.665,0-1.27,0.133-1.797,0.396c-0.523,0.273-0.925,0.614-1.267,1.074
			c-0.345,0.503-0.574,0.992-0.7,1.491c-0.146,0.495-0.212,1.009-0.212,1.669c0,0.724,0.065,1.264,0.211,1.745
			c0.136,0.523,0.374,1.017,0.707,1.465c0.339,0.466,0.744,0.803,1.278,1.062c0.547,0.237,1.146,0.357,1.779,0.357
			c1.096,0,1.971-0.284,2.601-0.845c0.621-0.544,1.046-1.322,1.261-2.313l0.009-0.04v2.97h1.538v-5.066
			c0.024-0.415,0.088-0.745,0.203-1.043c0.104-0.326,0.245-0.579,0.448-0.813c0.206-0.205,0.416-0.399,0.722-0.523
			c0.24-0.121,0.527-0.173,0.96-0.173c0.395,0,0.674,0.048,0.882,0.151c0.256,0.119,0.413,0.247,0.547,0.443
			c0.148,0.203,0.248,0.434,0.29,0.677c0.075,0.316,0.109,0.611,0.109,0.929v5.417h1.523v-5.568c0-0.586-0.041-1.029-0.129-1.396
			C76.656,11.885,76.473,11.523,76.221,11.247z M65.813,11.693c0.374,0,0.684,0.063,0.967,0.195c0.255,0.135,0.494,0.328,0.725,0.58
			c0.196,0.26,0.354,0.548,0.468,0.851c0.07,0.229,0.137,0.477,0.165,0.743h-4.712c0.044-0.246,0.107-0.483,0.197-0.736
			c0.101-0.295,0.261-0.573,0.492-0.848c0.195-0.236,0.447-0.44,0.728-0.588C65.101,11.759,65.427,11.693,65.813,11.693z
			 M68.168,16.049l-0.051,0.212c-0.134,0.576-0.396,1.044-0.779,1.395c-0.343,0.334-0.842,0.496-1.524,0.496
			c-0.462,0-0.808-0.086-1.099-0.275c-0.285-0.155-0.543-0.388-0.746-0.671c-0.202-0.281-0.347-0.593-0.442-0.953
			c-0.07-0.255-0.115-0.53-0.134-0.804h6.291v0.601H68.168z"/>
		<rect x="77.217" y="7.363" fill="#FFFFFF" width="1.629" height="11.947"/>
		<path fill="#FFFFFF" d="M87.473,8.907c-0.944-1.001-2.333-1.521-4.13-1.543h-4.205v11.947h4.212h0.003
			c1.857-0.066,3.206-0.577,4.124-1.56c0.91-0.992,1.372-2.483,1.372-4.432C88.849,11.391,88.386,9.907,87.473,8.907z M80.764,8.817
			h2.05c0.733,0,1.421,0.093,2.044,0.276c0.521,0.147,0.972,0.406,1.342,0.771c0.341,0.338,0.6,0.799,0.768,1.37
			c0.17,0.574,0.256,1.275,0.256,2.085c0,0.835-0.083,1.525-0.253,2.109c-0.174,0.558-0.441,1.032-0.771,1.37
			c-0.351,0.345-0.792,0.596-1.351,0.767c-0.532,0.17-1.198,0.252-2.035,0.252h-2.05V8.817z"/>
	</g>
</g>
<g id="g2202_4_" transform="matrix(1.031807e-2,0,0,1.031807e-2,143.3621,-90.91537)">
	<path id="path2204_4_" fill="#616161" d="M-11214.973,10075.102c-192.133-119.396-459.461-192.984-752.156-192.984
		c-589.645,0-1066.43,294.303-1066.43,657.65c0,332.777,397.941,604.98,913.152,651.736v-191.375
		c-347.449-43.348-608.012-233.777-608.012-460.361c0-258.621,340.254-469.873,761.289-469.873
		c209.5,0,399.598,52.199,536.504,137.191l-195.16,121.053h609.051v-375.652L-11214.973,10075.102z"/>
	<path id="path2206_4_" fill="#616161" d="M-12120.406,9555.965v1444.164v191.375l305.281-191.375V9359.338L-12120.406,9555.965z"/>
</g>
<g id="g2202_3_" transform="matrix(1.031807e-2,0,0,1.031807e-2,143.3621,-90.91537)">
	<path id="path2204_3_" fill="#FFFFFF" d="M-11272.375,10054.42c-192.133-119.396-459.461-192.982-752.156-192.982
		c-589.648,0-1066.43,294.303-1066.43,657.697c0,332.777,397.941,604.98,913.148,651.736v-191.375
		c-347.445-43.348-608.008-233.777-608.008-460.361c0-258.668,340.254-469.92,761.289-469.92
		c209.5,0,399.598,52.197,536.504,137.191l-195.16,121.004h609.051v-375.604L-11272.375,10054.42z"/>
	<path id="path2206_3_" fill="#FFFFFF" d="M-12177.813,9535.285v1444.211v191.375l305.285-191.375v-1640.84L-12177.813,9535.285z"/>
</g>
</svg>
