<?xml version="1.0" encoding="utf-8"?>
<!-- Generator: Adobe Illustrator 16.0.0, SVG Export Plug-In . SVG Version: 6.00 Build 0)  -->
<!DOCTYPE svg PUBLIC "-//W3C//DTD SVG 1.1//EN" "http://www.w3.org/Graphics/SVG/1.1/DTD/svg11.dtd">
<svg version="1.1" id="圖層_1" xmlns="http://www.w3.org/2000/svg" xmlns:xlink="http://www.w3.org/1999/xlink" x="0px" y="0px"
	 width="83px" height="83px" viewBox="0 0 83 83" enable-background="new 0 0 83 83" xml:space="preserve">
<g>
	<rect y="76.979" fill="#212121" width="3" height="6"/>
	<rect x="76.958" fill="#212121" width="6" height="3"/>
	<g>
		<polygon fill="#CF1E1B" points="43.291,0 0,43.313 0.001,82.979 82.958,0 		"/>
		<g>
			<path fill="#FFEB3B" d="M25.948,44.563l-1.302,1.303L15.5,43.918c-0.336-0.072-0.609-0.152-0.821-0.238l-0.028,0.027
				c0.223,0.166,0.603,0.518,1.142,1.057l4.979,4.977l-1.132,1.133l-7.523-7.523l1.38-1.381l8.933,1.949
				c0.423,0.092,0.714,0.162,0.868,0.207l0.025-0.023c-0.269-0.197-0.646-0.539-1.132-1.025l-4.901-4.9l1.137-1.137L25.948,44.563z"
				/>
			<g>
				<polygon fill="#212121" points="13.705,42.016 13.495,41.969 12.115,43.35 19.639,50.873 19.766,50.746 12.371,43.35 				"/>
				<path fill="#212121" d="M14.886,43.678l-0.027,0.027c0.022,0.016,0.052,0.043,0.077,0.063c0.165,0.053,0.346,0.104,0.564,0.15
					l9.146,1.947l0.026-0.027l-8.98-1.926C15.362,43.842,15.094,43.764,14.886,43.678z"/>
				<path fill="#212121" d="M17.288,38.176l4.901,4.9c0.485,0.486,0.863,0.828,1.132,1.025l-0.019,0.018
					c0.012,0.002,0.032,0.008,0.042,0.01l0.023-0.023c-0.264-0.193-0.634-0.529-1.111-1.006l-4.818-4.819l1.114-1.113l-0.128-0.128
					L17.288,38.176z"/>
			</g>
			<path fill="#FFEB3B" d="M33.493,37.018l-4.168,4.167l-7.523-7.523l3.998-3.998l1,1l-2.832,2.832l2.215,2.214l2.627-2.627
				l0.997,0.996l-2.628,2.628l2.313,2.312l3.001-3.002L33.493,37.018z"/>
			<g>
				
					<rect x="25.804" y="34.329" transform="matrix(-0.7071 0.7071 -0.7071 -0.7071 71.3842 39.1661)" fill="#212121" width="3.553" height="0.077"/>
				
					<rect x="31.046" y="35.426" transform="matrix(-0.7071 -0.7071 0.7071 -0.7071 26.5211 85.92)" fill="#212121" width="0.018" height="4.083"/>
				<polygon fill="#212121" points="25.896,29.76 25.8,29.665 21.802,33.663 29.325,41.186 29.485,41.025 22.058,33.598 				"/>
			</g>
			<path fill="#FFEB3B" d="M38.22,17.245l5.45,9.597l-1.331,1.331l-6.708-3.823c-0.317-0.181-0.621-0.404-0.913-0.671l-0.02,0.021
				c0.27,0.32,0.486,0.628,0.652,0.923l3.807,6.732l-1.351,1.351l-9.65-5.396l1.282-1.282l6.911,4.095
				c0.305,0.182,0.608,0.408,0.914,0.68l0.034-0.034c-0.201-0.227-0.419-0.548-0.651-0.962l-3.935-7.052l1.186-1.186l7.014,4.079
				c0.253,0.149,0.542,0.356,0.869,0.617l0.02-0.02c-0.227-0.253-0.438-0.552-0.636-0.898l-4.162-6.883L38.22,17.245z"/>
			<g>
				<path fill="#212121" d="M37.365,30.719l0.034-0.034c-0.2-0.225-0.416-0.543-0.646-0.953l-3.907-6.985l1.132-1.132l-0.08-0.048
					l-1.186,1.186l3.935,7.052c0.169,0.3,0.325,0.533,0.477,0.733C37.204,30.603,37.285,30.647,37.365,30.719z"/>
				<path fill="#212121" d="M41.826,26.24l0.019-0.02c-0.225-0.251-0.435-0.547-0.631-0.891l-4.133-6.819l1.185-1.185l-0.046-0.081
					l-1.218,1.218l4.162,6.883c0.184,0.322,0.38,0.599,0.589,0.839C41.778,26.205,41.8,26.219,41.826,26.24z"/>
				<path fill="#212121" d="M34.832,23.667l-0.02,0.021c0.04,0.047,0.072,0.094,0.11,0.142c0.23,0.192,0.462,0.381,0.708,0.521
					l6.708,3.823l0.043-0.043l-6.646-3.797C35.422,24.153,35.121,23.93,34.832,23.667z"/>
				<polygon fill="#212121" points="29.519,26.073 29.438,26.026 28.156,27.308 37.807,32.705 37.907,32.604 28.347,27.245 				"/>
			</g>
			<path fill="#FFEB3B" d="M47.673,21.692c-0.193-0.194-0.286-0.428-0.278-0.697c0.008-0.271,0.112-0.507,0.313-0.707
				c0.197-0.197,0.433-0.301,0.702-0.309c0.271-0.008,0.504,0.085,0.697,0.279c0.188,0.188,0.278,0.416,0.272,0.685
				s-0.103,0.495-0.288,0.681c-0.217,0.217-0.46,0.328-0.732,0.335C48.087,21.964,47.857,21.876,47.673,21.692z M42.029,13.435
				l5.192,5.464l-0.928,0.929l-5.458-5.199L42.029,13.435z"/>
			<g>
				<path fill="#212121" d="M48.931,20.14c0.061,0.039,0.125,0.068,0.18,0.123c-0.002-0.002-0.002-0.004-0.004-0.005
					C49.054,20.205,48.99,20.177,48.931,20.14z"/>
				<path fill="#212121" d="M48.428,19.983c-0.007,0-0.012-0.003-0.019-0.004c-0.083,0.004-0.157,0.03-0.234,0.051
					C48.257,20.007,48.338,19.983,48.428,19.983z"/>
				<polygon fill="#212121" points="46.372,19.749 41.019,14.636 42.123,13.533 42.029,13.435 40.836,14.628 46.294,19.828 				"/>
				<path fill="#212121" d="M48.798,20.051c-0.064-0.027-0.139-0.03-0.208-0.041C48.659,20.021,48.733,20.024,48.798,20.051z"/>
				<path fill="#212121" d="M48.442,21.879c-0.26-0.002-0.482-0.093-0.665-0.275c-0.191-0.191-0.287-0.419-0.286-0.676
					c0-0.261,0.095-0.484,0.281-0.672c0.091-0.09,0.189-0.157,0.299-0.202c-0.132,0.05-0.255,0.125-0.364,0.233
					c-0.2,0.2-0.305,0.436-0.313,0.707c-0.008,0.27,0.085,0.503,0.278,0.697c0.185,0.185,0.414,0.272,0.686,0.267
					c0.272-0.007,0.516-0.118,0.732-0.335c0.009-0.009,0.012-0.019,0.019-0.027C48.913,21.782,48.693,21.88,48.442,21.879z"/>
			</g>
		</g>
		<polygon fill="#F44336" points="0.001,75.908 0.001,82.979 82.958,0 75.887,0 		"/>
		<polygon fill="#F44336" points="50.362,0 43.291,0 0,43.313 0,50.383 		"/>
	</g>
</g>
</svg>
