<?xml version="1.0" encoding="utf-8"?>
<!-- Generator: Adobe Illustrator 16.0.0, SVG Export Plug-In . SVG Version: 6.00 Build 0)  -->
<!DOCTYPE svg PUBLIC "-//W3C//DTD SVG 1.1//EN" "http://www.w3.org/Graphics/SVG/1.1/DTD/svg11.dtd">
<svg version="1.1" xmlns="http://www.w3.org/2000/svg" xmlns:xlink="http://www.w3.org/1999/xlink" x="0px" y="0px" width="40px"
	 height="10px" viewBox="0 0 40 10" enable-background="new 0 0 40 10" xml:space="preserve">
<g id="首頁BK" display="none">
</g>
<g id="首頁UI__x26__logo" display="none">
</g>
<g id="內頁_x5F_左">
</g>
<g id="內頁">
</g>
<g id="Easy_我的作品">
	<g>
		<g>
			<path fill="#6D6E70" d="M5.07,5.013c0-0.829,0.296-1.536,0.889-2.12s1.278-0.876,2.057-0.876c0.813,0,1.507,0.292,2.082,0.876
				s0.863,1.291,0.863,2.12c0,0.813-0.292,1.511-0.876,2.095S8.812,7.983,8.016,7.983c-0.778,0-1.464-0.284-2.057-0.851
				C5.366,6.565,5.07,5.859,5.07,5.013z"/>
			<path fill="#6D6E70" d="M17.055,5.013c0-0.829,0.296-1.536,0.889-2.12S19.222,2.017,20,2.017c0.813,0,1.507,0.292,2.082,0.876
				s0.863,1.291,0.863,2.12c0,0.813-0.292,1.511-0.876,2.095S20.796,7.983,20,7.983c-0.778,0-1.464-0.284-2.057-0.851
				C17.351,6.565,17.055,5.859,17.055,5.013z"/>
			<path fill="#6D6E70" d="M29.039,5.013c0-0.829,0.296-1.536,0.889-2.12s1.278-0.876,2.057-0.876c0.813,0,1.507,0.292,2.082,0.876
				s0.863,1.291,0.863,2.12c0,0.813-0.292,1.511-0.876,2.095s-1.273,0.876-2.069,0.876c-0.778,0-1.464-0.284-2.057-0.851
				C29.335,6.565,29.039,5.859,29.039,5.013z"/>
		</g>
		<rect opacity="0.3" fill="none" width="40" height="10"/>
	</g>
</g>
<g id="EASY_雲端作品庫" display="none">
</g>
<g id="福利中心頁_x5F_bk" display="none">
</g>
<g id="兌換商品" display="none">
</g>
<g id="版型下載" display="none">
</g>
<g id="Top_banner_1_">
</g>
<g id="商品說明" display="none">
</g>
<g id="填寫兌換頁" display="none">
</g>
<g id="會員資料" display="none">
</g>
<g id="集到先師" display="none">
</g>
<g id="Play" display="none">
</g>
<g id="製作頁" display="none">
</g>
<g id="pop_up" display="none">
</g>
<g id="guide" display="none">
</g>
</svg>
