<?xml version="1.0" encoding="utf-8"?>
<!-- Generator: Adobe Illustrator 16.0.0, SVG Export Plug-In . SVG Version: 6.00 Build 0)  -->
<!DOCTYPE svg PUBLIC "-//W3C//DTD SVG 1.1//EN" "http://www.w3.org/Graphics/SVG/1.1/DTD/svg11.dtd">
<svg version="1.1" xmlns="http://www.w3.org/2000/svg" xmlns:xlink="http://www.w3.org/1999/xlink" x="0px" y="0px" width="39px"
	 height="35px" viewBox="0 0 39 35" enable-background="new 0 0 39 35" xml:space="preserve">
<g id="首頁BK" display="none">
</g>
<g id="首頁UI__x26__logo" display="none">
</g>
<g id="內頁_x5F_左">
</g>
<g id="內頁">
</g>
<g id="Easy_我的作品">
	<g>
		<g>
			<g id="分享_8_">
				
					<ellipse fill="none" stroke="#58595B" stroke-width="1.5" stroke-miterlimit="10" cx="19.5" cy="19.809" rx="18.044" ry="11.68"/>
				<g>
					<path fill="#58595B" d="M5.52,22.606c0.491,0.336,1.21,0.616,1.966,0.616c1.122,0,1.777-0.658,1.777-1.611
						c0-0.882-0.453-1.387-1.601-1.877c-1.387-0.546-2.243-1.345-2.243-2.675c0-1.471,1.097-2.563,2.747-2.563
						c0.87,0,1.5,0.224,1.878,0.462l-0.302,0.995c-0.277-0.168-0.845-0.448-1.613-0.448c-1.16,0-1.601,0.77-1.601,1.415
						c0,0.882,0.517,1.317,1.688,1.821c1.437,0.617,2.168,1.387,2.168,2.774c0,1.457-0.971,2.717-2.975,2.717
						c-0.819,0-1.714-0.266-2.168-0.603L5.52,22.606z"/>
					<path fill="#58595B" d="M11.529,14.146h1.109v4.23h0.025c0.176-0.351,0.453-0.659,0.794-0.869
						c0.327-0.21,0.718-0.35,1.134-0.35c0.819,0,2.131,0.56,2.131,2.899v4.034h-1.109v-3.894c0-1.093-0.366-2.017-1.412-2.017
						c-0.718,0-1.285,0.56-1.487,1.232c-0.063,0.168-0.075,0.351-0.075,0.588v4.09h-1.109V14.146z"/>
					<path fill="#58595B" d="M21.585,24.091l-0.088-0.854h-0.038c-0.341,0.532-0.996,1.009-1.865,1.009
						c-1.235,0-1.865-0.967-1.865-1.947c0-1.639,1.311-2.535,3.667-2.521v-0.14c0-0.56-0.139-1.569-1.386-1.569
						c-0.567,0-1.16,0.196-1.588,0.504l-0.253-0.813c0.505-0.364,1.235-0.602,2.005-0.602c1.865,0,2.318,1.415,2.318,2.773v2.535
						c0,0.588,0.025,1.163,0.102,1.625H21.585z M21.421,20.631c-1.21-0.028-2.584,0.21-2.584,1.527c0,0.798,0.479,1.177,1.047,1.177
						c0.794,0,1.298-0.561,1.475-1.135c0.037-0.126,0.063-0.266,0.063-0.392V20.631z"/>
					<path fill="#58595B" d="M23.966,19.426c0-0.798-0.013-1.485-0.05-2.115h0.97l0.038,1.331h0.051
						c0.277-0.911,0.945-1.485,1.688-1.485c0.126,0,0.215,0.014,0.315,0.042v1.163c-0.113-0.028-0.228-0.042-0.378-0.042
						c-0.782,0-1.336,0.658-1.487,1.583c-0.025,0.168-0.051,0.364-0.051,0.575v3.614h-1.097V19.426z"/>
					<path fill="#58595B" d="M28.263,20.925c0.024,1.667,0.982,2.353,2.092,2.353c0.794,0,1.273-0.154,1.688-0.35l0.189,0.882
						c-0.391,0.196-1.059,0.42-2.029,0.42c-1.878,0-3-1.373-3-3.418c0-2.045,1.084-3.656,2.861-3.656
						c1.991,0,2.521,1.947,2.521,3.193c0,0.252-0.024,0.448-0.037,0.575H28.263z M31.514,20.042
						c0.013-0.784-0.289-2.003-1.537-2.003c-1.122,0-1.613,1.148-1.702,2.003H31.514z"/>
				</g>
				<polygon fill="#58595B" points="19.499,2.762 24.728,8.08 14.271,8.08 				"/>
			</g>
		</g>
		<rect opacity="0.3" fill="none" width="39" height="35"/>
	</g>
</g>
<g id="EASY_雲端作品庫" display="none">
</g>
<g id="福利中心頁_x5F_bk" display="none">
</g>
<g id="兌換商品" display="none">
</g>
<g id="版型下載" display="none">
</g>
<g id="Top_banner_1_">
</g>
<g id="商品說明" display="none">
</g>
<g id="填寫兌換頁" display="none">
</g>
<g id="會員資料" display="none">
</g>
<g id="集到先師" display="none">
</g>
<g id="Play" display="none">
</g>
<g id="製作頁" display="none">
</g>
<g id="pop_up" display="none">
</g>
<g id="guide" display="none">
</g>
</svg>
