<?xml version="1.0" encoding="utf-8"?>
<!-- Generator: Adobe Illustrator 16.0.0, SVG Export Plug-In . SVG Version: 6.00 Build 0)  -->
<!DOCTYPE svg PUBLIC "-//W3C//DTD SVG 1.1//EN" "http://www.w3.org/Graphics/SVG/1.1/DTD/svg11.dtd">
<svg version="1.1" xmlns="http://www.w3.org/2000/svg" xmlns:xlink="http://www.w3.org/1999/xlink" x="0px" y="0px" width="39px"
	 height="35px" viewBox="0 0 39 35" enable-background="new 0 0 39 35" xml:space="preserve">
<g id="首頁BK" display="none">
</g>
<g id="首頁UI__x26__logo" display="none">
</g>
<g id="內頁_x5F_左">
</g>
<g id="內頁">
</g>
<g id="Easy_我的作品">
	<g>
		<g>
			<g id="已分享_8_">
				<g>
					<ellipse fill="#58595B" cx="19.506" cy="10.776" rx="14.055" ry="9.098"/>
					<g>
						<path fill="#FFFFFF" d="M8.615,12.955c0.383,0.262,0.943,0.48,1.531,0.48c0.873,0,1.383-0.513,1.383-1.255
							c0-0.687-0.354-1.08-1.246-1.462C9.205,10.292,8.537,9.67,8.537,8.634c0-1.146,0.854-1.996,2.139-1.996
							c0.678,0,1.168,0.174,1.463,0.36l-0.236,0.774c-0.215-0.131-0.656-0.349-1.256-0.349c-0.902,0-1.246,0.6-1.246,1.102
							c0,0.688,0.402,1.025,1.314,1.418c1.119,0.48,1.688,1.08,1.688,2.16c0,1.134-0.756,2.116-2.314,2.116
							c-0.639,0-1.334-0.207-1.688-0.469L8.615,12.955z"/>
						<path fill="#FFFFFF" d="M13.297,6.365h0.863V9.66h0.02c0.137-0.273,0.354-0.513,0.619-0.677
							c0.254-0.164,0.559-0.272,0.883-0.272c0.637,0,1.658,0.437,1.658,2.258v3.142h-0.863v-3.033c0-0.851-0.285-1.571-1.1-1.571
							c-0.559,0-1,0.437-1.158,0.96c-0.049,0.131-0.059,0.273-0.059,0.458v3.186h-0.863V6.365z"/>
						<path fill="#FFFFFF" d="M21.129,14.111l-0.068-0.666h-0.029c-0.266,0.415-0.775,0.786-1.453,0.786
							c-0.961,0-1.451-0.753-1.451-1.517c0-1.276,1.02-1.975,2.854-1.964v-0.109c0-0.437-0.107-1.222-1.078-1.222
							c-0.441,0-0.902,0.153-1.236,0.393L18.469,9.18c0.393-0.284,0.963-0.469,1.561-0.469c1.453,0,1.805,1.102,1.805,2.16v1.975
							c0,0.458,0.02,0.906,0.08,1.266H21.129z M21,11.416c-0.941-0.022-2.01,0.164-2.01,1.189c0,0.622,0.373,0.916,0.814,0.916
							c0.617,0,1.01-0.436,1.146-0.883C20.98,12.54,21,12.431,21,12.333V11.416z"/>
						<path fill="#FFFFFF" d="M22.984,10.478c0-0.622-0.01-1.157-0.039-1.647h0.756l0.029,1.036h0.039
							c0.215-0.709,0.736-1.156,1.314-1.156c0.098,0,0.166,0.011,0.246,0.033v0.905c-0.09-0.021-0.178-0.033-0.295-0.033
							c-0.609,0-1.041,0.513-1.158,1.233c-0.02,0.131-0.039,0.284-0.039,0.447v2.815h-0.854V10.478z"/>
						<path fill="#FFFFFF" d="M26.33,11.645c0.02,1.298,0.766,1.833,1.629,1.833c0.617,0,0.99-0.12,1.314-0.273l0.146,0.688
							c-0.303,0.153-0.822,0.327-1.578,0.327c-1.463,0-2.336-1.069-2.336-2.662c0-1.593,0.844-2.848,2.227-2.848
							c1.551,0,1.963,1.517,1.963,2.487c0,0.196-0.02,0.349-0.029,0.447H26.33z M28.861,10.958c0.01-0.611-0.225-1.56-1.197-1.56
							c-0.873,0-1.256,0.895-1.324,1.56H28.861z"/>
					</g>
				</g>
				<g>
					<path fill="#58595B" d="M13.791,28.448c-0.061,1.156-0.188,1.859-0.381,2.109c-0.191,0.25-0.49,0.392-0.893,0.425
						c-0.404,0.033-1.563,0.049-3.477,0.049c-0.857,0-1.475-0.004-1.855-0.012s-0.652-0.1-0.813-0.276
						c-0.162-0.176-0.242-0.441-0.242-0.796v-4.937h0.537v1.27h5.82v-2.993H5.5V22.75h7.52v4.048H6.668v3.311
						c0,0.094,0.035,0.182,0.105,0.261c0.068,0.08,0.15,0.125,0.244,0.134c0.092,0.01,0.641,0.015,1.646,0.015
						c2.494,0,3.875-0.045,4.145-0.134c0.268-0.089,0.414-0.798,0.441-2.126L13.791,28.448z"/>
					<path fill="#58595B" d="M18.699,22.677c-0.801,1.836-1.863,3.209-3.189,4.121l-0.361-0.41c1.287-0.859,2.293-2.148,3.023-3.867
						L18.699,22.677z M22.332,26.188c-0.018,1.071-0.08,2.033-0.191,2.886c-0.109,0.853-0.219,1.382-0.326,1.587
						s-0.256,0.352-0.447,0.439c-0.189,0.088-0.521,0.132-0.994,0.132c-0.205,0-0.471-0.008-0.795-0.024l-0.117-0.537
						c0.363,0.033,0.701,0.049,1.01,0.049c0.301,0,0.492-0.02,0.58-0.059c0.086-0.039,0.16-0.095,0.225-0.168
						c0.063-0.073,0.133-0.292,0.211-0.654s0.141-0.812,0.189-1.348c0.047-0.536,0.078-1.125,0.094-1.77h-2.568
						c-0.225,1.963-1.324,3.506-3.301,4.629l-0.322-0.42c1.834-1.029,2.85-2.432,3.053-4.209H16.74v-0.532H22.332z M23.947,26.319
						l-0.355,0.449c-1.318-0.938-2.234-2.165-2.744-3.682H20.1V22.55h1.119C21.717,24.21,22.627,25.466,23.947,26.319z"/>
					<path fill="#58595B" d="M33.859,29.381h-3.871v1.138c0,0.189-0.07,0.341-0.207,0.457c-0.139,0.116-0.299,0.173-0.482,0.173
						h-1.527l-0.221-0.508h1.65c0.063,0,0.125-0.033,0.191-0.098c0.064-0.065,0.098-0.13,0.098-0.195v-0.967h-4.313v-0.493h4.313
						v-0.537c0.781-0.205,1.465-0.412,2.051-0.62h-5.752v-0.483h6.963v0.483c-0.83,0.316-1.752,0.631-2.764,0.947v0.21h3.871V29.381
						z M33.758,23.819h-8.541v-0.498h4.043c-0.109-0.205-0.277-0.443-0.502-0.713l0.463-0.239c0.213,0.244,0.436,0.562,0.67,0.952
						h3.867V23.819z M32.752,26.451h-6.471v-1.87h6.471V26.451z M32.229,25.948v-0.859h-5.42v0.859H32.229z"/>
				</g>
			</g>
		</g>
		<rect opacity="0.3" fill="none" width="39" height="35"/>
	</g>
</g>
<g id="EASY_雲端作品庫" display="none">
</g>
<g id="福利中心頁_x5F_bk" display="none">
</g>
<g id="兌換商品" display="none">
</g>
<g id="版型下載" display="none">
</g>
<g id="Top_banner_1_">
</g>
<g id="商品說明" display="none">
</g>
<g id="填寫兌換頁" display="none">
</g>
<g id="會員資料" display="none">
</g>
<g id="集到先師" display="none">
</g>
<g id="Play" display="none">
</g>
<g id="製作頁" display="none">
</g>
<g id="pop_up" display="none">
</g>
<g id="guide" display="none">
</g>
</svg>
