<?xml version="1.0" encoding="utf-8"?>
<!-- Generator: Adobe Illustrator 16.0.0, SVG Export Plug-In . SVG Version: 6.00 Build 0)  -->
<!DOCTYPE svg PUBLIC "-//W3C//DTD SVG 1.1//EN" "http://www.w3.org/Graphics/SVG/1.1/DTD/svg11.dtd">
<svg version="1.1" xmlns="http://www.w3.org/2000/svg" xmlns:xlink="http://www.w3.org/1999/xlink" x="0px" y="0px" width="25px"
	 height="35px" viewBox="0 0 25 35" enable-background="new 0 0 25 35" xml:space="preserve">
<g id="首頁BK" display="none">
</g>
<g id="首頁UI__x26__logo" display="none">
</g>
<g id="首頁UI__x26__logo_blgo" display="none">
</g>
<g id="內頁_x5F_左" display="none">
</g>
<g id="內頁">
</g>
<g id="Easy_我的作品">
	<g>
		<polygon opacity="0.3" fill="none" points="23.237,0 21.436,0 3.564,0 1.801,0 0,0 0,35 1.801,35 3.564,35 21.436,35 23.237,35 
			25,35 25,0 		"/>
		<g>
			<path fill="#58595B" d="M21.318,6.13H9.791c-1.666,0-3.018,1.351-3.018,3.014V9.8h1.744c0.035-1.074,0.916-1.936,2-1.936h10.07
				c1.111,0,2.012,0.901,2.012,2.01v10.072c0,1.109-0.9,2.01-2.012,2.01h-0.859v1.734h1.59c1.664,0,3.016-1.353,3.016-3.015V9.144
				C24.334,7.482,22.984,6.13,21.318,6.13z"/>
			<path fill="#58595B" d="M15.209,11.308H3.682c-1.668,0-3.016,1.349-3.016,3.015v11.533c0,1.664,1.35,3.015,3.016,3.015h11.527
				c1.668,0,3.018-1.354,3.018-3.015V14.321C18.225,12.657,16.873,11.308,15.209,11.308z M16.492,25.124
				c0,1.105-0.902,2.007-2.014,2.007H4.41c-1.113,0-2.01-0.902-2.01-2.007V15.049c0-1.109,0.896-2.01,2.01-2.01h10.07
				c1.113,0,2.014,0.901,2.014,2.01v10.075H16.492z"/>
			<path fill="#58595B" d="M13.268,15.604H5.656c-0.416,0-0.752,0.334-0.752,0.75s0.336,0.752,0.752,0.752h7.611
				c0.414,0,0.754-0.336,0.754-0.752C14.02,15.94,13.682,15.604,13.268,15.604z"/>
			<path fill="#58595B" d="M13.268,19.365H5.656c-0.416,0-0.752,0.334-0.752,0.752c0,0.418,0.336,0.752,0.752,0.752h7.611
				c0.414,0,0.754-0.337,0.754-0.752C14.021,19.701,13.682,19.365,13.268,19.365z"/>
			<path fill="#58595B" d="M13.268,23.131H5.656c-0.416,0-0.752,0.335-0.752,0.757c0,0.411,0.336,0.748,0.752,0.748h7.611
				c0.414,0,0.754-0.334,0.754-0.748C14.02,23.465,13.682,23.131,13.268,23.131z"/>
		</g>
	</g>
</g>
<g id="EASY_雲端作品庫" display="none">
</g>
<g id="福利中心頁_x5F_bk" display="none">
</g>
<g id="兌換商品" display="none">
</g>
<g id="版型下載" display="none">
</g>
<g id="Top_banner_1_" display="none">
</g>
<g id="商品說明" display="none">
</g>
<g id="填寫兌換頁" display="none">
</g>
<g id="會員資料" display="none">
</g>
<g id="集到先師" display="none">
</g>
<g id="Play" display="none">
</g>
<g id="製作頁" display="none">
</g>
<g id="pop_up" display="none">
</g>
<g id="guide" display="none">
</g>
</svg>
