<?xml version="1.0" encoding="utf-8"?>
<!-- Generator: Adobe Illustrator 16.0.0, SVG Export Plug-In . SVG Version: 6.00 Build 0)  -->
<!DOCTYPE svg PUBLIC "-//W3C//DTD SVG 1.1//EN" "http://www.w3.org/Graphics/SVG/1.1/DTD/svg11.dtd">
<svg version="1.1" xmlns="http://www.w3.org/2000/svg" xmlns:xlink="http://www.w3.org/1999/xlink" x="0px" y="0px" width="22px"
	 height="35px" viewBox="0 0 22 35" enable-background="new 0 0 22 35" xml:space="preserve">
<g id="首頁BK" display="none">
</g>
<g id="首頁UI__x26__logo" display="none">
</g>
<g id="內頁_x5F_左">
</g>
<g id="內頁">
</g>
<g id="Easy_我的作品">
	<g>
		<g>
			<path fill="#58595B" d="M2.683,9.536l1.205,17.492c0.07,1.034,1.033,1.857,2.151,1.857h9.97c1.117,0,2.078-0.823,2.146-1.857
				l1.17-17.492H2.683z M6.272,25.97L5.623,11.751h1.714L7.78,25.97H6.272z M11.776,25.97h-1.509l-0.118-14.219h1.715L11.776,25.97z
				 M15.831,25.97h-1.508l0.413-14.219h1.714L15.831,25.97z"/>
			<path fill="#58595B" d="M21.004,10.411h-20l0,0c0-1.129,0.915-2.044,2.044-2.044H18.96C20.089,8.367,21.004,9.282,21.004,10.411
				L21.004,10.411z"/>
			<path fill="#58595B" d="M11.601,9.285h-1.188c-0.385,0-0.696-0.312-0.696-0.697V6.812c0-0.385,0.312-0.696,0.696-0.696h1.188
				c0.385,0,0.696,0.312,0.696,0.696v1.776C12.297,8.973,11.985,9.285,11.601,9.285z"/>
		</g>
		<rect x="0.004" opacity="0.3" fill="none" width="22" height="35"/>
	</g>
</g>
<g id="EASY_雲端作品庫" display="none">
</g>
<g id="福利中心頁_x5F_bk" display="none">
</g>
<g id="兌換商品" display="none">
</g>
<g id="版型下載" display="none">
</g>
<g id="Top_banner_1_">
</g>
<g id="商品說明" display="none">
</g>
<g id="填寫兌換頁" display="none">
</g>
<g id="會員資料" display="none">
</g>
<g id="集到先師" display="none">
</g>
<g id="Play" display="none">
</g>
<g id="製作頁" display="none">
</g>
<g id="pop_up" display="none">
</g>
<g id="guide" display="none">
</g>
</svg>
