<?xml version="1.0" encoding="utf-8"?>
<!-- Generator: Adobe Illustrator 16.0.0, SVG Export Plug-In . SVG Version: 6.00 Build 0)  -->
<!DOCTYPE svg PUBLIC "-//W3C//DTD SVG 1.1//EN" "http://www.w3.org/Graphics/SVG/1.1/DTD/svg11.dtd">
<svg version="1.1" xmlns="http://www.w3.org/2000/svg" xmlns:xlink="http://www.w3.org/1999/xlink" x="0px" y="0px" width="25px"
	 height="35px" viewBox="0 0 25 35" enable-background="new 0 0 25 35" xml:space="preserve">
<g id="首頁BK" display="none">
</g>
<g id="首頁UI__x26__logo" display="none">
</g>
<g id="內頁_x5F_左">
</g>
<g id="內頁">
</g>
<g id="Easy_我的作品">
	<g>
		<g>
			<g>
				<path fill="#58595B" d="M1.057,6.046v7.756h7.756V6.046H1.057z M7.684,12.673H2.186V7.176h5.498V12.673z"/>
				<rect x="3.291" y="8.281" fill="#58595B" width="3.287" height="3.287"/>
			</g>
			<g>
				<path fill="#58595B" d="M1.057,20.991v7.756h7.756v-7.756H1.057z M7.684,27.618H2.186V22.12h5.498V27.618z"/>
				<rect x="3.291" y="23.225" fill="#58595B" width="3.287" height="3.287"/>
			</g>
			<g>
				<path fill="#58595B" d="M16.242,6.046v7.756H24V6.046H16.242z M22.869,12.673h-5.496V7.176h5.496V12.673z"/>
				<rect x="18.477" y="8.281" fill="#58595B" width="3.289" height="3.287"/>
			</g>
			<rect x="1.057" y="6.046" fill="none" width="7.756" height="7.756"/>
			<rect x="10.258" y="6.046" fill="#58595B" width="4.438" height="1.847"/>
			<rect x="10.258" y="27.01" fill="#58595B" width="4.438" height="1.847"/>
			<rect x="1" y="15.443" fill="#58595B" width="10.748" height="1.847"/>
			<rect x="9.771" y="16.366" fill="#58595B" width="1.977" height="3.905"/>
			<rect x="13.25" y="23.626" fill="#58595B" width="10.75" height="1.847"/>
			<rect x="13.25" y="20.644" fill="#58595B" width="1.977" height="3.905"/>
			<rect x="16.242" y="16.366" fill="#58595B" width="1.604" height="4.113"/>
			<rect x="19.549" y="16.558" fill="#58595B" width="4.451" height="1.865"/>
			<rect x="13.25" y="9.35" fill="#58595B" width="1.445" height="4.715"/>
			<rect x="2.836" y="16.735" fill="#58595B" width="3.537" height="2.393"/>
			<rect x="18.162" y="25.091" fill="#58595B" width="1.51" height="3.766"/>
			<rect x="10.258" y="10.951" fill="#58595B" width="3.715" height="1.235"/>
			<rect x="19.672" y="20.616" fill="#58595B" width="1.504" height="1.503"/>
			<rect x="13.25" y="16.506" fill="#58595B" width="1.977" height="1.976"/>
			<rect x="9.771" y="22.577" fill="#58595B" width="1.977" height="1.977"/>
			<rect x="21.898" y="26.978" fill="#58595B" width="1.977" height="1.976"/>
		</g>
		<rect opacity="0.3" fill="none" width="25" height="35"/>
	</g>
</g>
<g id="EASY_雲端作品庫" display="none">
</g>
<g id="福利中心頁_x5F_bk" display="none">
</g>
<g id="兌換商品" display="none">
</g>
<g id="版型下載" display="none">
</g>
<g id="Top_banner_1_">
</g>
<g id="商品說明" display="none">
</g>
<g id="填寫兌換頁" display="none">
</g>
<g id="會員資料" display="none">
</g>
<g id="集到先師" display="none">
</g>
<g id="Play" display="none">
</g>
<g id="製作頁" display="none">
</g>
<g id="pop_up" display="none">
</g>
<g id="guide" display="none">
</g>
</svg>
