<?xml version="1.0" encoding="utf-8"?>
<!-- Generator: Adobe Illustrator 16.0.0, SVG Export Plug-In . SVG Version: 6.00 Build 0)  -->
<!DOCTYPE svg PUBLIC "-//W3C//DTD SVG 1.1//EN" "http://www.w3.org/Graphics/SVG/1.1/DTD/svg11.dtd">
<svg version="1.1" xmlns="http://www.w3.org/2000/svg" xmlns:xlink="http://www.w3.org/1999/xlink" x="0px" y="0px" width="32px"
	 height="35px" viewBox="0 0 32 35" enable-background="new 0 0 32 35" xml:space="preserve">
<g id="首頁BK">
</g>
<g id="首頁UI__x26__logo">
</g>
<g id="內頁_x5F_左">
</g>
<g id="內頁">
</g>
<g id="Easy_我的作品" display="none">
</g>
<g id="EASY_雲端作品庫">
	<rect opacity="0.5" fill="none" width="32" height="35"/>
	<path fill="#6D6E70" d="M22.863,8.335c1.063,0,1.914,0.345,2.529,1.024c1.594,1.756,2.869,4.498-1.436,10.169
		c-1.922,2.531-6.02,5.442-7.959,6.746c-2.256-1.516-6.164-4.388-7.955-6.746C5.783,16.55,3.576,12.702,6.607,9.36
		c0.615-0.68,1.467-1.024,2.529-1.024c1.979,0,4.182,1.248,5.125,2.904c0.355,0.625,1.02,1.011,1.738,1.011s1.383-0.386,1.738-1.011
		C18.682,9.583,20.885,8.335,22.863,8.335 M22.863,6.335c-2.672,0-5.545,1.6-6.863,3.915c-1.318-2.314-4.191-3.915-6.863-3.915
		c-1.506,0-2.947,0.507-4.012,1.681c-3.254,3.589-2.336,7.898,1.326,12.722C9.262,24.441,16,28.665,16,28.665
		s6.738-4.224,9.549-7.927c3.662-4.823,4.58-9.133,1.326-12.722C25.811,6.843,24.369,6.335,22.863,6.335L22.863,6.335z"/>
</g>
<g id="福利中心頁_x5F_bk" display="none">
</g>
<g id="兌換商品" display="none">
</g>
<g id="版型下載" display="none">
</g>
<g id="Top_banner_1_">
</g>
<g id="商品說明" display="none">
</g>
<g id="填寫兌換頁" display="none">
</g>
<g id="會員資料" display="none">
</g>
<g id="集到先師" display="none">
</g>
<g id="Play" display="none">
</g>
<g id="製作頁" display="none">
</g>
<g id="pop_up" display="none">
</g>
<g id="guide" display="none">
</g>
</svg>
