<?xml version="1.0" encoding="utf-8"?>
<!-- Generator: Adobe Illustrator 16.0.0, SVG Export Plug-In . SVG Version: 6.00 Build 0)  -->
<!DOCTYPE svg PUBLIC "-//W3C//DTD SVG 1.1//EN" "http://www.w3.org/Graphics/SVG/1.1/DTD/svg11.dtd">
<svg version="1.1" id="圖層_1" xmlns="http://www.w3.org/2000/svg" xmlns:xlink="http://www.w3.org/1999/xlink" x="0px" y="0px"
	 width="26px" height="16px" viewBox="0 0 26 16" enable-background="new 0 0 26 16" xml:space="preserve">
<g id="首頁BK" display="none">
</g>
<g id="首頁UI__x26__logo" display="none">
</g>
<g id="內頁_x5F_左">
</g>
<g id="內頁">
</g>
<g id="Easy_我的作品">
	<g>
		<rect x="-0.001" fill="none" width="26" height="16"/>
	</g>
</g>
<g id="EASY_雲端作品庫" display="none">
</g>
<g id="福利中心頁_x5F_bk" display="none">
</g>
<g id="兌換商品" display="none">
</g>
<g id="版型下載" display="none">
</g>
<g id="Top_banner_1_">
</g>
<g id="商品說明" display="none">
</g>
<g id="填寫兌換頁" display="none">
</g>
<g id="會員資料" display="none">
</g>
<g id="集到先師" display="none">
</g>
<g id="Play" display="none">
</g>
<g id="製作頁" display="none">
</g>
<g id="pop_up" display="none">
</g>
<g id="guide" display="none">
</g>
<path fill="#F1F1F2" d="M16.995,2.664c0.619,0,1.114,0.201,1.474,0.596c0.927,1.022,1.67,2.619-0.837,5.92
	c-1.118,1.473-3.505,3.169-4.634,3.927c-1.313-0.883-3.588-2.554-4.631-3.927c-1.315-1.733-2.6-3.974-0.836-5.92
	C7.89,2.865,8.386,2.665,9.004,2.665c1.152,0,2.435,0.727,2.983,1.691c0.207,0.364,0.594,0.589,1.012,0.589
	c0.419,0,0.805-0.225,1.012-0.589C14.562,3.391,15.844,2.664,16.995,2.664 M16.995,1.5C15.44,1.5,13.767,2.432,13,3.779
	C12.233,2.432,10.56,1.5,9.005,1.5c-0.877,0-1.716,0.294-2.336,0.979c-1.895,2.089-1.36,4.598,0.772,7.406
	C9.078,12.041,13,14.5,13,14.5s3.923-2.459,5.559-4.615c2.133-2.807,2.667-5.317,0.773-7.406C18.711,1.795,17.872,1.5,16.995,1.5
	L16.995,1.5z"/>
</svg>
