<?xml version="1.0" encoding="utf-8"?>
<!-- Generator: Adobe Illustrator 16.0.0, SVG Export Plug-In . SVG Version: 6.00 Build 0)  -->
<!DOCTYPE svg PUBLIC "-//W3C//DTD SVG 1.1//EN" "http://www.w3.org/Graphics/SVG/1.1/DTD/svg11.dtd">
<svg version="1.1" xmlns="http://www.w3.org/2000/svg" xmlns:xlink="http://www.w3.org/1999/xlink" x="0px" y="0px" width="32px"
	 height="35px" viewBox="0 0 32 35" enable-background="new 0 0 32 35" xml:space="preserve">
<g id="首頁BK">
</g>
<g id="首頁UI__x26__logo">
</g>
<g id="內頁_x5F_左">
</g>
<g id="內頁">
</g>
<g id="Easy_我的作品" display="none">
</g>
<g id="EASY_雲端作品庫">
	<rect opacity="0.5" fill="none" width="32" height="35"/>
	<g>
		<g>
			<path fill="#A72430" d="M23.032,3.724c-1.969-2.17-5.873-0.922-7.246,1.489c-1.373-2.411-5.279-3.659-7.248-1.489
				C6.37,6.116,6.981,8.988,9.423,12.202c1.873,2.468,6.363,5.282,6.363,5.282s4.49-2.814,6.363-5.282
				C24.589,8.988,25.202,6.116,23.032,3.724z"/>
		</g>
		<g>
			<path d="M10.077,29.535c-0.061,1.155-0.188,1.858-0.381,2.109c-0.191,0.25-0.49,0.392-0.893,0.425
				c-0.404,0.032-1.563,0.049-3.477,0.049c-0.857,0-1.475-0.004-1.855-0.013c-0.381-0.008-0.652-0.1-0.813-0.275
				c-0.162-0.176-0.242-0.441-0.242-0.796v-4.937h0.537v1.27h5.82v-2.993H1.786v-0.537h7.52v4.048H2.954v3.311
				c0,0.094,0.035,0.182,0.105,0.261c0.068,0.08,0.15,0.125,0.244,0.135c0.092,0.01,0.641,0.015,1.646,0.015
				c2.494,0,3.875-0.045,4.145-0.135c0.268-0.089,0.414-0.798,0.441-2.126L10.077,29.535z"/>
			<path d="M14.634,32.328h-0.518v-2.744c-0.703,0.377-1.463,0.718-2.281,1.021l-0.229-0.64c0.133-0.085,0.199-0.205,0.199-0.361
				v-5.146h0.518v5.381c0.697-0.258,1.295-0.537,1.793-0.84v-5.464h0.518V32.328z M20.165,31.874l-0.342,0.474
				c-1.016-0.515-1.785-1.093-2.309-1.733c-0.658,0.696-1.406,1.263-2.246,1.699l-0.371-0.42c0.963-0.492,1.73-1.062,2.299-1.709
				c-0.445-0.684-0.803-1.54-1.068-2.568l0.498-0.151c0.27,1.006,0.572,1.766,0.908,2.28c0.646-0.957,1.031-2.367,1.152-4.229
				h-2.051c-0.297,0.918-0.711,1.768-1.24,2.549l-0.4-0.4c0.793-1.166,1.324-2.549,1.592-4.15l0.518,0.093
				c-0.057,0.387-0.158,0.853-0.309,1.396h3.291v0.513h-0.859c-0.205,2.223-0.662,3.782-1.371,4.678
				C18.394,30.864,19.163,31.424,20.165,31.874z"/>
			<path d="M25.595,24.828h-1.24v0.776l-0.498,0.01v-0.786h-2.363v-0.464h2.363v-0.811h0.498v0.811h1.24V24.828z M30.214,30.555
				c-0.186,1.155-0.484,1.733-0.898,1.733c-0.313,0-0.652-0.334-1.02-1.001c-0.232,0.264-0.457,0.493-0.68,0.688l-0.342-0.361
				c0.273-0.244,0.541-0.537,0.801-0.879c-0.289-0.876-0.455-2.275-0.498-4.199h-3.682v2.808c0,1.185-0.266,2.202-0.801,3.052
				l-0.4-0.313c0.447-0.775,0.684-1.704,0.713-2.788h-0.762c-0.064,0.96-0.309,1.736-0.732,2.329l-0.385-0.298
				c0.373-0.605,0.576-1.283,0.605-2.031h-0.631v-0.479h1.904v-1.011h-1.469v-1.729h0.508v1.235h0.961v-1.25h4.146l0.014-0.43h0.527
				c-0.012,0.137-0.02,0.279-0.02,0.43h2.012v0.474h-2.012c0.018,1.559,0.137,2.752,0.361,3.579
				c0.381-0.801,0.645-1.745,0.791-2.832l0.469,0.161c-0.191,1.357-0.551,2.474-1.078,3.35c0.098,0.264,0.221,0.484,0.369,0.664
				c0.146,0.179,0.238,0.269,0.275,0.269c0.07,0,0.16-0.123,0.268-0.369c0.107-0.245,0.18-0.6,0.215-1.062L30.214,30.555z
				 M27.206,27.625h-0.889v0.762h0.787v1.729h-0.787v0.938h0.689v0.474h-2.451v-4.36h2.65V27.625z M25.806,28.387v-0.762h-0.762
				v0.762H25.806z M26.606,29.657v-0.811h-1.563v0.811H26.606z M25.806,31.053v-0.938h-0.762v0.938H25.806z M30.175,24.828h-2.367
				v0.508h-0.504v-0.508h-1.24v-0.464h1.24v-0.811h0.504v0.811h2.367V24.828z M29.858,25.545l-0.332,0.361
				c-0.293-0.199-0.58-0.36-0.859-0.483l0.287-0.356C29.226,25.161,29.526,25.321,29.858,25.545z"/>
		</g>
	</g>
</g>
<g id="福利中心頁_x5F_bk" display="none">
</g>
<g id="兌換商品" display="none">
</g>
<g id="版型下載" display="none">
</g>
<g id="Top_banner_1_">
</g>
<g id="商品說明" display="none">
</g>
<g id="填寫兌換頁" display="none">
</g>
<g id="會員資料" display="none">
</g>
<g id="集到先師" display="none">
</g>
<g id="Play" display="none">
</g>
<g id="製作頁" display="none">
</g>
<g id="pop_up" display="none">
</g>
<g id="guide" display="none">
</g>
</svg>
