<?xml version="1.0" encoding="utf-8"?>
<!-- Generator: Adobe Illustrator 16.0.0, SVG Export Plug-In . SVG Version: 6.00 Build 0)  -->
<!DOCTYPE svg PUBLIC "-//W3C//DTD SVG 1.1//EN" "http://www.w3.org/Graphics/SVG/1.1/DTD/svg11.dtd">
<svg version="1.1" xmlns="http://www.w3.org/2000/svg" xmlns:xlink="http://www.w3.org/1999/xlink" x="0px" y="0px" width="26px"
	 height="16px" viewBox="0 0 26 16" enable-background="new 0 0 26 16" xml:space="preserve">
<g id="首頁BK" display="none">
</g>
<g id="首頁UI__x26__logo" display="none">
</g>
<g id="內頁_x5F_左">
</g>
<g id="內頁">
</g>
<g id="Easy_我的作品">
	<g>
		<g>
			<g>
				<path fill="#F1F1F2" d="M12.999,13.834C7.402,13.834,2.824,9.43,2.824,8c0-1.429,4.578-5.834,10.175-5.834
					c5.338,0,10.176,4.2,10.176,5.834C23.175,9.635,18.337,13.834,12.999,13.834z M12.999,3.166c-5.176,0-9.118,4.033-9.175,4.837
					c0.057,0.799,3.999,4.831,9.175,4.831c5.146,0,9.142-4.055,9.176-4.834C22.141,7.222,18.146,3.166,12.999,3.166z"/>
				<path fill="#F1F1F2" d="M12.999,13.721c-3.154,0-5.721-2.566-5.721-5.721s2.566-5.721,5.721-5.721S18.72,4.846,18.72,8
					S16.153,13.721,12.999,13.721z M12.999,3.279c-2.603,0-4.721,2.118-4.721,4.721s2.118,4.721,4.721,4.721S17.72,10.603,17.72,8
					S15.602,3.279,12.999,3.279z"/>
				<path fill="#F1F1F2" d="M12.999,4.929c-0.347,0-0.675,0.071-0.983,0.183l0.049,2.18l-1.557-0.947
					c-0.268,0.441-0.431,0.953-0.431,1.507c0,1.614,1.309,2.922,2.922,2.922s2.922-1.308,2.922-2.922
					C15.921,6.237,14.612,4.929,12.999,4.929z"/>
			</g>
		</g>
		<rect x="-0.001" opacity="0.5" fill="none" width="26" height="16"/>
	</g>
</g>
<g id="EASY_雲端作品庫" display="none">
</g>
<g id="福利中心頁_x5F_bk" display="none">
</g>
<g id="兌換商品" display="none">
</g>
<g id="版型下載" display="none">
</g>
<g id="Top_banner_1_">
</g>
<g id="商品說明" display="none">
</g>
<g id="填寫兌換頁" display="none">
</g>
<g id="會員資料" display="none">
</g>
<g id="集到先師" display="none">
</g>
<g id="Play" display="none">
</g>
<g id="製作頁" display="none">
</g>
<g id="pop_up" display="none">
</g>
<g id="guide" display="none">
</g>
</svg>
