<?xml version="1.0" encoding="utf-8"?>
<!-- Generator: Adobe Illustrator 15.0.0, SVG Export Plug-In . SVG Version: 6.00 Build 0)  -->
<!DOCTYPE svg PUBLIC "-//W3C//DTD SVG 1.1//EN" "http://www.w3.org/Graphics/SVG/1.1/DTD/svg11.dtd">
<svg version="1.1" id="圖層_1" xmlns="http://www.w3.org/2000/svg" xmlns:xlink="http://www.w3.org/1999/xlink" x="0px" y="0px"
	 width="400px" height="300px" viewBox="0 0 400 300" enable-background="new 0 0 400 300" xml:space="preserve">
<g>
	<g>
		<g>
			<path fill="#848484" d="M219.558,196.809c-0.181-0.035-0.542-0.052-1.085-0.052h-0.729v2.119h0.824
				c0.596,0,0.991-0.041,1.191-0.117c0.199-0.079,0.356-0.202,0.471-0.366c0.114-0.168,0.171-0.359,0.171-0.582
				c0-0.271-0.079-0.496-0.238-0.672C220.004,196.962,219.802,196.852,219.558,196.809z"/>
			<path fill="#848484" d="M243.85,162.093h-33.027c-2.058,0-3.726,1.668-3.726,3.726v36.187c0,2.058,1.668,3.726,3.726,3.726
				h33.027c2.059,0,3.727-1.668,3.727-3.726v-36.187C247.575,163.761,245.907,162.093,243.85,162.093z M221.706,198.945
				c-0.166,0.313-0.377,0.561-0.635,0.738c-0.257,0.176-0.518,0.295-0.781,0.353c-0.359,0.071-0.881,0.106-1.563,0.106h-0.981v2.814
				h-1.509v-7.465h2.419c0.918,0,1.517,0.037,1.794,0.109c0.428,0.111,0.784,0.354,1.073,0.729s0.435,0.858,0.435,1.453
				C221.956,198.249,221.873,198.634,221.706,198.945z M229.966,202.96h-1.514l-3.012-4.869v4.869h-1.398v-7.467h1.468l3.055,4.985
				v-4.985h1.401V202.96L229.966,202.96z M239.117,201.932c-0.314,0.307-0.772,0.573-1.372,0.807
				c-0.602,0.231-1.207,0.351-1.82,0.351c-0.781,0-1.461-0.164-2.042-0.489c-0.581-0.328-1.019-0.798-1.311-1.406
				c-0.292-0.606-0.438-1.271-0.438-1.987c0-0.776,0.163-1.47,0.488-2.072c0.326-0.604,0.804-1.067,1.432-1.391
				c0.479-0.248,1.075-0.373,1.788-0.373c0.927,0,1.65,0.194,2.172,0.584c0.521,0.391,0.855,0.928,1.006,1.61l-1.498,0.278
				c-0.104-0.364-0.303-0.653-0.593-0.866c-0.29-0.214-0.653-0.317-1.087-0.317c-0.659,0-1.183,0.209-1.571,0.627
				c-0.388,0.418-0.583,1.037-0.583,1.858c0,0.885,0.197,1.549,0.591,1.994c0.396,0.439,0.91,0.663,1.55,0.663
				c0.314,0,0.632-0.063,0.948-0.187c0.317-0.125,0.592-0.274,0.817-0.453v-0.944h-1.728v-1.261h3.249L239.117,201.932
				L239.117,201.932z M243.487,190.675c0,0.822-0.667,1.488-1.488,1.488h-29.323c-0.823,0-1.49-0.666-1.49-1.488v-23.553
				c0-0.822,0.667-1.49,1.49-1.49h29.323c0.821,0,1.488,0.668,1.488,1.49V190.675L243.487,190.675z"/>
			<polygon fill="#848484" points="226.323,187.218 225.115,187.218 220.29,182.195 213.051,190.232 242.004,190.232 
				234.767,173.155 			"/>
			<circle fill="#848484" cx="219.471" cy="173.155" r="3.99"/>
		</g>
		<g>
			<path fill="#848484" d="M175.532,196.809c-0.182-0.035-0.541-0.052-1.085-0.052h-0.729v2.119h0.824
				c0.595,0,0.992-0.041,1.19-0.117c0.2-0.079,0.357-0.202,0.473-0.366c0.111-0.168,0.17-0.359,0.17-0.582
				c0-0.271-0.079-0.496-0.238-0.672C175.978,196.962,175.776,196.852,175.532,196.809z"/>
			<path fill="#848484" d="M193.166,162.093h-33.027c-2.058,0-3.726,1.668-3.726,3.726v36.187c0,2.058,1.668,3.726,3.726,3.726
				h33.027c2.058,0,3.726-1.668,3.726-3.726v-36.187C196.892,163.761,195.224,162.093,193.166,162.093z M169.773,200.22
				c0,0.617-0.054,1.093-0.163,1.427c-0.146,0.436-0.409,0.783-0.795,1.047c-0.384,0.264-0.89,0.396-1.518,0.396
				c-0.737,0-1.305-0.205-1.701-0.619c-0.396-0.411-0.599-1.019-0.602-1.813l1.421-0.164c0.018,0.43,0.08,0.729,0.188,0.905
				c0.163,0.271,0.411,0.403,0.744,0.403c0.336,0,0.574-0.099,0.712-0.286c0.142-0.192,0.209-0.591,0.209-1.195v-4.821h1.504
				L169.773,200.22L169.773,200.22z M177.681,198.945c-0.166,0.313-0.378,0.561-0.634,0.738c-0.257,0.176-0.519,0.295-0.781,0.353
				c-0.358,0.071-0.881,0.106-1.563,0.106h-0.982v2.814h-1.508v-7.465h2.419c0.917,0,1.514,0.037,1.793,0.109
				c0.428,0.111,0.785,0.354,1.074,0.729s0.434,0.858,0.434,1.453C177.931,198.249,177.848,198.634,177.681,198.945z
				 M186.725,201.932c-0.313,0.307-0.771,0.573-1.373,0.807c-0.6,0.231-1.206,0.351-1.818,0.351c-0.781,0-1.463-0.164-2.042-0.489
				c-0.58-0.328-1.019-0.798-1.31-1.406c-0.292-0.606-0.438-1.271-0.438-1.987c0-0.776,0.162-1.47,0.487-2.072
				c0.326-0.604,0.805-1.067,1.433-1.391c0.479-0.248,1.074-0.373,1.787-0.373c0.927,0,1.649,0.194,2.172,0.584
				c0.521,0.391,0.854,0.928,1.006,1.61l-1.496,0.278c-0.105-0.364-0.304-0.653-0.594-0.866c-0.291-0.214-0.652-0.317-1.088-0.317
				c-0.658,0-1.184,0.209-1.571,0.627s-0.582,1.037-0.582,1.858c0,0.885,0.196,1.549,0.591,1.994
				c0.396,0.439,0.91,0.663,1.548,0.663c0.314,0,0.632-0.063,0.95-0.187c0.316-0.125,0.59-0.274,0.816-0.453v-0.944h-1.729v-1.261
				h3.249L186.725,201.932L186.725,201.932z M192.805,190.675c0,0.822-0.667,1.488-1.49,1.488H161.99
				c-0.823,0-1.49-0.666-1.49-1.488v-23.553c0-0.822,0.667-1.49,1.49-1.49h29.323c0.823,0,1.49,0.668,1.49,1.49L192.805,190.675
				L192.805,190.675z"/>
			<path fill="#848484" d="M185.256,172.294h-4.746c0.014-0.074,0.033-0.147,0.033-0.229v-1.609c0-0.508-0.302-0.92-0.673-0.92
				h-6.732c-0.372,0-0.673,0.412-0.673,0.92v1.609c0,0.082,0.02,0.156,0.033,0.229h-4.747c-1.115,0-2.021,0.926-2.021,2.067v12.425
				c0,1.144,0.904,2.069,2.021,2.069h17.505c1.114,0,2.02-0.929,2.02-2.069v-12.425C187.276,173.22,186.372,172.294,185.256,172.294
				z M173.811,170.913h5.386v0.688h-5.386V170.913z M176.503,186.786c-3.346,0-6.061-2.779-6.061-6.211
				c0-3.433,2.715-6.214,6.061-6.214c3.349,0,6.061,2.781,6.061,6.214C182.563,184.007,179.851,186.786,176.503,186.786z"/>
			<path fill="#848484" d="M176.503,176.434c-2.229,0-4.038,1.854-4.038,4.143c0,2.289,1.809,4.142,4.038,4.142
				c2.23,0,4.041-1.854,4.041-4.142S178.735,176.434,176.503,176.434z M176.503,181.956c-0.743,0-1.345-0.617-1.345-1.381
				c0-0.765,0.603-1.382,1.345-1.382c0.744,0,1.348,0.617,1.348,1.382C177.85,181.339,177.248,181.956,176.503,181.956z"/>
		</g>
	</g>
</g>
<g>
	<path fill="#848484" d="M201.996,96.855c-12.195,0-22.115,9.924-22.115,22.117c0,12.19,9.92,22.112,22.115,22.112
		c12.19,0,22.11-9.922,22.11-22.112C224.109,106.779,214.189,96.855,201.996,96.855z M201.996,136.89
		c-9.886,0-17.922-8.034-17.922-17.917c0-9.883,8.036-17.924,17.922-17.924c9.883,0,17.922,8.041,17.922,17.924
		C219.918,128.856,211.879,136.89,201.996,136.89z"/>
	<path fill="#848484" d="M211.168,116.728h-6.926v-6.917c0-0.621-0.507-1.121-1.122-1.121h-2.344c-0.616,0-1.124,0.5-1.124,1.121
		v6.917h-6.826c-0.624,0-1.126,0.503-1.126,1.124v2.334c0,0.62,0.502,1.119,1.126,1.119h6.826v6.828
		c0,0.618,0.507,1.118,1.124,1.118h2.344c0.615,0,1.122-0.5,1.122-1.118v-6.828h6.926c0.621,0,1.123-0.499,1.123-1.119v-2.334
		C212.291,117.23,211.789,116.728,211.168,116.728z"/>
</g>
</svg>
