<?xml version="1.0" encoding="utf-8"?>
<!-- Generator: Adobe Illustrator 16.0.0, SVG Export Plug-In . SVG Version: 6.00 Build 0)  -->
<!DOCTYPE svg PUBLIC "-//W3C//DTD SVG 1.1//EN" "http://www.w3.org/Graphics/SVG/1.1/DTD/svg11.dtd">
<svg version="1.1" xmlns="http://www.w3.org/2000/svg" xmlns:xlink="http://www.w3.org/1999/xlink" x="0px" y="0px" width="540px"
	 height="665px" viewBox="0 0 540 665" enable-background="new 0 0 540 665" xml:space="preserve">
<g id="首頁BK" display="none">
</g>
<g id="首頁UI__x26__logo" display="none">
</g>
<g id="首頁UI__x26__logo_blgo" display="none">
</g>
<g id="內頁_x5F_左" display="none">
</g>
<g id="內頁" display="none">
</g>
<g id="Easy_我的作品" display="none">
</g>
<g id="EASY_雲端作品庫" display="none">
</g>
<g id="福利中心頁_x5F_bk" display="none">
</g>
<g id="兌換商品" display="none">
</g>
<g id="版型下載" display="none">
</g>
<g id="Top_banner_1_" display="none">
</g>
<g id="商品說明" display="none">
</g>
<g id="填寫兌換頁" display="none">
</g>
<g id="會員資料" display="none">
</g>
<g id="集到先師" display="none">
</g>
<g id="Play" display="none">
	<g id="答錯_1_">
	</g>
</g>
<g id="製作頁">
	<g id="步驟1">
	</g>
	<g id="步驟3_xFF0D_1">
		<g>
			<g>
				<g>
					<g>
						<path fill="#58595B" d="M251.552,5.125h-98.105c-4.95,0-8.963,4.014-8.963,8.964v66.824c0,4.95,4.013,8.963,8.963,8.963
							h72.806l34.264-33.378V14.088C260.516,9.138,256.502,5.125,251.552,5.125z"/>
						<g>
							<path fill="#FFFFFF" d="M203.318,68.412h-5.075V36.069c-1.223,1.166-2.825,2.331-4.808,3.497
								c-1.983,1.165-3.765,2.04-5.344,2.622v-4.906c2.838-1.335,5.319-2.951,7.444-4.851c2.124-1.898,3.628-3.74,4.512-5.526h3.271
								V68.412z"/>
						</g>
					</g>
					<polyline fill="#FFFFFF" points="249.793,54.126 223.977,54.126 223.977,78.216 249.916,54.011 249.793,54.126 					"/>
				</g>
				<rect x="135" opacity="0.5" fill="none" width="135" height="95"/>
			</g>
			<g>
				<g>
					<path fill="#58595B" d="M381.485,28.87v-3.629c0-4.224-3.456-7.68-7.68-7.68h-2.217c-4.225,0-7.68,3.456-7.68,7.68v3.629
						c-1.645,0.03-2.97,1.367-2.97,3.02v13.09c0,1.671,1.354,3.024,3.024,3.024h17.467c1.67,0,3.023-1.354,3.023-3.024v-13.09
						C384.454,30.237,383.129,28.9,381.485,28.87z M373.782,38.911v5.28h-2.17v-5.28c-1.199-0.442-2.057-1.586-2.057-2.938
						c0-1.735,1.405-3.143,3.142-3.143c1.735,0,3.142,1.407,3.142,3.143C375.839,37.325,374.98,38.468,373.782,38.911z
						 M378.013,28.865h-10.632v-3.624c0-2.32,1.888-4.208,4.208-4.208h2.217c2.32,0,4.207,1.888,4.207,4.208V28.865z"/>
					<g>
						<g>
							<path fill="#58595B" d="M386.552,5.125h-98.105c-4.95,0-8.963,4.014-8.963,8.964v66.824c0,4.95,4.013,8.963,8.963,8.963
								h72.806l34.264-33.378V14.088C395.516,9.138,391.502,5.125,386.552,5.125z M288.446,84.101c-1.759,0-3.188-1.431-3.188-3.188
								V14.088c0-1.759,1.43-3.188,3.188-3.188h98.105c1.758,0,3.188,1.43,3.188,3.188v39.899l-0.176,0.165l-9.879-0.026
								l-20.709,13.078l0.051,16.849l-0.051,0.048H288.446z"/>
							<g>
								<path fill="#58595B" d="M338.318,68.412h-5.075V36.069c-1.223,1.166-2.825,2.331-4.808,3.497
									c-1.984,1.165-3.765,2.04-5.344,2.622v-4.906c2.838-1.335,5.319-2.951,7.444-4.851c2.124-1.898,3.628-3.74,4.512-5.526
									h3.271V68.412z"/>
							</g>
						</g>
						<polyline fill="#58595B" points="384.793,54.126 358.977,54.126 358.977,78.216 384.916,54.011 384.793,54.126 						"/>
					</g>
				</g>
				<rect x="270" opacity="0.5" fill="none" width="135" height="95"/>
			</g>
			<g>
				<g>
					<g>
						<rect x="448.742" y="43.326" fill="#58595B" width="41.514" height="8.348"/>
						<rect x="465.326" y="26.743" fill="#58595B" width="8.348" height="41.514"/>
					</g>
					<g>
						<path opacity="0.2" fill="#58595B" d="M521.553,5.125h-98.105c-4.951,0-8.963,4.014-8.963,8.964v66.824
							c0,4.95,4.012,8.963,8.963,8.963h72.805l34.264-33.378V14.088C530.516,9.138,526.502,5.125,521.553,5.125z M524.74,53.988
							l-0.176,0.165l-4.787-0.013l0.016-0.014h-25.816v24.09l0.033-0.031l0.018,5.868l-0.051,0.048h-70.529
							c-1.76,0-3.189-1.431-3.189-3.188V14.088c0-1.759,1.43-3.188,3.189-3.188h98.105c1.758,0,3.188,1.43,3.188,3.188V53.988z"/>
						<path opacity="0.2" fill="#58595B" d="M465.537,32.431c-2.125,1.899-4.607,3.516-7.445,4.851v4.906
							c1.58-0.582,3.361-1.457,5.344-2.622c1.982-1.166,3.586-2.331,4.809-3.497v32.343h5.074V26.905h-3.27
							C469.164,28.691,467.66,30.533,465.537,32.431z"/>
						<polygon opacity="0.2" fill="#58595B" points="519.916,54.011 519.793,54.126 519.793,54.126 						"/>
					</g>
				</g>
				<rect x="405" opacity="0.5" fill="none" width="135" height="95"/>
			</g>
			<g>
				<g>
					<g>
						<path fill="#58595B" d="M116.553,5.125H18.447c-4.951,0-8.963,4.014-8.963,8.964v66.824c0,4.95,4.012,8.963,8.963,8.963
							h72.805l34.264-33.378V14.088C125.516,9.138,121.502,5.125,116.553,5.125z M18.447,84.101c-1.76,0-3.189-1.431-3.189-3.188
							V14.088c0-1.759,1.43-3.188,3.189-3.188h98.105c1.758,0,3.188,1.43,3.188,3.188v39.899l-0.176,0.165l-9.879-0.026
							L88.977,67.205l0.051,16.849l-0.051,0.048H18.447z"/>
						<g>
							<path fill="#58595B" d="M68.318,68.412h-5.074V36.069c-1.223,1.166-2.826,2.331-4.809,3.497
								c-1.982,1.165-3.764,2.04-5.344,2.622v-4.906c2.838-1.335,5.32-2.951,7.445-4.851c2.123-1.898,3.627-3.74,4.512-5.526h3.27
								V68.412z"/>
						</g>
					</g>
					<polyline fill="#58595B" points="114.793,54.126 88.977,54.126 88.977,78.216 114.916,54.011 114.793,54.126 					"/>
				</g>
				<rect opacity="0.5" fill="none" width="135" height="95"/>
			</g>
			<g>
				<g>
					<g>
						<path fill="#58595B" d="M251.552,100.125h-98.105c-4.95,0-8.963,4.013-8.963,8.963v66.824c0,4.95,4.013,8.964,8.963,8.964
							h72.806l34.264-33.379v-42.409C260.516,104.137,256.502,100.125,251.552,100.125z"/>
						<g>
							<path fill="#FFFFFF" d="M210.876,158.533v4.879h-27.324c-0.038-1.222,0.16-2.397,0.593-3.525
								c0.695-1.86,1.809-3.693,3.341-5.498s3.746-3.892,6.641-6.26c4.493-3.685,7.529-6.603,9.108-8.756
								c1.579-2.152,2.368-4.188,2.368-6.104c0-2.012-0.719-3.708-2.157-5.09c-1.438-1.382-3.313-2.072-5.625-2.072
								c-2.444,0-4.399,0.733-5.865,2.199c-1.467,1.467-2.209,3.496-2.228,6.091l-5.217-0.536c0.356-3.891,1.701-6.856,4.032-8.896
								c2.331-2.039,5.461-3.059,9.39-3.059c3.967,0,7.106,1.1,9.418,3.299c2.313,2.199,3.469,4.925,3.469,8.177
								c0,1.655-0.339,3.281-1.016,4.879s-1.8,3.28-3.369,5.047c-1.57,1.768-4.179,4.192-7.825,7.275
								c-3.045,2.557-5.001,4.291-5.865,5.202c-0.864,0.912-1.579,1.829-2.143,2.749H210.876z"/>
						</g>
					</g>
					<polyline fill="#FFFFFF" points="249.793,149.125 223.977,149.125 223.977,173.215 249.916,149.01 249.793,149.125 					"/>
				</g>
				<rect x="135" y="95" opacity="0.5" fill="none" width="135" height="95"/>
			</g>
			<g>
				<g>
					<path fill="#58595B" d="M381.485,123.87v-3.63c0-4.224-3.456-7.679-7.68-7.679h-2.217c-4.225,0-7.68,3.455-7.68,7.679v3.63
						c-1.645,0.03-2.97,1.367-2.97,3.019v13.091c0,1.67,1.354,3.024,3.024,3.024h17.467c1.67,0,3.023-1.354,3.023-3.024v-13.091
						C384.454,125.237,383.129,123.9,381.485,123.87z M373.782,133.911v5.28h-2.17v-5.28c-1.199-0.443-2.057-1.586-2.057-2.938
						c0-1.735,1.405-3.142,3.142-3.142c1.735,0,3.142,1.406,3.142,3.142C375.839,132.325,374.98,133.467,373.782,133.911z
						 M378.013,123.864h-10.632v-3.624c0-2.319,1.888-4.207,4.208-4.207h2.217c2.32,0,4.207,1.888,4.207,4.207V123.864z"/>
					<g>
						<g>
							<path fill="#58595B" d="M386.552,100.125h-98.105c-4.95,0-8.963,4.013-8.963,8.963v66.824c0,4.95,4.013,8.964,8.963,8.964
								h72.806l34.264-33.379v-42.409C395.516,104.137,391.502,100.125,386.552,100.125z M288.446,179.1
								c-1.759,0-3.188-1.43-3.188-3.188v-66.824c0-1.758,1.43-3.188,3.188-3.188h98.105c1.758,0,3.188,1.431,3.188,3.188v39.899
								l-0.176,0.165l-9.879-0.026l-20.709,13.079l0.051,16.849l-0.051,0.047H288.446z"/>
							<g>
								<path fill="#58595B" d="M345.876,158.533v4.879h-27.324c-0.038-1.222,0.16-2.397,0.593-3.525
									c0.695-1.86,1.809-3.693,3.341-5.498s3.745-3.892,6.641-6.26c4.493-3.685,7.529-6.603,9.108-8.756
									c1.579-2.152,2.368-4.188,2.368-6.104c0-2.012-0.719-3.708-2.157-5.09c-1.438-1.382-3.313-2.072-5.625-2.072
									c-2.444,0-4.399,0.733-5.865,2.199c-1.467,1.467-2.209,3.496-2.228,6.091l-5.217-0.536c0.356-3.891,1.701-6.856,4.032-8.896
									c2.331-2.039,5.461-3.059,9.39-3.059c3.966,0,7.106,1.1,9.417,3.299c2.313,2.199,3.47,4.925,3.47,8.177
									c0,1.655-0.339,3.281-1.016,4.879s-1.8,3.28-3.37,5.047c-1.569,1.768-4.178,4.192-7.824,7.275
									c-3.045,2.557-5.001,4.291-5.865,5.202c-0.864,0.912-1.579,1.829-2.143,2.749H345.876z"/>
							</g>
						</g>
						<polyline fill="#58595B" points="384.793,149.125 358.977,149.125 358.977,173.215 384.916,149.01 384.793,149.125 						"/>
					</g>
				</g>
				<rect x="270" y="95" opacity="0.5" fill="none" width="135" height="95"/>
			</g>
			<g>
				<g>
					<g>
						<rect x="448.742" y="138.326" fill="#58595B" width="41.516" height="8.348"/>
						<rect x="465.326" y="121.743" fill="#58595B" width="8.348" height="41.515"/>
					</g>
					<g>
						<path opacity="0.2" fill="#58595B" d="M521.553,100.125h-98.105c-4.951,0-8.963,4.013-8.963,8.963v66.824
							c0,4.95,4.012,8.964,8.963,8.964h72.805l34.264-33.379v-42.409C530.516,104.137,526.502,100.125,521.553,100.125z
							 M524.74,148.987l-0.176,0.165l-4.787-0.013l0.016-0.014h-25.816v24.09l0.033-0.031l0.018,5.869l-0.051,0.047h-70.529
							c-1.76,0-3.189-1.43-3.189-3.188v-66.824c0-1.758,1.43-3.188,3.189-3.188h98.105c1.758,0,3.188,1.431,3.188,3.188V148.987z"/>
						<path opacity="0.2" fill="#58595B" d="M462.744,155.784c0.865-0.911,2.82-2.646,5.865-5.202
							c3.646-3.083,6.256-5.508,7.826-7.275c1.568-1.767,2.691-3.449,3.369-5.047c0.676-1.598,1.016-3.224,1.016-4.879
							c0-3.252-1.156-5.978-3.469-8.177s-5.451-3.299-9.418-3.299c-3.93,0-7.059,1.02-9.391,3.059
							c-2.33,2.04-3.676,5.006-4.031,8.896l5.217,0.536c0.018-2.595,0.76-4.624,2.227-6.091c1.467-1.466,3.422-2.199,5.865-2.199
							c2.313,0,4.188,0.69,5.625,2.072c1.439,1.382,2.158,3.078,2.158,5.09c0,1.917-0.789,3.952-2.369,6.104
							c-1.578,2.153-4.615,5.071-9.107,8.756c-2.895,2.368-5.109,4.455-6.641,6.26c-1.533,1.805-2.646,3.638-3.342,5.498
							c-0.432,1.128-0.631,2.304-0.592,3.525h27.324v-4.879h-20.275C461.166,157.613,461.881,156.696,462.744,155.784z"/>
						<polygon opacity="0.2" fill="#58595B" points="519.916,149.01 519.793,149.125 519.793,149.125 						"/>
					</g>
				</g>
				<rect x="405" y="95" opacity="0.5" fill="none" width="135" height="95"/>
			</g>
			<g>
				<g>
					<g>
						<path fill="#58595B" d="M116.553,100.125H18.447c-4.951,0-8.963,4.013-8.963,8.963v66.824c0,4.95,4.012,8.964,8.963,8.964
							h72.805l34.264-33.379v-42.409C125.516,104.137,121.502,100.125,116.553,100.125z M18.447,179.1
							c-1.76,0-3.189-1.43-3.189-3.188v-66.824c0-1.758,1.43-3.188,3.189-3.188h98.105c1.758,0,3.188,1.431,3.188,3.188v39.899
							l-0.176,0.165l-9.879-0.026l-20.709,13.079l0.051,16.849l-0.051,0.047H18.447z"/>
						<g>
							<path fill="#58595B" d="M75.877,158.533v4.879H48.553c-0.039-1.222,0.16-2.397,0.592-3.525
								c0.695-1.86,1.809-3.693,3.342-5.498c1.531-1.805,3.746-3.892,6.641-6.26c4.492-3.685,7.529-6.603,9.107-8.756
								c1.58-2.152,2.369-4.188,2.369-6.104c0-2.012-0.719-3.708-2.158-5.09c-1.438-1.382-3.313-2.072-5.625-2.072
								c-2.443,0-4.398,0.733-5.865,2.199c-1.467,1.467-2.209,3.496-2.227,6.091l-5.217-0.536c0.355-3.891,1.701-6.856,4.031-8.896
								c2.332-2.039,5.461-3.059,9.391-3.059c3.967,0,7.105,1.1,9.418,3.299s3.469,4.925,3.469,8.177
								c0,1.655-0.34,3.281-1.016,4.879c-0.678,1.598-1.801,3.28-3.369,5.047c-1.57,1.768-4.18,4.192-7.826,7.275
								c-3.045,2.557-5,4.291-5.865,5.202c-0.863,0.912-1.578,1.829-2.143,2.749H75.877z"/>
						</g>
					</g>
					<polyline fill="#58595B" points="114.793,149.125 88.977,149.125 88.977,173.215 114.916,149.01 114.793,149.125 					"/>
				</g>
				<rect y="95" opacity="0.5" fill="none" width="135" height="95"/>
			</g>
			<g>
				<g>
					<g>
						<path fill="#58595B" d="M251.552,195.125h-98.105c-4.95,0-8.963,4.013-8.963,8.963v66.824c0,4.95,4.013,8.964,8.963,8.964
							h72.806l34.264-33.379v-42.409C260.516,199.137,256.502,195.125,251.552,195.125z"/>
						<g>
							<path fill="#FFFFFF" d="M184.229,247.499l5.076-0.677c0.582,2.877,1.574,4.949,2.975,6.218c1.4,1.27,3.106,1.903,5.118,1.903
								c2.387,0,4.403-0.827,6.048-2.481c1.645-1.653,2.468-3.703,2.468-6.146c0-2.331-0.762-4.253-2.284-5.767
								s-3.459-2.271-5.809-2.271c-0.959,0-2.153,0.188-3.581,0.564l0.563-4.455c0.339,0.037,0.61,0.056,0.817,0.056
								c2.162,0,4.107-0.563,5.838-1.691c1.729-1.128,2.594-2.866,2.594-5.217c0-1.861-0.63-3.402-1.89-4.624
								s-2.886-1.833-4.878-1.833c-1.974,0-3.619,0.62-4.935,1.861c-1.316,1.24-2.162,3.102-2.538,5.583l-5.075-0.902
								c0.62-3.402,2.03-6.039,4.229-7.909c2.199-1.871,4.935-2.806,8.206-2.806c2.256,0,4.332,0.483,6.231,1.452
								c1.898,0.968,3.351,2.288,4.356,3.961c1.006,1.674,1.509,3.45,1.509,5.33c0,1.786-0.479,3.412-1.438,4.878
								s-2.378,2.632-4.258,3.496c2.443,0.564,4.343,1.734,5.696,3.511s2.03,4,2.03,6.669c0,3.609-1.316,6.669-3.948,9.179
								s-5.959,3.764-9.981,3.764c-3.629,0-6.641-1.08-9.038-3.242C185.935,253.741,184.567,250.939,184.229,247.499z"/>
						</g>
					</g>
					<polyline fill="#FFFFFF" points="249.793,244.125 223.977,244.125 223.977,268.215 249.916,244.01 249.793,244.125 					"/>
				</g>
				<rect x="135" y="190" opacity="0.5" fill="none" width="135" height="95"/>
			</g>
			<g>
				<g>
					<path fill="#58595B" d="M381.485,218.87v-3.63c0-4.224-3.456-7.679-7.68-7.679h-2.217c-4.225,0-7.68,3.455-7.68,7.679v3.63
						c-1.645,0.03-2.97,1.367-2.97,3.019v13.091c0,1.67,1.354,3.024,3.024,3.024h17.467c1.67,0,3.023-1.354,3.023-3.024v-13.091
						C384.454,220.237,383.129,218.9,381.485,218.87z M373.782,228.911v5.28h-2.17v-5.28c-1.199-0.443-2.057-1.586-2.057-2.938
						c0-1.735,1.405-3.142,3.142-3.142c1.735,0,3.142,1.406,3.142,3.142C375.839,227.325,374.98,228.467,373.782,228.911z
						 M378.013,218.864h-10.632v-3.624c0-2.319,1.888-4.207,4.208-4.207h2.217c2.32,0,4.207,1.888,4.207,4.207V218.864z"/>
					<g>
						<g>
							<path fill="#58595B" d="M386.552,195.125h-98.105c-4.95,0-8.963,4.013-8.963,8.963v66.824c0,4.95,4.013,8.964,8.963,8.964
								h72.806l34.264-33.379v-42.409C395.516,199.137,391.502,195.125,386.552,195.125z M288.446,274.1
								c-1.759,0-3.188-1.43-3.188-3.188v-66.824c0-1.758,1.43-3.188,3.188-3.188h98.105c1.758,0,3.188,1.431,3.188,3.188v39.899
								l-0.176,0.165l-9.879-0.026l-20.709,13.079l0.051,16.849l-0.051,0.047H288.446z"/>
							<g>
								<path fill="#58595B" d="M319.229,247.499l5.076-0.677c0.582,2.877,1.574,4.949,2.975,6.218
									c1.4,1.27,3.105,1.903,5.118,1.903c2.386,0,4.403-0.827,6.048-2.481c1.645-1.653,2.468-3.703,2.468-6.146
									c0-2.331-0.763-4.253-2.284-5.767c-1.522-1.514-3.459-2.271-5.809-2.271c-0.959,0-2.153,0.188-3.581,0.564l0.563-4.455
									c0.339,0.037,0.61,0.056,0.817,0.056c2.162,0,4.107-0.563,5.838-1.691c1.729-1.128,2.594-2.866,2.594-5.217
									c0-1.861-0.63-3.402-1.89-4.624s-2.886-1.833-4.879-1.833c-1.973,0-3.618,0.62-4.934,1.861
									c-1.316,1.24-2.162,3.102-2.538,5.583l-5.075-0.902c0.62-3.402,2.03-6.039,4.229-7.909c2.199-1.871,4.935-2.806,8.206-2.806
									c2.256,0,4.332,0.483,6.231,1.452c1.897,0.968,3.351,2.288,4.356,3.961c1.006,1.674,1.509,3.45,1.509,5.33
									c0,1.786-0.479,3.412-1.438,4.878s-2.379,2.632-4.258,3.496c2.443,0.564,4.343,1.734,5.696,3.511s2.03,4,2.03,6.669
									c0,3.609-1.316,6.669-3.949,9.179c-2.631,2.51-5.958,3.764-9.98,3.764c-3.629,0-6.641-1.08-9.038-3.242
									C320.935,253.741,319.567,250.939,319.229,247.499z"/>
							</g>
						</g>
						<polyline fill="#58595B" points="384.793,244.125 358.977,244.125 358.977,268.215 384.916,244.01 384.793,244.125 						"/>
					</g>
				</g>
				<rect x="270" y="190" opacity="0.5" fill="none" width="135" height="95"/>
			</g>
			<g>
				<g>
					<g>
						<rect x="448.742" y="233.326" fill="#58595B" width="41.516" height="8.348"/>
						<rect x="465.326" y="216.743" fill="#58595B" width="8.348" height="41.515"/>
					</g>
					<g>
						<path opacity="0.2" fill="#58595B" d="M521.553,195.125h-98.105c-4.951,0-8.963,4.013-8.963,8.963v66.824
							c0,4.95,4.012,8.964,8.963,8.964h72.805l34.264-33.379v-42.409C530.516,199.137,526.502,195.125,521.553,195.125z
							 M524.74,243.987l-0.176,0.165l-4.787-0.013l0.016-0.014h-25.816v24.09l0.033-0.031l0.018,5.869l-0.051,0.047h-70.529
							c-1.76,0-3.189-1.43-3.189-3.188v-66.824c0-1.758,1.43-3.188,3.189-3.188h98.105c1.758,0,3.188,1.431,3.188,3.188V243.987z"/>
						<path opacity="0.2" fill="#58595B" d="M473.572,236.022c1.881-0.864,3.299-2.03,4.258-3.496s1.439-3.092,1.439-4.878
							c0-1.88-0.504-3.656-1.51-5.33c-1.006-1.673-2.457-2.993-4.355-3.961c-1.9-0.969-3.977-1.452-6.232-1.452
							c-3.271,0-6.006,0.935-8.205,2.806c-2.199,1.87-3.609,4.507-4.23,7.909l5.076,0.902c0.375-2.481,1.221-4.343,2.537-5.583
							c1.316-1.241,2.961-1.861,4.936-1.861c1.992,0,3.617,0.611,4.877,1.833s1.891,2.763,1.891,4.624
							c0,2.351-0.865,4.089-2.594,5.217c-1.73,1.128-3.676,1.691-5.838,1.691c-0.207,0-0.479-0.019-0.818-0.056l-0.563,4.455
							c1.428-0.376,2.621-0.564,3.58-0.564c2.35,0,4.287,0.757,5.809,2.271c1.523,1.514,2.285,3.436,2.285,5.767
							c0,2.443-0.824,4.493-2.469,6.146c-1.645,1.654-3.66,2.481-6.047,2.481c-2.012,0-3.719-0.634-5.119-1.903
							c-1.4-1.269-2.393-3.341-2.975-6.218l-5.076,0.677c0.34,3.44,1.707,6.242,4.104,8.403c2.396,2.162,5.408,3.242,9.037,3.242
							c4.023,0,7.35-1.254,9.982-3.764c2.631-2.51,3.947-5.569,3.947-9.179c0-2.669-0.676-4.893-2.029-6.669
							S476.016,236.586,473.572,236.022z"/>
						<polygon opacity="0.2" fill="#58595B" points="519.916,244.01 519.793,244.125 519.793,244.125 						"/>
					</g>
				</g>
				<rect x="405" y="190" opacity="0.5" fill="none" width="135" height="95"/>
			</g>
			<g>
				<g>
					<g>
						<path fill="#58595B" d="M116.553,195.125H18.447c-4.951,0-8.963,4.013-8.963,8.963v66.824c0,4.95,4.012,8.964,8.963,8.964
							h72.805l34.264-33.379v-42.409C125.516,199.137,121.502,195.125,116.553,195.125z M18.447,274.1
							c-1.76,0-3.189-1.43-3.189-3.188v-66.824c0-1.758,1.43-3.188,3.189-3.188h98.105c1.758,0,3.188,1.431,3.188,3.188v39.899
							l-0.176,0.165l-9.879-0.026l-20.709,13.079l0.051,16.849l-0.051,0.047H18.447z"/>
						<g>
							<path fill="#58595B" d="M49.229,247.499l5.076-0.677c0.582,2.877,1.574,4.949,2.975,6.218c1.4,1.27,3.107,1.903,5.119,1.903
								c2.387,0,4.402-0.827,6.047-2.481c1.645-1.653,2.469-3.703,2.469-6.146c0-2.331-0.762-4.253-2.285-5.767
								c-1.521-1.514-3.459-2.271-5.809-2.271c-0.959,0-2.152,0.188-3.58,0.564l0.563-4.455c0.34,0.037,0.611,0.056,0.818,0.056
								c2.162,0,4.107-0.563,5.838-1.691c1.729-1.128,2.594-2.866,2.594-5.217c0-1.861-0.631-3.402-1.891-4.624
								s-2.885-1.833-4.877-1.833c-1.975,0-3.619,0.62-4.936,1.861c-1.316,1.24-2.162,3.102-2.537,5.583l-5.076-0.902
								c0.621-3.402,2.031-6.039,4.23-7.909c2.199-1.871,4.934-2.806,8.205-2.806c2.256,0,4.332,0.483,6.232,1.452
								c1.898,0.968,3.35,2.288,4.355,3.961c1.006,1.674,1.51,3.45,1.51,5.33c0,1.786-0.48,3.412-1.439,4.878
								s-2.377,2.632-4.258,3.496c2.443,0.564,4.344,1.734,5.697,3.511s2.029,4,2.029,6.669c0,3.609-1.316,6.669-3.947,9.179
								c-2.633,2.51-5.959,3.764-9.982,3.764c-3.629,0-6.641-1.08-9.037-3.242C50.936,253.741,49.568,250.939,49.229,247.499z"/>
						</g>
					</g>
					<polyline fill="#58595B" points="114.793,244.125 88.977,244.125 88.977,268.215 114.916,244.01 114.793,244.125 					"/>
				</g>
				<rect y="190" opacity="0.5" fill="none" width="135" height="95"/>
			</g>
			<g>
				<g>
					<g>
						<path fill="#58595B" d="M251.552,290.124h-98.105c-4.95,0-8.963,4.013-8.963,8.963v66.825c0,4.95,4.013,8.964,8.963,8.964
							h72.806l34.264-33.379v-42.41C260.516,294.137,256.502,290.124,251.552,290.124z"/>
						<g>
							<path fill="#FFFFFF" d="M200.471,353.411v-9.896h-17.934v-4.652l18.864-26.789h4.145v26.789h5.583v4.652h-5.583v9.896
								H200.471z M200.471,338.862v-18.64l-12.942,18.64H200.471z"/>
						</g>
					</g>
					<polyline fill="#FFFFFF" points="249.793,339.125 223.977,339.125 223.977,363.215 249.916,339.01 249.793,339.125 					"/>
				</g>
				<rect x="135" y="285" opacity="0.5" fill="none" width="135" height="94.999"/>
			</g>
			<g>
				<g>
					<path fill="#58595B" d="M381.485,313.869v-3.629c0-4.224-3.456-7.679-7.68-7.679h-2.217c-4.225,0-7.68,3.456-7.68,7.679v3.629
						c-1.645,0.03-2.97,1.367-2.97,3.019v13.091c0,1.671,1.354,3.024,3.024,3.024h17.467c1.67,0,3.023-1.354,3.023-3.024v-13.091
						C384.454,315.236,383.129,313.899,381.485,313.869z M373.782,323.91v5.281h-2.17v-5.281c-1.199-0.443-2.057-1.586-2.057-2.938
						c0-1.735,1.405-3.142,3.142-3.142c1.735,0,3.142,1.407,3.142,3.142C375.839,322.324,374.98,323.467,373.782,323.91z
						 M378.013,313.864h-10.632v-3.624c0-2.32,1.888-4.208,4.208-4.208h2.217c2.32,0,4.207,1.888,4.207,4.208V313.864z"/>
					<g>
						<g>
							<path fill="#58595B" d="M386.552,290.124h-98.105c-4.95,0-8.963,4.013-8.963,8.963v66.825c0,4.95,4.013,8.964,8.963,8.964
								h72.806l34.264-33.379v-42.41C395.516,294.137,391.502,290.124,386.552,290.124z M288.446,369.1
								c-1.759,0-3.188-1.43-3.188-3.188v-66.825c0-1.758,1.43-3.188,3.188-3.188h98.105c1.758,0,3.188,1.43,3.188,3.188v39.9
								l-0.176,0.165l-9.879-0.026l-20.709,13.078l0.051,16.85l-0.051,0.047H288.446z"/>
							<g>
								<path fill="#58595B" d="M335.471,353.411v-9.896h-17.934v-4.652l18.864-26.789h4.145v26.789h5.583v4.652h-5.583v9.896
									H335.471z M335.471,338.862v-18.64l-12.942,18.64H335.471z"/>
							</g>
						</g>
						<polyline fill="#58595B" points="384.793,339.125 358.977,339.125 358.977,363.215 384.916,339.01 384.793,339.125 						"/>
					</g>
				</g>
				<rect x="270" y="285" opacity="0.5" fill="none" width="135" height="94.999"/>
			</g>
			<g>
				<g>
					<g>
						<rect x="448.742" y="328.326" fill="#58595B" width="41.516" height="8.348"/>
						<rect x="465.326" y="311.742" fill="#58595B" width="8.348" height="41.515"/>
					</g>
					<g>
						<path opacity="0.2" fill="#58595B" d="M521.553,290.125h-98.105c-4.951,0-8.963,4.013-8.963,8.963v66.824
							c0,4.949,4.012,8.963,8.963,8.963h72.805l34.264-33.379v-42.408C530.516,294.138,526.502,290.125,521.553,290.125z
							 M524.74,338.986l-0.176,0.166l-4.787-0.014l0.016-0.014h-25.816v24.09l0.033-0.031l0.018,5.869l-0.051,0.047h-70.529
							c-1.76,0-3.189-1.43-3.189-3.188v-66.824c0-1.758,1.43-3.188,3.189-3.188h98.105c1.758,0,3.188,1.43,3.188,3.188V338.986z"/>
						<path opacity="0.2" fill="#58595B" d="M475.547,312.074h-4.145l-18.865,26.787v4.652h17.934v9.896h5.076v-9.896h5.582v-4.652
							h-5.582V312.074z M470.471,338.861h-12.941l12.941-18.638V338.861z"/>
						<polygon opacity="0.2" fill="#58595B" points="519.916,339.009 519.793,339.125 519.793,339.125 						"/>
					</g>
				</g>
				<rect x="405" y="285" opacity="0.5" fill="none" width="135" height="94.999"/>
			</g>
			<g>
				<g>
					<g>
						<path fill="#58595B" d="M116.553,290.125H18.447c-4.951,0-8.963,4.013-8.963,8.963v66.825c0,4.95,4.012,8.964,8.963,8.964
							h72.805l34.264-33.379v-42.41C125.516,294.138,121.502,290.125,116.553,290.125z M18.447,369.101
							c-1.76,0-3.189-1.43-3.189-3.188v-66.825c0-1.758,1.43-3.188,3.189-3.188h98.105c1.758,0,3.188,1.43,3.188,3.188v39.9
							l-0.176,0.165l-9.879-0.026l-20.709,13.078l0.051,16.85l-0.051,0.047H18.447z"/>
						<g>
							<path fill="#58595B" d="M65.471,353.412v-9.896H47.537v-4.652l18.865-26.789h4.145v26.789h5.582v4.652h-5.582v9.896H65.471z
								 M65.471,338.863v-18.64l-12.941,18.64H65.471z"/>
						</g>
					</g>
					<polyline fill="#58595B" points="114.793,339.126 88.977,339.126 88.977,363.216 114.916,339.011 114.793,339.126 					"/>
				</g>
				<rect y="285" opacity="0.5" fill="none" width="135" height="95"/>
			</g>
			<g>
				<g>
					<g>
						<path fill="#58595B" d="M251.552,385.125h-98.105c-4.95,0-8.963,4.012-8.963,8.963v66.824c0,4.949,4.013,8.963,8.963,8.963
							h72.806l34.264-33.379v-42.408C260.516,389.137,256.502,385.125,251.552,385.125z"/>
						<g>
							<path fill="#FFFFFF" d="M184.2,437.584l5.33-0.451c0.395,2.594,1.311,4.545,2.749,5.85c1.438,1.309,3.172,1.961,5.202,1.961
								c2.443,0,4.512-0.922,6.204-2.764c1.691-1.842,2.537-4.285,2.537-7.332c0-2.895-0.813-5.178-2.438-6.852
								c-1.627-1.672-3.756-2.51-6.387-2.51c-1.636,0-3.112,0.371-4.428,1.113c-1.315,0.744-2.35,1.707-3.102,2.891l-4.766-0.619
								l4.004-21.234h20.557v4.852h-16.496l-2.228,11.109c2.481-1.73,5.085-2.594,7.812-2.594c3.608,0,6.654,1.25,9.136,3.75
								s3.722,5.715,3.722,9.643c0,3.742-1.09,6.975-3.271,9.701c-2.65,3.346-6.27,5.02-10.856,5.02
								c-3.76,0-6.828-1.053-9.206-3.158C185.896,443.854,184.539,441.061,184.2,437.584z"/>
						</g>
					</g>
					<polyline fill="#FFFFFF" points="249.793,434.125 223.977,434.125 223.977,458.215 249.916,434.01 249.793,434.125 					"/>
				</g>
				<rect x="135" y="380" opacity="0.5" fill="none" width="135" height="95"/>
			</g>
			<g>
				<g>
					<path fill="#58595B" d="M381.485,408.869v-3.629c0-4.223-3.456-7.68-7.68-7.68h-2.217c-4.225,0-7.68,3.457-7.68,7.68v3.629
						c-1.645,0.031-2.97,1.367-2.97,3.02v13.09c0,1.672,1.354,3.025,3.024,3.025h17.467c1.67,0,3.023-1.354,3.023-3.025v-13.09
						C384.454,410.236,383.129,408.9,381.485,408.869z M373.782,418.91v5.281h-2.17v-5.281c-1.199-0.441-2.057-1.586-2.057-2.938
						c0-1.734,1.405-3.143,3.142-3.143c1.735,0,3.142,1.408,3.142,3.143C375.839,417.324,374.98,418.469,373.782,418.91z
						 M378.013,408.865h-10.632v-3.625c0-2.32,1.888-4.207,4.208-4.207h2.217c2.32,0,4.207,1.887,4.207,4.207V408.865z"/>
					<g>
						<g>
							<path fill="#58595B" d="M386.552,385.125h-98.105c-4.95,0-8.963,4.012-8.963,8.963v66.824c0,4.949,4.013,8.963,8.963,8.963
								h72.806l34.264-33.379v-42.408C395.516,389.137,391.502,385.125,386.552,385.125z M288.446,464.1
								c-1.759,0-3.188-1.43-3.188-3.188v-66.824c0-1.758,1.43-3.189,3.188-3.189h98.105c1.758,0,3.188,1.432,3.188,3.189v39.898
								l-0.176,0.166l-9.879-0.027l-20.709,13.08l0.051,16.848l-0.051,0.047H288.446z"/>
							<g>
								<path fill="#58595B" d="M319.2,437.584l5.33-0.451c0.395,2.594,1.311,4.545,2.749,5.85c1.438,1.309,3.172,1.961,5.202,1.961
									c2.443,0,4.512-0.922,6.204-2.764c1.691-1.842,2.537-4.285,2.537-7.332c0-2.895-0.813-5.178-2.439-6.852
									c-1.626-1.672-3.755-2.51-6.386-2.51c-1.636,0-3.112,0.371-4.428,1.113c-1.315,0.744-2.35,1.707-3.102,2.891l-4.766-0.619
									l4.004-21.234h20.557v4.852h-16.496l-2.228,11.109c2.481-1.73,5.085-2.594,7.812-2.594c3.608,0,6.654,1.25,9.136,3.75
									c2.48,2.5,3.722,5.715,3.722,9.643c0,3.742-1.091,6.975-3.271,9.701c-2.65,3.346-6.27,5.02-10.856,5.02
									c-3.76,0-6.828-1.053-9.206-3.158C320.896,443.854,319.539,441.061,319.2,437.584z"/>
							</g>
						</g>
						<polyline fill="#58595B" points="384.793,434.125 358.977,434.125 358.977,458.215 384.916,434.01 384.793,434.125 						"/>
					</g>
				</g>
				<rect x="270" y="380" opacity="0.5" fill="none" width="135" height="95"/>
			</g>
			<g>
				<g>
					<g>
						<rect x="448.742" y="423.324" fill="#58595B" width="41.516" height="8.348"/>
						<rect x="465.326" y="406.742" fill="#58595B" width="8.348" height="41.514"/>
					</g>
					<g>
						<path opacity="0.2" fill="#58595B" d="M521.553,385.125h-98.105c-4.951,0-8.963,4.012-8.963,8.963v66.824
							c0,4.949,4.012,8.963,8.963,8.963h72.805l34.264-33.379v-42.408C530.516,389.137,526.502,385.125,521.553,385.125z
							 M524.74,433.986l-0.176,0.166l-4.787-0.014l0.016-0.014h-25.816v24.09l0.033-0.031l0.018,5.869l-0.051,0.047h-70.529
							c-1.76,0-3.189-1.43-3.189-3.188v-66.824c0-1.758,1.43-3.189,3.189-3.189h98.105c1.758,0,3.188,1.432,3.188,3.189V433.986z"/>
						<path opacity="0.2" fill="#58595B" d="M468.752,421.004c-2.727,0-5.33,0.863-7.813,2.594l2.229-11.109h16.496v-4.852h-20.557
							l-4.004,21.234l4.766,0.619c0.752-1.184,1.785-2.146,3.102-2.891c1.314-0.742,2.791-1.113,4.428-1.113
							c2.631,0,4.76,0.838,6.387,2.51c1.625,1.674,2.438,3.957,2.438,6.852c0,3.047-0.846,5.49-2.537,7.332s-3.76,2.764-6.203,2.764
							c-2.031,0-3.766-0.652-5.203-1.961c-1.438-1.305-2.354-3.256-2.748-5.85l-5.33,0.451c0.338,3.477,1.695,6.27,4.074,8.375
							s5.447,3.158,9.207,3.158c4.586,0,8.205-1.674,10.855-5.02c2.182-2.727,3.271-5.959,3.271-9.701
							c0-3.928-1.24-7.143-3.723-9.643C475.406,422.254,472.359,421.004,468.752,421.004z"/>
						<polygon opacity="0.2" fill="#58595B" points="519.916,434.01 519.793,434.125 519.793,434.125 						"/>
					</g>
				</g>
				<rect x="405" y="380" opacity="0.5" fill="none" width="135" height="95"/>
			</g>
			<g>
				<g>
					<g>
						<path fill="#58595B" d="M116.553,385.125H18.447c-4.951,0-8.963,4.012-8.963,8.963v66.824c0,4.949,4.012,8.963,8.963,8.963
							h72.805l34.264-33.379v-42.408C125.516,389.137,121.502,385.125,116.553,385.125z M18.447,464.1
							c-1.76,0-3.189-1.43-3.189-3.188v-66.824c0-1.758,1.43-3.189,3.189-3.189h98.105c1.758,0,3.188,1.432,3.188,3.189v39.898
							l-0.176,0.166l-9.879-0.027l-20.709,13.08l0.051,16.848l-0.051,0.047H18.447z"/>
						<g>
							<path fill="#58595B" d="M49.201,437.584l5.33-0.451c0.395,2.594,1.311,4.545,2.748,5.85c1.438,1.309,3.172,1.961,5.203,1.961
								c2.443,0,4.512-0.922,6.203-2.764s2.537-4.285,2.537-7.332c0-2.895-0.813-5.178-2.438-6.852
								c-1.627-1.672-3.756-2.51-6.387-2.51c-1.637,0-3.113,0.371-4.428,1.113c-1.316,0.744-2.35,1.707-3.102,2.891l-4.766-0.619
								l4.004-21.234h20.557v4.852H58.168l-2.229,11.109c2.482-1.73,5.086-2.594,7.813-2.594c3.607,0,6.654,1.25,9.135,3.75
								c2.482,2.5,3.723,5.715,3.723,9.643c0,3.742-1.09,6.975-3.271,9.701c-2.65,3.346-6.27,5.02-10.855,5.02
								c-3.76,0-6.828-1.053-9.207-3.158S49.539,441.061,49.201,437.584z"/>
						</g>
					</g>
					<polyline fill="#58595B" points="114.793,434.125 88.977,434.125 88.977,458.215 114.916,434.01 114.793,434.125 					"/>
				</g>
				<rect y="380" opacity="0.5" fill="none" width="135" height="95"/>
			</g>
			<g>
				<g>
					<g>
						<path fill="#58595B" d="M251.552,480.125h-98.105c-4.95,0-8.963,4.013-8.963,8.964v66.824c0,4.949,4.013,8.963,8.963,8.963
							h72.806l34.264-33.379v-42.408C260.516,484.138,256.502,480.125,251.552,480.125z"/>
						<g>
							<path fill="#FFFFFF" d="M210.537,512.197l-5.047,0.395c-0.451-1.992-1.091-3.44-1.918-4.343
								c-1.372-1.447-3.064-2.171-5.075-2.171c-1.617,0-3.036,0.451-4.258,1.354c-1.599,1.166-2.858,2.867-3.779,5.104
								c-0.921,2.236-1.4,5.424-1.438,9.559c1.222-1.861,2.716-3.242,4.483-4.145c1.767-0.902,3.618-1.354,5.555-1.354
								c3.384,0,6.265,1.245,8.643,3.735c2.378,2.491,3.567,5.71,3.567,9.658c0,2.594-0.56,5.005-1.678,7.232
								c-1.119,2.228-2.655,3.934-4.61,5.118c-1.955,1.184-4.174,1.776-6.655,1.776c-4.229,0-7.679-1.556-10.348-4.667
								c-2.67-3.111-4.005-8.238-4.005-15.382c0-7.989,1.476-13.798,4.428-17.427c2.575-3.158,6.043-4.736,10.404-4.736
								c3.252,0,5.917,0.912,7.994,2.734C208.878,506.464,210.123,508.983,210.537,512.197z M189.812,530.019
								c0,1.748,0.371,3.422,1.114,5.02c0.742,1.598,1.78,2.814,3.116,3.65c1.334,0.838,2.734,1.256,4.201,1.256
								c2.143,0,3.985-0.865,5.526-2.595s2.313-4.079,2.313-7.05c0-2.857-0.762-5.107-2.284-6.753s-3.44-2.468-5.752-2.468
								c-2.294,0-4.239,0.822-5.837,2.468C190.61,525.192,189.812,527.349,189.812,530.019z"/>
						</g>
					</g>
					<polyline fill="#FFFFFF" points="249.793,529.126 223.977,529.126 223.977,553.216 249.916,529.011 249.793,529.126 					"/>
				</g>
				<rect x="135" y="475" opacity="0.5" fill="none" width="135" height="95"/>
			</g>
			<g>
				<g>
					<path fill="#58595B" d="M381.485,503.869v-3.629c0-4.224-3.456-7.68-7.68-7.68h-2.217c-4.225,0-7.68,3.456-7.68,7.68v3.629
						c-1.645,0.031-2.97,1.367-2.97,3.02v13.09c0,1.671,1.354,3.025,3.024,3.025h17.467c1.67,0,3.023-1.354,3.023-3.025v-13.09
						C384.454,505.236,383.129,503.9,381.485,503.869z M373.782,513.91v5.281h-2.17v-5.281c-1.199-0.442-2.057-1.586-2.057-2.938
						c0-1.735,1.405-3.143,3.142-3.143c1.735,0,3.142,1.407,3.142,3.143C375.839,512.324,374.98,513.468,373.782,513.91z
						 M378.013,503.864h-10.632v-3.624c0-2.32,1.888-4.207,4.208-4.207h2.217c2.32,0,4.207,1.887,4.207,4.207V503.864z"/>
					<g>
						<g>
							<path fill="#58595B" d="M386.552,480.125h-98.105c-4.95,0-8.963,4.013-8.963,8.964v66.824c0,4.949,4.013,8.963,8.963,8.963
								h72.806l34.264-33.379v-42.408C395.516,484.138,391.502,480.125,386.552,480.125z M288.446,559.101
								c-1.759,0-3.188-1.43-3.188-3.188v-66.824c0-1.759,1.43-3.189,3.188-3.189h98.105c1.758,0,3.188,1.431,3.188,3.189v39.898
								l-0.176,0.166l-9.879-0.027l-20.709,13.079l0.051,16.849l-0.051,0.047H288.446z"/>
							<g>
								<path fill="#58595B" d="M345.537,512.197l-5.047,0.395c-0.451-1.992-1.092-3.44-1.918-4.343
									c-1.373-1.447-3.064-2.171-5.075-2.171c-1.617,0-3.036,0.451-4.258,1.354c-1.599,1.166-2.858,2.867-3.779,5.104
									c-0.921,2.236-1.4,5.424-1.438,9.559c1.222-1.861,2.716-3.242,4.483-4.145c1.767-0.902,3.618-1.354,5.555-1.354
									c3.384,0,6.265,1.245,8.643,3.735c2.378,2.491,3.567,5.71,3.567,9.658c0,2.594-0.56,5.005-1.678,7.232
									c-1.119,2.228-2.655,3.934-4.61,5.118c-1.955,1.184-4.174,1.776-6.655,1.776c-4.229,0-7.679-1.556-10.348-4.667
									c-2.67-3.111-4.005-8.238-4.005-15.382c0-7.989,1.476-13.798,4.428-17.427c2.575-3.158,6.043-4.736,10.404-4.736
									c3.252,0,5.917,0.912,7.994,2.734C343.878,506.464,345.123,508.983,345.537,512.197z M324.812,530.019
									c0,1.748,0.371,3.422,1.114,5.02c0.742,1.598,1.78,2.814,3.116,3.65c1.334,0.838,2.734,1.256,4.201,1.256
									c2.142,0,3.985-0.865,5.526-2.595s2.313-4.079,2.313-7.05c0-2.857-0.762-5.107-2.284-6.753s-3.44-2.468-5.752-2.468
									c-2.294,0-4.239,0.822-5.837,2.468C325.61,525.192,324.812,527.349,324.812,530.019z"/>
							</g>
						</g>
						<polyline fill="#58595B" points="384.793,529.126 358.977,529.126 358.977,553.216 384.916,529.011 384.793,529.126 						"/>
					</g>
				</g>
				<rect x="270" y="475" opacity="0.5" fill="none" width="135" height="95"/>
			</g>
			<g>
				<g>
					<g>
						<rect x="448.742" y="518.326" fill="#58595B" width="41.516" height="8.348"/>
						<rect x="465.326" y="501.743" fill="#58595B" width="8.348" height="41.515"/>
					</g>
					<g>
						<path opacity="0.2" fill="#58595B" d="M521.553,480.125h-98.105c-4.951,0-8.963,4.013-8.963,8.964v66.824
							c0,4.949,4.012,8.963,8.963,8.963h72.805l34.264-33.379v-42.408C530.516,484.138,526.502,480.125,521.553,480.125z
							 M524.74,528.987l-0.176,0.166l-4.787-0.014l0.016-0.014h-25.816v24.09l0.033-0.031l0.018,5.869l-0.051,0.047h-70.529
							c-1.76,0-3.189-1.43-3.189-3.188v-66.824c0-1.759,1.43-3.189,3.189-3.189h98.105c1.758,0,3.188,1.431,3.188,3.189V528.987z"/>
						<path opacity="0.2" fill="#58595B" d="M469.061,516.597c-1.936,0-3.787,0.451-5.555,1.354s-3.262,2.283-4.482,4.145
							c0.037-4.135,0.516-7.322,1.438-9.559c0.92-2.237,2.18-3.938,3.779-5.104c1.221-0.902,2.641-1.354,4.258-1.354
							c2.01,0,3.703,0.724,5.074,2.171c0.828,0.902,1.467,2.351,1.918,4.343l5.047-0.395c-0.414-3.214-1.658-5.733-3.736-7.558
							c-2.076-1.822-4.742-2.734-7.994-2.734c-4.361,0-7.828,1.578-10.404,4.736c-2.951,3.629-4.428,9.438-4.428,17.427
							c0,7.144,1.336,12.271,4.006,15.382c2.668,3.111,6.117,4.667,10.348,4.667c2.48,0,4.699-0.593,6.654-1.776
							c1.955-1.185,3.492-2.891,4.611-5.118c1.117-2.228,1.678-4.639,1.678-7.232c0-3.948-1.189-7.167-3.568-9.658
							C475.326,517.842,472.445,516.597,469.061,516.597z M473.77,537.35c-1.541,1.729-3.383,2.595-5.525,2.595
							c-1.467,0-2.867-0.418-4.201-1.256c-1.336-0.836-2.375-2.053-3.117-3.65s-1.113-3.271-1.113-5.02
							c0-2.67,0.799-4.826,2.396-6.472s3.543-2.468,5.838-2.468c2.311,0,4.229,0.822,5.752,2.468
							c1.521,1.646,2.283,3.896,2.283,6.753C476.082,533.271,475.311,535.62,473.77,537.35z"/>
						<polygon opacity="0.2" fill="#58595B" points="519.916,529.011 519.793,529.126 519.793,529.126 						"/>
					</g>
				</g>
				<rect x="405" y="475" opacity="0.5" fill="none" width="135" height="95"/>
			</g>
			<g>
				<g>
					<g>
						<path fill="#58595B" d="M116.553,480.125H18.447c-4.951,0-8.963,4.013-8.963,8.964v66.824c0,4.949,4.012,8.963,8.963,8.963
							h72.805l34.264-33.379v-42.408C125.516,484.138,121.502,480.125,116.553,480.125z M18.447,559.101
							c-1.76,0-3.189-1.43-3.189-3.188v-66.824c0-1.759,1.43-3.189,3.189-3.189h98.105c1.758,0,3.188,1.431,3.188,3.189v39.898
							l-0.176,0.166l-9.879-0.027l-20.709,13.079l0.051,16.849l-0.051,0.047H18.447z"/>
						<g>
							<path fill="#58595B" d="M75.537,512.197l-5.047,0.395c-0.451-1.992-1.09-3.44-1.918-4.343
								c-1.371-1.447-3.064-2.171-5.074-2.171c-1.617,0-3.037,0.451-4.258,1.354c-1.6,1.166-2.859,2.867-3.779,5.104
								c-0.922,2.236-1.4,5.424-1.438,9.559c1.221-1.861,2.715-3.242,4.482-4.145s3.619-1.354,5.555-1.354
								c3.385,0,6.266,1.245,8.643,3.735c2.379,2.491,3.568,5.71,3.568,9.658c0,2.594-0.561,5.005-1.678,7.232
								c-1.119,2.228-2.656,3.934-4.611,5.118c-1.955,1.184-4.174,1.776-6.654,1.776c-4.23,0-7.68-1.556-10.348-4.667
								c-2.67-3.111-4.006-8.238-4.006-15.382c0-7.989,1.477-13.798,4.428-17.427c2.576-3.158,6.043-4.736,10.404-4.736
								c3.252,0,5.918,0.912,7.994,2.734C73.879,506.464,75.123,508.983,75.537,512.197z M54.813,530.019
								c0,1.748,0.371,3.422,1.113,5.02s1.781,2.814,3.117,3.65c1.334,0.838,2.734,1.256,4.201,1.256
								c2.143,0,3.984-0.865,5.525-2.595s2.313-4.079,2.313-7.05c0-2.857-0.762-5.107-2.283-6.753
								c-1.523-1.646-3.441-2.468-5.752-2.468c-2.295,0-4.24,0.822-5.838,2.468S54.813,527.349,54.813,530.019z"/>
						</g>
					</g>
					<polyline fill="#58595B" points="114.793,529.126 88.977,529.126 88.977,553.216 114.916,529.011 114.793,529.126 					"/>
				</g>
				<rect y="475" opacity="0.5" fill="none" width="135" height="95"/>
			</g>
			<g>
				<rect y="570" opacity="0.5" fill="none" width="135" height="95"/>
				<path fill="#58595B" d="M116.553,575.125H18.447c-4.951,0-8.963,4.013-8.963,8.964v66.824c0,4.949,4.012,8.963,8.963,8.963
					h72.805l34.264-33.379v-42.408C125.516,579.138,121.502,575.125,116.553,575.125z M18.447,654.101
					c-1.76,0-3.189-1.43-3.189-3.188v-66.824c0-1.759,1.43-3.189,3.189-3.189h98.105c1.758,0,3.188,1.431,3.188,3.189v39.898
					l-0.176,0.166l-9.879-0.027l-20.709,13.079l0.051,16.849l-0.051,0.047H18.447z"/>
				<polyline fill="#58595B" points="114.793,624.126 88.977,624.126 88.977,648.216 114.916,624.011 114.793,624.126 				"/>
				<g>
					<g>
						<path fill="#58595B" d="M26.507,601.354h8.288c-0.127,3.605-0.316,6.294-0.602,8.065c-0.316,1.74-0.854,2.942-1.613,3.606
							c-0.728,0.633-2.119,1.075-4.207,1.328l-1.613-2.847l2.563-0.411c1.107-0.189,1.803-0.854,2.056-2.024
							c0.222-1.044,0.349-2.752,0.412-5.124h-5.283v1.866c0,2.499-0.284,4.713-0.854,6.674c-0.38,1.487-1.171,3.321-2.341,5.567
							l-2.721-1.36c1.139-1.834,1.898-3.479,2.31-4.902c0.569-2.024,0.886-4.018,0.886-5.979v-11.862h13
							c-0.031-1.392-0.031-2.878-0.031-4.46l2.91,0.316c0.442,0.095,0.695,0.253,0.695,0.443c0,0.221-0.253,0.601-0.759,1.106v2.594
							h6.042c-1.234-1.17-2.436-2.119-3.575-2.847l1.74-1.613c1.36,0.822,2.688,1.835,3.954,2.974l-1.582,1.486h2.688v2.594h-9.204
							c0.126,3.828,0.379,6.77,0.791,8.825c0.189,0.886,0.379,1.708,0.632,2.468c0.032-0.063,0.063-0.158,0.127-0.222
							c1.107-1.897,2.15-4.271,3.1-7.117l2.847,1.266c0.222,0.126,0.349,0.348,0.349,0.601c0,0.19-0.285,0.411-0.854,0.602
							c-1.486,3.542-2.847,6.168-4.049,7.907c-0.095,0.127-0.189,0.222-0.253,0.316c0.253,0.538,0.506,1.013,0.791,1.424
							c0.886,1.486,1.645,2.214,2.277,2.214c0.189,0,0.411-0.189,0.695-0.569c0.254-0.348,0.76-1.803,1.519-4.365l2.341,1.961
							c-0.633,2.088-1.233,3.543-1.771,4.492c-0.791,1.202-1.645,1.835-2.53,1.835s-1.771-0.475-2.688-1.36
							c-0.918-0.854-1.771-1.961-2.594-3.416c-0.443,0.442-0.918,0.854-1.36,1.233c-1.17,0.98-2.53,1.961-4.112,2.91l-2.246-2.215
							c1.804-0.917,3.259-1.866,4.365-2.847c0.728-0.537,1.393-1.17,2.024-1.866c-0.79-2.024-1.359-4.302-1.708-6.896
							c-0.253-1.835-0.411-4.238-0.506-7.181H26.507V601.354z"/>
						<path fill="#58595B" d="M65.199,593.225v2.721h-4.966v11.83c1.803-0.38,3.574-0.822,5.314-1.328v2.594
							c-2.404,0.822-6.168,1.866-11.356,3.194c-0.253,0.443-0.506,0.633-0.728,0.633c-0.253,0-0.379-0.158-0.411-0.538l-0.728-3.194
							c1.677-0.189,3.321-0.475,4.967-0.791v-12.399h-4.713v-2.721H65.199z M69.881,596.293c0-0.063,0-0.095,0-0.126v-4.302
							c0-0.569-0.095-1.297-0.253-2.12l2.847,0.254c0.506,0,0.76,0.126,0.76,0.379c0,0.316-0.222,0.602-0.633,0.854v4.935
							c0,0.063,0,0.126,0,0.126h7.781c0,8.414-0.285,13.696-0.791,15.879c-0.316,2.151-1.012,3.574-2.088,4.365
							c-1.139,0.822-3.036,1.266-5.757,1.266l-1.486-2.974c2.974,0,4.713-0.222,5.282-0.728c0.506-0.38,0.949-1.297,1.266-2.752
							c0.411-1.519,0.664-5.63,0.728-12.336h-4.998c-0.158,2.91-0.538,5.44-1.107,7.592c-0.601,2.341-1.708,4.618-3.321,6.801
							c-1.202,1.645-2.562,3.131-4.144,4.522l-2.372-2.119c1.645-1.328,2.91-2.562,3.859-3.764c1.454-1.835,2.467-3.67,3.067-5.536
							c0.696-2.15,1.107-4.649,1.266-7.496h-4.46v-2.721H69.881z"/>
						<path fill="#58595B" d="M112.021,590.727v2.498h-11.799l-0.759,2.468h9.489v17.303h-3.005c1.771,1.454,4.018,2.688,6.706,3.7
							l-2.594,1.835c-2.657-1.329-4.967-2.941-6.928-4.809l1.107-0.727H92.473l0.949,0.632c0.19,0.19,0.316,0.349,0.316,0.475
							c0,0.127-0.189,0.222-0.506,0.253c-1.487,1.234-3.669,2.594-6.548,4.049l-2.467-1.834c2.277-0.918,4.428-2.088,6.452-3.574
							h-3.353v-17.303h8.983l0.759-2.468H84.85v-2.498H112.021z M106.106,600.753v-2.594H90.164v2.594H106.106z M106.106,605.688
							v-2.594H90.164v2.594H106.106z M106.106,608.028H90.164v2.468h15.942V608.028z"/>
					</g>
				</g>
			</g>
			<g>
				<rect x="135" y="570" opacity="0.5" fill="none" width="135" height="95"/>
				<path fill="#58595B" d="M251.552,575.125h-98.105c-4.95,0-8.963,4.013-8.963,8.964v66.824c0,4.949,4.013,8.963,8.963,8.963
					h72.806l34.264-33.379v-42.408C260.516,579.138,256.502,575.125,251.552,575.125z"/>
				<polyline fill="#FFFFFF" points="249.793,624.126 223.977,624.126 223.977,648.216 249.916,624.011 249.793,624.126 				"/>
				<g>
					<g>
						<g>
							<path fill="#FFFFFF" d="M161.506,601.354h8.288c-0.127,3.605-0.316,6.294-0.602,8.065c-0.316,1.74-0.854,2.942-1.613,3.606
								c-0.728,0.633-2.119,1.075-4.207,1.328l-1.613-2.847l2.563-0.411c1.107-0.189,1.803-0.854,2.056-2.024
								c0.222-1.044,0.349-2.752,0.412-5.124h-5.283v1.866c0,2.499-0.284,4.713-0.854,6.674c-0.38,1.487-1.171,3.321-2.341,5.567
								l-2.721-1.36c1.139-1.834,1.898-3.479,2.31-4.902c0.569-2.024,0.886-4.018,0.886-5.979v-11.862h13
								c-0.031-1.392-0.031-2.878-0.031-4.46l2.91,0.316c0.442,0.095,0.695,0.253,0.695,0.443c0,0.221-0.253,0.601-0.759,1.106
								v2.594h6.042c-1.234-1.17-2.436-2.119-3.575-2.847l1.74-1.613c1.36,0.822,2.688,1.835,3.954,2.974l-1.582,1.486h2.688v2.594
								h-9.204c0.126,3.828,0.379,6.77,0.791,8.825c0.189,0.886,0.379,1.708,0.632,2.468c0.032-0.063,0.063-0.158,0.127-0.222
								c1.107-1.897,2.15-4.271,3.1-7.117l2.847,1.266c0.222,0.126,0.349,0.348,0.349,0.601c0,0.19-0.285,0.411-0.854,0.602
								c-1.486,3.542-2.847,6.168-4.049,7.907c-0.095,0.127-0.189,0.222-0.253,0.316c0.253,0.538,0.506,1.013,0.791,1.424
								c0.886,1.486,1.645,2.214,2.277,2.214c0.189,0,0.411-0.189,0.695-0.569c0.254-0.348,0.76-1.803,1.519-4.365l2.341,1.961
								c-0.633,2.088-1.233,3.543-1.771,4.492c-0.791,1.202-1.645,1.835-2.53,1.835s-1.771-0.475-2.688-1.36
								c-0.918-0.854-1.771-1.961-2.594-3.416c-0.443,0.442-0.918,0.854-1.36,1.233c-1.17,0.98-2.53,1.961-4.112,2.91l-2.246-2.215
								c1.804-0.917,3.259-1.866,4.365-2.847c0.728-0.537,1.393-1.17,2.024-1.866c-0.79-2.024-1.359-4.302-1.708-6.896
								c-0.253-1.835-0.411-4.238-0.506-7.181h-10.344V601.354z"/>
							<path fill="#FFFFFF" d="M200.198,593.225v2.721h-4.966v11.83c1.803-0.38,3.574-0.822,5.314-1.328v2.594
								c-2.404,0.822-6.168,1.866-11.356,3.194c-0.253,0.443-0.506,0.633-0.728,0.633c-0.253,0-0.379-0.158-0.411-0.538
								l-0.728-3.194c1.677-0.189,3.321-0.475,4.967-0.791v-12.399h-4.713v-2.721H200.198z M204.88,596.293c0-0.063,0-0.095,0-0.126
								v-4.302c0-0.569-0.095-1.297-0.253-2.12l2.847,0.254c0.506,0,0.76,0.126,0.76,0.379c0,0.316-0.222,0.602-0.633,0.854v4.935
								c0,0.063,0,0.126,0,0.126h7.781c0,8.414-0.285,13.696-0.791,15.879c-0.316,2.151-1.012,3.574-2.088,4.365
								c-1.139,0.822-3.036,1.266-5.757,1.266l-1.486-2.974c2.974,0,4.713-0.222,5.282-0.728c0.506-0.38,0.949-1.297,1.266-2.752
								c0.411-1.519,0.664-5.63,0.728-12.336h-4.998c-0.158,2.91-0.538,5.44-1.107,7.592c-0.601,2.341-1.708,4.618-3.321,6.801
								c-1.202,1.645-2.562,3.131-4.144,4.522l-2.372-2.119c1.645-1.328,2.91-2.562,3.859-3.764c1.454-1.835,2.467-3.67,3.067-5.536
								c0.696-2.15,1.107-4.649,1.266-7.496h-4.46v-2.721H204.88z"/>
							<path fill="#FFFFFF" d="M247.021,590.727v2.498h-11.799l-0.759,2.468h9.489v17.303h-3.005c1.771,1.454,4.018,2.688,6.706,3.7
								l-2.594,1.835c-2.657-1.329-4.967-2.941-6.928-4.809l1.107-0.727h-11.768l0.949,0.632c0.19,0.19,0.316,0.349,0.316,0.475
								c0,0.127-0.189,0.222-0.506,0.253c-1.487,1.234-3.669,2.594-6.548,4.049l-2.467-1.834c2.277-0.918,4.428-2.088,6.452-3.574
								h-3.353v-17.303h8.983l0.759-2.468h-12.21v-2.498H247.021z M241.105,600.753v-2.594h-15.942v2.594H241.105z M241.105,605.688
								v-2.594h-15.942v2.594H241.105z M241.105,608.028h-15.942v2.468h15.942V608.028z"/>
						</g>
					</g>
				</g>
			</g>
			<g>
				<rect x="270" y="570" opacity="0.5" fill="none" width="135" height="95"/>
				<path fill="#58595B" d="M386.553,575.125h-98.105c-4.951,0-8.963,4.013-8.963,8.964v66.824c0,4.949,4.012,8.963,8.963,8.963
					h72.805l34.264-33.379v-42.408C395.516,579.138,391.502,575.125,386.553,575.125z M288.447,654.101
					c-1.76,0-3.189-1.43-3.189-3.188v-66.824c0-1.759,1.43-3.189,3.189-3.189h98.105c1.758,0,3.188,1.431,3.188,3.189v39.898
					l-0.176,0.166l-9.879-0.027l-20.709,13.079l0.051,16.849l-0.051,0.047H288.447z"/>
				<polyline fill="#58595B" points="384.793,624.126 358.977,624.126 358.977,648.216 384.916,624.011 384.793,624.126 				"/>
				<g>
					<g>
						<path fill="#58595B" d="M300.777,591.232c0.285,0.126,0.443,0.284,0.443,0.506c0,0.127-0.348,0.222-1.012,0.348
							c-0.348,1.076-0.729,2.088-1.107,2.974h5.061v-3.321c0-0.633-0.063-1.36-0.127-2.246l3.068,0.253
							c0.506,0.032,0.76,0.158,0.76,0.38c0,0.316-0.285,0.602-0.854,0.854v4.08h9.141v2.594h-9.141v2.594
							c0,0.98-0.064,1.898-0.158,2.721h12.146v2.72h-11.197c1.074,2.373,2.467,4.271,4.238,5.662
							c1.676,1.613,4.27,2.974,7.813,4.112l-2.467,2.847c-3.037-1.233-5.568-2.91-7.654-5.029c-1.52-1.519-2.816-3.511-3.891-5.946
							c-0.223,0.569-0.443,1.075-0.697,1.581c-0.98,1.93-2.783,3.796-5.377,5.631c-1.898,1.359-4.145,2.625-6.705,3.764
							l-2.469-2.246c2.658-1.075,4.777-2.056,6.295-3.005c2.404-1.486,4.08-2.973,5.029-4.46c0.57-0.886,1.045-1.866,1.393-2.91
							h-11.861v-2.72h12.525c0.127-0.886,0.189-1.771,0.189-2.721v-2.594h-6.389c-0.096,0.127-0.158,0.253-0.189,0.316
							c-1.014,1.581-2.088,3.005-3.291,4.271l-2.721-1.74c1.52-1.455,2.752-2.91,3.67-4.428c0.949-1.424,1.803-3.354,2.625-5.82
							L300.777,591.232z"/>
						<path fill="#58595B" d="M327.893,612.615c0.316,0.126,0.506,0.253,0.506,0.38c0,0.253-0.189,0.442-0.506,0.601
							c-1.012,1.961-2.119,3.605-3.32,4.935l-2.342-1.486c1.361-1.519,2.563-3.322,3.574-5.409L327.893,612.615z M335.199,590.727
							v20.148h-11.514v-20.148H335.199z M332.48,596.673v-3.448h-6.074v3.448H332.48z M332.48,602.366v-3.227h-6.074v3.227H332.48z
							 M332.48,604.834h-6.074v3.574h6.074V604.834z M336.434,616.695l-2.594,1.708c-1.139-2.024-2.373-3.732-3.701-5.188
							l1.961-1.581C333.555,612.963,334.979,614.64,336.434,616.695z M343.266,590.441c0.285,0.063,0.443,0.222,0.443,0.411
							s-0.254,0.443-0.729,0.759c-0.314,1.14-0.631,2.246-0.947,3.321h9.236v2.594h-2.184c-0.252,4.018-0.727,7.244-1.486,9.68
							c-0.506,1.55-1.076,2.91-1.676,4.049c1.359,1.55,3.227,3.068,5.566,4.555l-2.215,2.373c-1.961-1.455-3.605-2.91-4.871-4.397
							c-1.266,1.708-2.973,3.227-5.123,4.618l-2.594-2.087c2.371-1.202,4.111-2.563,5.219-4.081
							c0.221-0.284,0.443-0.601,0.664-0.917c-0.096-0.127-0.189-0.253-0.254-0.411c-1.297-2.088-2.182-5.093-2.688-9.047
							l2.467-0.253c0.316,2.91,0.98,5.251,1.992,7.022c0.316-0.696,0.602-1.455,0.855-2.215c0.758-2.309,1.232-5.282,1.422-8.889
							h-5.25c-0.822,2.215-1.771,4.303-2.848,6.2l-2.594-1.866c2.184-3.1,3.891-7.181,5.094-12.241L343.266,590.441z"/>
						<path fill="#58595B" d="M382.021,590.727v2.498h-11.799l-0.758,2.468h9.488v17.303h-3.004c1.771,1.454,4.018,2.688,6.705,3.7
							l-2.594,1.835c-2.656-1.329-4.967-2.941-6.928-4.809l1.107-0.727h-11.768l0.949,0.632c0.191,0.19,0.316,0.349,0.316,0.475
							c0,0.127-0.189,0.222-0.506,0.253c-1.486,1.234-3.668,2.594-6.547,4.049l-2.467-1.834c2.277-0.918,4.428-2.088,6.451-3.574
							h-3.352v-17.303h8.982l0.76-2.468H354.85v-2.498H382.021z M376.107,600.753v-2.594h-15.943v2.594H376.107z M376.107,605.688
							v-2.594h-15.943v2.594H376.107z M376.107,608.028h-15.943v2.468h15.943V608.028z"/>
					</g>
				</g>
			</g>
			<g>
				<rect x="405" y="570" opacity="0.5" fill="none" width="135" height="95"/>
				<path fill="#58595B" d="M521.552,575.125h-98.105c-4.95,0-8.963,4.013-8.963,8.964v66.824c0,4.949,4.013,8.963,8.963,8.963
					h72.806l34.264-33.379v-42.408C530.516,579.138,526.502,575.125,521.552,575.125z"/>
				<polyline fill="#FFFFFF" points="519.793,624.126 493.977,624.126 493.977,648.216 519.916,624.011 519.793,624.126 				"/>
				<g>
					<g>
						<g>
							<path fill="#FFFFFF" d="M435.776,591.232c0.285,0.126,0.442,0.284,0.442,0.506c0,0.127-0.348,0.222-1.012,0.348
								c-0.348,1.076-0.728,2.088-1.107,2.974h5.062v-3.321c0-0.633-0.063-1.36-0.127-2.246l3.068,0.253
								c0.506,0.032,0.76,0.158,0.76,0.38c0,0.316-0.285,0.602-0.854,0.854v4.08h9.142v2.594h-9.142v2.594
								c0,0.98-0.063,1.898-0.158,2.721h12.146v2.72h-11.197c1.075,2.373,2.467,4.271,4.238,5.662
								c1.677,1.613,4.271,2.974,7.813,4.112l-2.468,2.847c-3.036-1.233-5.567-2.91-7.654-5.029
								c-1.519-1.519-2.815-3.511-3.891-5.946c-0.222,0.569-0.443,1.075-0.696,1.581c-0.98,1.93-2.783,3.796-5.377,5.631
								c-1.898,1.359-4.145,2.625-6.706,3.764l-2.468-2.246c2.657-1.075,4.776-2.056,6.295-3.005c2.404-1.486,4.08-2.973,5.029-4.46
								c0.569-0.886,1.044-1.866,1.392-2.91h-11.861v-2.72h12.525c0.127-0.886,0.19-1.771,0.19-2.721v-2.594h-6.39
								c-0.095,0.127-0.158,0.253-0.189,0.316c-1.013,1.581-2.088,3.005-3.29,4.271l-2.721-1.74c1.519-1.455,2.752-2.91,3.67-4.428
								c0.948-1.424,1.803-3.354,2.625-5.82L435.776,591.232z"/>
							<path fill="#FFFFFF" d="M462.892,612.615c0.316,0.126,0.506,0.253,0.506,0.38c0,0.253-0.189,0.442-0.506,0.601
								c-1.012,1.961-2.119,3.605-3.321,4.935l-2.341-1.486c1.36-1.519,2.563-3.322,3.574-5.409L462.892,612.615z M470.198,590.727
								v20.148h-11.514v-20.148H470.198z M467.479,596.673v-3.448h-6.073v3.448H467.479z M467.479,602.366v-3.227h-6.073v3.227
								H467.479z M467.479,604.834h-6.073v3.574h6.073V604.834z M471.433,616.695l-2.594,1.708
								c-1.139-2.024-2.373-3.732-3.701-5.188l1.961-1.581C468.554,612.963,469.978,614.64,471.433,616.695z M478.265,590.441
								c0.285,0.063,0.442,0.222,0.442,0.411s-0.253,0.443-0.728,0.759c-0.315,1.14-0.632,2.246-0.948,3.321h9.236v2.594h-2.183
								c-0.253,4.018-0.728,7.244-1.486,9.68c-0.507,1.55-1.076,2.91-1.677,4.049c1.36,1.55,3.227,3.068,5.567,4.555l-2.215,2.373
								c-1.961-1.455-3.605-2.91-4.871-4.397c-1.266,1.708-2.974,3.227-5.124,4.618l-2.594-2.087
								c2.372-1.202,4.112-2.563,5.219-4.081c0.222-0.284,0.443-0.601,0.664-0.917c-0.095-0.127-0.189-0.253-0.253-0.411
								c-1.297-2.088-2.183-5.093-2.688-9.047l2.468-0.253c0.315,2.91,0.98,5.251,1.992,7.022c0.316-0.696,0.602-1.455,0.854-2.215
								c0.759-2.309,1.233-5.282,1.423-8.889h-5.251c-0.822,2.215-1.771,4.303-2.847,6.2l-2.594-1.866
								c2.183-3.1,3.891-7.181,5.093-12.241L478.265,590.441z"/>
							<path fill="#FFFFFF" d="M517.021,590.727v2.498h-11.799l-0.759,2.468h9.489v17.303h-3.005c1.771,1.454,4.018,2.688,6.706,3.7
								l-2.594,1.835c-2.657-1.329-4.967-2.941-6.928-4.809l1.107-0.727h-11.768l0.949,0.632c0.19,0.19,0.316,0.349,0.316,0.475
								c0,0.127-0.189,0.222-0.506,0.253c-1.487,1.234-3.669,2.594-6.548,4.049l-2.467-1.834c2.277-0.918,4.428-2.088,6.452-3.574
								h-3.353v-17.303h8.983l0.759-2.468h-12.21v-2.498H517.021z M511.105,600.753v-2.594h-15.942v2.594H511.105z M511.105,605.688
								v-2.594h-15.942v2.594H511.105z M511.105,608.028h-15.942v2.468h15.942V608.028z"/>
						</g>
					</g>
				</g>
			</g>
		</g>
	</g>
</g>
<g id="pop_up" display="none">
</g>
<g id="guide" display="none">
</g>
</svg>
