<?xml version="1.0" encoding="utf-8"?>
<!-- Generator: Adobe Illustrator 16.0.0, SVG Export Plug-In . SVG Version: 6.00 Build 0)  -->
<!DOCTYPE svg PUBLIC "-//W3C//DTD SVG 1.1//EN" "http://www.w3.org/Graphics/SVG/1.1/DTD/svg11.dtd">
<svg version="1.1" xmlns="http://www.w3.org/2000/svg" xmlns:xlink="http://www.w3.org/1999/xlink" x="0px" y="0px" width="135px"
	 height="140px" viewBox="0 0 135 140" enable-background="new 0 0 135 140" xml:space="preserve">
<g id="首頁BK" display="none">
</g>
<g id="首頁UI__x26__logo" display="none">
</g>
<g id="內頁_x5F_左" display="none">
</g>
<g id="內頁" display="none">
</g>
<g id="Easy_我的作品" display="none">
</g>
<g id="EASY_雲端作品庫" display="none">
</g>
<g id="福利中心頁_x5F_bk" display="none">
</g>
<g id="兌換商品" display="none">
</g>
<g id="版型下載" display="none">
</g>
<g id="Top_banner_1_" display="none">
</g>
<g id="商品說明" display="none">
</g>
<g id="填寫兌換頁" display="none">
</g>
<g id="會員資料" display="none">
</g>
<g id="集到先師" display="none">
</g>
<g id="Play" display="none">
</g>
<g id="製作頁">
	<g id="步驟2_1_">
		<g id="_x32_-2">
			<g id="_x31__x3001_2_x3001_3">
				<g>
					<g>
						<g>
							<g>
								<g>
									<path fill="#58595B" d="M39.488,2.824H5.512c-1.715,0-3.104,1.39-3.104,3.104v23.143c0,1.715,1.389,3.104,3.104,3.104
										h25.215l11.865-11.56V5.929C42.592,4.214,41.203,2.824,39.488,2.824z M5.512,30.176c-0.609,0-1.104-0.495-1.104-1.104
										V5.929c0-0.609,0.494-1.104,1.104-1.104h33.977c0.609,0,1.104,0.495,1.104,1.104v13.817l-0.061,0.058l-3.422-0.009
										l-7.171,4.529l0.018,5.835l-0.018,0.017H5.512z"/>
								</g>
								<g>
									<path fill="#58595B" d="M22.784,24.742h-1.758V13.541c-0.423,0.403-0.979,0.808-1.665,1.211s-1.304,0.706-1.851,0.908
										v-1.699c0.983-0.462,1.843-1.022,2.578-1.68s1.257-1.296,1.563-1.914h1.133V24.742z"/>
								</g>
							</g>
							<g>
								<polyline fill="#58595B" points="38.879,19.795 29.938,19.795 29.938,28.138 38.922,19.755 38.879,19.795 								"/>
							</g>
						</g>
						<rect opacity="0.4" fill="none" width="45" height="35"/>
					</g>
					<g>
						<g>
							<g>
								<polygon fill="#A02430" points="75.938,31.371 49.458,31.371 46.407,29.071 47.125,4.971 49.512,2.824 86.592,4.335 
									87.291,6.085 87.291,20.537 								"/>
							</g>
							<g>
								<g>
									<g>
										<path fill="#A02430" d="M85.487,2.824H49.512c-1.715,0-3.104,1.39-3.104,3.104v23.143c0,1.715,1.39,3.104,3.104,3.104
											h27.214l11.866-11.56V5.929C88.592,4.214,87.202,2.824,85.487,2.824z M49.512,30.176c-0.609,0-1.104-0.495-1.104-1.104
											V5.929c0-0.609,0.495-1.104,1.104-1.104h35.976c0.609,0,1.104,0.495,1.104,1.104v13.817l-0.061,0.058l-3.422-0.009
											l-7.172,4.529l0.018,5.835l-0.018,0.017H49.512z"/>
									</g>
									<g>
										<path fill="#DFE0E1" d="M68.783,24.742h-1.758V13.541c-0.423,0.403-0.979,0.808-1.665,1.211s-1.304,0.706-1.851,0.908
											v-1.699c0.983-0.462,1.843-1.022,2.578-1.68s1.257-1.296,1.563-1.914h1.133V24.742z"/>
									</g>
								</g>
								<g>
									<polyline fill="#DFE0E1" points="84.877,19.795 75.938,19.795 75.938,28.138 84.921,19.755 84.877,19.795 									"/>
								</g>
							</g>
						</g>
						<rect x="45" opacity="0.4" fill="none" width="45" height="35"/>
					</g>
					<g>
						<g>
							<g>
								<polygon fill="#58595B" points="121.589,31.371 95.109,31.371 92.059,29.071 92.776,4.971 95.163,2.824 132.243,4.335 
									132.942,6.085 132.942,20.537 								"/>
							</g>
							<g>
								<g>
									<g>
										<path fill="#58595B" d="M131.139,2.824H95.163c-1.715,0-3.104,1.39-3.104,3.104v23.143c0,1.715,1.39,3.104,3.104,3.104
											h27.214l11.866-11.56V5.929C134.243,4.214,132.854,2.824,131.139,2.824z M95.163,30.176c-0.609,0-1.104-0.495-1.104-1.104
											V5.929c0-0.609,0.495-1.104,1.104-1.104h35.976c0.609,0,1.104,0.495,1.104,1.104v13.817l-0.061,0.058l-3.422-0.009
											l-7.172,4.529l0.018,5.835l-0.018,0.017H95.163z"/>
									</g>
									<g>
										<path fill="#DFE0E1" d="M114.435,24.742h-1.758V13.541c-0.423,0.403-0.979,0.808-1.665,1.211s-1.304,0.706-1.851,0.908
											v-1.699c0.983-0.462,1.843-1.022,2.578-1.68s1.257-1.296,1.563-1.914h1.133V24.742z"/>
									</g>
								</g>
								<g>
									<polyline fill="#DFE0E1" points="130.528,19.795 121.589,19.795 121.589,28.138 130.572,19.755 130.528,19.795 									
										"/>
								</g>
							</g>
						</g>
						<rect x="90" opacity="0.4" fill="none" width="45" height="35"/>
					</g>
					<g>
						<g>
							<g>
								<g>
									<path fill="#58595B" d="M39.488,37.824H5.512c-1.715,0-3.104,1.39-3.104,3.104v23.143c0,1.715,1.389,3.104,3.104,3.104
										h25.215l11.865-11.56V40.929C42.592,39.214,41.203,37.824,39.488,37.824z M5.512,65.176c-0.609,0-1.104-0.495-1.104-1.104
										V40.929c0-0.609,0.494-1.104,1.104-1.104h33.977c0.609,0,1.104,0.495,1.104,1.104v13.817l-0.061,0.058l-3.422-0.009
										l-7.171,4.529l0.018,5.835l-0.018,0.017H5.512z"/>
								</g>
								<g>
									<path fill="#58595B" d="M25.401,58.053v1.689h-9.463c-0.013-0.423,0.056-0.83,0.205-1.221
										c0.241-0.645,0.627-1.279,1.157-1.904s1.297-1.348,2.3-2.168c1.556-1.276,2.607-2.287,3.154-3.032s0.82-1.45,0.82-2.114
										c0-0.696-0.249-1.284-0.747-1.763s-1.147-0.718-1.948-0.718c-0.847,0-1.523,0.254-2.031,0.762s-0.765,1.211-0.771,2.109
										l-1.807-0.186c0.124-1.348,0.589-2.375,1.396-3.081s1.892-1.06,3.252-1.06c1.374,0,2.461,0.381,3.262,1.143
										s1.201,1.706,1.201,2.832c0,0.573-0.117,1.136-0.352,1.689s-0.623,1.136-1.167,1.748s-1.447,1.452-2.71,2.52
										c-1.055,0.886-1.731,1.486-2.031,1.802s-0.547,0.633-0.742,0.952H25.401z"/>
								</g>
							</g>
							<g>
								<polyline fill="#58595B" points="38.879,54.795 29.938,54.795 29.938,63.138 38.922,54.755 38.879,54.795 								"/>
							</g>
						</g>
						<rect y="35" opacity="0.4" fill="none" width="45" height="35"/>
					</g>
					<g>
						<g>
							<g>
								<polygon fill="#A02430" points="75.938,66.371 49.458,66.371 46.407,64.071 47.125,39.971 49.512,37.824 86.592,39.335 
									87.291,41.085 87.291,55.537 								"/>
							</g>
							<g>
								<g>
									<g>
										<path fill="#A02430" d="M85.487,37.824H49.512c-1.715,0-3.104,1.39-3.104,3.104v23.143c0,1.715,1.39,3.104,3.104,3.104
											h27.214l11.866-11.56V40.929C88.592,39.214,87.202,37.824,85.487,37.824z M49.512,65.176
											c-0.609,0-1.104-0.495-1.104-1.104V40.929c0-0.609,0.495-1.104,1.104-1.104h35.976c0.609,0,1.104,0.495,1.104,1.104
											v13.817l-0.061,0.058l-3.422-0.009l-7.172,4.529l0.018,5.835l-0.018,0.017H49.512z"/>
									</g>
									<g>
										<path fill="#DFE0E1" d="M71.4,58.053v1.689h-9.463c-0.013-0.423,0.056-0.83,0.205-1.221
											c0.241-0.645,0.627-1.279,1.157-1.904s1.297-1.348,2.3-2.168c1.556-1.276,2.607-2.287,3.154-3.032s0.82-1.45,0.82-2.114
											c0-0.696-0.249-1.284-0.747-1.763s-1.147-0.718-1.948-0.718c-0.847,0-1.523,0.254-2.031,0.762s-0.765,1.211-0.771,2.109
											l-1.807-0.186c0.124-1.348,0.589-2.375,1.396-3.081s1.892-1.06,3.252-1.06c1.374,0,2.461,0.381,3.262,1.143
											s1.201,1.706,1.201,2.832c0,0.573-0.117,1.136-0.352,1.689s-0.623,1.136-1.167,1.748s-1.447,1.452-2.71,2.52
											c-1.055,0.886-1.731,1.486-2.031,1.802s-0.547,0.633-0.742,0.952H71.4z"/>
									</g>
								</g>
								<g>
									<polyline fill="#DFE0E1" points="84.877,54.795 75.938,54.795 75.938,63.138 84.921,54.755 84.877,54.795 									"/>
								</g>
							</g>
						</g>
						<rect x="45" y="35" opacity="0.4" fill="none" width="45" height="35"/>
					</g>
					<g>
						<g>
							<g>
								<polygon fill="#58595B" points="120.922,66.371 94.442,66.371 91.392,64.071 92.109,39.971 94.496,37.824 131.576,39.335 
									132.275,41.085 132.275,55.537 								"/>
							</g>
							<g>
								<g>
									<g>
										<path fill="#58595B" d="M130.472,37.824H94.496c-1.715,0-3.104,1.39-3.104,3.104v23.143c0,1.715,1.39,3.104,3.104,3.104
											h27.214l11.866-11.56V40.929C133.576,39.214,132.187,37.824,130.472,37.824z M94.496,65.176
											c-0.609,0-1.104-0.495-1.104-1.104V40.929c0-0.609,0.495-1.104,1.104-1.104h35.976c0.609,0,1.104,0.495,1.104,1.104
											v13.817l-0.061,0.058l-3.422-0.009l-7.172,4.529l0.018,5.835l-0.018,0.017H94.496z"/>
									</g>
									<g>
										<path fill="#DFE0E1" d="M116.385,58.053v1.689h-9.463c-0.013-0.423,0.056-0.83,0.205-1.221
											c0.241-0.645,0.627-1.279,1.157-1.904s1.297-1.348,2.3-2.168c1.556-1.276,2.607-2.287,3.154-3.032s0.82-1.45,0.82-2.114
											c0-0.696-0.249-1.284-0.747-1.763s-1.147-0.718-1.948-0.718c-0.847,0-1.523,0.254-2.031,0.762s-0.765,1.211-0.771,2.109
											l-1.807-0.186c0.124-1.348,0.589-2.375,1.396-3.081s1.892-1.06,3.252-1.06c1.374,0,2.461,0.381,3.262,1.143
											s1.201,1.706,1.201,2.832c0,0.573-0.117,1.136-0.352,1.689s-0.623,1.136-1.167,1.748s-1.447,1.452-2.71,2.52
											c-1.055,0.886-1.731,1.486-2.031,1.802s-0.547,0.633-0.742,0.952H116.385z"/>
									</g>
								</g>
								<g>
									<polyline fill="#DFE0E1" points="129.861,54.795 120.922,54.795 120.922,63.138 129.905,54.755 129.861,54.795 									
										"/>
								</g>
							</g>
						</g>
						<rect x="90" y="35" opacity="0.4" fill="none" width="45" height="35"/>
					</g>
					<g>
						<g>
							<g>
								<g>
									<path fill="#58595B" d="M39.488,72.824H5.512c-1.715,0-3.104,1.39-3.104,3.104v23.143c0,1.715,1.389,3.104,3.104,3.104
										h25.215l11.865-11.56V75.929C42.592,74.214,41.203,72.824,39.488,72.824z M5.512,100.176c-0.609,0-1.104-0.495-1.104-1.104
										V75.929c0-0.609,0.494-1.104,1.104-1.104h33.977c0.609,0,1.104,0.495,1.104,1.104v13.817l-0.061,0.058l-3.422-0.009
										l-7.171,4.529l0.018,5.835l-0.018,0.017H5.512z"/>
								</g>
								<g>
									<path fill="#58595B" d="M16.173,90.963l1.758-0.234c0.202,0.996,0.545,1.714,1.03,2.153s1.076,0.659,1.772,0.659
										c0.827,0,1.525-0.286,2.095-0.859s0.854-1.282,0.854-2.129c0-0.808-0.264-1.473-0.791-1.997s-1.198-0.786-2.012-0.786
										c-0.332,0-0.745,0.065-1.24,0.195l0.195-1.543c0.117,0.013,0.212,0.02,0.283,0.02c0.749,0,1.423-0.195,2.021-0.586
										s0.898-0.993,0.898-1.807c0-0.645-0.218-1.179-0.654-1.602s-0.999-0.635-1.689-0.635c-0.684,0-1.253,0.215-1.709,0.645
										s-0.749,1.074-0.879,1.934l-1.758-0.313c0.215-1.179,0.703-2.092,1.465-2.739s1.709-0.972,2.842-0.972
										c0.781,0,1.501,0.168,2.158,0.503s1.16,0.793,1.509,1.372s0.522,1.194,0.522,1.846c0,0.618-0.166,1.182-0.498,1.689
										s-0.823,0.911-1.475,1.211c0.847,0.195,1.504,0.601,1.973,1.216s0.703,1.385,0.703,2.31c0,1.25-0.456,2.31-1.367,3.179
										s-2.063,1.304-3.457,1.304c-1.257,0-2.3-0.374-3.13-1.123S16.29,92.154,16.173,90.963z"/>
								</g>
							</g>
							<g>
								<polyline fill="#58595B" points="38.879,89.795 29.938,89.795 29.938,98.138 38.922,89.755 38.879,89.795 								"/>
							</g>
						</g>
						<rect y="70" opacity="0.4" fill="none" width="45" height="35"/>
					</g>
					<g>
						<g>
							<g opacity="0.2">
								<g>
									<path fill="#58595B" d="M40.488,107.824H4.512c-1.715,0-3.104,1.39-3.104,3.104v23.143c0,1.715,1.389,3.104,3.104,3.104
										h27.215l11.865-11.56v-14.688C43.592,109.214,42.203,107.824,40.488,107.824z M4.512,135.176
										c-0.609,0-1.104-0.495-1.104-1.104v-23.143c0-0.609,0.494-1.104,1.104-1.104h35.977c0.609,0,1.104,0.495,1.104,1.104
										v13.817l-0.061,0.058l-3.422-0.009l-7.172,4.529l0.018,5.835l-0.018,0.017H4.512z"/>
								</g>
								<polyline fill="#58595B" points="39.879,124.795 30.938,124.795 30.938,133.138 39.922,124.755 39.879,124.795 								"/>
							</g>
							<g>
								<rect x="14.504" y="120.311" fill="#58595B" width="14.377" height="2.892"/>
								<rect x="20.248" y="114.567" fill="#58595B" width="2.891" height="14.378"/>
							</g>
						</g>
						<rect y="105" opacity="0.4" fill="none" width="45" height="35"/>
					</g>
					<g>
						<g>
							<g opacity="0.2">
								<g>
									<path fill="#58595B" d="M85.488,107.824H49.512c-1.715,0-3.104,1.39-3.104,3.104v23.143c0,1.715,1.389,3.104,3.104,3.104
										h27.215l11.867-11.56v-14.688C88.594,109.214,87.203,107.824,85.488,107.824z M49.512,135.176
										c-0.609,0-1.104-0.495-1.104-1.104v-23.143c0-0.609,0.494-1.104,1.104-1.104h35.977c0.609,0,1.105,0.495,1.105,1.104
										v13.817l-0.063,0.058l-3.422-0.009l-7.17,4.529l0.016,5.835l-0.016,0.017H49.512z"/>
								</g>
								<polyline fill="#58595B" points="84.879,124.795 75.939,124.795 75.939,133.138 84.922,124.755 84.879,124.795 								"/>
							</g>
							<g>
								<rect x="59.504" y="120.311" fill="#58595B" width="14.379" height="2.892"/>
							</g>
						</g>
						<rect x="45" y="105" opacity="0.4" fill="none" width="45" height="35"/>
					</g>
					<g>
						<g>
							<g>
								<polygon fill="#A02430" points="75.938,101.371 49.458,101.371 46.407,99.071 47.125,74.971 49.512,72.824 86.592,74.335 
									87.291,76.085 87.291,90.537 								"/>
							</g>
							<g>
								<g>
									<g>
										<path fill="#A02430" d="M85.487,72.824H49.512c-1.715,0-3.104,1.39-3.104,3.104v23.143c0,1.715,1.39,3.104,3.104,3.104
											h27.214l11.866-11.56V75.929C88.592,74.214,87.202,72.824,85.487,72.824z M49.512,100.176
											c-0.609,0-1.104-0.495-1.104-1.104V75.929c0-0.609,0.495-1.104,1.104-1.104h35.976c0.609,0,1.104,0.495,1.104,1.104
											v13.817l-0.061,0.058l-3.422-0.009l-7.172,4.529l0.018,5.835l-0.018,0.017H49.512z"/>
									</g>
									<g>
										<path fill="#DFE0E1" d="M62.172,90.963l1.758-0.234c0.202,0.996,0.545,1.714,1.03,2.153s1.076,0.659,1.772,0.659
											c0.827,0,1.525-0.286,2.095-0.859s0.854-1.282,0.854-2.129c0-0.808-0.264-1.473-0.791-1.997s-1.198-0.786-2.012-0.786
											c-0.332,0-0.745,0.065-1.24,0.195l0.195-1.543c0.117,0.013,0.212,0.02,0.283,0.02c0.749,0,1.423-0.195,2.021-0.586
											s0.898-0.993,0.898-1.807c0-0.645-0.218-1.179-0.654-1.602s-0.999-0.635-1.689-0.635c-0.684,0-1.253,0.215-1.709,0.645
											s-0.749,1.074-0.879,1.934l-1.758-0.313c0.215-1.179,0.703-2.092,1.465-2.739s1.709-0.972,2.842-0.972
											c0.781,0,1.501,0.168,2.158,0.503s1.16,0.793,1.509,1.372s0.522,1.194,0.522,1.846c0,0.618-0.166,1.182-0.498,1.689
											s-0.823,0.911-1.475,1.211c0.847,0.195,1.504,0.601,1.973,1.216s0.703,1.385,0.703,2.31c0,1.25-0.456,2.31-1.367,3.179
											s-2.063,1.304-3.457,1.304c-1.257,0-2.3-0.374-3.13-1.123S62.289,92.154,62.172,90.963z"/>
									</g>
								</g>
								<g>
									<polyline fill="#DFE0E1" points="84.877,89.795 75.938,89.795 75.938,98.138 84.921,89.755 84.877,89.795 									"/>
								</g>
							</g>
						</g>
						<rect x="45" y="70" opacity="0.4" fill="none" width="45" height="35"/>
					</g>
					<g>
						<g>
							<g>
								<polygon fill="#58595B" points="120.922,101.371 94.442,101.371 91.392,99.071 92.109,74.971 94.496,72.824 131.576,74.335 
									132.275,76.085 132.275,90.537 								"/>
							</g>
							<g>
								<g>
									<g>
										<path fill="#58595B" d="M130.472,72.824H94.496c-1.715,0-3.104,1.39-3.104,3.104v23.143c0,1.715,1.39,3.104,3.104,3.104
											h27.214l11.866-11.56V75.929C133.576,74.214,132.187,72.824,130.472,72.824z M94.496,100.176
											c-0.609,0-1.104-0.495-1.104-1.104V75.929c0-0.609,0.495-1.104,1.104-1.104h35.976c0.609,0,1.104,0.495,1.104,1.104
											v13.817l-0.061,0.058l-3.422-0.009l-7.172,4.529l0.018,5.835l-0.018,0.017H94.496z"/>
									</g>
									<g>
										<path fill="#DFE0E1" d="M107.156,90.963l1.758-0.234c0.202,0.996,0.545,1.714,1.03,2.153s1.076,0.659,1.772,0.659
											c0.827,0,1.525-0.286,2.095-0.859s0.854-1.282,0.854-2.129c0-0.808-0.264-1.473-0.791-1.997s-1.198-0.786-2.012-0.786
											c-0.332,0-0.745,0.065-1.24,0.195l0.195-1.543c0.117,0.013,0.212,0.02,0.283,0.02c0.749,0,1.423-0.195,2.021-0.586
											s0.898-0.993,0.898-1.807c0-0.645-0.218-1.179-0.654-1.602s-0.999-0.635-1.689-0.635c-0.684,0-1.253,0.215-1.709,0.645
											s-0.749,1.074-0.879,1.934l-1.758-0.313c0.215-1.179,0.703-2.092,1.465-2.739s1.709-0.972,2.842-0.972
											c0.781,0,1.501,0.168,2.158,0.503s1.16,0.793,1.509,1.372s0.522,1.194,0.522,1.846c0,0.618-0.166,1.182-0.498,1.689
											s-0.823,0.911-1.475,1.211c0.847,0.195,1.504,0.601,1.973,1.216s0.703,1.385,0.703,2.31c0,1.25-0.456,2.31-1.367,3.179
											s-2.063,1.304-3.457,1.304c-1.257,0-2.3-0.374-3.13-1.123S107.273,92.154,107.156,90.963z"/>
									</g>
								</g>
								<g>
									<polyline fill="#DFE0E1" points="129.861,89.795 120.922,89.795 120.922,98.138 129.905,89.755 129.861,89.795 									
										"/>
								</g>
							</g>
						</g>
						<rect x="90" y="70" opacity="0.4" fill="none" width="45" height="35"/>
					</g>
				</g>
			</g>
			<g id="_x31__x3001_2" display="none">
			</g>
		</g>
	</g>
	<g display="none">
		<g display="inline">
			<path d="M21.959,29.928c0.609,0,1.105,0.495,1.105,1.104v18.255L10.213,61.279h-32.23c-0.608,0-1.104-0.495-1.104-1.104V31.032
				c0-0.609,0.495-1.104,1.104-1.104H21.959 M21.959,27.928h-43.977c-1.715,0-3.104,1.39-3.104,3.104v29.143
				c0,1.715,1.389,3.104,3.104,3.104H11l14.064-13.123V31.032C25.064,29.317,23.674,27.928,21.959,27.928L21.959,27.928z"/>
		</g>
		<polygon display="inline" points="10.23,49.345 10.23,63.279 25.063,49.345 		"/>
	</g>
</g>
<g id="pop_up" display="none">
</g>
<g id="guide" display="none">
</g>
</svg>
