<?xml version="1.0" encoding="utf-8"?>
<!-- Generator: Adobe Illustrator 16.0.0, SVG Export Plug-In . SVG Version: 6.00 Build 0)  -->
<!DOCTYPE svg PUBLIC "-//W3C//DTD SVG 1.1//EN" "http://www.w3.org/Graphics/SVG/1.1/DTD/svg11.dtd">
<svg version="1.1" xmlns="http://www.w3.org/2000/svg" xmlns:xlink="http://www.w3.org/1999/xlink" x="0px" y="0px" width="20px"
	 height="25px" viewBox="0 0 20 25" enable-background="new 0 0 20 25" xml:space="preserve">
<g id="首頁BK" display="none">
</g>
<g id="首頁UI__x26__logo" display="none">
</g>
<g id="內頁_x5F_左" display="none">
</g>
<g id="內頁" display="none">
</g>
<g id="Easy_我的作品" display="none">
</g>
<g id="EASY_雲端作品庫" display="none">
</g>
<g id="福利中心頁_x5F_bk" display="none">
</g>
<g id="兌換商品" display="none">
</g>
<g id="版型下載" display="none">
</g>
<g id="Top_banner_1_" display="none">
</g>
<g id="商品說明" display="none">
</g>
<g id="填寫兌換頁" display="none">
</g>
<g id="會員資料" display="none">
</g>
<g id="集到先師" display="none">
</g>
<g id="Play">
</g>
<g id="製作頁">
	<g id="步驟3_xFF0D_1">
	</g>
	<g>
		<g>
			<path fill="#808081" d="M2.689,5.504L3.75,20.868c0.061,0.91,0.908,1.632,1.891,1.632h8.756c0.982,0,1.826-0.722,1.885-1.632
				l1.029-15.364H2.689z M5.842,19.94L5.273,7.449h1.506L7.168,19.94H5.842z M10.68,19.94H9.354L9.25,7.449h1.506L10.68,19.94z
				 M14.24,19.94h-1.324l0.363-12.491h1.504L14.24,19.94z"/>
			<path fill="#808081" d="M18.783,6.273H1.217l0,0c0-0.993,0.803-1.795,1.795-1.795h13.975C17.98,4.479,18.783,5.28,18.783,6.273
				L18.783,6.273z"/>
			<path fill="#808081" d="M10.525,5.284H9.481c-0.339,0-0.612-0.274-0.612-0.612V3.111c0-0.338,0.275-0.611,0.612-0.611h1.044
				c0.338,0,0.611,0.274,0.611,0.611v1.561C11.137,5.01,10.861,5.284,10.525,5.284z"/>
		</g>
		<rect opacity="0.5" fill="none" width="20" height="25"/>
	</g>
</g>
<g id="pop_up">
</g>
<g id="guide">
</g>
</svg>
