<?xml version="1.0" encoding="utf-8"?>
<!-- Generator: Adobe Illustrator 16.0.0, SVG Export Plug-In . SVG Version: 6.00 Build 0)  -->
<!DOCTYPE svg PUBLIC "-//W3C//DTD SVG 1.1//EN" "http://www.w3.org/Graphics/SVG/1.1/DTD/svg11.dtd">
<svg version="1.1" xmlns="http://www.w3.org/2000/svg" xmlns:xlink="http://www.w3.org/1999/xlink" x="0px" y="0px" width="45px"
	 height="45px" viewBox="0 0 45 45" enable-background="new 0 0 45 45" xml:space="preserve">
<g id="首頁BK" display="none">
</g>
<g id="首頁UI__x26__logo" display="none">
</g>
<g id="內頁_x5F_左" display="none">
</g>
<g id="內頁" display="none">
</g>
<g id="Easy_我的作品" display="none">
</g>
<g id="EASY_雲端作品庫" display="none">
</g>
<g id="福利中心頁_x5F_bk" display="none">
</g>
<g id="兌換商品" display="none">
</g>
<g id="版型下載" display="none">
</g>
<g id="Top_banner_1_" display="none">
</g>
<g id="商品說明" display="none">
</g>
<g id="填寫兌換頁" display="none">
</g>
<g id="會員資料" display="none">
</g>
<g id="集到先師" display="none">
</g>
<g id="Play">
	<g>
		<g>
			<path fill="#DFE0E1" d="M22.501,43.859c-11.777,0-21.359-9.581-21.359-21.358S10.724,1.142,22.501,1.142
				s21.358,9.582,21.358,21.359S34.278,43.859,22.501,43.859z M22.501,2.754c-10.889,0-19.747,8.858-19.747,19.747
				s8.858,19.747,19.747,19.747s19.746-8.858,19.746-19.747S33.39,2.754,22.501,2.754z"/>
			<rect x="21.694" y="1.948" fill="#DFE0E1" width="1.612" height="6.582"/>
			<rect x="21.694" y="36.378" fill="#DFE0E1" width="1.612" height="6.582"/>
			<rect x="36.425" y="21.648" fill="#DFE0E1" width="6.582" height="1.612"/>
			<rect x="1.994" y="21.648" fill="#DFE0E1" width="6.583" height="1.612"/>
			<path fill="#DFE0E1" d="M21.05,23.694L21.05,23.694c-0.859-0.81-0.903-2.173-0.097-3.03l11.623-9.215l-8.497,12.157
				C23.272,24.464,21.909,24.503,21.05,23.694z"/>
		</g>
		<rect opacity="0.5" fill="none" width="45" height="45"/>
	</g>
</g>
<g id="製作頁" display="none">
</g>
<g id="pop_up">
</g>
<g id="guide">
</g>
</svg>
