<?xml version="1.0" encoding="utf-8"?>
<!-- Generator: Adobe Illustrator 16.0.0, SVG Export Plug-In . SVG Version: 6.00 Build 0)  -->
<!DOCTYPE svg PUBLIC "-//W3C//DTD SVG 1.1//EN" "http://www.w3.org/Graphics/SVG/1.1/DTD/svg11.dtd">
<svg version="1.1" xmlns="http://www.w3.org/2000/svg" xmlns:xlink="http://www.w3.org/1999/xlink" x="0px" y="0px" width="50px"
	 height="50px" viewBox="0 0 50 50" enable-background="new 0 0 50 50" xml:space="preserve">
<g id="首頁BK" display="none">
</g>
<g id="首頁UI__x26__logo" display="none">
</g>
<g id="內頁_x5F_左" display="none">
</g>
<g id="內頁" display="none">
</g>
<g id="Easy_我的作品" display="none">
</g>
<g id="EASY_雲端作品庫" display="none">
</g>
<g id="福利中心頁_x5F_bk" display="none">
</g>
<g id="兌換商品" display="none">
</g>
<g id="版型下載" display="none">
</g>
<g id="Top_banner_1_" display="none">
</g>
<g id="商品說明" display="none">
</g>
<g id="填寫兌換頁" display="none">
</g>
<g id="會員資料" display="none">
</g>
<g id="集到先師" display="none">
</g>
<g id="Play">
	<g>
		<g>
			<path fill="#404041" d="M13.756,35.068l8.778-10.002l-8.123-9.242h5.091l3.688,4.512c0.693,0.858,1.252,1.577,1.674,2.157
				c0.664-0.798,1.274-1.505,1.833-2.12l4.05-4.549h4.864l-8.304,9.061l8.938,10.184h-5l-4.933-5.979L25,27.475l-6.313,7.593H13.756
				z"/>
		</g>
		<path fill="#404041" d="M25,45.833C13.513,45.833,4.167,36.488,4.167,25C4.167,13.512,13.513,4.167,25,4.167
			S45.833,13.512,45.833,25C45.833,36.488,36.487,45.833,25,45.833z M25,7.167c-9.833,0-17.833,8-17.833,17.834
			c0,9.833,8,17.833,17.833,17.833s17.833-8,17.833-17.833C42.833,15.167,34.833,7.167,25,7.167z"/>
	</g>
</g>
<g id="製作頁" display="none">
</g>
<g id="pop_up">
</g>
<g id="guide" display="none">
</g>
</svg>
