<?xml version="1.0" encoding="utf-8"?>
<!-- Generator: Adobe Illustrator 16.0.0, SVG Export Plug-In . SVG Version: 6.00 Build 0)  -->
<!DOCTYPE svg PUBLIC "-//W3C//DTD SVG 1.1//EN" "http://www.w3.org/Graphics/SVG/1.1/DTD/svg11.dtd">
<svg version="1.1" xmlns="http://www.w3.org/2000/svg" xmlns:xlink="http://www.w3.org/1999/xlink" x="0px" y="0px" width="20px"
	 height="20px" viewBox="0 0 20 20" enable-background="new 0 0 20 20" xml:space="preserve">
<g id="首頁BK" display="none">
</g>
<g id="首頁UI__x26__logo" display="none">
</g>
<g id="首頁UI__x26__logo_拷貝" display="none">
</g>
<g id="內頁_x5F_左" display="none">
</g>
<g id="內頁" display="none">
</g>
<g id="Easy_我的作品" display="none">
</g>
<g id="EASY_雲端作品庫" display="none">
</g>
<g id="福利中心頁_x5F_bk" display="none">
</g>
<g id="兌換商品" display="none">
</g>
<g id="版型下載" display="none">
</g>
<g id="Top_banner_1_" display="none">
</g>
<g id="商品說明" display="none">
</g>
<g id="填寫兌換頁" display="none">
</g>
<g id="會員資料" display="none">
</g>
<g id="集到先師" display="none">
</g>
<g id="Play">
	<g>
		<path fill="#DFE0E1" d="M14.614,7.945V6.039C14.614,3.82,12.802,2,10.583,2H9.417C7.198,2,5.386,3.82,5.386,6.039v1.906
			C4.519,7.96,3.823,8.664,3.823,9.529v6.885c0,0.875,0.711,1.586,1.59,1.586h9.174c0.881,0,1.59-0.711,1.59-1.586V9.529
			C16.177,8.664,15.481,7.96,14.614,7.945z M10.573,13.224v2.769H9.427v-2.769c-0.625-0.232-1.072-0.839-1.072-1.545
			c0-0.914,0.729-1.656,1.646-1.656c0.916,0,1.646,0.742,1.646,1.656C11.647,12.385,11.198,12.991,10.573,13.224z M12.792,7.944
			H7.208V6.039c0-1.219,0.99-2.217,2.209-2.217h1.166c1.219,0,2.209,0.998,2.209,2.217V7.944z"/>
	</g>
</g>
<g id="製作頁" display="none">
</g>
<g id="pop_up" display="none">
</g>
<g id="guide">
</g>
</svg>
