<?xml version="1.0" encoding="utf-8"?>
<!-- Generator: Adobe Illustrator 15.1.0, SVG Export Plug-In . SVG Version: 6.00 Build 0)  -->
<!DOCTYPE svg PUBLIC "-//W3C//DTD SVG 1.1//EN" "http://www.w3.org/Graphics/SVG/1.1/DTD/svg11.dtd">
<svg version="1.1" id="圖層_1" xmlns="http://www.w3.org/2000/svg" xmlns:xlink="http://www.w3.org/1999/xlink" x="0px" y="0px"
	 width="50px" height="50px" viewBox="0 0 50 50" enable-background="new 0 0 50 50" xml:space="preserve">
<linearGradient id="SVGID_1_" gradientUnits="userSpaceOnUse" x1="24.9663" y1="0.5049" x2="25.0313" y2="47.5981">
	<stop  offset="0" style="stop-color:#FFFFFF"/>
	<stop  offset="0.5779" style="stop-color:#FCFCFC"/>
	<stop  offset="1" style="stop-color:#F3F3F4"/>
</linearGradient>
<path fill="url(#SVGID_1_)" stroke="#CCCECE" stroke-miterlimit="10" d="M47.572,47.582c0,0.783-0.635,1.418-1.417,1.418H3.848
	c-0.783,0-1.418-0.635-1.418-1.418V3.977c0-0.783,0.635-1.417,1.418-1.417h42.308c0.782,0,1.417,0.635,1.417,1.417V47.582z"/>
<path fill="#747374" d="M36.439,17.935h-4.336v-3.536c0-1.314-1.067-2.382-2.381-2.382h-9.445c-1.313,0-2.383,1.068-2.383,2.382
	v3.536h-4.331c-0.738,0-1.335,0.597-1.335,1.333c0,0.737,0.598,1.334,1.335,1.334h2.308v17.714c0,0.691,0.564,1.256,1.255,1.256
	h15.792c0.693,0,1.258-0.564,1.258-1.256V20.602h2.266c0.731,0,1.332-0.597,1.332-1.334C37.773,18.531,37.173,17.935,36.439,17.935z
	 M20.307,14.771c0-0.5,0.406-0.904,0.906-0.904h7.574c0.501,0,0.906,0.404,0.906,0.904v3c0,0.057-0.01,0.114-0.02,0.165h-9.351
	c-0.01-0.051-0.018-0.108-0.018-0.165L20.307,14.771L20.307,14.771z M21.228,37.023c0,0.792-0.642,1.432-1.429,1.432
	c-0.786,0-1.428-0.64-1.428-1.432V21.938c0-0.788,0.642-1.428,1.428-1.428c0.787,0,1.429,0.64,1.429,1.428V37.023z M26.539,37.023
	c0,0.792-0.643,1.432-1.429,1.432c-0.789,0-1.428-0.64-1.428-1.432V21.938c0-0.788,0.639-1.428,1.428-1.428
	c0.786,0,1.429,0.64,1.429,1.428V37.023z M31.852,37.023c0,0.792-0.642,1.432-1.429,1.432c-0.786,0-1.429-0.64-1.429-1.432V21.938
	c0-0.788,0.643-1.428,1.429-1.428c0.787,0,1.429,0.64,1.429,1.428V37.023z"/>
</svg>
