<?xml version="1.0" encoding="utf-8"?>
<!-- Generator: Adobe Illustrator 15.1.0, SVG Export Plug-In . SVG Version: 6.00 Build 0)  -->
<!DOCTYPE svg PUBLIC "-//W3C//DTD SVG 1.1//EN" "http://www.w3.org/Graphics/SVG/1.1/DTD/svg11.dtd" [
	<!ENTITY ns_flows "http://ns.adobe.com/Flows/1.0/">
	<!ENTITY ns_extend "http://ns.adobe.com/Extensibility/1.0/">
	<!ENTITY ns_ai "http://ns.adobe.com/AdobeIllustrator/10.0/">
	<!ENTITY ns_graphs "http://ns.adobe.com/Graphs/1.0/">
]>
<svg version="1.1" id="圖層_1" xmlns:x="&ns_extend;" xmlns:i="&ns_ai;" xmlns:graph="&ns_graphs;"
	 xmlns="http://www.w3.org/2000/svg" xmlns:xlink="http://www.w3.org/1999/xlink" xmlns:a="http://ns.adobe.com/AdobeSVGViewerExtensions/3.0/"
	 x="0px" y="0px" width="27px" height="27px" viewBox="0 0 27 27" enable-background="new 0 0 27 27" xml:space="preserve">
<g>
	<g opacity="0.67"  a:adobe-blending-mode="multiply"  a:adobe-opacity-share="1">
		<path fill="#66A135"  a:adobe-blending-mode="normal"  a:adobe-opacity-share="0" d="M25.094,23.619l-5.192-5.578
			c1.331-1.617,2.133-3.688,2.133-5.944c0-5.169-4.206-9.374-9.374-9.374c-5.169,0-9.375,4.205-9.375,9.374
			c0,5.168,4.206,9.375,9.375,9.375c1.859,0,3.591-0.552,5.049-1.49l5.244,5.632c0.289,0.309,0.68,0.465,1.071,0.465
			c0.356,0,0.714-0.129,0.996-0.391C25.612,25.136,25.645,24.21,25.094,23.619z M5.977,12.097c0-3.685,2.998-6.683,6.684-6.683
			c3.684,0,6.682,2.998,6.682,6.683c0,3.684-2.998,6.682-6.682,6.682C8.975,18.779,5.977,15.781,5.977,12.097z"/>
	</g>
	<g>
		<path fill="#FFFFFF" d="M24.794,23.319l-5.192-5.578c1.331-1.617,2.133-3.688,2.133-5.944c0-5.169-4.206-9.374-9.374-9.374
			c-5.169,0-9.375,4.205-9.375,9.374c0,5.168,4.206,9.375,9.375,9.375c1.859,0,3.591-0.552,5.049-1.49l5.244,5.632
			c0.289,0.309,0.68,0.465,1.071,0.465c0.356,0,0.714-0.129,0.996-0.391C25.312,24.836,25.345,23.911,24.794,23.319z M5.677,11.797
			c0-3.685,2.998-6.683,6.684-6.683c3.684,0,6.682,2.998,6.682,6.683c0,3.684-2.998,6.682-6.682,6.682
			C8.675,18.479,5.677,15.481,5.677,11.797z"/>
	</g>
</g>
</svg>
