<?xml version="1.0" encoding="utf-8"?>
<!-- Generator: Adobe Illustrator 15.1.0, SVG Export Plug-In . SVG Version: 6.00 Build 0)  -->
<!DOCTYPE svg PUBLIC "-//W3C//DTD SVG 1.1//EN" "http://www.w3.org/Graphics/SVG/1.1/DTD/svg11.dtd" [
	<!ENTITY ns_flows "http://ns.adobe.com/Flows/1.0/">
	<!ENTITY ns_extend "http://ns.adobe.com/Extensibility/1.0/">
	<!ENTITY ns_ai "http://ns.adobe.com/AdobeIllustrator/10.0/">
	<!ENTITY ns_graphs "http://ns.adobe.com/Graphs/1.0/">
]>
<svg version="1.1" id="圖層_3_拷貝" xmlns:x="&ns_extend;" xmlns:i="&ns_ai;" xmlns:graph="&ns_graphs;"
	 xmlns="http://www.w3.org/2000/svg" xmlns:xlink="http://www.w3.org/1999/xlink" xmlns:a="http://ns.adobe.com/AdobeSVGViewerExtensions/3.0/"
	 x="0px" y="0px" width="238px" height="238px" viewBox="0 0 238 238" enable-background="new 0 0 238 238" xml:space="preserve">
	 <filter id="dropshadow" height="130%">
		<feGaussianBlur in="SourceAlpha" stdDeviation="1"/> 
		<feOffset dx="2" dy="2" result="offsetblur"/>
		<feComposite operator="out" in="SourceAlpha" in2="offset-blur" result="inverse"/>
		<feMerge> 
			<feMergeNode/>
			<feMergeNode in="SourceGraphic"/> 
		</feMerge>
	</filter>
<g  filter="url(#dropshadow)">
	<path fill="#FFFFFF" d="M14.197,152.99v-3.059h3.058v3.059H14.197z M14.197,167.081v-12.053h3.058v12.053H14.197z"/>
	<path fill="#FFFFFF" d="M34.178,153.244v13.837h-3.21v-13.837h-5.3v-3.007h13.786v3.007H34.178z"/>
	<path fill="#FFFFFF" d="M56.277,166.342c-1.147,0.713-2.701,1.096-4.638,1.096c-1.937,0-3.415-0.561-4.434-1.682
		c-0.994-1.07-1.503-2.574-1.529-4.562h3.338c0.025,1.197,0.255,2.038,0.714,2.522c0.433,0.484,1.223,0.714,2.344,0.714
		c0.764,0,1.427-0.153,1.987-0.484c0.612-0.383,0.943-0.918,0.943-1.631c0-0.739-0.484-1.3-1.452-1.656
		c-0.663-0.204-1.656-0.51-2.981-0.969c-3.007-1.045-4.485-2.624-4.485-4.739c0-1.555,0.611-2.804,1.834-3.746
		c1.096-0.866,2.446-1.3,4.077-1.3c1.835,0,3.287,0.459,4.357,1.351c1.122,0.969,1.682,2.396,1.733,4.256h-3.313
		c-0.077-1.733-0.943-2.6-2.625-2.6c-0.713,0-1.299,0.153-1.809,0.434c-0.611,0.356-0.892,0.815-0.892,1.427
		c0,0.586,0.356,1.07,1.07,1.452c0.102,0.052,0.739,0.307,1.86,0.714c1.351,0.51,2.039,0.765,2.064,0.765
		c0.867,0.356,1.503,0.662,1.911,0.917c1.325,0.893,1.988,2.09,1.988,3.619C58.341,164.099,57.653,165.475,56.277,166.342z"/>
	<path fill="#FFFFFF" d="M85.555,148.816v2.545H73.438l-0.701,2.731h10.739l-2.568,11.953h5.206v2.545H65.314v-2.545h12.84
		l0.537-3.012H70.52l-0.374,1.541l-2.731-0.351l3.292-12.863h-5.02v-2.545H85.555z M79.858,156.637h-7.751l-0.957,3.852h8.008
		L79.858,156.637z"/>
	<path fill="#FFFFFF" d="M105.291,149.983c-1.494,0.188-3.035,0.374-4.646,0.514v1.051h4.646v2.265h-4.646v0.561h4.366v7.938h-4.366
		v0.724h3.922v2.194h-3.922v0.747c1.401-0.07,2.662-0.14,3.829-0.21l0.14,0.817c0.98-1.191,1.751-2.662,2.288-4.437
		c0.56-1.773,0.887-4.249,1.004-7.424h-2.148v-2.451h2.171v-4.202h2.732v4.202h3.665c-0.047,6.396-0.304,11.206-0.794,14.428
		c-0.14,0.724-0.49,1.308-1.004,1.751c-0.561,0.396-1.214,0.607-1.938,0.607c-0.537,0-1.144-0.094-1.845-0.28l-0.257-2.545
		c0.841,0.304,1.541,0.443,2.102,0.443c0.187,0,0.351-0.116,0.49-0.373c0.117-0.188,0.21-0.724,0.304-1.635
		c0.233-3.081,0.35-6.396,0.373-9.945h-1.12c-0.094,3.688-0.537,6.7-1.308,9.035c-0.7,2.055-1.751,3.759-3.128,5.112l-1.447-1.447
		l0.07,0.443c-3.268,0.351-6.91,0.654-10.926,0.911l-0.467-2.545c1.681-0.047,3.269-0.094,4.739-0.163v-0.841h-4.459v-2.194h4.459
		v-0.724h-4.459v-7.938h4.459v-0.561h-4.833v-2.265h4.833v-0.841c-1.284,0.117-2.591,0.21-3.922,0.28l-0.817-2.171
		c3.875-0.21,7.471-0.514,10.762-0.934L105.291,149.983z M98.17,157.291v-0.653h-2.008v0.653H98.17z M98.17,160.022v-0.631h-2.008
		v0.631H98.17z M100.645,157.291h1.915v-0.653h-1.915V157.291z M100.645,160.022h1.915v-0.631h-1.915V160.022z"/>
	<path fill="#FFFFFF" d="M125.47,149.54v-1.564h2.568v1.564h2.265v1.377c0.373-0.49,0.747-0.98,1.097-1.471l2.195,1.191
		c-0.584,0.84-1.191,1.657-1.821,2.451h1.354v1.4c0.234-0.514,0.468-1.051,0.654-1.587c0.7-1.705,1.261-3.315,1.634-4.833
		l2.545,0.747c-0.257,1.027-0.537,2.008-0.841,2.988h5.229v2.661h-1.144c-0.257,1.915-0.7,3.782-1.331,5.604
		c-0.326,0.934-0.7,1.798-1.073,2.591c1.027,1.564,2.311,2.872,3.828,3.923l-1.657,2.567c-1.541-1.237-2.802-2.521-3.759-3.875
		c-0.094,0.116-0.163,0.21-0.233,0.304c-1.167,1.54-2.404,2.685-3.759,3.385l-1.447-2.288c1.261-0.724,2.381-1.728,3.338-3.035
		c0.211-0.279,0.397-0.56,0.584-0.84c-0.63-1.214-1.167-2.592-1.588-4.156c-0.116,0.211-0.233,0.397-0.326,0.561l-1.658-1.261v0.631
		c-1.026,1.214-2.194,2.265-3.548,3.151v0.443c1.447-0.187,2.755-0.396,3.922-0.606l0.373,2.381c-1.4,0.28-2.824,0.537-4.295,0.747
		v1.704c0,1.121-0.21,1.821-0.607,2.148c-0.467,0.396-1.237,0.606-2.312,0.606c-0.606,0-1.144-0.047-1.634-0.093l-0.467-2.662
		c0.7,0.257,1.4,0.374,2.101,0.374c0.094,0,0.188-0.047,0.28-0.141c0.047-0.14,0.094-0.396,0.094-0.771v-0.793
		c-1.331,0.187-2.708,0.373-4.109,0.514l-0.467-2.639c1.635-0.14,3.152-0.28,4.576-0.467v-2.638l1.167,0.093
		c0.607-0.35,1.145-0.747,1.658-1.19h-2.615c-1.167,0.934-2.357,1.821-3.595,2.661l-1.448-2.287c1.682-0.98,3.315-2.195,4.903-3.643
		h-4.646v-2.381h4.016v-1.19h-3.012v-2.358H125.47z M129.509,151.898h-1.471v1.19h0.42
		C128.833,152.691,129.182,152.294,129.509,151.898z M132.661,155.469h-2.941c-0.35,0.397-0.7,0.771-1.051,1.098h3.386
		C132.264,156.193,132.474,155.843,132.661,155.469z M137.213,159.718c0.094-0.257,0.21-0.514,0.304-0.794
		c0.467-1.4,0.817-2.871,1.051-4.459h-2.429c-0.14,0.327-0.257,0.654-0.396,0.934C136.139,157.034,136.629,158.458,137.213,159.718z
		"/>
	<path fill="#FFFFFF" d="M156.786,149.983c-0.98,0.304-2.008,0.537-3.081,0.678l0.023,0.7h3.151v1.914h-3.105v0.63h3.105v1.915
		h-3.059l0.023,0.747h4.133l-0.817-1.378c0.49-0.21,0.957-0.443,1.424-0.7c-0.42-0.28-0.841-0.537-1.261-0.771l1.027-1.237
		c-0.14,0.07-0.257,0.117-0.373,0.164l-1.004-1.751c0.396-0.141,0.84-0.327,1.307-0.584c-0.42-0.233-0.816-0.467-1.214-0.677
		l1.261-1.564c0.631,0.327,1.261,0.7,1.868,1.074c0.49-0.351,0.934-0.701,1.33-1.074l1.541,1.284c-0.327,0.35-0.7,0.677-1.097,0.98
		c0.373,0.28,0.724,0.561,1.097,0.84l-1.004,1.121l1.004,1.167c-0.327,0.374-0.677,0.7-1.004,0.98
		c0.327,0.257,0.631,0.514,0.934,0.747l-1.237,1.378h4.272l0.047-0.747h-2.638v-1.915h2.731l0.023-0.724h-2.849v-1.914h2.941
		l0.023-0.724h-2.871v-2.194h5.299l-0.326,8.218h1.867v4.179h-2.451v-2.008h-15.525v2.008h-2.451v-4.179h1.588l-0.304-7.845
		c1.588-0.14,3.059-0.42,4.459-0.84L156.786,149.983z M166.895,159.555v1.938c-1.261,0.747-2.451,1.4-3.572,1.914h6.957v2.172
		h-8.848v0.816c0,1.121-0.21,1.821-0.607,2.148c-0.42,0.396-1.167,0.606-2.218,0.606c-0.841,0-1.634-0.069-2.381-0.187l-0.444-2.638
		c0.935,0.303,1.868,0.443,2.825,0.443c0.07,0,0.14-0.047,0.21-0.141c0.047-0.14,0.07-0.396,0.07-0.771v-0.279h-8.941v-2.172h8.941
		v-1.283l2.241,0.163c0.537-0.233,1.051-0.467,1.564-0.724h-9.386v-2.008H166.895z M161.245,156.567
		c-0.326-0.28-0.63-0.537-0.934-0.817c-0.467,0.304-1.004,0.584-1.564,0.817H161.245z M160.428,153.275
		c0.303-0.233,0.583-0.467,0.863-0.747c-0.396-0.351-0.771-0.653-1.144-0.934c-0.49,0.28-0.934,0.514-1.354,0.7
		C159.354,152.622,159.915,152.948,160.428,153.275z"/>
	<path fill="#FFFFFF" d="M197.207,148.722v2.639h-7.657v7.844h8.848v2.639h-8.848v7.214h-2.919v-7.214h-8.661v-2.639h8.661v-7.844
		h-7.563v-2.639H197.207z M184.623,157.641l-2.731,1.19c-0.514-2.055-1.167-3.923-1.914-5.557l2.451-1.19
		C183.292,153.789,184.016,155.633,184.623,157.641z M196.203,152.902c-0.607,2.381-1.261,4.342-2.008,5.93l-2.638-1.354
		c0.84-1.844,1.471-3.665,1.914-5.486L196.203,152.902z"/>
	<path fill="#FFFFFF" d="M216.943,148.722c-0.678,1.214-1.588,2.451-2.709,3.759c-0.653,0.794-1.307,1.471-1.961,2.055
		c3.176-0.14,6.07-0.327,8.639-0.537c-0.607-0.7-1.261-1.4-1.961-2.101l2.357-1.448c1.984,1.821,3.596,3.735,4.833,5.743
		l-2.639,1.541c-0.304-0.537-0.63-1.074-0.98-1.587c-4.763,0.536-10.016,0.98-15.712,1.33l-0.443-2.661
		c0.888-0.023,1.774-0.07,2.615-0.117c0.887-0.887,1.681-1.82,2.428-2.801c1.027-1.354,1.867-2.709,2.521-4.086L216.943,148.722z
		 M224.414,169.057h-2.639v-1.098h-10.949v1.098h-2.638v-10.67h16.226V169.057z M221.775,165.485v-4.646h-10.949v4.646H221.775z"/>
</g>
<g  filter="url(#dropshadow)">
	<path fill="#426731" d="M13.844,178.038v-1.011h0.879v1.011H13.844z M13.844,184.185V179h0.879v5.186H13.844z"/>
	<path fill="#426731" d="M16.161,184.185V179h0.791v0.737c0.381-0.569,0.931-0.854,1.65-0.854c0.313,0,0.6,0.056,0.862,0.169
		c0.262,0.111,0.458,0.259,0.588,0.441s0.221,0.398,0.273,0.649c0.033,0.163,0.049,0.447,0.049,0.854v3.188h-0.879v-3.154
		c0-0.358-0.034-0.626-0.103-0.804c-0.068-0.177-0.189-0.318-0.364-0.424c-0.174-0.106-0.378-0.159-0.613-0.159
		c-0.375,0-0.697,0.119-0.969,0.356s-0.408,0.688-0.408,1.353v2.832H16.161z"/>
	<path fill="#426731" d="M23.741,183.399l0.127,0.776c-0.248,0.052-0.469,0.078-0.664,0.078c-0.319,0-0.566-0.051-0.742-0.151
		s-0.299-0.233-0.371-0.398c-0.072-0.164-0.107-0.51-0.107-1.037v-2.983h-0.645V179h0.645v-1.284l0.874-0.527V179h0.884v0.684
		h-0.884v3.032c0,0.251,0.016,0.412,0.046,0.483s0.082,0.129,0.151,0.171s0.17,0.063,0.3,0.063
		C23.453,183.433,23.582,183.421,23.741,183.399z"/>
	<path fill="#426731" d="M28.25,182.515l0.908,0.112c-0.143,0.53-0.409,0.942-0.796,1.235s-0.882,0.439-1.484,0.439
		c-0.758,0-1.36-0.233-1.804-0.7c-0.444-0.468-0.667-1.123-0.667-1.966c0-0.872,0.225-1.55,0.674-2.031s1.032-0.723,1.748-0.723
		c0.693,0,1.26,0.236,1.699,0.708s0.659,1.136,0.659,1.992c0,0.052-0.001,0.13-0.005,0.234h-3.867
		c0.033,0.569,0.194,1.006,0.483,1.309s0.651,0.454,1.084,0.454c0.322,0,0.597-0.085,0.825-0.254S28.117,182.886,28.25,182.515z
		 M25.364,181.094h2.896c-0.039-0.437-0.15-0.764-0.332-0.981c-0.28-0.339-0.643-0.508-1.089-0.508
		c-0.404,0-0.743,0.135-1.018,0.405S25.394,180.642,25.364,181.094z"/>
	<path fill="#426731" d="M30.352,184.185V179h0.791v0.786c0.202-0.368,0.388-0.61,0.559-0.728s0.359-0.176,0.564-0.176
		c0.296,0,0.597,0.095,0.903,0.283l-0.303,0.815c-0.215-0.127-0.43-0.19-0.645-0.19c-0.192,0-0.365,0.058-0.518,0.173
		c-0.153,0.116-0.262,0.276-0.327,0.481c-0.098,0.313-0.146,0.654-0.146,1.025v2.715H30.352z"/>
	<path fill="#426731" d="M37.176,183.545c-0.326,0.276-0.639,0.472-0.94,0.586s-0.624,0.171-0.969,0.171
		c-0.57,0-1.007-0.14-1.313-0.417c-0.306-0.279-0.459-0.635-0.459-1.067c0-0.254,0.058-0.485,0.173-0.696
		c0.116-0.209,0.267-0.378,0.454-0.505s0.398-0.223,0.632-0.288c0.172-0.046,0.433-0.09,0.781-0.132
		c0.709-0.085,1.232-0.186,1.567-0.303c0.003-0.12,0.005-0.197,0.005-0.229c0-0.358-0.083-0.61-0.249-0.757
		c-0.225-0.198-0.558-0.298-1.001-0.298c-0.414,0-0.719,0.072-0.916,0.217c-0.197,0.146-0.343,0.401-0.437,0.77l-0.859-0.117
		c0.078-0.368,0.207-0.665,0.386-0.891c0.179-0.227,0.438-0.4,0.776-0.523c0.338-0.121,0.731-0.183,1.177-0.183
		c0.443,0,0.802,0.052,1.079,0.156s0.48,0.235,0.61,0.394c0.13,0.157,0.221,0.356,0.273,0.598c0.029,0.149,0.044,0.42,0.044,0.811
		v1.172c0,0.817,0.019,1.334,0.056,1.551c0.038,0.216,0.111,0.424,0.222,0.622h-0.918C37.26,184.002,37.202,183.79,37.176,183.545z
		 M37.103,181.583c-0.319,0.13-0.797,0.241-1.436,0.332c-0.361,0.052-0.617,0.11-0.767,0.176s-0.265,0.16-0.347,0.285
		c-0.082,0.126-0.122,0.265-0.122,0.418c0,0.234,0.089,0.43,0.266,0.586s0.437,0.234,0.779,0.234c0.338,0,0.64-0.074,0.903-0.223
		c0.264-0.147,0.458-0.351,0.581-0.607c0.094-0.198,0.142-0.491,0.142-0.879V181.583z"/>
	<path fill="#426731" d="M42.837,182.286l0.864,0.112c-0.094,0.596-0.336,1.062-0.725,1.399c-0.389,0.336-0.867,0.505-1.433,0.505
		c-0.709,0-1.28-0.231-1.711-0.696c-0.431-0.463-0.647-1.128-0.647-1.994c0-0.56,0.093-1.05,0.278-1.47s0.468-0.735,0.847-0.944
		c0.379-0.211,0.792-0.315,1.238-0.315c0.563,0,1.024,0.143,1.382,0.427c0.358,0.285,0.587,0.689,0.688,1.214l-0.854,0.132
		c-0.082-0.349-0.226-0.61-0.432-0.786s-0.457-0.264-0.75-0.264c-0.443,0-0.802,0.159-1.079,0.476
		c-0.277,0.318-0.415,0.82-0.415,1.507c0,0.696,0.133,1.203,0.4,1.519s0.615,0.474,1.045,0.474c0.345,0,0.633-0.105,0.864-0.317
		S42.775,182.725,42.837,182.286z"/>
	<path fill="#426731" d="M46.473,183.399l0.127,0.776c-0.248,0.052-0.469,0.078-0.664,0.078c-0.319,0-0.566-0.051-0.742-0.151
		s-0.299-0.233-0.371-0.398c-0.072-0.164-0.107-0.51-0.107-1.037v-2.983H44.07V179h0.645v-1.284l0.874-0.527V179h0.884v0.684h-0.884
		v3.032c0,0.251,0.016,0.412,0.046,0.483s0.082,0.129,0.151,0.171s0.17,0.063,0.3,0.063
		C46.185,183.433,46.313,183.421,46.473,183.399z"/>
	<path fill="#426731" d="M47.437,178.038v-1.011h0.879v1.011H47.437z M47.437,184.185V179h0.879v5.186H47.437z"/>
	<path fill="#426731" d="M51.194,184.185L49.221,179h0.928l1.113,3.105c0.121,0.335,0.231,0.684,0.332,1.045
		c0.078-0.273,0.187-0.603,0.327-0.986L53.074,179h0.903l-1.963,5.186H51.194z"/>
	<path fill="#426731" d="M58.403,182.515l0.908,0.112c-0.143,0.53-0.409,0.942-0.796,1.235s-0.882,0.439-1.484,0.439
		c-0.758,0-1.36-0.233-1.804-0.7c-0.444-0.468-0.667-1.123-0.667-1.966c0-0.872,0.225-1.55,0.674-2.031s1.032-0.723,1.748-0.723
		c0.693,0,1.26,0.236,1.699,0.708s0.659,1.136,0.659,1.992c0,0.052-0.001,0.13-0.005,0.234h-3.867
		c0.033,0.569,0.194,1.006,0.483,1.309s0.651,0.454,1.084,0.454c0.322,0,0.597-0.085,0.825-0.254S58.27,182.886,58.403,182.515z
		 M55.518,181.094h2.896c-0.039-0.437-0.15-0.764-0.332-0.981c-0.28-0.339-0.643-0.508-1.089-0.508
		c-0.404,0-0.743,0.135-1.018,0.405S55.547,180.642,55.518,181.094z"/>
	<path fill="#426731" d="M65.327,184.185v-6.313h-2.358v-0.845h5.674v0.845h-2.368v6.313H65.327z"/>
	<path fill="#426731" d="M73.151,182.515l0.908,0.112c-0.143,0.53-0.409,0.942-0.796,1.235s-0.882,0.439-1.484,0.439
		c-0.758,0-1.36-0.233-1.804-0.7c-0.444-0.468-0.667-1.123-0.667-1.966c0-0.872,0.225-1.55,0.674-2.031s1.032-0.723,1.748-0.723
		c0.693,0,1.26,0.236,1.699,0.708s0.659,1.136,0.659,1.992c0,0.052-0.001,0.13-0.005,0.234h-3.867
		c0.033,0.569,0.194,1.006,0.483,1.309s0.651,0.454,1.084,0.454c0.322,0,0.597-0.085,0.825-0.254S73.018,182.886,73.151,182.515z
		 M70.266,181.094h2.896c-0.039-0.437-0.15-0.764-0.332-0.981c-0.28-0.339-0.643-0.508-1.089-0.508
		c-0.404,0-0.743,0.135-1.018,0.405S70.295,180.642,70.266,181.094z"/>
	<path fill="#426731" d="M78.647,183.545c-0.326,0.276-0.639,0.472-0.94,0.586s-0.624,0.171-0.969,0.171
		c-0.57,0-1.007-0.14-1.313-0.417c-0.306-0.279-0.459-0.635-0.459-1.067c0-0.254,0.058-0.485,0.173-0.696
		c0.116-0.209,0.267-0.378,0.454-0.505s0.398-0.223,0.632-0.288c0.172-0.046,0.433-0.09,0.781-0.132
		c0.709-0.085,1.232-0.186,1.567-0.303c0.003-0.12,0.005-0.197,0.005-0.229c0-0.358-0.083-0.61-0.249-0.757
		c-0.225-0.198-0.558-0.298-1.001-0.298c-0.414,0-0.719,0.072-0.916,0.217c-0.197,0.146-0.343,0.401-0.437,0.77l-0.859-0.117
		c0.078-0.368,0.207-0.665,0.386-0.891c0.179-0.227,0.438-0.4,0.776-0.523c0.338-0.121,0.731-0.183,1.177-0.183
		c0.443,0,0.802,0.052,1.079,0.156s0.48,0.235,0.61,0.394c0.13,0.157,0.221,0.356,0.273,0.598c0.029,0.149,0.044,0.42,0.044,0.811
		v1.172c0,0.817,0.019,1.334,0.056,1.551c0.038,0.216,0.111,0.424,0.222,0.622h-0.918C78.731,184.002,78.673,183.79,78.647,183.545z
		 M78.574,181.583c-0.319,0.13-0.797,0.241-1.436,0.332c-0.361,0.052-0.617,0.11-0.767,0.176s-0.265,0.16-0.347,0.285
		c-0.082,0.126-0.122,0.265-0.122,0.418c0,0.234,0.089,0.43,0.266,0.586s0.437,0.234,0.779,0.234c0.338,0,0.64-0.074,0.903-0.223
		c0.264-0.147,0.458-0.351,0.581-0.607c0.094-0.198,0.142-0.491,0.142-0.879V181.583z"/>
	<path fill="#426731" d="M84.309,182.286l0.864,0.112c-0.094,0.596-0.336,1.062-0.725,1.399c-0.389,0.336-0.867,0.505-1.433,0.505
		c-0.709,0-1.28-0.231-1.711-0.696c-0.431-0.463-0.647-1.128-0.647-1.994c0-0.56,0.093-1.05,0.278-1.47s0.468-0.735,0.847-0.944
		c0.379-0.211,0.792-0.315,1.238-0.315c0.563,0,1.024,0.143,1.382,0.427c0.358,0.285,0.587,0.689,0.688,1.214l-0.854,0.132
		c-0.082-0.349-0.226-0.61-0.432-0.786s-0.457-0.264-0.75-0.264c-0.443,0-0.802,0.159-1.079,0.476
		c-0.277,0.318-0.415,0.82-0.415,1.507c0,0.696,0.133,1.203,0.4,1.519s0.615,0.474,1.045,0.474c0.345,0,0.633-0.105,0.864-0.317
		S84.247,182.725,84.309,182.286z"/>
	<path fill="#426731" d="M86.025,184.185v-7.158h0.879v2.568c0.41-0.476,0.928-0.713,1.553-0.713c0.384,0,0.718,0.075,1.001,0.228
		c0.283,0.15,0.486,0.36,0.608,0.627s0.183,0.654,0.183,1.162v3.286H89.37v-3.286c0-0.439-0.095-0.76-0.286-0.959
		c-0.19-0.201-0.46-0.301-0.808-0.301c-0.26,0-0.505,0.067-0.735,0.203c-0.229,0.135-0.393,0.317-0.491,0.549
		s-0.146,0.55-0.146,0.957v2.837H86.025z"/>
	<path fill="#426731" d="M95.236,182.515l0.908,0.112c-0.143,0.53-0.409,0.942-0.796,1.235s-0.882,0.439-1.484,0.439
		c-0.758,0-1.36-0.233-1.804-0.7c-0.444-0.468-0.667-1.123-0.667-1.966c0-0.872,0.225-1.55,0.674-2.031s1.032-0.723,1.748-0.723
		c0.693,0,1.26,0.236,1.699,0.708s0.659,1.136,0.659,1.992c0,0.052-0.001,0.13-0.005,0.234h-3.867
		c0.033,0.569,0.194,1.006,0.483,1.309s0.651,0.454,1.084,0.454c0.322,0,0.597-0.085,0.825-0.254S95.103,182.886,95.236,182.515z
		 M92.351,181.094h2.896c-0.039-0.437-0.15-0.764-0.332-0.981c-0.28-0.339-0.643-0.508-1.089-0.508
		c-0.404,0-0.743,0.135-1.018,0.405S92.38,180.642,92.351,181.094z"/>
	<path fill="#426731" d="M97.338,184.185V179h0.791v0.786c0.202-0.368,0.388-0.61,0.559-0.728s0.359-0.176,0.564-0.176
		c0.296,0,0.597,0.095,0.903,0.283l-0.303,0.815c-0.215-0.127-0.43-0.19-0.645-0.19c-0.192,0-0.365,0.058-0.518,0.173
		c-0.153,0.116-0.262,0.276-0.327,0.481c-0.098,0.313-0.146,0.654-0.146,1.025v2.715H97.338z"/>
	<path fill="#426731" d="M107.748,183.34c-0.29,0.322-0.605,0.564-0.947,0.725c-0.342,0.162-0.711,0.242-1.108,0.242
		c-0.732,0-1.313-0.247-1.743-0.742c-0.348-0.403-0.522-0.854-0.522-1.353c0-0.442,0.143-0.843,0.427-1.198
		c0.285-0.357,0.71-0.67,1.277-0.94c-0.322-0.371-0.537-0.672-0.645-0.903s-0.161-0.454-0.161-0.669c0-0.43,0.168-0.804,0.505-1.12
		c0.337-0.318,0.761-0.477,1.272-0.477c0.488,0,0.888,0.149,1.199,0.449s0.466,0.659,0.466,1.079c0,0.681-0.451,1.262-1.353,1.743
		l1.284,1.636c0.146-0.286,0.26-0.618,0.342-0.996l0.913,0.195c-0.156,0.625-0.368,1.14-0.635,1.543
		c0.329,0.437,0.702,0.803,1.118,1.099l-0.591,0.698C108.492,184.124,108.125,183.787,107.748,183.34z M107.196,182.647
		l-1.611-1.997c-0.475,0.283-0.796,0.546-0.962,0.788c-0.166,0.243-0.249,0.483-0.249,0.721c0,0.29,0.116,0.591,0.347,0.903
		s0.558,0.469,0.981,0.469c0.264,0,0.536-0.082,0.818-0.247C106.802,183.12,107.027,182.908,107.196,182.647z M105.961,179.61
		c0.381-0.225,0.627-0.422,0.74-0.591s0.168-0.356,0.168-0.562c0-0.244-0.077-0.443-0.232-0.598
		c-0.155-0.155-0.348-0.232-0.579-0.232c-0.238,0-0.436,0.076-0.593,0.229s-0.237,0.34-0.237,0.562c0,0.11,0.028,0.227,0.085,0.35
		c0.057,0.121,0.143,0.251,0.256,0.388L105.961,179.61z"/>
	<path fill="#426731" d="M113.095,181.885l0.894-0.078c0.042,0.358,0.141,0.652,0.295,0.881c0.155,0.23,0.395,0.416,0.72,0.557
		c0.326,0.143,0.692,0.213,1.099,0.213c0.361,0,0.68-0.054,0.957-0.161s0.482-0.255,0.618-0.442
		c0.135-0.187,0.203-0.391,0.203-0.612c0-0.225-0.065-0.421-0.195-0.589c-0.13-0.167-0.345-0.308-0.645-0.422
		c-0.192-0.075-0.617-0.191-1.274-0.35c-0.658-0.157-1.118-0.307-1.382-0.446c-0.342-0.179-0.597-0.401-0.764-0.667
		c-0.167-0.265-0.251-0.562-0.251-0.891c0-0.361,0.103-0.699,0.308-1.014c0.205-0.313,0.504-0.552,0.898-0.715
		s0.832-0.244,1.313-0.244c0.531,0,0.999,0.086,1.404,0.256c0.405,0.172,0.717,0.423,0.935,0.755s0.335,0.708,0.352,1.128
		l-0.908,0.068c-0.049-0.452-0.214-0.794-0.496-1.025s-0.697-0.347-1.248-0.347c-0.573,0-0.99,0.104-1.252,0.315
		c-0.262,0.209-0.393,0.463-0.393,0.759c0,0.257,0.093,0.469,0.278,0.635c0.182,0.166,0.658,0.336,1.428,0.511
		c0.77,0.174,1.298,0.326,1.584,0.456c0.417,0.192,0.724,0.436,0.923,0.729c0.199,0.295,0.298,0.635,0.298,1.019
		c0,0.381-0.109,0.739-0.327,1.077c-0.218,0.336-0.531,0.599-0.94,0.785c-0.409,0.188-0.868,0.281-1.379,0.281
		c-0.648,0-1.19-0.095-1.628-0.283s-0.781-0.473-1.03-0.852C113.239,182.792,113.108,182.364,113.095,181.885z"/>
	<path fill="#426731" d="M121.993,183.399l0.127,0.776c-0.247,0.052-0.469,0.078-0.664,0.078c-0.318,0-0.566-0.051-0.742-0.151
		s-0.299-0.233-0.371-0.398c-0.072-0.164-0.107-0.51-0.107-1.037v-2.983h-0.645V179h0.645v-1.284l0.875-0.527V179h0.883v0.684
		h-0.883v3.032c0,0.251,0.015,0.412,0.046,0.483s0.081,0.129,0.151,0.171s0.17,0.063,0.301,0.063
		C121.706,183.433,121.833,183.421,121.993,183.399z"/>
	<path fill="#426731" d="M126.351,184.185v-0.762c-0.403,0.586-0.952,0.879-1.646,0.879c-0.306,0-0.592-0.059-0.857-0.176
		c-0.265-0.117-0.462-0.265-0.59-0.442c-0.129-0.177-0.22-0.395-0.271-0.651c-0.036-0.173-0.054-0.446-0.054-0.82V179h0.879v2.876
		c0,0.459,0.018,0.769,0.054,0.928c0.056,0.231,0.173,0.412,0.352,0.545c0.179,0.131,0.4,0.197,0.664,0.197s0.511-0.067,0.742-0.203
		c0.231-0.135,0.395-0.318,0.49-0.551c0.097-0.233,0.145-0.571,0.145-1.014V179h0.879v5.186H126.351z"/>
	<path fill="#426731" d="M131.979,184.185v-0.654c-0.329,0.515-0.813,0.771-1.45,0.771c-0.413,0-0.794-0.114-1.14-0.342
		c-0.348-0.228-0.615-0.546-0.807-0.954c-0.189-0.409-0.285-0.879-0.285-1.409c0-0.518,0.086-0.987,0.259-1.409
		c0.173-0.421,0.432-0.744,0.776-0.969s0.73-0.337,1.157-0.337c0.313,0,0.591,0.065,0.835,0.198
		c0.244,0.131,0.442,0.303,0.596,0.515v-2.568h0.874v7.158H131.979z M129.201,181.597c0,0.664,0.14,1.16,0.42,1.489
		s0.61,0.493,0.991,0.493c0.384,0,0.711-0.157,0.979-0.472c0.27-0.313,0.403-0.793,0.403-1.438c0-0.71-0.137-1.23-0.41-1.563
		s-0.61-0.498-1.011-0.498c-0.391,0-0.717,0.159-0.979,0.479C129.332,180.408,129.201,180.911,129.201,181.597z"/>
	<path fill="#426731" d="M137.826,182.515l0.908,0.112c-0.144,0.53-0.408,0.942-0.796,1.235s-0.882,0.439-1.484,0.439
		c-0.759,0-1.359-0.233-1.805-0.7c-0.443-0.468-0.666-1.123-0.666-1.966c0-0.872,0.225-1.55,0.674-2.031s1.032-0.723,1.748-0.723
		c0.693,0,1.26,0.236,1.699,0.708s0.659,1.136,0.659,1.992c0,0.052-0.002,0.13-0.005,0.234h-3.867
		c0.032,0.569,0.193,1.006,0.483,1.309s0.651,0.454,1.084,0.454c0.322,0,0.598-0.085,0.825-0.254S137.692,182.886,137.826,182.515z
		 M134.94,181.094h2.896c-0.039-0.437-0.149-0.764-0.332-0.981c-0.28-0.339-0.643-0.508-1.089-0.508
		c-0.403,0-0.743,0.135-1.018,0.405C135.122,180.281,134.969,180.642,134.94,181.094z"/>
	<path fill="#426731" d="M139.937,184.185V179h0.791v0.737c0.381-0.569,0.931-0.854,1.65-0.854c0.313,0,0.6,0.056,0.862,0.169
		c0.262,0.111,0.458,0.259,0.588,0.441s0.222,0.398,0.273,0.649c0.032,0.163,0.049,0.447,0.049,0.854v3.188h-0.879v-3.154
		c0-0.358-0.034-0.626-0.103-0.804c-0.068-0.177-0.189-0.318-0.364-0.424c-0.174-0.106-0.378-0.159-0.612-0.159
		c-0.374,0-0.697,0.119-0.97,0.356c-0.271,0.237-0.407,0.688-0.407,1.353v2.832H139.937z"/>
	<path fill="#426731" d="M147.518,183.399l0.127,0.776c-0.247,0.052-0.469,0.078-0.664,0.078c-0.319,0-0.566-0.051-0.742-0.151
		s-0.3-0.233-0.371-0.398c-0.071-0.164-0.107-0.51-0.107-1.037v-2.983h-0.645V179h0.645v-1.284l0.874-0.527V179h0.884v0.684h-0.884
		v3.032c0,0.251,0.016,0.412,0.046,0.483c0.031,0.071,0.082,0.129,0.152,0.171c0.069,0.042,0.17,0.063,0.3,0.063
		C147.23,183.433,147.359,183.421,147.518,183.399z"/>
	<path fill="#426731" d="M151.145,181.885l0.894-0.078c0.042,0.358,0.141,0.652,0.296,0.881c0.154,0.23,0.395,0.416,0.72,0.557
		c0.325,0.143,0.691,0.213,1.099,0.213c0.361,0,0.681-0.054,0.957-0.161s0.482-0.255,0.617-0.442
		c0.136-0.187,0.203-0.391,0.203-0.612c0-0.225-0.065-0.421-0.195-0.589c-0.13-0.167-0.345-0.308-0.645-0.422
		c-0.192-0.075-0.617-0.191-1.274-0.35c-0.657-0.157-1.118-0.307-1.382-0.446c-0.342-0.179-0.597-0.401-0.764-0.667
		c-0.168-0.265-0.252-0.562-0.252-0.891c0-0.361,0.103-0.699,0.308-1.014c0.205-0.313,0.505-0.552,0.898-0.715
		s0.832-0.244,1.313-0.244c0.53,0,0.998,0.086,1.404,0.256c0.404,0.172,0.717,0.423,0.935,0.755s0.335,0.708,0.352,1.128
		l-0.908,0.068c-0.049-0.452-0.214-0.794-0.495-1.025c-0.282-0.231-0.698-0.347-1.248-0.347c-0.573,0-0.99,0.104-1.252,0.315
		c-0.263,0.209-0.394,0.463-0.394,0.759c0,0.257,0.093,0.469,0.278,0.635c0.183,0.166,0.658,0.336,1.428,0.511
		c0.771,0.174,1.299,0.326,1.585,0.456c0.417,0.192,0.725,0.436,0.923,0.729c0.198,0.295,0.298,0.635,0.298,1.019
		c0,0.381-0.109,0.739-0.327,1.077c-0.218,0.336-0.531,0.599-0.939,0.785c-0.409,0.188-0.869,0.281-1.38,0.281
		c-0.647,0-1.19-0.095-1.628-0.283c-0.438-0.188-0.781-0.473-1.031-0.852C151.29,182.792,151.158,182.364,151.145,181.885z"/>
	<path fill="#426731" d="M161.675,182.515l0.908,0.112c-0.144,0.53-0.408,0.942-0.796,1.235s-0.882,0.439-1.484,0.439
		c-0.759,0-1.359-0.233-1.805-0.7c-0.443-0.468-0.666-1.123-0.666-1.966c0-0.872,0.225-1.55,0.674-2.031s1.032-0.723,1.748-0.723
		c0.693,0,1.26,0.236,1.699,0.708s0.659,1.136,0.659,1.992c0,0.052-0.002,0.13-0.005,0.234h-3.867
		c0.032,0.569,0.193,1.006,0.483,1.309s0.651,0.454,1.084,0.454c0.322,0,0.598-0.085,0.825-0.254S161.542,182.886,161.675,182.515z
		 M158.79,181.094h2.896c-0.039-0.437-0.149-0.764-0.332-0.981c-0.28-0.339-0.643-0.508-1.089-0.508
		c-0.403,0-0.743,0.135-1.018,0.405C158.971,180.281,158.819,180.642,158.79,181.094z"/>
	<path fill="#426731" d="M163.777,184.185V179h0.791v0.786c0.202-0.368,0.388-0.61,0.56-0.728c0.17-0.117,0.358-0.176,0.563-0.176
		c0.296,0,0.598,0.095,0.903,0.283l-0.303,0.815c-0.215-0.127-0.43-0.19-0.645-0.19c-0.192,0-0.364,0.058-0.518,0.173
		c-0.153,0.116-0.262,0.276-0.327,0.481c-0.098,0.313-0.146,0.654-0.146,1.025v2.715H163.777z"/>
	<path fill="#426731" d="M168.658,184.185L166.685,179h0.928l1.113,3.105c0.12,0.335,0.231,0.684,0.332,1.045
		c0.078-0.273,0.188-0.603,0.327-0.986l1.152-3.164h0.903l-1.963,5.186H168.658z"/>
	<path fill="#426731" d="M172.322,178.038v-1.011h0.879v1.011H172.322z M172.322,184.185V179h0.879v5.186H172.322z"/>
	<path fill="#426731" d="M178.022,182.286l0.864,0.112c-0.095,0.596-0.336,1.062-0.726,1.399c-0.389,0.336-0.866,0.505-1.433,0.505
		c-0.71,0-1.28-0.231-1.712-0.696c-0.431-0.463-0.646-1.128-0.646-1.994c0-0.56,0.093-1.05,0.278-1.47s0.468-0.735,0.847-0.944
		c0.38-0.211,0.792-0.315,1.238-0.315c0.563,0,1.023,0.143,1.382,0.427c0.358,0.285,0.588,0.689,0.688,1.214l-0.854,0.132
		c-0.081-0.349-0.226-0.61-0.433-0.786c-0.206-0.176-0.456-0.264-0.749-0.264c-0.442,0-0.803,0.159-1.079,0.476
		c-0.276,0.318-0.415,0.82-0.415,1.507c0,0.696,0.134,1.203,0.4,1.519s0.615,0.474,1.045,0.474c0.345,0,0.633-0.105,0.864-0.317
		S177.96,182.725,178.022,182.286z"/>
	<path fill="#426731" d="M183.289,182.515l0.908,0.112c-0.144,0.53-0.408,0.942-0.796,1.235s-0.882,0.439-1.484,0.439
		c-0.759,0-1.359-0.233-1.805-0.7c-0.443-0.468-0.666-1.123-0.666-1.966c0-0.872,0.225-1.55,0.674-2.031s1.032-0.723,1.748-0.723
		c0.693,0,1.26,0.236,1.699,0.708s0.659,1.136,0.659,1.992c0,0.052-0.002,0.13-0.005,0.234h-3.867
		c0.032,0.569,0.193,1.006,0.483,1.309s0.651,0.454,1.084,0.454c0.322,0,0.598-0.085,0.825-0.254S183.155,182.886,183.289,182.515z
		 M180.403,181.094h2.896c-0.039-0.437-0.149-0.764-0.332-0.981c-0.28-0.339-0.643-0.508-1.089-0.508
		c-0.403,0-0.743,0.135-1.018,0.405C180.584,180.281,180.432,180.642,180.403,181.094z"/>
	<path fill="#426731" d="M188.391,184.185v-7.158h2.7c0.476,0,0.838,0.022,1.089,0.068c0.352,0.059,0.646,0.17,0.884,0.335
		c0.237,0.164,0.429,0.395,0.573,0.69c0.146,0.296,0.218,0.622,0.218,0.977c0,0.608-0.193,1.124-0.581,1.546
		c-0.388,0.421-1.087,0.632-2.1,0.632h-1.836v2.91H188.391z M189.338,180.43h1.851c0.612,0,1.047-0.114,1.304-0.342
		s0.386-0.549,0.386-0.962c0-0.3-0.075-0.556-0.228-0.769c-0.15-0.214-0.351-0.354-0.598-0.423
		c-0.159-0.042-0.454-0.063-0.884-0.063h-1.831V180.43z"/>
	<path fill="#426731" d="M195.029,184.185v-7.158h0.879v7.158H195.029z"/>
	<path fill="#426731" d="M200.754,183.545c-0.325,0.276-0.639,0.472-0.939,0.586c-0.302,0.114-0.625,0.171-0.97,0.171
		c-0.569,0-1.008-0.14-1.313-0.417c-0.306-0.279-0.459-0.635-0.459-1.067c0-0.254,0.058-0.485,0.174-0.696
		c0.115-0.209,0.267-0.378,0.453-0.505c0.188-0.127,0.398-0.223,0.633-0.288c0.173-0.046,0.433-0.09,0.781-0.132
		c0.71-0.085,1.232-0.186,1.567-0.303c0.003-0.12,0.005-0.197,0.005-0.229c0-0.358-0.083-0.61-0.249-0.757
		c-0.225-0.198-0.559-0.298-1.001-0.298c-0.413,0-0.719,0.072-0.916,0.217c-0.196,0.146-0.342,0.401-0.437,0.77l-0.859-0.117
		c0.078-0.368,0.207-0.665,0.386-0.891c0.179-0.227,0.438-0.4,0.776-0.523c0.339-0.121,0.73-0.183,1.177-0.183
		c0.442,0,0.803,0.052,1.079,0.156s0.48,0.235,0.61,0.394c0.13,0.157,0.222,0.356,0.273,0.598c0.029,0.149,0.044,0.42,0.044,0.811
		v1.172c0,0.817,0.019,1.334,0.056,1.551c0.038,0.216,0.112,0.424,0.223,0.622h-0.918
		C200.839,184.002,200.781,183.79,200.754,183.545z M200.681,181.583c-0.319,0.13-0.798,0.241-1.436,0.332
		c-0.361,0.052-0.617,0.11-0.767,0.176s-0.266,0.16-0.347,0.285c-0.081,0.126-0.122,0.265-0.122,0.418
		c0,0.234,0.089,0.43,0.266,0.586c0.178,0.156,0.438,0.234,0.779,0.234c0.339,0,0.64-0.074,0.903-0.223
		c0.264-0.147,0.457-0.351,0.581-0.607c0.095-0.198,0.142-0.491,0.142-0.879V181.583z"/>
	<path fill="#426731" d="M204.951,183.399l0.127,0.776c-0.247,0.052-0.469,0.078-0.664,0.078c-0.319,0-0.566-0.051-0.742-0.151
		s-0.3-0.233-0.371-0.398c-0.071-0.164-0.107-0.51-0.107-1.037v-2.983h-0.645V179h0.645v-1.284l0.874-0.527V179h0.884v0.684h-0.884
		v3.032c0,0.251,0.016,0.412,0.047,0.483c0.03,0.071,0.081,0.129,0.15,0.171c0.07,0.042,0.171,0.063,0.301,0.063
		C204.663,183.433,204.792,183.421,204.951,183.399z"/>
	<path fill="#426731" d="M206.12,184.185v-4.502h-0.776V179h0.776v-0.552c0-0.349,0.031-0.607,0.093-0.776
		c0.085-0.228,0.233-0.413,0.446-0.554c0.214-0.143,0.513-0.213,0.896-0.213c0.247,0,0.521,0.029,0.82,0.088l-0.132,0.767
		c-0.183-0.032-0.354-0.049-0.518-0.049c-0.267,0-0.456,0.057-0.566,0.171s-0.166,0.327-0.166,0.64V179h1.011v0.684h-1.011v4.502
		H206.12z"/>
	<path fill="#426731" d="M208.461,181.592c0-0.96,0.267-1.672,0.801-2.134c0.446-0.384,0.989-0.576,1.631-0.576
		c0.713,0,1.296,0.233,1.748,0.7c0.452,0.468,0.679,1.113,0.679,1.937c0,0.667-0.101,1.192-0.3,1.575
		c-0.201,0.382-0.492,0.679-0.875,0.891c-0.382,0.212-0.8,0.317-1.252,0.317c-0.726,0-1.313-0.232-1.76-0.698
		C208.685,183.138,208.461,182.468,208.461,181.592z M209.365,181.592c0,0.664,0.145,1.161,0.435,1.492
		c0.29,0.33,0.654,0.495,1.094,0.495c0.437,0,0.799-0.166,1.089-0.498s0.435-0.838,0.435-1.519c0-0.642-0.146-1.127-0.438-1.457
		c-0.291-0.331-0.653-0.496-1.086-0.496c-0.439,0-0.804,0.164-1.094,0.493S209.365,180.928,209.365,181.592z"/>
	<path fill="#426731" d="M214.44,184.185V179h0.791v0.786c0.202-0.368,0.389-0.61,0.559-0.728c0.172-0.117,0.359-0.176,0.564-0.176
		c0.296,0,0.598,0.095,0.903,0.283l-0.303,0.815c-0.215-0.127-0.43-0.19-0.645-0.19c-0.192,0-0.364,0.058-0.518,0.173
		c-0.153,0.116-0.262,0.276-0.327,0.481c-0.098,0.313-0.146,0.654-0.146,1.025v2.715H214.44z"/>
	<path fill="#426731" d="M217.88,184.185V179h0.786v0.728c0.163-0.254,0.379-0.458,0.649-0.613c0.271-0.154,0.578-0.231,0.923-0.231
		c0.384,0,0.699,0.08,0.945,0.239c0.245,0.159,0.419,0.383,0.52,0.669c0.41-0.605,0.944-0.908,1.602-0.908
		c0.515,0,0.91,0.143,1.187,0.427c0.276,0.285,0.415,0.724,0.415,1.316v3.56h-0.874v-3.267c0-0.352-0.028-0.604-0.085-0.76
		c-0.058-0.154-0.161-0.278-0.311-0.373s-0.325-0.142-0.527-0.142c-0.364,0-0.667,0.121-0.908,0.364
		c-0.241,0.242-0.361,0.63-0.361,1.164v3.013h-0.879v-3.369c0-0.391-0.071-0.684-0.215-0.879s-0.378-0.293-0.703-0.293
		c-0.247,0-0.477,0.065-0.686,0.195c-0.211,0.13-0.362,0.32-0.457,0.571s-0.142,0.612-0.142,1.084v2.69H217.88z"/>
</g>
<g  filter="url(#dropshadow)">
	<g>
		<path fill="#FFFFFF" d="M161.725,56.015c-1.53,0-3.063,0.092-4.576,0.281c-6.982-16.279-23.121-27.032-41.008-27.032
			c-24.058,0-43.734,19.146-44.582,43.003c-14.893,1.26-26.623,14.207-26.623,29.419c0,16.019,13.055,29.468,29.102,29.468h87.687
			c20.488,0,37.156-17.081,37.156-37.563C198.881,73.102,182.213,56.015,161.725,56.015z M161.725,124.154H74.038
			c-12.338,0-22.377-10.297-22.377-22.604c0-12.334,10.025-22.507,22.356-22.522c7.224,0.006,13.649,3.383,17.739,8.714l7.16-1.461
			c-0.014-0.023-0.03-0.064-0.044-0.089c3.151-0.063,4.731-2.271,4.731-6.607c-0.975,0.715-1.957,1.068-2.946,1.068
			c-0.881,0-2.046-0.45-3.495-1.35c-0.309,1.058-0.687,2.052-1.126,3c-4.452-5.174-10.687-8.767-17.745-9.815
			C79.027,52.24,95.714,35.99,116.141,35.99c15.991,0,30.342,10.121,35.7,25.184l0.977,2.742l2.854-0.574
			c1.984-0.398,4.021-0.602,6.053-0.602c16.781,0,30.431,13.932,30.431,30.712C192.156,110.226,178.506,124.154,161.725,124.154z
			 M100.158,108.031c-0.721,0.521-1.329,0.783-2.042,0.783c-0.402,0-0.681-0.186-0.948-0.563c-0.265-0.376-0.369-0.866-0.369-1.471
			c0-1.524,0.58-4.259,1.721-7.819l2.764-8.807h-0.33l-6.994,1.65c-2.64,6.92-3.961,12.428-3.961,16.337
			c0,1.817,0.404,3.371,1.211,4.574c0.807,1.202,1.567,1.827,2.745,1.827c2.125,0,4.404-2.234,9.405-6.747v-3.165
			C102.36,106.375,100.887,107.507,100.158,108.031z M109.36,80.154h10v35h10.999v-35h10v-7H109.36V80.154z M172.463,91.405
			c-1.967-1.035-5.046-2.052-9.159-3.023c-4.198-0.991-6.773-1.922-7.872-2.842c-0.868-0.731-1.308-1.624-1.308-2.657
			c0-1.13,0.47-2.047,1.4-2.718c1.418-1.026,3.396-1.55,5.884-1.55c2.414,0,4.254,0.491,5.47,1.452
			c1.198,0.947,1.995,2.51,2.372,4.64l8.271-0.363c-0.158-3.76-1.559-6.811-4.16-9.069c-2.642-2.29-6.63-3.45-11.866-3.45
			c-3.209,0-5.983,0.489-8.246,1.458c-2.255,0.963-4.01,2.382-5.204,4.223c-1.198,1.838-1.806,3.84-1.806,5.954
			c0,3.282,1.294,6.104,3.838,8.387c1.816,1.628,5.029,3.021,9.551,4.141c3.533,0.879,5.83,1.497,6.825,1.844
			c1.473,0.523,2.521,1.15,3.117,1.864c0.604,0.721,0.906,1.604,0.906,2.624c0,1.588-0.714,2.987-2.128,4.166
			c-1.408,1.175-3.52,1.769-6.279,1.769c-2.605,0-4.711-0.668-6.248-1.984c-1.521-1.298-2.548-3.348-3.057-6.083l-8.036,0.782
			c0.566,4.599,2.27,8.15,5.061,10.557c2.818,2.431,6.921,3.663,12.194,3.663c3.629,0,6.697-0.512,9.125-1.525
			c2.417-1.012,4.313-2.575,5.634-4.654c1.326-2.078,1.995-4.337,1.995-6.718c0-2.627-0.561-4.863-1.666-6.646
			C175.969,93.861,174.417,92.436,172.463,91.405z"/>
	</g>
</g>
</svg>
