<?xml version="1.0" encoding="utf-8"?>
<!-- Generator: Adobe Illustrator 15.1.0, SVG Export Plug-In . SVG Version: 6.00 Build 0)  -->
<!DOCTYPE svg PUBLIC "-//W3C//DTD SVG 1.1//EN" "http://www.w3.org/Graphics/SVG/1.1/DTD/svg11.dtd">
<svg version="1.1" id="圖層_1" xmlns="http://www.w3.org/2000/svg" xmlns:xlink="http://www.w3.org/1999/xlink" x="0px" y="0px"
	 width="72px" height="72px" viewBox="0 0 72 72" enable-background="new 0 0 72 72" xml:space="preserve">
<g>
	<g>
		<path fill="#E72D2A" d="M36.003,6.015c0,0-22.1-0.799-27.61,27.687c0,0-14.12,22.061,10.993,33.428c0,0,24.101,9.182,41.139-5.666
			c0,0,11.394-8.58,3.976-25.176C64.501,36.288,61.13,6.787,36.003,6.015z"/>
		<path d="M36.104,5.125C23.065,4.709,13.225,16.103,9.434,27.431c-0.493,1.474-0.875,2.982-1.227,4.495
			c-0.099,0.424-0.026,1.008-0.251,1.38c-0.382,0.632-0.727,1.287-1.054,1.949c-1.215,2.461-2.117,5.125-2.609,7.825
			c-1.556,8.54,1.614,16.207,8.586,21.369c5.858,4.337,12.984,5.81,20.136,6.28c10.237,0.672,20.212-2.073,28.048-8.821
			c5.804-4.997,7.417-13.16,5.924-20.389c-0.55-2.66-1.745-4.997-2.247-7.649c-0.5-2.645-1.256-5.239-2.188-7.762
			C58.206,14.343,49.063,5.662,36.104,5.125c-0.685-0.028-1.049,1.744-0.201,1.78c15.985,0.661,25.966,14.671,27.996,29.521
			c0.242,1.776,1.329,3.586,1.807,5.353c0.878,3.245,0.962,6.691,0.188,9.961c-0.772,3.268-2.62,6.352-5.104,8.607
			c-8.189,7.44-19.454,9.545-30.168,8.364c-7.742-0.854-14.856-3.184-20.459-8.89c-5.976-6.086-6.185-14.829-3.053-22.328
			C7.733,36,8.766,34.616,9.085,33.029c1.167-5.801,3.394-11.4,7.031-16.097c4.158-5.369,10.435-8.91,17.14-9.843
			c0.87-0.121,1.767-0.212,2.647-0.184C36.589,6.927,36.951,5.152,36.104,5.125z"/>
	</g>
	<path fill="#FFFFFF" d="M56.12,19.51c0,0-3.561-4.007-8.563-1.478c0,0-6.745,3.052-8.345,13.843c0,0,1.751,5.194,0.834,6.685
		c0,0,12.722,4.93,16.737-6.893C56.783,31.667,59.439,23.649,56.12,19.51z"/>
	<path fill="#FFFFFF" d="M16.444,21.722c0,0,3.258-4.257,8.432-2.1c0,0,6.95,2.551,9.334,13.195c0,0-1.366,5.308-0.343,6.728
		c0,0-12.327,5.846-17.196-5.651C16.671,33.894,13.436,26.092,16.444,21.722z"/>
	<path d="M8.566,32.842c-0.163,1.023-0.66,1.771-0.116,2.609c0.065,0.101,0.233,0.195,0.356,0.16
		c1.286-0.367,0.314,0.678,0.313,1.597c-0.001,0.176,0.132,0.303,0.284,0.363c0.453,0.183,1.408-0.117,1.418-0.202
		c-0.079,0.619-0.354,1.981,0.072,2.537c0.262,0.341,0.671,0.287,1.022,0.161c1.694-0.611,0.672,1.085,1.152,1.843
		c0.072,0.112,0.292,0.225,0.42,0.138c0.228-0.157,1.091-0.894,1.404-0.646c0.638,0.504,0.972,0.972,1.818,1.167
		c1.928,0.445,3.167,0.166,4.922-0.666c0.313-0.149-0.114-0.652-0.397-0.518c-2.63,1.248-4.035,0.702-6.354-0.609
		c-0.304-0.172-0.561-0.123-0.81,0.067c-0.993,0.759-0.506,0.868-0.399-0.325c0.066-0.728-0.09-1.34-0.824-1.451
		c-0.667-0.103-1.55,0.931-1.49-0.477c0.022-0.54,0.202-1.114-0.057-1.602c-0.076-0.144-0.229-0.256-0.399-0.231
		c-1.335,0.199-1.03,0.633-0.915-0.807c0.038-0.468,0.102-0.614-0.138-0.984c-0.077-0.119-0.223-0.169-0.356-0.16
		c-0.832,0.055-0.411-1.286-0.333-1.776C9.209,32.726,8.627,32.463,8.566,32.842L8.566,32.842z"/>
	<path fill="#E94A46" d="M18.133,49.642c0,0,1.592-3.551,6.938-5.717c0,0,16.493-5.904,28.872,4.151c0,0-9.992,7.63-3.354,9.709
		c0,0-2.476,3.813,4.203,2.772c0,0,1,2.554,3.314,2.178c0,0-18.4,13.873-42.519,1.689c0,0,4.776-1.231,2.545-3.025
		c0,0,5.984,1.262,4.085-2.346c0,0,3.57-0.236,1.723-3.935C23.941,55.119,21.578,50.249,18.133,49.642z"/>
	<g>
		<circle fill="#FFFFFF" cx="25.123" cy="30.804" r="6.432"/>
		<path fill="#98663B" d="M25.117,37.501c-3.535,0-6.468-2.767-6.678-6.298c-0.219-3.686,2.601-6.863,6.287-7.083
			c3.71-0.224,6.864,2.621,7.082,6.286c0.219,3.686-2.602,6.863-6.287,7.082C25.385,37.496,25.25,37.501,25.117,37.501z
			 M25.128,24.638c-0.123,0-0.247,0.004-0.372,0.011c-3.394,0.202-5.991,3.127-5.789,6.521c0.201,3.375,3.093,5.993,6.522,5.789
			c3.393-0.202,5.991-3.128,5.789-6.522C31.085,27.186,28.384,24.638,25.128,24.638z"/>
	</g>
	<circle fill="#D2E6B3" cx="25.123" cy="30.804" r="5.42"/>
	<g>
		<circle fill="#FFFFFF" cx="48.501" cy="29.907" r="6.431"/>
		<path fill="#98663B" d="M48.495,36.604c-3.534,0-6.468-2.767-6.679-6.299c-0.219-3.686,2.602-6.862,6.287-7.082
			c3.709-0.223,6.864,2.622,7.082,6.287c0.106,1.785-0.489,3.505-1.677,4.843s-2.824,2.133-4.61,2.239
			C48.764,36.599,48.629,36.604,48.495,36.604z M48.507,23.741c-0.123,0-0.247,0.004-0.372,0.011
			c-3.394,0.202-5.991,3.128-5.789,6.521c0.201,3.375,3.089,5.997,6.522,5.789c1.644-0.098,3.151-0.831,4.244-2.062
			c1.094-1.232,1.642-2.815,1.544-4.459C54.463,26.289,51.762,23.741,48.507,23.741z"/>
	</g>
	<circle fill="#D2E6B3" cx="48.501" cy="29.906" r="5.42"/>
	<circle cx="25.527" cy="30.804" r="3.986"/>
	<circle fill="#FFFFFF" cx="26.313" cy="29.487" r="1.648"/>
	<circle fill="#FFFFFF" cx="24.284" cy="32.224" r="0.593"/>
	<circle cx="48.501" cy="29.907" r="3.986"/>
	<circle fill="#FFFFFF" cx="47.715" cy="28.589" r="1.649"/>
	<circle fill="#FFFFFF" cx="49.745" cy="31.327" r="0.593"/>
	<path fill="#00A0E9" d="M17.263,49.537c0,0,9.456,2.905,6.056,8.936c0,0-1.312,0.932-3.616-0.932c0,0,5.487,2.006,1.838,4.112
		c0,0-1.95,1.206-4.033-0.878c0,0,3.728,3.453-4.276,2.686c0,0-4.32-2.176-6.469-7.782c0,0,4.458,6.295,8.004,2.685
		c0,0,3.925,0.768,3.344-2.193c0,0,4.098-0.768,2.371-3.618C20.481,52.552,19.017,50.634,17.263,49.537z"/>
	<path fill="#FFF100" d="M17.278,49.095c-0.134-0.054-0.436-0.046-0.577,0.144c-0.202,0.222-0.229,0.677-0.069,0.771
		c1.514,0.88,1.484,3.34-0.944,2.648c-0.599-0.171-0.682,0.505-0.646,0.725c0.249,1.491-1.419,0.889-2.325,0.347
		c-0.75-0.448-0.858,0.172-0.955,0.293c-2.993,3.787-5.676-2.883-6.422-4.042c-0.222-0.345-0.195,0.961-0.167,1.21
		c0.372,3.218,1.811,5.925,4.55,7.591c1.668,1.015,3.901,1.504,5.024-0.071c1.153,0.532,2.271,0.754,3.229-0.466
		c0.284-0.361,0.634-1.034,0.604-1.521c-0.009-0.154-0.02-0.263-0.031-0.347c0.083,0.187,0.296,0.384,0.77,0.028
		C22.643,53.913,20.627,50.434,17.278,49.095z"/>
	<path d="M24.719,55.267c-1.208-2.764-3.782-6.066-7.063-6.283l-0.067-0.001c-0.371,0.015-0.625,0.331-0.628,0.619
		c-0.003,0.252,0.182,0.44,0.451,0.458c2.077,0.138,3.635,1.827,4.884,3.462c0.58,0.758,1.046,1.618,1.389,2.283
		c0.248,0.481,0.343,1.236,0.043,1.749c-0.25,0.429-0.727,0.624-1.441,0.567c-0.801-0.064-1.397-0.528-1.988-1.04
		c-0.255-0.222-0.675-0.142-0.868,0.15c-0.105,0.158-0.127,0.344-0.064,0.51c0.292,0.771,1.068,1.133,1.752,1.452
		c0.198,0.092,0.395,0.184,0.576,0.283c0.233,0.129,0.365,0.29,0.394,0.482c0.039,0.271-0.127,0.616-0.456,0.945
		c-0.236,0.236-0.59,0.36-1.085,0.379c-0.261,0.011-0.514-0.013-0.681-0.03c-0.539-0.057-1.091-0.264-1.559-0.567
		c-0.218-0.213-0.473-0.422-0.697-0.571l-0.108-0.081c-0.282-0.188-0.692-0.032-0.832,0.304c-0.084,0.202-0.055,0.41,0.08,0.557
		c0.248,0.271,0.575,0.532,0.947,0.759l0.046,0.041c0.023,0.02,0.045,0.038,0.066,0.061c0.244,0.252,0.207,0.405,0.194,0.456
		c-0.07,0.29-0.569,0.628-1.271,0.862c-0.325,0.108-0.679,0.171-1.051,0.186c-1.352,0.052-2.794-0.546-3.431-1.422
		c-0.237-0.325-0.857-0.216-1.03,0.138c-0.078,0.161-0.062,0.338,0.045,0.485c0.883,1.214,2.49,1.896,4.3,1.826
		c0.794-0.03,1.598-0.213,2.325-0.526c1.027-0.444,1.271-1.034,1.264-1.503c1.333,0.321,2.621,0.015,3.497-0.864
		c0.514-0.515,0.747-0.985,0.712-1.438c-0.023-0.298-0.16-0.544-0.332-0.746c0.154-0.035,0.303-0.086,0.447-0.151
		C25.263,58.255,25.29,56.572,24.719,55.267z"/>
	<path fill="#00A0E9" d="M54.972,48.259c0,0-9.455,2.906-6.057,8.937c0,0,1.312,0.932,3.616-0.933c0,0-5.487,2.006-1.838,4.112
		c0,0,1.95,1.205,4.033-0.877c0,0-3.728,3.453,4.276,2.686c0,0,4.32-2.176,6.469-7.783c0,0-4.458,6.295-8.004,2.685
		c0,0-3.925,0.768-3.344-2.192c0,0-4.098-0.768-2.371-3.618C51.753,51.274,53.218,49.355,54.972,48.259z"/>
	<path fill="#FFF100" d="M54.956,47.816c0.135-0.054,0.437-0.046,0.577,0.144c0.202,0.222,0.229,0.678,0.069,0.771
		c-1.514,0.88-1.484,3.341,0.944,2.649c0.599-0.171,0.682,0.504,0.646,0.725c-0.249,1.49,1.419,0.889,2.324,0.346
		c0.75-0.448,0.858,0.172,0.955,0.294c2.993,3.786,5.676-2.884,6.421-4.042c0.223-0.346,0.196,0.961,0.168,1.21
		c-0.372,3.218-1.811,5.923-4.551,7.59c-1.668,1.015-3.901,1.504-5.024-0.07c-1.152,0.531-2.271,0.754-3.229-0.466
		c-0.283-0.361-0.633-1.035-0.604-1.521c0.01-0.154,0.021-0.263,0.031-0.348c-0.084,0.187-0.296,0.384-0.77,0.028
		C49.592,52.635,51.606,49.155,54.956,47.816z"/>
	<path d="M47.516,53.988c1.207-2.763,3.781-6.065,7.063-6.282l0.067-0.001c0.371,0.015,0.625,0.331,0.628,0.618
		c0.004,0.253-0.182,0.441-0.45,0.459c-2.077,0.136-3.635,1.826-4.884,3.462c-0.58,0.758-1.047,1.617-1.389,2.282
		c-0.248,0.481-0.343,1.236-0.044,1.749c0.251,0.43,0.727,0.624,1.441,0.567c0.802-0.063,1.397-0.528,1.988-1.04
		c0.256-0.221,0.676-0.141,0.868,0.151c0.104,0.157,0.128,0.344,0.064,0.51c-0.292,0.77-1.068,1.132-1.753,1.451
		c-0.197,0.093-0.394,0.185-0.575,0.283c-0.233,0.129-0.365,0.291-0.394,0.482c-0.038,0.271,0.128,0.616,0.456,0.946
		c0.235,0.235,0.59,0.359,1.085,0.379c0.262,0.01,0.514-0.013,0.682-0.03c0.538-0.058,1.091-0.265,1.558-0.568
		c0.219-0.213,0.474-0.421,0.698-0.57l0.107-0.082c0.281-0.188,0.692-0.031,0.832,0.304c0.085,0.202,0.055,0.411-0.08,0.558
		c-0.248,0.271-0.575,0.532-0.947,0.757l-0.046,0.042c-0.022,0.02-0.045,0.039-0.066,0.061c-0.244,0.252-0.207,0.406-0.194,0.457
		c0.07,0.289,0.569,0.627,1.271,0.862c0.324,0.108,0.679,0.171,1.051,0.185c1.351,0.052,2.793-0.546,3.43-1.421
		c0.238-0.326,0.858-0.217,1.03,0.137c0.078,0.161,0.063,0.339-0.046,0.486c-0.882,1.213-2.489,1.896-4.299,1.826
		c-0.795-0.031-1.599-0.213-2.326-0.527c-1.027-0.444-1.271-1.034-1.264-1.504c-1.333,0.322-2.621,0.016-3.497-0.863
		c-0.513-0.514-0.746-0.984-0.711-1.437c0.022-0.298,0.16-0.546,0.331-0.746c-0.153-0.036-0.304-0.087-0.446-0.151
		C46.972,56.977,46.945,55.295,47.516,53.988z"/>
	<path d="M33.005,34.167c0,0-3.111,6.517,2.574,7.632L33.005,34.167z"/>
	<path d="M41.114,33.936c0,0-0.706,6.336-0.895,7.184C40.22,41.12,45.324,38.301,41.114,33.936z"/>
	<g>
		<path fill="#FFFDDD" d="M32.603,30.964c0.025-0.227,0.537-4.127,3.288-2.466c0,0,0.896,0.926,1.592,0.179
			c0,0,2.736-2.203,3.468,1.591c0,0,1.146,8.853-2.652,15.935c0,0-0.585,0.838-1.441-1.328
			C36.858,44.875,32.224,34.378,32.603,30.964z"/>
	</g>
	<path d="M36.361,5.416C23.859,5.017,13.863,15.421,9.813,26.309c-1.101,2.96-1.382,6.081-2.812,8.863
		c-1.178,2.292-2.081,4.751-2.622,7.273c-1.774,8.267,0.943,16.243,7.833,21.344c5.987,4.432,12.756,6.052,20.1,6.618
		c10.531,0.813,20.475-2.021,28.663-8.725c5.631-4.609,7.472-12.341,6.262-19.266c-0.509-2.916-1.857-5.518-2.404-8.411
		c-0.5-2.644-1.256-5.239-2.188-7.762C58.34,14.591,49.188,5.947,36.361,5.416c-0.559-0.023-1.473,1.167-0.715,1.199
		c9.903,0.41,17.794,5.662,22.765,14.096c2.778,4.715,4.616,10.198,5.403,15.616c0.223,1.525,1.134,3.036,1.585,4.525
		c0.939,3.108,1.173,6.382,0.717,9.59c-0.532,3.744-2.423,7.416-5.149,10.038c-7.848,7.546-19.19,9.619-29.678,8.576
		c-7.894-0.785-15.217-3.103-20.924-8.915c-5.949-6.059-6.324-14.68-3.432-22.257c0.542-1.42,1.189-2.844,2.006-4.132
		c0.666-1.049,0.662-2.868,0.988-4.099c0.379-1.43,0.855-2.831,1.371-4.216c1.012-2.722,2.385-5.293,4.032-7.682
		c4.07-5.901,10.52-9.879,17.591-10.932c0.895-0.133,1.818-0.237,2.725-0.208C36.205,6.632,37.117,5.44,36.361,5.416z"/>
	<path fill="#F4EEB7" d="M36.847,28.965c0,0,1.729,13.314,1.071,17.389c0,0-7.952-14.646-3.708-18.201
		C34.21,28.154,35.04,27.753,36.847,28.965z"/>
	<path fill="#3E3A39" d="M38.042,46.531c0,0-0.562-0.057-0.973-1.193c0,0,0.063-2.306,0.973-3.136c0,0,1.021,2.339,0.639,3.242
		C38.681,45.444,38.552,46.453,38.042,46.531z"/>
	<path d="M32.96,30.9c0.057-0.44,0.171-0.865,0.313-1.284c0.233-0.686,0.655-1.35,1.578-1.199c0.731,0.12,0.635,0.402,1.156,0.628
		c1.259,0.545,1.802-0.691,3.03-0.722c2.976-0.074,1.427,9.754,1.247,10.856c-0.23,1.411-0.606,2.791-1.059,4.146
		c-0.264,0.785-0.603,1.544-0.956,2.292c-0.419,0.889-1.067-0.94-1.071-0.951c-0.429-0.974-0.832-1.959-1.227-2.947
		c-1.306-3.258-3.272-7.296-3.003-10.887c0.023-0.325-0.708-0.041-0.731,0.263c-0.165,2.208,0.724,4.542,1.409,6.604
		c0.769,2.313,1.674,4.586,2.629,6.827c0.356,0.835,0.876,2.608,2.053,1.963c0.75-0.412,1.102-1.961,1.394-2.695
		c0.749-1.878,1.164-3.884,1.452-5.879c0.269-1.87,1.61-10.755-2.408-10.097c-0.524,0.086-1.037,0.385-1.461,0.694
		c-0.43,0.314-2.291-0.811-3.075-0.612c-1.292,0.328-1.836,1.967-1.984,3.127C32.194,31.435,32.923,31.188,32.96,30.9z"/>
	<path d="M64.28,33.596c0.067,1.034,0.494,1.824-0.125,2.609c-0.075,0.094-0.251,0.173-0.37,0.126
		c-1.246-0.484-0.375,0.646-0.459,1.561c-0.016,0.175-0.159,0.289-0.316,0.336c-0.468,0.139-1.391-0.247-1.394-0.333
		c0.021,0.624,0.169,2.006-0.307,2.52c-0.292,0.315-0.695,0.225-1.032,0.065c-1.63-0.765-0.77,1.019-1.317,1.729
		c-0.082,0.105-0.311,0.197-0.431,0.099c-0.213-0.177-1.005-0.99-1.339-0.772c-0.682,0.442-1.058,0.877-1.918,0.993
		c-1.961,0.265-3.169-0.127-4.839-1.118c-0.299-0.178,0.174-0.639,0.442-0.479c2.504,1.486,3.953,1.071,6.383-0.02
		c0.318-0.143,0.571-0.07,0.801,0.142c0.918,0.848,0.424,0.912,0.427-0.286c0.002-0.73,0.215-1.326,0.955-1.369
		c0.673-0.041,1.457,1.07,1.527-0.337c0.028-0.54-0.099-1.129,0.204-1.59c0.089-0.137,0.253-0.234,0.42-0.193
		c1.312,0.321,0.968,0.726,0.985-0.718c0.006-0.47-0.045-0.621,0.228-0.968c0.089-0.111,0.238-0.148,0.37-0.126
		c0.823,0.132,0.527-1.243,0.495-1.737C63.65,33.42,64.254,33.212,64.28,33.596L64.28,33.596z"/>
</g>
</svg>
