<?xml version="1.0" encoding="utf-8"?>
<!-- Generator: Adobe Illustrator 15.1.0, SVG Export Plug-In . SVG Version: 6.00 Build 0)  -->
<!DOCTYPE svg PUBLIC "-//W3C//DTD SVG 1.1//EN" "http://www.w3.org/Graphics/SVG/1.1/DTD/svg11.dtd">
<svg version="1.1" id="圖層_1" xmlns="http://www.w3.org/2000/svg" xmlns:xlink="http://www.w3.org/1999/xlink" x="0px" y="0px"
	 width="72px" height="72px" viewBox="0 0 72 72" enable-background="new 0 0 72 72" xml:space="preserve">
<path fill="#132D79" d="M64.343,37.437c-0.113-0.265-0.283-0.566-0.383-0.874c-0.345-0.361-0.827-0.699-1.385-0.618
	c0,0,0.732,1.619,0.41,2.502c0,0-0.24-1.714-1.797-1.52c0,0,0.865,1.463,0.266,2.111c0,0-0.564-1.693-2.367-0.4
	c-0.109,0.086-0.217,0.176-0.326,0.26c-0.031,0.025-0.061,0.045-0.094,0.074c0,0,0-0.004,0-0.006
	c-10.377,7.965-22.582,7.109-22.582,7.109c-9.705-0.377-16.64-4.305-21.004-7.893c-2.271-1.715-2.552,0.252-2.552,0.252
	c-0.649-0.602,0.136-2.285,0.136-2.285c-1.568-0.074-1.672,1.875-1.672,1.875c-0.391-0.857-0.096-2.491-0.096-2.491
	c-0.943-0.11-1.865,1.514-1.865,1.514c-0.083-0.312-0.132-0.619-0.166-0.924c-0.305,0.571-0.611,1.141-0.848,1.726
	c-2.911,7.172-3.144,15.676,2.242,21.807c0.698,0.794,1.426,1.525,2.182,2.2c0.1,0.029,0.188,0.082,0.25,0.167
	c0.042,0.059,0.098,0.112,0.147,0.168c0.064,0.055,0.129,0.108,0.194,0.163c0.149,0.125,0.295,0.256,0.446,0.377
	c0.727,0.466,1.704,0.749,2.643,0.712c0.372-0.014,0.726-0.076,1.051-0.184c0.702-0.234,1.201-0.574,1.271-0.863
	c0.013-0.051,0.05-0.205-0.194-0.455c-0.021-0.023-0.044-0.043-0.066-0.061l-0.046-0.043c-0.372-0.225-0.699-0.486-0.947-0.758
	c-0.134-0.146-0.165-0.354-0.081-0.557c0.14-0.336,0.551-0.492,0.833-0.305l0.108,0.082c0.225,0.15,0.479,0.357,0.698,0.57
	c0.467,0.305,1.02,0.512,1.558,0.568c0.167,0.018,0.419,0.041,0.681,0.031c0.495-0.02,0.85-0.143,1.085-0.379
	c0.329-0.33,0.495-0.676,0.456-0.947c-0.027-0.191-0.16-0.354-0.393-0.48c-0.182-0.102-0.378-0.191-0.576-0.285
	c-0.685-0.318-1.46-0.682-1.753-1.451c-0.063-0.166-0.04-0.352,0.064-0.51c0.193-0.291,0.613-0.371,0.869-0.15
	c0.59,0.512,1.187,0.977,1.988,1.039c0.715,0.057,1.191-0.137,1.441-0.566c0.299-0.512,0.205-1.268-0.043-1.75
	c-0.342-0.664-0.809-1.523-1.389-2.281c-1.25-1.637-2.807-3.326-4.885-3.463c-0.268-0.018-0.454-0.207-0.45-0.459
	c0.004-0.287,0.258-0.604,0.629-0.617h0.067c3.281,0.217,5.855,3.52,7.063,6.283c0.57,1.307,0.544,2.988-1.24,3.791
	c-0.144,0.064-0.293,0.115-0.447,0.15c0.171,0.201,0.308,0.449,0.331,0.746c0.034,0.453-0.198,0.922-0.712,1.438
	c-0.875,0.879-2.164,1.186-3.496,0.863c0.007,0.469-0.237,1.059-1.265,1.504c-0.727,0.314-1.531,0.496-2.325,0.527
	c-0.022,0.001-0.044-0.002-0.066-0.001c0.512,0.317,1.036,0.61,1.565,0.891c0.143,0.076,0.288,0.148,0.432,0.222
	c0.417,0.211,0.84,0.412,1.268,0.603c0.132,0.059,0.262,0.12,0.395,0.177c0.546,0.233,1.098,0.453,1.658,0.654
	c0.092,0.033,0.186,0.062,0.278,0.094c0.478,0.167,0.961,0.323,1.449,0.469c0.164,0.049,0.328,0.097,0.492,0.144
	c0.485,0.137,0.975,0.265,1.468,0.383c0.101,0.024,0.2,0.051,0.3,0.074c0.59,0.137,1.187,0.259,1.788,0.37
	c0.147,0.027,0.297,0.052,0.445,0.077c0.473,0.083,0.949,0.159,1.429,0.228c0.17,0.024,0.34,0.05,0.511,0.073
	c0.611,0.081,1.226,0.156,1.845,0.218c0.612,0.061,1.228,0.108,1.845,0.147c0.202,0.013,0.405,0.019,0.608,0.029
	c0.417,0.021,0.835,0.04,1.254,0.051c0.241,0.006,0.482,0.006,0.724,0.009c0.383,0.004,0.766,0.005,1.149-0.001
	c0.255-0.003,0.509-0.01,0.764-0.018c0.375-0.012,0.75-0.027,1.125-0.048c0.254-0.014,0.509-0.028,0.763-0.047
	c0.382-0.027,0.763-0.062,1.144-0.099c0.243-0.023,0.488-0.046,0.731-0.073c0.413-0.048,0.825-0.104,1.236-0.164
	c0.206-0.03,0.414-0.055,0.62-0.088c0.614-0.098,1.227-0.207,1.834-0.333c0.023-0.005,0.047-0.012,0.07-0.017
	c0.584-0.122,1.165-0.259,1.742-0.407c0.203-0.053,0.402-0.113,0.604-0.169c0.396-0.109,0.792-0.222,1.184-0.345
	c0.232-0.072,0.463-0.152,0.693-0.229c0.358-0.12,0.717-0.245,1.071-0.377c0.236-0.088,0.472-0.181,0.706-0.274
	c0.346-0.138,0.688-0.282,1.029-0.432c0.23-0.101,0.461-0.203,0.688-0.31c0.346-0.161,0.687-0.332,1.025-0.506
	c0.214-0.109,0.429-0.216,0.64-0.331c0.366-0.198,0.726-0.409,1.084-0.623c0.175-0.104,0.354-0.203,0.526-0.312
	c0.524-0.328,1.041-0.67,1.545-1.032c-0.721-0.032-1.441-0.18-2.11-0.446c-1.039-0.412-1.301-0.994-1.309-1.463
	c-1.326,0.361-2.619,0.094-3.521-0.758c-0.527-0.5-0.775-0.963-0.754-1.416c0.014-0.299,0.145-0.551,0.309-0.756
	c-0.154-0.031-0.305-0.078-0.451-0.139c-1.807-0.748-1.883-2.428-1.354-3.75c1.125-2.799,3.6-6.178,6.871-6.492
	c0.002,0,0.002,0,0.002,0c0.412-0.016,0.693,0.295,0.713,0.584c0.016,0.258-0.162,0.457-0.436,0.482
	c-2.074,0.201-3.58,1.938-4.779,3.607c-0.557,0.775-0.998,1.648-1.32,2.324c-0.238,0.5-0.307,1.27,0.023,1.771
	c0.268,0.406,0.748,0.576,1.445,0.502c0.799-0.088,1.381-0.57,1.953-1.1c0.248-0.225,0.66-0.164,0.865,0.113
	c0.117,0.156,0.148,0.346,0.088,0.52c-0.268,0.779-1.033,1.164-1.709,1.504c-0.193,0.098-0.387,0.195-0.566,0.301
	c-0.229,0.135-0.355,0.301-0.377,0.494c-0.031,0.271,0.145,0.611,0.482,0.932c0.27,0.252,0.682,0.365,1.264,0.344
	c0.182-0.008,0.357-0.027,0.514-0.049c0.537-0.074,1.082-0.297,1.578-0.646c0.174-0.189,0.422-0.404,0.68-0.594l0.215-0.094
	l0.219-0.049c0.193,0.025,0.375,0.16,0.469,0.357c0.096,0.199,0.074,0.42-0.057,0.572c-0.24,0.277-0.559,0.549-0.924,0.785
	l-0.045,0.043c-0.021,0.021-0.043,0.041-0.064,0.063c-0.236,0.26-0.195,0.412-0.182,0.463c0.078,0.287,0.588,0.609,1.297,0.824
	c0.389,0.117,0.813,0.166,1.26,0.15c0.461-0.019,0.921-0.111,1.352-0.259c0.493-0.412,0.977-0.841,1.445-1.292
	c2.453-2.361,4.295-5.451,5.08-8.773c0.691-2.922,0.777-5.959,0.168-8.908C65.616,41.032,65.101,39.192,64.343,37.437z"/>
<path d="M67.269,39.931c-0.662-2.184-1.326-3.988-1.791-6.194c-0.592-2.796-1.457-5.533-2.52-8.186
	c-3.985-9.964-11.69-17.388-21.939-19.475c0.885-1.034,0.939-2.365,0.939-2.386c0.002-0.116-0.07-0.22-0.182-0.257
	c-0.107-0.036-0.23,0.001-0.297,0.095c-0.445,0.609-0.889,0.939-1.207,1.114c0.434-1.969-1.049-3.641-1.117-3.717
	c-0.08-0.088-0.209-0.113-0.316-0.059c-0.107,0.054-0.164,0.173-0.141,0.29c0.24,1.165,0.074,2.107-0.492,2.802
	c-1.112,1.366-3.384,1.382-3.481,1.382h-0.001c-0.117,0-0.209,0.082-0.244,0.19C22.313,6.14,13.044,16.536,9.375,27.5
	c-0.94,2.81-1.323,5.432-2.617,8.053c-1.271,2.574-2.149,5.342-2.618,8.174c-1.467,8.863,2.794,16.469,10.091,21.338
	c5.788,3.863,12.737,5.213,19.586,5.662c10.264,0.674,20.42-2.029,28.291-8.807C68.448,56.462,69.589,47.608,67.269,39.931z
	 M65.833,51.81c-0.785,3.322-2.627,6.412-5.08,8.773c-0.976,0.938-2.007,1.792-3.085,2.565c0.001,0,0.001,0,0.001,0
	c-0.505,0.362-1.021,0.704-1.546,1.032c-0.173,0.108-0.352,0.207-0.526,0.312c-0.358,0.214-0.718,0.425-1.084,0.623
	c-0.211,0.115-0.426,0.222-0.64,0.331c-0.339,0.174-0.68,0.345-1.025,0.506c-0.228,0.106-0.458,0.209-0.688,0.31
	c-0.341,0.149-0.684,0.294-1.029,0.432c-0.235,0.094-0.47,0.186-0.706,0.274c-0.354,0.132-0.713,0.256-1.071,0.377
	c-0.231,0.077-0.461,0.157-0.693,0.229c-0.392,0.123-0.787,0.235-1.184,0.345c-0.202,0.056-0.401,0.116-0.604,0.169
	c-0.577,0.148-1.158,0.285-1.742,0.407c-0.023,0.005-0.047,0.012-0.07,0.017c-0.607,0.126-1.22,0.235-1.834,0.333
	c-0.206,0.033-0.413,0.058-0.62,0.088c-0.412,0.06-0.823,0.116-1.236,0.164c-0.243,0.027-0.487,0.05-0.731,0.073
	c-0.381,0.037-0.762,0.071-1.144,0.099c-0.254,0.019-0.509,0.033-0.763,0.047c-0.375,0.021-0.75,0.036-1.125,0.048
	c-0.255,0.008-0.509,0.015-0.764,0.018c-0.383,0.006-0.767,0.005-1.149,0.001c-0.241-0.003-0.482-0.003-0.724-0.009
	c-0.419-0.011-0.836-0.03-1.254-0.051c-0.203-0.011-0.406-0.017-0.608-0.029c-0.618-0.039-1.233-0.087-1.845-0.147
	c-0.62-0.062-1.234-0.137-1.845-0.218c-0.171-0.023-0.341-0.049-0.511-0.073c-0.479-0.068-0.956-0.145-1.429-0.228
	c-0.148-0.025-0.298-0.05-0.445-0.077c-0.601-0.111-1.197-0.233-1.788-0.37c-0.101-0.023-0.2-0.05-0.3-0.074
	c-0.493-0.118-0.982-0.246-1.468-0.383c-0.164-0.047-0.328-0.095-0.492-0.144c-0.488-0.146-0.971-0.302-1.449-0.469
	c-0.092-0.032-0.186-0.061-0.278-0.094c-0.56-0.201-1.112-0.421-1.658-0.654c-0.132-0.057-0.263-0.118-0.395-0.177
	c-0.427-0.19-0.85-0.392-1.268-0.603c-0.144-0.073-0.289-0.146-0.432-0.222c-1.405-0.744-2.752-1.612-4.027-2.631
	c0,0-0.001-0.001-0.001-0.001c-0.15-0.12-0.297-0.249-0.445-0.376c-0.968-0.811-1.897-1.7-2.773-2.698
	c-5.385-6.131-5.152-14.635-2.242-21.807c0.237-0.585,0.543-1.155,0.848-1.726c0.034,0.305,0.083,0.612,0.166,0.924
	c0,0,0.922-1.624,1.865-1.514c0,0-0.295,1.634,0.096,2.491c0,0,0.104-1.949,1.672-1.875c0,0-0.785,1.684-0.136,2.285
	c0,0,0.281-1.967,2.552-0.252c4.365,3.588,11.3,7.516,21.004,7.893c0,0,12.205,0.855,22.582-7.109c0,0.002,0,0.006,0,0.006
	c0.033-0.029,0.063-0.049,0.094-0.074c0.109-0.084,0.217-0.174,0.326-0.26c1.803-1.293,2.367,0.4,2.367,0.4
	c0.6-0.648-0.266-2.111-0.266-2.111c1.557-0.194,1.797,1.52,1.797,1.52c0.322-0.883-0.41-2.502-0.41-2.502
	c0.558-0.081,1.04,0.257,1.385,0.618c0.1,0.308,0.27,0.609,0.383,0.874c0.758,1.756,1.273,3.596,1.658,5.465
	C66.61,45.851,66.524,48.888,65.833,51.81z"/>
<g>
	<path fill="#E60012" d="M36.617,34.12c0.623-0.469,1.684-0.532,2.358-0.14l1.244,0.722c0.674,0.392,0.916,1.27,0.539,1.952
		l-1.85,3.336c-0.377,0.682-1.06,0.722-1.516,0.09l-2.229-3.093c-0.456-0.632-0.319-1.533,0.303-2.001L36.617,34.12z"/>
</g>
<g>
	<path fill="#CB000D" d="M36.617,34.12c0.623-0.469,1.17-0.215,1.216,0.563l0.305,5.131c0.046,0.778-0.289,0.897-0.745,0.266
		l-2.229-3.093c-0.456-0.632-0.319-1.533,0.303-2.001L36.617,34.12z"/>
</g>
<g>
	<circle fill="#FFFAB5" cx="25.563" cy="30.99" r="6.431"/>
	<path d="M25.557,37.687c-3.534,0-6.468-2.767-6.678-6.298c-0.106-1.786,0.489-3.506,1.676-4.843
		c1.188-1.338,2.824-2.133,4.61-2.239c3.707-0.217,6.864,2.621,7.082,6.286c0.219,3.686-2.601,6.862-6.286,7.083
		C25.826,37.683,25.691,37.687,25.557,37.687z M25.569,24.824c-0.124,0-0.248,0.004-0.373,0.011
		c-1.644,0.098-3.151,0.83-4.245,2.062c-1.093,1.231-1.641,2.815-1.543,4.459c0.201,3.375,3.103,5.992,6.521,5.789
		c3.394-0.202,5.991-3.128,5.789-6.522C31.525,27.372,28.824,24.824,25.569,24.824z"/>
</g>
<g>
	<circle fill="#FFFAB5" cx="48.94" cy="30.093" r="6.431"/>
	<path d="M48.933,36.789c-3.533,0-6.467-2.767-6.678-6.299c-0.219-3.686,2.602-6.862,6.287-7.082
		c3.711-0.221,6.863,2.622,7.082,6.287c0.105,1.785-0.488,3.505-1.676,4.843s-2.824,2.133-4.609,2.239
		C49.202,36.784,49.067,36.789,48.933,36.789z M48.946,23.926c-0.123,0-0.248,0.004-0.373,0.011
		c-3.393,0.202-5.99,3.128-5.789,6.521c0.201,3.375,3.105,5.989,6.521,5.789c1.645-0.098,3.152-0.831,4.246-2.062
		c1.094-1.232,1.641-2.815,1.543-4.459C54.901,26.474,52.2,23.926,48.946,23.926z"/>
</g>
<circle cx="26.753" cy="30.144" r="3.713"/>
<circle cx="47.534" cy="29.346" r="3.714"/>
<circle fill="#FFFFFF" cx="27.694" cy="29.705" r="1.517"/>
<circle fill="#FFFFFF" cx="25.444" cy="32.054" r="0.546"/>
<circle fill="#FFFFFF" cx="48.96" cy="30.605" r="0.546"/>
<circle fill="#FFFFFF" cx="46.203" cy="28.314" r="1.517"/>
<circle cx="36.151" cy="35.201" r="0.256"/>
<circle cx="39.458" cy="35.074" r="0.256"/>
<path fill="#F8E95F" d="M19.398,32.229c0.595,3.137,3.424,5.047,6.483,5.164c0.238,0.008,0.055-0.484-0.163-0.492
	c-2.728-0.105-5.399-1.732-5.938-4.573C19.737,32.098,19.333,31.888,19.398,32.229L19.398,32.229z"/>
<path fill="#F8E95F" d="M47.552,36.296c3.105,0.744,5.945-1.169,7.299-3.866c0.154-0.31-0.309-0.28-0.426-0.046
	c-1.248,2.487-3.867,4.126-6.688,3.45C47.501,35.778,47.255,36.225,47.552,36.296L47.552,36.296z"/>
<ellipse transform="matrix(0.9165 0.3999 -0.3999 0.9165 16.5823 -5.148)" fill="#F2A1A9" cx="20.626" cy="37.157" rx="1.362" ry="0.58"/>
<ellipse transform="matrix(0.8437 -0.5369 0.5369 0.8437 -10.6821 35.0085)" fill="#F2A1A9" cx="54.77" cy="35.846" rx="1.362" ry="0.58"/>
<path fill="none" d="M40.637,69.17c-0.381,0.037-0.762,0.071-1.144,0.099C39.875,69.241,40.256,69.207,40.637,69.17z"/>
<path fill="none" d="M42.604,68.933c-0.411,0.06-0.823,0.116-1.236,0.164C41.781,69.049,42.192,68.992,42.604,68.933z"/>
<path fill="none" d="M38.73,69.315c-0.375,0.021-0.75,0.036-1.125,0.048C37.98,69.352,38.355,69.336,38.73,69.315z"/>
<path fill="none" d="M45.059,68.512c-0.607,0.126-1.22,0.235-1.834,0.333C43.839,68.747,44.451,68.638,45.059,68.512z"/>
<path fill="none" d="M27.477,68.627c-0.148-0.025-0.298-0.05-0.445-0.077C27.179,68.577,27.328,68.602,27.477,68.627z"/>
<path fill="none" d="M29.417,68.928c-0.171-0.023-0.341-0.049-0.511-0.073C29.076,68.879,29.246,68.904,29.417,68.928z"/>
<path fill="none" d="M34.969,69.373c-0.419-0.011-0.836-0.03-1.254-0.051C34.132,69.343,34.55,69.362,34.969,69.373z"/>
<path fill="none" d="M36.842,69.381c-0.383,0.006-0.767,0.005-1.149,0.001C36.075,69.386,36.458,69.387,36.842,69.381z"/>
<path fill="none" d="M55.597,64.492c-0.358,0.214-0.718,0.425-1.084,0.623C54.879,64.917,55.238,64.706,55.597,64.492z"/>
<path fill="none" d="M57.669,63.148C57.669,63.148,57.669,63.148,57.669,63.148c-0.505,0.362-1.021,0.704-1.546,1.032
	C56.647,63.853,57.164,63.511,57.669,63.148z"/>
<path fill="none" d="M53.873,65.446c-0.339,0.174-0.68,0.345-1.025,0.506C53.193,65.791,53.534,65.62,53.873,65.446z"/>
<path fill="none" d="M52.159,66.262c-0.341,0.149-0.684,0.294-1.029,0.432C51.476,66.556,51.818,66.411,52.159,66.262z"/>
<path fill="none" d="M48.659,67.574c-0.392,0.123-0.787,0.235-1.184,0.345C47.872,67.81,48.268,67.697,48.659,67.574z"/>
<path fill="none" d="M46.871,68.088c-0.577,0.148-1.158,0.285-1.742,0.407C45.713,68.373,46.294,68.236,46.871,68.088z"/>
<path fill="none" d="M50.424,66.968c-0.354,0.132-0.713,0.257-1.071,0.377C49.711,67.224,50.069,67.1,50.424,66.968z"/>
<path fill="none" d="M33.107,69.293c-0.618-0.039-1.233-0.087-1.845-0.147C31.874,69.206,32.489,69.254,33.107,69.293z"/>
<path fill="none" d="M13.477,62.729c0,0,0.001,0.001,0.001,0.001c-0.151-0.121-0.297-0.252-0.446-0.377
	C13.18,62.48,13.327,62.609,13.477,62.729z"/>
<path fill="none" d="M19.599,66.362c-0.132-0.057-0.263-0.118-0.395-0.177C19.336,66.244,19.467,66.306,19.599,66.362z"/>
<path fill="none" d="M23.476,67.723c-0.164-0.047-0.328-0.095-0.492-0.144C23.147,67.628,23.312,67.676,23.476,67.723z"/>
<path fill="none" d="M17.937,65.583c-0.144-0.073-0.289-0.146-0.432-0.222C17.648,65.438,17.793,65.51,17.937,65.583z"/>
<path fill="none" d="M21.535,67.11c-0.092-0.032-0.186-0.061-0.278-0.094C21.349,67.05,21.443,67.078,21.535,67.11z"/>
<path fill="none" d="M25.244,68.18c-0.101-0.023-0.2-0.05-0.3-0.074C25.044,68.13,25.143,68.156,25.244,68.18z"/>
<path d="M16.006,64.472c0.794-0.031,1.598-0.213,2.325-0.527c1.028-0.445,1.271-1.035,1.265-1.504
	c1.333,0.322,2.621,0.016,3.496-0.863c0.514-0.516,0.746-0.984,0.712-1.438c-0.023-0.297-0.16-0.545-0.331-0.746
	c0.153-0.035,0.303-0.086,0.447-0.15c1.784-0.803,1.81-2.484,1.24-3.791c-1.208-2.764-3.782-6.066-7.063-6.283H18.03
	c-0.371,0.014-0.625,0.33-0.629,0.617c-0.003,0.252,0.182,0.441,0.45,0.459c2.078,0.137,3.635,1.826,4.885,3.463
	c0.58,0.758,1.046,1.617,1.389,2.281c0.248,0.482,0.343,1.238,0.043,1.75c-0.25,0.43-0.727,0.623-1.441,0.566
	c-0.801-0.063-1.397-0.527-1.988-1.039c-0.256-0.221-0.676-0.141-0.869,0.15c-0.104,0.158-0.127,0.344-0.064,0.51
	c0.292,0.77,1.068,1.133,1.753,1.451c0.198,0.094,0.394,0.184,0.576,0.285c0.233,0.127,0.365,0.289,0.393,0.48
	c0.039,0.271-0.127,0.617-0.456,0.947c-0.235,0.236-0.59,0.359-1.085,0.379c-0.262,0.01-0.514-0.014-0.681-0.031
	c-0.539-0.057-1.091-0.264-1.558-0.568c-0.219-0.213-0.473-0.42-0.698-0.57l-0.108-0.082c-0.282-0.188-0.692-0.031-0.833,0.305
	c-0.084,0.203-0.054,0.41,0.081,0.557c0.248,0.271,0.575,0.533,0.947,0.758l0.046,0.043c0.022,0.018,0.045,0.037,0.066,0.061
	c0.244,0.25,0.207,0.404,0.194,0.455c-0.07,0.289-0.569,0.629-1.271,0.863c-0.325,0.107-0.679,0.17-1.051,0.184
	c-0.939,0.037-1.917-0.246-2.643-0.712c1.274,1.019,2.622,1.887,4.027,2.631c-0.53-0.28-1.053-0.573-1.565-0.891
	C15.962,64.47,15.984,64.473,16.006,64.472z"/>
<path d="M12.691,62.022c-0.062-0.085-0.151-0.138-0.25-0.167c-0.756-0.675-1.484-1.406-2.182-2.2
	c0.876,0.998,1.806,1.888,2.773,2.698c-0.064-0.055-0.13-0.108-0.194-0.163C12.789,62.135,12.734,62.081,12.691,62.022z"/>
<path d="M49.353,67.345c-0.23,0.077-0.461,0.157-0.693,0.229C48.892,67.502,49.121,67.422,49.353,67.345z"/>
<path d="M27.031,68.55c-0.601-0.111-1.197-0.233-1.788-0.37C25.834,68.316,26.43,68.438,27.031,68.55z"/>
<path d="M52.848,65.952c-0.228,0.106-0.458,0.209-0.688,0.31C52.39,66.161,52.62,66.059,52.848,65.952z"/>
<path d="M54.513,65.115c-0.211,0.115-0.426,0.222-0.64,0.331C54.087,65.337,54.302,65.23,54.513,65.115z"/>
<path d="M56.123,64.181c-0.173,0.108-0.352,0.207-0.526,0.312C55.771,64.388,55.95,64.289,56.123,64.181z"/>
<path d="M51.13,66.693c-0.234,0.094-0.47,0.187-0.706,0.274C50.66,66.879,50.895,66.787,51.13,66.693z"/>
<path d="M57.956,62.134c-0.447,0.016-0.871-0.033-1.26-0.15c-0.709-0.215-1.219-0.537-1.297-0.824
	c-0.014-0.051-0.055-0.203,0.182-0.463c0.021-0.021,0.043-0.041,0.064-0.063l0.045-0.043c0.365-0.236,0.684-0.508,0.924-0.785
	c0.131-0.152,0.152-0.373,0.057-0.572c-0.094-0.197-0.275-0.332-0.469-0.357l-0.219,0.049l-0.215,0.094
	c-0.258,0.189-0.506,0.404-0.68,0.594c-0.496,0.35-1.041,0.572-1.578,0.646c-0.156,0.021-0.332,0.041-0.514,0.049
	c-0.582,0.021-0.994-0.092-1.264-0.344c-0.338-0.32-0.514-0.66-0.482-0.932c0.021-0.193,0.148-0.359,0.377-0.494
	c0.18-0.105,0.373-0.203,0.566-0.301c0.676-0.34,1.441-0.725,1.709-1.504c0.061-0.174,0.029-0.363-0.088-0.52
	c-0.205-0.277-0.617-0.338-0.865-0.113c-0.572,0.529-1.154,1.012-1.953,1.1c-0.697,0.074-1.178-0.096-1.445-0.502
	c-0.33-0.502-0.262-1.271-0.023-1.771c0.322-0.676,0.764-1.549,1.32-2.324c1.199-1.67,2.705-3.406,4.779-3.607
	c0.273-0.025,0.451-0.225,0.436-0.482c-0.02-0.289-0.301-0.6-0.713-0.584c0,0,0,0-0.002,0c-3.271,0.314-5.746,3.693-6.871,6.492
	c-0.529,1.322-0.453,3.002,1.354,3.75c0.146,0.061,0.297,0.107,0.451,0.139c-0.164,0.205-0.295,0.457-0.309,0.756
	c-0.021,0.453,0.227,0.916,0.754,1.416c0.902,0.852,2.195,1.119,3.521,0.758c0.008,0.469,0.27,1.051,1.309,1.463
	c0.669,0.267,1.39,0.414,2.11,0.446c1.078-0.773,2.109-1.627,3.085-2.565c-0.469,0.451-0.952,0.88-1.445,1.292
	C58.877,62.022,58.417,62.115,57.956,62.134z"/>
<path d="M47.476,67.919c-0.202,0.056-0.401,0.116-0.604,0.169C47.074,68.035,47.273,67.975,47.476,67.919z"/>
<path d="M35.692,69.382c-0.241-0.003-0.483-0.003-0.724-0.009C35.21,69.379,35.451,69.379,35.692,69.382z"/>
<path d="M31.262,69.146c-0.62-0.062-1.234-0.137-1.845-0.218C30.028,69.009,30.642,69.084,31.262,69.146z"/>
<path d="M22.984,67.579c-0.488-0.146-0.971-0.302-1.449-0.469C22.013,67.277,22.496,67.434,22.984,67.579z"/>
<path d="M33.715,69.322c-0.203-0.011-0.406-0.017-0.608-0.029C33.309,69.306,33.512,69.312,33.715,69.322z"/>
<path d="M28.905,68.854c-0.479-0.068-0.956-0.145-1.429-0.228C27.95,68.71,28.426,68.786,28.905,68.854z"/>
<path d="M24.943,68.105c-0.493-0.118-0.982-0.246-1.468-0.383C23.961,67.859,24.45,67.987,24.943,68.105z"/>
<path d="M37.605,69.363c-0.255,0.008-0.509,0.015-0.764,0.018C37.097,69.378,37.351,69.371,37.605,69.363z"/>
<path d="M41.368,69.097c-0.243,0.027-0.488,0.05-0.731,0.073C40.881,69.146,41.125,69.124,41.368,69.097z"/>
<path d="M45.129,68.495c-0.023,0.005-0.047,0.012-0.07,0.017C45.082,68.507,45.105,68.5,45.129,68.495z"/>
<path d="M43.225,68.845c-0.206,0.033-0.414,0.058-0.62,0.088C42.812,68.902,43.019,68.878,43.225,68.845z"/>
<path d="M19.205,66.186c-0.427-0.19-0.85-0.392-1.268-0.603C18.354,65.794,18.777,65.995,19.205,66.186z"/>
<path d="M21.257,67.017c-0.56-0.201-1.112-0.421-1.658-0.654C20.145,66.596,20.697,66.815,21.257,67.017z"/>
<path d="M39.493,69.269c-0.254,0.019-0.509,0.033-0.763,0.047C38.984,69.302,39.239,69.287,39.493,69.269z"/>
<path fill="#FFFFFF" d="M21.979,52.769c0,0,2.397,2.838,2.372,4.076c0,0,0.158,1.381-1.192,1.463c0,0-0.75,0.121-1.611-0.418
	c0,0,1.802,0.254,2.06-0.902C23.607,56.987,24.222,55.708,21.979,52.769z"/>
<path fill="#FFFFFF" d="M20.603,58.868c0,0,1.378,1.535-0.14,1.717c0,0-0.871,0.076-2.281-0.191c0,0,1.09,1.246,2.804,1.076
	c0,0,1.234,0.092,1.543-1.195c0,0,0.104-0.428-0.736-0.785C21.793,59.489,21.155,59.241,20.603,58.868z"/>
<path fill="#FFFFFF" d="M17.386,61.276c0,0,1.588,0.883,0.884,1.387c0,0-1.776,1.58-4.333,0.322c0,0-1.359-0.805-3.1-2.67
	c0,0,3.014,2.238,5.185,2.23C16.022,62.546,17.755,62.519,17.386,61.276z"/>
<path fill="#FFFFFF" d="M52.276,50.849c0,0-5.051,5.326-2.033,6.391c0,0,1.141,0.359,2.551-0.996c0,0-2.467,0.961-2.484-0.703
	C50.31,55.54,50.276,53.55,52.276,50.849z"/>
<path fill="#FFFFFF" d="M52.737,57.952c0,0-1.512,0.457-1.486,1.08c0,0-0.066,1.891,2.703,1.131c0,0,1.008-0.27,1.471-0.871
	C55.425,59.292,51.792,59.819,52.737,57.952z"/>
<path fill="#FFFFFF" d="M56.282,60.142c0,0-0.883,0.537-0.893,0.902c0,0-0.141,1.264,3.012,1.049c0,0,1.309-0.072,2.42-1.107
	C60.821,60.985,56.284,62.569,56.282,60.142z"/>
<path fill="#273F87" d="M43.44,52.651c0.543-0.697,0.887-2.227-0.412-2.328c-2.521-0.197-5.037-0.07-7.56-0.01
	c-2.292,0.057-4.577-0.27-6.826,0.305c-1.001,0.256-1.937,0.986-2.212,2.023c-0.226,0.846,0.369,1.654,1.297,1.418
	c0.875-0.223,1.76-0.293,2.649-0.305l1.621,1.045c-0.959,0.389-1.879,0.832-2.639,1.391c-1.265,0.934-2.004,3.953,0.471,2.936
	c1.006-0.412,1.995-0.857,2.978-1.316c0.007-0.002,0.014-0.004,0.021-0.008c-0.666,1.1-0.936,2.148-0.111,2.818
	c0.687,0.557,1.483,0.646,2.313,0.549c-0.074,0.109-0.149,0.219-0.217,0.33c-0.473,0.783-0.23,1.705,0.692,1.887
	c1.924,0.379,3.525-0.367,5.355-0.842c1-0.26,1.936-0.984,2.213-2.023c0.225-0.844-0.369-1.66-1.297-1.418
	c-0.58,0.15-1.148,0.35-1.719,0.52c0.869-0.898,1.461-2.896-0.471-2.709c-0.604,0.057-1.18,0.221-1.764,0.375
	c-0.369,0.098-0.737,0.191-1.108,0.275c-0.063,0.01-0.121,0.021-0.184,0.035c0.494-0.6,1.051-1.207,1.583-1.873
	C40.013,55.009,42.183,54.271,43.44,52.651z"/>
</svg>
