<?xml version="1.0" encoding="utf-8"?>
<!-- Generator: Adobe Illustrator 15.1.0, SVG Export Plug-In . SVG Version: 6.00 Build 0)  -->
<!DOCTYPE svg PUBLIC "-//W3C//DTD SVG 1.1//EN" "http://www.w3.org/Graphics/SVG/1.1/DTD/svg11.dtd">
<svg version="1.1" id="圖層_1" xmlns="http://www.w3.org/2000/svg" xmlns:xlink="http://www.w3.org/1999/xlink" x="0px" y="0px"
	 width="72px" height="72px" viewBox="0 0 72 72" enable-background="new 0 0 72 72" xml:space="preserve">
<g>
	<g>
		<path fill="#BFC0C0" d="M35.951,6.015c0,0-22.101-0.799-27.61,27.686c0,0-14.119,22.063,10.993,33.428
			c0,0,24.101,9.183,41.138-5.665c0,0,11.395-8.58,3.977-25.177C64.448,36.287,61.077,6.787,35.951,6.015z"/>
		<path d="M36.052,5.125c-13.04-0.417-22.88,10.977-26.671,22.305c-0.493,1.474-0.875,2.982-1.227,4.495
			c-0.099,0.424-0.026,1.009-0.251,1.38c-0.382,0.632-0.727,1.287-1.054,1.949c-1.215,2.462-2.117,5.124-2.609,7.826
			c-1.556,8.54,1.614,16.206,8.586,21.368c5.859,4.338,12.985,5.811,20.136,6.28c10.236,0.672,20.212-2.073,28.048-8.821
			c5.803-4.997,7.417-13.16,5.924-20.389c-0.55-2.66-1.746-4.997-2.247-7.649c-0.5-2.645-1.257-5.239-2.188-7.762
			C58.153,14.343,49.011,5.662,36.052,5.125c-0.685-0.028-1.049,1.744-0.202,1.779c15.985,0.662,25.966,14.671,27.995,29.521
			c0.243,1.776,1.329,3.585,1.808,5.353c0.877,3.245,0.962,6.69,0.188,9.962c-0.772,3.267-2.621,6.351-5.104,8.606
			c-8.189,7.44-19.454,9.545-30.168,8.364c-7.742-0.854-14.856-3.183-20.459-8.89c-5.976-6.086-6.185-14.829-3.053-22.328
			C7.68,36,8.713,34.616,9.033,33.029c1.166-5.801,3.394-11.4,7.031-16.097c4.158-5.369,10.435-8.911,17.139-9.844
			c0.87-0.121,1.768-0.212,2.647-0.184C36.537,6.927,36.897,5.152,36.052,5.125z"/>
	</g>
	<path fill="#FFFFFF" d="M48.83,36.327c0,0,11.95,2.41,14.626-2.108c0,0-1.722-11.363-9.012-18.457
		C54.444,15.762,46.373,12.554,48.83,36.327z"/>
	<path fill="#FFFFFF" d="M16.611,16.33c0,0-6.017,6.712-7.977,17.889c0,0,7.912,5.316,17.152,3.145
		C25.786,37.363,24.657,11.263,16.611,16.33z"/>
	<path d="M15.958,17.086c0,0,8.004-8.791,9.494,20.139c0,0,11.393,6.329,24.2-0.886c0,0-2.183-27.377,6.081-19.214
		c0,0-8.033-12.965-20.963-11.074C34.771,6.05,23.005,5.956,15.958,17.086z"/>
	<path fill="#ED7C95" d="M40.319,34.794c0.183-0.177,0.31-0.339,0.407-0.493c1.577-2.271-0.726-2.941-0.726-2.941l-1.241,0.864
		v0.003c-0.533-0.099-1.19-0.165-2.014-0.162c-0.041,0-0.082,0-0.121,0c-0.04,0-0.075-0.001-0.115,0v0.004
		c-0.927,0.021-1.676,0.183-2.249,0.368c-0.423-0.284-1.04-0.658-1.04-0.658c-1.225,0.302-0.688,1.545-0.443,2.021
		c0.079,0.183,0.219,0.375,0.396,0.57c0,0-0.002,0.004-0.002,0.004s0.028,0.028,0.071,0.07c0.124,0.13,0.26,0.261,0.409,0.389
		c0.72,0.66,2.102,1.797,3.091,1.842c0.029,0.002,0.059,0.006,0.088,0.007l0,0c0.305,0.009,0.556-0.07,0.719-0.144
		c0.503-0.191,1.724-0.72,2.628-1.603l0.004,0.002c0.016-0.016,0.027-0.031,0.044-0.048c0.031-0.032,0.064-0.06,0.096-0.092
		L40.319,34.794z"/>
	<path fill="#F29FA8" d="M41.219,32.479h0.005c-0.001-0.007-0.005-0.013-0.006-0.021c0.014-0.185-0.036-0.336-0.107-0.456
		c-0.793-2.62-4.247-3.419-4.247-3.419c-2.98,0.729-4.077,2.828-4.318,3.424c-0.043,0.069-0.07,0.142-0.075,0.218
		c0,0.004-0.003,0.012-0.003,0.012h0.001c-0.009,0.264,0.192,0.568,0.499,0.879c0,0-0.002,0.005-0.002,0.005
		s0.031,0.027,0.076,0.068c0.131,0.127,0.274,0.255,0.434,0.38c0.764,0.645,3.371,1.805,3.371,1.805
		c0.323,0.009,2.732-0.895,3.701-1.842l-0.003,0C41.017,33.111,41.192,32.759,41.219,32.479z"/>
	<path fill="#F091A0" d="M36.863,28.583c0,0,0.094,2.842,0.116,6.596c0,0-5.529-1.831-4.217-3.619
		C32.763,31.56,33.886,29.337,36.863,28.583z"/>
	<path fill="#FCE3CD" d="M32.447,32.235c0.104,1.525,2.781,2.791,4.058,3.11c1.051,0.264,2.186-0.426,3.103-0.886
		c0.81-0.405,1.648-1.042,1.648-2c0-0.325-0.305-0.293-0.305,0.023c0,0.936-1.923,1.796-2.687,2.025
		c-0.807,0.242-1.376,0.559-2.216,0.142c-0.5-0.249-0.981-0.511-1.503-0.716c-0.504-0.197-1.751-1.093-1.794-1.722
		C32.73,31.89,32.426,31.915,32.447,32.235L32.447,32.235z"/>
	<path d="M25.298,36.798c-1.419,0.566-2.591,1.061-4.191,1.025c-1.817-0.04-3.685-0.579-5.404-1.107
		c-0.169-0.052-0.614,0.218-0.384,0.289c1.81,0.556,3.71,1.085,5.618,1.142c0.997,0.03,1.934-0.149,2.917-0.311
		c0.615-0.1,0.996-0.549,1.54-0.766C25.688,36.953,25.598,36.678,25.298,36.798L25.298,36.798z"/>
	<g>
		<g>
			<circle fill="#FFFFFF" cx="25.07" cy="30.804" r="6.432"/>
			<path fill="#ED777D" d="M25.064,37.5c-3.535,0-6.468-2.766-6.678-6.298c-0.219-3.686,2.601-6.863,6.287-7.082
				c3.709-0.223,6.864,2.621,7.082,6.286c0.218,3.686-2.602,6.863-6.287,7.082C25.333,37.496,25.197,37.5,25.064,37.5z
				 M25.076,24.638c-0.123,0-0.247,0.004-0.372,0.011c-3.394,0.202-5.991,3.127-5.789,6.521c0.201,3.375,3.089,5.999,6.522,5.789
				c3.394-0.202,5.991-3.128,5.789-6.521C31.032,27.186,28.331,24.638,25.076,24.638z"/>
		</g>
		<g>
			<circle fill="#341317" cx="25.07" cy="30.804" r="5.42"/>
			<path d="M25.065,36.49c-3.001,0-5.492-2.349-5.67-5.348c-0.186-3.129,2.208-5.827,5.337-6.013
				c3.138-0.196,5.827,2.226,6.012,5.337c0.09,1.516-0.415,2.977-1.423,4.112c-1.008,1.136-2.398,1.811-3.914,1.901
				C25.293,36.486,25.179,36.49,25.065,36.49z M25.075,25.648c-0.103,0-0.207,0.003-0.312,0.009
				c-2.837,0.169-5.008,2.615-4.839,5.452c0.168,2.822,2.576,5.018,5.452,4.841c1.375-0.083,2.635-0.695,3.549-1.725
				s1.373-2.354,1.29-3.729C30.055,27.778,27.796,25.648,25.075,25.648z"/>
		</g>
		<circle fill="#FFFFFF" cx="26.26" cy="29.487" r="2.394"/>
		<circle fill="#FFFFFF" cx="23.005" cy="33.818" r="0.861"/>
	</g>
	<path d="M48.388,35.936c0.587,0.378,1.082,0.468,1.761,0.62c0.851,0.19,1.871,0.586,2.739,0.603
		c0.765,0.016,1.558,0.127,2.313,0.034c0.948-0.116,1.91-0.376,2.862-0.448c0.236-0.018,0.175-0.544-0.065-0.526
		c-1.483,0.112-2.863,0.426-4.36,0.396c-0.924-0.019-1.695-0.196-2.585-0.422c-0.887-0.225-1.751-0.221-2.545-0.732
		C48.266,35.303,48.203,35.816,48.388,35.936L48.388,35.936z"/>
	<g>
		<circle fill="#FFFFFF" cx="48.448" cy="29.907" r="6.431"/>
		<path fill="#ED777D" d="M48.442,36.603c-3.535,0-6.469-2.767-6.679-6.298c-0.219-3.686,2.602-6.862,6.287-7.082
			c3.708-0.222,6.863,2.621,7.081,6.286c0.106,1.786-0.489,3.505-1.676,4.843c-1.188,1.337-2.825,2.132-4.61,2.239
			C48.711,36.599,48.575,36.603,48.442,36.603z M48.454,23.74c-0.123,0-0.248,0.004-0.372,0.011
			c-3.395,0.202-5.991,3.128-5.789,6.521c0.2,3.375,3.085,5.995,6.521,5.789c1.644-0.098,3.151-0.83,4.245-2.062
			c1.094-1.231,1.642-2.815,1.544-4.459C54.41,26.288,51.709,23.74,48.454,23.74z"/>
	</g>
	<g>
		<circle fill="#341317" cx="48.448" cy="29.906" r="5.42"/>
		<path d="M48.453,35.592L48.453,35.592c-0.113,0-0.229-0.003-0.343-0.01c-1.517-0.091-2.906-0.766-3.914-1.901
			s-1.514-2.596-1.423-4.112c0.185-3.111,2.868-5.53,6.012-5.337c3.13,0.186,5.523,2.883,5.338,6.013
			C53.944,33.243,51.454,35.592,48.453,35.592z M48.443,24.751c-2.722,0-4.979,2.13-5.141,4.849
			c-0.083,1.375,0.376,2.699,1.29,3.729s2.174,1.642,3.55,1.725c2.858,0.174,5.283-2.018,5.451-4.841
			c0.169-2.837-2.002-5.283-4.839-5.452C48.65,24.754,48.546,24.751,48.443,24.751z"/>
	</g>
	<circle fill="#FFFFFF" cx="47.258" cy="28.589" r="2.394"/>
	<circle fill="#FFFFFF" cx="50.513" cy="32.921" r="0.861"/>
	<path fill="#FFFDDD" d="M18.058,49.503c0,0,1.592-3.552,6.938-5.718c0,0,16.493-5.904,28.872,4.152c0,0-9.992,7.629-3.354,9.709
		c0,0-2.476,3.812,4.203,2.771c0,0,1,2.555,3.314,2.179c0,0-18.4,13.873-42.518,1.689c0,0,4.776-1.232,2.545-3.026
		c0,0,5.984,1.262,4.085-2.346c0,0,3.57-0.235,1.723-3.934C23.866,54.98,21.502,50.109,18.058,49.503z"/>
	<path d="M24.667,55.267c-1.208-2.763-3.781-6.066-7.063-6.282l-0.067-0.001c-0.371,0.015-0.625,0.331-0.628,0.617
		c-0.004,0.253,0.182,0.441,0.45,0.459c2.078,0.138,3.635,1.827,4.884,3.463c0.58,0.758,1.046,1.617,1.389,2.282
		c0.248,0.481,0.343,1.236,0.043,1.749c-0.25,0.429-0.727,0.624-1.441,0.567c-0.801-0.063-1.397-0.528-1.988-1.04
		c-0.255-0.222-0.675-0.141-0.868,0.151c-0.104,0.157-0.127,0.344-0.064,0.509c0.292,0.771,1.068,1.133,1.752,1.451
		c0.198,0.094,0.395,0.185,0.576,0.284c0.233,0.129,0.366,0.291,0.394,0.482c0.039,0.271-0.127,0.616-0.456,0.946
		c-0.235,0.235-0.589,0.359-1.085,0.379c-0.261,0.01-0.514-0.013-0.681-0.03c-0.539-0.058-1.091-0.265-1.558-0.568
		c-0.219-0.213-0.473-0.421-0.698-0.57l-0.108-0.082c-0.281-0.188-0.692-0.032-0.832,0.304c-0.084,0.203-0.055,0.411,0.08,0.557
		c0.248,0.271,0.575,0.533,0.947,0.758l0.046,0.042c0.023,0.02,0.045,0.039,0.066,0.061c0.244,0.251,0.207,0.405,0.194,0.456
		c-0.07,0.29-0.569,0.628-1.271,0.862c-0.325,0.109-0.679,0.171-1.051,0.186c-1.351,0.052-2.794-0.546-3.43-1.421
		c-0.238-0.326-0.858-0.217-1.03,0.137c-0.078,0.161-0.062,0.338,0.045,0.486c0.883,1.213,2.49,1.896,4.3,1.826
		c0.794-0.031,1.598-0.214,2.325-0.527c1.028-0.444,1.271-1.034,1.264-1.504c1.333,0.322,2.621,0.016,3.497-0.863
		c0.514-0.515,0.747-0.984,0.712-1.437c-0.023-0.299-0.16-0.545-0.332-0.747c0.154-0.035,0.304-0.086,0.447-0.15
		C25.21,58.255,25.237,56.573,24.667,55.267z"/>
	<path d="M61.675,60.523c-0.192-0.346-0.8-0.429-1.028-0.096c-0.576,0.846-1.885,1.47-3.184,1.521
		c-0.445,0.017-0.869-0.034-1.259-0.15c-0.709-0.214-1.218-0.537-1.297-0.824c-0.013-0.05-0.055-0.203,0.183-0.462
		c0.021-0.022,0.042-0.043,0.063-0.063l0.045-0.043c0.365-0.237,0.685-0.509,0.924-0.786c0.132-0.152,0.154-0.372,0.057-0.572
		c-0.094-0.196-0.274-0.331-0.467-0.358l-0.22,0.05l-0.216,0.094c-0.257,0.189-0.505,0.405-0.68,0.593
		c-0.495,0.351-1.041,0.574-1.578,0.648c-0.155,0.021-0.331,0.04-0.514,0.047c-0.581,0.022-0.994-0.09-1.262-0.344
		c-0.339-0.319-0.515-0.659-0.484-0.932c0.021-0.192,0.148-0.357,0.379-0.493c0.178-0.104,0.37-0.202,0.566-0.301
		c0.674-0.34,1.439-0.726,1.709-1.504c0.06-0.173,0.027-0.362-0.09-0.52c-0.205-0.277-0.616-0.339-0.864-0.113
		c-0.573,0.53-1.155,1.012-1.955,1.1c-0.695,0.074-1.176-0.095-1.443-0.501c-0.331-0.503-0.262-1.273-0.023-1.773
		c0.322-0.675,0.764-1.548,1.32-2.322c1.199-1.672,2.705-3.407,4.778-3.607c0.273-0.026,0.453-0.225,0.436-0.483
		c-0.02-0.288-0.302-0.6-0.711-0.584c-0.002,0-0.002,0-0.003,0c-3.272,0.314-5.747,3.693-6.871,6.492
		c-0.53,1.322-0.453,3.003,1.354,3.75c0.146,0.062,0.296,0.107,0.451,0.138c-0.165,0.206-0.295,0.458-0.309,0.757
		c-0.021,0.453,0.226,0.916,0.754,1.415c0.902,0.854,2.194,1.119,3.521,0.758c0.007,0.47,0.268,1.052,1.31,1.465
		c0.831,0.33,1.744,0.486,2.638,0.452c1.681-0.063,3.155-0.793,3.944-1.949C61.754,60.868,61.763,60.683,61.675,60.523z"/>
	<path d="M45.106,4.165c-1.022-1.303-3.905-0.761-5.3-0.495c-0.275,0.053-0.552,0.132-0.827,0.23c0.062-0.068,0.12-0.138,0.188-0.2
		c0.516-0.471,0.998-0.889,1.383-1.472c0.197-0.3,0.175-0.719-0.121-0.939c-1.055-0.785-2.94,0.45-3.869,0.975
		c-0.236,0.134-0.45,0.297-0.648,0.478c-0.661,0.455-1.231,1.004-1.653,1.65c-0.07-0.036-0.141-0.07-0.214-0.107
		c-1.378-0.689-2.969-1.141-4.453-0.58c-0.528,0.2-2.081,1.736-0.764,1.992c0.901,0.175,1.812,0.267,2.631,0.706
		c1.032,0.553,1.404,1.548,1.893,2.549c0.157,0.32,0.5,0.407,0.887,0.345c-0.02,0.065-0.044,0.129-0.062,0.195
		c-0.242,0.946,0.837,0.873,1.701,0.415c0.248,0.006,0.507-0.044,0.697-0.127c1.38-0.601,1.833-2.699,3.255-2.91
		c0.217-0.032,0.462-0.168,0.691-0.354c1.177-0.183,2.483-0.184,3.414-0.637C44.374,5.665,45.634,4.837,45.106,4.165z"/>
</g>
</svg>
