<?xml version="1.0" encoding="utf-8"?>
<!-- Generator: Adobe Illustrator 15.1.0, SVG Export Plug-In . SVG Version: 6.00 Build 0)  -->
<!DOCTYPE svg PUBLIC "-//W3C//DTD SVG 1.1//EN" "http://www.w3.org/Graphics/SVG/1.1/DTD/svg11.dtd">
<svg version="1.1" id="圖層_1" xmlns="http://www.w3.org/2000/svg" xmlns:xlink="http://www.w3.org/1999/xlink" x="0px" y="0px"
	 width="72px" height="72px" viewBox="0 0 72 72" enable-background="new 0 0 72 72" xml:space="preserve">
<g>
	<g>
		<path fill="#5CB531" d="M35.951,6.015c0,0-22.1-0.799-27.609,27.686c0,0-14.12,22.062,10.992,33.429c0,0,24.1,9.182,41.139-5.666
			c0,0,11.393-8.58,3.975-25.177C64.447,36.287,61.076,6.787,35.951,6.015z"/>
		<path d="M36.051,5.125C23.012,4.709,13.172,16.103,9.381,27.431c-0.493,1.474-0.875,2.982-1.227,4.495
			c-0.098,0.424-0.026,1.009-0.251,1.38c-0.382,0.632-0.727,1.287-1.054,1.949C5.634,37.718,4.732,40.38,4.24,43.08
			c-1.556,8.54,1.614,16.207,8.586,21.369c5.859,4.337,12.984,5.811,20.137,6.28c10.236,0.672,20.21-2.073,28.048-8.821
			c5.803-4.997,7.416-13.16,5.922-20.389c-0.549-2.659-1.746-4.997-2.246-7.649c-0.5-2.645-1.258-5.239-2.189-7.762
			C58.152,14.343,49.01,5.662,36.051,5.125c-0.686-0.029-1.049,1.744-0.202,1.779c15.985,0.661,25.965,14.671,27.997,29.521
			c0.242,1.776,1.328,3.586,1.807,5.353c0.877,3.245,0.961,6.691,0.188,9.961c-0.771,3.269-2.621,6.352-5.104,8.608
			c-8.189,7.439-19.455,9.544-30.168,8.363c-7.742-0.854-14.856-3.184-20.459-8.89c-5.976-6.086-6.185-14.829-3.053-22.328
			C7.681,36,8.713,34.616,9.033,33.029c1.166-5.8,3.394-11.4,7.031-16.097c4.158-5.369,10.435-8.911,17.138-9.844
			c0.87-0.121,1.768-0.212,2.647-0.184C36.537,6.927,36.898,5.152,36.051,5.125z"/>
	</g>
	<path fill="#BBD764" d="M17.101,40.282c0,0,4.306,0.913,5.49-1.616c0,0,14.23,6.354,26.017-0.538c0,0,0.82,2.52,4.434,2.501
		c0,0,2.332,4.004-0.469,8.354c0,0-6.031,4.839-4.184,8.075c0,0,0.889,0.403,2.102,0.699c0,0-2.047,3.462,3.461,2.784
		c0,0,2.105,2.469,4.773,2.299c0,0-18.811,14.729-44.739,0.894c0,0,4.916,0.194,4.925-2.031c0,0,5.673,0.483,3.325-2.999
		c0,0,3.968,0.463,0.858-6.154c0,0-1.473-1.154-3.515-2.36C19.579,50.188,15.354,48.136,17.101,40.282z"/>
	<path fill="#C30D23" d="M24.375,37.235c0,0,7.868,4.563,16.616,2.648c0,0,4.543-0.45,7.045-3.122c0,0,0.121,9.608-10.693,10.27
		C37.342,47.031,23.265,47.824,24.375,37.235z"/>
	<path fill="#2EA7E0" d="M41.391,26.909c-0.199-0.021-0.453,0.087-0.717,0.233c-0.287-0.663-0.719-1.26-1.24-1.031
		c-0.186,0.082-0.352,0.25-0.508,0.46c-0.311-0.594-0.713-0.917-1.184-0.433c-0.328,0.336-0.596,0.746-0.863,1.157
		c-0.283-0.727-0.957-1.92-1.634-1.276c-0.2,0.19-0.39,0.665-0.583,1.187c-0.13-0.281-0.293-0.544-0.512-0.769
		c-0.283-0.292-0.706-0.642-1.096-0.28c-0.289,0.269-0.51,0.588-0.683,0.938c-0.458-0.781-1.22-1.687-1.581-0.63
		c-0.086,0.253-0.136,0.526-0.173,0.805c-0.167-0.228-0.362-0.45-0.6-0.675c-0.74-0.699-1.148,0.574-1.16,1.084
		c-0.017,0.791,0.207,1.582,0.657,2.222c0.307,1.359,0.521,2.824,1.236,3.988c0.269,0.437,1.218,1.36,1.54,0.388
		c0.061-0.184,0.105-0.371,0.137-0.561c0.1,0.061,0.205,0.117,0.321,0.156c0.509,0.173,0.72-0.422,0.823-0.776
		c0.039-0.13,0.071-0.269,0.1-0.413c0.232,0.322,0.536,0.557,0.954,0.539c0.539-0.023,0.872-0.433,1.124-0.965
		c0.322,0.516,0.762,0.85,1.283,0.509c0.203-0.134,0.377-0.296,0.541-0.471c0.236,0.253,0.529,0.415,0.881,0.415
		c0.414,0,0.682-0.227,0.887-0.545c0.426,1.239,1.26,2.313,1.752,1.283c0.463-0.97,0.984-1.905,1.5-2.848
		C43.051,29.764,42.6,27.037,41.391,26.909z"/>
	<path fill="#2EA7E0" d="M26.913,33.893c0.098-0.365-0.107-0.697-0.383-0.792c-0.473-0.164-0.916-0.197-1.448-0.051
		c-1.042,0.284-1.584,0.06-2.52-0.407c-2.727-1.36-3.711-2.916-1.867-6.52c0.521-1.046-0.251-1.299-1.232-1.112
		c-0.098-0.386-0.548-0.6-1.517-0.376c-4.383,1.011-9.666,6.911-5.614,11.104c2.862,2.963,7.888,5.689,12.4,1.764
		c0.362-0.314,0.715-0.779,0.768-1.192C26.131,35.713,26.637,34.92,26.913,33.893z"/>
	<path fill="#2EA7E0" d="M58.484,26.845c-0.563-0.382-1.404-0.377-2.623,0.231c-1.354,0.677-2.414,2.156-3.668,3.033
		c-2.188,1.532-4.742,1.662-6.83-0.186c-1.27-1.125-2.027,2.007-1.928,3.197c-0.055,0.312-0.078,0.566-0.066,0.69
		c0.127,1.263,0.836,2.105,1.818,2.675c0.082,0.079,0.176,0.144,0.293,0.179c0.016,0.004,0.031,0.006,0.047,0.011
		c1.895,0.926,4.568,1.537,6.287,1.537c3.242,0,7.59-2.005,8.447-5.274C60.666,31.392,60.242,27.167,58.484,26.845z"/>
	<path fill="#FAEE00" d="M47.705,33.743c-0.422-0.544-1.283-0.709-1.873-0.712c-0.568-0.004-1.141,0.025-1.715,0.068
		c0.037-0.062,0.064-0.125,0.074-0.191v0c0.523-0.361,0.332-0.799-0.234-1.075c-0.92-0.447-1.859-0.672-2.891-0.776
		c0.039-0.422,0.07-1.085-0.264-1.252c-0.119-0.834-0.383-1.675-0.688-2.24c-0.152-0.282-0.451-0.146-0.529,0.119
		c-0.105,0.356-0.211,0.801-0.387,1.188c-0.047-0.287-0.146-0.562-0.316-0.807c-0.143-0.204-0.34-0.21-0.479,0.003
		c-0.09,0.136-0.178,0.276-0.264,0.417c0.049-0.134,0.088-0.267,0.113-0.398c0.037-0.083,0.074-0.165,0.111-0.251
		c0.131-0.3-0.055-1.099-0.465-0.773c-0.662,0.528-1.072,0.971-1.437,1.582c-0.011-0.047-0.021-0.093-0.035-0.141
		c-0.122-0.594-0.308-1.168-0.707-1.583c-0.065-0.067-0.176-0.102-0.261-0.055c-0.309,0.169-0.403,0.447-0.388,0.82
		c0.019,0.451-0.144,0.796-0.318,1.133c-0.049-0.502-0.143-0.994-0.462-1.288c-0.238-0.219-0.467,0.094-0.496,0.342
		c-0.037,0.335-0.15,0.805-0.336,1.206c-0.056,0.102-0.113,0.207-0.17,0.313c-0.003,0.004-0.006,0.007-0.008,0.011
		c-0.041-0.046-0.081-0.095-0.115-0.102c-0.102-0.412-0.198-0.869-0.195-1.07c0.002-0.25-0.217-0.78-0.511-0.487
		c-0.224,0.224-0.268,0.381-0.296,0.71c-0.067,0.759-0.432,1.332-0.698,1.986c-0.065,0.099-0.12,0.205-0.165,0.312
		c-1.601,0.288-3.039,0.926-3.688,2.065c-0.114,0.2-0.092,0.378,0.009,0.534c-0.025,0.049-0.052,0.097-0.07,0.15
		c-0.069,0.199-0.061,0.412,0.004,0.626c-0.412,0.08-0.722,0.208-0.918,0.376c-1.533-0.359-2.839-0.105-2.921,2.214
		c-0.007,0.213,0.125,0.354,0.299,0.465l-0.114,0.054c0,0,9.459,7.265,23.981,0.259l-0.072-0.041
		c1.053-0.393,2.002-0.978,2.553-2.088C50.988,34.108,49.152,33.468,47.705,33.743z"/>
	<path fill="#000031" d="M13.609,25.854c0,0,2.03-1.378,5.907-1.991c2.786-0.479,4.808-0.331,5.663-0.224
		c0.018,0.002,0.035,0.002,0.054,0.005c0.022,0.001,0.042,0.001,0.065,0.003l-0.011,0.006c0.008,0.001,0.017,0.003,0.025,0.004
		c0.205,0.029,0.319,0.051,0.319,0.051l-0.006,0.002c0.537,0.098,1.073,0.247,1.6,0.467c3.776,1.573,5.637,5.725,4.16,9.272
		c-1.478,3.548-5.738,5.149-9.513,3.576c-2.484-1.036-4.132-3.188-4.553-5.549h-0.008c0,0-0.366-3.844-4.031-3.844
		C13.281,27.631,11.501,27.324,13.609,25.854z"/>
	<path fill="#C30D23" d="M39.77,35.737c0.701-0.722,1.033-1.621,0.494-2.471c-0.494-0.783-1.422-1.147-2.367-0.901
		c-0.719,0.188-1.608,0.592-1.935,1.327c-0.158,0.355-0.019,0.573,0.224,0.684c-0.019,0.052-0.041,0.103-0.053,0.159
		c-0.125,0.568,0.034,1.298,0.391,1.733C37.326,37.243,38.979,36.548,39.77,35.737z"/>
	<path fill="#C30D23" d="M32.859,35.9c-0.703-0.722-1.035-1.621-0.496-2.471c0.494-0.783,1.422-1.147,2.368-0.901
		c0.719,0.187,1.608,0.592,1.936,1.327c0.158,0.355,0.018,0.573-0.225,0.684c0.019,0.052,0.041,0.103,0.054,0.159
		c0.125,0.568-0.035,1.298-0.392,1.733C35.301,37.406,33.648,36.71,32.859,35.9z"/>
	<g>
		<polygon fill="#3E3A39" points="40.277,35.738 36.367,36.458 32.017,35.738 36.148,32.938 		"/>
		<g>
			<polygon fill="#1F1E1D" points="32.017,35.738 36.148,37.976 40.277,35.738 36.367,36.458 			"/>
			<polygon fill="#666464" points="36.148,32.938 36.367,36.458 40.277,35.738 			"/>
			<path d="M35.275,34.787c-0.091,0.06-0.214,0.035-0.274-0.057l0,0c-0.06-0.091-0.034-0.214,0.057-0.274l0.319-0.209
				c0.092-0.06,0.214-0.035,0.274,0.057l0,0c0.06,0.092,0.034,0.214-0.057,0.274L35.275,34.787z"/>
			<path d="M37.143,34.787c0.09,0.06,0.213,0.035,0.273-0.057l0,0c0.061-0.091,0.035-0.214-0.057-0.274l-0.32-0.209
				c-0.09-0.06-0.212-0.035-0.273,0.057l0,0c-0.06,0.092-0.034,0.214,0.057,0.274L37.143,34.787z"/>
		</g>
	</g>
	<g>
		<g>
			<circle fill="#FFFFFF" cx="25.07" cy="30.804" r="6.431"/>
			<path d="M25.063,37.501c-3.534,0-6.467-2.767-6.678-6.299c-0.106-1.785,0.489-3.505,1.676-4.843s2.824-2.133,4.61-2.239
				c3.706-0.22,6.864,2.621,7.082,6.287c0.106,1.786-0.489,3.505-1.676,4.843c-1.187,1.337-2.824,2.132-4.61,2.239
				C25.333,37.497,25.197,37.501,25.063,37.501z M25.075,24.638c-0.123,0-0.248,0.004-0.372,0.011
				c-1.644,0.098-3.151,0.83-4.245,2.062s-1.642,2.815-1.543,4.459c0.201,3.375,3.103,5.997,6.521,5.789
				c1.645-0.098,3.152-0.83,4.245-2.062c1.094-1.231,1.642-2.816,1.544-4.46C31.031,27.186,28.33,24.638,25.075,24.638z"/>
		</g>
		<g>
			<circle fill="#7F4F21" cx="25.07" cy="30.804" r="5.491"/>
			<path fill="#40220F" d="M25.075,36.494L25.075,36.494c-0.114,0-0.229-0.003-0.344-0.01c-3.132-0.187-5.528-2.886-5.342-6.018
				c0.186-3.115,2.867-5.524,6.019-5.342c3.132,0.187,5.528,2.886,5.342,6.018C30.571,34.143,28.079,36.494,25.075,36.494z
				 M25.065,25.512c-2.794,0-5.113,2.187-5.279,4.978c-0.173,2.913,2.056,5.424,4.969,5.597c2.93,0.174,5.426-2.071,5.598-4.969
				c0.173-2.913-2.056-5.423-4.968-5.597C25.278,25.515,25.171,25.512,25.065,25.512z"/>
		</g>
		<circle cx="25.07" cy="30.804" r="3.713"/>
		<circle fill="#FFFFFF" cx="26.2" cy="29.867" r="1.357"/>
		<circle fill="#FFFFFF" cx="24.52" cy="31.799" r="0.323"/>
		<path fill="#FFFFFF" d="M27.149,27.139c1.476-0.114,1.979,0.914,1.979,0.914l-0.005,0.007c0.042,0.072,0.069,0.152,0.062,0.241
			c-0.019,0.23-0.221,0.402-0.452,0.383c-0.153-0.012-0.274-0.109-0.336-0.239l-0.007-0.002c-0.004-0.011-0.008-0.021-0.012-0.033
			c-0.003-0.007-0.006-0.014-0.008-0.021C28.055,27.504,27.149,27.139,27.149,27.139z"/>
	</g>
	<path fill="#F5FBFE" d="M41.848,25.991c1.203-2.31,4.227-2.968,6.58-2.847c0.348,0.018,0.193-0.411-0.078-0.424
		c-2.508-0.13-5.691,0.568-6.969,3.022C41.26,25.975,41.727,26.223,41.848,25.991L41.848,25.991z"/>
	<path fill="#F5FBFE" d="M30.767,25.819c-1.306-2.509-4.535-3.244-7.105-3.11c-0.326,0.017-0.045,0.434,0.201,0.421
		c2.292-0.119,5.271,0.504,6.444,2.758C30.421,26.11,30.918,26.111,30.767,25.819L30.767,25.819z"/>
	<path fill="#000031" d="M58.768,25.854c0,0-2.029-1.378-5.906-1.991c-2.785-0.479-4.809-0.331-5.662-0.224
		c-0.018,0.002-0.035,0.002-0.055,0.005c-0.021,0.001-0.043,0.001-0.064,0.003l0.01,0.006c-0.008,0.001-0.016,0.003-0.025,0.004
		c-0.205,0.029-0.318,0.051-0.318,0.051l0.006,0.002c-0.537,0.098-1.072,0.247-1.6,0.467c-3.775,1.573-5.639,5.725-4.16,9.272
		c1.479,3.548,5.738,5.149,9.514,3.576c2.484-1.036,4.131-3.188,4.553-5.549h0.008c0,0,0.365-3.844,4.031-3.844
		C59.098,27.631,60.877,27.324,58.768,25.854z"/>
	<g>
		<g>
			<circle fill="#FFFFFF" cx="47.08" cy="30.804" r="6.431"/>
			<path d="M47.086,37.501L47.086,37.501c-0.133,0-0.268-0.004-0.404-0.013c-1.785-0.106-3.422-0.901-4.609-2.239
				c-1.188-1.338-1.783-3.058-1.676-4.843c0.219-3.666,3.377-6.508,7.082-6.287c1.785,0.106,3.422,0.901,4.609,2.239
				s1.783,3.058,1.676,4.843C53.555,34.734,50.621,37.501,47.086,37.501z M47.074,24.638c-3.254,0-5.955,2.548-6.148,5.8
				c-0.1,1.644,0.449,3.229,1.543,4.46c1.092,1.232,2.602,1.964,4.244,2.062c3.41,0.206,6.32-2.413,6.521-5.789
				c0.098-1.644-0.449-3.228-1.543-4.459s-2.602-1.964-4.244-2.062C47.322,24.642,47.197,24.638,47.074,24.638z"/>
		</g>
		<g>
			<circle fill="#7F4F21" cx="47.08" cy="30.804" r="5.492"/>
			<path fill="#40220F" d="M47.074,36.494c-3.004,0-5.496-2.351-5.674-5.352c-0.188-3.132,2.209-5.831,5.342-6.018
				c3.154-0.183,5.832,2.228,6.018,5.342c0.186,3.131-2.211,5.831-5.342,6.018C47.303,36.491,47.189,36.494,47.074,36.494z
				 M47.084,25.512c-0.105,0-0.213,0.003-0.318,0.009c-2.914,0.174-5.143,2.685-4.969,5.597c0.172,2.897,2.66,5.143,5.598,4.969
				c2.912-0.173,5.143-2.684,4.969-5.597C52.197,27.698,49.879,25.512,47.084,25.512z"/>
		</g>
		<circle cx="47.08" cy="30.804" r="3.714"/>
		<path fill="#FFFFFF" d="M47.305,29.787c0.043,0.747-0.527,1.39-1.275,1.433c-0.748,0.045-1.389-0.525-1.434-1.273
			c-0.047-0.749,0.525-1.39,1.273-1.436C46.617,28.467,47.26,29.038,47.305,29.787z"/>
		<circle fill="#FFFFFF" cx="47.629" cy="31.799" r="0.323"/>
		<path fill="#FFFFFF" d="M45,27.139c-1.475-0.114-1.979,0.914-1.979,0.914l0.006,0.007c-0.043,0.072-0.07,0.152-0.063,0.241
			c0.018,0.23,0.221,0.402,0.453,0.383c0.152-0.012,0.273-0.109,0.336-0.239l0.006-0.002c0.006-0.011,0.01-0.021,0.014-0.033
			c0.002-0.007,0.006-0.014,0.008-0.021C44.096,27.504,45,27.139,45,27.139z"/>
	</g>
	<path d="M8.154,33.273c0.071,1.033-0.245,1.874,0.473,2.569c0.086,0.083,0.271,0.138,0.383,0.076
		c1.171-0.647,0.459,0.59,0.664,1.486c0.039,0.172,0.196,0.266,0.359,0.291c0.482,0.075,1.345-0.432,1.336-0.517
		c0.062,0.621,0.101,2.011,0.641,2.456c0.333,0.273,0.718,0.129,1.032-0.073c1.512-0.977,0.898,0.906,1.537,1.536
		c0.096,0.095,0.335,0.154,0.44,0.04c0.188-0.203,0.862-1.115,1.223-0.944c0.735,0.347,1.166,0.728,2.034,0.728
		c1.978,0,3.124-0.55,4.646-1.756c0.272-0.216-0.258-0.609-0.503-0.415c-2.282,1.809-3.774,1.591-6.328,0.835
		c-0.334-0.099-0.575,0.007-0.774,0.248c-0.796,0.963-0.298,0.96-0.461-0.228c-0.099-0.724-0.39-1.284-1.13-1.229
		c-0.672,0.05-1.301,1.256-1.559-0.13c-0.099-0.53-0.053-1.132-0.415-1.548c-0.106-0.124-0.282-0.198-0.441-0.135
		c-1.257,0.494-0.862,0.849-1.073-0.58c-0.068-0.464-0.039-0.621-0.356-0.928c-0.101-0.099-0.255-0.115-0.383-0.076
		c-0.797,0.241-0.689-1.161-0.723-1.656C8.754,33.016,8.128,32.89,8.154,33.273L8.154,33.273z"/>
	<path d="M63.6,34.234c-0.063,0.351-0.014,2.372-0.729,1.806c-0.148-0.118-0.428-0.254-0.619-0.171
		c-0.244,0.108-0.281,0.238-0.332,0.471c-0.047,0.209-0.355,1.589-0.301,1.623c-0.457-0.282-0.676-0.473-1.092-0.68
		c-0.109-0.055-0.266-0.082-0.365,0.009c-0.412,0.374-0.361,0.864-0.547,1.423c-0.551,1.661-0.68,0.688-1.699,0.146
		c-0.711-0.379-1.094,0.396-1.24,0.987c-0.258,1.039,0.271,1.5-0.545,0.334c-0.24-0.342-0.363-0.336-0.781-0.413
		c-0.398-0.072-1.568,0.392-1.904,0.473c-1.791,0.428-3.393-0.799-4.611-1.94c-0.277-0.259-0.693,0.039-0.377,0.335
		c1.352,1.266,2.42,1.882,4.238,2.21c1.668,0.302,2.49-1.002,3.68,0.521c0.111,0.143,0.344,0.218,0.498,0.099
		c0.717-0.554,0.105-2.797,1.424-1.662c0.344,0.297,0.83,0.729,1.324,0.513c0.57-0.249,0.756-1.817,0.883-2.349
		c0,0,1.154,0.593,1.543,0.573c0.059-0.002,0.146-0.049,0.168-0.107c0.268-0.765-0.17-2.331,0.906-1.611
		c0.133,0.089,0.297,0.148,0.439,0.04c0.688-0.523,0.527-1.664,0.664-2.443C64.277,34.11,63.66,33.887,63.6,34.234L63.6,34.234z"/>
	<path d="M24.666,55.267c-1.208-2.764-3.782-6.066-7.063-6.283l-0.067-0.001c-0.371,0.015-0.625,0.332-0.629,0.619
		c-0.003,0.252,0.182,0.44,0.45,0.458c2.078,0.138,3.636,1.827,4.885,3.462c0.58,0.758,1.047,1.618,1.389,2.283
		c0.248,0.481,0.343,1.236,0.043,1.749c-0.25,0.43-0.726,0.624-1.441,0.567c-0.801-0.064-1.397-0.528-1.987-1.04
		c-0.256-0.222-0.676-0.141-0.869,0.15c-0.104,0.158-0.128,0.344-0.064,0.511c0.292,0.77,1.068,1.132,1.752,1.451
		c0.198,0.093,0.394,0.184,0.576,0.284c0.233,0.128,0.365,0.289,0.392,0.481c0.04,0.271-0.127,0.616-0.456,0.945
		c-0.235,0.236-0.59,0.36-1.084,0.379c-0.262,0.011-0.515-0.012-0.681-0.029c-0.539-0.058-1.091-0.265-1.559-0.568
		c-0.218-0.213-0.473-0.422-0.697-0.57l-0.108-0.082c-0.282-0.188-0.692-0.032-0.833,0.304c-0.084,0.202-0.054,0.41,0.081,0.557
		c0.1,0.108,0.22,0.214,0.342,0.317l-0.003,0.002c0,0,1.022,2.441-4.589,0.033c0,0-2.872-1.352-4.729-4.434l1.467,3.228
		c0,0,1.414,1.325,1.995,1.917c-0.003,0.007-0.008,0.011-0.011,0.017c-0.079,0.161-0.063,0.338,0.045,0.485
		c0.882,1.214,2.49,1.896,4.299,1.826c0.794-0.03,1.599-0.213,2.325-0.526c1.028-0.444,1.271-1.034,1.265-1.503
		c1.333,0.321,2.621,0.016,3.497-0.863c0.513-0.516,0.746-0.986,0.711-1.438c-0.022-0.298-0.159-0.544-0.331-0.745
		c0.154-0.036,0.303-0.087,0.447-0.152C25.21,58.255,25.236,56.572,24.666,55.267z"/>
	<path d="M62.914,57.899c-5.102,5.799-7.479,2.343-7.479,2.343v-0.013c0.262-0.192,0.502-0.396,0.686-0.609
		c0.133-0.152,0.154-0.372,0.059-0.572c-0.096-0.196-0.275-0.331-0.469-0.358l-0.219,0.05l-0.217,0.094
		c-0.256,0.189-0.504,0.405-0.68,0.594c-0.494,0.35-1.039,0.573-1.578,0.646c-0.154,0.021-0.33,0.041-0.514,0.048
		c-0.58,0.022-0.994-0.09-1.262-0.344c-0.338-0.32-0.514-0.659-0.482-0.931c0.02-0.193,0.148-0.359,0.377-0.495
		c0.178-0.104,0.371-0.201,0.566-0.3c0.674-0.34,1.439-0.726,1.709-1.504c0.061-0.173,0.027-0.362-0.088-0.52
		c-0.207-0.277-0.617-0.339-0.865-0.112c-0.574,0.529-1.154,1.011-1.955,1.099c-0.695,0.074-1.176-0.095-1.443-0.501
		c-0.33-0.503-0.262-1.272-0.023-1.772c0.322-0.676,0.764-1.55,1.32-2.323c1.199-1.671,2.705-3.407,4.777-3.607
		c0.273-0.026,0.453-0.225,0.436-0.483c-0.02-0.288-0.301-0.6-0.711-0.584c0,0-0.002,0-0.002,0.001
		c-3.273,0.313-5.746,3.692-6.871,6.491c-0.531,1.322-0.453,3.003,1.354,3.751c0.145,0.061,0.295,0.105,0.451,0.138
		c-0.166,0.206-0.295,0.457-0.309,0.756c-0.021,0.453,0.225,0.916,0.754,1.416c0.902,0.853,2.193,1.118,3.521,0.757
		c0.006,0.47,0.268,1.052,1.309,1.465c0.832,0.331,1.744,0.487,2.639,0.453c1.68-0.065,3.154-0.794,3.945-1.95
		c0.1-0.146,0.109-0.324,0.031-0.479c0.176-0.114,0.299-0.202,0.314-0.233c0.064-0.127,0.938-1.398,0.918-1.375
		C62.896,58.956,62.914,57.899,62.914,57.899z"/>
	<path d="M55.994,59.759c0,0-0.912,0.949,0.881,1.414l-0.557,0.466l-1.453-0.793c0,0-0.266-1.064-0.148-1.087
		c0.117-0.021,0.688-0.466,0.688-0.466L55.994,59.759z"/>
</g>
</svg>
