<?xml version="1.0" encoding="utf-8"?>
<!-- Generator: Adobe Illustrator 15.1.0, SVG Export Plug-In . SVG Version: 6.00 Build 0)  -->
<!DOCTYPE svg PUBLIC "-//W3C//DTD SVG 1.1//EN" "http://www.w3.org/Graphics/SVG/1.1/DTD/svg11.dtd">
<svg version="1.1" id="圖層_1" xmlns="http://www.w3.org/2000/svg" xmlns:xlink="http://www.w3.org/1999/xlink" x="0px" y="0px"
	 width="72px" height="72px" viewBox="0 0 72 72" enable-background="new 0 0 72 72" xml:space="preserve">
<g>
	<g>
		<path fill="#FAEE00" d="M35.95,6.015c0,0-22.1-0.799-27.609,27.686c0,0-14.12,22.063,10.992,33.429c0,0,24.101,9.183,41.139-5.665
			c0,0,11.394-8.58,3.976-25.178C64.448,36.287,61.077,6.787,35.95,6.015z"/>
		<path d="M36.052,5.125c-13.04-0.416-22.88,10.978-26.671,22.306c-0.493,1.474-0.875,2.982-1.227,4.495
			c-0.098,0.424-0.026,1.009-0.251,1.38c-0.382,0.632-0.727,1.287-1.054,1.949c-1.215,2.462-2.117,5.125-2.609,7.826
			C2.685,51.62,5.854,59.288,12.827,64.45c5.858,4.337,12.985,5.81,20.136,6.279c10.235,0.672,20.212-2.072,28.049-8.82
			c5.803-4.997,7.416-13.161,5.923-20.389c-0.55-2.66-1.746-4.998-2.247-7.65c-0.5-2.645-1.257-5.239-2.188-7.762
			C58.153,14.343,49.011,5.662,36.052,5.125c-0.686-0.028-1.05,1.745-0.202,1.78c15.985,0.661,25.966,14.671,27.996,29.521
			c0.242,1.776,1.329,3.587,1.807,5.354c0.878,3.246,0.962,6.691,0.188,9.961c-0.772,3.269-2.621,6.353-5.104,8.608
			c-8.189,7.44-19.454,9.545-30.167,8.363c-7.743-0.853-14.856-3.183-20.459-8.889c-5.976-6.087-6.185-14.829-3.053-22.329
			C7.681,36,8.713,34.616,9.032,33.029c1.167-5.801,3.394-11.4,7.031-16.097c4.158-5.369,10.435-8.911,17.139-9.844
			c0.87-0.121,1.767-0.212,2.647-0.184C36.537,6.927,36.898,5.152,36.052,5.125z"/>
	</g>
	<g>
		<path fill="#E8444C" d="M40.067,35.503c0.155-0.005,0.21,0.096,0.121,0.224l-2.339,3.353c-0.089,0.128-0.249,0.139-0.354,0.024
			l-2.967-3.218c-0.106-0.115-0.065-0.212,0.091-0.217L40.067,35.503z"/>
	</g>
	<g>
		<path fill="#ED7264" d="M37.048,33.273c0.115-0.105,0.309-0.111,0.43-0.014l2.652,2.14c0.121,0.098,0.124,0.26,0.005,0.361
			l-2.384,2.03c-0.119,0.101-0.32,0.111-0.449,0.022l-2.733-1.892c-0.128-0.088-0.139-0.248-0.024-0.353L37.048,33.273z"/>
	</g>
	<path fill="#F8E95F" d="M18.897,32.151c0.586,3.091,3.432,4.957,6.429,5.071c0.292,0.012,0.226-0.511-0.039-0.521
		c-2.792-0.106-5.444-1.778-5.993-4.666C19.232,31.706,18.836,31.831,18.897,32.151L18.897,32.151z"/>
	<circle cx="24.405" cy="30.418" r="8.577"/>
	<path d="M31.588,25.735c0,0,2.252,4.223,5.202,6.486c0,0-1.574,1.115-2.949,2.793c0,0-4.626,5.811-12.232,3.512"/>
	<path d="M21.054,22.521c0,0-11.182,3.724-6.156-3.958c0,0-4.146,5.203-4.554,8.625c0,0,3.806,11.277,14.652,11.876L21.054,22.521z"
		/>
	<circle cx="49.859" cy="29.889" r="8.577"/>
	<path d="M42.475,25.523c0,0-1.99,4.402-4.939,6.665c0,0,1.574,0.937,2.949,2.615c0,0,4.626,5.811,12.232,3.513"/>
	<path d="M53.896,22.32c0,0,7.779,3.925,3.111-3.538c0,0,5.068,5.922,5.477,9.346c0,0-4.951,11.058-13.154,10.726L53.896,22.32z"/>
	<g>
		<circle fill="#FFFFFF" cx="25.07" cy="30.804" r="6.431"/>
		<path d="M25.064,37.501c-3.534,0-6.468-2.768-6.678-6.299c-0.106-1.785,0.489-3.505,1.677-4.843
			c1.187-1.337,2.824-2.133,4.609-2.239c3.708-0.215,6.864,2.621,7.083,6.286c0.219,3.686-2.601,6.863-6.287,7.083
			C25.333,37.496,25.198,37.501,25.064,37.501z M25.076,24.637c-0.123,0-0.248,0.004-0.372,0.011
			c-1.644,0.098-3.152,0.83-4.245,2.062s-1.642,2.816-1.543,4.46c0.201,3.375,3.104,5.995,6.521,5.789
			c3.394-0.202,5.991-3.127,5.789-6.521C31.032,27.185,28.331,24.637,25.076,24.637z"/>
	</g>
	<g>
		<path fill="#EA5E5E" d="M37.048,33.273c0.115-0.105,0.216-0.064,0.225,0.092l0.247,4.326c0.009,0.156-0.089,0.211-0.218,0.122
			l-2.733-1.892c-0.128-0.088-0.139-0.248-0.024-0.353L37.048,33.273z"/>
	</g>
	<ellipse transform="matrix(-0.9965 0.0834 -0.0834 -0.9965 78.7331 65.3256)" cx="38.002" cy="34.307" rx="0.12" ry="0.22"/>
	<ellipse transform="matrix(-0.9965 0.0834 -0.0834 -0.9965 76.5533 65.4166)" cx="36.911" cy="34.307" rx="0.12" ry="0.22"/>
	<g>
		<circle fill="#EF8895" cx="25.07" cy="30.804" r="5.592"/>
		<path fill="#BC6C75" d="M25.064,36.528c-3.021,0-5.528-2.365-5.708-5.384c-0.188-3.151,2.224-5.867,5.374-6.054
			c3.169-0.189,5.868,2.241,6.054,5.374c0.188,3.15-2.224,5.866-5.375,6.054C25.294,36.525,25.179,36.528,25.064,36.528z
			 M25.075,25.344c-0.109,0-0.219,0.003-0.33,0.01c-3.004,0.179-5.304,2.769-5.125,5.774c0.178,2.988,2.752,5.301,5.774,5.125
			c3.004-0.179,5.304-2.77,5.125-5.774C30.348,27.6,27.957,25.344,25.075,25.344z"/>
	</g>
	<circle cx="25.321" cy="30.529" r="3.713"/>
	<circle fill="#FFFFFF" cx="26.262" cy="30.09" r="1.517"/>
	<g>
		<circle fill="#FFFFFF" cx="49.329" cy="30.53" r="6.431"/>
		<path d="M49.335,37.227L49.335,37.227c-0.134,0-0.269-0.005-0.403-0.013c-3.686-0.22-6.506-3.396-6.287-7.083
			c0.219-3.666,3.381-6.504,7.083-6.286c1.785,0.106,3.422,0.901,4.609,2.239c1.188,1.337,1.782,3.058,1.677,4.843
			C55.803,34.459,52.869,37.227,49.335,37.227z M49.323,24.363c-3.254,0-5.956,2.547-6.149,5.8c-0.202,3.394,2.396,6.32,5.788,6.521
			c3.415,0.201,6.321-2.413,6.522-5.789c0.098-1.644-0.45-3.228-1.544-4.46c-1.093-1.231-2.601-1.964-4.245-2.062
			C49.571,24.367,49.446,24.363,49.323,24.363z"/>
	</g>
	<g>
		<circle fill="#EF8895" cx="49.329" cy="30.53" r="5.592"/>
		<path fill="#BC6C75" d="M49.335,36.254C49.334,36.254,49.335,36.254,49.335,36.254c-0.115,0-0.23-0.003-0.346-0.01
			c-3.151-0.188-5.562-2.904-5.375-6.054c0.188-3.133,2.896-5.565,6.055-5.374c3.15,0.188,5.562,2.903,5.374,6.054
			C54.863,33.889,52.355,36.254,49.335,36.254z M49.323,25.07c-2.881,0-5.272,2.255-5.443,5.135C43.7,33.21,46,35.8,49.005,35.979
			c0.11,0.006,0.221,0.01,0.329,0.01h0.001c2.881,0,5.272-2.255,5.444-5.135c0.178-3.005-2.121-5.595-5.126-5.774
			C49.543,25.073,49.433,25.07,49.323,25.07z"/>
	</g>
	<circle cx="48.59" cy="30.529" r="3.713"/>
	<circle fill="#FFFFFF" cx="47.648" cy="30.09" r="1.517"/>
	<g>
		<path fill="#FFFFFF" d="M27.393,26.763c0,0,0.849,0.292,1.227,1.078"/>
		<path fill="#FFFFFF" d="M28.62,28.105c-0.099,0-0.193-0.055-0.239-0.15c-0.323-0.672-1.067-0.94-1.075-0.943
			c-0.138-0.048-0.211-0.199-0.163-0.337c0.049-0.138,0.199-0.21,0.336-0.164c0.039,0.013,0.958,0.338,1.379,1.213
			c0.063,0.132,0.008,0.291-0.124,0.354C28.698,28.097,28.659,28.105,28.62,28.105z"/>
	</g>
	<g>
		<path fill="#FFFFFF" d="M46.329,26.695c0,0-0.809,0.389-1.093,1.213"/>
		<path fill="#FFFFFF" d="M45.236,28.173c-0.028,0-0.058-0.005-0.086-0.015c-0.139-0.047-0.212-0.198-0.164-0.336
			c0.315-0.918,1.19-1.348,1.228-1.366c0.132-0.064,0.289-0.008,0.354,0.124c0.063,0.131,0.009,0.29-0.123,0.354
			c-0.007,0.003-0.714,0.356-0.957,1.061C45.449,28.104,45.347,28.173,45.236,28.173z"/>
	</g>
	<circle fill="#FFFFFF" cx="49.492" cy="31.607" r="0.326"/>
	<circle fill="#FFFFFF" cx="24.405" cy="31.13" r="0.326"/>
	<g>
		<path d="M51.211,21.939c0.276,0,0.554,0,0.83,0c0.126,0,0.276,0,0.402,0c0.151,0,0.276-0.076,0.403-0.125
			c0.15-0.076,0.301-0.126,0.478-0.202c0.15-0.05,0.302-0.125,0.428-0.227c0.125-0.075,0.252-0.151,0.377-0.226
			c0.075-0.076,0.126-0.176,0.227-0.227c0.024,0.05-0.075,0.176-0.101,0.227c-0.025,0.075-0.075,0.151-0.126,0.226
			c-0.125,0.176-0.327,0.377-0.503,0.529c-0.126,0.1-0.252,0.226-0.428,0.302c-0.075,0.05-0.176,0.101-0.276,0.151
			c-0.075,0.025-0.177,0.05-0.227,0.101c0.024,0.05,0.201-0.025,0.251-0.025c0.101-0.025,0.177-0.05,0.252-0.075
			c0.227-0.05,0.428-0.05,0.654-0.101c0.151-0.05,0.302-0.076,0.452-0.126c0.151-0.05,0.277-0.101,0.402-0.151
			c0.127-0.05,0.252-0.126,0.353-0.176c0.051-0.025,0.075-0.076,0.126-0.101c0.075-0.025,0.126-0.075,0.201-0.125
			c-0.025,0.201-0.201,0.402-0.302,0.553c-0.101,0.176-0.251,0.353-0.428,0.478c-0.15,0.126-0.326,0.201-0.503,0.277
			c-0.076,0.025-0.15,0.076-0.252,0.076c-0.075,0.025-0.126,0.075-0.201,0.075"/>
		<path d="M51.074,22.439c0.712,0,1.301,0.046,1.958-0.243c0.561-0.246,1.004-0.511,1.467-0.903
			c-0.163-0.122-0.326-0.244-0.488-0.366c-0.14,0.5-0.877,0.82-1.367,1.103c-0.234,0.134-0.552,0.912-0.085,0.937
			c0.458,0.025,1.032-0.156,1.477-0.28c0.529-0.147,0.945-0.377,1.403-0.664c-0.133-0.147-0.265-0.294-0.396-0.442
			c-0.188,0.562-0.771,0.832-1.298,0.979c-0.393,0.11-0.62,1.119-0.086,0.969c0.996-0.279,1.74-0.946,2.073-1.939
			c0.094-0.279-0.076-0.643-0.396-0.441c-0.684,0.428-1.671,0.863-2.504,0.817c-0.027,0.313-0.057,0.625-0.084,0.938
			c0.822-0.473,1.678-0.979,1.953-1.967c0.108-0.388-0.16-0.643-0.488-0.366c-0.404,0.342-0.841,0.546-1.323,0.757
			c-0.456,0.201-1.051,0.11-1.542,0.11C50.924,21.439,50.594,22.439,51.074,22.439L51.074,22.439z"/>
	</g>
	<g>
		<path d="M21.173,22.993c-0.277-0.013-0.553-0.025-0.829-0.039c-0.126-0.005-0.277-0.012-0.402-0.019
			c-0.15-0.007-0.273-0.088-0.396-0.145c-0.147-0.083-0.295-0.139-0.468-0.223c-0.148-0.058-0.296-0.14-0.417-0.246
			c-0.123-0.082-0.245-0.163-0.367-0.244c-0.072-0.079-0.118-0.182-0.216-0.237c-0.027,0.05,0.067,0.18,0.09,0.231
			c0.021,0.077,0.068,0.155,0.115,0.232c0.117,0.182,0.309,0.392,0.478,0.551c0.121,0.106,0.241,0.238,0.414,0.321
			c0.073,0.054,0.171,0.109,0.269,0.164c0.075,0.029,0.174,0.059,0.222,0.111c-0.027,0.05-0.2-0.034-0.25-0.036
			c-0.1-0.03-0.174-0.059-0.248-0.087c-0.224-0.061-0.425-0.07-0.648-0.131c-0.149-0.058-0.298-0.089-0.447-0.147
			c-0.148-0.057-0.271-0.113-0.395-0.169c-0.123-0.056-0.245-0.137-0.344-0.191c-0.049-0.028-0.072-0.08-0.121-0.107
			c-0.074-0.028-0.123-0.082-0.195-0.135c0.015,0.202,0.182,0.411,0.276,0.567c0.092,0.18,0.235,0.363,0.405,0.497
			c0.145,0.133,0.317,0.217,0.49,0.3c0.074,0.029,0.147,0.083,0.248,0.087c0.074,0.028,0.122,0.081,0.197,0.084"/>
		<path d="M21.286,22.476c-0.537-0.025-1.135,0.035-1.628-0.202c-0.523-0.252-0.977-0.521-1.4-0.916
			c-0.322-0.3-0.482,0.648-0.446,0.81c0.198,0.873,0.984,1.329,1.675,1.769c0.098-0.334,0.195-0.668,0.292-1.002
			c-0.873,0.008-1.886-0.489-2.582-0.971c-0.354-0.245-0.502,0.612-0.446,0.81c0.251,0.885,0.919,1.446,1.77,1.728
			c0.342,0.113,0.598-0.913,0.226-1.036c-0.664-0.22-1.26-0.631-1.462-1.343c-0.149,0.27-0.297,0.54-0.446,0.81
			c0.369,0.255,0.704,0.465,1.121,0.637c0.432,0.178,1.13,0.406,1.593,0.401c0.343-0.003,0.588-0.813,0.292-1.002
			c-0.57-0.363-1.332-0.711-1.5-1.452c-0.149,0.27-0.297,0.54-0.446,0.81c0.403,0.375,0.804,0.641,1.309,0.873
			c0.623,0.286,1.17,0.281,1.853,0.313C21.458,23.53,21.634,22.492,21.286,22.476L21.286,22.476z"/>
	</g>
	<g>
		<path fill="#FAEE00" d="M8.233,34.224C7.829,35.403,8.4,37.89,9.045,39.055c0.466-0.415,0.669-1.244,0.948-1.837
			c0.077,0.505,0.244,0.941,0.376,1.432c0.078,0.286,0.038,1.122,0.209,1.336c0.42,0.523,0.588-0.748,0.711-1.059
			c0.164-0.414,0.347-0.847,0.578-1.216c0.153,0.432,0.8,2.196,1.282,2.101c0.285-0.747,0.583-1.359,0.67-2.146"/>
		<path d="M7.928,33.922c-0.471,1.695,0.098,3.826,0.883,5.348c0.063,0.121,0.283,0.438,0.452,0.254
			c0.503-0.549,0.708-1.235,1-1.908c-0.194-0.151-0.389-0.303-0.583-0.453c0.159,0.81,0.389,1.566,0.473,2.39
			c0.039,0.382,0.192,0.822,0.542,1.026c0.354,0.207,0.564-0.267,0.657-0.512c0.255-0.673,0.423-1.321,0.788-1.958
			c-0.185-0.105-0.37-0.21-0.554-0.315c0.25,0.697,0.71,2.454,1.632,2.531c0.085,0.008,0.17-0.029,0.204-0.114
			c0.29-0.742,0.579-1.452,0.704-2.243c0.057-0.359-0.515-1.202-0.609-0.604c-0.063,0.396-0.382,2.313-0.839,1.491
			c-0.215-0.387-0.375-0.812-0.524-1.227c-0.066-0.182-0.355-0.664-0.554-0.315c-0.403,0.704-0.579,1.409-0.861,2.151
			c0.052,0.287,0.057,0.267,0.014-0.063c-0.011-0.17-0.024-0.341-0.039-0.512c-0.045-0.546-0.302-1.079-0.407-1.615
			c-0.03-0.153-0.391-0.897-0.583-0.454c-0.264,0.607-0.438,1.268-0.895,1.767c0.151,0.085,0.301,0.169,0.452,0.254
			c-0.636-1.23-1.123-2.943-0.742-4.314C8.639,34.164,8.094,33.326,7.928,33.922L7.928,33.922z"/>
	</g>
	<g>
		<path fill="#FAEE00" d="M63.932,34.949c0.103,0.292-0.105,0.725-0.128,1.097c-0.032,0.521,0.11,1.123-0.101,1.604
			c-0.526,0.017-1.164-0.262-1.565-0.57c-0.029,0.485-0.001,0.985-0.016,1.473c-0.511-0.047-1.009-0.427-1.47-0.438
			c-0.021,0.509,0.122,1.227-0.144,1.666c-0.437-0.35-0.713-0.766-1.205-1.021c-0.154,0.559-0.33,1.16-0.422,1.727
			c-0.479-0.135-0.586-1.008-1.219-0.915c-0.071,0.011-0.357,0.357-0.446,0.418c-0.224,0.154-0.503,0.249-0.742,0.374
			c-0.926,0.483-2.095,1.397-3.175,1.354"/>
		<path d="M63.563,35.104c-0.023,0.716-0.069,1.885-0.22,2.57c0.178-0.175,0.355-0.35,0.533-0.525
			c-0.544-0.012-1.038-0.187-1.485-0.523c-0.369-0.228-0.616,0.311-0.622,0.609c-0.012,0.49-0.018,0.981-0.016,1.473
			c0.181-0.219,0.361-0.438,0.542-0.656c-0.502-0.131-0.965-0.322-1.47-0.438c-0.345-0.079-0.548,0.379-0.542,0.656
			c0.039,0.47,0.006,0.936-0.101,1.397c0.193-0.113,0.386-0.227,0.578-0.34c-0.397-0.364-0.761-0.714-1.205-1.021
			c-0.247-0.172-0.512,0.104-0.578,0.34c-0.171,0.62-0.329,1.234-0.456,1.864c0.204-0.159,0.408-0.318,0.613-0.478
			c-0.314-0.221-1.033-1.374-1.579-0.896c-1.063,0.933-2.764,1.933-4.176,2.065c-0.441,0.042-0.662,1.072-0.162,1.026
			c1.242-0.118,2.202-0.776,3.27-1.377c0.915-0.515,1.234-0.549,2.14,0.087c0.313,0.22,0.562-0.223,0.613-0.478
			c0.104-0.536,0.232-1.066,0.387-1.59c-0.193,0.113-0.386,0.227-0.578,0.34c0.444,0.308,0.807,0.658,1.205,1.021
			c0.23,0.211,0.519-0.138,0.578-0.34c0.2-0.682,0.203-1.21,0.188-1.934c-0.181,0.218-0.361,0.438-0.542,0.656
			c0.505,0.115,0.968,0.307,1.47,0.438c0.349,0.091,0.541-0.389,0.542-0.657c-0.002-0.49,0.003-0.981,0.016-1.473
			c-0.208,0.203-0.415,0.406-0.622,0.608c0.558,0.345,0.979,0.531,1.646,0.619c0.312,0.04,0.475-0.259,0.533-0.525
			c0.201-0.919,0.206-1.891,0.237-2.833C64.323,34.1,63.58,34.63,63.563,35.104L63.563,35.104z"/>
	</g>
	<g>
		<path fill="#FAEE00" d="M13.525,37.403c0.522,0.032,1.364,0.861,1.871,1.171c0.715,0.438,1.451,0.532,2.274,0.593"/>
		<path d="M13.41,37.636c0.7,0.129,1.253,0.771,1.829,1.152c0.682,0.449,1.523,0.547,2.316,0.611
			c0.218,0.018,0.468-0.445,0.23-0.465c-0.924-0.075-1.771-0.229-2.538-0.786c-0.498-0.362-0.979-0.862-1.607-0.979
			C13.424,37.131,13.167,37.591,13.41,37.636L13.41,37.636z"/>
	</g>
	<path d="M17.284,50.049c0,0,0.677,0.179,0.902,0.867l0.195-0.717c0,0-0.44-0.632-0.483-0.6c-0.042,0.031-0.484-0.087-0.484-0.087
		l-0.22,0.301L17.284,50.049z"/>
	<path d="M17.183,54.2c0,0-0.818-0.266-0.974,0.159l1.192,0.37l0.386-0.057L17.183,54.2z"/>
	<path d="M16.845,61.044c0,0,1.424,1.406-0.987,1.772c0,0-1.925,0.097-3.434-0.876l0.395,0.719l0.96,0.577l1.064,0.104l0.873,0.157
		c0,0,0.855-0.123,0.925-0.14c0.07-0.018,0.873-0.438,0.873-0.438s0.528-0.645,0.543-0.768c0.015-0.122,0-0.925,0-0.925
		l-0.683-0.506l-0.377-0.122L16.845,61.044z"/>
	<path d="M55.879,59.874c0,0-1.423,1.406,0.987,1.773c0,0,1.926,0.096,3.434-0.878l-0.395,0.72l-0.96,0.576l-1.064,0.105
		l-0.873,0.157c0,0-0.855-0.123-0.925-0.141c-0.07-0.017-0.872-0.436-0.872-0.436s-0.529-0.646-0.544-0.769
		c-0.016-0.122,0-0.925,0-0.925l0.683-0.506l0.377-0.122L55.879,59.874z"/>
	<path fill="#FFF67C" d="M20.784,50.214c0,0,14.221-6.845,29.427,0.297c0,0-4.361,5.852-0.42,7.613c0,0-0.632,3.206,3.967,2.929
		c0,0,1.919,2.147,3.886,1.815c0,0-7.658,6.564-20.3,6.564c0,0-13.164,0.312-21.831-5.146c0,0,3.347-0.334,3.589-2.03
		c0,0,5.077,0.094,3.877-3.047c0,0,3.222-0.803,1.281-4.785C24.261,54.424,22.313,51.064,20.784,50.214z"/>
	<path fill="#FFFFFF" d="M63.76,56.892c0,0,0.232-1.059-1.47-0.26c0,0-3.294,0.723-2.912-1.477c0,0-2.736,1.571-3.331-0.198
		c0,0-0.48-0.832-0.161-1.504c0,0-3.225,1.167-4.236-1.376c0,0-0.348-0.744-1.162-0.102c0,0,0.214,3.517,4.249,2.833
		c0,0,0.539,2.902,3.94,1.676C58.677,56.484,60.043,59.646,63.76,56.892z"/>
	<path d="M66.437,52.766c0.006-0.13,0.012-0.233,0.012-0.233l-0.402-0.133c0,0-0.555,1.2-1.854,2.23
		c-1.733,1.261-3.959,2.236-4.211,0.348c0.01-0.012-0.024-0.501-0.022-0.551c0.011-0.243-0.328-0.31-0.466-0.151
		c-0.396,0.458-1.186,1.074-1.855,1.027c-0.014-0.01-0.569-0.021-0.768-0.229c-0.673-0.52-0.377-1.371-0.289-2.141
		c0.024-0.219-0.211-0.412-0.412-0.267c-0.678,0.493-1.482,0.758-2.22,0.658c-1.236-0.505-0.297-4.12,1.099-4.492
		c0.016-0.004,0.026-0.01,0.039-0.014c0.017-0.002,0.033-0.006,0.05-0.007c0.273-0.026,0.452-0.226,0.435-0.484
		c-0.019-0.288-0.301-0.6-0.711-0.584c0,0-0.001,0-0.002,0.001c-3.272,0.313-5.747,3.692-6.871,6.491
		c-0.53,1.323-0.453,3.003,1.353,3.751c0.146,0.061,0.297,0.106,0.452,0.138c-0.165,0.206-0.295,0.457-0.309,0.756
		c-0.021,0.453,0.226,0.916,0.754,1.416c0.902,0.853,2.193,1.119,3.521,0.757c0.007,0.47,0.268,1.053,1.309,1.465
		c0.832,0.331,1.744,0.487,2.639,0.453c1.681-0.064,3.155-0.794,3.944-1.95c0.104-0.152,0.112-0.338,0.024-0.498
		c-0.071-0.13-0.204-0.222-0.352-0.27l-0.22-0.228c0,0-1.902,1.553-3.842,1.286c0,0-1.118-0.173-1.317-0.678
		c0,0-0.273-0.464,0.085-0.91h-0.012c0.033-0.034,0.075-0.068,0.105-0.104c0.132-0.152,0.153-0.372,0.057-0.572
		c-0.094-0.195-0.274-0.331-0.467-0.358l-0.22,0.05l-0.216,0.094c-0.257,0.189-0.505,0.405-0.68,0.594
		c-0.495,0.35-1.041,0.573-1.579,0.646c-0.155,0.021-0.33,0.041-0.513,0.048c-0.581,0.022-0.994-0.09-1.262-0.344
		c-0.339-0.319-0.515-0.659-0.484-0.931c0.021-0.192,0.149-0.359,0.378-0.494c0.179-0.104,0.371-0.202,0.566-0.301
		c0.675-0.34,1.44-0.726,1.709-1.504c0.061-0.173,0.028-0.362-0.089-0.52c-0.205-0.277-0.617-0.339-0.864-0.112
		c-0.573,0.529-1.154,1.011-1.955,1.099c-0.695,0.074-1.176-0.095-1.443-0.501c-0.331-0.503-0.262-1.272-0.023-1.772
		c0.322-0.675,0.764-1.55,1.319-2.323c0.039-0.055,0.08-0.109,0.12-0.164c0.388-0.527,0.782-0.396,0.868-0.207
		c0.016,0.048,0.03,0.097,0.049,0.144v0.003v-0.001c0.016,0.038,0.035,0.076,0.051,0.114c0.103,0.273,0.244,0.511,0.415,0.717
		c0.007,0.009,0.015,0.018,0.022,0.027c0.031,0.036,0.062,0.074,0.095,0.108c0.867,0.968,2.206,1.054,3.424,0.632
		c-0.29,0.753-0.013,1.555,0.813,2.11c0.909,0.611,1.988,0.205,2.889-0.338c-0.202,0.789,0.106,1.555,1.21,1.768
		c1.041,0.202,1.884-0.084,2.677-0.535l0,0c0,0,0.93-0.402,0.387,0.472l0.2,0.28l0.861-0.746l0.35-1.137
		c0.286-0.197,0.578-0.393,0.687-0.449c0.142-0.073,0.146-0.207,0.084-0.313c0.619-0.66,0.773-1.416,0.783-1.989
		C66.341,52.814,66.524,52.805,66.437,52.766z M55.09,60.512c0.021-0.022,0.042-0.043,0.063-0.063l0.045-0.043
		c0.004-0.003,0.007-0.006,0.011-0.009c-0.043,0.132-0.077,0.238-0.083,0.256c-0.014,0.039,0.012,0.39,0.012,0.626
		c-0.121-0.103-0.202-0.206-0.23-0.305C54.894,60.924,54.853,60.771,55.09,60.512z"/>
	<path fill="#FFFFFF" d="M9.534,59.297c0,0-0.344-1.028,1.434-0.415c0,0,3.352,0.368,2.739-1.778c0,0,2.888,1.271,3.291-0.552
		c0,0,0.389-0.879,0-1.512c0,0,3.331,0.817,4.066-1.819c0,0,0.266-0.776,1.145-0.225c0,0,0.161,3.52-3.924,3.27
		c0,0-0.227,2.943-3.74,2.085C14.544,58.351,13.523,61.641,9.534,59.297z"/>
	<path d="M24.667,55.267c-1.208-2.763-3.782-6.066-7.063-6.282l-0.067-0.001c-0.371,0.014-0.625,0.331-0.628,0.618
		c-0.003,0.252,0.182,0.44,0.45,0.458c0.084,0.006,0.167,0.018,0.25,0.029c1.229,1.015,1.355,4.732-0.426,4.111
		c-0.146-0.05-0.477-0.018-0.692,0.069c-0.194-0.069-0.376,0.122-0.337,0.321c0.148,0.76,0.511,1.585-0.119,2.154
		c-0.18,0.226-0.733,0.281-0.747,0.291c-0.664,0.1-1.5-0.451-1.931-0.876c-0.149-0.146-0.482-0.055-0.452,0.187
		c0.006,0.051,0.011,0.541,0.021,0.552c-0.101,1.903-2.397,1.106-4.225-0.012c-1.378-0.924-2.026-2.076-2.026-2.076l-0.39,0.165
		c0,0,0.014,0.102,0.03,0.231c-0.084,0.046-0.147,0.127-0.138,0.227c0.054,0.569,0.516,1.226,1.185,1.834
		c-0.053,0.11-0.038,0.243,0.109,0.305c0.112,0.048,0.419,0.221,0.72,0.394l0.439,1.104l0.917,0.676l0.178-0.295
		c-0.611-0.828,0.348-0.501,0.348-0.501l0,0c0.826,0.387,1.689,0.604,2.71,0.321c1.083-0.302,1.33-1.089,1.066-1.859
		c0.941,0.47,2.048,0.789,2.906,0.107c0.779-0.619,0.992-1.44,0.643-2.167c1.486,0.384,3.089,0.043,3.753-1.59
		c0.043-0.108,0.081-0.216,0.113-0.323h0v-0.001c0.015-0.05,0.025-0.099,0.038-0.148c0.071-0.195,0.421-0.262,0.941,0.232
		c0.58,0.758,1.046,1.617,1.389,2.282c0.248,0.481,0.343,1.237,0.043,1.749c-0.25,0.43-0.727,0.624-1.441,0.567
		c-0.801-0.064-1.397-0.528-1.988-1.04c-0.256-0.221-0.676-0.141-0.869,0.151c-0.104,0.157-0.128,0.344-0.064,0.51
		c0.292,0.77,1.068,1.132,1.752,1.451c0.198,0.093,0.395,0.184,0.576,0.284c0.233,0.128,0.365,0.29,0.393,0.481
		c0.039,0.271-0.127,0.616-0.456,0.946c-0.235,0.235-0.59,0.359-1.085,0.379c-0.262,0.01-0.514-0.013-0.681-0.03
		c-0.539-0.058-1.091-0.265-1.559-0.568c-0.218-0.212-0.473-0.422-0.697-0.57l-0.108-0.082c-0.282-0.188-0.692-0.032-0.833,0.305
		c-0.084,0.201-0.054,0.409,0.081,0.556c0.358,0.446,0.085,0.91,0.085,0.91c-0.199,0.505-1.318,0.678-1.318,0.678
		c-1.939,0.267-3.915-1.281-3.915-1.281l-0.43,0.517l0.166,0.109c-0.047,0.043-0.089,0.091-0.116,0.147
		c-0.079,0.161-0.063,0.339,0.045,0.486c0.883,1.213,2.49,1.896,4.3,1.826c0.794-0.031,1.598-0.214,2.325-0.527
		c1.027-0.444,1.271-1.034,1.264-1.503c1.333,0.321,2.621,0.016,3.497-0.863c0.514-0.516,0.746-0.985,0.712-1.438
		c-0.023-0.298-0.16-0.544-0.332-0.745c0.154-0.036,0.303-0.087,0.447-0.152C25.21,58.255,25.236,56.572,24.667,55.267z"/>
</g>
</svg>
