<?xml version="1.0" encoding="utf-8"?>
<!-- Generator: Adobe Illustrator 16.0.0, SVG Export Plug-In . SVG Version: 6.00 Build 0)  -->
<!DOCTYPE svg PUBLIC "-//W3C//DTD SVG 1.1//EN" "http://www.w3.org/Graphics/SVG/1.1/DTD/svg11.dtd">
<svg version="1.1" id="圖層_1" xmlns="http://www.w3.org/2000/svg" xmlns:xlink="http://www.w3.org/1999/xlink" x="0px" y="0px"
	 width="30px" height="30px" viewBox="-340.5 321.5 30 30" enable-background="new -340.5 321.5 30 30" xml:space="preserve">
<path fill="#496BA9" d="M-314.13,321.5h-22.749c-3.104,0-3.621,0.518-3.621,3.621v22.746c0,3.115,0.518,3.633,3.621,3.633h22.749
	c3.112,0,3.63-0.518,3.63-3.633v-22.746C-310.5,322.018-311.018,321.5-314.13,321.5L-314.13,321.5z"/>
<g>
	<g>
		<path fill="#33559B" d="M-314.13,322.5c2.556,0,2.63,0.073,2.63,2.621v22.746c0,2.559-0.074,2.633-2.63,2.633h-22.749
			c-2.547,0-2.621-0.074-2.621-2.633v-22.746c0-2.548,0.074-2.621,2.621-2.621H-314.13 M-314.13,321.5h-22.749
			c-3.104,0-3.621,0.518-3.621,3.621v22.746c0,3.115,0.518,3.633,3.621,3.633h22.749c3.112,0,3.63-0.518,3.63-3.633v-22.746
			C-310.5,322.018-311.018,321.5-314.13,321.5L-314.13,321.5z"/>
	</g>
</g>
<g>
	<g opacity="0.75">
		<path fill="#1A437F" d="M-327.929,337.73v8.35h4.061v-8.311h2.772l0.671-3.463h-3.412c0,0,0-1.629,0-2.539
			c0-0.353,0.186-0.822,0.754-0.822c0.877,0,1.974,0,1.974,0v-3.525c0,0-1.779,0-3.687,0c-1.271,0-3.147,1.564-3.147,3.23
			c0,1.713,0,3.56,0,3.56h-2.13v3.507L-327.929,337.73z"/>
	</g>
	<g>
		<path fill="#FFFFFF" d="M-328.429,337.23v8.35h4.061v-8.311h2.772l0.671-3.463h-3.412c0,0,0-1.629,0-2.539
			c0-0.353,0.186-0.822,0.754-0.822c0.877,0,1.974,0,1.974,0v-3.525c0,0-1.779,0-3.687,0c-1.271,0-3.147,1.564-3.147,3.23
			c0,1.713,0,3.56,0,3.56h-2.132v3.507L-328.429,337.23z"/>
	</g>
</g>
</svg>
