<?xml version="1.0" encoding="utf-8"?>
<!-- Generator: Adobe Illustrator 16.0.0, SVG Export Plug-In . SVG Version: 6.00 Build 0)  -->
<!DOCTYPE svg PUBLIC "-//W3C//DTD SVG 1.1//EN" "http://www.w3.org/Graphics/SVG/1.1/DTD/svg11.dtd">
<svg version="1.1" id="圖層_1" xmlns="http://www.w3.org/2000/svg" xmlns:xlink="http://www.w3.org/1999/xlink" x="0px" y="0px"
	 width="30px" height="30px" viewBox="-340.5 321.5 30 30" enable-background="new -340.5 321.5 30 30" xml:space="preserve">
<path fill="#E64437" d="M-314.13,321.5h-22.749c-3.104,0-3.621,0.518-3.621,3.621v22.746c0,3.115,0.518,3.633,3.621,3.633h22.749
	c3.112,0,3.63-0.518,3.63-3.633v-22.746C-310.5,322.018-311.018,321.5-314.13,321.5L-314.13,321.5z"/>
<g>
	<path fill="#852B22" d="M-314.13,322.5c2.556,0,2.63,0.073,2.63,2.621v22.746c0,2.559-0.074,2.633-2.63,2.633h-22.749
		c-2.547,0-2.621-0.074-2.621-2.633v-22.746c0-2.548,0.074-2.621,2.621-2.621H-314.13 M-314.13,321.5h-22.749
		c-3.104,0-3.621,0.518-3.621,3.621v22.746c0,3.115,0.518,3.633,3.621,3.633h22.749c3.112,0,3.63-0.518,3.63-3.633v-22.746
		C-310.5,322.018-311.018,321.5-314.13,321.5L-314.13,321.5z"/>
</g>
<g>
	<g opacity="0.75">
		<path fill="#221714" d="M-321.926,336.738c0,4.107-3.291,7.449-7.336,7.449c-4.043,0-7.332-3.342-7.332-7.449
			c0-4.106,3.289-7.446,7.334-7.446c1.629,0,3.176,0.532,4.469,1.542l-1.701,2.25c-0.801-0.626-1.758-0.956-2.768-0.956
			c-2.504,0-4.541,2.067-4.541,4.61s2.035,4.611,4.541,4.611c2.018,0,3.729-1.344,4.318-3.193h-4.318v-2.836h7.334V336.738
			L-321.926,336.738z"/>
		<polygon fill="#221714" points="-312.5,337.554 -315.322,337.554 -315.322,340.418 -317.777,340.418 -317.777,337.554 
			-320.6,337.554 -320.6,335.059 -317.777,335.059 -317.777,332.193 -315.322,332.193 -315.322,335.059 -312.5,335.059 		"/>
	</g>
	<g>
		<path fill="#FDFDFD" d="M-322.572,336.258c0,4.109-3.342,7.45-7.449,7.45s-7.447-3.341-7.447-7.45c0-4.105,3.34-7.445,7.449-7.445
			c1.656,0,3.225,0.532,4.539,1.541l-1.729,2.25c-0.813-0.625-1.783-0.955-2.811-0.955c-2.543,0-4.611,2.067-4.611,4.609
			c0,2.544,2.068,4.611,4.611,4.611c2.049,0,3.787-1.342,4.387-3.191h-4.387v-2.836h7.449L-322.572,336.258L-322.572,336.258z"/>
		<polygon fill="#FDFDFD" points="-313,337.074 -315.865,337.074 -315.865,339.939 -318.359,339.939 -318.359,337.074 
			-321.225,337.074 -321.225,334.58 -318.359,334.58 -318.359,331.714 -315.865,331.714 -315.865,334.58 -313,334.58 		"/>
	</g>
</g>
</svg>
