<?xml version="1.0" encoding="utf-8"?>
<!-- Generator: Adobe Illustrator 15.1.0, SVG Export Plug-In . SVG Version: 6.00 Build 0)  -->
<!DOCTYPE svg PUBLIC "-//W3C//DTD SVG 1.1//EN" "http://www.w3.org/Graphics/SVG/1.1/DTD/svg11.dtd" [
	<!ENTITY ns_flows "http://ns.adobe.com/Flows/1.0/">
	<!ENTITY ns_extend "http://ns.adobe.com/Extensibility/1.0/">
	<!ENTITY ns_ai "http://ns.adobe.com/AdobeIllustrator/10.0/">
	<!ENTITY ns_graphs "http://ns.adobe.com/Graphs/1.0/">
]>
<svg version="1.1" id="圖層_1" xmlns:x="&ns_extend;" xmlns:i="&ns_ai;" xmlns:graph="&ns_graphs;"
	 xmlns="http://www.w3.org/2000/svg" xmlns:xlink="http://www.w3.org/1999/xlink" xmlns:a="http://ns.adobe.com/AdobeSVGViewerExtensions/3.0/"
	 x="0px" y="0px" width="32px" height="32px" viewBox="0 0 32 32" enable-background="new 0 0 32 32" xml:space="preserve">
<path fill="#FFFFFF" d="M27.334,25.801H4.666c-0.829,0-1.5-0.671-1.5-1.5c0-0.828,0.671-1.5,1.5-1.5h22.668
	c0.828,0,1.5,0.672,1.5,1.5C28.834,25.13,28.162,25.801,27.334,25.801z"/>
<path fill="#FFFFFF" d="M27.334,17.5H4.666c-0.829,0-1.5-0.672-1.5-1.5s0.671-1.5,1.5-1.5h22.668c0.828,0,1.5,0.672,1.5,1.5
	S28.162,17.5,27.334,17.5z"/>
<path fill="#FFFFFF" d="M27.334,9.199H4.666c-0.829,0-1.5-0.672-1.5-1.5s0.671-1.5,1.5-1.5h22.668c0.828,0,1.5,0.671,1.5,1.5
	S28.162,9.199,27.334,9.199z"/>
<g>
	<g opacity="0.65"  a:adobe-blending-mode="multiply"  a:adobe-opacity-share="1">
		<path fill="#649A34"  a:adobe-blending-mode="normal"  a:adobe-opacity-share="0" d="M27.635,26.101H4.965
			c-0.829,0-1.5-0.671-1.5-1.5c0-0.828,0.671-1.5,1.5-1.5h22.669c0.828,0,1.5,0.672,1.5,1.5
			C29.135,25.43,28.463,26.101,27.635,26.101z"/>
	</g>
	<g>
		<path fill="#FFFFFF" d="M27.334,25.801H4.666c-0.829,0-1.5-0.671-1.5-1.5c0-0.828,0.671-1.5,1.5-1.5h22.668
			c0.828,0,1.5,0.672,1.5,1.5C28.834,25.13,28.162,25.801,27.334,25.801z"/>
	</g>
</g>
<g>
	<g opacity="0.65"  a:adobe-blending-mode="multiply"  a:adobe-opacity-share="1">
		<path fill="#649A34"  a:adobe-blending-mode="normal"  a:adobe-opacity-share="0" d="M27.635,17.8H4.965
			c-0.829,0-1.5-0.672-1.5-1.5s0.671-1.5,1.5-1.5h22.669c0.828,0,1.5,0.672,1.5,1.5S28.463,17.8,27.635,17.8z"/>
	</g>
	<g>
		<path fill="#FFFFFF" d="M27.334,17.5H4.666c-0.829,0-1.5-0.672-1.5-1.5s0.671-1.5,1.5-1.5h22.668c0.828,0,1.5,0.672,1.5,1.5
			S28.162,17.5,27.334,17.5z"/>
	</g>
</g>
<g>
	<g opacity="0.65"  a:adobe-blending-mode="multiply"  a:adobe-opacity-share="1">
		<path fill="#649A34"  a:adobe-blending-mode="normal"  a:adobe-opacity-share="0" d="M27.635,9.499H4.965
			c-0.829,0-1.5-0.672-1.5-1.5s0.671-1.5,1.5-1.5h22.669c0.828,0,1.5,0.671,1.5,1.5S28.463,9.499,27.635,9.499z"/>
	</g>
	<g>
		<path fill="#FFFFFF" d="M27.334,9.199H4.666c-0.829,0-1.5-0.672-1.5-1.5s0.671-1.5,1.5-1.5h22.668c0.828,0,1.5,0.671,1.5,1.5
			S28.162,9.199,27.334,9.199z"/>
	</g>
</g>
</svg>
