<?xml version="1.0" encoding="utf-8"?>
<!-- Generator: Adobe Illustrator 15.0.2, SVG Export Plug-In . SVG Version: 6.00 Build 0)  -->
<!DOCTYPE svg PUBLIC "-//W3C//DTD SVG 1.1//EN" "http://www.w3.org/Graphics/SVG/1.1/DTD/svg11.dtd">
<svg version="1.1" id="圖層_1" xmlns="http://www.w3.org/2000/svg" xmlns:xlink="http://www.w3.org/1999/xlink" x="0px" y="0px"
	 width="279px" height="230px" viewBox="580.51 0 279 230" enable-background="new 580.51 0 279 230" xml:space="preserve">
<g>
	<polygon fill="#A8C749" points="732.139,14.444 783.221,14.444 783.221,2.957 720.65,2.957 720.65,65.341 732.139,65.341 	"/>
	<polygon fill="#96C043" points="732.139,14.444 783.221,14.444 783.221,2.957 720.65,2.957 720.65,65.341 732.139,65.341 	"/>
	<polygon fill="#729B30" points="732.139,14.444 783.221,14.444 783.221,2.957 720.65,2.957 720.65,65.341 732.139,65.341 	"/>
	<polygon fill="#5C7F34" points="732.139,14.444 783.221,14.444 783.221,2.957 720.65,2.957 720.65,65.341 732.139,65.341 	"/>
	<polygon fill="#FFFFFF" points="732.139,14.444 783.221,14.444 783.221,2.957 720.65,2.957 720.65,65.341 732.139,65.341 	"/>
</g>
<g>
	<path fill="#A8C749" d="M744.209,31.338V43.84c17.764,8.593,30.047,26.799,30.047,47.821c0,29.271-23.813,53.084-53.086,53.084
		c-29.272,0-53.085-23.813-53.085-53.084c0-6.169,1.07-12.091,3.013-17.604h-12.063c-1.587,5.599-2.438,11.504-2.438,17.604
		c0,35.605,28.968,64.574,64.574,64.574c35.605,0,64.574-28.969,64.574-64.574C785.744,64.167,768.471,40.636,744.209,31.338z"/>
	<path fill="#96C043" d="M744.209,31.338V43.84c17.764,8.593,30.047,26.799,30.047,47.821c0,29.271-23.813,53.084-53.086,53.084
		c-29.272,0-53.085-23.813-53.085-53.084c0-6.169,1.07-12.091,3.013-17.604h-12.063c-1.587,5.599-2.438,11.504-2.438,17.604
		c0,35.605,28.968,64.574,64.574,64.574c35.605,0,64.574-28.969,64.574-64.574C785.744,64.167,768.471,40.636,744.209,31.338z"/>
	<path fill="#729B30" d="M744.209,31.338V43.84c17.764,8.593,30.047,26.799,30.047,47.821c0,29.271-23.813,53.084-53.086,53.084
		c-29.272,0-53.085-23.813-53.085-53.084c0-6.169,1.07-12.091,3.013-17.604h-12.063c-1.587,5.599-2.438,11.504-2.438,17.604
		c0,35.605,28.968,64.574,64.574,64.574c35.605,0,64.574-28.969,64.574-64.574C785.744,64.167,768.471,40.636,744.209,31.338z"/>
	<path fill="#5C7F34" d="M744.209,31.338V43.84c17.764,8.593,30.047,26.799,30.047,47.821c0,29.271-23.813,53.084-53.086,53.084
		c-29.272,0-53.085-23.813-53.085-53.084c0-6.169,1.07-12.091,3.013-17.604h-12.063c-1.587,5.599-2.438,11.504-2.438,17.604
		c0,35.605,28.968,64.574,64.574,64.574c35.605,0,64.574-28.969,64.574-64.574C785.744,64.167,768.471,40.636,744.209,31.338z"/>
	<path fill="#FFFFFF" d="M744.209,31.338V43.84c17.764,8.593,30.047,26.799,30.047,47.821c0,29.271-23.813,53.084-53.086,53.084
		c-29.272,0-53.085-23.813-53.085-53.084c0-6.169,1.07-12.091,3.013-17.604h-12.063c-1.587,5.599-2.438,11.504-2.438,17.604
		c0,35.605,28.968,64.574,64.574,64.574c35.605,0,64.574-28.969,64.574-64.574C785.744,64.167,768.471,40.636,744.209,31.338z"/>
</g>
<rect x="720.32" y="2.957" fill="#5C7F34" width="0.933" height="62.384"/>
<rect x="720.32" y="64.875" fill="#5C7F34" width="11.818" height="0.466"/>
<rect x="720.32" y="2.957" fill="#5C7F34" width="62.898" height="0.466"/>
<rect x="782.753" y="2.957" fill="#5C7F34" width="0.465" height="11.488"/>
<rect x="659.393" y="73.976" fill="#5C7F34" width="11.487" height="0.465"/>
<g>
	<rect x="744.209" y="31.34" fill="#FFFFFF" width="0.006" height="12.502"/>
</g>
<path fill="#5C7F34" d="M744.215,31.34v12.503c0.316,0.153,0.619,0.332,0.932,0.492V31.718
	C744.836,31.593,744.527,31.461,744.215,31.34z"/>
<path fill="#5C7F34" d="M774.803,91.212c0-21.314-12.521-39.755-30.59-48.367v1.042c17.535,8.543,29.65,26.544,29.65,47.326
	c0,18.343-9.463,35.497-23.734,44.925C764.951,126.606,774.803,110.108,774.803,91.212z"/>
<path fill="#5C7F34" d="M657.402,91.668c0-6.134,0.877-12.065,2.479-17.693h-0.837c-1.582,5.633-2.447,11.562-2.447,17.693
	c0,29.911,19.656,54.36,47.161,62.196c1.177,0.277,2.332,0.619,3.458,0.854C678.691,147.972,657.402,122.226,657.402,91.668z"/>
<rect x="732.139" y="14.444" fill="#B0D06E" width="51.082" height="0.57"/>
<rect x="732.139" y="14.444" fill="#B0D06E" width="0.57" height="50.896"/>
<path fill="#B0D06E" d="M721.252,144.046c-29.022,0-52.636-23.611-52.636-52.637c0-5.996,1.021-11.754,2.939-17.434h-0.85
	c-1.889,5.688-2.895,11.443-2.895,17.434c0,29.467,23.973,53.441,53.44,53.441c9.908,0,19.105-2.863,27.066-7.584l0,0
	C740.525,141.831,730.914,144.046,721.252,144.046z"/>
<path fill="#B0D06E" d="M744.215,30.465v0.866c23.875,9.426,40.82,32.713,40.82,59.899c0,35.501-28.883,64.386-64.385,64.386
	c-11.802,0-22.863-3.207-32.385-8.773l0,0c9.29,5.744,20.389,9.578,32.385,9.578c35.944,0,65.188-29.244,65.188-65.191
	C785.84,63.592,768.543,39.933,744.215,30.465z"/>
<g>
	<g>
		<path fill="#5C7F34" d="M648.705,61.114h-2.313c-0.891,0-1.613-0.722-1.613-1.614v-2.313V39.473h-4.332v21.641v0.198
			c0,2.283,1.852,4.134,4.135,4.134h0.197h5.077v-4.333L648.705,61.114L648.705,61.114z"/>
		<path fill="#FFFFFF" d="M648.705,61.114h-2.313c-0.891,0-1.613-0.722-1.613-1.614v-2.313V39.473h-4.332v21.641v0.198
			c0,2.283,1.852,4.134,4.135,4.134h0.197h5.077v-4.333L648.705,61.114L648.705,61.114z"/>
	</g>
	<g>
		<path fill="#5C7F34" d="M644.59,28.359c-0.526-0.511-1.168-0.766-1.922-0.766c-0.736,0-1.364,0.255-1.882,0.766
			c-0.521,0.512-0.779,1.152-0.779,1.921c0,0.771,0.259,1.407,0.779,1.91c0.519,0.502,1.146,0.753,1.882,0.753
			c0.754,0,1.396-0.258,1.922-0.778c0.528-0.519,0.792-1.146,0.792-1.884C645.382,29.511,645.118,28.871,644.59,28.359z"/>
		<path fill="#FFFFFF" d="M644.59,28.359c-0.526-0.511-1.168-0.766-1.922-0.766c-0.736,0-1.364,0.255-1.882,0.766
			c-0.521,0.512-0.779,1.152-0.779,1.921c0,0.771,0.259,1.407,0.779,1.91c0.519,0.502,1.146,0.753,1.882,0.753
			c0.754,0,1.396-0.258,1.922-0.778c0.528-0.519,0.792-1.146,0.792-1.884C645.382,29.511,645.118,28.871,644.59,28.359z"/>
	</g>
	<g>
		<path fill="#5C7F34" d="M677.533,32.661h-10.396V65.34h-4.221V32.661h-10.37v-3.817h24.989v3.817H677.533z"/>
		<path fill="#FFFFFF" d="M677.533,32.661h-10.396V65.34h-4.221V32.661h-10.37v-3.817h24.989v3.817H677.533z"/>
	</g>
	<g>
		<path fill="#5C7F34" d="M689.403,33.641h2.885h18.964v-4.629h-18.964h-2.885c-3.481,0-6.546,1.86-8.32,4.664
			c-1.019,1.604-1.614,3.518-1.614,5.576c0,1.719,0.434,3.401,1.227,4.897c0.319,0.599,0.689,1.171,1.123,1.698
			c0.559,0.683,1.23,1.304,2,1.847c1.663,1.176,3.595,1.797,5.585,1.797h2.885h9.026c3.004,0,5.444,2.516,5.444,5.609
			c0,3.094-2.44,5.611-5.444,5.611h-9.026h-12.819v4.628h12.819h9.026c5.479,0,9.938-4.593,9.938-10.24
			c0-0.319-0.017-0.644-0.05-0.988c-0.008-0.08-0.019-0.16-0.03-0.237l-0.015-0.11c-0.027-0.204-0.056-0.41-0.092-0.612
			c-0.021-0.111-0.048-0.222-0.074-0.333l-0.019-0.083c-0.039-0.17-0.079-0.339-0.126-0.507c-0.044-0.151-0.093-0.301-0.145-0.447
			c-0.047-0.146-0.098-0.29-0.152-0.433c-0.063-0.158-0.125-0.315-0.193-0.468c-0.057-0.123-0.113-0.245-0.172-0.367
			c-0.078-0.161-0.16-0.322-0.248-0.482c-0.043-0.076-0.09-0.153-0.135-0.229l-0.041-0.065c-0.102-0.168-0.202-0.336-0.311-0.496
			c-0.034-0.049-0.069-0.096-0.104-0.144l-0.051-0.069c-0.129-0.178-0.257-0.354-0.396-0.524c-0.539-0.66-1.188-1.264-1.928-1.796
			c-1.682-1.209-3.637-1.848-5.66-1.848h-9.026h-2.885c-3,0-5.444-2.518-5.444-5.61C683.96,36.157,686.403,33.641,689.403,33.641z"
			/>
		<path fill="#FFFFFF" d="M689.403,33.641h2.885h18.964v-4.629h-18.964h-2.885c-3.481,0-6.546,1.86-8.32,4.664
			c-1.019,1.604-1.614,3.518-1.614,5.576c0,1.719,0.434,3.401,1.227,4.897c0.319,0.599,0.689,1.171,1.123,1.698
			c0.559,0.683,1.23,1.304,2,1.847c1.663,1.176,3.595,1.797,5.585,1.797h2.885h9.026c3.004,0,5.444,2.516,5.444,5.609
			c0,3.094-2.44,5.611-5.444,5.611h-9.026h-12.819v4.628h12.819h9.026c5.479,0,9.938-4.593,9.938-10.24
			c0-0.319-0.017-0.644-0.05-0.988c-0.008-0.08-0.019-0.16-0.03-0.237l-0.015-0.11c-0.027-0.204-0.056-0.41-0.092-0.612
			c-0.021-0.111-0.048-0.222-0.074-0.333l-0.019-0.083c-0.039-0.17-0.079-0.339-0.126-0.507c-0.044-0.151-0.093-0.301-0.145-0.447
			c-0.047-0.146-0.098-0.29-0.152-0.433c-0.063-0.158-0.125-0.315-0.193-0.468c-0.057-0.123-0.113-0.245-0.172-0.367
			c-0.078-0.161-0.16-0.322-0.248-0.482c-0.043-0.076-0.09-0.153-0.135-0.229l-0.041-0.065c-0.102-0.168-0.202-0.336-0.311-0.496
			c-0.034-0.049-0.069-0.096-0.104-0.144l-0.051-0.069c-0.129-0.178-0.257-0.354-0.396-0.524c-0.539-0.66-1.188-1.264-1.928-1.796
			c-1.682-1.209-3.637-1.848-5.66-1.848h-9.026h-2.885c-3,0-5.444-2.518-5.444-5.61C683.96,36.157,686.403,33.641,689.403,33.641z"
			/>
	</g>
	<polygon fill="#96C043" points="662.929,31.96 653.199,31.96 652.546,32.661 662.929,32.661 	"/>
	<polygon fill="#96C043" points="667.137,64.64 663.461,64.64 662.916,65.34 667.137,65.34 	"/>
	<polygon fill="#96C043" points="666.711,31.96 667.137,32.661 677.533,32.661 677.533,31.96 	"/>
	<polyline fill="#729B30" points="667.137,32.661 667.137,65.34 666.711,64.64 666.711,31.96 	"/>
	<polygon fill="#729B30" points="677.533,28.843 676.896,29.398 676.896,31.96 677.533,32.661 	"/>
	<polygon fill="#729B30" points="711.252,29.012 710.536,29.607 710.536,33.101 711.252,33.641 	"/>
	<path fill="#96C043" d="M711.252,33.641l-0.716-0.54l-22.026,0.105c0,0-5.367,0.785-4.951,6.735c0,0,0.65,5.098,5.591,4.914
		c0,0-4.604-0.465-5.167-5.119c0,0-0.328-5.223,4.796-6.057L711.252,33.641z"/>
	<path fill="#96C043" d="M680.15,42.941c0,0,1.809,6.055,9.038,6.544h12.81c0,0,6.003,0.27,4.57,7.083c0,0,0.762-6.242-4.625-6.538
		l-12.731,0.015C689.211,50.045,682.021,49.532,680.15,42.941z"/>
	<polygon fill="#96C043" points="679.468,60.711 680.15,61.505 680.15,64.558 679.468,65.34 	"/>
	<path fill="#729B30" d="M709.805,49.803c0,0,4.847,7.772-2.633,13.562c0,0-2.528,2.11-5.855,1.976h-21.849l0.683-0.782
		l21.055,0.082c0,0,5.18,0.289,8.23-4.651C709.437,59.989,712.375,55.617,709.805,49.803z"/>
	<polygon fill="#729B30" points="649.855,61.114 649.334,61.869 649.365,64.882 649.855,65.446 	"/>
	<path fill="#96C043" d="M649.855,65.446h-5.276c0,0-3.508,0.282-4.108-3.687c0,0,0.758,2.939,3.843,3.05l5.052,0.073
		L649.855,65.446z"/>
	<path fill="#729B30" d="M644.778,39.473l-0.631,0.602v18.808c0,0-0.099,1.861,1.914,2.231c0,0-1.283-0.339-1.283-2.133V39.473z"/>
	<path fill="#729B30" d="M644.227,28.063c0.485,0.488,0.786,1.16,0.786,1.902c0,1.488-1.207,2.695-2.695,2.695
		c-0.533,0-1.027-0.159-1.445-0.426c0.479,0.444,1.117,0.722,1.822,0.722c1.483,0,2.688-1.204,2.688-2.688
		C645.382,29.354,644.924,28.549,644.227,28.063z"/>
</g>
<polygon fill="#5C7F34" points="606.714,178.705 606.514,178.705 606.514,185.965 607.744,185.965 607.744,185.765 606.714,185.765 
	"/>
<polygon fill="#5C7F34" points="606.714,175.943 606.514,175.943 606.514,177.358 607.744,177.358 607.744,177.158 606.714,177.158 
	"/>
<polygon fill="#FFFFFF" points="606.714,175.743 606.714,175.943 606.714,177.158 607.744,177.158 607.944,177.158 607.944,175.743 
	"/>
<polygon fill="#FFFFFF" points="606.714,178.505 606.714,178.705 606.714,185.765 607.744,185.765 607.944,185.765 607.944,178.505 
	"/>
<path fill="#5C7F34" d="M615.187,181.349c0-0.501-0.048-0.876-0.144-1.125c-0.096-0.248-0.266-0.446-0.51-0.594
	c-0.243-0.148-0.529-0.223-0.857-0.223c-0.524,0-0.977,0.166-1.357,0.499c-0.041,0.036-0.072,0.09-0.109,0.134
	c0.362-0.284,0.782-0.433,1.267-0.433c0.328,0,0.614,0.074,0.857,0.223c0.244,0.147,0.414,0.346,0.51,0.594
	c0.096,0.249,0.144,0.624,0.144,1.125v4.416h1.23v-0.2h-1.03V181.349z"/>
<path fill="#5C7F34" d="M611.944,179.161c-0.115,0.099-0.218,0.218-0.319,0.34v0.036
	C611.721,179.394,611.833,179.279,611.944,179.161z"/>
<polygon fill="#5C7F34" points="610.518,178.705 610.317,178.705 610.317,185.965 611.548,185.965 611.548,185.765 610.518,185.765 
	"/>
<path fill="#FFFFFF" d="M616.349,180.104c-0.073-0.351-0.201-0.654-0.383-0.909c-0.183-0.255-0.457-0.462-0.824-0.618
	c-0.366-0.158-0.769-0.236-1.206-0.236c-0.827,0-1.484,0.283-1.991,0.82c-0.111,0.118-0.224,0.232-0.319,0.376v-0.036v-0.996h-1.107
	v0.2v7.06h1.03h0.2V181.8c0-0.828,0.16-1.405,0.461-1.76c0.037-0.044,0.068-0.098,0.109-0.134c0.381-0.333,0.833-0.499,1.357-0.499
	c0.328,0,0.614,0.074,0.857,0.223c0.244,0.147,0.414,0.346,0.51,0.594c0.096,0.249,0.144,0.624,0.144,1.125v4.416h1.03h0.2v-4.464
	C616.417,180.731,616.394,180.332,616.349,180.104z"/>
<polygon fill="#5C7F34" points="619.229,176.786 619.028,176.907 619.028,178.505 619.229,178.505 "/>
<rect x="620.452" y="179.462" fill="#5C7F34" width="1.037" height="0.2"/>
<path fill="#5C7F34" d="M620.938,185.86c-0.446,0-0.793-0.07-1.039-0.212s-0.419-0.327-0.52-0.558c-0.1-0.229-0.15-0.714-0.15-1.452
	v-4.177h-0.902v-0.757h-0.2v0.957h0.902v4.177c0,0.738,0.051,1.223,0.15,1.452c0.101,0.23,0.273,0.416,0.52,0.558
	s0.593,0.212,1.039,0.212c0.273,0,0.584-0.036,0.93-0.109l-0.028-0.173C621.391,185.819,621.144,185.86,620.938,185.86z"/>
<path fill="#FFFFFF" d="M621.689,184.664c-0.223,0.032-0.403,0.048-0.54,0.048c-0.182,0-0.322-0.029-0.42-0.089
	c-0.099-0.06-0.169-0.139-0.212-0.239c-0.044-0.101-0.065-0.326-0.065-0.677v-4.045v-0.2h1.037h0.2v-0.957h-1.237v-2.536
	l-1.224,0.738v0.079v1.719h-0.2h-0.702v0.2v0.757h0.902v4.177c0,0.738,0.051,1.223,0.15,1.452c0.101,0.23,0.273,0.416,0.52,0.558
	s0.593,0.212,1.039,0.212c0.206,0,0.453-0.041,0.701-0.082c0.081-0.014,0.144-0.01,0.229-0.027L621.689,184.664z"/>
<path fill="none" d="M628.348,181.438c-0.068-0.508-0.211-0.904-0.437-1.174c-0.392-0.474-0.899-0.711-1.524-0.711
	c-0.518,0-0.956,0.167-1.322,0.484c-0.319,0.364-0.505,0.827-0.542,1.4H628.348z"/>
<path fill="#5C7F34" d="M627.911,180.264c0.226,0.27,0.368,0.666,0.437,1.174h0.229c-0.055-0.61-0.209-1.068-0.465-1.374
	c-0.392-0.474-0.899-0.711-1.524-0.711c-0.564,0-1.04,0.189-1.425,0.567c-0.037,0.036-0.064,0.079-0.098,0.117
	c0.366-0.317,0.805-0.484,1.322-0.484C627.012,179.553,627.52,179.79,627.911,180.264z"/>
<path fill="#5C7F34" d="M628.459,183.639l-0.097-0.012c-0.148,0.414-0.352,0.713-0.585,0.948c0.008-0.006,0.019-0.008,0.026-0.014
	C628.072,184.361,628.284,184.039,628.459,183.639z"/>
<path fill="#5C7F34" d="M626.642,185.929c-1.062,0-1.903-0.327-2.525-0.98c-0.622-0.654-0.934-1.571-0.934-2.752
	c0-1.183,0.301-2.102,0.891-2.772c-0.048,0.046-0.102,0.08-0.147,0.129c-0.629,0.675-0.943,1.622-0.943,2.844
	c0,1.181,0.312,2.098,0.934,2.752c0.622,0.653,1.464,0.98,2.525,0.98c0.844,0,1.536-0.205,2.078-0.615
	c0.157-0.119,0.296-0.256,0.425-0.403c-0.073,0.069-0.144,0.142-0.225,0.203C628.178,185.724,627.485,185.929,626.642,185.929z"/>
<path fill="#5C7F34" d="M629.672,182.449h-5.218c0.004,0.071,0.018,0.132,0.024,0.2h5.189
	C629.671,182.561,629.671,182.511,629.672,182.449z"/>
<path fill="#FFFFFF" d="M629.868,182.449c0.005-0.146,0.007-0.255,0.007-0.328c0-1.198-0.308-2.128-0.923-2.789
	s-1.408-0.991-2.379-0.991c-1.002,0-1.818,0.337-2.447,1.012c-0.021,0.021-0.033,0.05-0.053,0.071
	c-0.59,0.671-0.891,1.59-0.891,2.772c0,1.181,0.312,2.098,0.934,2.752c0.622,0.653,1.464,0.98,2.525,0.98
	c0.844,0,1.536-0.205,2.078-0.615c0.081-0.062,0.151-0.134,0.225-0.203c0.418-0.391,0.72-0.895,0.89-1.526l-1.271-0.157
	c-0.029,0.082-0.071,0.138-0.104,0.212c-0.175,0.4-0.387,0.723-0.655,0.923c-0.008,0.006-0.019,0.008-0.026,0.014
	c-0.313,0.226-0.689,0.342-1.129,0.342c-0.605,0-1.111-0.212-1.518-0.636c-0.369-0.386-0.582-0.936-0.652-1.632
	c-0.007-0.068-0.021-0.129-0.024-0.2h5.218H629.868z M628.348,181.438h-3.825c0.037-0.573,0.223-1.036,0.542-1.4
	c0.033-0.038,0.061-0.081,0.098-0.117c0.385-0.378,0.86-0.567,1.425-0.567c0.625,0,1.133,0.237,1.524,0.711
	c0.256,0.306,0.41,0.764,0.465,1.374H628.348z"/>
<path fill="#5C7F34" d="M633.959,179.854c-0.07,0.053-0.123,0.123-0.18,0.189c0.209-0.151,0.442-0.231,0.704-0.231
	c0.301,0,0.602,0.089,0.902,0.267l0.092-0.248c-0.265-0.138-0.529-0.219-0.794-0.219
	C634.414,179.612,634.173,179.693,633.959,179.854z"/>
<path fill="#5C7F34" d="M633.674,178.855c-0.158,0.132-0.324,0.33-0.501,0.609v0.141
	C633.349,179.285,633.516,179.04,633.674,178.855z"/>
<polygon fill="#5C7F34" points="632.065,178.705 631.865,178.705 631.865,185.965 633.096,185.965 633.096,185.765 632.065,185.765 
	"/>
<path fill="#FFFFFF" d="M634.745,178.341c-0.287,0-0.551,0.082-0.79,0.246c-0.09,0.062-0.185,0.157-0.281,0.269
	c-0.158,0.185-0.325,0.43-0.501,0.75v-0.141v-0.96h-1.107v0.2v7.06h1.03h0.2v-3.801c0-0.52,0.068-0.998,0.205-1.436
	c0.062-0.193,0.161-0.348,0.278-0.484c0.057-0.066,0.109-0.137,0.18-0.189c0.214-0.161,0.455-0.242,0.725-0.242
	c0.265,0,0.529,0.081,0.794,0.219c0.036,0.019,0.072,0.026,0.108,0.048l0.424-1.142
	C635.581,178.473,635.159,178.341,634.745,178.341z"/>
<path fill="none" d="M638.337,183.816c0,0.328,0.124,0.602,0.372,0.82c0.249,0.219,0.612,0.328,1.091,0.328
	c0.474,0,0.896-0.104,1.265-0.312c0.134-0.075,0.24-0.172,0.349-0.267c0.1-0.119,0.195-0.24,0.265-0.384
	c0.132-0.278,0.198-0.688,0.198-1.23v-0.451c-0.447,0.183-1.117,0.337-2.01,0.465c-0.506,0.073-0.864,0.155-1.073,0.246
	c-0.088,0.038-0.162,0.088-0.232,0.141c-0.016,0.021-0.038,0.036-0.053,0.059C638.394,183.407,638.337,183.603,638.337,183.816z"/>
<path fill="#5C7F34" d="M639.866,182.786c0.893-0.128,1.563-0.282,2.01-0.465v0.451c0,0.542-0.066,0.952-0.198,1.23
	c-0.069,0.144-0.165,0.265-0.265,0.384c0.189-0.168,0.354-0.354,0.465-0.584c0.132-0.278,0.198-0.688,0.198-1.23v-0.451
	c-0.447,0.183-1.117,0.337-2.01,0.465c-0.506,0.073-0.864,0.155-1.073,0.246c-0.184,0.079-0.323,0.197-0.433,0.341
	c0.07-0.053,0.145-0.103,0.232-0.141C639.002,182.941,639.36,182.859,639.866,182.786z"/>
<path fill="#5C7F34" d="M642.083,180.836c0-0.501-0.116-0.854-0.349-1.06c-0.314-0.278-0.782-0.417-1.401-0.417
	c-0.579,0-1.006,0.102-1.282,0.304c-0.079,0.058-0.15,0.133-0.217,0.216c0.006-0.004,0.011-0.012,0.017-0.016
	c0.276-0.202,0.703-0.304,1.282-0.304c0.619,0,1.087,0.139,1.401,0.417c0.232,0.205,0.349,0.559,0.349,1.06
	c0,0.03-0.002,0.097-0.004,0.18c0.065-0.02,0.14-0.038,0.197-0.059C642.08,180.988,642.083,180.882,642.083,180.836z"/>
<path fill="#5C7F34" d="M637.755,179.365c-0.058,0.057-0.13,0.103-0.179,0.164c-0.251,0.316-0.431,0.732-0.54,1.247l1.203,0.164
	c0.021-0.079,0.045-0.146,0.068-0.218l-1.071-0.146C637.342,180.078,637.517,179.678,637.755,179.365z"/>
<path fill="#5C7F34" d="M642.425,185.765c-0.128-0.255-0.21-0.554-0.246-0.896c-0.456,0.388-0.895,0.661-1.316,0.82
	c-0.421,0.159-0.874,0.239-1.356,0.239c-0.798,0-1.411-0.195-1.839-0.584c-0.429-0.391-0.643-0.888-0.643-1.494
	c0-0.355,0.081-0.68,0.242-0.975c0.067-0.122,0.148-0.229,0.233-0.33c-0.167,0.15-0.317,0.32-0.434,0.53
	c-0.161,0.295-0.242,0.619-0.242,0.975c0,0.606,0.214,1.104,0.643,1.494c0.428,0.389,1.041,0.584,1.839,0.584
	c0.482,0,0.936-0.08,1.356-0.239c0.422-0.159,0.86-0.433,1.316-0.82c0.036,0.342,0.118,0.641,0.246,0.896h1.285
	c-0.036-0.065-0.061-0.134-0.091-0.2H642.425z"/>
<path fill="#FFFFFF" d="M643.398,184.894c-0.052-0.304-0.078-1.027-0.078-2.171v-1.641c0-0.547-0.021-0.925-0.062-1.135
	c-0.073-0.337-0.201-0.616-0.383-0.837c-0.183-0.222-0.468-0.405-0.854-0.551c-0.388-0.146-0.892-0.219-1.511-0.219
	c-0.625,0-1.174,0.086-1.647,0.256c-0.475,0.172-0.837,0.415-1.087,0.732c-0.009,0.011-0.014,0.025-0.021,0.036
	c-0.238,0.313-0.413,0.713-0.519,1.211l1.071,0.146l0.132,0.018c0.094-0.367,0.227-0.652,0.395-0.861
	c0.066-0.083,0.138-0.158,0.217-0.216c0.276-0.202,0.703-0.304,1.282-0.304c0.619,0,1.087,0.139,1.401,0.417
	c0.232,0.205,0.349,0.559,0.349,1.06c0,0.046-0.003,0.152-0.007,0.321c-0.058,0.021-0.132,0.039-0.197,0.059
	c-0.468,0.139-1.126,0.262-1.997,0.365c-0.488,0.06-0.853,0.121-1.094,0.185c-0.328,0.091-0.623,0.226-0.886,0.403
	c-0.152,0.104-0.283,0.233-0.402,0.377c-0.085,0.102-0.166,0.208-0.233,0.33c-0.161,0.295-0.242,0.619-0.242,0.975
	c0,0.606,0.214,1.104,0.643,1.494c0.428,0.389,1.041,0.584,1.839,0.584c0.482,0,0.936-0.08,1.356-0.239
	c0.422-0.159,0.86-0.433,1.316-0.82c0.036,0.342,0.118,0.641,0.246,0.896h0.994h0.291
	C643.555,185.486,643.451,185.196,643.398,184.894z M642.076,182.572c0,0.542-0.066,0.952-0.198,1.23
	c-0.11,0.229-0.275,0.416-0.465,0.584c-0.108,0.095-0.215,0.191-0.349,0.267c-0.369,0.208-0.791,0.312-1.265,0.312
	c-0.479,0-0.842-0.109-1.091-0.328c-0.248-0.219-0.372-0.492-0.372-0.82c0-0.214,0.057-0.409,0.171-0.585
	c0.015-0.022,0.037-0.038,0.053-0.059c0.109-0.144,0.249-0.262,0.433-0.341c0.209-0.091,0.567-0.173,1.073-0.246
	c0.893-0.128,1.563-0.282,2.01-0.465V182.572z"/>
<path fill="#5C7F34" d="M646.457,184.954c-0.604-0.648-0.905-1.58-0.905-2.792c0-0.784,0.13-1.47,0.39-2.058
	c0.116-0.262,0.269-0.484,0.438-0.688c-0.257,0.249-0.481,0.532-0.639,0.889c-0.26,0.588-0.39,1.273-0.39,2.058
	c0,1.212,0.302,2.144,0.905,2.792c0.604,0.65,1.402,0.975,2.396,0.975c0.793,0,1.462-0.236,2.006-0.707
	c0.063-0.055,0.113-0.12,0.171-0.179c-0.539,0.454-1.197,0.686-1.977,0.686C647.859,185.929,647.062,185.604,646.457,184.954z"/>
<path fill="#5C7F34" d="M650.62,183.326l-0.155-0.021c-0.072,0.513-0.232,0.909-0.469,1.2c0.017-0.014,0.038-0.019,0.054-0.033
	C650.332,184.215,650.519,183.827,650.62,183.326z"/>
<path fill="#5C7F34" d="M649.957,179.722c-0.289-0.246-0.639-0.369-1.049-0.369c-0.62,0-1.124,0.223-1.511,0.666
	c-0.009,0.011-0.015,0.024-0.023,0.035c0.36-0.327,0.802-0.501,1.334-0.501c0.41,0,0.76,0.123,1.049,0.369
	c0.29,0.246,0.491,0.613,0.605,1.101l1.196-0.185c-0.011-0.058-0.03-0.107-0.044-0.162l-0.952,0.146
	C650.448,180.335,650.247,179.968,649.957,179.722z"/>
<path fill="#FFFFFF" d="M650.665,183.105c-0.011,0.078-0.029,0.147-0.045,0.221c-0.102,0.501-0.288,0.889-0.57,1.146
	c-0.016,0.015-0.037,0.02-0.054,0.033c-0.315,0.268-0.697,0.411-1.156,0.411c-0.602,0-1.09-0.221-1.463-0.663
	c-0.374-0.442-0.561-1.15-0.561-2.126c0-0.939,0.188-1.628,0.558-2.074c0.009-0.011,0.015-0.024,0.023-0.035
	c0.387-0.443,0.891-0.666,1.511-0.666c0.41,0,0.76,0.123,1.049,0.369c0.29,0.246,0.491,0.613,0.605,1.101l0.952-0.146l0.244-0.038
	c-0.142-0.733-0.463-1.3-0.964-1.699c-0.502-0.398-1.146-0.598-1.935-0.598c-0.625,0-1.202,0.146-1.733,0.441
	c-0.294,0.162-0.536,0.381-0.747,0.634c-0.17,0.204-0.322,0.427-0.438,0.688c-0.26,0.588-0.39,1.273-0.39,2.058
	c0,1.212,0.302,2.144,0.905,2.792c0.604,0.65,1.402,0.975,2.396,0.975c0.779,0,1.438-0.231,1.977-0.686
	c0.009-0.008,0.02-0.014,0.029-0.021c0.545-0.473,0.883-1.125,1.016-1.959L650.665,183.105z"/>
<rect x="655.076" y="179.462" fill="#5C7F34" width="1.037" height="0.2"/>
<polygon fill="#5C7F34" points="653.853,176.786 653.652,176.907 653.652,178.505 653.853,178.505 "/>
<path fill="#5C7F34" d="M655.562,185.86c-0.446,0-0.793-0.07-1.039-0.212s-0.419-0.327-0.52-0.558c-0.1-0.229-0.15-0.714-0.15-1.452
	v-4.177h-0.902v-0.757h-0.2v0.957h0.902v4.177c0,0.738,0.051,1.223,0.15,1.452c0.101,0.23,0.273,0.416,0.52,0.558
	s0.593,0.212,1.039,0.212c0.273,0,0.584-0.036,0.93-0.109l-0.028-0.173C656.015,185.819,655.768,185.86,655.562,185.86z"/>
<path fill="#FFFFFF" d="M656.313,184.664c-0.223,0.032-0.403,0.048-0.54,0.048c-0.182,0-0.322-0.029-0.42-0.089
	c-0.099-0.06-0.169-0.139-0.212-0.239c-0.044-0.101-0.065-0.326-0.065-0.677v-4.045v-0.2h1.037h0.2v-0.957h-1.237v-2.536
	l-1.224,0.738v0.079v1.719h-0.2h-0.702v0.2v0.757h0.902v4.177c0,0.738,0.051,1.223,0.15,1.452c0.101,0.23,0.273,0.416,0.52,0.558
	s0.593,0.212,1.039,0.212c0.206,0,0.453-0.041,0.701-0.082c0.081-0.014,0.144-0.01,0.229-0.027L656.313,184.664z"/>
<polygon fill="#5C7F34" points="658.224,175.943 658.023,175.943 658.023,177.358 659.254,177.358 659.254,177.158 658.224,177.158 
	"/>
<polygon fill="#5C7F34" points="658.224,178.705 658.023,178.705 658.023,185.965 659.254,185.965 659.254,185.765 658.224,185.765 
	"/>
<polygon fill="#FFFFFF" points="658.224,175.743 658.224,175.943 658.224,177.158 659.254,177.158 659.454,177.158 659.454,175.743 
	"/>
<polygon fill="#FFFFFF" points="658.224,178.505 658.224,178.705 658.224,185.765 659.254,185.765 659.454,185.765 659.454,178.505 
	"/>
<polygon fill="#5C7F34" points="661.358,178.705 661.082,178.705 663.844,185.965 664.992,185.965 665.068,185.765 664.044,185.765 
	"/>
<path fill="#5C7F34" d="M665.063,182.935l1.54-4.229h-0.127l-1.613,4.43c-0.131,0.359-0.235,0.671-0.327,0.961
	c0.021,0.075,0.048,0.144,0.069,0.22C664.714,183.933,664.866,183.473,665.063,182.935z"/>
<path fill="#FFFFFF" d="M666.676,178.505l-0.073,0.2l-1.54,4.229c-0.196,0.538-0.349,0.998-0.458,1.381
	c-0.021-0.076-0.048-0.145-0.069-0.22c-0.124-0.425-0.253-0.844-0.396-1.243l-1.559-4.348h-1.299l0.076,0.2l2.686,7.06h1.024h0.124
	l2.748-7.26H666.676z"/>
<path fill="none" d="M674.482,181.438c-0.068-0.508-0.211-0.904-0.437-1.174c-0.393-0.474-0.9-0.711-1.524-0.711
	c-0.518,0-0.956,0.167-1.323,0.484c-0.318,0.363-0.504,0.827-0.541,1.4H674.482z"/>
<path fill="#5C7F34" d="M674.593,183.639l-0.096-0.012c-0.149,0.414-0.353,0.714-0.586,0.948c0.009-0.006,0.02-0.008,0.027-0.014
	C674.207,184.361,674.418,184.039,674.593,183.639z"/>
<path fill="#5C7F34" d="M674.046,180.264c0.226,0.27,0.368,0.666,0.437,1.174h0.229c-0.055-0.61-0.21-1.068-0.465-1.374
	c-0.393-0.474-0.9-0.711-1.524-0.711c-0.565,0-1.04,0.189-1.426,0.567c-0.036,0.036-0.064,0.079-0.098,0.117
	c0.367-0.317,0.806-0.484,1.323-0.484C673.146,179.553,673.653,179.79,674.046,180.264z"/>
<path fill="#5C7F34" d="M672.776,185.929c-1.063,0-1.904-0.327-2.526-0.98c-0.622-0.654-0.933-1.571-0.933-2.752
	c0-1.183,0.301-2.103,0.891-2.772c-0.048,0.046-0.102,0.08-0.147,0.129c-0.629,0.675-0.943,1.622-0.943,2.844
	c0,1.181,0.311,2.098,0.933,2.752c0.622,0.653,1.464,0.98,2.526,0.98c0.843,0,1.535-0.205,2.078-0.615
	c0.157-0.119,0.295-0.256,0.424-0.402c-0.073,0.068-0.143,0.141-0.224,0.202C674.312,185.724,673.619,185.929,672.776,185.929z"/>
<path fill="#5C7F34" d="M675.807,182.449h-5.218c0.004,0.071,0.018,0.132,0.024,0.2h5.189
	C675.805,182.561,675.806,182.511,675.807,182.449z"/>
<path fill="#FFFFFF" d="M676.003,182.449c0.004-0.146,0.007-0.255,0.007-0.328c0-1.198-0.308-2.128-0.923-2.789
	s-1.408-0.991-2.379-0.991c-1.003,0-1.818,0.337-2.447,1.012c-0.021,0.021-0.033,0.05-0.053,0.071
	c-0.59,0.67-0.891,1.59-0.891,2.772c0,1.181,0.311,2.098,0.933,2.752c0.622,0.653,1.464,0.98,2.526,0.98
	c0.843,0,1.535-0.205,2.078-0.615c0.081-0.062,0.15-0.134,0.224-0.202c0.418-0.392,0.72-0.896,0.891-1.527l-1.271-0.157
	c-0.029,0.082-0.071,0.138-0.104,0.212c-0.175,0.4-0.386,0.723-0.654,0.923c-0.008,0.006-0.019,0.008-0.027,0.014
	c-0.314,0.226-0.688,0.342-1.128,0.342c-0.606,0-1.112-0.212-1.518-0.636c-0.37-0.386-0.583-0.936-0.652-1.632
	c-0.007-0.068-0.021-0.129-0.024-0.2h5.218H676.003z M674.482,181.438h-3.825c0.037-0.573,0.223-1.037,0.541-1.4
	c0.033-0.038,0.062-0.081,0.098-0.117c0.386-0.378,0.86-0.567,1.426-0.567c0.624,0,1.132,0.237,1.524,0.711
	c0.255,0.306,0.41,0.764,0.465,1.374H674.482z"/>
<polygon fill="#5C7F34" points="685.257,176.926 681.955,176.926 681.955,175.943 681.755,175.943 681.755,177.126 685.057,177.126 
	685.057,185.965 686.383,185.965 686.383,185.765 685.257,185.765 "/>
<rect x="686.583" y="176.926" fill="#5C7F34" width="3.115" height="0.2"/>
<polygon fill="#FFFFFF" points="681.955,175.743 681.955,175.943 681.955,176.926 685.257,176.926 685.257,185.765 686.383,185.765 
	686.583,185.765 686.583,177.126 686.583,176.926 689.698,176.926 689.898,176.926 689.898,175.743 "/>
<path fill="none" d="M695.006,181.438c-0.069-0.508-0.211-0.904-0.438-1.174c-0.392-0.474-0.899-0.711-1.524-0.711
	c-0.518,0-0.956,0.167-1.322,0.484c-0.319,0.364-0.505,0.827-0.542,1.4H695.006z"/>
<path fill="#5C7F34" d="M694.568,180.264c0.227,0.27,0.368,0.666,0.438,1.174h0.228c-0.055-0.61-0.209-1.068-0.465-1.374
	c-0.392-0.474-0.899-0.711-1.524-0.711c-0.564,0-1.04,0.189-1.425,0.567c-0.037,0.036-0.064,0.079-0.098,0.117
	c0.366-0.317,0.805-0.484,1.322-0.484C693.669,179.553,694.177,179.79,694.568,180.264z"/>
<path fill="#5C7F34" d="M695.116,183.639l-0.097-0.012c-0.148,0.414-0.352,0.713-0.585,0.948c0.008-0.006,0.019-0.008,0.026-0.014
	C694.73,184.361,694.941,184.039,695.116,183.639z"/>
<path fill="#5C7F34" d="M696.329,182.449h-5.218c0.004,0.071,0.018,0.132,0.024,0.2h5.189
	C696.328,182.561,696.328,182.511,696.329,182.449z"/>
<path fill="#5C7F34" d="M693.299,185.929c-1.062,0-1.903-0.327-2.525-0.98c-0.622-0.654-0.934-1.571-0.934-2.752
	c0-1.183,0.301-2.102,0.891-2.772c-0.048,0.046-0.102,0.08-0.147,0.129c-0.629,0.675-0.943,1.622-0.943,2.844
	c0,1.181,0.312,2.098,0.934,2.752c0.622,0.653,1.464,0.98,2.525,0.98c0.844,0,1.536-0.205,2.078-0.615
	c0.157-0.119,0.296-0.256,0.425-0.403c-0.073,0.069-0.144,0.142-0.225,0.203C694.835,185.724,694.143,185.929,693.299,185.929z"/>
<path fill="#FFFFFF" d="M696.525,182.449c0.005-0.146,0.007-0.255,0.007-0.328c0-1.198-0.308-2.128-0.923-2.789
	s-1.408-0.991-2.379-0.991c-1.002,0-1.818,0.337-2.447,1.012c-0.021,0.021-0.033,0.05-0.053,0.071
	c-0.59,0.671-0.891,1.59-0.891,2.772c0,1.181,0.312,2.098,0.934,2.752c0.622,0.653,1.464,0.98,2.525,0.98
	c0.844,0,1.536-0.205,2.078-0.615c0.081-0.062,0.151-0.134,0.225-0.203c0.418-0.391,0.72-0.895,0.89-1.526l-1.271-0.157
	c-0.029,0.082-0.071,0.138-0.104,0.212c-0.175,0.4-0.386,0.723-0.655,0.923c-0.008,0.006-0.019,0.008-0.026,0.014
	c-0.313,0.226-0.688,0.342-1.129,0.342c-0.605,0-1.111-0.212-1.518-0.636c-0.369-0.386-0.581-0.936-0.652-1.632
	c-0.007-0.068-0.021-0.129-0.024-0.2h5.218H696.525z M695.006,181.438h-3.826c0.037-0.573,0.223-1.036,0.542-1.4
	c0.033-0.038,0.061-0.081,0.098-0.117c0.385-0.378,0.86-0.567,1.425-0.567c0.625,0,1.133,0.237,1.524,0.711
	c0.256,0.306,0.41,0.764,0.465,1.374H695.006z"/>
<path fill="none" d="M699.632,183.816c0,0.328,0.124,0.602,0.372,0.82c0.249,0.219,0.612,0.328,1.091,0.328
	c0.474,0,0.896-0.104,1.265-0.312c0.134-0.075,0.24-0.172,0.349-0.267c0.1-0.119,0.195-0.24,0.265-0.384
	c0.132-0.278,0.198-0.688,0.198-1.23v-0.451c-0.447,0.183-1.117,0.337-2.01,0.465c-0.506,0.073-0.864,0.155-1.073,0.246
	c-0.088,0.038-0.162,0.088-0.232,0.141c-0.016,0.021-0.038,0.036-0.053,0.059C699.688,183.407,699.632,183.603,699.632,183.816z"/>
<path fill="#5C7F34" d="M701.161,182.786c0.893-0.128,1.563-0.282,2.01-0.465v0.451c0,0.542-0.066,0.952-0.198,1.23
	c-0.069,0.144-0.165,0.265-0.265,0.384c0.189-0.168,0.354-0.354,0.465-0.584c0.132-0.278,0.198-0.688,0.198-1.23v-0.451
	c-0.447,0.183-1.117,0.337-2.01,0.465c-0.506,0.073-0.864,0.155-1.073,0.246c-0.183,0.079-0.323,0.197-0.433,0.341
	c0.07-0.053,0.145-0.103,0.232-0.141C700.297,182.941,700.655,182.859,701.161,182.786z"/>
<path fill="#5C7F34" d="M703.378,180.836c0-0.501-0.116-0.854-0.349-1.06c-0.314-0.278-0.782-0.417-1.401-0.417
	c-0.579,0-1.006,0.102-1.282,0.304c-0.078,0.058-0.15,0.133-0.217,0.216c0.006-0.004,0.011-0.012,0.017-0.016
	c0.276-0.202,0.703-0.304,1.282-0.304c0.619,0,1.087,0.139,1.401,0.417c0.232,0.205,0.349,0.559,0.349,1.06
	c0,0.03-0.002,0.097-0.004,0.18c0.066-0.02,0.14-0.038,0.197-0.059C703.375,180.988,703.378,180.882,703.378,180.836z"/>
<path fill="#5C7F34" d="M699.05,179.365c-0.058,0.057-0.13,0.103-0.179,0.164c-0.251,0.316-0.431,0.732-0.54,1.247l1.203,0.164
	c0.021-0.079,0.045-0.146,0.068-0.218l-1.071-0.146C698.637,180.078,698.812,179.678,699.05,179.365z"/>
<path fill="#5C7F34" d="M703.72,185.765c-0.128-0.255-0.21-0.554-0.246-0.896c-0.456,0.388-0.895,0.661-1.316,0.82
	c-0.421,0.159-0.874,0.239-1.356,0.239c-0.798,0-1.411-0.195-1.839-0.584c-0.429-0.391-0.643-0.888-0.643-1.494
	c0-0.355,0.081-0.68,0.242-0.975c0.067-0.122,0.149-0.229,0.233-0.33c-0.167,0.15-0.317,0.32-0.434,0.53
	c-0.161,0.295-0.242,0.619-0.242,0.975c0,0.606,0.214,1.104,0.643,1.494c0.428,0.389,1.041,0.584,1.839,0.584
	c0.482,0,0.936-0.08,1.356-0.239c0.422-0.159,0.86-0.433,1.316-0.82c0.036,0.342,0.118,0.641,0.246,0.896h1.285
	c-0.036-0.065-0.061-0.134-0.091-0.2H703.72z"/>
<path fill="#FFFFFF" d="M704.693,184.894c-0.052-0.304-0.078-1.027-0.078-2.171v-1.641c0-0.547-0.021-0.925-0.062-1.135
	c-0.073-0.337-0.201-0.616-0.383-0.837c-0.183-0.222-0.468-0.405-0.854-0.551c-0.388-0.146-0.892-0.219-1.511-0.219
	c-0.625,0-1.174,0.086-1.647,0.256c-0.475,0.172-0.837,0.415-1.087,0.732c-0.009,0.011-0.013,0.025-0.021,0.036
	c-0.238,0.313-0.413,0.713-0.519,1.211l1.071,0.146l0.132,0.018c0.094-0.367,0.227-0.652,0.395-0.861
	c0.066-0.083,0.139-0.158,0.217-0.216c0.276-0.202,0.703-0.304,1.282-0.304c0.619,0,1.087,0.139,1.401,0.417
	c0.232,0.205,0.349,0.559,0.349,1.06c0,0.046-0.003,0.152-0.007,0.321c-0.058,0.021-0.131,0.039-0.197,0.059
	c-0.468,0.139-1.126,0.262-1.997,0.365c-0.488,0.06-0.853,0.121-1.094,0.185c-0.328,0.091-0.623,0.226-0.886,0.403
	c-0.152,0.104-0.283,0.233-0.402,0.377c-0.084,0.102-0.166,0.208-0.233,0.33c-0.161,0.295-0.242,0.619-0.242,0.975
	c0,0.606,0.214,1.104,0.643,1.494c0.428,0.389,1.041,0.584,1.839,0.584c0.482,0,0.936-0.08,1.356-0.239
	c0.422-0.159,0.86-0.433,1.316-0.82c0.036,0.342,0.118,0.641,0.246,0.896h0.994h0.291
	C704.85,185.486,704.746,185.196,704.693,184.894z M703.371,182.572c0,0.542-0.066,0.952-0.198,1.23
	c-0.11,0.229-0.275,0.416-0.465,0.584c-0.108,0.095-0.215,0.191-0.349,0.267c-0.369,0.208-0.791,0.312-1.265,0.312
	c-0.479,0-0.842-0.109-1.091-0.328c-0.248-0.219-0.372-0.492-0.372-0.82c0-0.214,0.057-0.409,0.171-0.585
	c0.015-0.022,0.037-0.038,0.053-0.059c0.109-0.144,0.25-0.262,0.433-0.341c0.209-0.091,0.567-0.173,1.073-0.246
	c0.893-0.128,1.563-0.282,2.01-0.465V182.572z"/>
<path fill="#5C7F34" d="M711.252,179.722c-0.289-0.246-0.639-0.369-1.049-0.369c-0.62,0-1.124,0.223-1.511,0.666
	c-0.009,0.011-0.015,0.024-0.023,0.035c0.36-0.327,0.802-0.501,1.334-0.501c0.41,0,0.76,0.123,1.049,0.369
	c0.29,0.246,0.491,0.613,0.605,1.101l1.196-0.185c-0.011-0.058-0.03-0.107-0.044-0.162l-0.952,0.146
	C711.743,180.335,711.542,179.968,711.252,179.722z"/>
<path fill="#5C7F34" d="M711.915,183.326l-0.155-0.021c-0.072,0.513-0.232,0.909-0.469,1.2c0.016-0.014,0.037-0.019,0.054-0.033
	C711.627,184.215,711.813,183.827,711.915,183.326z"/>
<path fill="#5C7F34" d="M707.752,184.954c-0.604-0.648-0.905-1.58-0.905-2.792c0-0.784,0.13-1.47,0.39-2.058
	c0.115-0.262,0.269-0.484,0.438-0.688c-0.256,0.249-0.48,0.532-0.638,0.889c-0.26,0.588-0.39,1.273-0.39,2.058
	c0,1.212,0.302,2.144,0.905,2.792c0.604,0.65,1.402,0.975,2.396,0.975c0.793,0,1.462-0.236,2.006-0.707
	c0.063-0.055,0.113-0.12,0.171-0.179c-0.539,0.454-1.197,0.686-1.977,0.686C709.154,185.929,708.356,185.604,707.752,184.954z"/>
<path fill="#FFFFFF" d="M711.96,183.105c-0.011,0.078-0.029,0.147-0.045,0.221c-0.102,0.501-0.288,0.889-0.57,1.146
	c-0.017,0.015-0.038,0.02-0.054,0.033c-0.316,0.268-0.697,0.411-1.156,0.411c-0.602,0-1.09-0.221-1.463-0.663
	c-0.374-0.442-0.561-1.15-0.561-2.126c0-0.939,0.188-1.628,0.558-2.074c0.009-0.011,0.015-0.024,0.023-0.035
	c0.387-0.443,0.891-0.666,1.511-0.666c0.41,0,0.76,0.123,1.049,0.369c0.29,0.246,0.491,0.613,0.605,1.101l0.952-0.146l0.244-0.038
	c-0.142-0.733-0.463-1.3-0.964-1.699c-0.502-0.398-1.146-0.598-1.935-0.598c-0.625,0-1.202,0.146-1.733,0.441
	c-0.294,0.162-0.537,0.381-0.748,0.634c-0.169,0.204-0.322,0.427-0.438,0.688c-0.26,0.588-0.39,1.273-0.39,2.058
	c0,1.212,0.302,2.144,0.905,2.792c0.604,0.65,1.402,0.975,2.396,0.975c0.779,0,1.438-0.231,1.977-0.686
	c0.009-0.008,0.02-0.014,0.029-0.021c0.545-0.473,0.883-1.125,1.016-1.959L711.96,183.105z"/>
<path fill="#5C7F34" d="M719.605,181.164c0-0.615-0.134-1.063-0.4-1.343c-0.267-0.281-0.644-0.421-1.131-0.421
	c-0.365,0-0.708,0.095-1.029,0.284c-0.189,0.111-0.336,0.254-0.462,0.412c0.083-0.074,0.16-0.152,0.262-0.212
	c0.321-0.189,0.664-0.284,1.029-0.284c0.487,0,0.864,0.14,1.131,0.421c0.267,0.279,0.4,0.728,0.4,1.343v4.601h1.23v-0.2h-1.03
	V181.164z"/>
<polygon fill="#5C7F34" points="714.923,175.943 714.723,175.943 714.723,185.965 715.953,185.965 715.953,185.765 714.923,185.765 
	"/>
<path fill="#FFFFFF" d="M720.579,179.537c-0.171-0.374-0.454-0.667-0.851-0.878c-0.396-0.213-0.864-0.318-1.401-0.318
	c-0.875,0-1.6,0.333-2.174,0.998v-3.596h-1.23v0.2v9.821h1.03h0.2v-3.972c0-0.569,0.068-1.017,0.205-1.34
	c0.056-0.133,0.138-0.247,0.225-0.356c0.126-0.158,0.272-0.301,0.462-0.412c0.321-0.189,0.664-0.284,1.029-0.284
	c0.487,0,0.864,0.14,1.131,0.421c0.267,0.279,0.4,0.728,0.4,1.343v4.601h1.03h0.2v-4.601
	C720.836,180.453,720.75,179.911,720.579,179.537z"/>
<path fill="none" d="M728.164,181.438c-0.069-0.508-0.211-0.904-0.438-1.174c-0.392-0.474-0.899-0.711-1.524-0.711
	c-0.518,0-0.956,0.167-1.322,0.484c-0.319,0.364-0.505,0.827-0.542,1.4H728.164z"/>
<path fill="#5C7F34" d="M726.457,185.929c-1.062,0-1.903-0.327-2.525-0.98c-0.622-0.654-0.934-1.571-0.934-2.752
	c0-1.183,0.301-2.102,0.891-2.772c-0.048,0.046-0.102,0.08-0.147,0.129c-0.629,0.675-0.943,1.622-0.943,2.844
	c0,1.181,0.312,2.098,0.934,2.752c0.622,0.653,1.464,0.98,2.525,0.98c0.844,0,1.536-0.205,2.078-0.615
	c0.157-0.119,0.296-0.256,0.425-0.403c-0.073,0.069-0.144,0.142-0.225,0.203C727.993,185.724,727.301,185.929,726.457,185.929z"/>
<path fill="#5C7F34" d="M727.727,180.264c0.227,0.27,0.368,0.666,0.438,1.174h0.228c-0.055-0.61-0.209-1.068-0.465-1.374
	c-0.392-0.474-0.899-0.711-1.524-0.711c-0.564,0-1.04,0.189-1.425,0.567c-0.037,0.036-0.064,0.079-0.098,0.117
	c0.366-0.317,0.805-0.484,1.322-0.484C726.827,179.553,727.335,179.79,727.727,180.264z"/>
<path fill="#5C7F34" d="M728.274,183.639l-0.097-0.012c-0.148,0.414-0.352,0.713-0.585,0.948c0.008-0.006,0.019-0.008,0.026-0.014
	C727.889,184.361,728.1,184.039,728.274,183.639z"/>
<path fill="#5C7F34" d="M729.487,182.449h-5.218c0.004,0.071,0.018,0.132,0.024,0.2h5.189
	C729.486,182.561,729.486,182.511,729.487,182.449z"/>
<path fill="#FFFFFF" d="M729.684,182.449c0.005-0.146,0.007-0.255,0.007-0.328c0-1.198-0.308-2.128-0.923-2.789
	s-1.408-0.991-2.379-0.991c-1.002,0-1.818,0.337-2.447,1.012c-0.021,0.021-0.033,0.05-0.053,0.071
	c-0.59,0.671-0.891,1.59-0.891,2.772c0,1.181,0.312,2.098,0.934,2.752c0.622,0.653,1.464,0.98,2.525,0.98
	c0.844,0,1.536-0.205,2.078-0.615c0.081-0.062,0.151-0.134,0.225-0.203c0.418-0.391,0.72-0.895,0.89-1.526l-1.271-0.157
	c-0.029,0.082-0.071,0.138-0.104,0.212c-0.175,0.4-0.386,0.723-0.655,0.923c-0.008,0.006-0.019,0.008-0.026,0.014
	c-0.313,0.226-0.688,0.342-1.129,0.342c-0.605,0-1.111-0.212-1.518-0.636c-0.369-0.386-0.581-0.936-0.652-1.632
	c-0.007-0.068-0.021-0.129-0.024-0.2h5.218H729.684z M728.164,181.438h-3.826c0.037-0.573,0.223-1.036,0.542-1.4
	c0.033-0.038,0.061-0.081,0.098-0.117c0.385-0.378,0.86-0.567,1.425-0.567c0.625,0,1.133,0.237,1.524,0.711
	c0.256,0.306,0.41,0.764,0.465,1.374H728.164z"/>
<path fill="#5C7F34" d="M733.774,179.854c-0.069,0.053-0.122,0.123-0.179,0.188c0.209-0.15,0.443-0.23,0.703-0.23
	c0.301,0,0.602,0.089,0.902,0.267l0.092-0.248c-0.265-0.138-0.529-0.219-0.794-0.219
	C734.23,179.612,733.989,179.693,733.774,179.854z"/>
<polygon fill="#5C7F34" points="731.881,178.705 731.681,178.705 731.681,185.965 732.911,185.965 732.911,185.765 731.881,185.765 
	"/>
<path fill="#5C7F34" d="M733.49,178.855c-0.158,0.132-0.325,0.331-0.502,0.61v0.14C733.164,179.285,733.331,179.041,733.49,178.855z
	"/>
<path fill="#FFFFFF" d="M734.561,178.341c-0.287,0-0.55,0.082-0.789,0.246c-0.09,0.062-0.185,0.157-0.281,0.269
	c-0.159,0.186-0.326,0.43-0.502,0.75v-0.14v-0.961h-1.107v0.2v7.06h1.03h0.2v-3.801c0-0.52,0.068-0.998,0.205-1.436
	c0.062-0.193,0.162-0.348,0.279-0.485c0.057-0.065,0.109-0.136,0.179-0.188c0.215-0.161,0.456-0.242,0.725-0.242
	c0.265,0,0.529,0.081,0.794,0.219c0.036,0.019,0.072,0.026,0.108,0.048l0.424-1.142
	C735.397,178.473,734.976,178.341,734.561,178.341z"/>
<path fill="none" d="M744.167,178.181c0.08,0.17,0.199,0.352,0.359,0.543l0.547,0.636c0.321-0.189,0.565-0.362,0.75-0.523
	c0.029-0.035,0.063-0.07,0.085-0.104c0.157-0.237,0.236-0.499,0.236-0.786c0-0.342-0.108-0.621-0.325-0.837
	c-0.216-0.217-0.486-0.325-0.81-0.325c-0.283,0-0.518,0.095-0.721,0.25c-0.148,0.189-0.241,0.403-0.241,0.657
	C744.048,177.847,744.088,178.009,744.167,178.181z"/>
<path fill="none" d="M744.347,181.016c-0.42,0.25-0.743,0.487-0.99,0.714c-0.057,0.064-0.114,0.128-0.156,0.189
	c-0.232,0.34-0.349,0.676-0.349,1.009c0,0.405,0.161,0.827,0.485,1.265c0.323,0.438,0.781,0.656,1.374,0.656
	c0.369,0,0.751-0.115,1.145-0.346c0.165-0.096,0.309-0.211,0.446-0.331c0.106-0.114,0.215-0.229,0.301-0.36L744.347,181.016z"/>
<path fill="#5C7F34" d="M747.575,184.582c-0.406,0.451-0.848,0.79-1.326,1.015c-0.479,0.227-0.996,0.339-1.552,0.339
	c-1.025,0-1.839-0.347-2.44-1.039c-0.488-0.565-0.731-1.196-0.731-1.894c0-0.62,0.199-1.18,0.598-1.678
	c0.06-0.074,0.133-0.145,0.201-0.217c-0.148,0.135-0.286,0.272-0.401,0.417c-0.398,0.498-0.598,1.058-0.598,1.678
	c0,0.697,0.243,1.328,0.731,1.894c0.602,0.692,1.415,1.039,2.44,1.039c0.556,0,1.073-0.112,1.552-0.339
	c0.479-0.225,0.92-0.563,1.326-1.015c0.528,0.624,1.041,1.096,1.538,1.415l0.181-0.214
	C748.604,185.664,748.097,185.198,747.575,184.582z"/>
<path fill="#5C7F34" d="M745.819,177.109c0.217,0.216,0.325,0.495,0.325,0.837c0,0.287-0.079,0.549-0.236,0.786
	c-0.021,0.033-0.056,0.068-0.085,0.104c0.122-0.107,0.223-0.209,0.285-0.304c0.157-0.237,0.236-0.499,0.236-0.786
	c0-0.342-0.108-0.621-0.325-0.837c-0.216-0.217-0.486-0.325-0.81-0.325c-0.333,0-0.609,0.107-0.831,0.321
	c-0.04,0.039-0.057,0.087-0.09,0.129c0.203-0.155,0.438-0.25,0.721-0.25C745.333,176.784,745.604,176.893,745.819,177.109z"/>
<path fill="#5C7F34" d="M743.356,181.729c0.247-0.227,0.57-0.464,0.99-0.714l2.256,2.796c-0.086,0.132-0.194,0.246-0.301,0.36
	c0.19-0.166,0.363-0.349,0.501-0.561l-2.256-2.796C744.002,181.14,743.611,181.444,743.356,181.729z"/>
<path fill="#5C7F34" d="M743.009,178.744c-0.15-0.323-0.226-0.636-0.226-0.937c0-0.539,0.199-1.011,0.578-1.423
	c-0.023,0.02-0.049,0.034-0.071,0.055c-0.472,0.443-0.707,0.967-0.707,1.568c0,0.301,0.075,0.613,0.226,0.937
	c0.144,0.308,0.433,0.712,0.85,1.198c0.085-0.044,0.163-0.091,0.253-0.134C743.46,179.489,743.159,179.067,743.009,178.744z"/>
<path fill="#5C7F34" d="M747.922,181.277l-0.137-0.029c-0.088,0.408-0.212,0.766-0.354,1.098l0.075,0.097
	C747.681,182.103,747.813,181.708,747.922,181.277z"/>
<path fill="#5C7F34" d="M745.754,180.209c0.415-0.245,0.752-0.507,1.01-0.787c-0.282,0.259-0.63,0.503-1.055,0.73L745.754,180.209z"
	/>
<path fill="#FFFFFF" d="M748.375,183.481c0.373-0.565,0.67-1.285,0.889-2.16l-1.278-0.273c-0.018,0.081-0.044,0.151-0.063,0.229
	c-0.108,0.431-0.241,0.825-0.415,1.165l-0.075-0.097l-1.678-2.137l-0.045-0.057c0.425-0.228,0.772-0.472,1.055-0.73
	c0.555-0.51,0.839-1.078,0.839-1.71c0-0.588-0.218-1.092-0.653-1.511c-0.435-0.419-0.994-0.629-1.678-0.629
	c-0.716,0-1.31,0.222-1.781,0.667c-0.049,0.046-0.085,0.097-0.129,0.146c-0.379,0.412-0.578,0.884-0.578,1.423
	c0,0.301,0.075,0.613,0.226,0.937s0.451,0.745,0.902,1.265c-0.09,0.043-0.168,0.09-0.253,0.134c-0.552,0.289-0.997,0.61-1.334,0.966
	c-0.068,0.072-0.142,0.143-0.201,0.217c-0.398,0.498-0.598,1.058-0.598,1.678c0,0.697,0.243,1.328,0.731,1.894
	c0.602,0.692,1.415,1.039,2.44,1.039c0.556,0,1.073-0.112,1.552-0.339c0.479-0.225,0.92-0.563,1.326-1.015
	c0.521,0.616,1.028,1.082,1.519,1.401c0.007,0.004,0.014,0.01,0.02,0.014l0.827-0.978
	C749.356,184.604,748.835,184.092,748.375,183.481z M746.108,178.532c-0.063,0.095-0.163,0.196-0.285,0.304
	c-0.185,0.161-0.429,0.334-0.75,0.523l-0.547-0.636c-0.16-0.191-0.279-0.373-0.359-0.543c-0.079-0.172-0.119-0.334-0.119-0.489
	c0-0.254,0.093-0.468,0.241-0.657c0.033-0.042,0.05-0.09,0.09-0.129c0.222-0.214,0.498-0.321,0.831-0.321
	c0.323,0,0.594,0.108,0.81,0.325c0.217,0.216,0.325,0.495,0.325,0.837C746.345,178.033,746.266,178.295,746.108,178.532z
	 M746.302,184.172c-0.138,0.12-0.281,0.235-0.446,0.331c-0.394,0.23-0.775,0.346-1.145,0.346c-0.593,0-1.051-0.219-1.374-0.656
	c-0.324-0.438-0.485-0.859-0.485-1.265c0-0.333,0.116-0.669,0.349-1.009c0.042-0.062,0.1-0.125,0.156-0.189
	c0.255-0.285,0.646-0.59,1.19-0.914l2.256,2.796C746.665,183.823,746.492,184.006,746.302,184.172z"/>
<path fill="#5C7F34" d="M762.879,183.044c0-0.314-0.091-0.589-0.273-0.824c-0.182-0.234-0.482-0.432-0.902-0.591
	c-0.269-0.104-0.863-0.268-1.784-0.489c-0.92-0.221-1.565-0.429-1.935-0.625c-0.479-0.251-0.835-0.562-1.069-0.934
	c-0.235-0.371-0.353-0.787-0.353-1.247c0-0.506,0.144-0.979,0.431-1.419c0.1-0.152,0.235-0.274,0.366-0.401
	c-0.224,0.173-0.416,0.371-0.566,0.602c-0.287,0.44-0.431,0.913-0.431,1.419c0,0.46,0.117,0.876,0.353,1.247
	c0.234,0.372,0.591,0.683,1.069,0.934c0.369,0.196,1.015,0.404,1.935,0.625c0.921,0.222,1.516,0.385,1.784,0.489
	c0.42,0.159,0.721,0.356,0.902,0.591c0.183,0.235,0.273,0.51,0.273,0.824c0,0.307-0.095,0.59-0.279,0.85
	c0.066-0.063,0.145-0.12,0.196-0.192C762.784,183.64,762.879,183.354,762.879,183.044z"/>
<path fill="#5C7F34" d="M760.452,185.936c-0.906,0-1.667-0.132-2.279-0.396c-0.613-0.265-1.094-0.662-1.442-1.192
	c-0.316-0.482-0.489-1.024-0.534-1.62l-0.217,0.019c0.019,0.67,0.202,1.271,0.551,1.802c0.349,0.53,0.829,0.928,1.442,1.192
	c0.612,0.265,1.373,0.396,2.279,0.396c0.716,0,1.359-0.131,1.932-0.394c0.362-0.166,0.652-0.39,0.908-0.641
	c-0.209,0.168-0.441,0.318-0.708,0.44C761.812,185.805,761.168,185.936,760.452,185.936z"/>
<path fill="#5C7F34" d="M761.892,177.227c-0.395-0.323-0.977-0.485-1.747-0.485c-0.802,0-1.387,0.146-1.753,0.441
	c-0.101,0.08-0.184,0.165-0.257,0.254c0.021-0.018,0.035-0.036,0.057-0.054c0.366-0.295,0.951-0.441,1.753-0.441
	c0.771,0,1.353,0.162,1.747,0.485c0.394,0.323,0.625,0.802,0.693,1.436l1.271-0.096c-0.002-0.064-0.024-0.12-0.03-0.183
	l-1.041,0.078C762.517,178.028,762.285,177.55,761.892,177.227z"/>
<path fill="#FFFFFF" d="M763.74,181.509c-0.277-0.412-0.708-0.753-1.292-1.021c-0.4-0.183-1.141-0.396-2.218-0.639
	c-1.078-0.244-1.744-0.482-2-0.715c-0.26-0.232-0.39-0.528-0.39-0.889c0-0.302,0.1-0.571,0.294-0.809
	c0.073-0.089,0.156-0.174,0.257-0.254c0.366-0.295,0.951-0.441,1.753-0.441c0.771,0,1.353,0.162,1.747,0.485
	c0.394,0.323,0.625,0.802,0.693,1.436l1.041-0.078l0.23-0.018c-0.022-0.588-0.187-1.114-0.492-1.579
	c-0.305-0.465-0.741-0.816-1.309-1.057c-0.567-0.238-1.223-0.358-1.966-0.358c-0.674,0-1.287,0.114-1.839,0.342
	c-0.36,0.148-0.644,0.36-0.892,0.6c-0.131,0.127-0.267,0.249-0.366,0.401c-0.287,0.44-0.431,0.913-0.431,1.419
	c0,0.46,0.117,0.876,0.353,1.247c0.234,0.372,0.591,0.683,1.069,0.934c0.369,0.196,1.015,0.404,1.935,0.625
	c0.921,0.222,1.516,0.385,1.784,0.489c0.42,0.159,0.721,0.356,0.902,0.591c0.183,0.235,0.273,0.51,0.273,0.824
	c0,0.31-0.095,0.596-0.283,0.857c-0.052,0.072-0.13,0.129-0.196,0.192c-0.177,0.169-0.388,0.317-0.669,0.427
	c-0.387,0.15-0.834,0.226-1.34,0.226c-0.569,0-1.082-0.099-1.538-0.298c-0.455-0.197-0.792-0.457-1.008-0.779
	c-0.217-0.32-0.354-0.732-0.414-1.233l-1.251,0.109c0.002,0.063,0.012,0.12,0.017,0.182c0.045,0.596,0.218,1.138,0.534,1.62
	c0.349,0.53,0.829,0.928,1.442,1.192c0.612,0.265,1.373,0.396,2.279,0.396c0.716,0,1.359-0.131,1.932-0.394
	c0.267-0.122,0.499-0.272,0.708-0.44c0.238-0.191,0.445-0.408,0.607-0.659c0.306-0.473,0.458-0.975,0.458-1.508
	C764.157,182.396,764.019,181.922,763.74,181.509z"/>
<rect x="767.961" y="179.462" fill="#5C7F34" width="1.037" height="0.2"/>
<polygon fill="#5C7F34" points="766.737,176.786 766.537,176.907 766.537,178.505 766.737,178.505 "/>
<path fill="#5C7F34" d="M768.446,185.86c-0.446,0-0.793-0.07-1.039-0.212s-0.419-0.327-0.52-0.558c-0.1-0.229-0.15-0.714-0.15-1.452
	v-4.177h-0.902v-0.757h-0.2v0.957h0.902v4.177c0,0.738,0.051,1.223,0.15,1.452c0.101,0.23,0.273,0.416,0.52,0.558
	s0.593,0.212,1.039,0.212c0.273,0,0.584-0.036,0.93-0.109l-0.028-0.173C768.9,185.819,768.652,185.86,768.446,185.86z"/>
<path fill="#FFFFFF" d="M769.198,184.664c-0.223,0.032-0.403,0.048-0.54,0.048c-0.182,0-0.322-0.029-0.42-0.089
	c-0.099-0.06-0.169-0.139-0.212-0.239c-0.044-0.101-0.065-0.326-0.065-0.677v-4.045v-0.2h1.037h0.2v-0.957h-1.237v-2.536
	l-1.224,0.738v0.079v1.719h-0.2h-0.702v0.2v0.757h0.902v4.177c0,0.738,0.051,1.223,0.15,1.452c0.101,0.23,0.273,0.416,0.52,0.558
	s0.593,0.212,1.039,0.212c0.206,0,0.454-0.041,0.701-0.082c0.081-0.014,0.144-0.01,0.229-0.027L769.198,184.664z"/>
<path fill="#5C7F34" d="M772.355,185.683c-0.371-0.164-0.646-0.37-0.827-0.619c-0.18-0.248-0.307-0.552-0.379-0.912
	c-0.051-0.241-0.075-0.624-0.075-1.148v-4.298h-0.2v4.498c0,0.524,0.024,0.907,0.075,1.148c0.072,0.36,0.199,0.664,0.379,0.912
	c0.181,0.249,0.456,0.455,0.827,0.619c0.372,0.164,0.771,0.246,1.2,0.246c0.795,0,1.445-0.29,1.969-0.84
	c-0.487,0.42-1.074,0.64-1.769,0.64C773.127,185.929,772.728,185.847,772.355,185.683z"/>
<path fill="#5C7F34" d="M775.859,184.698c-0.062,0.089-0.135,0.154-0.2,0.233v1.033h1.101v-0.2h-0.9V184.698z"/>
<path fill="#5C7F34" d="M775.527,183.813c0.135-0.326,0.202-0.799,0.202-1.419v-3.689h-0.2v3.89c0,0.62-0.067,1.093-0.202,1.419
	c-0.055,0.134-0.137,0.249-0.224,0.359C775.283,184.215,775.436,184.035,775.527,183.813z"/>
<path fill="#FFFFFF" d="M775.324,185.289c0.119-0.104,0.228-0.229,0.335-0.357v-0.033
	C775.557,185.047,775.439,185.167,775.324,185.289z"/>
<path fill="#FFFFFF" d="M775.729,178.505v0.2v3.689c0,0.62-0.067,1.093-0.202,1.419c-0.092,0.222-0.244,0.401-0.424,0.56
	c-0.084,0.073-0.16,0.152-0.263,0.212c-0.324,0.189-0.67,0.284-1.039,0.284s-0.68-0.093-0.93-0.276
	c-0.251-0.186-0.415-0.439-0.492-0.763c-0.051-0.224-0.075-0.656-0.075-1.299v-4.026h-1.23v0.2v4.298
	c0,0.524,0.024,0.907,0.075,1.148c0.072,0.36,0.199,0.664,0.379,0.912c0.181,0.249,0.456,0.455,0.827,0.619
	c0.372,0.164,0.771,0.246,1.2,0.246c0.694,0,1.281-0.22,1.769-0.64c0.115-0.122,0.232-0.242,0.335-0.391v0.033
	c0.065-0.079,0.139-0.145,0.2-0.233v1.066h0.9h0.2v-7.26H775.729z"/>
<path fill="none" d="M783.544,180.257c-0.383-0.465-0.854-0.697-1.415-0.697c-0.409,0-0.769,0.126-1.077,0.376
	c-0.03,0.033-0.064,0.059-0.094,0.094c-0.366,0.446-0.55,1.15-0.55,2.112c0,0.93,0.195,1.625,0.588,2.085
	c0.392,0.46,0.854,0.69,1.388,0.69c0.451,0,0.843-0.165,1.181-0.476c0.367-0.439,0.554-1.104,0.554-1.997
	C784.118,181.451,783.927,180.722,783.544,180.257z"/>
<path fill="#5C7F34" d="M784.298,184.849c-0.06,0.093-0.134,0.164-0.2,0.245v0.871h1.142v-0.2h-0.941V184.849z"/>
<path fill="#5C7F34" d="M784.216,175.943h-0.2v3.178c0.067,0.071,0.142,0.138,0.2,0.218V175.943z"/>
<path fill="#5C7F34" d="M780.671,185.45c-0.485-0.319-0.861-0.765-1.128-1.336c-0.267-0.572-0.399-1.229-0.399-1.973
	c0-0.725,0.12-1.382,0.362-1.973c0.114-0.28,0.261-0.524,0.43-0.742c-0.254,0.265-0.476,0.565-0.63,0.942
	c-0.242,0.591-0.362,1.248-0.362,1.973c0,0.743,0.133,1.4,0.399,1.973c0.267,0.571,0.643,1.017,1.128,1.336s1.018,0.479,1.597,0.479
	c0.733,0,1.313-0.257,1.755-0.743c-0.414,0.354-0.928,0.543-1.555,0.543C781.688,185.929,781.156,185.77,780.671,185.45z"/>
<path fill="#5C7F34" d="M783.744,180.057c-0.383-0.465-0.854-0.697-1.415-0.697c-0.503,0-0.927,0.198-1.277,0.576
	c0.309-0.25,0.668-0.376,1.077-0.376c0.561,0,1.032,0.232,1.415,0.697s0.574,1.194,0.574,2.188c0,0.893-0.187,1.558-0.554,1.997
	c0.063-0.059,0.129-0.114,0.189-0.185c0.376-0.439,0.564-1.11,0.564-2.013C784.318,181.251,784.127,180.521,783.744,180.057z"/>
<path fill="#FFFFFF" d="M783.822,185.386c0.1-0.085,0.188-0.187,0.275-0.292v-0.045C784.016,185.177,783.918,185.28,783.822,185.386
	z"/>
<path fill="#FFFFFF" d="M784.216,175.743v0.2v3.396c-0.059-0.08-0.133-0.146-0.2-0.218c-0.182-0.194-0.385-0.369-0.634-0.503
	c-0.342-0.186-0.731-0.277-1.169-0.277c-0.598,0-1.138,0.157-1.62,0.472c-0.254,0.165-0.47,0.373-0.657,0.614
	c-0.169,0.218-0.315,0.462-0.43,0.742c-0.242,0.591-0.362,1.248-0.362,1.973c0,0.743,0.133,1.4,0.399,1.973
	c0.267,0.571,0.643,1.017,1.128,1.336s1.018,0.479,1.597,0.479c0.627,0,1.141-0.188,1.555-0.543
	c0.096-0.105,0.193-0.209,0.275-0.337v0.045c0.066-0.081,0.141-0.152,0.2-0.245v0.916h0.941h0.2v-10.021H784.216z M783.754,184.257
	c-0.061,0.07-0.126,0.126-0.189,0.185c-0.338,0.311-0.729,0.476-1.181,0.476c-0.533,0-0.996-0.23-1.388-0.69
	c-0.393-0.46-0.588-1.155-0.588-2.085c0-0.962,0.184-1.666,0.55-2.112c0.029-0.035,0.063-0.061,0.094-0.094
	c0.351-0.378,0.774-0.576,1.277-0.576c0.561,0,1.032,0.232,1.415,0.697s0.574,1.194,0.574,2.188
	C784.318,183.146,784.13,183.817,783.754,184.257z"/>
<path fill="none" d="M792.829,181.438c-0.068-0.508-0.212-0.904-0.437-1.174c-0.393-0.474-0.9-0.711-1.524-0.711
	c-0.519,0-0.956,0.167-1.323,0.484c-0.318,0.363-0.504,0.827-0.541,1.4H792.829z"/>
<path fill="#5C7F34" d="M792.939,183.639l-0.096-0.012c-0.149,0.414-0.353,0.714-0.586,0.948c0.009-0.006,0.02-0.008,0.027-0.014
	C792.554,184.361,792.765,184.039,792.939,183.639z"/>
<path fill="#5C7F34" d="M792.393,180.264c0.225,0.27,0.368,0.666,0.437,1.174h0.229c-0.055-0.61-0.21-1.068-0.465-1.374
	c-0.393-0.474-0.9-0.711-1.524-0.711c-0.565,0-1.04,0.189-1.426,0.567c-0.037,0.036-0.064,0.079-0.098,0.117
	c0.367-0.317,0.805-0.484,1.323-0.484C791.492,179.553,792,179.79,792.393,180.264z"/>
<path fill="#5C7F34" d="M791.123,185.929c-1.063,0-1.904-0.327-2.526-0.98c-0.622-0.654-0.933-1.571-0.933-2.752
	c0-1.183,0.301-2.103,0.891-2.772c-0.048,0.046-0.102,0.08-0.147,0.129c-0.629,0.675-0.943,1.622-0.943,2.844
	c0,1.181,0.311,2.098,0.933,2.752c0.622,0.653,1.464,0.98,2.526,0.98c0.843,0,1.535-0.205,2.078-0.615
	c0.157-0.119,0.296-0.256,0.424-0.402c-0.073,0.068-0.143,0.141-0.224,0.202C792.658,185.724,791.966,185.929,791.123,185.929z"/>
<path fill="#5C7F34" d="M794.153,182.449h-5.218c0.004,0.071,0.018,0.132,0.023,0.2h5.19
	C794.152,182.561,794.152,182.511,794.153,182.449z"/>
<path fill="#FFFFFF" d="M794.35,182.449c0.004-0.146,0.007-0.255,0.007-0.328c0-1.198-0.308-2.128-0.923-2.789
	s-1.408-0.991-2.379-0.991c-1.003,0-1.818,0.337-2.447,1.012c-0.021,0.021-0.033,0.05-0.053,0.071
	c-0.59,0.67-0.891,1.59-0.891,2.772c0,1.181,0.311,2.098,0.933,2.752c0.622,0.653,1.464,0.98,2.526,0.98
	c0.843,0,1.535-0.205,2.078-0.615c0.081-0.062,0.15-0.134,0.224-0.202c0.418-0.392,0.72-0.896,0.891-1.527l-1.271-0.157
	c-0.029,0.082-0.071,0.138-0.104,0.212c-0.175,0.4-0.386,0.723-0.654,0.923c-0.008,0.006-0.019,0.008-0.027,0.014
	c-0.314,0.226-0.688,0.342-1.128,0.342c-0.606,0-1.112-0.212-1.518-0.636c-0.37-0.386-0.583-0.936-0.653-1.632
	c-0.006-0.068-0.02-0.129-0.023-0.2h5.218H794.35z M792.829,181.438h-3.825c0.037-0.573,0.223-1.037,0.541-1.4
	c0.033-0.038,0.061-0.081,0.098-0.117c0.386-0.378,0.86-0.567,1.426-0.567c0.624,0,1.132,0.237,1.524,0.711
	c0.255,0.306,0.41,0.764,0.465,1.374H792.829z"/>
<path fill="#5C7F34" d="M801.229,181.349c0-0.501-0.048-0.876-0.144-1.125c-0.096-0.248-0.266-0.446-0.509-0.594
	c-0.244-0.148-0.53-0.223-0.858-0.223c-0.523,0-0.977,0.166-1.356,0.499c-0.042,0.036-0.072,0.09-0.109,0.134
	c0.361-0.284,0.782-0.433,1.266-0.433c0.328,0,0.614,0.074,0.858,0.223c0.243,0.147,0.413,0.346,0.509,0.594
	c0.096,0.249,0.144,0.624,0.144,1.125v4.416h1.23v-0.2h-1.03V181.349z"/>
<polygon fill="#5C7F34" points="796.56,178.705 796.359,178.705 796.359,185.965 797.59,185.965 797.59,185.765 796.56,185.765 "/>
<path fill="#5C7F34" d="M797.986,179.161c-0.115,0.099-0.219,0.218-0.319,0.341v0.035
	C797.763,179.394,797.875,179.279,797.986,179.161z"/>
<path fill="#FFFFFF" d="M802.391,180.104c-0.072-0.351-0.2-0.654-0.383-0.909c-0.182-0.255-0.457-0.462-0.823-0.618
	c-0.367-0.158-0.77-0.236-1.207-0.236c-0.826,0-1.484,0.283-1.991,0.82c-0.111,0.118-0.224,0.232-0.319,0.376v-0.035v-0.997h-1.107
	v0.2v7.06h1.03h0.2V181.8c0-0.828,0.16-1.405,0.462-1.76c0.037-0.044,0.067-0.098,0.109-0.134c0.38-0.333,0.833-0.499,1.356-0.499
	c0.328,0,0.614,0.074,0.858,0.223c0.243,0.147,0.413,0.346,0.509,0.594c0.096,0.249,0.144,0.624,0.144,1.125v4.416h1.03h0.2v-4.464
	C802.459,180.731,802.437,180.332,802.391,180.104z"/>
<rect x="806.495" y="179.462" fill="#5C7F34" width="1.037" height="0.2"/>
<path fill="#5C7F34" d="M806.98,185.86c-0.446,0-0.793-0.07-1.039-0.212s-0.419-0.327-0.52-0.558c-0.1-0.229-0.15-0.714-0.15-1.452
	v-4.177h-0.902v-0.757h-0.2v0.957h0.902v4.177c0,0.738,0.051,1.223,0.15,1.452c0.101,0.23,0.273,0.416,0.52,0.558
	s0.593,0.212,1.039,0.212c0.273,0,0.584-0.036,0.93-0.109l-0.028-0.173C807.434,185.819,807.187,185.86,806.98,185.86z"/>
<polygon fill="#5C7F34" points="805.271,176.786 805.071,176.907 805.071,178.505 805.271,178.505 "/>
<path fill="#FFFFFF" d="M807.732,184.664c-0.223,0.032-0.403,0.048-0.54,0.048c-0.182,0-0.322-0.029-0.42-0.089
	c-0.099-0.06-0.169-0.139-0.212-0.239c-0.044-0.101-0.065-0.326-0.065-0.677v-4.045v-0.2h1.037h0.2v-0.957h-1.237v-2.536
	l-1.224,0.738v0.079v1.719h-0.2h-0.702v0.2v0.757h0.902v4.177c0,0.738,0.051,1.223,0.15,1.452c0.101,0.23,0.273,0.416,0.52,0.558
	s0.593,0.212,1.039,0.212c0.206,0,0.453-0.041,0.701-0.082c0.081-0.014,0.144-0.01,0.229-0.027L807.732,184.664z"/>
<path fill="#406531" d="M711.626,197.005l1.072-0.094c0.051,0.43,0.169,0.782,0.354,1.058s0.474,0.498,0.864,0.668
	s0.83,0.255,1.318,0.255c0.434,0,0.816-0.064,1.148-0.193s0.579-0.306,0.741-0.53s0.243-0.47,0.243-0.735
	c0-0.27-0.078-0.505-0.234-0.706s-0.414-0.37-0.773-0.507c-0.23-0.09-0.74-0.229-1.529-0.419s-1.342-0.368-1.658-0.536
	c-0.41-0.215-0.716-0.481-0.917-0.8s-0.302-0.675-0.302-1.069c0-0.434,0.123-0.839,0.369-1.216s0.605-0.663,1.078-0.858
	s0.998-0.293,1.576-0.293c0.637,0,1.198,0.103,1.685,0.308s0.86,0.507,1.122,0.905s0.402,0.85,0.422,1.354l-1.09,0.082
	c-0.059-0.543-0.257-0.953-0.595-1.23s-0.837-0.416-1.497-0.416c-0.688,0-1.188,0.126-1.503,0.378s-0.472,0.556-0.472,0.911
	c0,0.309,0.111,0.563,0.334,0.762c0.219,0.199,0.79,0.403,1.714,0.612s1.558,0.392,1.901,0.548c0.5,0.23,0.869,0.522,1.107,0.876
	s0.357,0.761,0.357,1.222c0,0.457-0.131,0.888-0.393,1.292s-0.638,0.719-1.128,0.943s-1.042,0.337-1.655,0.337
	c-0.777,0-1.429-0.113-1.954-0.34s-0.938-0.567-1.236-1.022S711.642,197.579,711.626,197.005z"/>
<path fill="#406531" d="M724.742,197.761l1.09,0.135c-0.172,0.637-0.49,1.131-0.955,1.482s-1.059,0.527-1.781,0.527
	c-0.91,0-1.632-0.28-2.165-0.841s-0.8-1.347-0.8-2.358c0-1.047,0.27-1.859,0.809-2.438s1.238-0.867,2.098-0.867
	c0.832,0,1.512,0.283,2.039,0.85s0.791,1.363,0.791,2.391c0,0.063-0.002,0.156-0.006,0.281h-4.641
	c0.039,0.684,0.232,1.207,0.58,1.57s0.781,0.545,1.301,0.545c0.387,0,0.717-0.102,0.99-0.305S724.582,198.206,724.742,197.761z
	 M721.279,196.056h3.475c-0.047-0.523-0.18-0.916-0.398-1.178c-0.336-0.406-0.771-0.609-1.307-0.609
	c-0.484,0-0.892,0.162-1.222,0.486S721.314,195.513,721.279,196.056z"/>
<path fill="#406531" d="M727.744,199.765v-6.223h0.949v0.943c0.242-0.441,0.466-0.732,0.671-0.873s0.431-0.211,0.677-0.211
	c0.355,0,0.717,0.113,1.084,0.34l-0.363,0.979c-0.258-0.152-0.516-0.229-0.773-0.229c-0.23,0-0.438,0.069-0.621,0.208
	s-0.314,0.331-0.393,0.577c-0.117,0.375-0.176,0.785-0.176,1.23v3.258H727.744z"/>
<path fill="#406531" d="M734.08,199.765l-2.367-6.223h1.113l1.336,3.727c0.145,0.402,0.277,0.82,0.398,1.254
	c0.094-0.328,0.225-0.723,0.393-1.184l1.383-3.797h1.084l-2.355,6.223H734.08z"/>
<path fill="#406531" d="M738.958,192.388v-1.213h1.055v1.213H738.958z M738.958,199.765v-6.223h1.055v6.223H738.958z"/>
<path fill="#406531" d="M746.278,197.485l1.037,0.135c-0.113,0.715-0.403,1.274-0.87,1.679s-1.04,0.606-1.72,0.606
	c-0.852,0-1.536-0.278-2.054-0.835s-0.776-1.354-0.776-2.394c0-0.672,0.111-1.26,0.334-1.764s0.562-0.882,1.017-1.134
	s0.95-0.378,1.485-0.378c0.676,0,1.229,0.171,1.658,0.513s0.705,0.827,0.826,1.456l-1.025,0.158
	c-0.098-0.418-0.271-0.732-0.519-0.943s-0.548-0.316-0.899-0.316c-0.531,0-0.963,0.19-1.295,0.571s-0.498,0.983-0.498,1.808
	c0,0.836,0.16,1.443,0.48,1.822s0.738,0.568,1.254,0.568c0.414,0,0.76-0.127,1.037-0.381S746.204,198.013,746.278,197.485z"/>
<path fill="#406531" d="M753.078,197.761l1.09,0.135c-0.172,0.637-0.49,1.131-0.955,1.482s-1.059,0.527-1.781,0.527
	c-0.91,0-1.632-0.28-2.165-0.841s-0.8-1.347-0.8-2.358c0-1.047,0.27-1.859,0.809-2.438s1.238-0.867,2.098-0.867
	c0.832,0,1.512,0.283,2.039,0.85s0.791,1.363,0.791,2.391c0,0.063-0.002,0.156-0.006,0.281h-4.641
	c0.039,0.684,0.232,1.207,0.58,1.57s0.781,0.545,1.301,0.545c0.387,0,0.717-0.102,0.99-0.305S752.918,198.206,753.078,197.761z
	 M749.615,196.056h3.475c-0.047-0.523-0.18-0.916-0.398-1.178c-0.336-0.406-0.771-0.609-1.307-0.609
	c-0.484,0-0.892,0.162-1.222,0.486S749.65,195.513,749.615,196.056z"/>
<path fill="#406531" d="M760.16,199.765v-8.59h3.24c0.57,0,1.006,0.027,1.307,0.082c0.422,0.07,0.775,0.204,1.061,0.401
	s0.515,0.474,0.688,0.829s0.261,0.746,0.261,1.172c0,0.73-0.232,1.349-0.697,1.854s-1.305,0.759-2.52,0.759h-2.203v3.492H760.16z
	 M761.297,195.259h2.221c0.734,0,1.256-0.137,1.564-0.41s0.463-0.658,0.463-1.154c0-0.359-0.091-0.667-0.272-0.923
	s-0.421-0.425-0.718-0.507c-0.191-0.051-0.545-0.076-1.061-0.076h-2.197V195.259z"/>
<path fill="#406531" d="M768.606,199.765v-8.59h1.055v8.59H768.606z"/>
<path fill="#406531" d="M775.956,198.997c-0.391,0.332-0.767,0.566-1.128,0.703s-0.749,0.205-1.163,0.205
	c-0.684,0-1.209-0.167-1.576-0.501s-0.551-0.761-0.551-1.28c0-0.305,0.069-0.583,0.208-0.835s0.32-0.454,0.545-0.606
	s0.478-0.268,0.759-0.346c0.207-0.055,0.52-0.107,0.938-0.158c0.852-0.102,1.479-0.223,1.881-0.363
	c0.004-0.145,0.006-0.236,0.006-0.275c0-0.43-0.1-0.732-0.299-0.908c-0.27-0.238-0.67-0.357-1.201-0.357
	c-0.496,0-0.862,0.087-1.099,0.261s-0.411,0.481-0.524,0.923l-1.031-0.141c0.094-0.441,0.248-0.798,0.463-1.069
	s0.525-0.48,0.932-0.627s0.877-0.22,1.412-0.22c0.531,0,0.963,0.063,1.295,0.188s0.576,0.282,0.732,0.472s0.266,0.429,0.328,0.718
	c0.035,0.18,0.053,0.504,0.053,0.973v1.406c0,0.98,0.022,1.601,0.067,1.86s0.134,0.509,0.267,0.747h-1.102
	C776.058,199.546,775.987,199.29,775.956,198.997z M775.868,196.642c-0.383,0.156-0.957,0.289-1.723,0.398
	c-0.434,0.063-0.74,0.133-0.92,0.211s-0.318,0.192-0.416,0.343s-0.146,0.317-0.146,0.501c0,0.281,0.106,0.516,0.319,0.703
	s0.524,0.281,0.935,0.281c0.406,0,0.768-0.089,1.084-0.267s0.549-0.421,0.697-0.729c0.113-0.238,0.17-0.59,0.17-1.055V196.642z"/>
<path fill="#406531" d="M781.473,198.821l0.152,0.932c-0.297,0.063-0.563,0.094-0.797,0.094c-0.383,0-0.68-0.061-0.891-0.182
	s-0.359-0.28-0.445-0.478s-0.129-0.612-0.129-1.245v-3.58h-0.773v-0.82h0.773v-1.541l1.049-0.633v2.174h1.061v0.82h-1.061v3.639
	c0,0.301,0.019,0.494,0.056,0.58s0.098,0.154,0.182,0.205s0.204,0.076,0.36,0.076C781.127,198.862,781.281,198.849,781.473,198.821z
	"/>
<path fill="#406531" d="M783.355,199.765v-5.402h-0.932v-0.82h0.932v-0.662c0-0.418,0.037-0.729,0.111-0.932
	c0.102-0.273,0.28-0.495,0.536-0.665s0.614-0.255,1.075-0.255c0.297,0,0.625,0.035,0.984,0.105l-0.158,0.92
	c-0.219-0.039-0.426-0.059-0.621-0.059c-0.32,0-0.547,0.068-0.68,0.205s-0.199,0.393-0.199,0.768v0.574h1.213v0.82h-1.213v5.402
	H783.355z"/>
<path fill="#406531" d="M786.645,196.653c0-1.152,0.32-2.006,0.961-2.561c0.535-0.461,1.188-0.691,1.957-0.691
	c0.855,0,1.555,0.28,2.098,0.841s0.814,1.335,0.814,2.323c0,0.801-0.12,1.431-0.36,1.89s-0.59,0.815-1.049,1.069
	s-0.96,0.381-1.503,0.381c-0.871,0-1.575-0.279-2.112-0.838S786.645,197.704,786.645,196.653z M787.729,196.653
	c0,0.797,0.174,1.394,0.521,1.79s0.785,0.595,1.313,0.595c0.523,0,0.959-0.199,1.307-0.598s0.521-1.006,0.521-1.822
	c0-0.77-0.175-1.353-0.524-1.749s-0.784-0.595-1.304-0.595c-0.527,0-0.965,0.197-1.313,0.592S787.729,195.856,787.729,196.653z"/>
<path fill="#406531" d="M794.3,199.765v-6.223h0.949v0.943c0.242-0.441,0.466-0.732,0.671-0.873s0.431-0.211,0.677-0.211
	c0.355,0,0.717,0.113,1.084,0.34l-0.363,0.979c-0.258-0.152-0.516-0.229-0.773-0.229c-0.23,0-0.438,0.069-0.621,0.208
	s-0.314,0.331-0.393,0.577c-0.117,0.375-0.176,0.785-0.176,1.23v3.258H794.3z"/>
<path fill="#406531" d="M798.907,199.765v-6.223h0.943v0.873c0.195-0.305,0.455-0.55,0.779-0.735s0.693-0.278,1.107-0.278
	c0.461,0,0.839,0.096,1.134,0.287s0.503,0.459,0.624,0.803c0.492-0.727,1.133-1.09,1.922-1.09c0.617,0,1.092,0.171,1.424,0.513
	s0.498,0.868,0.498,1.579v4.271h-1.049v-3.92c0-0.422-0.034-0.726-0.103-0.911s-0.192-0.335-0.372-0.448s-0.391-0.17-0.633-0.17
	c-0.438,0-0.801,0.146-1.09,0.437s-0.434,0.757-0.434,1.397v3.615h-1.055v-4.043c0-0.469-0.086-0.82-0.258-1.055
	s-0.453-0.352-0.844-0.352c-0.297,0-0.571,0.078-0.823,0.234s-0.435,0.385-0.548,0.686s-0.17,0.734-0.17,1.301v3.229H798.907z"/>
<polygon fill="#5C7F34" points="818.622,180.39 827.877,180.39 827.877,180.189 818.662,180.189 "/>
<path fill="#5C7F34" d="M826.114,192.953c0-1.652-0.465-2.956-1.393-3.911c-0.929-0.955-2.144-1.433-3.646-1.433
	c-0.934,0-1.776,0.212-2.527,0.636c-0.444,0.251-0.825,0.551-1.156,0.89c0.283-0.257,0.6-0.488,0.956-0.689
	c0.751-0.424,1.594-0.636,2.527-0.636c1.502,0,2.717,0.478,3.646,1.433c0.928,0.955,1.393,2.259,1.393,3.911
	c0,1.708-0.473,3.08-1.405,4.125c0.051-0.051,0.106-0.087,0.156-0.141C825.631,196.086,826.114,194.691,826.114,192.953z"/>
<path fill="#5C7F34" d="M816.307,177.621h-0.162l-2.286,12.12l2.721,0.354c0.046-0.072,0.101-0.138,0.15-0.207l-2.671-0.347
	L816.307,177.621z"/>
<path fill="#5C7F34" d="M815.869,199.294c-1.314-1.163-2.069-2.702-2.293-4.6l-0.232,0.02c0.193,1.985,0.968,3.579,2.325,4.78
	c1.357,1.202,3.109,1.803,5.255,1.803c2.338,0,4.232-0.768,5.689-2.29c-1.43,1.389-3.257,2.09-5.489,2.09
	C818.979,201.097,817.227,200.496,815.869,199.294z"/>
<path fill="#FFFFFF" d="M816.729,189.888l0.05,0.007c0.175-0.276,0.384-0.525,0.613-0.76
	C817.142,189.363,816.924,189.616,816.729,189.888z"/>
<path fill="#FFFFFF" d="M827.063,187.19c-1.416-1.427-3.154-2.141-5.215-2.141c-1.556,0-3.042,0.494-4.458,1.481l1.231-6.142
	l0.04-0.2h9.215h0.2v-2.769h-11.732l-0.038,0.2l-2.248,11.92l2.671,0.347c0.194-0.271,0.412-0.524,0.663-0.753
	c0.331-0.339,0.712-0.639,1.156-0.89c0.751-0.424,1.594-0.636,2.527-0.636c1.502,0,2.717,0.478,3.646,1.433
	c0.928,0.955,1.393,2.259,1.393,3.911c0,1.738-0.483,3.133-1.449,4.185c-0.05,0.054-0.105,0.09-0.156,0.141
	c-0.938,0.947-2.061,1.437-3.385,1.437c-1.158,0-2.148-0.373-2.969-1.119c-0.821-0.745-1.344-1.858-1.569-3.339l-3.042,0.257
	c0.006,0.063,0.025,0.118,0.032,0.181c0.224,1.897,0.979,3.437,2.293,4.6c1.357,1.202,3.109,1.803,5.255,1.803
	c2.232,0,4.06-0.701,5.489-2.09c0.246-0.24,0.485-0.494,0.708-0.775c1.244-1.556,1.866-3.4,1.866-5.536
	C829.188,190.453,828.479,188.618,827.063,187.19z"/>
</svg>
