<?xml version="1.0" encoding="utf-8"?>
<!-- Generator: Adobe Illustrator 15.1.0, SVG Export Plug-In . SVG Version: 6.00 Build 0)  -->
<!DOCTYPE svg PUBLIC "-//W3C//DTD SVG 1.1//EN" "http://www.w3.org/Graphics/SVG/1.1/DTD/svg11.dtd" [
	<!ENTITY ns_flows "http://ns.adobe.com/Flows/1.0/">
	<!ENTITY ns_extend "http://ns.adobe.com/Extensibility/1.0/">
	<!ENTITY ns_ai "http://ns.adobe.com/AdobeIllustrator/10.0/">
	<!ENTITY ns_graphs "http://ns.adobe.com/Graphs/1.0/">
]>
<svg version="1.1" id="圖層_1" xmlns:x="&ns_extend;" xmlns:i="&ns_ai;" xmlns:graph="&ns_graphs;"
	 xmlns="http://www.w3.org/2000/svg" xmlns:xlink="http://www.w3.org/1999/xlink" xmlns:a="http://ns.adobe.com/AdobeSVGViewerExtensions/3.0/"
	 x="0px" y="0px" width="278.5px" height="230px" viewBox="0 0 278.5 230" enable-background="new 0 0 278.5 230"
	 xml:space="preserve">
<g>
	<polygon fill="#A9C849" points="153.08,13.788 205.494,13.788 205.494,2 141.292,2 141.292,66.012 153.08,66.012 	"/>
	<polygon fill="#97C044" points="153.08,13.788 205.494,13.788 205.494,2 141.292,2 141.292,66.012 153.08,66.012 	"/>
	<polygon fill="#739C30" points="153.08,13.788 205.494,13.788 205.494,2 141.292,2 141.292,66.012 153.08,66.012 	"/>
	<polygon fill="#5C7F34" points="153.08,13.788 205.494,13.788 205.494,2 141.292,2 141.292,66.012 153.08,66.012 	"/>
	<polygon fill="#FFFFFF" points="153.08,13.788 205.494,13.788 205.494,2 141.292,2 141.292,66.012 153.08,66.012 	"/>
</g>
<g>
	<path fill="#A9C849" d="M165.47,31.124v12.829c18.229,8.817,30.831,27.498,30.831,49.068c0,30.036-24.434,54.469-54.47,54.469
		c-30.035,0-54.47-24.434-54.47-54.469c0-6.33,1.098-12.407,3.092-18.064H78.076c-1.629,5.745-2.503,11.804-2.503,18.064
		c0,36.535,29.723,66.259,66.258,66.259c36.535,0,66.259-29.725,66.259-66.259C208.09,64.81,190.364,40.665,165.47,31.124z"/>
	<path fill="#97C044" d="M165.47,31.124v12.829c18.229,8.817,30.831,27.498,30.831,49.068c0,30.036-24.434,54.469-54.47,54.469
		c-30.035,0-54.47-24.434-54.47-54.469c0-6.33,1.098-12.407,3.092-18.064H78.076c-1.629,5.745-2.503,11.804-2.503,18.064
		c0,36.535,29.723,66.259,66.258,66.259c36.535,0,66.259-29.725,66.259-66.259C208.09,64.81,190.364,40.665,165.47,31.124z"/>
	<path fill="#739C30" d="M165.47,31.124v12.829c18.229,8.817,30.831,27.498,30.831,49.068c0,30.036-24.434,54.469-54.47,54.469
		c-30.035,0-54.47-24.434-54.47-54.469c0-6.33,1.098-12.407,3.092-18.064H78.076c-1.629,5.745-2.503,11.804-2.503,18.064
		c0,36.535,29.723,66.259,66.258,66.259c36.535,0,66.259-29.725,66.259-66.259C208.09,64.81,190.364,40.665,165.47,31.124z"/>
	<path fill="#5C7F34" d="M165.47,31.124v12.829c18.229,8.817,30.831,27.498,30.831,49.068c0,30.036-24.434,54.469-54.47,54.469
		c-30.035,0-54.47-24.434-54.47-54.469c0-6.33,1.098-12.407,3.092-18.064H78.076c-1.629,5.745-2.503,11.804-2.503,18.064
		c0,36.535,29.723,66.259,66.258,66.259c36.535,0,66.259-29.725,66.259-66.259C208.09,64.81,190.364,40.665,165.47,31.124z"/>
	<path fill="#FFFFFF" d="M165.47,31.124v12.829c18.229,8.817,30.831,27.498,30.831,49.068c0,30.036-24.434,54.469-54.47,54.469
		c-30.035,0-54.47-24.434-54.47-54.469c0-6.33,1.098-12.407,3.092-18.064H78.076c-1.629,5.745-2.503,11.804-2.503,18.064
		c0,36.535,29.723,66.259,66.258,66.259c36.535,0,66.259-29.725,66.259-66.259C208.09,64.81,190.364,40.665,165.47,31.124z"/>
</g>
<rect x="140.953" y="2" fill="#5C7F34" width="0.956" height="64.012"/>
<rect x="140.953" y="65.533" fill="#5C7F34" width="12.127" height="0.479"/>
<rect x="140.953" y="2" fill="#5C7F34" width="64.539" height="0.479"/>
<rect x="205.014" y="2" fill="#5C7F34" width="0.477" height="11.788"/>
<rect x="78.436" y="74.871" fill="#5C7F34" width="11.788" height="0.478"/>
<g>
	<rect x="165.464" y="31.123" fill="#FFFFFF" width="0.006" height="12.829"/>
</g>
<path fill="#5C7F34" d="M165.47,31.124v12.829c0.325,0.158,0.635,0.341,0.957,0.504V31.512
	C166.107,31.384,165.792,31.248,165.47,31.124z"/>
<path fill="#5C7F34" d="M196.856,92.558c0-21.87-12.848-40.792-31.388-49.629v1.069c17.992,8.765,30.424,27.236,30.424,48.56
	c0,18.821-9.71,36.422-24.354,46.095C186.748,128.874,196.856,111.947,196.856,92.558z"/>
<path fill="#5C7F34" d="M76.393,93.026c0-6.295,0.9-12.381,2.543-18.155h-0.859c-1.623,5.779-2.51,11.864-2.51,18.155
	c0,30.689,20.169,55.778,48.391,63.816c1.208,0.286,2.393,0.638,3.548,0.877C98.239,150.797,76.393,124.379,76.393,93.026z"/>
<rect x="153.08" y="13.788" fill="#B1D16F" width="52.414" height="0.585"/>
<rect x="153.08" y="13.788" fill="#B1D16F" width="0.584" height="52.224"/>
<path fill="#B1D16F" d="M141.909,146.768c-29.78,0-54.008-24.229-54.008-54.009c0-6.152,1.048-12.061,3.016-17.888h-0.872
	c-1.938,5.836-2.97,11.742-2.97,17.888c0,30.235,24.599,54.834,54.834,54.834c10.166,0,19.603-2.939,27.772-7.78l0,0
	C161.686,144.494,151.823,146.768,141.909,146.768z"/>
<path fill="#B1D16F" d="M165.464,30.226v0.889c24.504,9.672,41.892,33.566,41.892,61.461c0,36.425-29.637,66.064-66.064,66.064
	c-12.109,0-23.458-3.29-33.228-9.001l0,0c9.531,5.894,20.919,9.827,33.228,9.827c36.883,0,66.89-30.008,66.89-66.89
	C208.182,64.217,190.434,39.941,165.464,30.226z"/>
<g>
	<g>
		<path fill="#5C7F34" d="M67.471,61.674h-2.375c-0.914,0-1.654-0.741-1.654-1.656v-2.373V39.469h-4.446v22.206v0.203
			c0,2.342,1.9,4.242,4.243,4.242h0.204h5.209v-4.445H67.471z"/>
		<path fill="#FFFFFF" d="M67.471,61.674h-2.375c-0.914,0-1.654-0.741-1.654-1.656v-2.373V39.469h-4.446v22.206v0.203
			c0,2.342,1.9,4.242,4.243,4.242h0.204h5.209v-4.445H67.471z"/>
	</g>
	<g>
		<path fill="#5C7F34" d="M63.247,28.065c-0.541-0.523-1.199-0.786-1.973-0.786c-0.755,0-1.399,0.263-1.93,0.786
			c-0.534,0.524-0.801,1.182-0.801,1.972c0,0.791,0.267,1.443,0.801,1.958c0.531,0.516,1.175,0.773,1.93,0.773
			c0.774,0,1.432-0.266,1.973-0.798c0.542-0.532,0.813-1.177,0.813-1.933C64.06,29.247,63.79,28.589,63.247,28.065z"/>
		<path fill="#FFFFFF" d="M63.247,28.065c-0.541-0.523-1.199-0.786-1.973-0.786c-0.755,0-1.399,0.263-1.93,0.786
			c-0.534,0.524-0.801,1.182-0.801,1.972c0,0.791,0.267,1.443,0.801,1.958c0.531,0.516,1.175,0.773,1.93,0.773
			c0.774,0,1.432-0.266,1.973-0.798c0.542-0.532,0.813-1.177,0.813-1.933C64.06,29.247,63.79,28.589,63.247,28.065z"/>
	</g>
	<g>
		<path fill="#5C7F34" d="M97.05,32.479H86.383v33.532h-4.331V32.479H71.411v-3.917h25.64V32.479z"/>
		<path fill="#FFFFFF" d="M97.05,32.479H86.383v33.532h-4.331V32.479H71.411v-3.917h25.64V32.479z"/>
	</g>
	<g>
		<path fill="#5C7F34" d="M109.229,33.485h2.961h19.458v-4.75H112.19h-2.961c-3.572,0-6.717,1.909-8.538,4.786
			c-1.043,1.647-1.656,3.61-1.656,5.721c0,1.764,0.444,3.49,1.258,5.025c0.328,0.614,0.707,1.201,1.152,1.742
			c0.573,0.701,1.263,1.338,2.053,1.895c1.706,1.207,3.689,1.844,5.731,1.844h2.961h9.263c3.081,0,5.586,2.582,5.586,5.756
			c0,3.174-2.505,5.757-5.586,5.757h-9.263H99.035v4.75h13.155h9.263c5.621,0,10.196-4.713,10.196-10.507
			c0-0.328-0.016-0.66-0.051-1.015c-0.007-0.082-0.019-0.164-0.031-0.244l-0.015-0.113c-0.028-0.209-0.057-0.421-0.094-0.628
			c-0.022-0.114-0.049-0.228-0.076-0.341l-0.019-0.084c-0.04-0.175-0.081-0.349-0.129-0.521c-0.045-0.155-0.095-0.308-0.148-0.458
			c-0.048-0.149-0.099-0.298-0.156-0.444c-0.064-0.163-0.129-0.323-0.198-0.48c-0.058-0.126-0.117-0.251-0.176-0.377
			c-0.081-0.165-0.165-0.331-0.254-0.494c-0.044-0.079-0.093-0.158-0.139-0.236l-0.042-0.067c-0.104-0.173-0.207-0.344-0.319-0.509
			c-0.035-0.05-0.071-0.099-0.106-0.147l-0.052-0.07c-0.132-0.183-0.264-0.364-0.407-0.538c-0.553-0.677-1.219-1.297-1.978-1.842
			c-1.725-1.241-3.732-1.896-5.807-1.896h-9.263h-2.961c-3.078,0-5.585-2.583-5.585-5.757
			C103.644,36.067,106.151,33.485,109.229,33.485z"/>
		<path fill="#FFFFFF" d="M109.229,33.485h2.961h19.458v-4.75H112.19h-2.961c-3.572,0-6.717,1.909-8.538,4.786
			c-1.043,1.647-1.656,3.61-1.656,5.721c0,1.764,0.444,3.49,1.258,5.025c0.328,0.614,0.707,1.201,1.152,1.742
			c0.573,0.701,1.263,1.338,2.053,1.895c1.706,1.207,3.689,1.844,5.731,1.844h2.961h9.263c3.081,0,5.586,2.582,5.586,5.756
			c0,3.174-2.505,5.757-5.586,5.757h-9.263H99.035v4.75h13.155h9.263c5.621,0,10.196-4.713,10.196-10.507
			c0-0.328-0.016-0.66-0.051-1.015c-0.007-0.082-0.019-0.164-0.031-0.244l-0.015-0.113c-0.028-0.209-0.057-0.421-0.094-0.628
			c-0.022-0.114-0.049-0.228-0.076-0.341l-0.019-0.084c-0.04-0.175-0.081-0.349-0.129-0.521c-0.045-0.155-0.095-0.308-0.148-0.458
			c-0.048-0.149-0.099-0.298-0.156-0.444c-0.064-0.163-0.129-0.323-0.198-0.48c-0.058-0.126-0.117-0.251-0.176-0.377
			c-0.081-0.165-0.165-0.331-0.254-0.494c-0.044-0.079-0.093-0.158-0.139-0.236l-0.042-0.067c-0.104-0.173-0.207-0.344-0.319-0.509
			c-0.035-0.05-0.071-0.099-0.106-0.147l-0.052-0.07c-0.132-0.183-0.264-0.364-0.407-0.538c-0.553-0.677-1.219-1.297-1.978-1.842
			c-1.725-1.241-3.732-1.896-5.807-1.896h-9.263h-2.961c-3.078,0-5.585-2.583-5.585-5.757
			C103.644,36.067,106.151,33.485,109.229,33.485z"/>
	</g>
	<polygon fill="#97C044" points="82.065,31.761 72.082,31.761 71.411,32.479 82.065,32.479 	"/>
	<polygon fill="#97C044" points="86.383,65.292 82.61,65.292 82.052,66.011 86.383,66.011 	"/>
	<polygon fill="#97C044" points="85.945,31.761 86.383,32.479 97.05,32.479 97.05,31.761 	"/>
	<polyline fill="#739C30" points="86.383,32.479 86.383,66.011 85.945,65.292 85.945,31.761 	"/>
	<polygon fill="#739C30" points="97.05,28.562 96.396,29.131 96.396,31.761 97.05,32.479 	"/>
	<polygon fill="#739C30" points="131.648,28.734 130.914,29.346 130.914,32.931 131.648,33.485 	"/>
	<path fill="#97C044" d="M131.648,33.485l-0.734-0.554l-22.602,0.108c0,0-5.507,0.805-5.081,6.91c0,0,0.668,5.231,5.736,5.042
		c0,0-4.724-0.478-5.302-5.252c0,0-0.336-5.358,4.921-6.215L131.648,33.485z"/>
	<path fill="#97C044" d="M99.735,43.026c0,0,1.854,6.214,9.272,6.716h13.145c0,0,6.159,0.276,4.688,7.267
		c0,0,0.781-6.404-4.746-6.707l-13.063,0.014C109.032,50.316,101.654,49.791,99.735,43.026z"/>
	<polygon fill="#97C044" points="99.035,61.261 99.735,62.075 99.735,65.207 99.035,66.011 	"/>
	<path fill="#739C30" d="M130.163,50.068c0,0,4.973,7.975-2.701,13.916c0,0-2.595,2.164-6.009,2.027H99.035l0.7-0.804l21.604,0.085
		c0,0,5.315,0.296,8.446-4.772C129.785,60.52,132.8,56.034,130.163,50.068z"/>
	<polygon fill="#739C30" points="68.65,61.674 68.115,62.449 68.147,65.541 68.65,66.12 	"/>
	<path fill="#97C044" d="M68.65,66.12h-5.413c0,0-3.6,0.289-4.217-3.784c0,0,0.778,3.017,3.942,3.13l5.184,0.075L68.65,66.12z"/>
	<path fill="#739C30" d="M63.441,39.469l-0.65,0.617v19.298c0,0-0.1,1.909,1.965,2.29c0,0-1.315-0.349-1.315-2.189V39.469z"/>
	<path fill="#739C30" d="M62.875,27.762c0.498,0.5,0.806,1.19,0.806,1.952c0,1.528-1.237,2.766-2.766,2.766
		c-0.546,0-1.053-0.163-1.481-0.437c0.492,0.455,1.145,0.739,1.868,0.739c1.523,0,2.758-1.234,2.758-2.758
		C64.06,29.086,63.589,28.26,62.875,27.762z"/>
</g>
<g>
	<path fill="#416631" d="M9.518,221.319v-1.191h1.036v1.191H9.518z M9.518,228.566v-6.115h1.036v6.115H9.518z"/>
	<path fill="#416631" d="M12.249,228.566v-6.115h0.932v0.869c0.45-0.671,1.1-1.008,1.948-1.008c0.368,0,0.706,0.067,1.014,0.2
		c0.312,0.132,0.542,0.306,0.696,0.521c0.151,0.216,0.262,0.469,0.321,0.766c0.038,0.192,0.058,0.526,0.058,1.009v3.758h-1.034
		v-3.719c0-0.424-0.042-0.74-0.124-0.945c-0.081-0.21-0.225-0.375-0.428-0.502c-0.205-0.126-0.447-0.188-0.724-0.188
		c-0.442,0-0.82,0.142-1.141,0.419c-0.321,0.279-0.482,0.813-0.482,1.598v3.337H12.249z"/>
	<path fill="#416631" d="M21.185,227.639l0.149,0.916c-0.291,0.063-0.552,0.091-0.782,0.091c-0.375,0-0.667-0.059-0.875-0.178
		c-0.208-0.117-0.352-0.273-0.437-0.468c-0.084-0.194-0.127-0.603-0.127-1.224v-3.517h-0.76v-0.809h0.76v-1.513l1.032-0.621v2.134
		h1.041v0.809h-1.041v3.573c0,0.297,0.019,0.485,0.056,0.571c0.033,0.084,0.094,0.151,0.178,0.2
		c0.083,0.049,0.199,0.074,0.353,0.074C20.846,227.679,20.999,227.666,21.185,227.639z"/>
	<path fill="#416631" d="M26.503,226.599l1.067,0.131c-0.167,0.626-0.479,1.108-0.938,1.458c-0.456,0.344-1.038,0.516-1.75,0.516
		c-0.894,0-1.603-0.273-2.126-0.826c-0.524-0.55-0.786-1.322-0.786-2.316c0-1.027,0.265-1.829,0.795-2.395
		c0.527-0.566,1.217-0.854,2.06-0.854c0.818,0,1.485,0.279,2.003,0.837c0.518,0.557,0.78,1.337,0.78,2.346
		c0,0.063-0.002,0.156-0.007,0.281h-4.56c0.04,0.67,0.23,1.184,0.571,1.541c0.34,0.354,0.766,0.535,1.278,0.535
		c0.379,0,0.706-0.101,0.971-0.298C26.13,227.354,26.345,227.032,26.503,226.599z M23.098,224.922h3.416
		c-0.047-0.516-0.177-0.898-0.391-1.157c-0.33-0.397-0.758-0.599-1.285-0.599c-0.474,0-0.877,0.16-1.201,0.477
		C23.313,223.961,23.132,224.392,23.098,224.922z"/>
	<path fill="#416631" d="M28.979,228.566v-6.115h0.932v0.927c0.239-0.433,0.458-0.718,0.659-0.858
		c0.203-0.135,0.424-0.207,0.665-0.207c0.35,0,0.706,0.113,1.066,0.335l-0.356,0.963c-0.253-0.148-0.507-0.226-0.76-0.226
		c-0.229,0-0.431,0.067-0.609,0.206c-0.183,0.136-0.312,0.323-0.388,0.567c-0.114,0.366-0.173,0.77-0.173,1.208v3.2H28.979z"/>
	<path fill="#416631" d="M37.024,227.813c-0.384,0.325-0.751,0.556-1.107,0.691c-0.355,0.136-0.737,0.199-1.144,0.199
		c-0.671,0-1.186-0.162-1.547-0.49c-0.362-0.329-0.542-0.751-0.542-1.26c0-0.297,0.067-0.57,0.205-0.819
		c0.136-0.247,0.312-0.446,0.534-0.596c0.221-0.149,0.47-0.262,0.747-0.34c0.203-0.053,0.512-0.104,0.919-0.155
		c0.838-0.098,1.454-0.218,1.849-0.355c0.002-0.145,0.006-0.231,0.006-0.271c0-0.424-0.1-0.719-0.295-0.894
		c-0.265-0.233-0.655-0.35-1.179-0.35c-0.487,0-0.848,0.085-1.079,0.256c-0.233,0.171-0.404,0.475-0.515,0.907l-1.015-0.138
		c0.094-0.438,0.244-0.784,0.456-1.05c0.212-0.267,0.515-0.473,0.913-0.618c0.401-0.144,0.866-0.218,1.39-0.218
		c0.521,0,0.947,0.063,1.271,0.188c0.327,0.121,0.567,0.274,0.721,0.461c0.153,0.188,0.26,0.421,0.321,0.707
		c0.035,0.173,0.052,0.492,0.052,0.953v1.383c0,0.964,0.022,1.569,0.066,1.829c0.044,0.255,0.13,0.499,0.262,0.732h-1.083
		C37.123,228.353,37.055,228.099,37.024,227.813z M36.938,225.495c-0.375,0.156-0.939,0.285-1.693,0.393
		c-0.425,0.062-0.727,0.132-0.903,0.209c-0.177,0.075-0.313,0.189-0.409,0.336c-0.096,0.148-0.143,0.313-0.143,0.492
		c0,0.277,0.104,0.508,0.313,0.693c0.211,0.184,0.518,0.275,0.92,0.275c0.398,0,0.751-0.088,1.063-0.264
		c0.311-0.172,0.541-0.414,0.687-0.717c0.111-0.233,0.166-0.58,0.166-1.036V225.495z"/>
	<path fill="#416631" d="M43.7,226.326l1.016,0.135c-0.11,0.702-0.394,1.249-0.854,1.647c-0.458,0.396-1.021,0.595-1.689,0.595
		c-0.836,0-1.509-0.272-2.018-0.819c-0.508-0.548-0.761-1.331-0.761-2.352c0-0.656,0.108-1.239,0.326-1.732
		c0.22-0.494,0.553-0.865,1.001-1.115c0.445-0.245,0.932-0.372,1.458-0.372c0.665,0,1.208,0.171,1.627,0.506
		c0.421,0.336,0.695,0.813,0.814,1.431l-1.008,0.154c-0.096-0.411-0.266-0.718-0.509-0.927c-0.245-0.206-0.539-0.311-0.885-0.311
		c-0.524,0-0.947,0.188-1.271,0.561c-0.327,0.374-0.492,0.968-0.492,1.779c0,0.819,0.158,1.416,0.472,1.788
		c0.316,0.372,0.727,0.559,1.233,0.559c0.407,0,0.745-0.125,1.019-0.374C43.453,227.229,43.626,226.844,43.7,226.326z"/>
	<path fill="#416631" d="M47.984,227.639l0.151,0.916c-0.294,0.063-0.554,0.091-0.784,0.091c-0.375,0-0.667-0.059-0.876-0.178
		c-0.207-0.117-0.352-0.273-0.436-0.468c-0.087-0.194-0.127-0.603-0.127-1.224v-3.517h-0.76v-0.809h0.76v-1.513l1.029-0.621v2.134
		h1.043v0.809h-1.043v3.573c0,0.297,0.019,0.485,0.056,0.571c0.036,0.084,0.098,0.151,0.179,0.2s0.2,0.074,0.354,0.074
		C47.645,227.679,47.796,227.666,47.984,227.639z"/>
	<path fill="#416631" d="M49.119,221.319v-1.191h1.037v1.191H49.119z M49.119,228.566v-6.115h1.037v6.115H49.119z"/>
	<path fill="#416631" d="M53.548,228.566l-2.324-6.115h1.092l1.313,3.664c0.143,0.395,0.273,0.805,0.393,1.23
		c0.092-0.321,0.221-0.71,0.387-1.162l1.358-3.732h1.065l-2.315,6.115H53.548z"/>
	<path fill="#416631" d="M62.049,226.599l1.07,0.131c-0.167,0.626-0.479,1.108-0.937,1.458c-0.455,0.344-1.042,0.516-1.75,0.516
		c-0.895,0-1.603-0.273-2.128-0.826c-0.521-0.55-0.786-1.322-0.786-2.316c0-1.027,0.265-1.829,0.796-2.395
		c0.529-0.566,1.216-0.854,2.06-0.854c0.817,0,1.484,0.279,2.003,0.837c0.519,0.557,0.776,1.337,0.776,2.346
		c0,0.063,0,0.156-0.005,0.281h-4.56c0.04,0.67,0.229,1.184,0.57,1.541c0.343,0.354,0.77,0.535,1.279,0.535
		c0.378,0,0.703-0.101,0.974-0.298C61.679,227.354,61.893,227.032,62.049,226.599z M58.648,224.922h3.413
		c-0.047-0.516-0.175-0.898-0.393-1.157c-0.329-0.397-0.758-0.599-1.282-0.599c-0.477,0-0.876,0.16-1.2,0.477
		C58.862,223.961,58.682,224.392,58.648,224.922z"/>
	<path fill="#416631" d="M70.211,228.566v-7.444h-2.78v-0.994h6.69v0.994h-2.793v7.444H70.211z"/>
	<path fill="#416631" d="M79.435,226.599l1.071,0.131c-0.168,0.626-0.48,1.108-0.938,1.458c-0.455,0.344-1.041,0.516-1.75,0.516
		c-0.894,0-1.603-0.273-2.128-0.826c-0.521-0.55-0.786-1.322-0.786-2.316c0-1.027,0.267-1.829,0.794-2.395
		c0.53-0.566,1.217-0.854,2.063-0.854c0.815,0,1.485,0.279,2.001,0.837c0.519,0.557,0.777,1.337,0.777,2.346
		c0,0.063,0,0.156-0.005,0.281h-4.559c0.039,0.67,0.227,1.184,0.569,1.541c0.341,0.354,0.769,0.535,1.277,0.535
		c0.381,0,0.705-0.101,0.974-0.298C79.066,227.354,79.279,227.032,79.435,226.599z M76.034,224.922h3.413
		c-0.047-0.516-0.176-0.898-0.392-1.157c-0.329-0.397-0.757-0.599-1.282-0.599c-0.476,0-0.877,0.16-1.2,0.477
		C76.248,223.961,76.067,224.392,76.034,224.922z"/>
	<path fill="#416631" d="M85.916,227.813c-0.387,0.325-0.755,0.556-1.111,0.691c-0.354,0.136-0.734,0.199-1.141,0.199
		c-0.672,0-1.188-0.162-1.548-0.49c-0.361-0.329-0.542-0.751-0.542-1.26c0-0.297,0.07-0.57,0.205-0.819
		c0.137-0.247,0.315-0.446,0.535-0.596c0.22-0.149,0.469-0.262,0.745-0.34c0.201-0.053,0.51-0.104,0.922-0.155
		c0.835-0.098,1.454-0.218,1.847-0.355c0.002-0.145,0.005-0.231,0.005-0.271c0-0.424-0.096-0.719-0.292-0.894
		c-0.265-0.233-0.66-0.35-1.18-0.35c-0.488,0-0.849,0.085-1.081,0.256c-0.23,0.171-0.403,0.475-0.514,0.907l-1.011-0.138
		c0.09-0.438,0.24-0.784,0.452-1.05c0.212-0.267,0.517-0.473,0.917-0.618c0.398-0.144,0.86-0.218,1.384-0.218
		c0.525,0,0.947,0.063,1.276,0.188c0.323,0.121,0.563,0.274,0.717,0.461c0.154,0.188,0.261,0.421,0.323,0.707
		c0.034,0.173,0.052,0.492,0.052,0.953v1.383c0,0.964,0.021,1.569,0.064,1.829c0.047,0.255,0.134,0.499,0.265,0.732h-1.083
		C86.014,228.353,85.942,228.099,85.916,227.813z M85.828,225.495c-0.375,0.156-0.941,0.285-1.69,0.393
		c-0.428,0.062-0.727,0.132-0.907,0.209c-0.175,0.075-0.311,0.189-0.405,0.336c-0.098,0.148-0.146,0.313-0.146,0.492
		c0,0.277,0.106,0.508,0.313,0.693c0.21,0.184,0.517,0.275,0.918,0.275c0.399,0,0.758-0.088,1.066-0.264
		c0.31-0.172,0.539-0.414,0.686-0.717c0.108-0.233,0.166-0.58,0.166-1.036V225.495z"/>
	<path fill="#416631" d="M92.59,226.326l1.018,0.135c-0.112,0.702-0.396,1.249-0.855,1.647c-0.458,0.396-1.022,0.595-1.69,0.595
		c-0.835,0-1.508-0.272-2.017-0.819c-0.509-0.548-0.763-1.331-0.763-2.352c0-0.656,0.11-1.239,0.328-1.732
		c0.217-0.494,0.552-0.865,0.999-1.115c0.447-0.245,0.937-0.372,1.46-0.372c0.664,0,1.206,0.171,1.627,0.506
		c0.425,0.336,0.694,0.813,0.814,1.431l-1.011,0.154c-0.094-0.411-0.263-0.718-0.506-0.927c-0.246-0.206-0.542-0.311-0.885-0.311
		c-0.521,0-0.944,0.188-1.271,0.561c-0.326,0.374-0.491,0.968-0.491,1.779c0,0.819,0.161,1.416,0.472,1.788
		c0.316,0.372,0.727,0.559,1.233,0.559c0.406,0,0.748-0.125,1.021-0.374C92.344,227.229,92.516,226.844,92.59,226.326z"/>
	<path fill="#416631" d="M94.614,228.566v-8.438h1.036v3.026c0.483-0.563,1.095-0.842,1.83-0.842c0.451,0,0.846,0.092,1.18,0.27
		c0.334,0.177,0.574,0.427,0.717,0.738c0.144,0.318,0.215,0.774,0.215,1.371v3.875h-1.035v-3.875c0-0.519-0.113-0.896-0.337-1.132
		c-0.224-0.233-0.542-0.354-0.953-0.354c-0.307,0-0.596,0.081-0.865,0.24c-0.271,0.159-0.462,0.373-0.578,0.648
		c-0.115,0.271-0.173,0.646-0.173,1.125v3.347H94.614z"/>
	<path fill="#416631" d="M105.473,226.599l1.07,0.131c-0.168,0.626-0.482,1.108-0.939,1.458c-0.458,0.344-1.038,0.516-1.75,0.516
		c-0.895,0-1.604-0.273-2.125-0.826c-0.524-0.55-0.788-1.322-0.788-2.316c0-1.027,0.264-1.829,0.794-2.395
		c0.53-0.566,1.22-0.854,2.061-0.854c0.817,0,1.485,0.279,2.003,0.837c0.519,0.557,0.779,1.337,0.779,2.346
		c0,0.063-0.002,0.156-0.007,0.281h-4.559c0.038,0.67,0.231,1.184,0.57,1.541c0.343,0.354,0.769,0.535,1.28,0.535
		c0.379,0,0.705-0.101,0.969-0.298C105.102,227.354,105.314,227.032,105.473,226.599z M102.068,224.922h3.415
		c-0.044-0.516-0.176-0.898-0.391-1.157c-0.33-0.397-0.757-0.599-1.285-0.599c-0.473,0-0.875,0.16-1.2,0.477
		C102.282,223.961,102.104,224.392,102.068,224.922z"/>
	<path fill="#416631" d="M107.949,228.566v-6.115h0.934v0.927c0.236-0.433,0.457-0.718,0.657-0.858
		c0.203-0.135,0.425-0.207,0.666-0.207c0.35,0,0.706,0.113,1.063,0.335l-0.356,0.963c-0.253-0.148-0.507-0.226-0.76-0.226
		c-0.225,0-0.429,0.067-0.611,0.206c-0.178,0.136-0.309,0.323-0.384,0.567c-0.115,0.366-0.171,0.77-0.171,1.208v3.2H107.949z"/>
	<path fill="#416631" d="M120.222,227.572c-0.34,0.377-0.714,0.663-1.114,0.853c-0.405,0.192-0.84,0.284-1.309,0.284
		c-0.864,0-1.548-0.289-2.055-0.874c-0.409-0.476-0.617-1.007-0.617-1.594c0-0.521,0.167-0.993,0.503-1.414
		c0.339-0.421,0.838-0.788,1.508-1.106c-0.379-0.438-0.633-0.792-0.759-1.065c-0.128-0.273-0.191-0.537-0.191-0.792
		c0-0.503,0.199-0.943,0.597-1.317c0.396-0.373,0.897-0.563,1.498-0.563c0.576,0,1.045,0.18,1.415,0.53
		c0.364,0.355,0.55,0.778,0.55,1.271c0,0.803-0.533,1.488-1.597,2.056l1.515,1.933c0.173-0.34,0.307-0.73,0.403-1.175l1.075,0.229
		c-0.184,0.735-0.433,1.342-0.749,1.817c0.391,0.517,0.831,0.946,1.321,1.297l-0.698,0.821
		C121.099,228.494,120.667,228.098,120.222,227.572z M119.572,226.752l-1.9-2.354c-0.561,0.337-0.937,0.645-1.134,0.931
		c-0.195,0.285-0.293,0.567-0.293,0.848c0,0.344,0.139,0.696,0.409,1.066c0.272,0.366,0.659,0.553,1.156,0.553
		c0.311,0,0.633-0.098,0.965-0.292C119.107,227.312,119.374,227.061,119.572,226.752z M118.116,223.173
		c0.447-0.267,0.738-0.497,0.873-0.696c0.131-0.197,0.198-0.422,0.198-0.66c0-0.291-0.092-0.525-0.274-0.707
		c-0.182-0.183-0.41-0.273-0.682-0.273c-0.279,0-0.512,0.091-0.699,0.27c-0.186,0.181-0.279,0.398-0.279,0.665
		c0,0.127,0.035,0.265,0.103,0.41c0.065,0.143,0.168,0.296,0.3,0.456L118.116,223.173z"/>
	<path fill="#416631" d="M126.524,225.856l1.055-0.095c0.052,0.427,0.166,0.769,0.349,1.04c0.182,0.271,0.464,0.492,0.85,0.656
		c0.383,0.166,0.814,0.251,1.292,0.251c0.427,0,0.804-0.063,1.129-0.19c0.326-0.127,0.568-0.299,0.729-0.521
		c0.158-0.221,0.237-0.462,0.237-0.723c0-0.265-0.077-0.494-0.23-0.694c-0.151-0.195-0.405-0.36-0.76-0.498
		c-0.226-0.086-0.726-0.223-1.501-0.41c-0.776-0.187-1.32-0.363-1.631-0.527c-0.403-0.208-0.702-0.471-0.899-0.787
		c-0.198-0.31-0.296-0.661-0.296-1.05c0-0.424,0.121-0.824,0.363-1.195c0.241-0.368,0.593-0.647,1.06-0.841
		c0.465-0.192,0.98-0.289,1.547-0.289c0.625,0,1.179,0.102,1.655,0.301c0.478,0.206,0.844,0.5,1.104,0.891
		c0.257,0.393,0.396,0.836,0.415,1.331l-1.071,0.08c-0.058-0.534-0.253-0.936-0.584-1.211c-0.333-0.27-0.823-0.405-1.473-0.405
		c-0.675,0-1.167,0.122-1.476,0.369c-0.309,0.246-0.462,0.548-0.462,0.896c0,0.301,0.107,0.553,0.326,0.747
		c0.216,0.194,0.776,0.396,1.685,0.604c0.907,0.203,1.53,0.383,1.867,0.538c0.491,0.225,0.854,0.513,1.086,0.861
		c0.237,0.345,0.353,0.748,0.353,1.199c0,0.449-0.128,0.869-0.387,1.269c-0.255,0.396-0.626,0.708-1.107,0.927
		c-0.481,0.22-1.023,0.33-1.625,0.33c-0.766,0-1.406-0.112-1.923-0.335c-0.514-0.219-0.92-0.554-1.212-1.001
		C126.694,226.925,126.541,226.418,126.524,225.856z"/>
	<path fill="#416631" d="M137.015,227.639l0.151,0.916c-0.292,0.063-0.554,0.091-0.782,0.091c-0.375,0-0.668-0.059-0.877-0.178
		c-0.205-0.117-0.351-0.273-0.436-0.468c-0.083-0.194-0.126-0.603-0.126-1.224v-3.517h-0.76v-0.809h0.76v-1.513l1.03-0.621v2.134
		h1.041v0.809h-1.041v3.573c0,0.297,0.019,0.485,0.056,0.571c0.036,0.084,0.094,0.151,0.179,0.2
		c0.082,0.049,0.198,0.074,0.354,0.074C136.679,227.679,136.828,227.666,137.015,227.639z"/>
	<path fill="#416631" d="M142.155,228.566v-0.899c-0.477,0.694-1.126,1.036-1.941,1.036c-0.359,0-0.698-0.068-1.01-0.207
		c-0.313-0.135-0.547-0.312-0.697-0.521c-0.151-0.206-0.258-0.465-0.321-0.768c-0.041-0.205-0.062-0.527-0.062-0.966v-3.79h1.037
		v3.394c0,0.538,0.021,0.904,0.062,1.095c0.068,0.27,0.207,0.484,0.414,0.64c0.212,0.155,0.472,0.233,0.782,0.233
		c0.314,0,0.605-0.08,0.877-0.24c0.274-0.159,0.463-0.375,0.576-0.65c0.116-0.275,0.174-0.671,0.174-1.194v-3.276h1.031v6.115
		H142.155z"/>
	<path fill="#416631" d="M148.788,228.566v-0.771c-0.387,0.605-0.958,0.907-1.71,0.907c-0.485,0-0.937-0.133-1.345-0.403
		c-0.406-0.266-0.723-0.642-0.949-1.123c-0.222-0.48-0.338-1.036-0.338-1.659c0-0.612,0.103-1.164,0.307-1.662
		c0.203-0.498,0.511-0.88,0.915-1.14c0.406-0.267,0.861-0.403,1.363-0.403c0.37,0,0.696,0.079,0.986,0.237
		c0.287,0.151,0.521,0.355,0.701,0.604v-3.026h1.032v8.438H148.788z M145.513,225.518c0,0.78,0.164,1.365,0.498,1.753
		c0.328,0.388,0.719,0.582,1.164,0.582c0.455,0,0.84-0.186,1.156-0.556c0.316-0.371,0.475-0.936,0.475-1.695
		c0-0.838-0.159-1.45-0.484-1.842c-0.32-0.392-0.72-0.587-1.191-0.587c-0.462,0-0.844,0.188-1.151,0.563
		C145.668,224.112,145.513,224.705,145.513,225.518z"/>
	<path fill="#416631" d="M155.68,226.599l1.073,0.131c-0.173,0.626-0.484,1.108-0.939,1.458c-0.455,0.344-1.04,0.516-1.751,0.516
		c-0.892,0-1.6-0.273-2.128-0.826c-0.523-0.55-0.785-1.322-0.785-2.316c0-1.027,0.266-1.829,0.795-2.395
		c0.531-0.566,1.222-0.854,2.061-0.854c0.815,0,1.487,0.279,2.003,0.837c0.521,0.557,0.781,1.337,0.781,2.346
		c0,0.063-0.004,0.156-0.007,0.281h-4.562c0.04,0.67,0.228,1.184,0.571,1.541c0.341,0.354,0.768,0.535,1.28,0.535
		c0.378,0,0.701-0.101,0.969-0.298C155.313,227.354,155.521,227.032,155.68,226.599z M152.277,224.922h3.416
		c-0.046-0.516-0.175-0.898-0.392-1.157c-0.33-0.397-0.757-0.599-1.285-0.599c-0.474,0-0.875,0.16-1.199,0.477
		C152.493,223.961,152.313,224.392,152.277,224.922z"/>
	<path fill="#416631" d="M158.172,228.566v-6.115h0.933v0.869c0.446-0.671,1.095-1.008,1.945-1.008c0.369,0,0.707,0.067,1.016,0.2
		c0.308,0.132,0.539,0.306,0.692,0.521c0.155,0.216,0.261,0.469,0.322,0.766c0.038,0.192,0.057,0.526,0.057,1.009v3.758h-1.036
		v-3.719c0-0.424-0.037-0.74-0.118-0.945c-0.079-0.21-0.222-0.375-0.433-0.502c-0.203-0.126-0.443-0.188-0.719-0.188
		c-0.441,0-0.823,0.142-1.146,0.419c-0.321,0.279-0.479,0.813-0.479,1.598v3.337H158.172z"/>
	<path fill="#416631" d="M167.108,227.639l0.149,0.916c-0.29,0.063-0.555,0.091-0.782,0.091c-0.377,0-0.671-0.059-0.877-0.178
		c-0.207-0.117-0.354-0.273-0.436-0.468c-0.085-0.194-0.127-0.603-0.127-1.224v-3.517h-0.76v-0.809h0.76v-1.513l1.03-0.621v2.134
		h1.042v0.809h-1.042v3.573c0,0.297,0.021,0.485,0.055,0.571c0.034,0.084,0.094,0.151,0.178,0.2c0.08,0.049,0.201,0.074,0.356,0.074
		C166.771,227.679,166.921,227.666,167.108,227.639z"/>
	<path fill="#416631" d="M171.384,225.856l1.053-0.095c0.048,0.427,0.167,0.769,0.35,1.04c0.182,0.271,0.464,0.492,0.848,0.656
		c0.383,0.166,0.815,0.251,1.295,0.251c0.427,0,0.804-0.063,1.13-0.19c0.326-0.127,0.568-0.299,0.729-0.521
		c0.158-0.221,0.236-0.462,0.236-0.723c0-0.265-0.075-0.494-0.227-0.694c-0.155-0.195-0.41-0.36-0.762-0.498
		c-0.227-0.086-0.73-0.223-1.5-0.41c-0.777-0.187-1.321-0.363-1.63-0.527c-0.405-0.208-0.706-0.471-0.901-0.787
		c-0.197-0.31-0.299-0.661-0.299-1.05c0-0.424,0.122-0.824,0.363-1.195c0.243-0.368,0.593-0.647,1.061-0.841
		c0.462-0.192,0.979-0.289,1.548-0.289c0.622,0,1.177,0.102,1.654,0.301c0.476,0.206,0.846,0.5,1.102,0.891
		c0.258,0.393,0.397,0.836,0.416,1.331l-1.071,0.08c-0.057-0.534-0.251-0.936-0.583-1.211c-0.334-0.27-0.822-0.405-1.475-0.405
		c-0.673,0-1.165,0.122-1.474,0.369c-0.308,0.246-0.464,0.548-0.464,0.896c0,0.301,0.11,0.553,0.329,0.747
		c0.215,0.194,0.777,0.396,1.683,0.604c0.91,0.203,1.532,0.383,1.868,0.538c0.491,0.225,0.855,0.513,1.088,0.861
		c0.234,0.345,0.354,0.748,0.354,1.199c0,0.449-0.131,0.869-0.388,1.269c-0.256,0.396-0.628,0.708-1.107,0.927
		c-0.483,0.22-1.029,0.33-1.629,0.33c-0.764,0-1.402-0.112-1.92-0.335c-0.514-0.219-0.919-0.554-1.216-1.001
		C171.556,226.925,171.399,226.418,171.384,225.856z"/>
	<path fill="#416631" d="M183.8,226.599l1.07,0.131c-0.17,0.626-0.479,1.108-0.94,1.458c-0.456,0.344-1.038,0.516-1.75,0.516
		c-0.895,0-1.605-0.273-2.125-0.826c-0.525-0.55-0.789-1.322-0.789-2.316c0-1.027,0.265-1.829,0.796-2.395
		c0.529-0.566,1.219-0.854,2.062-0.854c0.816,0,1.486,0.279,2.003,0.837c0.518,0.557,0.778,1.337,0.778,2.346
		c0,0.063-0.004,0.156-0.009,0.281h-4.557c0.039,0.67,0.229,1.184,0.569,1.541c0.341,0.354,0.77,0.535,1.279,0.535
		c0.379,0,0.704-0.101,0.97-0.298C183.428,227.354,183.641,227.032,183.8,226.599z M180.396,224.922h3.414
		c-0.046-0.516-0.177-0.898-0.393-1.157c-0.331-0.397-0.754-0.599-1.284-0.599c-0.474,0-0.875,0.16-1.198,0.477
		C180.609,223.961,180.432,224.392,180.396,224.922z"/>
	<path fill="#416631" d="M186.277,228.566v-6.115h0.932v0.927c0.234-0.433,0.453-0.718,0.661-0.858
		c0.199-0.135,0.421-0.207,0.662-0.207c0.348,0,0.706,0.113,1.065,0.335l-0.359,0.963c-0.247-0.148-0.503-0.226-0.759-0.226
		c-0.224,0-0.429,0.067-0.609,0.206c-0.179,0.136-0.311,0.323-0.385,0.567c-0.115,0.366-0.175,0.77-0.175,1.208v3.2H186.277z"/>
	<path fill="#416631" d="M192.03,228.566l-2.326-6.115h1.096l1.313,3.664c0.141,0.395,0.271,0.805,0.391,1.23
		c0.091-0.321,0.221-0.71,0.384-1.162l1.357-3.732h1.066l-2.313,6.115H192.03z"/>
	<path fill="#416631" d="M196.35,221.319v-1.191h1.039v1.191H196.35z M196.35,228.566v-6.115h1.039v6.115H196.35z"/>
	<path fill="#416631" d="M203.067,226.326l1.021,0.135c-0.11,0.702-0.395,1.249-0.857,1.647c-0.456,0.396-1.018,0.595-1.686,0.595
		c-0.839,0-1.511-0.272-2.022-0.819c-0.504-0.548-0.76-1.331-0.76-2.352c0-0.656,0.108-1.239,0.331-1.732
		c0.22-0.494,0.549-0.865,0.996-1.115c0.447-0.245,0.937-0.372,1.459-0.372c0.668,0,1.205,0.171,1.63,0.506
		c0.423,0.336,0.692,0.813,0.811,1.431l-1.007,0.154c-0.093-0.411-0.266-0.718-0.511-0.927c-0.242-0.206-0.538-0.311-0.883-0.311
		c-0.523,0-0.943,0.188-1.271,0.561c-0.325,0.374-0.488,0.968-0.488,1.779c0,0.819,0.154,1.416,0.47,1.788s0.727,0.559,1.231,0.559
		c0.407,0,0.749-0.125,1.02-0.374C202.825,227.229,202.998,226.844,203.067,226.326z"/>
	<path fill="#416631" d="M209.279,226.599l1.07,0.131c-0.169,0.626-0.48,1.108-0.939,1.458c-0.454,0.344-1.039,0.516-1.749,0.516
		c-0.896,0-1.602-0.273-2.128-0.826c-0.521-0.55-0.786-1.322-0.786-2.316c0-1.027,0.265-1.829,0.797-2.395
		c0.527-0.566,1.216-0.854,2.059-0.854c0.816,0,1.485,0.279,2.003,0.837c0.518,0.557,0.776,1.337,0.776,2.346
		c0,0.063-0.001,0.156-0.008,0.281h-4.556c0.037,0.67,0.228,1.184,0.571,1.541c0.341,0.354,0.769,0.535,1.276,0.535
		c0.38,0,0.705-0.101,0.974-0.298C208.907,227.354,209.119,227.032,209.279,226.599z M205.876,224.922h3.415
		c-0.048-0.516-0.177-0.898-0.393-1.157c-0.332-0.397-0.757-0.599-1.285-0.599c-0.473,0-0.874,0.16-1.2,0.477
		C206.089,223.961,205.911,224.392,205.876,224.922z"/>
	<path fill="#416631" d="M215.295,228.566v-8.438h3.185c0.558,0,0.985,0.028,1.281,0.079c0.414,0.069,0.761,0.2,1.044,0.397
		c0.275,0.192,0.502,0.462,0.673,0.813c0.172,0.348,0.259,0.734,0.259,1.15c0,0.718-0.229,1.325-0.688,1.824
		c-0.454,0.495-1.281,0.742-2.474,0.742h-2.166v3.433H215.295z M216.409,224.138h2.185c0.72,0,1.233-0.131,1.535-0.401
		c0.305-0.268,0.456-0.645,0.456-1.134c0-0.354-0.089-0.655-0.27-0.905c-0.181-0.256-0.412-0.419-0.706-0.5
		c-0.184-0.048-0.531-0.075-1.04-0.075h-2.16V224.138z"/>
	<path fill="#416631" d="M223.118,228.566v-8.438h1.039v8.438H223.118z"/>
	<path fill="#416631" d="M229.868,227.813c-0.382,0.325-0.753,0.556-1.108,0.691s-0.734,0.199-1.143,0.199
		c-0.671,0-1.189-0.162-1.549-0.49c-0.359-0.329-0.541-0.751-0.541-1.26c0-0.297,0.07-0.57,0.208-0.819
		c0.132-0.247,0.311-0.446,0.532-0.596c0.221-0.149,0.471-0.262,0.746-0.34c0.204-0.053,0.511-0.104,0.92-0.155
		c0.84-0.098,1.453-0.218,1.85-0.355c0-0.145,0.005-0.231,0.005-0.271c0-0.424-0.097-0.719-0.293-0.894
		c-0.265-0.233-0.657-0.35-1.182-0.35c-0.485,0-0.849,0.085-1.078,0.256c-0.231,0.171-0.403,0.475-0.515,0.907l-1.013-0.138
		c0.093-0.438,0.244-0.784,0.452-1.05c0.215-0.267,0.517-0.473,0.917-0.618c0.398-0.144,0.863-0.218,1.385-0.218
		c0.524,0,0.949,0.063,1.276,0.188c0.324,0.121,0.564,0.274,0.717,0.461c0.154,0.188,0.264,0.421,0.321,0.707
		c0.037,0.173,0.052,0.492,0.052,0.953v1.383c0,0.964,0.022,1.569,0.068,1.829c0.046,0.255,0.132,0.499,0.262,0.732h-1.082
		C229.969,228.353,229.899,228.099,229.868,227.813z M229.783,225.495c-0.377,0.156-0.94,0.285-1.691,0.393
		c-0.428,0.062-0.729,0.132-0.907,0.209c-0.173,0.075-0.312,0.189-0.404,0.336c-0.099,0.148-0.147,0.313-0.147,0.492
		c0,0.277,0.105,0.508,0.313,0.693c0.208,0.184,0.518,0.275,0.918,0.275c0.401,0,0.757-0.088,1.066-0.264
		c0.312-0.172,0.538-0.414,0.683-0.717c0.114-0.233,0.17-0.58,0.17-1.036V225.495z"/>
	<path fill="#416631" d="M234.815,227.639l0.15,0.916c-0.292,0.063-0.552,0.091-0.781,0.091c-0.378,0-0.669-0.059-0.876-0.178
		c-0.207-0.117-0.354-0.273-0.438-0.468s-0.126-0.603-0.126-1.224v-3.517h-0.757v-0.809h0.757v-1.513l1.03-0.621v2.134h1.041v0.809
		h-1.041v3.573c0,0.297,0.016,0.485,0.053,0.571c0.04,0.084,0.099,0.151,0.181,0.2c0.08,0.049,0.2,0.074,0.354,0.074
		C234.477,227.679,234.628,227.666,234.815,227.639z"/>
	<path fill="#416631" d="M236.195,228.566v-5.307h-0.916v-0.809h0.916v-0.646c0-0.416,0.034-0.719,0.108-0.918
		c0.098-0.267,0.275-0.488,0.525-0.651c0.253-0.169,0.605-0.253,1.057-0.253c0.29,0,0.613,0.035,0.967,0.106l-0.154,0.903
		c-0.216-0.037-0.418-0.06-0.609-0.06c-0.314,0-0.537,0.064-0.668,0.201c-0.131,0.135-0.196,0.386-0.196,0.755v0.563h1.19v0.809
		h-1.19v5.307H236.195z"/>
	<path fill="#416631" d="M238.954,225.51c0-1.133,0.315-1.973,0.944-2.515c0.526-0.455,1.168-0.683,1.92-0.683
		c0.841,0,1.532,0.274,2.063,0.828c0.535,0.552,0.802,1.313,0.802,2.284c0,0.785-0.122,1.403-0.354,1.854
		c-0.237,0.449-0.582,0.803-1.031,1.05c-0.45,0.254-0.944,0.375-1.479,0.375c-0.852,0-1.545-0.272-2.072-0.819
		C239.219,227.332,238.954,226.541,238.954,225.51z M240.02,225.51c0,0.782,0.172,1.366,0.514,1.761
		c0.341,0.388,0.77,0.582,1.285,0.582c0.518,0,0.944-0.194,1.286-0.587s0.515-0.99,0.515-1.789c0-0.757-0.173-1.332-0.52-1.718
		c-0.342-0.392-0.77-0.586-1.281-0.586c-0.516,0-0.944,0.194-1.285,0.581C240.191,224.142,240.02,224.729,240.02,225.51z"/>
	<path fill="#416631" d="M246.005,228.566v-6.115h0.931v0.927c0.238-0.433,0.457-0.718,0.66-0.858
		c0.201-0.135,0.42-0.207,0.663-0.207c0.351,0,0.706,0.113,1.066,0.335l-0.358,0.963c-0.252-0.148-0.505-0.226-0.76-0.226
		c-0.228,0-0.432,0.067-0.609,0.206c-0.182,0.136-0.309,0.323-0.388,0.567c-0.115,0.366-0.171,0.77-0.171,1.208v3.2H246.005z"/>
	<path fill="#416631" d="M250.058,228.566v-6.115h0.927v0.859c0.191-0.301,0.447-0.542,0.769-0.725
		c0.318-0.181,0.68-0.273,1.087-0.273c0.45,0,0.822,0.098,1.111,0.283c0.293,0.189,0.497,0.452,0.617,0.789
		c0.483-0.714,1.112-1.072,1.882-1.072c0.607,0,1.076,0.171,1.401,0.506c0.325,0.336,0.489,0.855,0.489,1.551v4.197h-1.029v-3.85
		c0-0.416-0.033-0.714-0.102-0.897c-0.069-0.181-0.19-0.327-0.363-0.441c-0.181-0.108-0.387-0.165-0.625-0.165
		c-0.427,0-0.785,0.143-1.07,0.43c-0.281,0.284-0.423,0.741-0.423,1.37v3.554h-1.039v-3.97c0-0.464-0.084-0.809-0.253-1.039
		c-0.167-0.23-0.442-0.345-0.828-0.345c-0.292,0-0.564,0.076-0.806,0.229c-0.251,0.153-0.43,0.377-0.541,0.676
		c-0.109,0.294-0.165,0.721-0.165,1.276v3.172H250.058z"/>
</g>
<g>
	<path fill="#416631" d="M263.129,225.993l1.268-0.11c0.094,0.618,0.312,1.085,0.651,1.393c0.345,0.312,0.756,0.464,1.239,0.464
		c0.578,0,1.072-0.218,1.473-0.656c0.404-0.437,0.604-1.019,0.604-1.742c0-0.688-0.193-1.233-0.578-1.63
		c-0.388-0.396-0.895-0.595-1.52-0.595c-0.389,0-0.738,0.09-1.051,0.267c-0.313,0.175-0.56,0.405-0.74,0.687l-1.129-0.147
		l0.947-5.048h4.886v1.15h-3.917l-0.531,2.642c0.592-0.412,1.209-0.615,1.858-0.615c0.857,0,1.579,0.297,2.171,0.89
		c0.59,0.597,0.885,1.357,0.885,2.291c0,0.894-0.261,1.66-0.777,2.308c-0.631,0.794-1.491,1.193-2.581,1.193
		c-0.894,0-1.625-0.251-2.189-0.749C263.53,227.483,263.209,226.817,263.129,225.993z"/>
</g>
<g>
	<path fill="#FFFFFF" d="M48.933,211.936c-1.309,0.902-2.937,1.34-4.886,1.34c-3.635,0-5.875-1.774-6.72-5.323l2.444-0.988
		c0.61,2.501,2.037,3.724,4.275,3.724c1.396,0,2.473-0.291,3.287-0.901c0.698-0.554,1.076-1.251,1.076-2.096
		c0-1.222-1.687-2.415-5.032-3.576c-1.746-0.584-2.997-1.164-3.753-1.747c-1.192-0.902-1.774-2.094-1.774-3.547
		c0-1.745,0.64-3.055,1.95-3.986c1.104-0.756,2.559-1.135,4.362-1.135c2.037,0,3.607,0.497,4.74,1.456
		c0.756,0.697,1.397,1.745,1.92,3.171l-2.501,1.016c-0.348-0.988-0.756-1.715-1.192-2.152c-0.668-0.581-1.657-0.899-2.967-0.899
		c-2.385,0-3.577,0.843-3.577,2.53c0,0.813,1.454,1.715,4.363,2.704c1.919,0.669,3.343,1.339,4.217,2.006
		c1.338,1.078,2.005,2.472,2.005,4.16C51.172,209.521,50.416,210.947,48.933,211.936z"/>
	<path fill="#B1D16F" d="M39.802,194.926c1.104-0.757,2.559-1.135,4.362-1.135c2.037,0,3.607,0.497,4.74,1.456
		c0.727,0.669,1.344,1.673,1.856,3.013l0.064-0.025c-0.522-1.426-1.164-2.474-1.92-3.171c-1.133-0.958-2.704-1.455-4.74-1.455
		c-1.803,0-3.257,0.378-4.362,1.134c-1.31,0.932-1.95,2.242-1.95,3.986c0,0.03,0.01,0.058,0.01,0.087
		C37.886,197.122,38.517,195.84,39.802,194.926z"/>
	<path fill="#B1D16F" d="M44.047,210.779c1.396,0,2.473-0.292,3.287-0.902c0.698-0.554,1.076-1.25,1.076-2.096
		c0-0.024-0.011-0.047-0.012-0.071c-0.034,0.793-0.397,1.455-1.064,1.984c-0.814,0.61-1.891,0.902-3.287,0.902
		c-2.239,0-3.665-1.224-4.275-3.725l-2.489,1.013c0.013,0.058,0.03,0.102,0.044,0.158l2.444-0.988
		C40.382,209.556,41.809,210.779,44.047,210.779z"/>
	<path fill="#B1D16F" d="M44.95,201.615c1.919,0.67,3.343,1.34,4.217,2.007c1.311,1.056,1.971,2.422,1.996,4.065
		c0.001-0.029,0.01-0.057,0.01-0.089c0-1.688-0.667-3.082-2.005-4.159c-0.874-0.667-2.298-1.337-4.217-2.007
		c-2.845-0.967-4.288-1.849-4.351-2.649c-0.001,0.045-0.012,0.082-0.012,0.129C40.586,199.725,42.041,200.627,44.95,201.615z"/>
	<path fill="#5C7F34" d="M43.379,204.022c-1.746-0.583-2.997-1.164-3.753-1.747c-1.167-0.883-1.74-2.047-1.764-3.46
		c0,0.034-0.01,0.062-0.01,0.097c0,1.453,0.582,2.644,1.774,3.546c0.756,0.583,2.007,1.164,3.753,1.747
		c3.277,1.14,4.953,2.309,5.02,3.505c0.001-0.04,0.012-0.072,0.012-0.111C48.411,206.378,46.724,205.184,43.379,204.022z"/>
	<path fill="#5C7F34" d="M48.933,211.845c-1.309,0.901-2.937,1.339-4.886,1.339c-3.576,0-5.794-1.725-6.669-5.16l-0.051,0.02
		c0.845,3.549,3.084,5.324,6.72,5.324c1.949,0,3.577-0.438,4.886-1.34c1.483-0.988,2.239-2.415,2.239-4.246
		c0-0.032-0.009-0.062-0.01-0.094C51.138,209.475,50.392,210.873,48.933,211.845z"/>
	<path fill="#5C7F34" d="M47.13,197.006c-0.668-0.58-1.657-0.899-2.967-0.899c-2.385,0-3.577,0.843-3.577,2.531
		c0,0.017,0.011,0.037,0.012,0.054c0.063-1.599,1.244-2.401,3.565-2.401c1.31,0,2.298,0.318,2.967,0.899
		c0.436,0.438,0.844,1.164,1.192,2.152l2.501-1.016c-0.02-0.057-0.043-0.102-0.064-0.158l-2.437,0.991
		C47.975,198.17,47.566,197.443,47.13,197.006z"/>
	<polygon fill="#5C7F34" points="48.323,199.342 48.211,199.025 50.734,198.06 50.845,198.375 	"/>
</g>
<rect x="33.486" y="193.935" fill="#B1D16F" width="0.233" height="2.71"/>
<g>
	<path fill="#FFFFFF" d="M9.931,196.813v-2.879h2.676v2.879H9.931z M9.931,213.275v-12.826h2.676v12.826H9.931z"/>
	<rect x="9.931" y="193.935" fill="#5C7F34" width="0.311" height="2.879"/>
	<rect x="9.931" y="196.645" fill="#5C7F34" width="2.676" height="0.183"/>
	<rect x="9.931" y="213.093" fill="#5C7F34" width="2.676" height="0.183"/>
	<rect x="9.931" y="200.45" fill="#5C7F34" width="0.311" height="12.825"/>
	<rect x="9.931" y="193.701" fill="#B1D16F" width="2.676" height="0.233"/>
	<rect x="12.607" y="193.701" fill="#B1D16F" width="0.232" height="3.112"/>
	<rect x="9.931" y="200.205" fill="#B1D16F" width="2.676" height="0.234"/>
	<rect x="12.607" y="200.205" fill="#B1D16F" width="0.232" height="13.07"/>
</g>
<g>
	<path fill="#FFFFFF" d="M27.292,196.668v16.607h-2.676v-16.607h-6.194v-2.5h15.065v2.5H27.292z"/>
	<rect x="18.421" y="194.168" fill="#5C7F34" width="0.485" height="2.5"/>
	<rect x="18.421" y="196.485" fill="#5C7F34" width="6.194" height="0.183"/>
	<rect x="27.292" y="196.485" fill="#5C7F34" width="6.195" height="0.183"/>
	<rect x="24.731" y="213.093" fill="#5C7F34" width="2.676" height="0.183"/>
	<rect x="24.615" y="196.485" fill="#5C7F34" width="0.312" height="16.79"/>
	<rect x="18.421" y="193.935" fill="#B1D16F" width="15.065" height="0.233"/>
	<rect x="27.292" y="196.668" fill="#B1D16F" width="0.232" height="16.607"/>
</g>
<g>
	<g>
		<path fill="#FFFFFF" d="M61.283,188.319h13.501v3.234H63.653l-1.075,6.643c1.582-1.195,3.416-1.759,5.407-1.759
			c3.73,0,8.442,1.829,8.442,8.157c0,5.235-3.509,8.681-9.233,8.681c-5.122,0-8.442-3.093-8.633-7.101h3.257
			c0.665,2.988,2.276,4.148,5.628,4.148c2.814,0,5.628-1.196,5.628-5.589c0-3.726-2.466-5.342-5.533-5.342
			c-1.992,0-3.984,0.596-5.249,2.319l-3.035-0.211L61.283,188.319z"/>
	</g>
	<path fill="#FFFFFF" d="M68.231,196.438c-0.051,0-0.098,0.011-0.147,0.012c3.67,0.109,8.097,2.009,8.097,8.146
		c0,5.159-3.412,8.572-8.987,8.671c0.084,0.002,0.163,0.01,0.247,0.01c5.721,0,9.23-3.445,9.23-8.681
		C76.672,198.267,71.961,196.438,68.231,196.438z"/>
	<path fill="#FFFFFF" d="M62.076,201.68l0.463,0.032c1.198-1.634,3.05-2.246,4.934-2.307c-0.059-0.002-0.116-0.013-0.176-0.013
		C65.318,199.393,63.341,199.983,62.076,201.68z"/>
	<path fill="#FFFFFF" d="M67.202,210.323c0.104,0,0.208-0.005,0.311-0.009c-3.223-0.043-4.797-1.208-5.448-4.14h-0.491
		C62.238,209.163,63.851,210.323,67.202,210.323z"/>
	<path fill="#5C7F34" d="M73.36,204.734c0-3.726-2.467-5.342-5.534-5.342c-0.062,0-0.121,0.006-0.183,0.007
		c3.019,0.036,5.432,1.652,5.432,5.335c0,4.299-2.696,5.533-5.449,5.584c0.037,0,0.068,0.005,0.105,0.005
		C70.545,210.323,73.36,209.127,73.36,204.734z"/>
	<path fill="#5C7F34" d="M61.567,188.319h-0.284l-2.024,13.182l3.035,0.211c0.005-0.006,0.011-0.013,0.016-0.019l-2.767-0.192
		L61.567,188.319z"/>
	<path fill="#5C7F34" d="M68.185,196.444c-0.067-0.001-0.135-0.007-0.2-0.007c-1.863,0-3.859,0.542-5.407,1.759h0.284
		C64.421,197.019,66.225,196.46,68.185,196.444z"/>
	<path fill="#5C7F34" d="M58.846,206.175h-0.284c0.19,4.008,3.511,7.101,8.633,7.101c0.049,0,0.094-0.005,0.142-0.005
		C62.296,213.212,59.035,210.145,58.846,206.175z"/>
	<path fill="#B1D16F" d="M68.269,196.438c-0.03,0-0.057,0.007-0.084,0.007c3.697,0.064,8.242,1.934,8.242,8.15
		c0,5.191-3.454,8.617-9.091,8.676c0.048,0,0.094,0.005,0.142,0.005c5.724,0,9.233-3.445,9.233-8.681
		C76.711,198.267,72,196.438,68.269,196.438z"/>
	<path fill="#B1D16F" d="M62.578,198.196c0.101-0.076,0.27-0.2,0.372-0.271l0.987-6.371h-0.284L62.578,198.196z"/>
	<path fill="#B1D16F" d="M67.447,210.323c0.061,0,0.12-0.004,0.179-0.005c-3.276-0.026-4.866-1.188-5.523-4.144h-0.284
		C62.484,209.163,64.095,210.323,67.447,210.323z"/>
	
		<rect x="73.255" y="189.84" transform="matrix(-0.0048 1 -1 -0.0048 265.2605 115.9857)" fill="#B1D16F" width="3.325" height="0.284"/>
	<path fill="#B1D16F" d="M62.31,201.693l0.268,0.019c1.226-1.672,3.136-2.276,5.066-2.313c-0.035-0.001-0.067-0.007-0.102-0.007
		C65.558,199.393,63.575,199.985,62.31,201.693z"/>
	<polygon fill="#5C7F34" points="63.638,191.645 63.66,191.462 74.782,191.462 74.782,191.645 	"/>
</g>
<g>
	<path fill="#FFFFFF" d="M108.276,191.798v2.765H95.167l-0.756,2.967h11.618l-2.778,12.983h5.632v2.763H86.378v-2.763h13.892
		l0.582-3.271H92.01l-0.404,1.675l-2.956-0.383l3.563-13.971h-5.431v-2.765H108.276z M102.114,200.292h-8.385l-1.038,4.184h8.665
		L102.114,200.292z"/>
	<polygon fill="none" points="92.538,204.549 101.202,204.549 101.958,200.363 93.576,200.363 	"/>
	<polygon fill="none" points="93.79,200.363 92.79,204.404 101.227,204.404 101.958,200.363 	"/>
	<polygon fill="#5C7F34" points="92.311,194.489 86.879,194.489 86.879,191.868 86.626,191.868 86.626,194.635 92.059,194.635 
		88.497,208.606 91.453,208.987 91.495,208.814 88.749,208.46 	"/>
	<polygon fill="#5C7F34" points="86.474,210.586 86.224,210.586 86.224,213.349 108.729,213.349 108.729,213.205 86.474,213.205 	
		"/>
	<polygon fill="#5C7F34" points="95.021,194.635 108.276,194.635 108.276,194.489 95.059,194.489 	"/>
	<polygon fill="#5C7F34" points="93.581,200.363 101.958,200.363 101.208,204.549 101.432,204.549 102.21,200.219 93.618,200.219 	
		"/>
	<polygon fill="#B1D16F" points="108.122,194.635 108.374,194.635 108.374,191.725 86.626,191.725 86.626,191.868 108.122,191.868 	
		"/>
	<polygon fill="#B1D16F" points="91.444,208.997 91.653,209.027 92.09,207.298 91.875,207.298 	"/>
	<polygon fill="#B1D16F" points="100.357,210.44 86.224,210.44 86.224,210.586 100.33,210.586 	"/>
	<polygon fill="#B1D16F" points="108.979,210.44 103.348,210.44 106.125,197.455 94.506,197.455 95.227,194.635 95.014,194.635 
		94.257,197.602 105.875,197.602 103.095,210.586 108.729,210.586 108.729,213.349 108.979,213.349 	"/>
	<polygon fill="#B1D16F" points="93.79,200.363 93.576,200.363 92.538,204.549 101.202,204.549 101.227,204.404 92.79,204.404 	"/>
	<polygon fill="#5C7F34" points="100.947,207.169 91.905,207.165 91.869,207.311 100.697,207.315 100.141,210.44 100.366,210.44 	
		"/>
</g>
<g>
	<path fill="#FFFFFF" d="M131.731,192.465c-1.628,0.203-3.307,0.405-5.063,0.559v1.145h5.063v2.469h-5.063v0.61h4.757v8.65h-4.757
		v0.788h4.274v2.393h-4.274v0.813c1.526-0.076,2.9-0.15,4.173-0.228l0.152,0.89c1.069-1.297,1.908-2.901,2.494-4.834
		c0.61-1.933,0.966-4.631,1.094-8.091h-2.34v-2.672h2.366v-4.579h2.977v4.579h3.994c-0.052,6.972-0.331,12.214-0.865,15.726
		c-0.152,0.788-0.534,1.424-1.095,1.908c-0.611,0.432-1.322,0.659-2.111,0.659c-0.584,0-1.247-0.101-2.009-0.304l-0.28-2.772
		c0.916,0.328,1.679,0.481,2.29,0.481c0.203,0,0.381-0.126,0.535-0.405c0.126-0.205,0.228-0.788,0.33-1.782
		c0.254-3.358,0.382-6.972,0.406-10.839h-1.221c-0.101,4.021-0.61,7.294-1.425,9.846c-0.718,2.249-1.891,4.145-3.392,5.62
		l-1.594-1.624l0.075,0.482c-3.561,0.383-7.53,0.712-11.907,0.993l-0.508-2.772c1.831-0.053,3.561-0.102,5.164-0.179v-0.916h-4.858
		v-2.393h4.858v-0.788h-4.858v-8.65h4.858v-0.61h-5.266v-2.469h5.266v-0.917c-1.398,0.129-2.823,0.23-4.274,0.307l-0.89-2.367
		c4.222-0.228,8.141-0.559,11.729-1.017L131.731,192.465z M123.971,200.428v-0.714h-2.187v0.714H123.971z M123.971,203.403v-0.687
		h-2.187v0.687H123.971z M126.668,200.428h2.086v-0.714h-2.086V200.428z M126.668,203.403h2.086v-0.687h-2.086V203.403z"/>
	<rect x="126.922" y="202.843" fill="none" width="1.833" height="0.435"/>
	<rect x="122.037" y="199.84" fill="none" width="1.934" height="0.462"/>
	<rect x="122.037" y="202.843" fill="none" width="1.934" height="0.435"/>
	<rect x="126.922" y="199.84" fill="none" width="1.833" height="0.462"/>
	<path fill="#5C7F34" d="M124.224,193.125c-1.399,0.129-2.823,0.229-4.274,0.307l-0.803-2.136c-0.3,0.017-0.13,0.011-0.34,0.021
		l0.89,2.367c1.451-0.076,2.875-0.178,4.274-0.307v0.917h0.253V193.125z"/>
	<polygon fill="#5C7F34" points="124.224,196.511 118.958,196.511 118.958,194.294 118.705,194.294 118.705,196.763 
		123.971,196.763 123.971,197.373 124.224,197.373 	"/>
	<polygon fill="#5C7F34" points="124.224,205.771 119.366,205.771 119.366,197.373 119.112,197.373 119.112,206.023 
		123.971,206.023 123.971,206.812 124.224,206.812 	"/>
	<path fill="#5C7F34" d="M131.146,211.47c-0.03,0.003,0.268,0.363,0.24,0.366l1.337,1.337c0.085-0.084,0.157-0.181,0.24-0.267
		l-1.905-1.917L131.146,211.47z"/>
	<path fill="#5C7F34" d="M119.105,210.289c-0.124,0.003-0.172,0.006-0.298,0.01l0.508,2.772c4.376-0.281,8.346-0.61,11.929-0.991
		l-0.035-0.222c-3.512,0.365-7.379,0.687-11.641,0.961L119.105,210.289z"/>
	<rect x="134.603" y="190.503" fill="#5C7F34" width="0.253" height="4.579"/>
	<rect x="126.668" y="208.951" fill="#5C7F34" width="4.274" height="0.253"/>
	<rect x="126.668" y="205.771" fill="#5C7F34" width="4.757" height="0.252"/>
	<rect x="126.668" y="196.511" fill="#5C7F34" width="5.063" height="0.252"/>
	<path fill="#5C7F34" d="M126.668,193.146c1.915-0.172,3.514-0.362,5.377-0.595l-0.108-0.209c-1.832,0.227-3.389,0.414-5.269,0.577
		V193.146z"/>
	<polygon fill="#5C7F34" points="121.784,202.843 123.971,202.843 123.971,203.529 124.224,203.529 124.224,202.591 
		121.784,202.591 	"/>
	<polygon fill="#5C7F34" points="128.754,200.554 129.007,200.554 129.007,199.588 126.668,199.588 126.668,199.84 128.754,199.84 	
		"/>
	<polygon fill="#5C7F34" points="121.784,199.84 123.971,199.84 123.971,200.554 124.224,200.554 124.224,199.588 121.784,199.588 	
		"/>
	<polygon fill="#5C7F34" points="128.754,203.529 129.007,203.529 129.007,202.591 126.668,202.591 126.668,202.843 
		128.754,202.843 	"/>
	<path fill="#5C7F34" d="M138.292,210.005c0.126-0.204,0.227-0.789,0.329-1.782c0.254-3.358,0.383-6.971,0.408-10.838l-1.476-0.012
		c-0.007,0.265,0.078,0.005,0.071,0.265l1.151-0.001c-0.024,3.867-0.153,7.479-0.408,10.838c-0.101,0.993-0.203,1.578-0.329,1.782
		c-0.02,0.035-0.043,0.048-0.064,0.079C138.088,210.273,138.197,210.178,138.292,210.005z"/>
	<polygon fill="#B1D16F" points="122.037,199.84 121.784,199.84 121.784,200.554 123.971,200.554 123.971,200.302 122.037,200.302 	
		"/>
	<polygon fill="#B1D16F" points="122.037,202.843 121.784,202.843 121.784,203.529 123.971,203.529 123.971,203.277 
		122.037,203.277 	"/>
	<polygon fill="#B1D16F" points="126.668,197.373 131.426,197.373 131.426,206.023 131.679,206.023 131.679,197.121 
		126.922,197.121 126.922,196.763 126.668,196.763 	"/>
	<polygon fill="#B1D16F" points="126.668,206.812 130.942,206.812 130.942,209.204 131.196,209.204 131.196,206.56 126.922,206.56 
		126.922,206.023 126.668,206.023 	"/>
	<path fill="#B1D16F" d="M137.836,194.83v-4.579h-3.23v0.252h2.976v4.579h3.992c-0.049,6.972-0.33,12.214-0.864,15.726
		c-0.126,0.665-0.427,1.214-0.851,1.661c0.002-0.003,0.006-0.003,0.01-0.005c0.562-0.484,0.945-1.12,1.096-1.908
		c0.532-3.512,0.814-8.754,0.864-15.726H137.836z"/>
	<path fill="#B1D16F" d="M126.668,210.017c1.526-0.076,2.9-0.15,4.173-0.228l0.152,0.89c0.085-0.101,0.16-0.22,0.241-0.326
		l-0.14-0.815c-1.273,0.077-2.647,0.151-4.173,0.228v-0.561h-0.253V210.017z"/>
	<path fill="#B1D16F" d="M126.668,194.294h5.063v2.469h0.253v-2.721h-5.063v-0.919c-0.087,0.01-0.168,0.02-0.253,0.026V194.294z"/>
	<rect x="132.24" y="194.83" fill="#B1D16F" width="2.366" height="0.252"/>
	<polygon fill="#B1D16F" points="128.754,200.302 126.922,200.302 126.922,199.84 126.668,199.84 126.668,200.554 128.754,200.554 	
		"/>
	<rect x="119.112" y="206.56" fill="#B1D16F" width="4.858" height="0.252"/>
	<path fill="#B1D16F" d="M131.222,211.952c0.065-0.008,0.153-0.058,0.218-0.064l-0.293-0.423L131.222,211.952z"/>
	<polygon fill="#B1D16F" points="128.754,203.277 126.922,203.277 126.922,202.843 126.668,202.843 126.668,203.529 
		128.754,203.529 	"/>
	<path fill="#B1D16F" d="M137.975,210.336c-0.07,0.038-0.141,0.159-0.217,0.159c-0.61,0-1.374-0.153-2.559-0.52l0.033,0.335
		c1.05,0.293,1.731,0.437,2.271,0.437C137.681,210.747,137.896,210.533,137.975,210.336z"/>
	<rect x="119.112" y="197.121" fill="#B1D16F" width="4.858" height="0.252"/>
	<path fill="#B1D16F" d="M123.971,209.878c-1.533,0.069-3.172,0.119-5.223,0.169l0.044,0.242c2.03-0.05,3.667-0.097,5.179-0.169
		V209.878z"/>
	<path fill="#B1D16F" d="M136.115,207.59c-0.719,2.113-1.792,3.873-3.169,5.306l0.013,0.014c1.501-1.475,2.647-3.332,3.41-5.571
		c0.821-2.488,1.296-5.694,1.426-9.965h-0.241C137.438,201.764,136.956,205.046,136.115,207.59z"/>
	<rect x="118.705" y="194.042" fill="#B1D16F" width="5.266" height="0.252"/>
	<path fill="#B1D16F" d="M131.622,192.381c0.12-0.015,0.244-0.026,0.362-0.042l-1.195-2.291c-3.588,0.458-7.861,0.806-12.085,1.036
		l0.103,0.232c4.091-0.228,8.239-0.571,11.729-1.016L131.622,192.381z"/>
	<polygon fill="#5C7F34" points="119.366,208.951 119.366,206.812 119.112,206.812 119.112,209.204 123.971,209.204 
		123.971,209.878 123.971,210.12 124.224,210.12 124.224,209.868 124.224,208.986 124.224,208.951 	"/>
	<path fill="#5C7F34" d="M133.668,205.6c0.612-1.932,0.968-4.631,1.094-8.09h-2.34v-2.42h-0.252v2.672h2.34
		c-0.128,3.46-0.484,6.158-1.095,8.09c-0.539,1.78-1.496,3.441-2.446,4.68l0.024,0.147
		C132.062,209.382,133.084,207.533,133.668,205.6z"/>
	<path fill="#5C7F34" d="M135.75,212.819l-0.273-2.758c-0.1-0.032-0.175-0.049-0.279-0.086l0.299,3.096
		c0.763,0.203,1.425,0.304,2.008,0.304c0.788,0,1.5-0.227,2.11-0.659c0.088-0.077,0.165-0.163,0.244-0.247
		c-0.609,0.427-1.316,0.654-2.1,0.654C137.175,213.123,136.513,213.021,135.75,212.819z"/>
</g>
<g>
	<path fill="#FFFFFF" d="M155.782,192.112v-1.706h2.8v1.706h2.467v1.501c0.407-0.535,0.815-1.07,1.196-1.604l2.392,1.298
		c-0.638,0.916-1.297,1.806-1.984,2.671h1.476v1.527c0.255-0.561,0.509-1.145,0.712-1.731c0.764-1.856,1.374-3.612,1.781-5.267
		l2.773,0.814c-0.279,1.119-0.586,2.188-0.917,3.256h5.699v2.902h-1.246c-0.279,2.085-0.764,4.12-1.448,6.105
		c-0.358,1.019-0.766,1.959-1.171,2.824c1.119,1.704,2.518,3.129,4.171,4.273l-1.807,2.799c-1.678-1.348-3.052-2.748-4.097-4.223
		c-0.102,0.128-0.176,0.229-0.252,0.331c-1.273,1.678-2.622,2.926-4.098,3.688l-1.577-2.493c1.374-0.788,2.595-1.883,3.638-3.308
		c0.23-0.305,0.433-0.61,0.638-0.915c-0.689-1.324-1.272-2.825-1.732-4.529c-0.126,0.229-0.252,0.433-0.355,0.61l-1.805-1.374v0.688
		c-1.119,1.323-2.395,2.468-3.867,3.434v0.483c1.576-0.203,3-0.432,4.272-0.66l0.408,2.594c-1.527,0.306-3.079,0.586-4.681,0.814
		v1.858c0,1.221-0.229,1.984-0.662,2.34c-0.51,0.433-1.35,0.661-2.519,0.661c-0.662,0-1.248-0.05-1.782-0.101l-0.509-2.9
		c0.764,0.279,1.527,0.406,2.291,0.406c0.102,0,0.202-0.051,0.304-0.153c0.052-0.151,0.102-0.431,0.102-0.839v-0.866
		c-1.451,0.204-2.951,0.408-4.476,0.562l-0.509-2.876c1.779-0.151,3.433-0.305,4.984-0.509v-2.876l1.272,0.104
		c0.662-0.383,1.246-0.814,1.807-1.298h-2.85c-1.272,1.019-2.57,1.984-3.919,2.9l-1.574-2.494c1.831-1.067,3.61-2.391,5.34-3.969
		h-5.061v-2.595h4.374v-1.298H152.5v-2.568H155.782z M160.187,194.681h-1.604v1.298h0.457
		C159.447,195.547,159.828,195.113,160.187,194.681z M163.619,198.573h-3.206c-0.383,0.434-0.764,0.84-1.144,1.196h3.689
		C163.187,199.361,163.416,198.98,163.619,198.573z M168.579,203.204c0.104-0.28,0.229-0.56,0.333-0.864
		c0.507-1.527,0.89-3.129,1.145-4.859h-2.646c-0.153,0.355-0.279,0.712-0.433,1.018C167.41,200.277,167.943,201.83,168.579,203.204z
		"/>
	<polygon fill="#5C7F34" points="160.416,198.596 160.668,198.32 163.873,198.32 163.098,199.77 162.959,199.77 163.619,198.573 	
		"/>
	<polygon fill="#5C7F34" points="163.038,200.799 163.035,201.271 164.84,202.645 165.02,202.336 	"/>
	<path fill="#B1D16F" d="M174.177,197.48v-2.902h-5.699c0,0,0.877-2.939,0.917-3.256l-2.773-0.814l0.067-0.293l2.958,0.854
		l-0.914,3.256h5.698v3.155H174.177z"/>
	<path fill="none" d="M160.436,198.573c-0.192,0.214-0.386,0.416-0.581,0.61c-0.108,0.117-0.22,0.223-0.331,0.332h3.574
		c0.18-0.313,0.36-0.621,0.521-0.942H160.436z"/>
	<path fill="none" d="M170.057,197.48h-2.496c-0.111,0.269-0.215,0.531-0.329,0.764c0.413,1.699,0.922,3.188,1.518,4.516
		c0.057-0.14,0.114-0.271,0.163-0.42C169.419,200.813,169.802,199.211,170.057,197.48z"/>
	<path fill="none" d="M159.265,195.725c0.318-0.347,0.632-0.695,0.922-1.044h-1.353v1.044H159.265z"/>
	<path fill="#5C7F34" d="M156.647,209.643v-0.866c-1.451,0.204-2.951,0.407-4.479,0.561l-0.47-2.649
		c-0.099,0.009-0.19,0.019-0.291,0.027l0.509,2.876c1.524-0.153,3.024-0.357,4.476-0.562v0.866c0,0.333-0.034,0.558-0.074,0.72
		c0.074-0.019,0.15-0.058,0.228-0.134C156.595,210.329,156.647,210.05,156.647,209.643z"/>
	<path fill="#5C7F34" d="M173.144,197.48h1.033v-0.253h-0.991C173.173,197.313,173.155,197.396,173.144,197.48z"/>
	<rect x="155.782" y="190.406" fill="#5C7F34" width="0.255" height="1.706"/>
	<polygon fill="#5C7F34" points="156.037,194.428 152.755,194.428 152.755,192.112 152.5,192.112 152.5,194.681 155.782,194.681 
		155.782,195.979 156.037,195.979 	"/>
	<path fill="#5C7F34" d="M151.66,198.32v-2.342h-0.252v2.595h5.023c0.097-0.087,0.195-0.166,0.292-0.253H151.66z"/>
	<path fill="#5C7F34" d="M167.664,197.228c-0.037,0.085-0.069,0.168-0.104,0.253h2.496c-0.255,1.73-0.638,3.332-1.145,4.859
		c-0.049,0.148-0.106,0.28-0.163,0.42c0.03,0.063,0.055,0.13,0.084,0.191c0.102-0.28,0.23-0.56,0.331-0.865
		c0.51-1.527,0.89-3.129,1.147-4.858H167.664z"/>
	<path fill="#5C7F34" d="M159.854,199.184c-0.11,0.112-0.222,0.229-0.333,0.332h0.002
		C159.635,199.406,159.746,199.301,159.854,199.184z"/>
	<path fill="#5C7F34" d="M162.944,210.597c-0.099,0.062-0.193,0.132-0.292,0.189l1.577,2.493c0.827-0.428,1.611-1.023,2.367-1.746
		c-0.677,0.612-1.379,1.113-2.113,1.492L162.944,210.597z"/>
	<path fill="#FFFFFF" d="M174.735,210.431c-1.653-1.146-3.053-2.57-4.172-4.274c0.407-0.864,0.813-1.805,1.171-2.823
		c0.657-1.904,1.125-3.856,1.409-5.853h-0.213c-0.279,2.085-0.764,4.12-1.448,6.105c-0.358,1.019-0.766,1.959-1.171,2.824
		c1.119,1.704,2.518,3.129,4.171,4.273l-1.611,2.496c0.021,0.017,0.04,0.034,0.06,0.05L174.735,210.431z"/>
	<rect x="152.5" y="191.858" fill="#B1D16F" width="3.282" height="0.254"/>
	<rect x="151.408" y="195.725" fill="#B1D16F" width="4.374" height="0.254"/>
	<path fill="#B1D16F" d="M158.582,192.112h2.467v1.501c0.086-0.113,0.168-0.227,0.254-0.34v-1.415h-2.469v-1.705h-3.052v0.253h2.8
		V192.112z"/>
	<path fill="#FFFFFF" d="M167.561,197.48h-0.15c-0.153,0.355-0.279,0.712-0.433,1.018c0.433,1.779,0.966,3.332,1.602,4.706
		c0.054-0.145,0.113-0.298,0.17-0.444c-0.596-1.328-1.104-2.816-1.518-4.516C167.346,198.012,167.449,197.749,167.561,197.48z"/>
	<path fill="#B1D16F" d="M162.652,195.979h1.476v1.527c0.087-0.189,0.171-0.385,0.255-0.578v-1.203h-1.479
		c0.689-0.864,1.35-1.754,1.984-2.67l-2.39-1.299c-0.066,0.093-0.141,0.186-0.207,0.278l2.345,1.273
		C163.999,194.224,163.34,195.113,162.652,195.979z"/>
	<path fill="#B1D16F" d="M159.168,210.481c0,1.049-0.181,1.741-0.502,2.146c0.027-0.021,0.066-0.037,0.092-0.06
		c0.433-0.355,0.662-1.119,0.662-2.34v-1.646c-0.084,0.013-0.168,0.028-0.252,0.041V210.481z"/>
	<path fill="#B1D16F" d="M156.291,210.734c0.01-0.028,0.018-0.082,0.027-0.119c-0.027,0.007-0.052,0.02-0.079,0.02
		c-0.764,0-1.527-0.127-2.288-0.406l0.076,0.376c0.657,0.206,1.3,0.283,1.96,0.283C156.089,210.888,156.189,210.837,156.291,210.734
		z"/>
	<path fill="#B1D16F" d="M159.27,199.77h3.689c0.047-0.087,0.092-0.17,0.139-0.254h-3.574
		C159.438,199.6,159.354,199.69,159.27,199.77z"/>
	<path fill="#B1D16F" d="M158.834,195.725v-1.044h-0.252v1.298h0.457c0.079-0.084,0.146-0.17,0.226-0.254H158.834z"/>
	<path fill="#B1D16F" d="M156.393,205.981c-1.48,0.188-3.339,0.38-5.026,0.524l0.042,0.209c1.665-0.144,3.521-0.316,4.984-0.509
		V205.981z"/>
	<polygon fill="#5C7F34" points="158.582,194.681 160.187,194.681 160.436,194.392 158.582,194.392 	"/>
	<polygon fill="#5C7F34" points="151.129,202.542 152.703,205.036 152.933,204.88 151.334,202.421 	"/>
	<path fill="#5C7F34" d="M152.703,205.036c0,0,2.459-1.681,3.919-2.9h2.85l0.218-0.191h-3.168c0,0-3.064,2.32-3.965,2.86
		L152.703,205.036z"/>
	<path fill="#5C7F34" d="M159.168,208.623c0,0,3.605-0.545,4.681-0.814l-0.029-0.171l-4.651,0.791V208.623z"/>
	<path fill="#5C7F34" d="M156.239,213.229c-0.66,0-1.245-0.051-1.779-0.102l-0.45-2.563l0,0l-0.059-0.337l-0.314-0.063l0.168,0.936
		l0.4,2.281c0.534,0.051,1.12,0.101,1.782,0.101c1.169,0,2.009-0.229,2.519-0.661c0.059-0.05,0.108-0.127,0.16-0.193
		C158.152,213.019,157.349,213.229,156.239,213.229z"/>
	<polygon fill="#B1D16F" points="159.168,205.665 159.168,205.875 163.44,205.215 163.849,207.809 164.066,207.753 163.592,204.986 
			"/>
	<path fill="#5C7F34" d="M165.195,202.034l0.21-0.36c0,0,1.056,3.581,1.742,4.551l-0.22,0.339
		C166.928,206.563,165.72,204.244,165.195,202.034z"/>
	<path fill="#5C7F34" d="M165.094,195.521c0.717-1.745,1.293-3.397,1.698-4.963l-0.171-0.051c-0.407,1.654-1.018,3.41-1.781,5.267
		c-0.134,0.388-0.547,1.352-0.712,1.731v0.23C164.383,197.177,164.889,196.108,165.094,195.521z"/>
	<path fill="#5C7F34" d="M172.931,213.229l-0.21,0.344c0,0-2.971-2.415-4.142-4.313l0.229-0.313
		C168.809,208.946,170.502,211.407,172.931,213.229z"/>
	<polygon fill="#5C7F34" points="156.393,203.33 156.393,206.206 156.15,206.237 156.178,203.318 	"/>
</g>
<g>
	<path fill="#FFFFFF" d="M191.895,192.388c-1.086,0.335-2.188,0.584-3.357,0.737l0.026,0.764h3.434v2.086h-3.385v0.687h3.385v2.086
		h-3.332l0.024,0.814h4.503l-0.89-1.501c0.535-0.229,1.044-0.482,1.552-0.763c-0.458-0.305-0.916-0.586-1.374-0.839l1.119-1.35
		c-0.151,0.075-0.279,0.128-0.407,0.178l-1.094-1.907c0.434-0.153,0.916-0.357,1.425-0.637c-0.457-0.253-0.89-0.509-1.322-0.737
		l1.373-1.705c0.688,0.356,1.374,0.765,2.036,1.171c0.534-0.382,1.017-0.765,1.449-1.171l1.681,1.399
		c-0.358,0.382-0.765,0.736-1.197,1.069c0.408,0.305,0.79,0.61,1.197,0.915l-1.095,1.221l1.095,1.273
		c-0.358,0.406-0.739,0.762-1.095,1.067c0.355,0.279,0.688,0.56,1.017,0.814l-1.347,1.501h4.655l0.051-0.814h-2.875v-2.086h2.978
		l0.024-0.788h-3.103v-2.087h3.204l0.025-0.788h-3.129v-2.393h5.776l-0.357,8.956h2.036v4.555h-2.671v-2.188H187.01v2.188h-2.671
		v-4.555h1.729l-0.33-8.55c1.73-0.15,3.333-0.456,4.86-0.915L191.895,192.388z M202.912,202.817v2.113
		c-1.374,0.813-2.672,1.526-3.893,2.086h7.582v2.366h-9.645v0.891c0,1.222-0.228,1.984-0.659,2.341
		c-0.46,0.433-1.273,0.661-2.417,0.661c-0.917,0-1.782-0.077-2.597-0.204l-0.481-2.874c1.017,0.33,2.035,0.483,3.078,0.483
		c0.076,0,0.151-0.051,0.227-0.153c0.053-0.152,0.078-0.432,0.078-0.839v-0.306h-9.746v-2.366h9.746v-1.398l2.441,0.178
		c0.586-0.255,1.145-0.51,1.706-0.788h-10.229v-2.19H202.912z M196.755,199.562c-0.356-0.305-0.688-0.584-1.019-0.891
		c-0.509,0.332-1.094,0.638-1.704,0.891H196.755z M195.865,195.975c0.331-0.255,0.636-0.509,0.941-0.814
		c-0.434-0.382-0.841-0.712-1.248-1.019c-0.534,0.307-1.017,0.561-1.476,0.764C194.693,195.262,195.305,195.619,195.865,195.975z"/>
	<g>
		<path fill="none" d="M195.567,194.149c-0.244,0.136-0.479,0.262-0.706,0.374c-0.179,0.096-0.351,0.177-0.521,0.258
			c0.591,0.343,1.181,0.689,1.724,1.032c0.255-0.203,0.5-0.411,0.743-0.653C196.374,194.781,195.973,194.453,195.567,194.149z"/>
		<path fill="#5C7F34" d="M185.996,190.978c-0.09,0.008-0.17,0.027-0.259,0.034l0.326,8.55h0.259L185.996,190.978z"/>
		<rect x="188.611" y="195.85" fill="#5C7F34" width="3.386" height="0.127"/>
		<rect x="188.666" y="198.62" fill="#5C7F34" width="3.331" height="0.127"/>
		<path fill="#5C7F34" d="M188.537,193.125c1.061-0.126,2.368-0.433,3.356-0.737l-0.029-0.052c-0.984,0.289-2.258,0.558-3.327,0.697
			V193.125z"/>
		<path fill="#5C7F34" d="M195.567,194.149c0.405,0.304,0.807,0.632,1.239,1.011c-0.243,0.242-0.688,0.61-0.941,0.814
			c0.017,0.011,0.04,0.024,0.058,0.036c0.331-0.255,0.832-0.673,1.137-0.978c-0.434-0.382-0.84-0.712-1.248-1.019
			C195.727,194.064,195.65,194.103,195.567,194.149z"/>
		<polygon fill="#5C7F34" points="202.529,192.87 199.4,192.87 199.4,190.605 199.146,190.605 199.146,192.998 202.275,192.998 
			202.253,193.786 202.503,193.786 		"/>
		<rect x="196.957" y="209.256" fill="#5C7F34" width="9.644" height="0.127"/>
		<path fill="#5C7F34" d="M192.454,191.878l1.224-1.52c-0.034-0.019-0.069-0.039-0.104-0.058l-1.374,1.705
			c0.433,0.229,0.863,0.484,1.32,0.736c0.086-0.043,0.168-0.078,0.256-0.126C193.319,192.362,192.887,192.106,192.454,191.878z"/>
		<path fill="#5C7F34" d="M197.113,190.346l-0.055-0.045c-0.374,0.352-1,0.84-1.448,1.171c0.015,0.01,0.07,0.021,0.087,0.031
			C196.153,191.177,196.731,190.688,197.113,190.346z"/>
		<path fill="#5C7F34" d="M192.557,197.935c-0.087,0.039-0.168,0.089-0.256,0.126l0.898,1.501h0.33L192.557,197.935z"/>
		<polygon fill="#5C7F34" points="202.401,195.746 199.299,195.746 199.299,193.786 199.046,193.786 199.046,195.873 
			202.147,195.873 202.126,196.661 202.377,196.661 		"/>
		<path fill="#5C7F34" d="M192.733,196.332l1.12-1.35c-0.152,0.075-0.279,0.127-0.408,0.178l-1.081-1.886
			c-0.088,0.033-0.182,0.075-0.266,0.105l1.093,1.907c0.128-0.05,0.257-0.103,0.407-0.178l-1.119,1.35
			c0.458,0.253,0.915,0.534,1.371,0.838c0.084-0.045,0.173-0.079,0.257-0.126C193.649,196.865,193.192,196.585,192.733,196.332z"/>
		<path fill="#5C7F34" d="M195.99,198.544c-0.076,0.048-0.162,0.092-0.24,0.14c0.279,0.258,0.564,0.499,0.987,0.878h0.4
			C196.652,199.129,196.321,198.85,195.99,198.544z"/>
		<path fill="#5C7F34" d="M194.361,210.399c0.052-0.151,0.078-0.431,0.078-0.839v-0.305h-9.746v-2.239h-0.254v2.366h9.745v0.306
			c0,0.407-0.024,0.687-0.077,0.839c-0.007,0.01-0.015,0.014-0.021,0.022c0.016,0,0.032,0.003,0.048,0.003
			C194.21,210.553,194.286,210.502,194.361,210.399z"/>
		<polygon fill="#5C7F34" points="194.439,205.637 194.185,205.618 194.185,207.017 194.439,207.017 		"/>
		<path fill="#5C7F34" d="M188.357,204.88v-2.063h-0.255v2.19h10.208c0.09-0.045,0.186-0.082,0.275-0.128H188.357z"/>
		<polygon fill="#5C7F34" points="202.274,198.62 199.4,198.62 199.4,196.661 199.146,196.661 199.146,198.747 202.021,198.747 
			201.963,199.562 202.209,199.562 		"/>
		<polygon fill="#5C7F34" points="204.184,201.801 187.01,201.801 187.01,201.928 203.929,201.928 203.929,204.116 206.601,204.116 
			206.601,203.989 204.184,203.989 		"/>
		<path fill="#5C7F34" d="M191.538,212.944l-0.449-2.678c-0.097-0.028-0.192-0.038-0.288-0.069l0.482,2.874
			c0.815,0.127,1.681,0.204,2.598,0.204c0.925,0,1.648-0.125,2.103-0.442c-0.465,0.201-1.073,0.315-1.85,0.315
			C193.217,213.148,192.352,213.071,191.538,212.944z"/>
		<polygon fill="#5C7F34" points="184.592,199.562 184.339,199.562 184.339,204.116 187.01,204.116 187.01,203.989 184.592,203.989 
					"/>
		<rect x="199.146" y="196.534" fill="#B1D16F" width="2.979" height="0.127"/>
		<path fill="#B1D16F" d="M198.331,205.008h-0.021c-0.471,0.229-0.938,0.447-1.43,0.66l-2.696-0.178v0.146l2.441,0.159
			C197.212,205.541,197.771,205.286,198.331,205.008z"/>
		<path fill="#B1D16F" d="M203.165,204.804v-2.113h-15.063v0.127h14.809v2.113c-1.374,0.813-2.672,1.526-3.893,2.086h7.582v2.366
			h0.255v-2.493h-7.583C200.494,206.329,201.791,205.616,203.165,204.804z"/>
		<path fill="#B1D16F" d="M196.957,210.273c0,1.222-0.228,1.984-0.659,2.341c-0.088,0.083-0.2,0.15-0.314,0.219
			c0.222-0.097,0.419-0.206,0.567-0.346c0.433-0.356,0.66-1.12,0.66-2.341v-0.764h-0.254V210.273z"/>
		<rect x="184.439" y="206.89" fill="#B1D16F" width="9.745" height="0.127"/>
		<rect x="199.046" y="193.659" fill="#B1D16F" width="3.207" height="0.127"/>
		<path fill="#B1D16F" d="M194.086,210.55c-1.026-0.006-2.321-0.218-3.322-0.543l0.039,0.19c0.94,0.318,2.133,0.483,3.078,0.483
			C193.949,210.681,194.018,210.634,194.086,210.55z"/>
		<path fill="#B1D16F" d="M191.895,192.388c0.096-0.028,0.168-0.067,0.273-0.101l-1.335-2.353c-1.527,0.46-3.366,0.833-5.096,0.983
			l0.001,0.094c1.625-0.133,3.412-0.479,4.86-0.915L191.895,192.388z"/>
		<path fill="#B1D16F" d="M194.031,199.562h2.724c-0.051-0.043-0.096-0.084-0.146-0.127h-2.304
			C194.212,199.476,194.125,199.523,194.031,199.562z"/>
		<rect x="187.01" y="201.928" fill="#B1D16F" width="0.254" height="2.188"/>
		<path fill="#B1D16F" d="M194.083,194.905c0.61,0.356,1.221,0.714,1.782,1.069c0.069-0.053,0.132-0.107,0.198-0.161
			c-0.543-0.343-1.133-0.689-1.724-1.032C194.256,194.821,194.166,194.868,194.083,194.905z"/>
		<polygon fill="#B1D16F" points="204.818,199.435 205.176,190.479 199.146,190.479 199.146,190.605 204.923,190.605 
			204.564,199.562 206.601,199.562 206.601,204.116 206.855,204.116 206.855,199.435 		"/>
		<rect x="184.339" y="199.436" fill="#B1D16F" width="1.725" height="0.128"/>
		<path fill="#B1D16F" d="M197.543,192.77c0.408,0.305,0.788,0.61,1.196,0.915l-1.095,1.221l1.095,1.273
			c-0.358,0.406-0.739,0.762-1.095,1.067c0.355,0.279,0.687,0.56,1.018,0.814l-1.347,1.501h4.653l0.009-0.127h-4.408l1.347-1.501
			c-0.33-0.255-0.661-0.535-1.018-0.814c0.356-0.306,0.737-0.661,1.096-1.068l-1.096-1.272l1.096-1.221
			c-0.408-0.306-0.79-0.61-1.198-0.916c0.433-0.332,0.84-0.687,1.198-1.068l-1.74-1.446c-0.096,0.091-0.099,0.09-0.194,0.174
			l1.68,1.399C198.381,192.082,197.976,192.437,197.543,192.77z"/>
		<polygon fill="#B1D16F" points="188.688,199.562 193.191,199.562 193.115,199.435 188.942,199.435 188.922,198.747 
			188.663,198.747 		"/>
		<path fill="#B1D16F" d="M188.563,193.889h3.435l-0.01,2.086h0.252l0.012-2.213h-3.435l-0.039-0.668
			c-0.087,0.014-0.152,0.021-0.24,0.031L188.563,193.889z"/>
		<polygon fill="#B1D16F" points="188.611,196.661 191.997,196.661 191.992,198.747 192.246,198.747 192.251,196.534 
			188.866,196.534 188.866,195.975 188.611,195.975 		"/>
		<path fill="#B1D16F" d="M195.816,191.316c-0.648-0.397-1.316-0.795-2.094-1.189l-0.151,0.186c0.759,0.39,1.41,0.773,2.039,1.159
			C195.682,191.42,195.746,191.368,195.816,191.316z"/>
	</g>
	<path fill="#5C7F34" d="M195.61,191.472l0.071,0.05l1.432-1.176l-0.055-0.045C197.059,190.301,195.969,191.219,195.61,191.472z"/>
</g>
<g>
	<path fill="#FFFFFF" d="M237.907,191.114v2.876h-8.346v8.548h9.644v2.876h-9.644v7.861h-3.181v-7.861h-9.44v-2.876h9.44v-8.548
		h-8.241v-2.876H237.907z M224.191,200.834l-2.976,1.298c-0.559-2.239-1.272-4.274-2.086-6.056l2.672-1.298
		C222.743,196.636,223.531,198.645,224.191,200.834z M236.813,195.669c-0.662,2.596-1.374,4.733-2.187,6.463l-2.877-1.477
		c0.917-2.011,1.602-3.994,2.086-5.979L236.813,195.669z"/>
	<g>
		<polygon fill="#5C7F34" points="226.762,205.286 217.321,205.286 217.321,202.538 216.94,202.538 216.94,205.414 226.381,205.414 
			226.381,213.275 229.562,213.275 229.562,213.148 226.762,213.148 		"/>
		
			<rect x="229.562" y="193.866" transform="matrix(-1 7.020552e-004 -7.020552e-004 -1 467.6049 387.6953)" fill="#5C7F34" width="8.346" height="0.127"/>
		<polygon fill="#5C7F34" points="226.762,193.863 218.518,193.863 218.518,191.114 218.14,191.114 218.14,193.99 226.381,193.99 
			226.381,202.538 226.762,202.538 		"/>
		<rect x="229.562" y="205.286" fill="#5C7F34" width="9.644" height="0.128"/>
		<path fill="#5C7F34" d="M219.509,195.948l2.315-1.123c-0.008-0.015-0.015-0.032-0.022-0.047l-2.672,1.298
			c0.813,1.781,1.527,3.816,2.086,6.056l0.371-0.162C221.028,199.746,220.319,197.722,219.509,195.948z"/>
		<path fill="#5C7F34" d="M234.151,194.781l-0.316-0.105c-0.484,1.985-1.169,3.969-2.086,5.979l2.877,1.477
			c0.039-0.083,0.074-0.179,0.113-0.263l-2.609-1.341C233.01,198.597,233.672,196.69,234.151,194.781z"/>
		<rect x="216.94" y="202.411" fill="#B1D16F" width="9.44" height="0.127"/>
		<path fill="#B1D16F" d="M236.813,195.669c-0.63,2.471-1.421,4.777-2.187,6.463l0.257,0.124c0.814-1.73,1.648-4.119,2.308-6.714
			l-3.291-1.099c-0.022,0.092-0.044,0.156-0.064,0.232L236.813,195.669z"/>
		<path fill="#B1D16F" d="M224.191,200.834c0.003,0.013,0.376-0.149,0.378-0.138l0.003,0.011c-0.66-2.189-1.451-4.198-2.39-6.056
			l-0.358,0.174C222.753,196.67,223.537,198.662,224.191,200.834L224.191,200.834z"/>
		<polygon fill="#B1D16F" points="237.907,193.99 238.286,193.99 238.286,190.987 218.14,190.987 218.14,191.114 237.907,191.114 		
			"/>
		<rect x="229.562" y="205.414" fill="#B1D16F" width="0.378" height="7.861"/>
		<polygon fill="#B1D16F" points="239.583,202.411 229.939,202.411 229.939,193.99 229.562,193.99 229.562,202.538 239.205,202.538 
			239.205,205.414 239.583,205.414 		"/>
	</g>
</g>
<g>
	<path fill="#FFFFFF" d="M261.556,191.114c-0.737,1.322-1.729,2.672-2.95,4.097c-0.713,0.865-1.425,1.603-2.138,2.239
		c3.46-0.152,6.614-0.356,9.413-0.585c-0.661-0.765-1.374-1.525-2.137-2.291l2.57-1.576c2.162,1.983,3.917,4.071,5.267,6.259
		l-2.877,1.679c-0.33-0.586-0.686-1.171-1.066-1.729c-5.19,0.584-10.916,1.067-17.124,1.449l-0.482-2.9
		c0.966-0.025,1.934-0.075,2.849-0.127c0.967-0.967,1.833-1.983,2.647-3.054c1.119-1.474,2.035-2.95,2.747-4.452L261.556,191.114z
		 M269.697,213.275h-2.874v-1.196H254.89v1.196h-2.876v-11.627h17.684V213.275z M266.823,209.383v-5.063H254.89v5.063H266.823z"/>
	<rect x="255.169" y="204.319" fill="none" width="11.654" height="4.88"/>
	<path fill="#5C7F34" d="M264.031,194.397l-0.287,0.177c0.712,0.715,1.513,1.577,2.137,2.291c0.136-0.011,0.247-0.042,0.382-0.054
		C265.604,196.05,264.791,195.16,264.031,194.397z"/>
	<path fill="#5C7F34" d="M268.983,200.752c-0.33-0.586-0.686-1.172-1.066-1.73c-5.19,0.585-10.916,1.068-17.124,1.449l-0.454-2.727
		c-0.103,0.002-0.205,0.009-0.308,0.011l0.482,2.9c6.208-0.382,11.934-0.865,17.124-1.449c0.381,0.559,0.736,1.144,1.066,1.729
		l2.877-1.679c-0.004-0.005-0.008-0.01-0.01-0.016L268.983,200.752z"/>
	<polygon fill="#5C7F34" points="267.103,211.895 254.89,211.9 254.89,212.084 266.823,212.079 266.823,213.275 269.697,213.275 
		269.697,213.091 267.103,213.091 	"/>
	<polygon fill="#5C7F34" points="254.89,204.14 254.89,204.324 266.823,204.319 266.818,209.383 267.098,209.383 267.103,204.135 	
		"/>
	<polygon fill="#5C7F34" points="252.293,201.648 252.014,201.648 252.014,213.275 254.89,213.275 254.89,213.091 252.293,213.091 	
		"/>
	<rect x="254.885" y="212.079" fill="#B1D16F" width="0.279" height="1.196"/>
	<path fill="#B1D16F" d="M253.046,197.45c-0.883,0.049-1.81,0.096-3.052,0.141l0.028,0.173c1.18-0.048,2.04-0.089,2.857-0.136
		C252.938,197.57,252.989,197.508,253.046,197.45z"/>
	<path fill="#B1D16F" d="M271.571,199.241l0.289-0.169c-1.35-2.188-3.104-4.275-5.267-6.259l-2.57,1.577
		c0.003,0.002,0.005,0.005,0.008,0.007l2.283-1.399C268.472,194.977,270.223,197.06,271.571,199.241z"/>
	<path fill="#B1D16F" d="M258.605,195.211c-0.713,0.865-1.425,1.603-2.138,2.239c3.46-0.152,6.614-0.356,9.413-0.585
		c-0.045-0.051-0.093-0.102-0.138-0.151c-2.696,0.215-5.703,0.407-8.996,0.552c0.713-0.636,1.425-1.374,2.138-2.239
		c1.221-1.424,2.213-2.773,2.95-4.096l-3.451-1.039c-0.037,0.079-0.071,0.153-0.109,0.23l3.281,0.992
		C260.818,192.437,259.826,193.786,258.605,195.211z"/>
	<polygon fill="#B1D16F" points="252.014,201.648 269.697,201.648 269.697,213.275 269.977,213.275 269.977,201.465 
		252.014,201.465 	"/>
	<polygon fill="#B1D16F" points="255.169,204.319 254.89,204.319 254.89,209.383 266.823,209.383 266.823,209.199 255.169,209.199 	
		"/>
	<path fill="#5C7F34" d="M258.435,190.171l-0.16-0.049c-0.712,1.502-1.628,2.979-2.747,4.452c-0.766,1.004-1.746,2.136-2.643,3.049
		c0.042-0.004,0.084-0.006,0.125-0.009c0.962-0.964,1.987-2.16,2.797-3.224C256.868,192.993,257.74,191.592,258.435,190.171z"/>
</g>
<polygon fill="#B1D16F" points="61.283,188.319 61.313,188.142 75.068,188.142 75.068,188.319 "/>
<path fill="#B1D16F" d="M62.103,206.175h-3.542c0,0,0-0.081,0-0.164h3.518C62.08,206.011,62.089,206.113,62.103,206.175z"/>
</svg>
