<svg width="25" height="25" xmlns="http://www.w3.org/2000/svg">
 <g>
  <title>Layer 1</title>
  <g id="svg_1">
   <path fill="#060001" d="m20.427,2.810999h-1.761h-1.762001h-1.761999h-1.762v1.763v1.76v1.764v1.759999v1.763h1.762h1.761999h1.762001v1.762h1.761v-1.762h1.761999v-1.763v-1.759999v-1.764v-1.76v-1.763h-1.761999l0,0zm0,3.522v1.764v1.759999h-1.761h-1.762001h-1.761999v-1.759999v-1.764v-1.76h1.761999h1.762001h1.761v1.76l0,0z" id="svg_2"/>
   <rect x="6.334" y="6.332999" fill="#060001" width="1.762" height="1.764" id="svg_3"/>
   <rect x="16.904" y="6.332999" fill="#060001" width="1.762" height="1.764" id="svg_4"/>
   <path fill="#060001" d="m11.619,8.097v-1.764v-1.76v-1.763h-1.762h-1.761001h-1.761999h-1.761h-1.762001v1.763v1.76v1.764v1.759999v1.763h1.762001h1.761h1.761999h1.761001h1.762v-1.763v-1.759999l0,0zm-3.523001,1.758999h-1.761999h-1.761v-1.759999v-1.764v-1.76h1.761h1.761999h1.761001v1.76v1.764v1.759999h-1.761001l0,0z" id="svg_5"/>
   <rect x="11.619" y="11.618999" fill="#060001" width="1.762" height="1.762" id="svg_6"/>
   <polygon fill="#060001" points="18.666000366210938,13.380999565124512 16.90399932861328,13.380999565124512 15.142999649047852,13.380999565124512 15.142999649047852,15.144000053405762 16.90399932861328,15.144000053405762 16.90399932861328,16.90299892425537 18.666000366210938,16.90299892425537 20.427001953125,16.90299892425537 20.427001953125,15.144000053405762 18.666000366210938,15.144000053405762 " id="svg_7"/>
   <rect x="20.427" y="13.380999" fill="#060001" width="1.762" height="1.763" id="svg_8"/>
   <rect x="13.381" y="15.143999" fill="#060001" width="1.762" height="1.76" id="svg_9"/>
   <path fill="#060001" d="m11.619,16.902998v-1.759999v-1.763h-1.762h-1.761001h-1.761999h-1.761h-1.762001v1.763v1.759999v1.764v1.760002v1.763h1.762001h1.761h1.761999h1.761001h1.762v-1.763v-1.760002h1.761999v-1.764h-1.761999l0,0zm-1.762,3.524002h-1.761001h-1.761999h-1.761v-1.760002v-1.764v-1.759999h1.761h1.761999h1.761001v1.759999v1.764v1.760002l0,0z" id="svg_10"/>
   <rect x="15.143" y="16.902999" fill="#060001" width="1.762" height="1.764" id="svg_11"/>
   <rect x="6.334" y="16.902999" fill="#060001" width="1.762" height="1.764" id="svg_12"/>
   <polygon fill="#060001" points="13.381000518798828,20.427000999450684 13.381000518798828,22.188998222351074 15.142999649047852,22.188998222351074 15.142999649047852,20.427000999450684 15.142999649047852,18.666998863220215 13.381000518798828,18.666998863220215 " id="svg_13"/>
   <polygon fill="#060001" points="20.427001953125,20.427000999450684 18.666000366210938,20.427000999450684 18.666000366210938,18.666998863220215 16.90399932861328,18.666998863220215 16.90399932861328,20.427000999450684 16.90399932861328,22.188998222351074 18.666000366210938,22.188998222351074 20.427001953125,22.188998222351074 22.187999725341797,22.188998222351074 22.187999725341797,20.427000999450684 22.187999725341797,18.666998863220215 22.187999725341797,16.90299892425537 20.427001953125,16.90299892425537 20.427001953125,18.666998863220215 " id="svg_14"/>
  </g>
 </g>
</svg>