<?xml version="1.0" encoding="utf-8"?>
<!-- Generator: Adobe Illustrator 15.1.0, SVG Export Plug-In . SVG Version: 6.00 Build 0)  -->
<!DOCTYPE svg PUBLIC "-//W3C//DTD SVG 1.1//EN" "http://www.w3.org/Graphics/SVG/1.1/DTD/svg11.dtd">
<svg version="1.1" id="圖層_1" xmlns="http://www.w3.org/2000/svg" xmlns:xlink="http://www.w3.org/1999/xlink" x="0px" y="0px"
	 width="30px" height="30px" viewBox="0 0 30 30" enable-background="new 0 0 30 30" xml:space="preserve">
<g>
	<path fill="#00BDFF" d="M19.419,19.915c-0.287-0.425-0.135-0.591-0.026-0.649c0.026-0.014,0.149-0.059,0.478-0.014l0.001-0.001
		c0.549,0.086,1.102-0.065,1.492-0.465c0.676-0.693,0.596-1.865-0.178-2.619c-0.771-0.753-1.947-0.802-2.623-0.108
		c-0.408,0.418-0.539,1.017-0.406,1.588l-0.002,0.002c0,0,0.003,0.007,0.005,0.017c0.005,0.012,0.009,0.03,0.013,0.053
		c0.021,0.107,0.039,0.306-0.138,0.339c-0.669,0.057-3.188-2.578-3.357-2.771c0,0-1.859,3.25-2.854,3.046
		c-0.135-0.045-0.127-0.201-0.103-0.318c0.014-0.039,0.023-0.076,0.034-0.115c0.004-0.01,0.006-0.016,0.006-0.016l-0.001-0.003
		c0.143-0.553,0.04-1.133-0.333-1.56c-0.642-0.725-1.828-0.723-2.65,0.004c-0.823,0.727-0.971,1.902-0.33,2.628
		c0.371,0.421,0.925,0.596,1.486,0.528h0.003c0,0,0.017-0.002,0.037-0.006c0.013-0.002,0.026-0.005,0.046-0.009
		c0.139-0.015,0.405-0.014,0.484,0.214c0.04,0.19-0.038,0.473-0.362,0.898c0,0-0.956,0.934-1.846,1.633l6.279,6.277
		c0.198,0.197,0.519,0.197,0.717,0l6.321-6.32C20.445,21.299,19.419,19.915,19.419,19.915z"/>
	<path fill="none" d="M16.668,13.549c-0.053,0.051-0.104,0.103-0.156,0.154C16.563,13.651,16.615,13.601,16.668,13.549z"/>
	<path fill="none" d="M17.08,13.117c-0.047,0.052-0.094,0.104-0.143,0.155C16.986,13.222,17.033,13.169,17.08,13.117z"/>
	<path fill="none" d="M16.896,13.315c-0.058,0.061-0.117,0.123-0.18,0.183C16.779,13.438,16.84,13.376,16.896,13.315z"/>
	<path fill="none" d="M16.473,13.739c-0.063,0.061-0.123,0.119-0.187,0.177C16.35,13.858,16.41,13.8,16.473,13.739z"/>
	<path fill="none" d="M16.229,13.967c-0.056,0.053-0.11,0.104-0.164,0.152C16.118,14.07,16.174,14.02,16.229,13.967z"/>
	<path fill="none" d="M16.035,14.146c-0.063,0.057-0.124,0.11-0.186,0.165C15.911,14.256,15.975,14.202,16.035,14.146z"/>
	<path fill="none" d="M17.854,11.927c-0.008,0.048-0.024,0.099-0.045,0.148C17.828,12.025,17.846,11.975,17.854,11.927z"/>
	<path fill="none" d="M17.707,12.289c-0.025,0.049-0.059,0.101-0.094,0.152C17.648,12.39,17.682,12.338,17.707,12.289z"/>
	<path fill="none" d="M17.793,12.111c-0.021,0.053-0.046,0.104-0.075,0.158C17.747,12.215,17.771,12.164,17.793,12.111z"/>
	<path fill="none" d="M17.438,12.691c-0.039,0.049-0.08,0.104-0.123,0.155C17.357,12.795,17.398,12.74,17.438,12.691z"/>
	<path fill="none" d="M17.587,12.482c-0.037,0.058-0.079,0.115-0.123,0.175C17.508,12.598,17.55,12.54,17.587,12.482z"/>
	<path fill="none" d="M17.277,12.892c-0.051,0.06-0.102,0.119-0.155,0.181C17.177,13.011,17.229,12.951,17.277,12.892z"/>
	<path fill="none" d="M15.216,14.852c-0.044,0.035-0.087,0.069-0.126,0.102C15.129,14.921,15.172,14.887,15.216,14.852z"/>
	<path fill="none" d="M15.598,14.531c-0.053,0.045-0.104,0.088-0.156,0.131C15.492,14.619,15.545,14.576,15.598,14.531z"/>
	<path fill="none" d="M15.396,14.7c-0.053,0.046-0.105,0.088-0.153,0.128C15.291,14.788,15.344,14.746,15.396,14.7z"/>
	<path fill="none" d="M15.797,14.357c-0.061,0.052-0.117,0.103-0.175,0.15C15.68,14.46,15.736,14.409,15.797,14.357z"/>
	<path fill="#CB1212" d="M28.912,14.149l-6.569-6.572c-0.474,0.727-2.366,2.645-2.366,2.645c-0.445,0.539-0.735,0.577-0.912,0.488
		c-0.254-0.173-0.279-0.89-0.279-0.89h-0.002c0.005-0.417-0.139-0.82-0.438-1.122c-0.641-0.649-1.744-0.595-2.468,0.119
		c-0.724,0.714-0.792,1.819-0.149,2.466c0.402,0.409,0.99,0.538,1.554,0.399l0,0c0,0,0.581-0.184,0.571,0.244
		c-0.008,0.048-0.024,0.099-0.045,0.148c-0.006,0.012-0.01,0.025-0.016,0.036c-0.021,0.053-0.046,0.104-0.075,0.158
		c-0.002,0.007-0.007,0.012-0.011,0.02c-0.025,0.049-0.059,0.101-0.094,0.152c-0.008,0.015-0.018,0.028-0.026,0.041
		c-0.037,0.058-0.079,0.115-0.123,0.175c-0.009,0.011-0.017,0.021-0.026,0.034c-0.039,0.049-0.08,0.104-0.123,0.155
		c-0.013,0.016-0.023,0.03-0.035,0.045c-0.051,0.06-0.102,0.119-0.156,0.181c-0.014,0.016-0.027,0.029-0.042,0.045
		c-0.047,0.052-0.095,0.104-0.144,0.155c-0.015,0.015-0.026,0.029-0.041,0.043c-0.057,0.061-0.117,0.123-0.179,0.183
		c-0.017,0.018-0.032,0.034-0.05,0.051c-0.053,0.052-0.104,0.103-0.156,0.154c-0.014,0.012-0.025,0.025-0.039,0.036
		c-0.063,0.061-0.123,0.119-0.187,0.177c-0.019,0.018-0.038,0.035-0.058,0.051c-0.056,0.053-0.11,0.104-0.164,0.152
		c-0.01,0.01-0.021,0.018-0.029,0.026c-0.063,0.057-0.124,0.11-0.186,0.165c-0.019,0.017-0.035,0.031-0.054,0.047
		c-0.06,0.052-0.118,0.103-0.175,0.15c-0.008,0.008-0.016,0.015-0.025,0.023c-0.052,0.045-0.104,0.088-0.155,0.131
		c-0.015,0.014-0.03,0.024-0.045,0.038c-0.053,0.046-0.105,0.088-0.153,0.128c-0.01,0.008-0.019,0.016-0.027,0.023
		c-0.044,0.035-0.087,0.069-0.126,0.102c-0.006,0.005-0.011,0.011-0.016,0.015c0,0-0.388,0.337-0.14,0.589h-0.002
		c0.694,0.719,2.542,2.547,3.101,2.5c0.177-0.033,0.16-0.231,0.138-0.34c-0.004-0.017-0.008-0.035-0.013-0.053
		c-0.002-0.01-0.006-0.018-0.006-0.018h0.002c-0.133-0.572-0.002-1.17,0.408-1.588c0.674-0.694,1.851-0.646,2.623,0.107
		c0.771,0.754,0.853,1.926,0.176,2.619c-0.391,0.398-0.942,0.551-1.491,0.465l-0.001,0.001c-0.327-0.045-0.45,0-0.477,0.013
		c-0.108,0.061-0.262,0.227,0.025,0.65c0,0,1.027,1.384,2.191,2.252l7.302-7.301C29.109,14.667,29.109,14.347,28.912,14.149z"/>
	<path fill="#35A8C6" d="M17.464,12.657c-0.009,0.011-0.017,0.022-0.026,0.034C17.447,12.68,17.455,12.668,17.464,12.657z"/>
	<path fill="#35A8C6" d="M17.718,12.27c-0.002,0.007-0.007,0.012-0.011,0.02C17.711,12.281,17.716,12.276,17.718,12.27z"/>
	<path fill="#35A8C6" d="M17.314,12.847c-0.014,0.016-0.024,0.03-0.037,0.045C17.29,12.877,17.302,12.862,17.314,12.847z"/>
	<path fill="#35A8C6" d="M17.613,12.441c-0.008,0.015-0.018,0.028-0.026,0.041C17.596,12.47,17.605,12.456,17.613,12.441z"/>
	<path fill="#35A8C6" d="M15.85,14.311c-0.018,0.017-0.033,0.031-0.053,0.047C15.814,14.342,15.832,14.327,15.85,14.311z"/>
	<path fill="#5BC421" d="M15.29,0.526c-0.198-0.198-0.519-0.198-0.717,0L7.267,7.834c0.68,0.954,2.108,2.83,2.896,2.951
		c0.524-0.07,0.359-0.658,0.359-0.658l0.001-0.002c-0.094-0.475,0.007-0.961,0.323-1.336c0.586-0.696,1.691-0.729,2.469-0.073
		c0.776,0.655,0.931,1.75,0.343,2.446c-0.347,0.41-0.873,0.588-1.406,0.533c0,0.001,0,0.003,0,0.003s-0.762-0.032-0.746,0.523
		c0,0.002,0,0.003,0,0.005l0.003,0.011c0.007,0.071,0.023,0.147,0.058,0.234c0,0,0.895,1.324,3.077,2.791l0,0l0.29,0.294h0.002
		c-0.248-0.252,0.14-0.59,0.14-0.59c0.005-0.004,0.01-0.01,0.016-0.015c0.039-0.032,0.082-0.066,0.126-0.102
		c0.009-0.008,0.018-0.016,0.027-0.023c0.048-0.04,0.101-0.082,0.153-0.128c0.015-0.012,0.03-0.024,0.045-0.038
		c0.051-0.043,0.104-0.086,0.155-0.131c0.012-0.009,0.019-0.016,0.025-0.023c0.057-0.048,0.115-0.099,0.175-0.15
		c0.019-0.016,0.035-0.03,0.054-0.047c0.062-0.055,0.123-0.108,0.186-0.165c0.009-0.009,0.02-0.017,0.029-0.026
		c0.054-0.049,0.108-0.1,0.164-0.152c0.02-0.016,0.039-0.033,0.058-0.051c0.063-0.058,0.124-0.116,0.187-0.177
		c0.014-0.011,0.025-0.024,0.039-0.036c0.053-0.052,0.104-0.104,0.156-0.154c0.018-0.017,0.033-0.033,0.051-0.051
		c0.062-0.06,0.121-0.122,0.178-0.183c0.015-0.014,0.026-0.028,0.041-0.043c0.049-0.051,0.097-0.104,0.144-0.155
		c0.015-0.016,0.028-0.029,0.042-0.045c0.055-0.063,0.105-0.121,0.156-0.181c0.012-0.015,0.023-0.029,0.035-0.045
		c0.043-0.052,0.084-0.106,0.123-0.155c0.011-0.012,0.019-0.023,0.026-0.034c0.044-0.06,0.086-0.117,0.123-0.175
		c0.009-0.013,0.019-0.026,0.027-0.041c0.034-0.052,0.065-0.104,0.093-0.152c0.004-0.008,0.009-0.013,0.012-0.02
		c0.028-0.055,0.053-0.105,0.074-0.158c0.006-0.011,0.01-0.024,0.016-0.036c0.021-0.05,0.037-0.101,0.045-0.148
		c0.011-0.428-0.571-0.244-0.571-0.244l0,0c-0.563,0.139-1.15,0.01-1.554-0.399c-0.643-0.646-0.573-1.752,0.149-2.466
		c0.724-0.714,1.827-0.769,2.468-0.119C18.645,9,18.787,9.403,18.782,9.82h0.002c0,0,0.026,0.717,0.278,0.89
		c0.178,0.089,0.467,0.051,0.912-0.488c0,0,1.895-1.918,2.367-2.645L15.29,0.526z"/>
	<path fill="#35A8C6" d="M17.809,12.075c-0.006,0.012-0.01,0.025-0.016,0.036C17.799,12.101,17.803,12.087,17.809,12.075z"/>
	<path fill="#35A8C6" d="M15.622,14.508c-0.009,0.008-0.015,0.015-0.024,0.023C15.607,14.522,15.613,14.516,15.622,14.508z"/>
	<path fill="#35A8C6" d="M16.512,13.703c-0.014,0.012-0.025,0.025-0.039,0.036C16.484,13.729,16.498,13.715,16.512,13.703z"/>
	<path fill="#35A8C6" d="M16.286,13.916c-0.019,0.018-0.038,0.035-0.058,0.051C16.248,13.951,16.268,13.934,16.286,13.916z"/>
	<path fill="#35A8C6" d="M16.064,14.119c-0.01,0.01-0.021,0.018-0.029,0.026C16.044,14.137,16.055,14.129,16.064,14.119z"/>
	<path fill="#35A8C6" d="M16.718,13.498c-0.017,0.018-0.032,0.034-0.05,0.051C16.686,13.532,16.701,13.516,16.718,13.498z"/>
	<path fill="#35A8C6" d="M15.243,14.828c-0.01,0.008-0.019,0.016-0.027,0.023C15.225,14.844,15.233,14.836,15.243,14.828z"/>
	<path fill="#35A8C6" d="M16.938,13.272c-0.015,0.015-0.026,0.029-0.041,0.043C16.91,13.302,16.923,13.287,16.938,13.272z"/>
	<path fill="#35A8C6" d="M17.122,13.072c-0.015,0.016-0.026,0.029-0.042,0.045C17.096,13.102,17.107,13.088,17.122,13.072z"/>
	<path fill="#35A8C6" d="M15.441,14.662c-0.015,0.014-0.03,0.026-0.045,0.038C15.411,14.687,15.427,14.676,15.441,14.662z"/>
	<path fill="#A60070" d="M14.411,14.872c0,0-2.865-1.94-2.902-2.715c0.044-0.487,0.742-0.459,0.742-0.459s0-0.002,0-0.003
		c0.533,0.055,1.06-0.123,1.406-0.533c0.588-0.696,0.434-1.791-0.343-2.446c-0.777-0.655-1.883-0.623-2.469,0.073
		c-0.316,0.375-0.417,0.861-0.323,1.336l-0.001,0.002c0,0,0.165,0.588-0.359,0.658c-0.787-0.121-2.216-1.997-2.896-2.951
		l-6.315,6.315c-0.198,0.197-0.198,0.518,0,0.717l7.343,7.344c0.89-0.699,1.846-1.633,1.846-1.633
		c0.324-0.427,0.402-0.708,0.362-0.897c-0.079-0.229-0.346-0.229-0.484-0.215c-0.016,0.004-0.03,0.008-0.046,0.008
		c-0.021,0.004-0.037,0.008-0.037,0.008l-0.003-0.002c-0.562,0.067-1.115-0.106-1.486-0.527c-0.641-0.725-0.493-1.901,0.33-2.628
		c0.822-0.726,2.009-0.729,2.65-0.003c0.373,0.426,0.476,1.006,0.333,1.559l0.001,0.003c0,0-0.002,0.005-0.006,0.015
		c-0.011,0.039-0.021,0.078-0.034,0.115c-0.022,0.105-0.024,0.239,0.073,0.301c-0.001,0.002-0.002,0.004-0.002,0.004
		c0.005,0,0.008,0,0.013,0.002c0.007,0.005,0.011,0.011,0.019,0.014c0.069,0.016,0.146,0.009,0.226-0.009
		c0.517-0.091,1.176-0.738,1.71-1.368v0.002c0.562-0.586,0.9-1.128,1.021-1.334c0.019-0.023,0.036-0.053,0.05-0.085
		c0-0.002,0.001-0.004,0.001-0.004l0,0C14.892,15.382,14.87,15.145,14.411,14.872z"/>
</g>
</svg>
