<?xml version="1.0" encoding="utf-8"?>
<!-- Generator: Adobe Illustrator 16.0.0, SVG Export Plug-In . SVG Version: 6.00 Build 0)  -->
<!DOCTYPE svg PUBLIC "-//W3C//DTD SVG 1.1//EN" "http://www.w3.org/Graphics/SVG/1.1/DTD/svg11.dtd">
<svg version="1.1" id="圖層_1" xmlns="http://www.w3.org/2000/svg" xmlns:xlink="http://www.w3.org/1999/xlink" x="0px" y="0px"
	 width="30px" height="30px" viewBox="0 0 30 30" enable-background="new 0 0 30 30" xml:space="preserve">
<g>
	<g>
		<polygon fill="#EDE0B7" points="25.461,27.492 6.339,27.492 6.339,2.361 18.469,2.361 25.461,9.569 		"/>
		<polygon fill="#CEC3A7" points="18.469,2.361 25.461,9.569 18.469,9.569 		"/>
	</g>
	<rect x="8.074" y="23.302" fill="#B0AEB0" width="15.65" height="0.44"/>
	<rect x="8.074" y="19.991" fill="#B0AEB0" width="15.65" height="0.44"/>
	<rect x="8.074" y="16.688" fill="#B0AEB0" width="15.65" height="0.435"/>
	<rect x="8.074" y="13.376" fill="#B0AEB0" width="15.65" height="0.438"/>
	<g>
		<polygon fill="#D0A17C" points="10.318,20.046 5.616,28.121 0.915,20.046 2.903,15.904 8.646,14.971 		"/>
		<polygon fill="#303233" points="3.502,24.673 5.535,28.104 7.569,24.673 		"/>
		<path fill="#D2555F" d="M10.301,5.185c0,1.029-0.834,1.864-1.863,1.864H2.766C1.734,7.049,0.9,6.214,0.9,5.185V1.864
			C0.9,0.835,1.734,0,2.766,0h5.671c1.03,0,1.864,0.835,1.864,1.864V5.185z"/>
		<polygon fill="#A1887F" points="10.301,19.975 5.601,19.975 0.9,19.975 0.9,4.7 10.301,4.7 		"/>
		<polygon fill="#9A999B" points="10.301,4.7 5.601,4.7 0.9,4.7 0.9,2.349 10.301,2.349 		"/>
		<polygon fill="#8D6E63" points="7.951,19.975 5.601,19.975 3.252,19.975 3.252,4.7 7.951,4.7 		"/>
	</g>
	<g>
		<polygon fill="#FBC02D" points="20.878,14.179 18.507,19.389 12.858,20.222 17.064,24.277 15.909,30 20.878,27.298 23.08,22.727 
					"/>
		<polygon fill="#F9CE1D" points="20.878,14.179 23.386,19.389 29.1,20.222 24.929,24.277 25.961,30 20.878,27.298 		"/>
	</g>
</g>
</svg>
