<?xml version="1.0" encoding="utf-8"?>
<!-- Generator: Adobe Illustrator 16.0.0, SVG Export Plug-In . SVG Version: 6.00 Build 0)  -->
<!DOCTYPE svg PUBLIC "-//W3C//DTD SVG 1.1//EN" "http://www.w3.org/Graphics/SVG/1.1/DTD/svg11.dtd">
<svg version="1.1" id="圖層_1" xmlns="http://www.w3.org/2000/svg" xmlns:xlink="http://www.w3.org/1999/xlink" x="0px" y="0px"
	 width="30px" height="30px" viewBox="0 0 30 30" enable-background="new 0 0 30 30" xml:space="preserve">
<g>
	<g>
		<g>
			<polygon fill="#D3D3D3" points="22.582,29.22 3.886,25.204 9.165,0.634 21.027,3.184 27.86,4.651 			"/>
			<polygon fill="#EAE9E9" points="24.567,27.732 5.527,25.969 7.849,0.945 19.929,2.064 26.892,2.71 			"/>
			
				<rect x="7.591" y="22.68" transform="matrix(0.9957 0.0925 -0.0925 0.9957 2.1839 -1.3276)" fill="#B0AEB0" width="15.649" height="0.44"/>
			
				<rect x="7.897" y="19.382" transform="matrix(0.9957 0.0924 -0.0924 0.9957 1.8775 -1.3682)" fill="#B0AEB0" width="15.65" height="0.44"/>
			
				<rect x="8.204" y="16.089" transform="matrix(0.9957 0.0925 -0.0925 0.9957 1.5781 -1.4134)" fill="#B0AEB0" width="15.648" height="0.437"/>
			
				<rect x="8.51" y="12.794" transform="matrix(0.9957 0.0924 -0.0924 0.9957 1.2721 -1.4534)" fill="#B0AEB0" width="15.65" height="0.439"/>
		</g>
		<g>
			<path fill="#4D5E75" d="M23.226,26.003c0,1.213-0.983,2.194-2.194,2.194H4.27c-1.212,0-2.194-0.981-2.194-2.194V2.193
				C2.075,0.983,3.058,0,4.27,0h16.762c1.211,0,2.194,0.983,2.194,2.193V26.003z"/>
			<rect x="6.775" fill="#CFD8DC" width="2.35" height="28.197"/>
			<polygon fill="#E57373" points="19.698,9.751 16.763,7.742 13.825,9.751 13.825,0 19.698,0 			"/>
		</g>
	</g>
	<g>
		<polygon fill="#FBC02D" points="19.698,14.179 17.327,19.389 11.682,20.223 15.888,24.273 14.734,30 19.698,27.297 21.9,22.726 		
			"/>
		<polygon fill="#F9CE1D" points="19.698,14.179 22.211,19.389 27.925,20.223 23.754,24.273 24.786,30 19.698,27.297 		"/>
	</g>
</g>
</svg>
