<?xml version="1.0" encoding="utf-8"?>
<!-- Generator: Adobe Illustrator 16.0.0, SVG Export Plug-In . SVG Version: 6.00 Build 0)  -->
<!DOCTYPE svg PUBLIC "-//W3C//DTD SVG 1.1//EN" "http://www.w3.org/Graphics/SVG/1.1/DTD/svg11.dtd">
<svg version="1.1" xmlns="http://www.w3.org/2000/svg" xmlns:xlink="http://www.w3.org/1999/xlink" x="0px" y="0px" width="25px"
	 height="25px" viewBox="0 0 25 25" enable-background="new 0 0 25 25" xml:space="preserve">
<g id="首頁BK" display="none">
</g>
<g id="首頁UI__x26__logo" display="none">
</g>
<g id="內頁_x5F_左">
</g>
<g id="內頁">
</g>
<g id="Easy_我的作品">
</g>
<g id="EASY_雲端作品庫" display="none">
</g>
<g id="福利中心頁_x5F_bk" display="none">
</g>
<g id="兌換商品" display="none">
</g>
<g id="版型下載" display="none">
</g>
<g id="Top_banner_1_">
	<g>
		<rect fill="none" width="25" height="25"/>
		<g>
			<circle fill="#FFFFFF" cx="12.5" cy="12.5" r="12.5"/>
			<g>
				<linearGradient id="SVGID_1_" gradientUnits="userSpaceOnUse" x1="8.9111" y1="12.5" x2="16.0889" y2="12.5">
					<stop  offset="0" style="stop-color:#CCCC99"/>
					<stop  offset="1" style="stop-color:#999966"/>
				</linearGradient>
				<path fill="url(#SVGID_1_)" d="M12.323,15.643H10.91v-0.781c0-0.614,0.115-1.148,0.344-1.604
					c0.229-0.456,0.713-0.975,1.451-1.557c0.737-0.577,1.231-1.094,1.483-1.553c0.25-0.459,0.376-0.97,0.376-1.535
					c0-0.651-0.228-1.185-0.684-1.604c-0.455-0.418-1.077-0.628-1.864-0.628c-1.153,0-2.188,0.44-3.105,1.32V6.047
					c1.066-0.651,2.182-0.977,3.348-0.977c1.171,0,2.103,0.316,2.793,0.949c0.691,0.632,1.037,1.454,1.037,2.464
					c0,0.682-0.157,1.313-0.469,1.892c-0.314,0.58-0.892,1.235-1.734,1.966c-0.614,0.508-1.028,0.921-1.241,1.237
					c-0.215,0.316-0.321,0.756-0.321,1.32V15.643z M11.617,17.753c0.291,0,0.54,0.105,0.749,0.316
					c0.206,0.21,0.311,0.468,0.311,0.771c0,0.292-0.103,0.545-0.307,0.763c-0.205,0.217-0.456,0.325-0.753,0.325
					c-0.304,0-0.562-0.107-0.772-0.321c-0.21-0.214-0.315-0.469-0.315-0.767c0-0.31,0.107-0.568,0.32-0.776
					C11.064,17.857,11.319,17.753,11.617,17.753z"/>
			</g>
		</g>
	</g>
</g>
<g id="商品說明" display="none">
</g>
<g id="填寫兌換頁" display="none">
</g>
<g id="會員資料" display="none">
</g>
<g id="集到先師" display="none">
</g>
<g id="Play" display="none">
</g>
<g id="製作頁" display="none">
</g>
<g id="pop_up" display="none">
</g>
<g id="guide" display="none">
</g>
</svg>
