<?xml version="1.0" encoding="utf-8"?>
<!-- Generator: Adobe Illustrator 16.0.0, SVG Export Plug-In . SVG Version: 6.00 Build 0)  -->
<!DOCTYPE svg PUBLIC "-//W3C//DTD SVG 1.1//EN" "http://www.w3.org/Graphics/SVG/1.1/DTD/svg11.dtd">
<svg version="1.1" id="圖層_1" xmlns="http://www.w3.org/2000/svg" xmlns:xlink="http://www.w3.org/1999/xlink" x="0px" y="0px"
	 width="30px" height="30px" viewBox="0 0 30 30" enable-background="new 0 0 30 30" xml:space="preserve">
<g>
	<g>
		<polygon fill="#E6E6E6" points="7.421,9.6 27.559,9.6 25.482,17.131 9.679,18.83 		"/>
		
			<rect x="11.811" y="10.008" transform="matrix(-0.9845 0.1752 -0.1752 -0.9845 33.6771 23.6393)" fill="#AF8969" width="7.967" height="6.597"/>
		
			<rect x="7.691" y="3.143" transform="matrix(-0.9845 0.1755 -0.1755 -0.9845 24.2981 10.7376)" fill="#D1A179" width="7.966" height="6.6"/>
		<polygon fill="#CE8A52" points="15.412,3.893 23.259,2.495 24.411,8.993 16.572,10.388 		"/>
		
			<rect x="11.152" y="7.957" transform="matrix(-0.9713 0.2378 -0.2378 -0.9713 26.5448 24.6817)" fill="#333333" width="1.263" height="11.971"/>
		
			<rect x="17.614" y="7.972" transform="matrix(-0.9715 0.2369 -0.2369 -0.9715 39.174 22.3276)" fill="#333333" width="1.264" height="11.091"/>
		
			<rect x="21.357" y="7.978" transform="matrix(-0.9715 0.2371 -0.2371 -0.9715 46.5115 21.0886)" fill="#333333" width="1.263" height="10.726"/>
		
			<rect x="25.004" y="7.992" transform="matrix(-0.9714 0.2374 -0.2374 -0.9714 53.5733 19.1116)" fill="#333333" width="1.263" height="9.58"/>
		
			<rect x="14.688" y="7.957" transform="matrix(-0.9714 0.2375 -0.2375 -0.9714 33.5133 23.8457)" fill="#333333" width="1.264" height="11.971"/>
		<polygon fill="#333333" points="25.985,16.373 8.09,16.326 7.617,15 25.985,15 		"/>
		<rect x="6.763" y="10.881" fill="#333333" width="20.598" height="1.374"/>
		<g>
			<path fill="#333333" d="M26.231,22.773H8.549l1.129-2.063l17.308-1.701L30,7.719H6.856L5.534,2.078H0.891V3.96h3.148
				l3.948,15.803l-2.453,5.08h20.697V22.773z M7.421,9.6h20.138l-2.076,7.529L9.679,18.828L7.421,9.6z"/>
		</g>
		<g>
			<path fill="#A67C52" d="M3.021,1.343H0v2.963h3.021V1.343z"/>
		</g>
		
			<rect x="7.619" y="7.957" transform="matrix(-0.9712 0.2381 -0.2381 -0.9712 19.5805 25.519)" fill="#333333" width="1.261" height="11.971"/>
		<path fill="#333333" d="M9.796,24.26c1.214,0,2.198,0.988,2.198,2.199c0,1.217-0.984,2.197-2.198,2.197
			c-1.215,0-2.198-0.98-2.198-2.197C7.598,25.248,8.581,24.26,9.796,24.26z"/>
		<path fill="#BDCCD4" d="M9.796,25.156c0.72,0,1.304,0.584,1.304,1.303c0,0.725-0.584,1.307-1.304,1.307
			c-0.723,0-1.305-0.582-1.305-1.307C8.491,25.74,9.073,25.156,9.796,25.156z"/>
		<path fill="#333333" d="M22.812,24.26c1.212,0,2.197,0.988,2.197,2.199c0,1.217-0.985,2.197-2.197,2.197
			c-1.217,0-2.205-0.98-2.205-2.197C20.606,25.248,21.595,24.26,22.812,24.26z"/>
		<path fill="#BDCCD4" d="M22.812,25.156c0.717,0,1.302,0.584,1.302,1.303c0,0.725-0.585,1.307-1.302,1.307
			c-0.723,0-1.308-0.582-1.308-1.307C21.504,25.74,22.089,25.156,22.812,25.156z"/>
	</g>
</g>
</svg>
