<?xml version="1.0" encoding="utf-8"?>
<!-- Generator: Adobe Illustrator 15.1.0, SVG Export Plug-In . SVG Version: 6.00 Build 0)  -->
<!DOCTYPE svg PUBLIC "-//W3C//DTD SVG 1.1//EN" "http://www.w3.org/Graphics/SVG/1.1/DTD/svg11.dtd">
<svg version="1.1" id="圖層_1" xmlns="http://www.w3.org/2000/svg" xmlns:xlink="http://www.w3.org/1999/xlink" x="0px" y="0px"
	 width="30px" height="30px" viewBox="0 0 30 30" enable-background="new 0 0 30 30" xml:space="preserve">
<g>
	<polygon fill="#EEB619" points="26.298,26.878 26.857,26.878 26.914,5.674 26.359,5.65 	"/>
	<rect x="25.611" y="5.65" fill="#F3CC1E" width="0.718" height="21.228"/>
	<rect x="24.988" y="5.647" fill="#EDB517" width="0.621" height="21.23"/>
	<polygon fill="#313333" points="26.011,1.973 25.757,2.903 26.238,2.904 	"/>
	<polygon fill="#DCA97F" points="26.238,2.904 25.757,2.903 25.515,3.797 25.016,5.647 25.965,5.648 26.914,5.674 26.462,3.824 	"/>
	<polygon fill="#9D9C9D" points="26.859,26.802 24.96,26.795 24.959,25.333 26.857,25.338 	"/>
	<rect x="24.959" y="26.8" fill="#CD3A44" width="1.898" height="1.1"/>
</g>
<path fill="#0D8A40" d="M22.938,2.973c0-0.356-0.289-0.645-0.646-0.645H6.692v25.574h15.601c0.312,0,0.569-0.22,0.632-0.511
	c0.009-0.043,0.014-0.088,0.014-0.134V2.973z M21.367,26.204h-5.965v-2.67h5.965V26.204z"/>
<path fill="#178441" d="M3.224,2.328H3.172c-0.355,0-0.644,0.289-0.644,0.645v24.284c0,0.356,0.289,0.645,0.644,0.645h2.291V2.328
	H3.224z"/>
<rect x="5.463" y="2.328" fill="#4FAB43" width="1.229" height="25.574"/>
</svg>
