<?xml version="1.0" encoding="utf-8"?>
<!-- Generator: Adobe Illustrator 15.1.0, SVG Export Plug-In . SVG Version: 6.00 Build 0)  -->
<!DOCTYPE svg PUBLIC "-//W3C//DTD SVG 1.1//EN" "http://www.w3.org/Graphics/SVG/1.1/DTD/svg11.dtd">
<svg version="1.1" id="圖層_1" xmlns="http://www.w3.org/2000/svg" xmlns:xlink="http://www.w3.org/1999/xlink" x="0px" y="0px"
	 width="30px" height="30px" viewBox="0 0 30 30" enable-background="new 0 0 30 30" xml:space="preserve">
<g>
	<polygon fill="#F7B52C" points="21.857,6.717 3.803,6.557 2.404,2.214 2.404,26.172 23.261,26.172 23.261,2.214 	"/>
	<rect x="2.404" y="26.172" fill="#FAED00" width="20.857" height="1.105"/>
	<path fill="#FAED00" d="M2.404,2.214l1.399,4.343l18.055,0.161l1.403-4.503H2.404z M12.834,5.986c-0.7,0-1.268-0.567-1.268-1.266
		c0-0.7,0.568-1.268,1.268-1.268s1.268,0.568,1.268,1.268C14.102,5.419,13.534,5.986,12.834,5.986z"/>
	<path fill="#FFFFFF" stroke="#CBCBCB" stroke-width="0.25" stroke-miterlimit="10" d="M14.541,10.358"/>
	<g>
		<g>
			<polygon fill="#EEEDEC" points="27.596,7.627 11.321,7.627 11.321,29.018 21.646,29.018 27.596,22.883 			"/>
			<polygon fill="#BEBEBE" points="21.646,29.018 27.596,22.883 21.646,22.883 			"/>
		</g>
		<g>
			<path fill="#E50012" d="M15.853,22.369c-0.413,0.256-0.784,1.133-1.066,1.967l-0.385,0.07c-0.178,0.031-0.281,0.314-0.101,0.281
				c0.081-0.018,0.306-0.035,0.387-0.053c-0.243,0.775-0.391,1.445-0.388,1.453c-0.017,0.074,0.029,0.148,0.105,0.17
				c0.072,0.01,0.148-0.031,0.167-0.107c-0.002-0.002,0.167-0.754,0.423-1.564c0.471-0.086,0.936-0.049,1.409-0.135
				c0.014,0.793-0.015,1.424-0.015,1.434c-0.002,0.074,0.057,0.143,0.132,0.146c0.08,0.006,0.237-0.076,0.243-0.156
				C16.763,25.865,16.952,21.689,15.853,22.369z M16.408,24.238c-0.547,0.082-0.876,0.004-1.315,0.082
				c0.255-0.734,0.576-1.504,0.908-1.713C16.279,22.434,16.382,23.398,16.408,24.238z M20.527,23.416
				c0.048-0.031,0.074-0.078,0.068-0.133c0-0.008-0.205-2.807-5.08-1.527c-1.674,0.438-2.653,1.326-2.952,2.23
				c-0.131,0.381-0.141,0.762-0.034,1.117c0.109,0.359,0.333,0.686,0.67,0.951c0.848,0.662,2.428,0.926,4.699,0.266
				C21.198,25.359,21.249,24.254,20.527,23.416z M18.406,22.332c0.016,0.006,5.017,2.088-0.587,3.719
				c-2.172,0.635-3.664,0.398-4.448-0.217c-0.291-0.23-0.481-0.506-0.573-0.805c-0.094-0.303-0.082-0.631,0.029-0.957
				c0.274-0.82,1.188-1.635,2.757-2.047c3.908-1.021,4.594,0.652,4.71,1.15c-0.705-0.654-1.775-1.098-1.775-1.098
				c-0.073-0.033-0.157,0-0.188,0.072C18.302,22.221,18.336,22.303,18.406,22.332z M18.386,23.326c0,0-0.052,0.295-0.097,0.646
				c-0.381,0.072-0.651,0.113-0.651,0.113c-0.076,0.016-0.127,0.086-0.118,0.166c0.014,0.074,0.086,0.125,0.161,0.113
				c0,0,0.237-0.039,0.566-0.102c-0.042,0.332-0.07,0.656-0.055,0.797c0.008,0.082,0.079,0.137,0.157,0.123
				c0.075-0.006,0.133-0.074,0.123-0.152c-0.018-0.139,0.015-0.479,0.063-0.82c0.222-0.039,0.46-0.088,0.7-0.137
				c0.072-0.016,0.125-0.082,0.108-0.16c-0.016-0.078-0.089-0.125-0.165-0.111c-0.202,0.043-0.411,0.084-0.604,0.115
				c0.045-0.303,0.085-0.547,0.085-0.549c0.012-0.072-0.038-0.146-0.113-0.158C18.471,23.193,18.396,23.248,18.386,23.326z"/>
		</g>
		<rect x="12.799" y="10.818" fill="#B1B0B1" width="13.319" height="0.375"/>
		<rect x="12.799" y="13.636" fill="#B1B0B1" width="13.319" height="0.375"/>
		<rect x="12.799" y="16.453" fill="#B1B0B1" width="13.319" height="0.373"/>
		<rect x="12.799" y="19.27" fill="#B1B0B1" width="13.319" height="0.373"/>
	</g>
</g>
</svg>
