<?xml version="1.0" encoding="utf-8"?>
<!-- Generator: Adobe Illustrator 16.0.0, SVG Export Plug-In . SVG Version: 6.00 Build 0)  -->
<!DOCTYPE svg PUBLIC "-//W3C//DTD SVG 1.1//EN" "http://www.w3.org/Graphics/SVG/1.1/DTD/svg11.dtd">
<svg version="1.1" id="圖層_1" xmlns="http://www.w3.org/2000/svg" xmlns:xlink="http://www.w3.org/1999/xlink" x="0px" y="0px"
	 width="30px" height="30px" viewBox="0 0 30 30" enable-background="new 0 0 30 30" xml:space="preserve">
<g>
	<g>
		<g>
			<polygon fill="#EDE0B7" points="27.816,28.829 7.417,28.829 7.417,2.018 20.361,2.018 27.816,9.708 			"/>
			<polygon fill="#CEC3A7" points="20.361,2.018 27.816,9.708 20.361,9.708 			"/>
		</g>
		<rect x="9.271" y="24.356" fill="#B0AEB0" width="16.693" height="0.476"/>
		<rect x="9.271" y="20.827" fill="#B0AEB0" width="16.693" height="0.47"/>
		<rect x="9.271" y="17.296" fill="#B0AEB0" width="16.693" height="0.468"/>
		<rect x="9.271" y="13.768" fill="#B0AEB0" width="16.693" height="0.468"/>
	</g>
	<path fill="#D2555F" d="M12.213,5.533c0,1.099-0.891,1.987-1.989,1.987H4.173c-1.098,0-1.989-0.888-1.989-1.987V1.99
		C2.184,0.891,3.075,0,4.173,0h6.051c1.098,0,1.989,0.891,1.989,1.99V5.533z"/>
	<polygon fill="#D0A17C" points="12.231,21.387 7.213,30 2.199,21.387 4.321,16.966 10.446,15.971 	"/>
	<polygon fill="#303233" points="5.019,26.34 7.188,30 9.361,26.34 	"/>
	<polygon fill="#A1887F" points="12.213,21.307 6.633,21.307 2.184,21.307 2.184,5.013 12.213,5.013 	"/>
	<polygon fill="#9A999B" points="12.213,5.013 6.633,5.013 2.184,5.013 2.184,2.506 12.213,2.506 	"/>
	<polygon fill="#8D6E63" points="9.25,21.307 6.633,21.307 5.25,21.307 5.25,5.013 9.25,5.013 	"/>
</g>
</svg>
