<?xml version="1.0" encoding="utf-8"?>
<!-- Generator: Adobe Illustrator 16.0.0, SVG Export Plug-In . SVG Version: 6.00 Build 0)  -->
<!DOCTYPE svg PUBLIC "-//W3C//DTD SVG 1.1//EN" "http://www.w3.org/Graphics/SVG/1.1/DTD/svg11.dtd">
<svg version="1.1" id="圖層_1" xmlns="http://www.w3.org/2000/svg" xmlns:xlink="http://www.w3.org/1999/xlink" x="0px" y="0px"
	 width="30px" height="30px" viewBox="0 0 30 30" enable-background="new 0 0 30 30" xml:space="preserve">
<g>
	<g>
		<polygon fill="#B3E5FC" points="29.103,30 7.427,30 7.427,1.51 21.182,1.51 29.103,9.681 		"/>
		<polygon fill="#99CCFF" points="21.182,1.51 29.103,9.681 21.182,9.681 		"/>
	</g>
	<path fill="#F5F5F5" d="M18.265,9.554c4.536,0,8.217,3.677,8.217,8.218c0,4.531-3.681,8.211-8.217,8.211
		c-4.535,0-8.211-3.68-8.211-8.211C10.053,13.23,13.729,9.554,18.265,9.554z"/>
	<polygon fill="#336699" points="21.659,18.993 21.659,12.336 16.33,12.336 16.33,18.993 14.585,18.993 18.58,23.88 22.578,18.993 	
		"/>
	<g>
		<path fill="#EF5350" d="M4.167,3.792L1.97,4.272l0.399,1.806l2.026-0.443l0.167,0.771L2.536,6.853l0.542,2.469l-0.903,0.2
			L0.897,3.694l3.1-0.678L4.167,3.792z"/>
		<path fill="#EF5350" d="M7.862,4.799C7.71,4.741,7.529,4.737,7.314,4.785c-0.285,0.063-0.49,0.236-0.613,0.529
			C6.581,5.601,6.564,5.952,6.655,6.368L7.109,8.44L6.227,8.633L5.315,4.473L6.198,4.28l0.18,0.828L6.4,5.101
			c0.074-0.642,0.37-1.02,0.893-1.135c0.153-0.035,0.282-0.043,0.38-0.028L7.862,4.799z"/>
		<path fill="#EF5350" d="M12.234,5.386L9.376,6.011c0.222,0.832,0.742,1.161,1.557,0.979c0.463-0.101,0.854-0.329,1.171-0.689
			l0.159,0.729c-0.315,0.324-0.778,0.554-1.381,0.688c-0.617,0.135-1.141,0.05-1.575-0.248C8.877,7.167,8.587,6.68,8.44,6.004
			C8.301,5.362,8.37,4.792,8.656,4.292c0.282-0.498,0.706-0.808,1.272-0.935c0.561-0.121,1.034-0.037,1.425,0.248
			c0.392,0.288,0.655,0.74,0.79,1.361L12.234,5.386z M11.236,4.931c-0.083-0.359-0.222-0.613-0.424-0.769
			c-0.203-0.154-0.452-0.198-0.747-0.135c-0.269,0.06-0.48,0.209-0.633,0.455C9.276,4.728,9.213,5.023,9.235,5.366L11.236,4.931z"/>
		<path fill="#EF5350" d="M16.638,4.421L13.78,5.049c0.221,0.829,0.74,1.158,1.557,0.976c0.461-0.102,0.854-0.329,1.168-0.689
			l0.163,0.729c-0.32,0.325-0.783,0.555-1.385,0.688c-0.617,0.135-1.138,0.05-1.572-0.249c-0.43-0.299-0.72-0.789-0.868-1.465
			c-0.141-0.643-0.07-1.213,0.213-1.712c0.285-0.497,0.708-0.808,1.272-0.934c0.563-0.122,1.037-0.038,1.428,0.248
			c0.389,0.287,0.651,0.74,0.79,1.36L16.638,4.421z M15.641,3.966c-0.082-0.358-0.224-0.612-0.424-0.769
			C15.015,3.043,14.764,3,14.469,3.062c-0.269,0.061-0.479,0.21-0.636,0.455c-0.153,0.246-0.219,0.542-0.192,0.886L15.641,3.966z"/>
		<path fill="#EF5350" d="M17.93,5.604c-0.033-0.152-0.006-0.289,0.08-0.418c0.086-0.123,0.207-0.202,0.36-0.236
			c0.152-0.032,0.294-0.014,0.422,0.064c0.132,0.081,0.214,0.195,0.249,0.344c0.029,0.146,0.004,0.281-0.081,0.407
			c-0.086,0.125-0.199,0.201-0.345,0.235c-0.164,0.034-0.311,0.016-0.445-0.065C18.043,5.857,17.96,5.744,17.93,5.604z M17.76,0
			l0.798,4.146l-0.716,0.16L16.84,0.201L17.76,0z"/>
	</g>
</g>
</svg>
