<?xml version="1.0" encoding="utf-8"?>
<!-- Generator: Adobe Illustrator 16.0.0, SVG Export Plug-In . SVG Version: 6.00 Build 0)  -->
<!DOCTYPE svg PUBLIC "-//W3C//DTD SVG 1.1//EN" "http://www.w3.org/Graphics/SVG/1.1/DTD/svg11.dtd">
<svg version="1.1" xmlns="http://www.w3.org/2000/svg" xmlns:xlink="http://www.w3.org/1999/xlink" x="0px" y="0px" width="60px"
	 height="60px" viewBox="0 0 60 60" enable-background="new 0 0 60 60" xml:space="preserve">
<g id="首頁BK" display="none">
</g>
<g id="首頁UI__x26__logo" display="none">
</g>
<g id="內頁_x5F_左">
</g>
<g id="內頁">
</g>
<g id="Easy_我的作品" display="none">
	<g display="inline">
		
			<image overflow="visible" opacity="0.3" width="1225" height="1017" xlink:href="2F205B60.png"  transform="matrix(0.24 0 0 0.24 -104.4766 32.0923)">
		</image>
		<g>
			<rect x="-98.477" y="40.092" fill="#FFFFFF" width="276" height="226"/>
		</g>
	</g>
	<g display="inline">
		<defs>
			<rect id="SVGID_43_" x="-98.477" y="40.092" width="276" height="176.139"/>
		</defs>
		<clipPath id="SVGID_1_">
			<use xlink:href="#SVGID_43_"  overflow="visible"/>
		</clipPath>
		<g clip-path="url(#SVGID_1_)">
			
				<image overflow="visible" width="1542" height="1158" xlink:href="1019/Holiyo/新UI/Holiyo_website_toHDT檔案夾(_F)/Links/Taiwan.jpg"  transform="matrix(0.18 0 0 0.18 -99.9355 36.7695)">
			</image>
		</g>
	</g>
	<rect x="47.985" y="-28.82" display="inline" opacity="0.5" fill="#FFFFFF" width="50" height="50"/>
</g>
<g id="EASY_雲端作品庫" display="none">
</g>
<g id="福利中心頁_x5F_bk">
</g>
<g id="兌換商品">
</g>
<g id="版型下載" display="none">
</g>
<g id="Top_banner_1_">
</g>
<g id="商品說明" display="none">
</g>
<g id="填寫兌換頁" display="none">
</g>
<g id="會員資料" display="none">
</g>
<g id="集到先師">
	<g>
		<circle fill="#BBA9A3" cx="30" cy="30" r="30"/>
		<g>
			<g>
				<defs>
					<circle id="SVGID_116_" cx="30" cy="30" r="30"/>
				</defs>
				<clipPath id="SVGID_2_">
					<use xlink:href="#SVGID_116_"  overflow="visible"/>
				</clipPath>
				<g clip-path="url(#SVGID_2_)">
					<path fill="#FFFBF5" d="M68.502,9.111c2.75,0,5,2.25,5,5v31.778c0,2.75-2.25,5-5,5H15.833c-2.75,0-5-2.25-5-5V14.111
						c0-2.75,2.25-5,5-5H68.502z"/>
				</g>
			</g>
		</g>
		<g>
			<g>
				<defs>
					<path id="SVGID_118_" d="M0,30c0,8.123,3.232,15.486,8.479,20.889h43.045C56.768,45.486,60,38.123,60,30
						s-3.232-15.487-8.479-20.889H8.479C3.232,14.513,0,21.877,0,30z"/>
				</defs>
				<clipPath id="SVGID_3_">
					<use xlink:href="#SVGID_118_"  overflow="visible"/>
				</clipPath>
				<g clip-path="url(#SVGID_3_)">
					<path fill="#424142" d="M43.704,39.193l-2.731,0.572l1.9,2.445l-1.053,0.729l-1.577-2.658l-1.578,2.658l-1.052-0.729
						l1.891-2.445l-2.759-0.572l0.442-1.189l2.611,0.979l-0.212-3.045h1.31l-0.221,3.045l2.631-0.979L43.704,39.193z"/>
					<path fill="#424142" d="M52.158,39.193l-2.732,0.572l1.901,2.445l-1.052,0.729l-1.58-2.658l-1.577,2.658l-1.052-0.729
						l1.892-2.445l-2.759-0.572l0.443-1.189l2.61,0.979l-0.212-3.045h1.311l-0.222,3.045l2.63-0.979L52.158,39.193z"/>
					<path fill="#424142" d="M60.611,39.193l-2.731,0.572l1.901,2.445l-1.053,0.729l-1.578-2.658l-1.578,2.658l-1.053-0.729
						l1.893-2.445l-2.76-0.572l0.443-1.189l2.611,0.979l-0.213-3.045h1.311l-0.222,3.045l2.63-0.979L60.611,39.193z"/>
				</g>
			</g>
		</g>
		<g>
			<g>
				<defs>
					<circle id="SVGID_120_" cx="30" cy="30" r="30"/>
				</defs>
				<clipPath id="SVGID_4_">
					<use xlink:href="#SVGID_120_"  overflow="visible"/>
				</clipPath>
				<g clip-path="url(#SVGID_4_)">
					<g>
						<defs>
							<rect id="SVGID_122_" x="10.833" y="9.111" width="62.669" height="41.778"/>
						</defs>
						<defs>
							<rect id="SVGID_123_" x="10.833" y="9.111" width="62.669" height="41.778"/>
						</defs>
						<clipPath id="SVGID_5_">
							<use xlink:href="#SVGID_122_"  overflow="visible"/>
						</clipPath>
						<clipPath id="SVGID_7_" clip-path="url(#SVGID_5_)">
							<use xlink:href="#SVGID_123_"  overflow="visible"/>
						</clipPath>
						<path clip-path="url(#SVGID_7_)" fill="#C7302F" d="M26.507,2.129c-0.002,8.206-0.009,49.157,0.002,61.93h3.267
							c0.002-11.845-0.002-53.492-0.002-61.93H26.507z"/>
						<path clip-path="url(#SVGID_7_)" fill="#C7302F" d="M7.779,24.557c8.205,0.002,49.156,0.01,61.93-0.001v-3.268
							c-11.844-0.001-53.49,0.003-61.93,0.003V24.557z"/>
					</g>
				</g>
				<path opacity="0.5" clip-path="url(#SVGID_4_)" fill="#424242" enable-background="new    " d="M47.546,50.889h3.978
					C56.768,45.486,60,38.123,60,30s-3.232-15.487-8.479-20.889h-3.977C53.754,13.961,57.75,21.512,57.75,30
					C57.75,38.488,53.754,46.038,47.546,50.889z"/>
			</g>
			<path fill="#E64437" d="M38.695,16.25c0.707,1.734,2.175,8.024,2.175,8.024s-2.211,1.343-5.886,1.308
				c0.966,0.813,1.639,1.844,2.394,3.056c0,0.394-1.537,4.752-3.351,7.901c0,0-6.655-11.102-5.141-14.4
				C29.173,21.516,32.7,17.188,38.695,16.25z"/>
			<path fill="#E64437" d="M17.378,16.25c-0.707,1.734-2.174,8.024-2.174,8.024s2.211,1.343,5.886,1.308
				c-0.966,0.813-1.639,1.844-2.395,3.056c0,0.394,1.537,4.752,3.352,7.901c0,0,6.655-11.102,5.141-14.4
				C26.9,21.516,23.374,17.188,17.378,16.25z"/>
			<path fill="#E1524E" d="M29.749,23.921c0,0.553-0.447,1-1,1h-1.624c-0.553,0-1-0.447-1-1v-1.624c0-0.553,0.447-1,1-1h1.624
				c0.553,0,1,0.447,1,1V23.921z"/>
		</g>
	</g>
</g>
<g id="Play" display="none">
</g>
<g id="製作頁" display="none">
</g>
<g id="pop_up" display="none">
</g>
<g id="guide" display="none">
</g>
</svg>
