<?xml version="1.0" encoding="utf-8"?>
<!-- Generator: Adobe Illustrator 16.0.0, SVG Export Plug-In . SVG Version: 6.00 Build 0)  -->
<!DOCTYPE svg PUBLIC "-//W3C//DTD SVG 1.1//EN" "http://www.w3.org/Graphics/SVG/1.1/DTD/svg11.dtd">
<svg version="1.1" id="圖層_1" xmlns="http://www.w3.org/2000/svg" xmlns:xlink="http://www.w3.org/1999/xlink" x="0px" y="0px"
	 width="60px" height="60px" viewBox="0 0 60 60" enable-background="new 0 0 60 60" xml:space="preserve">
<circle fill="#BCAAA4" cx="30" cy="30" r="30"/>
<g>
	<g>
		<path opacity="0.5" fill="#757575" d="M41.9,13.47l-6.513-2.862c-1.182-0.517-2.635,0.183-3.245,1.571l-1.964,4.47
			c-0.005,0.01-0.007,0.021-0.012,0.034L29.96,17.15L30,17.167l0,0l-0.04-0.017L19.916,40.004l0.079,0.035l0.744,6.421l-0.016-0.008
			l0.573,5.034l0.023-0.017l0.003,0.03l9.347-6.771l0.042,0.019l0.031-0.071l0.035-0.025l0.008-0.071l9.971-22.685l-0.046-0.021l0,0
			l0.046,0.021l1.39-3.166l-0.002-0.001l0.793-1.806C43.546,15.535,43.082,13.989,41.9,13.47z"/>
		<g>
			<path fill="#FAFAFA" d="M40.034,20.456c-0.608,1.386-2.061,2.085-3.242,1.565l-6.512-2.863c-1.183-0.519-1.648-2.06-1.04-3.447
				l1.964-4.47c0.612-1.389,2.064-2.089,3.245-1.57l6.514,2.861c1.182,0.52,1.645,2.065,1.037,3.454L40.034,20.456z"/>
			<polygon fill="#FFE0B2" points="29.84,43.714 20.385,50.563 19.042,38.967 23.406,35.239 30.465,37.07 			"/>
			<polygon fill="#616161" points="19.785,45.515 20.357,50.55 24.458,47.567 			"/>
			<polygon fill="#FAD53E" points="29.771,43.811 23.766,41.171 18.978,39.066 29.023,16.212 39.817,20.958 			"/>
			<polygon fill="#90A4AE" points="39.817,20.958 33.811,18.315 29.023,16.212 30.414,13.049 41.208,17.793 			"/>
			<polygon fill="#FADD60" points="26.584,42.41 23.766,41.171 22.279,40.518 32.323,17.662 36.629,19.555 			"/>
			<polygon fill="#B0BEC5" points="33.63,14.463 32.241,17.626 33.811,18.315 36.546,19.52 37.936,16.354 			"/>
		</g>
	</g>
</g>
</svg>
