<?xml version="1.0" encoding="utf-8"?>
<!-- Generator: Adobe Illustrator 16.0.0, SVG Export Plug-In . SVG Version: 6.00 Build 0)  -->
<!DOCTYPE svg PUBLIC "-//W3C//DTD SVG 1.1//EN" "http://www.w3.org/Graphics/SVG/1.1/DTD/svg11.dtd">
<svg version="1.1" id="圖層_1" xmlns="http://www.w3.org/2000/svg" xmlns:xlink="http://www.w3.org/1999/xlink" x="0px" y="0px"
	 width="60px" height="60px" viewBox="0 0 60 60" enable-background="new 0 0 60 60" xml:space="preserve">
<circle fill="#BCAAA4" cx="30" cy="30" r="30"/>
<g>
	<defs>
		<circle id="SVGID_1_" cx="30" cy="30" r="30"/>
	</defs>
	<clipPath id="SVGID_2_">
		<use xlink:href="#SVGID_1_"  overflow="visible"/>
	</clipPath>
	<g clip-path="url(#SVGID_2_)">
		<path fill="#F8C8A6" d="M44.241,37.514c0.445-0.89,1.055-2.325,1.352-3.189c0.298-0.866,1.149-2.053,1.893-2.646
			c0.744-0.597,0.962-1.645,0.487-2.33c-0.477-0.684-0.866-1.654-0.866-2.16c0-0.509,0.365-0.921,0.811-0.921
			s1.431,0.805,2.187,1.793l1.901,2.474c0.756,0.985,1.375,2.108,1.375,2.495c0,0.384-0.272,1.682-0.604,2.879l-1.822,6.571
			c-0.333,1.196-0.32,3.152,0.025,4.344l0.581,2.007c0.035,0.117,0.058,0.231,0.072,0.342l2.652,5.51h-6.456l-1.6-5.286l0.087-0.007
			c-0.101-0.181-0.179-0.374-0.235-0.568L45.426,46.4c-0.324-1.2-0.906-2.52-1.294-2.939c-0.387-0.413-0.703-1.559-0.703-2.536
			C43.429,39.94,43.794,38.41,44.241,37.514z"/>
		<path fill="#F3DABC" d="M52.287,31.46c0,0,1.628,1.234,0.312,4.049C52.599,35.509,53.479,32.818,52.287,31.46z"/>
		<path fill="#F8C8A6" d="M15.759,37.514c-0.445-0.89-1.055-2.325-1.352-3.189c-0.298-0.866-1.149-2.053-1.893-2.646
			c-0.744-0.597-0.962-1.645-0.487-2.33c0.478-0.684,0.866-1.654,0.866-2.16c0-0.509-0.365-0.921-0.811-0.921
			s-1.431,0.805-2.187,1.793l-1.901,2.474c-0.756,0.985-1.375,2.108-1.375,2.495c0,0.384,0.272,1.682,0.604,2.879l1.822,6.571
			c0.333,1.196,0.32,3.152-0.025,4.344l-0.581,2.007c-0.035,0.117-0.058,0.231-0.072,0.342l-2.652,5.51h6.456l1.6-5.286
			l-0.087-0.007c0.101-0.181,0.179-0.374,0.235-0.568l0.656-2.419c0.324-1.2,0.906-2.52,1.294-2.939
			c0.386-0.413,0.703-1.559,0.703-2.536C16.571,39.94,16.206,38.41,15.759,37.514z"/>
		<g>
			<path fill="#414042" d="M48.707,41.082c0,1.24-1.017,2.255-2.257,2.255H13.867c-1.242,0-2.258-1.015-2.258-2.255V16.613
				c0-1.245,1.016-2.26,2.258-2.26H46.45c1.24,0,2.257,1.015,2.257,2.26V41.082z"/>
			<path fill="#414042" d="M46.45,43.81H13.867c-1.505,0-2.73-1.227-2.73-2.728V16.613c0-1.506,1.225-2.732,2.73-2.732H46.45
				c1.503,0,2.729,1.227,2.729,2.732v24.469C49.179,42.583,47.953,43.81,46.45,43.81z M13.867,14.826
				c-0.985,0-1.789,0.8-1.789,1.787v24.469c0,0.982,0.804,1.788,1.789,1.788H46.45c0.983,0,1.785-0.806,1.785-1.788V16.613
				c0-0.987-0.802-1.787-1.785-1.787H13.867z"/>
		</g>
		<rect x="14.638" y="17.256" fill="#EACEAC" width="31.04" height="22.964"/>
		<circle fill="#E57373" cx="42.108" cy="39.463" r="1.796"/>
		<path fill="#FFFFFF" d="M44.365,17.533c0,1.234-1,2.232-2.232,2.232H18.801c-1.232,0-2.229-0.998-2.229-2.232l0,0
			c0-1.23,0.998-2.229,2.229-2.229h23.332C43.365,15.305,44.365,16.303,44.365,17.533L44.365,17.533z"/>
		<circle fill="#81D4FA" cx="19.275" cy="39.463" r="1.797"/>
		<path fill="#414042" d="M46.45,14.354H13.867c-1.242,0-2.258,1.015-2.258,2.26v24.469c0,1.24,1.016,2.255,2.258,2.255H46.45
			c1.24,0,2.257-1.015,2.257-2.255V16.613C48.707,15.368,47.69,14.354,46.45,14.354z M45.677,40.22h-31.04V17.256h31.04V40.22z"/>
		<path fill="#F8C8A6" d="M9.453,37.623c-0.733-0.457-0.614-1.542,0.267-2.42l0.107-0.103c0.882-0.883,2.303-2.333,3.161-3.227
			l1.231-1.294c0.857-0.897,1.91-1.275,2.335-0.837c0.429,0.439,0.422,1.377-0.013,2.075c-0.433,0.706-1.332,1.695-1.998,2.197
			c-0.662,0.509-1.379,1.389-1.591,1.955c-0.21,0.572-0.785,1.364-1.277,1.759C11.188,38.121,10.185,38.076,9.453,37.623z"/>
		<path fill="#FBE2CA" d="M15.777,29.936c0,0,0.644,0.549,0.478,0.914c0,0-0.381,0.529-0.762,0.474l-0.651-0.999
			C14.843,30.324,15.572,29.731,15.777,29.936z"/>
		<path fill="#F3DABC" d="M7.713,31.46c0,0-1.63,1.234-0.312,4.049C7.401,35.509,6.521,32.818,7.713,31.46z"/>
		<path fill="#F8C8A6" d="M50.547,37.623c0.733-0.457,0.614-1.542-0.267-2.42l-0.107-0.103c-0.882-0.883-2.303-2.333-3.161-3.227
			l-1.231-1.294c-0.857-0.897-1.91-1.275-2.335-0.837c-0.429,0.439-0.422,1.377,0.013,2.075c0.433,0.706,1.332,1.695,1.998,2.197
			c0.662,0.509,1.379,1.389,1.591,1.955c0.21,0.572,0.785,1.364,1.277,1.759C48.813,38.121,49.815,38.076,50.547,37.623z"/>
		<path fill="#FBE2CA" d="M44.223,29.936c0,0-0.644,0.549-0.478,0.914c0,0,0.381,0.529,0.762,0.474l0.651-0.999
			C45.157,30.324,44.428,29.731,44.223,29.936z"/>
		<path fill="#F44336" d="M40.211,26.725c-0.001-2.819-2.286-5.104-5.105-5.106C32.287,21.617,30,23.905,30,26.725
			c0-2.819-2.286-5.106-5.106-5.106s-5.105,2.287-5.105,5.106C19.789,33.532,30,38.797,30,38.797S40.215,33.497,40.211,26.725
			L40.211,26.725z M40.211,26.725"/>
	</g>
</g>
</svg>
