<?xml version="1.0" encoding="utf-8"?>
<!-- Generator: Adobe Illustrator 16.0.0, SVG Export Plug-In . SVG Version: 6.00 Build 0)  -->
<!DOCTYPE svg PUBLIC "-//W3C//DTD SVG 1.1//EN" "http://www.w3.org/Graphics/SVG/1.1/DTD/svg11.dtd">
<svg version="1.1" xmlns="http://www.w3.org/2000/svg" xmlns:xlink="http://www.w3.org/1999/xlink" x="0px" y="0px" width="60px"
	 height="60px" viewBox="0 0 60 60" enable-background="new 0 0 60 60" xml:space="preserve">
<g id="首頁BK" display="none">
</g>
<g id="首頁UI__x26__logo" display="none">
</g>
<g id="內頁_x5F_左">
</g>
<g id="內頁">
</g>
<g id="Easy_我的作品" display="none">
	<g display="inline">
		
			<image overflow="visible" opacity="0.3" width="1225" height="1017" xlink:href="BB03B2CE.png"  transform="matrix(0.24 0 0 0.24 -229.7041 32.1616)">
		</image>
		<g>
			<rect x="-223.704" y="40.162" fill="#FFFFFF" width="276" height="226"/>
		</g>
	</g>
	<g display="inline">
		<defs>
			<rect id="SVGID_30_" x="-223.704" y="40.162" width="276" height="176.139"/>
		</defs>
		<clipPath id="SVGID_1_">
			<use xlink:href="#SVGID_30_"  overflow="visible"/>
		</clipPath>
		<g clip-path="url(#SVGID_1_)">
			
				<image overflow="visible" width="1542" height="1158" xlink:href="1019/Holiyo/新UI/Holiyo_website_toHDT檔案夾(_F)/Links/Taiwan.jpg"  transform="matrix(0.18 0 0 0.18 -225.1631 36.8389)">
			</image>
		</g>
	</g>
	<g id="View_11_" display="inline">
		<linearGradient id="SVGID_2_" gradientUnits="userSpaceOnUse" x1="33.2871" y1="80.4165" x2="33.2871" y2="40.7497">
			<stop  offset="0" style="stop-color:#808184;stop-opacity:0"/>
			<stop  offset="0.1173" style="stop-color:#616063;stop-opacity:0.1706"/>
			<stop  offset="0.2458" style="stop-color:#464446;stop-opacity:0.3576"/>
			<stop  offset="0.3735" style="stop-color:#332F31;stop-opacity:0.5433"/>
			<stop  offset="0.4987" style="stop-color:#272324;stop-opacity:0.7255"/>
			<stop  offset="0.6187" style="stop-color:#231F20;stop-opacity:0.9"/>
		</linearGradient>
		<rect x="14.279" y="40.162" fill="url(#SVGID_2_)" width="38.017" height="39.838"/>
		<text transform="matrix(1 0 0 1 30.2695 71.9805)" fill="#F1F1F2" font-family="'MicrosoftJhengHeiRegular'" font-size="14">5</text>
		<g>
			<g>
				<path fill="#F1F1F2" d="M34.326,55.773c-5.597,0-10.175-4.405-10.175-5.834s4.578-5.834,10.175-5.834
					c5.338,0,10.176,4.2,10.176,5.834S39.664,55.773,34.326,55.773z M34.326,45.105c-5.176,0-9.118,4.033-9.175,4.837
					c0.057,0.798,3.999,4.831,9.175,4.831c5.146,0,9.142-4.055,9.176-4.834C43.468,49.16,39.474,45.105,34.326,45.105z"/>
				<path fill="#F1F1F2" d="M34.326,55.659c-3.154,0-5.721-2.566-5.721-5.72s2.566-5.721,5.721-5.721s5.721,2.566,5.721,5.721
					S37.48,55.659,34.326,55.659z M34.326,45.218c-2.603,0-4.721,2.118-4.721,4.721c0,2.603,2.118,4.72,4.721,4.72
					s4.721-2.118,4.721-4.72C39.047,47.336,36.929,45.218,34.326,45.218z"/>
				<path fill="#F1F1F2" d="M34.326,46.868c-0.347,0-0.675,0.071-0.983,0.182l0.049,2.18l-1.557-0.947
					c-0.268,0.441-0.431,0.954-0.431,1.507c0,1.614,1.309,2.922,2.922,2.922s2.922-1.308,2.922-2.922S35.939,46.868,34.326,46.868z"
					/>
			</g>
		</g>
	</g>
	<rect x="20.918" y="42.25" display="inline" opacity="0.5" fill="#F1F1F2" width="26" height="16"/>
	<rect x="14.279" y="49.79" display="inline" fill="#F1F1F2" width="6.639" height="22.544"/>
</g>
<g id="EASY_雲端作品庫" display="none">
	<g display="inline">
		<g>
			
				<image overflow="visible" opacity="0.3" width="1225" height="1017" xlink:href="BB03B2D2.png"  transform="matrix(0.24 0 0 0.24 -229.7041 -70.1646)">
			</image>
			<g>
				<rect x="-223.704" y="-62.165" fill="#FFFFFF" width="276" height="226"/>
			</g>
		</g>
		<rect x="-223.704" y="-62.165" fill="#A6A8AB" width="276" height="176.139"/>
		<g>
			<defs>
				<rect id="SVGID_73_" x="-223.704" y="-62.165" width="276" height="176.139"/>
			</defs>
			<clipPath id="SVGID_3_">
				<use xlink:href="#SVGID_73_"  overflow="visible"/>
			</clipPath>
			<g clip-path="url(#SVGID_3_)">
				
					<image overflow="visible" width="1542" height="1158" xlink:href="1019/Holiyo/新UI/Holiyo_website_toHDT檔案夾(_F)/Links/Taiwan.jpg"  transform="matrix(0.18 0 0 0.18 -225.1631 -65.4873)">
				</image>
			</g>
		</g>
	</g>
</g>
<g id="福利中心頁_x5F_bk">
</g>
<g id="兌換商品">
</g>
<g id="版型下載" display="none">
</g>
<g id="Top_banner_1_">
</g>
<g id="商品說明" display="none">
</g>
<g id="填寫兌換頁" display="none">
</g>
<g id="會員資料" display="none">
</g>
<g id="集到先師">
	<g>
		<g>
			<g>
				<g>
					<circle fill="#FAAF40" cx="30" cy="30" r="29.752"/>
					<path fill="#A87C4F" d="M30,60C13.459,60,0,46.542,0,30S13.459,0,30,0c16.543,0,30,13.458,30,30S46.543,60,30,60z M30,0.496
						C13.732,0.496,0.496,13.731,0.496,30S13.732,59.504,30,59.504c16.27,0,29.504-13.235,29.504-29.504S46.27,0.496,30,0.496z"/>
				</g>
				<g>
					<g>
						<path fill="#FFFFFF" d="M42.654,46.475h-3.736v-15.62H21.08v15.62h-3.734v-34.03h3.734v15.026h17.838V12.445h3.736V46.475z"/>
					</g>
				</g>
			</g>
		</g>
	</g>
</g>
<g id="Play" display="none">
</g>
<g id="製作頁" display="none">
</g>
<g id="pop_up" display="none">
</g>
<g id="guide" display="none">
</g>
</svg>
