<?xml version="1.0" encoding="utf-8"?>
<!-- Generator: Adobe Illustrator 16.0.0, SVG Export Plug-In . SVG Version: 6.00 Build 0)  -->
<!DOCTYPE svg PUBLIC "-//W3C//DTD SVG 1.1//EN" "http://www.w3.org/Graphics/SVG/1.1/DTD/svg11.dtd">
<svg version="1.1" id="圖層_1" xmlns="http://www.w3.org/2000/svg" xmlns:xlink="http://www.w3.org/1999/xlink" x="0px" y="0px"
	 width="60px" height="60px" viewBox="0 0 60 60" enable-background="new 0 0 60 60" xml:space="preserve">
<g>
	<circle fill="#BCAAA4" cx="30" cy="30" r="30"/>
	<path opacity="0.5" fill="#757575" d="M53.415,42.807l-2-11.229v-15.23c0-2.15-1.744-3.895-3.896-3.895H15.646
		c-2.152,0-3.896,1.744-3.896,3.895v15.23l-2,11.229c0,1.46,0.812,2.717,2,3.385v0.615c0,2.152,1.744,3.896,3.896,3.896h31.873
		c2.152,0,3.896-1.744,3.896-3.896v-0.615C52.603,45.523,53.415,44.267,53.415,42.807z"/>
	<path fill="#C1C1C1" d="M50.415,45.807c0,2.152-1.744,3.896-3.896,3.896H14.646c-2.152,0-3.896-1.744-3.896-3.896V15.348
		c0-2.15,1.744-3.895,3.896-3.895h31.873c2.152,0,3.896,1.744,3.896,3.895V45.807z"/>
	<path fill="#D8D8D8" d="M50.415,43.787c0,2.115-1.744,3.83-3.896,3.83H14.646c-2.152,0-3.896-1.715-3.896-3.83V15.281
		c0-2.113,1.744-3.828,3.896-3.828h31.873c2.152,0,3.896,1.715,3.896,3.828V43.787z"/>
	<path fill="#EAEAEA" d="M10.749,30.578v-15.23c0-2.15,1.744-3.895,3.896-3.895h31.873c2.152,0,3.896,1.744,3.896,3.895v15.121
		L10.749,30.578z"/>
	<path fill="#FFFFFF" d="M52.415,41.807c0,2.152-1.744,3.896-3.896,3.896H12.646c-2.152,0-3.896-1.744-3.896-3.896l2-11.229h39.666
		L52.415,41.807z"/>
	<polygon fill="#EC3612" points="23.159,17.299 23.159,21.42 34.643,21.42 30.767,30.578 35.444,30.564 39.969,19.408 
		40.005,17.299 	"/>
	<polygon fill="#EC3612" points="31.038,30.219 29.234,40.629 34.055,40.629 35.637,30.219 	"/>
	<line fill="none" stroke="#777878" stroke-width="0.5" stroke-miterlimit="10" x1="10.749" y1="30.578" x2="50.415" y2="30.578"/>
</g>
</svg>
