<?xml version="1.0" encoding="utf-8"?>
<!-- Generator: Adobe Illustrator 16.0.0, SVG Export Plug-In . SVG Version: 6.00 Build 0)  -->
<!DOCTYPE svg PUBLIC "-//W3C//DTD SVG 1.1//EN" "http://www.w3.org/Graphics/SVG/1.1/DTD/svg11.dtd">
<svg version="1.1" id="圖層_1" xmlns="http://www.w3.org/2000/svg" xmlns:xlink="http://www.w3.org/1999/xlink" x="0px" y="0px"
	 width="60px" height="60px" viewBox="0 0 60 60" enable-background="new 0 0 60 60" xml:space="preserve">
<circle fill="#BCAAA4" cx="30" cy="30" r="30"/>
<g>
	<defs>
		<circle id="SVGID_3_" cx="30" cy="30" r="30"/>
	</defs>
	<clipPath id="SVGID_2_">
		<use xlink:href="#SVGID_3_"  overflow="visible"/>
	</clipPath>
	<g clip-path="url(#SVGID_2_)">
		<path fill="#F44336" d="M24.187-2.664H11.432V40.07l18.541,13.254l18.596-13.488v-42.5H24.187z"/>
		<path fill="#2196F3" d="M25.791-2.664H16.56v40.086l13.42,8.809l13.46-8.979V-2.664H25.791z"/>
		<path fill="#FFFFFF" d="M26.95,21.594c0,0.227-0.029,0.447-0.071,0.666l7.256,3.555c0.699-0.719,1.655-1.162,2.723-1.162
			c2.107,0,3.815,1.713,3.815,3.83c0,2.109-1.713,3.836-3.815,3.836c-2.104,0-3.807-1.713-3.807-3.836
			c0-0.219,0.027-0.424,0.06-0.623l-7.28-3.563c-0.688,0.686-1.641,1.115-2.693,1.115c-2.104,0-3.81-1.707-3.81-3.82
			c0-2.107,1.705-3.818,3.81-3.818c1.027,0,1.955,0.412,2.642,1.076l7.343-3.434c-0.038-0.229-0.073-0.463-0.073-0.703
			c0-2.113,1.708-3.83,3.81-3.83c2.101,0,3.807,1.715,3.807,3.83s-1.708,3.828-3.807,3.828c-1.037,0-1.981-0.42-2.667-1.096
			l-7.319,3.418C26.919,21.1,26.95,21.342,26.95,21.594z"/>
	</g>
</g>
<path opacity="0.5" fill="#424242" d="M30,0c-7.014,0-13.46,2.413-18.568,6.446v3C16.54,5.413,22.986,3,30,3
	s13.46,2.413,18.568,6.446v-3C43.46,2.413,37.014,0,30,0z"/>
</svg>
