<?xml version="1.0" encoding="utf-8"?>
<!-- Generator: Adobe Illustrator 16.0.0, SVG Export Plug-In . SVG Version: 6.00 Build 0)  -->
<!DOCTYPE svg PUBLIC "-//W3C//DTD SVG 1.1//EN" "http://www.w3.org/Graphics/SVG/1.1/DTD/svg11.dtd">
<svg version="1.1" id="圖層_1" xmlns="http://www.w3.org/2000/svg" xmlns:xlink="http://www.w3.org/1999/xlink" x="0px" y="0px"
	 width="60px" height="60px" viewBox="0 0 60 60" enable-background="new 0 0 60 60" xml:space="preserve">
<circle fill="#BCAAA4" cx="30" cy="30" r="30"/>
<g>
	<path opacity="0.5" fill="#757575" d="M30.583,5.409l6.561,16.115l16.322,0.957l0.217,0.838L41.019,34.045l4.149,16.892
		l-14.764-9.17l-14.756,9.17l-0.155-0.875l4.303-15.716L6.533,23.118v-0.634l17.312-0.935l6.153-16.111L30.583,5.409z"/>
	<path fill="#FFEE58" d="M29.998,5.438l6.449,15.806l17.02,1.237L40.432,33.495l4.079,16.566l-14.513-8.993l-14.505,8.993
		l4.078-16.565L6.533,22.484L23.55,21.24L29.998,5.438z"/>
</g>
<g>
	<g>
		<polygon fill="#A08204" points="26.618,23.456 21.312,24.847 21.312,27.446 23.843,26.765 23.843,33.686 21.378,33.686 
			21.378,36.173 29.078,36.173 29.078,33.686 26.618,33.686 		"/>
		<path fill="#A08204" d="M34.012,23.651c-1.472,0-2.611,0.595-3.387,1.768c-0.742,1.124-1.103,2.694-1.103,4.803
			c0,1.911,0.344,3.411,1.022,4.455c0.729,1.117,1.815,1.686,3.226,1.686c1.453,0,2.582-0.594,3.357-1.767
			c0.723-1.109,1.089-2.674,1.089-4.648C38.217,25.771,36.802,23.651,34.012,23.651z M33.88,33.935
			c-1.032,0-1.557-1.271-1.557-3.782c0-2.698,0.538-4.068,1.598-4.068c1.228,0,1.485,2.167,1.485,3.983
			C35.407,31.832,35.142,33.935,33.88,33.935z"/>
	</g>
	<g>
		<polygon fill="#F4CF31" points="26.86,23.55 21.555,24.94 21.555,27.541 24.086,26.859 24.086,33.779 21.621,33.779 
			21.621,36.268 29.32,36.268 29.32,33.779 26.86,33.779 		"/>
		<path fill="#F4CF31" d="M34.254,23.747c-1.472,0-2.611,0.595-3.386,1.767c-0.743,1.124-1.104,2.694-1.104,4.802
			c0,1.913,0.344,3.411,1.022,4.455c0.729,1.118,1.815,1.686,3.226,1.686c1.453,0,2.582-0.594,3.357-1.766
			c0.723-1.108,1.09-2.674,1.09-4.648C38.46,25.865,37.045,23.747,34.254,23.747z M34.124,34.029c-1.033,0-1.557-1.271-1.557-3.781
			c0-2.7,0.538-4.07,1.598-4.07c1.228,0,1.485,2.167,1.485,3.983C35.65,31.926,35.385,34.029,34.124,34.029z"/>
	</g>
</g>
</svg>
