<?xml version="1.0" encoding="utf-8"?>
<!-- Generator: Adobe Illustrator 16.0.0, SVG Export Plug-In . SVG Version: 6.00 Build 0)  -->
<!DOCTYPE svg PUBLIC "-//W3C//DTD SVG 1.1//EN" "http://www.w3.org/Graphics/SVG/1.1/DTD/svg11.dtd">
<svg version="1.1" id="圖層_1" xmlns="http://www.w3.org/2000/svg" xmlns:xlink="http://www.w3.org/1999/xlink" x="0px" y="0px"
	 width="60px" height="60px" viewBox="0 0 60 60" enable-background="new 0 0 60 60" xml:space="preserve">
<g>
	<circle fill="#BCAAA4" cx="30" cy="30" r="30"/>
	<polygon opacity="0.5" fill="#757575" points="39.358,17.809 39.358,9.562 18.268,17.809 18.268,53.346 46.896,53.346 
		46.896,17.809 	"/>
	<polygon fill="#EAEAEA" points="37.358,43.1 16.268,51.346 16.268,15.809 37.358,7.562 	"/>
	<rect x="16.268" y="15.809" fill="#FFFFFF" width="28.627" height="35.537"/>
	<g>
		<circle fill="#FDC00F" cx="29.029" cy="26.414" r="3.417"/>
		<path fill="#FDC00F" d="M31.041,29.879c-0.565,0.412-1.259,0.659-2.012,0.659c-0.781,0-1.499-0.265-2.074-0.706
			c-2.7,0.403-4.684,1.985-4.768,7.184c0.029,0.203,0.95,0.643,2.385,0.993l0.375-2.784l0.399,2.954
			c1.02,0.199,2.221,0.343,3.51,0.343c1.458,0,2.801-0.182,3.898-0.424l0.389-2.873l0.363,2.69c1.224-0.332,1.994-0.714,2.02-0.899
			C35.445,31.999,33.595,30.351,31.041,29.879z"/>
		<path fill="#FDC00F" d="M34.544,24.02c-0.658,0-1.262,0.23-1.737,0.612c0.256,0.542,0.404,1.145,0.404,1.782
			c0,0.839-0.251,1.621-0.679,2.277c0.504,0.533,1.218,0.868,2.011,0.868c1.53,0,2.771-1.24,2.771-2.771
			C37.314,25.26,36.074,24.02,34.544,24.02z"/>
		<path fill="#FDC00F" d="M36.175,29.505c-0.458,0.334-1.021,0.534-1.631,0.534c-0.634,0-1.215-0.214-1.682-0.571
			c-0.108,0.015-0.212,0.036-0.317,0.056c2.35,0.957,3.55,3.181,3.724,6.865c0.463-0.059,0.902-0.133,1.297-0.221l0.315-2.328
			l0.294,2.181c0.993-0.27,1.616-0.579,1.639-0.73C39.747,31.224,38.247,29.887,36.175,29.505z"/>
	</g>
	<g>
		<path fill="#7C7C7C" stroke="#7C7C7C" stroke-width="0.1" stroke-miterlimit="10" d="M22.711,42.23h-0.372v2.988h0.372v0.506
			H21.35v-0.506h0.369V42.23H21.35v-0.506h1.361V42.23z"/>
		<path fill="#7C7C7C" stroke="#7C7C7C" stroke-width="0.1" stroke-miterlimit="10" d="M27.094,45.725h-0.692l-1.914-2.949
			c-0.07-0.108-0.122-0.202-0.155-0.281h-0.016c0.016,0.104,0.023,0.298,0.023,0.584v2.646H23.74v-4h0.733l1.856,2.893
			c0.088,0.138,0.146,0.233,0.176,0.286h0.013c-0.019-0.124-0.028-0.314-0.028-0.573v-2.605h0.604V45.725z"/>
		<path fill="#7C7C7C" stroke="#7C7C7C" stroke-width="0.1" stroke-miterlimit="10" d="M31.59,41.725l-1.444,4h-0.692l-1.42-4h0.679
			l1.012,3.034c0.038,0.112,0.064,0.236,0.08,0.372h0.013c0.012-0.114,0.042-0.239,0.09-0.377l1.025-3.029H31.59z"/>
		<path fill="#7C7C7C" stroke="#7C7C7C" stroke-width="0.1" stroke-miterlimit="10" d="M33.517,42.23h-0.372v2.988h0.372v0.506
			h-1.361v-0.506h0.37V42.23h-0.37v-0.506h1.361V42.23z"/>
		<path fill="#7C7C7C" stroke="#7C7C7C" stroke-width="0.1" stroke-miterlimit="10" d="M37.067,42.257h-1.149v3.468h-0.623v-3.468
			h-1.146v-0.532h2.918V42.257z"/>
		<path fill="#7C7C7C" stroke="#7C7C7C" stroke-width="0.1" stroke-miterlimit="10" d="M40.276,45.725H38.06v-4h2.125v0.532H38.68
			v1.178h1.397v0.529H38.68v1.229h1.596V45.725z"/>
	</g>
</g>
</svg>
