<?xml version="1.0" encoding="utf-8"?>
<!-- Generator: Adobe Illustrator 15.1.0, SVG Export Plug-In . SVG Version: 6.00 Build 0)  -->
<!DOCTYPE svg PUBLIC "-//W3C//DTD SVG 1.1//EN" "http://www.w3.org/Graphics/SVG/1.1/DTD/svg11.dtd">
<svg version="1.1" id="圖層_1" xmlns="http://www.w3.org/2000/svg" xmlns:xlink="http://www.w3.org/1999/xlink" x="0px" y="0px"
	 width="30px" height="30px" viewBox="0 0 30 30" enable-background="new 0 0 30 30" xml:space="preserve">
<polygon fill="#EAEAEA" points="3.462,11.504 3.462,28.818 20.777,28.818 20.777,17.738 "/>
<polygon fill="#FCFCFC" points="14.058,0.651 8.076,6.777 3.462,11.504 20.832,17.82 28.477,9.15 "/>
<polygon fill="#E79012" points="4.229,7.668 6.824,7.668 6.824,8.062 8.076,6.777 3.462,6.777 3.462,11.504 5.989,8.913 
	4.229,8.913 "/>
<rect x="4.536" y="5.656" fill-rule="evenodd" clip-rule="evenodd" fill="#171717" width="0.563" height="2.774"/>
<rect x="5.769" y="5.656" fill-rule="evenodd" clip-rule="evenodd" fill="#171717" width="0.561" height="2.774"/>
<g>
	<path fill="#303233" d="M5.474,25.155c-0.038-0.004-0.065-0.032-0.063-0.07c0.002-0.039,0.033-0.062,0.069-0.062
		c2.205,0.132,4.405,0.191,6.603,0.188c2.201-0.003,4.405-0.069,6.606-0.188c0.035,0,0.066,0.026,0.066,0.062
		c0.003,0.038-0.025,0.066-0.061,0.07c-2.204,0.121-4.406,0.185-6.612,0.188C9.879,25.346,7.678,25.285,5.474,25.155z"/>
	<path fill="#303233" d="M18.564,24.769c-0.029-0.019-0.042-0.058-0.027-0.091c0.021-0.032,0.059-0.043,0.093-0.022l0.757,0.406
		c0.031,0.018,0.043,0.057,0.023,0.09c-0.006,0.014-0.015,0.019-0.023,0.026l-0.596,0.374c-0.032,0.02-0.071,0.014-0.093-0.018
		c-0.018-0.031-0.009-0.074,0.021-0.092l0.501-0.318L18.564,24.769z"/>
	<path fill="#303233" d="M6.347,26.039c-0.004,0.034-0.037,0.065-0.074,0.062c-0.035-0.003-0.061-0.037-0.059-0.073
		c0.123-1.431,0.083-2.92,0.041-4.409c-0.02-0.75-0.041-1.499-0.041-2.232c0-0.034,0.029-0.064,0.064-0.064
		c0.038,0,0.068,0.03,0.068,0.064c0,0.749,0.02,1.487,0.042,2.228C6.43,23.109,6.472,24.602,6.347,26.039z"/>
	<path fill="#303233" d="M6.003,19.771c-0.018,0.028-0.06,0.038-0.09,0.02c-0.029-0.021-0.04-0.064-0.019-0.094l0.329-0.49
		c0.021-0.027,0.064-0.037,0.093-0.018c0.007,0.008,0.013,0.011,0.015,0.016l0.348,0.455c0.021,0.03,0.015,0.072-0.014,0.094
		c-0.028,0.024-0.071,0.018-0.093-0.014l-0.291-0.38L6.003,19.771z"/>
	<path fill="#303233" d="M17.101,20.166c0.023-0.024,0.067-0.024,0.091,0c0.028,0.027,0.028,0.069,0,0.096l-4.844,4.844
		c-0.025,0.024-0.068,0.024-0.092,0l-0.002-0.001l-4.845-4.843c-0.024-0.026-0.024-0.068,0-0.096c0.026-0.024,0.067-0.024,0.094,0
		l4.8,4.8L17.101,20.166z"/>
</g>
<g>
	<polygon fill="#E4B024" points="25.018,25.341 25.463,24.733 16.841,18.432 16.394,19.036 	"/>
	
		<rect x="19.934" y="17.239" transform="matrix(-0.5906 0.8069 -0.8069 -0.5906 50.6998 19.4393)" fill="#E8C429" width="0.971" height="10.683"/>
	
		<rect x="19.465" y="17.972" transform="matrix(-0.5901 0.8073 -0.8073 -0.5901 50.44 21.0146)" fill="#E3AE22" width="0.841" height="10.68"/>
	<polygon fill="#303233" points="12.778,16.989 13.423,17.881 13.805,17.357 	"/>
	<polygon fill="#D6A57E" points="13.805,17.357 13.423,17.881 14.042,18.737 15.327,20.499 16.083,19.464 16.859,18.445 
		14.817,17.717 	"/>
	
		<rect x="23.358" y="25.128" transform="matrix(0.5903 -0.8072 0.8072 0.5903 -10.6256 30.4047)" fill="#9A9B9C" width="2.562" height="1.083"/>
	
		<rect x="24.127" y="25.82" transform="matrix(0.59 -0.8074 0.8074 0.59 -10.7607 31.2714)" fill="#C13942" width="2.564" height="0.822"/>
</g>
<polygon fill="#E79012" points="3.516,11.557 3.408,11.452 14.046,0.558 14.097,0.587 28.516,9.086 28.441,9.214 14.069,0.745 "/>
</svg>
