<?xml version="1.0" encoding="utf-8"?>
<!-- Generator: Adobe Illustrator 15.1.0, SVG Export Plug-In . SVG Version: 6.00 Build 0)  -->
<!DOCTYPE svg PUBLIC "-//W3C//DTD SVG 1.1//EN" "http://www.w3.org/Graphics/SVG/1.1/DTD/svg11.dtd">
<svg version="1.1" id="圖層_1" xmlns="http://www.w3.org/2000/svg" xmlns:xlink="http://www.w3.org/1999/xlink" x="0px" y="0px"
	 width="30px" height="30px" viewBox="0 0 30 30" enable-background="new 0 0 30 30" xml:space="preserve">
<g>
	<g>
		
			<rect x="-0.306" y="11.024" transform="matrix(0.7168 -0.6973 0.6973 0.7168 -6.1746 14.9091)" fill="#008BB9" width="31.147" height="8.063"/>
		<polygon fill="#E8E8E8" points="5.207,24.161 4.887,24.478 2.417,21.935 2.738,21.62 		"/>
		
			<rect x="7.485" y="17.486" transform="matrix(0.7184 -0.6956 0.6956 0.7184 -11.2242 10.7853)" fill="#E8E8E8" width="0.449" height="3.542"/>
		
			<rect x="23.076" y="2.321" transform="matrix(0.7147 -0.6994 0.6994 0.7147 3.7851 17.4644)" fill="#E8E8E8" width="0.448" height="3.543"/>
		
			<rect x="19.177" y="6.111" transform="matrix(0.712 -0.7022 0.7022 0.712 0.053 15.8949)" fill="#E8E8E8" width="0.45" height="3.545"/>
		
			<rect x="15.281" y="9.904" transform="matrix(0.7163 -0.6978 0.6978 0.7163 -3.7478 14.1329)" fill="#E8E8E8" width="0.45" height="3.542"/>
		
			<rect x="11.382" y="13.693" transform="matrix(0.7168 -0.6973 0.6973 0.7168 -7.496 12.474)" fill="#E8E8E8" width="0.451" height="3.543"/>
	</g>
	<g>
		<polygon fill="#EEB619" points="22.46,19.786 24.022,18.167 11.647,6.251 10.04,7.824 		"/>
		<polygon fill="#F3CC1E" points="20.452,21.876 22.46,19.786 10.04,7.824 8.027,9.913 		"/>
		
			<rect x="12.115" y="8.173" transform="matrix(-0.6937 0.7202 -0.7202 -0.6937 34.7423 18.822)" fill="#EDB517" width="2.508" height="17.248"/>
		<polygon fill="#313333" points="1.497,1.604 2.707,4.171 4.052,2.772 		"/>
		<polygon fill="#E3AD81" points="4.052,2.772 2.707,4.171 3.869,6.639 6.287,11.723 8.942,8.962 11.647,6.251 6.571,3.928 		"/>
		<polygon fill="#9D9C9D" points="26.765,20.833 21.452,26.349 18.435,23.479 23.745,17.962 		"/>
		<polygon fill="#CD3A44" points="29.038,22.995 23.728,28.513 21.456,26.353 26.769,20.835 		"/>
	</g>
</g>
</svg>
