<?xml version="1.0" encoding="utf-8"?>
<!-- Generator: Adobe Illustrator 16.0.0, SVG Export Plug-In . SVG Version: 6.00 Build 0)  -->
<!DOCTYPE svg PUBLIC "-//W3C//DTD SVG 1.1//EN" "http://www.w3.org/Graphics/SVG/1.1/DTD/svg11.dtd">
<svg version="1.1" id="圖層_1" xmlns="http://www.w3.org/2000/svg" xmlns:xlink="http://www.w3.org/1999/xlink" x="0px" y="0px"
	 width="30px" height="30px" viewBox="0 0 30 30" enable-background="new 0 0 30 30" xml:space="preserve">
<g>
	<path fill="#777878" d="M27.318,23.654c0,2.33-1.889,4.217-4.217,4.217h-16.5c-2.328,0-4.216-1.887-4.216-4.217V6.821
		c0-2.327,1.888-4.215,4.216-4.215h16.5c2.328,0,4.217,1.888,4.217,4.215V23.654z"/>
	<path fill="#636464" d="M15.196,7.221c-4.449,0-8.056,3.607-8.056,8.056c0,4.452,3.607,8.058,8.056,8.058
		c4.448,0,8.054-3.605,8.054-8.058C23.25,10.828,19.645,7.221,15.196,7.221z M19.64,11.607v0.104v0.392v0.004
		c-0.521,0-0.827,0.423-0.827,0.945v4.447v0.115c0,0.524,0.306,0.882,0.827,0.882v0.349v0.124v0.407h-0.531h-2.982h-0.531v-0.407
		v-0.124v-0.349c0.521,0,0.861-0.476,0.861-0.997v-1.64h-2.499v1.64v0.115c0,0.524,0.273,0.882,0.796,0.882v0.349v0.124v0.407
		h-0.532h-2.905h-0.533v-0.407v-0.124v-0.349h0.007c0.522,0,0.789-0.357,0.789-0.882v-0.226v-4.337v-0.117
		c0-0.522-0.306-0.828-0.829-0.828v-0.004V11.71v-0.104v-0.429h0.534h2.905h0.532v0.429v0.104v0.39v0.006
		c-0.522,0-0.764,0.423-0.764,0.945v1.213h2.499v-1.213v-0.117c0-0.522-0.273-0.828-0.797-0.828v-0.005V11.71v-0.104v-0.429h0.533
		h2.916h0.531V11.607z"/>
	<path fill="#FFFFFF" d="M15.001,7.139c-4.341,0-7.86,3.52-7.86,7.86c0,4.345,3.52,7.862,7.86,7.862s7.858-3.518,7.858-7.862
		C22.859,10.658,19.342,7.139,15.001,7.139z M19.337,11.419v0.101v0.382v0.004c-0.509,0-0.808,0.413-0.808,0.922v4.34v0.113
		c0,0.511,0.299,0.859,0.808,0.859v0.34v0.121V19h-0.519h-2.91H15.39v-0.398V18.48v-0.34c0.509,0,0.841-0.464,0.841-0.973v-1.601
		h-2.438v1.601v0.113c0,0.511,0.267,0.859,0.777,0.859v0.34v0.121V19H14.05h-2.835h-0.52v-0.398V18.48v-0.34h0.007
		c0.509,0,0.77-0.349,0.77-0.859V17.06v-4.231v-0.114c0-0.509-0.299-0.808-0.809-0.808v-0.004V11.52v-0.101V11h0.52h2.835h0.52
		v0.419v0.101v0.38v0.006c-0.51,0-0.746,0.413-0.746,0.922v1.184h2.438v-1.184v-0.114c0-0.509-0.268-0.808-0.777-0.808v-0.005V11.52
		v-0.101V11h0.52h2.846h0.519V11.419z"/>
</g>
</svg>
