<?xml version="1.0" encoding="utf-8"?>
<!-- Generator: Adobe Illustrator 15.1.0, SVG Export Plug-In . SVG Version: 6.00 Build 0)  -->
<!DOCTYPE svg PUBLIC "-//W3C//DTD SVG 1.1//EN" "http://www.w3.org/Graphics/SVG/1.1/DTD/svg11.dtd" [
	<!ENTITY ns_flows "http://ns.adobe.com/Flows/1.0/">
	<!ENTITY ns_extend "http://ns.adobe.com/Extensibility/1.0/">
	<!ENTITY ns_ai "http://ns.adobe.com/AdobeIllustrator/10.0/">
	<!ENTITY ns_graphs "http://ns.adobe.com/Graphs/1.0/">
]>
<svg version="1.1" id="圖層_1" xmlns:x="&ns_extend;" xmlns:i="&ns_ai;" xmlns:graph="&ns_graphs;"
	 xmlns="http://www.w3.org/2000/svg" xmlns:xlink="http://www.w3.org/1999/xlink" xmlns:a="http://ns.adobe.com/AdobeSVGViewerExtensions/3.0/"
	 x="0px" y="0px" width="30px" height="30px" viewBox="0 0 30 30" enable-background="new 0 0 30 30" xml:space="preserve">
<path fill="#777878" d="M27.319,23.654c0,2.33-1.889,4.217-4.217,4.217H6.601c-2.328,0-4.216-1.887-4.216-4.217V6.821
	c0-2.327,1.888-4.215,4.216-4.215h16.501c2.328,0,4.217,1.888,4.217,4.215V23.654z"/>
<g>
	<g opacity="0.75"  a:adobe-blending-mode="multiply"  a:adobe-opacity-share="1">
		<path fill="#636464"  a:adobe-blending-mode="normal"  a:adobe-opacity-share="0" d="M15.004,7.522
			c-4.517,0-8.18,3.664-8.18,8.181c0,4.518,3.663,8.18,8.18,8.18c4.519,0,8.181-3.662,8.181-8.18
			C23.185,11.187,19.522,7.522,15.004,7.522z M16.138,21.492H13.94v-2.197h2.197V21.492z M18.706,14.58
			c-0.273,0.433-0.857,1.021-1.754,1.768c-0.465,0.385-0.752,0.696-0.865,0.93c-0.111,0.234-0.162,0.654-0.152,1.26H13.94
			c-0.005-0.287-0.008-0.462-0.008-0.524c0-0.646,0.107-1.178,0.32-1.595c0.214-0.417,0.642-0.887,1.282-1.407
			c0.642-0.521,1.024-0.862,1.151-1.024c0.191-0.256,0.289-0.537,0.289-0.844c0-0.428-0.172-0.793-0.514-1.098
			c-0.34-0.306-0.801-0.459-1.38-0.459c-0.558,0-1.024,0.158-1.399,0.477s-0.633,0.804-0.774,1.454l-2.017-0.25
			c0.057-0.934,0.454-1.725,1.192-2.377c0.737-0.651,1.705-0.977,2.904-0.977c1.263,0,2.265,0.33,3.011,0.99
			c0.746,0.659,1.117,1.425,1.117,2.301C19.116,13.689,18.979,14.148,18.706,14.58z"/>
	</g>
	<g>
		<path fill="#FFFFFF" d="M14.699,7.218c-4.518,0-8.18,3.664-8.18,8.182c0,4.516,3.662,8.178,8.18,8.178
			c4.517,0,8.181-3.662,8.181-8.178C22.88,10.882,19.216,7.218,14.699,7.218z M15.833,21.188h-2.197V18.99h2.197V21.188z
			 M18.401,14.275c-0.273,0.433-0.857,1.021-1.756,1.768c-0.463,0.385-0.752,0.695-0.863,0.931
			c-0.112,0.233-0.163,0.653-0.152,1.258h-1.994c-0.005-0.286-0.008-0.461-0.008-0.523c0-0.646,0.106-1.178,0.32-1.595
			c0.214-0.418,0.642-0.887,1.282-1.408c0.642-0.521,1.024-0.862,1.149-1.023c0.193-0.256,0.291-0.537,0.291-0.845
			c0-0.428-0.172-0.792-0.514-1.098c-0.341-0.305-0.801-0.458-1.38-0.458c-0.558,0-1.024,0.158-1.399,0.477
			c-0.375,0.317-0.634,0.803-0.774,1.454l-2.017-0.25c0.057-0.933,0.454-1.726,1.192-2.377c0.737-0.651,1.705-0.978,2.904-0.978
			c1.263,0,2.265,0.331,3.011,0.99c0.746,0.66,1.117,1.426,1.117,2.302C18.812,13.384,18.675,13.843,18.401,14.275z"/>
	</g>
</g>
</svg>
