<?xml version="1.0" encoding="utf-8"?>
<!-- Generator: Adobe Illustrator 15.1.0, SVG Export Plug-In . SVG Version: 6.00 Build 0)  -->
<!DOCTYPE svg PUBLIC "-//W3C//DTD SVG 1.1//EN" "http://www.w3.org/Graphics/SVG/1.1/DTD/svg11.dtd" [
	<!ENTITY ns_flows "http://ns.adobe.com/Flows/1.0/">
	<!ENTITY ns_extend "http://ns.adobe.com/Extensibility/1.0/">
	<!ENTITY ns_ai "http://ns.adobe.com/AdobeIllustrator/10.0/">
	<!ENTITY ns_graphs "http://ns.adobe.com/Graphs/1.0/">
]>
<svg version="1.1" id="圖層_1" xmlns:x="&ns_extend;" xmlns:i="&ns_ai;" xmlns:graph="&ns_graphs;"
	 xmlns="http://www.w3.org/2000/svg" xmlns:xlink="http://www.w3.org/1999/xlink" xmlns:a="http://ns.adobe.com/AdobeSVGViewerExtensions/3.0/"
	 x="0px" y="0px" width="30px" height="30px" viewBox="0 0 30 30" enable-background="new 0 0 30 30" xml:space="preserve">
<g>
	<g>
		<polygon fill="#A16928" points="7.939,4.537 7.939,6.611 1.643,6.611 1.643,4.537 1.188,4.537 1.188,7.057 8.393,7.057 
			8.393,4.537 		"/>
		<rect x="1.643" y="4.91" fill="#EEEFCE" width="6.297" height="1.701"/>
		<rect x="1.188" y="7.057" fill="#A05525" width="7.205" height="20.29"/>
		<path fill="#FAD7C4" d="M2.125,8.477v17.739h5.332V8.477H2.125z M7.154,25.84H2.426V8.853h4.729V25.84z"/>
	</g>
	<g>
		<polygon fill="#B69923" points="22.346,6.636 22.346,8.71 16.051,8.71 16.051,6.636 15.596,6.636 15.596,9.154 22.801,9.154 
			22.801,6.636 		"/>
		<rect x="16.051" y="7.009" fill="#EEEFCE" width="6.295" height="1.701"/>
		<rect x="15.596" y="9.154" fill="#A28C22" width="7.205" height="18.192"/>
		<path fill="#FAD7C4" d="M16.531,10.574v15.314h5.334V10.574H16.531z M21.563,25.565h-4.729V10.898h4.729V25.565z"/>
	</g>
	<polygon fill="#C7292D" points="15.143,3.018 15.143,5.092 8.848,5.092 8.848,3.018 8.393,3.018 8.393,5.537 15.596,5.537 
		15.596,3.018 	"/>
	<rect x="8.848" y="3.391" fill="#EEEFCE" width="6.295" height="1.701"/>
	<rect x="8.393" y="5.537" fill="#B6282C" width="7.203" height="21.81"/>
	<rect x="8.393" y="7.42" fill="#FAD7C4" width="7.203" height="0.499"/>
	<rect x="8.393" y="9.265" fill="#FAD7C4" width="7.203" height="0.5"/>
	<rect x="8.393" y="23.295" fill="#FAD7C4" width="7.203" height="0.499"/>
	<rect x="8.393" y="25.249" fill="#FAD7C4" width="7.203" height="0.499"/>
	<g>
		<rect x="23.176" y="9.887" fill="#EEEFCE" width="5.213" height="1.701"/>
		<rect x="22.801" y="12.032" fill="#353D2A" width="5.965" height="15.314"/>
		<polygon fill="#4A513B" points="28.389,9.514 28.389,11.588 23.176,11.588 23.176,9.514 22.801,9.514 22.801,12.032 
			28.766,12.032 28.766,9.514 		"/>
		<rect x="22.801" y="17.448" fill="#F8F7C5" width="5.965" height="2.796"/>
	</g>
</g>
</svg>
