<?xml version="1.0" encoding="utf-8"?>
<!-- Generator: Adobe Illustrator 16.0.0, SVG Export Plug-In . SVG Version: 6.00 Build 0)  -->
<!DOCTYPE svg PUBLIC "-//W3C//DTD SVG 1.1//EN" "http://www.w3.org/Graphics/SVG/1.1/DTD/svg11.dtd">
<svg version="1.1" id="圖層_1" xmlns="http://www.w3.org/2000/svg" xmlns:xlink="http://www.w3.org/1999/xlink" x="0px" y="0px"
	 width="30px" height="30px" viewBox="0 0 30 30" enable-background="new 0 0 30 30" xml:space="preserve">
<g>
	<g>
		<g>
			<path fill="#333333" d="M25.924,9.698"/>
		</g>
	</g>
</g>
<g>
	<rect y="3.999" fill="#EAE9E9" width="24.067" height="22.795"/>
	<rect y="3.999" fill="#FF5722" width="24.067" height="5.064"/>
	<rect y="3.999" fill="#DD421D" width="24.067" height="2.532"/>
	<g>
		<path fill="#212121" d="M4.878,21.495l1.063-1.458c0.585,0.561,1.264,0.938,2.017,0.938c0.898,0,1.481-0.378,1.481-1.11
			c0-0.826-0.44-1.32-2.467-1.32v-1.63c1.651,0,2.17-0.504,2.17-1.273c0-0.66-0.39-1.027-1.106-1.027
			c-0.652,0-1.144,0.3-1.728,0.807l-1.172-1.419c0.897-0.752,1.859-1.19,3.001-1.19c2.003,0,3.317,0.933,3.317,2.664
			c0,0.96-0.521,1.716-1.561,2.131v0.063c1.08,0.329,1.872,1.108,1.872,2.354c0,1.809-1.653,2.826-3.576,2.826
			C6.658,22.844,5.578,22.313,4.878,21.495z"/>
		<path fill="#212121" d="M13.501,20.787h2.053v-5.495h-1.78v-1.43c1.039-0.194,1.717-0.453,2.392-0.871h1.703v7.796h1.746v1.878
			h-6.114V20.787z"/>
	</g>
	<polygon fill="#EF5350" points="30,17.583 27.378,15.063 18.129,24.66 13.77,20.46 11.246,23.074 15.609,27.283 15.609,27.283 
		18.231,29.802 20.75,27.19 20.75,27.19 	"/>
	<path fill="#212121" d="M6.333,5.471c0,0.584-0.473,1.06-1.059,1.06H4.862c-0.586,0-1.062-0.476-1.062-1.06V1.258
		c0-0.584,0.476-1.06,1.062-1.06h0.412c0.586,0,1.059,0.476,1.059,1.06V5.471z"/>
	<path fill="#212121" d="M11.4,5.471c0,0.584-0.475,1.06-1.059,1.06H9.926c-0.583,0-1.059-0.476-1.059-1.06V1.258
		c0-0.584,0.475-1.06,1.059-1.06h0.415c0.584,0,1.059,0.476,1.059,1.06V5.471z"/>
	<path fill="#212121" d="M16.468,5.471c0,0.584-0.479,1.06-1.062,1.06h-0.415c-0.584,0-1.059-0.476-1.059-1.06V1.258
		c0-0.584,0.475-1.06,1.059-1.06h0.415c0.583,0,1.062,0.476,1.062,1.06V5.471z"/>
	<path fill="#212121" d="M21.531,5.471c0,0.584-0.478,1.06-1.062,1.06h-0.411c-0.583,0-1.062-0.476-1.062-1.06V1.258
		c0-0.584,0.479-1.06,1.062-1.06h0.411c0.584,0,1.062,0.476,1.062,1.06V5.471z"/>
</g>
</svg>
