<?xml version="1.0" encoding="utf-8"?>
<!-- Generator: Adobe Illustrator 15.1.0, SVG Export Plug-In . SVG Version: 6.00 Build 0)  -->
<!DOCTYPE svg PUBLIC "-//W3C//DTD SVG 1.1//EN" "http://www.w3.org/Graphics/SVG/1.1/DTD/svg11.dtd" [
	<!ENTITY ns_flows "http://ns.adobe.com/Flows/1.0/">
	<!ENTITY ns_extend "http://ns.adobe.com/Extensibility/1.0/">
	<!ENTITY ns_ai "http://ns.adobe.com/AdobeIllustrator/10.0/">
	<!ENTITY ns_graphs "http://ns.adobe.com/Graphs/1.0/">
]>
<svg version="1.1" id="圖層_1" xmlns:x="&ns_extend;" xmlns:i="&ns_ai;" xmlns:graph="&ns_graphs;"
	 xmlns="http://www.w3.org/2000/svg" xmlns:xlink="http://www.w3.org/1999/xlink" xmlns:a="http://ns.adobe.com/AdobeSVGViewerExtensions/3.0/"
	 x="0px" y="0px" width="30px" height="30px" viewBox="0 0 30 30" enable-background="new 0 0 30 30" xml:space="preserve">
<g>
	<path fill="#777878" d="M27.319,23.654c0,2.33-1.889,4.217-4.217,4.217H6.601c-2.328,0-4.216-1.887-4.216-4.217V6.821
		c0-2.327,1.888-4.215,4.216-4.215h16.501c2.328,0,4.217,1.888,4.217,4.215V23.654z"/>
	<g opacity="0.75"  a:adobe-blending-mode="multiply"  a:adobe-opacity-share="1">
		<path fill-rule="evenodd" clip-rule="evenodd" fill="#636464"  a:adobe-blending-mode="normal"  a:adobe-opacity-share="0" d="
			M11.694,15.543c0-1.914,1.551-3.463,3.463-3.463c1.915,0,3.463,1.549,3.463,3.463c0,1.915-1.549,3.465-3.463,3.465
			C13.245,19.008,11.694,17.458,11.694,15.543z M8.229,14.06c-0.547,0-0.99,0.442-0.99,0.989v0.989c0,0.547,0.443,0.99,0.99,0.99
			h1.403c0.13,0.487,0.324,0.947,0.57,1.374l-0.995,0.992c-0.387,0.384-0.387,1.011,0,1.397l0.7,0.7
			c0.387,0.387,1.014,0.387,1.399,0l0.992-0.994c0.427,0.247,0.887,0.44,1.374,0.57v1.404c0,0.546,0.442,0.99,0.989,0.99h0.989
			c0.546,0,0.99-0.444,0.99-0.99v-1.405c0.486-0.132,0.945-0.322,1.371-0.569l0.994,0.994c0.385,0.387,1.012,0.387,1.398,0
			l0.701-0.7c0.387-0.387,0.387-1.014,0-1.397l-0.994-0.996c0.246-0.425,0.438-0.885,0.568-1.37h1.404c0.547,0,0.99-0.443,0.99-0.99
			v-0.989c0-0.547-0.443-0.989-0.99-0.989h-1.402c-0.131-0.487-0.324-0.948-0.57-1.374l0.994-0.991c0.387-0.387,0.387-1.013,0-1.398
			l-0.701-0.702c-0.387-0.386-1.014-0.386-1.398,0l-0.992,0.995c-0.426-0.246-0.887-0.44-1.373-0.571V8.614
			c0-0.545-0.443-0.989-0.99-0.989h-0.989c-0.547,0-0.989,0.444-0.989,0.989v1.406c-0.486,0.131-0.945,0.322-1.371,0.568
			l-0.995-0.995c-0.386-0.386-1.013-0.386-1.399,0l-0.7,0.702c-0.387,0.386-0.387,1.012,0,1.398l0.995,0.993
			c-0.246,0.427-0.438,0.886-0.568,1.372H8.229z"/>
	</g>
	<g>
		<path fill-rule="evenodd" clip-rule="evenodd" fill="#FFFFFF" d="M11.388,15.238c0-1.914,1.552-3.464,3.464-3.464
			c1.913,0,3.463,1.55,3.463,3.464c0,1.915-1.551,3.465-3.463,3.465C12.94,18.703,11.388,17.153,11.388,15.238z M7.923,13.754
			c-0.546,0-0.989,0.443-0.989,0.99v0.989c0,0.547,0.443,0.99,0.989,0.99h1.403c0.131,0.487,0.324,0.947,0.57,1.373l-0.994,0.992
			c-0.387,0.386-0.387,1.012,0,1.398l0.701,0.701c0.386,0.386,1.013,0.386,1.398,0l0.992-0.995c0.426,0.246,0.887,0.44,1.373,0.57
			v1.404c0,0.546,0.444,0.989,0.989,0.989h0.99c0.546,0,0.99-0.443,0.99-0.989v-1.406c0.484-0.131,0.945-0.322,1.371-0.568
			l0.994,0.995c0.385,0.386,1.012,0.386,1.398,0l0.701-0.701c0.387-0.387,0.387-1.013,0-1.398l-0.994-0.995
			c0.246-0.426,0.438-0.885,0.568-1.37h1.404c0.547,0,0.99-0.443,0.99-0.99v-0.989c0-0.547-0.443-0.99-0.99-0.99h-1.402
			c-0.131-0.487-0.324-0.947-0.57-1.373l0.994-0.991c0.387-0.387,0.387-1.013,0-1.399l-0.701-0.701
			c-0.387-0.386-1.014-0.386-1.398,0l-0.992,0.995c-0.426-0.246-0.887-0.44-1.373-0.571V8.31c0-0.546-0.444-0.989-0.99-0.989h-0.99
			c-0.545,0-0.989,0.443-0.989,0.989v1.405c-0.485,0.132-0.945,0.323-1.37,0.569l-0.995-0.995c-0.386-0.386-1.013-0.386-1.398,0
			L8.903,9.99c-0.387,0.387-0.387,1.013,0,1.399l0.994,0.993c-0.246,0.427-0.438,0.885-0.567,1.371H7.923z"/>
	</g>
</g>
</svg>
