<?xml version="1.0" encoding="utf-8"?>
<!-- Generator: Adobe Illustrator 16.0.0, SVG Export Plug-In . SVG Version: 6.00 Build 0)  -->
<!DOCTYPE svg PUBLIC "-//W3C//DTD SVG 1.1//EN" "http://www.w3.org/Graphics/SVG/1.1/DTD/svg11.dtd">
<svg version="1.1" id="圖層_1" xmlns="http://www.w3.org/2000/svg" xmlns:xlink="http://www.w3.org/1999/xlink" x="0px" y="0px"
	 width="30px" height="30px" viewBox="0 0 30 30" enable-background="new 0 0 30 30" xml:space="preserve">
<g>
	<g>
		<g>
			<path fill="#333333" d="M25.924,9.698"/>
		</g>
	</g>
</g>
<g>
	<rect x="4.929" y="13.887" fill="#A1887F" width="20.141" height="14.099"/>
	<rect x="6.943" y="17.915" fill="#88D7FC" width="9.063" height="9.063"/>
	<rect x="17.014" y="18.922" fill="#8D6E63" width="7.05" height="9.063"/>
	<rect x="2.915" y="27.985" fill="#6D4C41" width="24.17" height="2.015"/>
	<polygon fill="#E2470A" points="6.39,7.844 22.604,7.844 22.604,7.844 	"/>
	<polygon fill="#EF5350" points="23.862,7.844 6.138,7.844 2.915,13.887 27.085,13.887 	"/>
	<polygon fill="#FFCCBC" points="23.862,7.844 21.168,7.844 23.057,13.887 27.085,13.887 	"/>
	<polygon fill="#FFCCBC" points="18.511,7.844 15,7.844 15,13.887 19.05,13.887 	"/>
	<polygon fill="#FFCCBC" points="11.433,7.844 8.286,7.844 6.933,13.887 10.961,13.887 	"/>
	<rect x="18.021" y="19.929" fill="#B3E5FC" width="5.035" height="3.021"/>
	<rect x="18.021" y="23.957" fill="#B3E5FC" width="5.035" height="4.028"/>
	<rect x="6.943" y="17.915" fill="#E8ECF3" width="9.063" height="1.007"/>
	<rect x="6.943" y="21.943" fill="#E8ECF3" width="9.063" height="1.007"/>
	<rect x="6.943" y="17.915" fill="#E8ECF3" width="1.007" height="9.063"/>
	<rect x="10.972" y="17.915" fill="#E8ECF3" width="1.007" height="9.063"/>
	<rect x="15" y="17.915" fill="#E8ECF3" width="1.007" height="9.063"/>
	<rect x="6.943" y="25.972" fill="#E8ECF3" width="9.063" height="1.007"/>
	<path fill="#EF5350" d="M6.943,13.887H2.915v0.827c0,0,0,0.185,0,0.213c0,1.242,0.782,2.156,2.025,2.156
		c1.241,0,2.003-0.86,2.003-2.103c0-0.027,0-0.266,0-0.266V13.887z"/>
	<path fill="#FFCCBC" d="M10.972,13.887H6.943v0.827c0,0,0,0.185,0,0.213c0,1.242,0.782,2.156,2.025,2.156
		c1.241,0,2.003-0.86,2.003-2.103c0-0.027,0-0.266,0-0.266V13.887z"/>
	<path fill="#EF5350" d="M15,13.887h-4.028v0.827c0,0,0,0.185,0,0.213c0,1.242,0.782,2.156,2.025,2.156
		c1.241,0,2.003-0.86,2.003-2.103c0-0.027,0-0.266,0-0.266V13.887z"/>
	<path fill="#FFCCBC" d="M19.028,13.887H15v0.827c0,0,0,0.185,0,0.213c0,1.242,0.783,2.156,2.026,2.156
		c1.24,0,2.002-0.86,2.002-2.103c0-0.027,0-0.266,0-0.266V13.887z"/>
	<path fill="#EF5350" d="M23.057,13.887h-4.028v0.827c0,0,0,0.185,0,0.213c0,1.242,0.783,2.156,2.026,2.156
		c1.24,0,2.002-0.86,2.002-2.103c0-0.027,0-0.266,0-0.266V13.887z"/>
	<path fill="#FFCCBC" d="M27.085,13.887h-4.028v0.827c0,0,0,0.185,0,0.213c0,1.242,0.783,2.156,2.026,2.156
		c1.24,0,2.002-0.86,2.002-2.103c0-0.027,0-0.266,0-0.266V13.887z"/>
	<circle fill="#6D4C41" cx="23.141" cy="23.215" r="0.587"/>
	<g>
		<path id="XMLID_187_" fill="#FF8A65" d="M16.156,4.261c-0.41,0-0.803,0.102-1.163,0.278c-0.36-0.177-0.754-0.278-1.165-0.278
			c-1.757,0-3.181,1.784-3.181,3.983c0,2.198,1.425,3.981,3.181,3.981c0.411,0,0.804-0.102,1.165-0.277
			c0.36,0.176,0.753,0.277,1.163,0.277c1.759,0,3.183-1.784,3.183-3.981C19.339,6.044,17.915,4.261,16.156,4.261z"/>
		<path id="XMLID_182_" fill="#43A047" d="M15.142,4.494c0,0-1.734-1.754-0.207-3.057c0.456-0.388,1.067-0.525,1.662-0.459
			C17.329,1.056,18.521,0.999,19.353,0c0,0-0.539,2.467-2.523,2.722C16.829,2.722,14.76,2.951,15.142,4.494z"/>
		<path fill="#FFCCBC" d="M16.369,4.511c-0.091-0.009-0.175-0.036-0.269-0.036c-1.783,0-3.228,1.956-3.228,4.367
			c0,0.124,0.021,0.24,0.027,0.362C13.034,6.687,14.509,4.691,16.369,4.511z"/>
	</g>
</g>
</svg>
