<?xml version="1.0" encoding="utf-8"?>
<!-- Generator: Adobe Illustrator 15.1.0, SVG Export Plug-In . SVG Version: 6.00 Build 0)  -->
<!DOCTYPE svg PUBLIC "-//W3C//DTD SVG 1.1//EN" "http://www.w3.org/Graphics/SVG/1.1/DTD/svg11.dtd" [
	<!ENTITY ns_flows "http://ns.adobe.com/Flows/1.0/">
	<!ENTITY ns_extend "http://ns.adobe.com/Extensibility/1.0/">
	<!ENTITY ns_ai "http://ns.adobe.com/AdobeIllustrator/10.0/">
	<!ENTITY ns_graphs "http://ns.adobe.com/Graphs/1.0/">
]>
<svg version="1.1" id="圖層_1" xmlns:x="&ns_extend;" xmlns:i="&ns_ai;" xmlns:graph="&ns_graphs;"
	 xmlns="http://www.w3.org/2000/svg" xmlns:xlink="http://www.w3.org/1999/xlink" xmlns:a="http://ns.adobe.com/AdobeSVGViewerExtensions/3.0/"
	 x="0px" y="0px" width="30px" height="30px" viewBox="0 0 30 30" enable-background="new 0 0 30 30" xml:space="preserve">
<g>
	<g>
		<linearGradient id="SVGID_1_" gradientUnits="userSpaceOnUse" x1="5.2744" y1="16.4766" x2="12.248" y2="16.4766">
			<stop  offset="0" style="stop-color:#1B2B59"/>
			<stop  offset="0.3939" style="stop-color:#0B3581"/>
			<stop  offset="0.6606" style="stop-color:#3368A9"/>
			<stop  offset="0.7212" style="stop-color:#2C5EA1"/>
			<stop  offset="0.7818" style="stop-color:#1A2F6D"/>
			<stop  offset="1" style="stop-color:#1B2B59"/>
			<a:midPointStop  offset="0" style="stop-color:#1B2B59"/>
			<a:midPointStop  offset="0.5" style="stop-color:#1B2B59"/>
			<a:midPointStop  offset="0.3939" style="stop-color:#0B3581"/>
			<a:midPointStop  offset="0.5" style="stop-color:#0B3581"/>
			<a:midPointStop  offset="0.6606" style="stop-color:#3368A9"/>
			<a:midPointStop  offset="0.5" style="stop-color:#3368A9"/>
			<a:midPointStop  offset="0.7212" style="stop-color:#2C5EA1"/>
			<a:midPointStop  offset="0.5" style="stop-color:#2C5EA1"/>
			<a:midPointStop  offset="0.7818" style="stop-color:#1A2F6D"/>
			<a:midPointStop  offset="0.5" style="stop-color:#1A2F6D"/>
			<a:midPointStop  offset="1" style="stop-color:#1B2B59"/>
		</linearGradient>
		<path fill="url(#SVGID_1_)" d="M11.52,14.124c0.027-0.01,0.058-0.019,0.086-0.03c0.014-0.004,0.028-0.009,0.046-0.013
			c0.028-0.007,0.056-0.013,0.087-0.02c0.015-0.003,0.027-0.006,0.04-0.008c0.038-0.007,0.076-0.013,0.115-0.018
			c0.005,0,0.009,0,0.016-0.001c0.043-0.003,0.086-0.005,0.131-0.005c0.012,0,0.025,0.001,0.039,0.001
			c0.03,0.001,0.061,0.002,0.093,0.005c0.026,0.002,0.053,0.005,0.076,0.009c-0.952-0.147-1.906-0.294-2.859-0.443
			c-0.018-0.002-0.036-0.005-0.055-0.008c-0.006,0-0.015,0-0.021-0.001C9.28,13.59,9.25,13.588,9.218,13.588
			c-0.013,0-0.023-0.001-0.039-0.002c-0.043,0.001-0.086,0.002-0.13,0.006H9.047c-0.004,0-0.011,0-0.015,0.001
			c-0.037,0.004-0.076,0.01-0.112,0.017c-0.014,0.002-0.026,0.006-0.042,0.009C8.85,13.625,8.82,13.631,8.792,13.64
			c-0.016,0.003-0.03,0.008-0.046,0.012c-0.03,0.009-0.059,0.019-0.086,0.029c-0.014,0.005-0.026,0.011-0.039,0.015
			c-0.042,0.017-0.081,0.034-0.119,0.053c-0.016,0.007-0.028,0.015-0.043,0.022c-0.046,0.024-0.092,0.051-0.137,0.077
			c-0.011,0.006-0.021,0.013-0.034,0.02c-0.044,0.028-0.087,0.055-0.129,0.084c-0.002,0.002-0.004,0.003-0.006,0.004
			c-0.039,0.029-0.077,0.059-0.116,0.091c-0.009,0.007-0.02,0.015-0.031,0.024c-0.036,0.032-0.073,0.065-0.111,0.102
			c0,0-0.001,0-0.001,0.001c-0.004,0.005-0.008,0.01-0.013,0.015c-0.023,0.023-0.048,0.051-0.071,0.075
			c-0.011,0.012-0.018,0.021-0.026,0.033c-0.017,0.021-0.037,0.044-0.052,0.067c-0.004,0.004-0.009,0.011-0.015,0.019
			c-0.004,0.004-0.007,0.009-0.009,0.015c-0.032,0.044-0.063,0.092-0.091,0.142c0,0.002,0,0.003-0.002,0.006
			c-0.002,0.004-0.005,0.011-0.008,0.018c-0.019,0.037-0.038,0.076-0.053,0.114c-0.004,0.008-0.009,0.015-0.011,0.022
			c-0.002,0.004-0.003,0.011-0.004,0.016c-0.021,0.046-0.035,0.093-0.05,0.142c0,0.002,0,0.002,0,0.002l-0.003,0.004
			c-0.014,0.051-0.023,0.106-0.032,0.16c0,0.007-0.002,0.015-0.004,0.022c-0.002,0.008-0.002,0.015-0.002,0.021
			C7.44,15.122,7.436,15.18,7.434,15.24c-0.002,0.02-0.002,0.04-0.002,0.059c0,0.01,0,0.021,0,0.032c0,0.018,0,0.034,0.002,0.053
			c0,0.022,0.002,0.042,0.004,0.062c0,0.02,0.003,0.035,0.005,0.052c0.002,0.021,0.004,0.042,0.007,0.062
			c0.004,0.017,0.006,0.034,0.008,0.05c0.002,0.021,0.007,0.04,0.011,0.059c0.004,0.017,0.006,0.031,0.011,0.046
			c0.007,0.021,0.012,0.039,0.018,0.058c0.005,0.014,0.009,0.029,0.013,0.042c0.008,0.02,0.015,0.037,0.021,0.056
			c0.005,0.013,0.011,0.024,0.016,0.037c0.009,0.02,0.02,0.037,0.027,0.054c0.007,0.011,0.011,0.02,0.016,0.029
			c0.018,0.026,0.032,0.051,0.052,0.074c0.249,0.315,1.069,0.7,1.141,0.899c0.006,0.016,0.011,0.034,0.015,0.055
			c0,0.006,0,0.011,0,0.017c0.004,0.017,0.006,0.041,0.006,0.066c0,0.003,0,0.007,0,0.009C8.8,17.132,8.8,17.15,8.796,17.175
			c0,0.007,0,0.013-0.002,0.021c-0.002,0.018-0.007,0.035-0.011,0.052c-0.002,0.007-0.002,0.013-0.007,0.02
			c-0.004,0.024-0.013,0.05-0.024,0.074c0,0.006-0.004,0.011-0.006,0.015c-0.009,0.021-0.02,0.044-0.03,0.066
			c-0.004,0.007-0.008,0.017-0.014,0.022c-0.015,0.025-0.029,0.055-0.049,0.08c-0.005,0.006-0.007,0.011-0.011,0.02
			c-0.009,0.011-0.019,0.021-0.028,0.032c-0.008,0.013-0.02,0.026-0.03,0.039c-0.011,0.011-0.021,0.023-0.032,0.035
			c-0.012,0.013-0.024,0.023-0.035,0.036c-0.015,0.016-0.032,0.028-0.047,0.043c-0.011,0.011-0.021,0.02-0.035,0.031
			c-0.018,0.015-0.036,0.029-0.059,0.044c-0.011,0.01-0.021,0.019-0.034,0.029c-0.024,0.015-0.049,0.032-0.073,0.047
			c-0.012,0.007-0.021,0.016-0.034,0.021c-0.037,0.024-0.079,0.048-0.12,0.07c-0.029,0.015-0.059,0.029-0.088,0.042
			c-0.753,0.357-2.652,0.883-2.752,0.909l2.86,0.443c0.1-0.028,1.999-0.551,2.752-0.908c0.029-0.013,0.058-0.028,0.085-0.044
			c0.044-0.021,0.085-0.045,0.121-0.068c0.014-0.007,0.024-0.016,0.035-0.022c0.026-0.015,0.052-0.032,0.074-0.048
			c0.013-0.011,0.025-0.019,0.036-0.029c0.02-0.015,0.039-0.028,0.056-0.044c0.014-0.011,0.024-0.021,0.037-0.032
			c0.015-0.015,0.03-0.028,0.045-0.041c0.003-0.004,0.005-0.004,0.007-0.007c0.011-0.011,0.018-0.021,0.028-0.03
			c0.011-0.013,0.021-0.023,0.032-0.034c0.011-0.016,0.02-0.025,0.028-0.038c0.011-0.012,0.02-0.022,0.028-0.035
			c0.002-0.002,0.004-0.005,0.004-0.005c0.004-0.006,0.005-0.01,0.011-0.013c0.018-0.028,0.032-0.054,0.048-0.08
			c0.002-0.004,0.004-0.007,0.008-0.013c0.001-0.004,0.004-0.007,0.006-0.011c0.011-0.022,0.021-0.043,0.029-0.065
			c0.005-0.005,0.005-0.009,0.007-0.013v-0.002c0.011-0.023,0.02-0.05,0.026-0.073c0,0,0.001-0.003,0.001-0.005
			c0.001-0.004,0.001-0.009,0.003-0.016c0.004-0.017,0.009-0.036,0.011-0.054c0-0.002,0.002-0.007,0.002-0.011
			c0.002-0.002,0-0.007,0.002-0.011c0.003-0.022,0.005-0.044,0.005-0.063c0-0.002,0-0.004,0-0.009c0,0,0,0,0-0.002
			c0-0.024-0.002-0.046-0.005-0.067c0-0.007-0.002-0.011-0.002-0.016c-0.004-0.019-0.009-0.039-0.015-0.056
			c-0.07-0.197-0.89-0.584-1.141-0.897c-0.017-0.021-0.036-0.048-0.05-0.073c-0.004-0.01-0.011-0.021-0.015-0.029
			c-0.011-0.017-0.021-0.034-0.027-0.054c-0.008-0.013-0.012-0.025-0.017-0.037c-0.008-0.019-0.015-0.036-0.022-0.056
			c-0.005-0.014-0.009-0.028-0.014-0.041c-0.007-0.02-0.011-0.039-0.016-0.059c-0.004-0.016-0.008-0.03-0.011-0.045
			c-0.004-0.022-0.008-0.04-0.013-0.062c-0.002-0.015-0.005-0.032-0.008-0.049c-0.003-0.02-0.005-0.039-0.007-0.061
			c-0.002-0.018-0.005-0.035-0.005-0.052c-0.002-0.022-0.005-0.042-0.005-0.063c0-0.017,0-0.035,0-0.053c0-0.03-0.002-0.06,0-0.09
			c0.003-0.061,0.01-0.119,0.017-0.176c0.003-0.015,0.004-0.028,0.006-0.043c0.009-0.056,0.021-0.11,0.034-0.164c0,0,0,0,0-0.002
			c0.016-0.05,0.03-0.097,0.048-0.143c0.005-0.013,0.012-0.024,0.016-0.037c0.017-0.04,0.034-0.077,0.054-0.115
			c0.005-0.008,0.009-0.016,0.013-0.025c0.026-0.048,0.057-0.098,0.09-0.142c0.006-0.011,0.015-0.021,0.021-0.032
			c0.02-0.022,0.035-0.045,0.052-0.066c0.011-0.012,0.02-0.022,0.031-0.033c0.019-0.027,0.045-0.053,0.068-0.078
			c0.005-0.004,0.011-0.01,0.016-0.015c0.035-0.036,0.074-0.068,0.111-0.102c0.009-0.01,0.02-0.017,0.029-0.025
			c0.039-0.03,0.077-0.061,0.119-0.088c0-0.002,0.002-0.002,0.002-0.004c0.043-0.03,0.087-0.058,0.132-0.085
			c0.011-0.007,0.021-0.013,0.032-0.019c0.046-0.027,0.091-0.052,0.137-0.078c0.014-0.007,0.027-0.015,0.043-0.022
			c0.039-0.02,0.078-0.038,0.119-0.053C11.493,14.133,11.506,14.128,11.52,14.124z"/>
		<g enable-background="new    ">
			<defs>
				<path id="SVGID_2_" enable-background="new    " d="M13.24,17.021l-2.861-0.444c0.235,0.037,0.628-0.133,1.059-0.339
					c0.015-0.009,0.032-0.017,0.05-0.028c0.611-0.32,2.043-1.475,2.119-1.536l2.86,0.443c-0.076,0.062-1.51,1.217-2.12,1.539
					c-0.018,0.006-0.035,0.017-0.051,0.023C13.866,16.887,13.476,17.058,13.24,17.021z"/>
			</defs>
			<use xlink:href="#SVGID_2_"  overflow="visible" fill="#060001"/>
			<clipPath id="SVGID_3_">
				<use xlink:href="#SVGID_2_"  overflow="visible"/>
			</clipPath>
			<g clip-path="url(#SVGID_3_)" enable-background="new    ">
				<path fill="#26903A" d="M13.24,17.021l-2.861-0.444c0.007,0.003,0.013,0.003,0.018,0.003l2.859,0.443
					C13.25,17.021,13.245,17.021,13.24,17.021"/>
				<path fill="#29923A" d="M13.256,17.023l-2.859-0.443c0.035,0.004,0.072,0.004,0.11,0l2.859,0.443
					C13.328,17.025,13.291,17.025,13.256,17.023"/>
				<linearGradient id="SVGID_4_" gradientUnits="userSpaceOnUse" x1="10.5068" y1="15.8486" x2="16.3184" y2="15.8486">
					<stop  offset="0" style="stop-color:#1B2B59"/>
					<stop  offset="0.3939" style="stop-color:#0B3581"/>
					<stop  offset="0.6606" style="stop-color:#3368A9"/>
					<stop  offset="0.7212" style="stop-color:#2C5EA1"/>
					<stop  offset="0.7818" style="stop-color:#1A2F6D"/>
					<stop  offset="1" style="stop-color:#1B2B59"/>
					<a:midPointStop  offset="0" style="stop-color:#1B2B59"/>
					<a:midPointStop  offset="0.5" style="stop-color:#1B2B59"/>
					<a:midPointStop  offset="0.3939" style="stop-color:#0B3581"/>
					<a:midPointStop  offset="0.5" style="stop-color:#0B3581"/>
					<a:midPointStop  offset="0.6606" style="stop-color:#3368A9"/>
					<a:midPointStop  offset="0.5" style="stop-color:#3368A9"/>
					<a:midPointStop  offset="0.7212" style="stop-color:#2C5EA1"/>
					<a:midPointStop  offset="0.5" style="stop-color:#2C5EA1"/>
					<a:midPointStop  offset="0.7818" style="stop-color:#1A2F6D"/>
					<a:midPointStop  offset="0.5" style="stop-color:#1A2F6D"/>
					<a:midPointStop  offset="1" style="stop-color:#1B2B59"/>
				</linearGradient>
				<path fill="url(#SVGID_4_)" d="M13.366,17.023l-2.859-0.443c0.238-0.023,0.571-0.171,0.931-0.342
					c0.015-0.009,0.032-0.017,0.05-0.028c0.611-0.32,2.043-1.475,2.119-1.536l2.712,0.588c-0.075,0.06-0.986,0.989-1.972,1.394
					c-0.02,0.006-0.035,0.017-0.051,0.023C13.936,16.853,13.604,16.999,13.366,17.023"/>
			</g>
		</g>
		<path fill="#26903A" d="M14.468,8.816c0.008-0.017,0.017-0.034,0.026-0.052c0.025-0.05,0.052-0.097,0.079-0.143
			c0.005-0.004,0.005-0.007,0.01-0.011c0.024-0.041,0.051-0.078,0.076-0.115c0.012-0.015,0.022-0.029,0.034-0.043
			c0.019-0.024,0.038-0.048,0.06-0.072c0.013-0.015,0.024-0.027,0.037-0.04c0.024-0.027,0.05-0.052,0.075-0.074
			c0.005-0.005,0.009-0.008,0.014-0.011c0.029-0.028,0.063-0.052,0.093-0.076c0.009-0.004,0.014-0.01,0.021-0.015
			c0.033-0.022,0.064-0.043,0.099-0.06c0.04-0.021,0.079-0.038,0.119-0.051c0.008-0.005,0.016-0.007,0.025-0.01
			c0.038-0.012,0.077-0.022,0.117-0.029c0.008,0,0.014-0.002,0.022-0.004c0.036-0.004,0.074-0.007,0.108-0.007
			c0.006-0.001,0.013-0.002,0.019-0.002c0.044,0.001,0.089,0.003,0.133,0.01L12.774,7.57c-0.012-0.002-0.023-0.004-0.036-0.005
			c-0.031-0.003-0.064-0.005-0.094-0.005c-0.007,0-0.014,0.001-0.021,0c-0.019,0.001-0.04,0.002-0.061,0.003
			c-0.017,0.002-0.031,0.005-0.047,0.008c-0.009,0-0.016,0.002-0.023,0.003c-0.04,0.007-0.079,0.017-0.117,0.03
			c-0.009,0.002-0.018,0.006-0.024,0.008c-0.041,0.013-0.079,0.031-0.118,0.052c-0.035,0.017-0.067,0.037-0.1,0.059
			c-0.007,0.005-0.016,0.01-0.021,0.017c-0.033,0.021-0.065,0.045-0.095,0.074c-0.005,0.003-0.009,0.007-0.012,0.01
			c-0.018,0.017-0.032,0.03-0.051,0.047c-0.009,0.01-0.017,0.019-0.025,0.029c-0.013,0.013-0.025,0.026-0.036,0.039
			c-0.02,0.024-0.041,0.048-0.062,0.074c-0.01,0.015-0.021,0.027-0.031,0.041c-0.004,0.008-0.011,0.013-0.013,0.02
			c-0.024,0.03-0.046,0.063-0.068,0.097c0,0.003-0.004,0.006-0.004,0.01c-0.025,0.04-0.05,0.08-0.072,0.124
			c-0.003,0.005-0.007,0.013-0.01,0.02c-0.008,0.016-0.018,0.033-0.023,0.051c-0.02,0.037-0.036,0.072-0.055,0.11
			c-0.009,0.021-0.017,0.042-0.026,0.063c-0.005,0.015-0.015,0.03-0.021,0.047c-0.015,0.036-0.029,0.076-0.043,0.114
			c-0.015,0.044-0.032,0.086-0.047,0.128c-0.004,0.01-0.01,0.023-0.016,0.034c-0.013,0.03-0.021,0.057-0.034,0.083
			c-0.007,0.015-0.014,0.028-0.021,0.042c-0.01,0.024-0.021,0.046-0.033,0.068c-0.01,0.016-0.019,0.034-0.026,0.051
			c-0.005,0.009-0.009,0.015-0.016,0.024c-0.013,0.025-0.03,0.049-0.045,0.071c0,0.002-0.002,0.002-0.002,0.004
			c-0.003,0.002-0.003,0.002-0.004,0.003c-0.02,0.03-0.042,0.056-0.065,0.079c-0.012,0.012-0.022,0.021-0.033,0.033
			c-0.006,0.004-0.013,0.011-0.019,0.015c-0.021,0.016-0.039,0.029-0.059,0.04c-0.016,0.009-0.035,0.015-0.05,0.021
			c-0.006,0.003-0.014,0.003-0.018,0.005c-0.011,0.004-0.024,0.005-0.036,0.006c-0.007,0.001-0.014,0.002-0.019,0.002
			c-0.015,0-0.027,0-0.043,0c-0.009-0.002-0.015-0.001-0.023-0.002c0.952,0.148,1.905,0.295,2.859,0.442
			c0.003,0,0.008,0.001,0.013,0.002c0.005,0.001,0.009,0,0.013,0c0.014,0.001,0.026,0.001,0.039,0.001c0.003-0.001,0.007,0,0.01,0
			c0.003-0.001,0.008-0.002,0.01-0.002c0.014-0.001,0.024-0.004,0.037-0.007c0.006-0.002,0.011-0.004,0.018-0.004
			c0.018-0.006,0.032-0.013,0.049-0.021c0.021-0.012,0.041-0.025,0.061-0.04c0.006-0.005,0.012-0.011,0.019-0.017
			C13.991,9.764,14,9.757,14.008,9.749c0.003-0.003,0.005-0.006,0.009-0.011c0.022-0.023,0.043-0.048,0.066-0.077
			c0-0.002,0-0.002,0.001-0.003h0.001c0-0.002,0.002-0.002,0.002-0.006c0.016-0.02,0.031-0.043,0.046-0.068
			c0.004-0.007,0.011-0.018,0.015-0.025c0.004-0.011,0.013-0.019,0.017-0.03c0.005-0.007,0.007-0.015,0.011-0.023
			c0.012-0.021,0.022-0.042,0.033-0.065c0.006-0.013,0.013-0.028,0.021-0.043c0.01-0.025,0.021-0.052,0.031-0.077
			c0.005-0.009,0.011-0.021,0.015-0.031c0-0.003,0.001-0.006,0.002-0.01c0.019-0.042,0.033-0.083,0.048-0.126
			c0.021-0.056,0.043-0.11,0.065-0.162c0.009-0.021,0.018-0.043,0.025-0.063C14.433,8.888,14.45,8.851,14.468,8.816z"/>
		<path fill="#26903A" d="M18.721,17.421c0.006-0.006,0.012-0.015,0.018-0.021c0.022-0.027,0.044-0.05,0.069-0.077
			c0.01-0.01,0.021-0.019,0.032-0.029s0.021-0.017,0.029-0.028c0.014-0.011,0.026-0.02,0.042-0.03
			c0.008-0.006,0.017-0.016,0.024-0.021c0.016-0.011,0.032-0.021,0.05-0.032c0.005-0.004,0.011-0.009,0.018-0.016
			c0.023-0.016,0.047-0.025,0.07-0.038c0.027-0.017,0.056-0.029,0.083-0.04c0.011-0.004,0.02-0.006,0.028-0.01
			c0.021-0.007,0.039-0.017,0.059-0.021c0.011-0.004,0.021-0.007,0.034-0.011c0.017-0.004,0.036-0.009,0.055-0.013
			c0.012-0.002,0.021-0.004,0.033-0.006c0.021-0.005,0.039-0.007,0.059-0.009c0.012,0,0.021-0.002,0.03-0.002
			c0.034-0.005,0.067-0.005,0.1-0.005c0.005,0,0.011,0,0.016,0c0.028,0,0.056,0.003,0.084,0.007
			c0.021,0.002,0.043,0.004,0.062,0.006c-0.952-0.146-1.906-0.294-2.859-0.443c-0.016-0.002-0.03-0.005-0.046-0.007h-0.002
			c-0.004,0-0.01,0-0.014,0c-0.027-0.002-0.055-0.004-0.084-0.006c-0.006,0-0.011,0-0.017,0c-0.033,0-0.064,0.002-0.099,0.004
			c-0.003,0-0.005,0-0.008,0c-0.006,0-0.016,0.002-0.023,0.002c-0.02,0.002-0.039,0.005-0.058,0.009
			c-0.012,0.005-0.022,0.007-0.034,0.007c-0.019,0.005-0.038,0.009-0.055,0.013c-0.011,0.005-0.021,0.007-0.033,0.011
			c-0.02,0.007-0.039,0.013-0.059,0.02c-0.011,0.004-0.019,0.007-0.027,0.012c-0.028,0.011-0.057,0.023-0.085,0.038
			c-0.024,0.014-0.048,0.026-0.068,0.041c-0.005,0.002-0.012,0.007-0.017,0.009c-0.017,0.014-0.034,0.024-0.052,0.037
			c-0.007,0.006-0.015,0.011-0.021,0.017c-0.016,0.012-0.031,0.024-0.045,0.035c-0.01,0.009-0.019,0.017-0.026,0.023
			c-0.012,0.014-0.024,0.024-0.036,0.035v0.002c-0.024,0.022-0.048,0.048-0.068,0.073c-0.007,0.007-0.013,0.016-0.02,0.022
			c-0.015,0.021-0.031,0.041-0.047,0.06c-0.003,0.005-0.005,0.007-0.009,0.013c-0.003,0.005-0.005,0.009-0.007,0.015
			c-0.027,0.04-0.057,0.081-0.082,0.127c-0.028,0.05-0.055,0.1-0.084,0.147c-0.005,0.013-0.014,0.025-0.02,0.038
			c-0.022,0.039-0.044,0.078-0.063,0.115c-0.005,0.009-0.009,0.015-0.012,0.023c-0.026,0.048-0.053,0.093-0.076,0.139
			c-0.019,0.036-0.037,0.069-0.055,0.104c-0.006,0.011-0.015,0.023-0.02,0.034c-0.02,0.037-0.041,0.074-0.061,0.108
			c-0.002,0.009-0.007,0.016-0.011,0.024c-0.015,0.027-0.03,0.052-0.047,0.077c-0.005,0.011-0.01,0.019-0.015,0.026
			c-0.018,0.03-0.035,0.061-0.051,0.086c-0.004,0.005-0.007,0.009-0.008,0.012c-0.015,0.023-0.029,0.045-0.042,0.064
			c-0.007,0.009-0.011,0.016-0.015,0.021c-0.011,0.013-0.02,0.022-0.026,0.033c-0.007,0.008-0.011,0.015-0.017,0.019
			c-0.01,0.013-0.018,0.022-0.028,0.033c-0.003,0.002-0.008,0.009-0.011,0.011c-0.009,0.008-0.018,0.015-0.024,0.023
			c-0.004,0.002-0.007,0.007-0.014,0.009c-0.011,0.011-0.021,0.018-0.034,0.023c-0.018,0.009-0.034,0.013-0.052,0.015
			c-0.013,0.005-0.024,0.005-0.037,0.003l2.859,0.443c0.003,0,0.005,0,0.005,0c0.01,0,0.019,0,0.026,0c0.003,0,0.005,0,0.005,0
			c0.018-0.004,0.035-0.008,0.053-0.018c0.013-0.007,0.024-0.015,0.035-0.023c0.005-0.002,0.01-0.009,0.016-0.013
			c0.007-0.004,0.015-0.012,0.021-0.018c0.003-0.003,0.003-0.003,0.004-0.005c0.004-0.004,0.006-0.008,0.012-0.011
			c0.007-0.01,0.017-0.019,0.026-0.03c0.004-0.007,0.009-0.013,0.014-0.02c0.01-0.011,0.018-0.021,0.027-0.034
			c0.002-0.003,0.004-0.005,0.007-0.009c0.002-0.002,0.004-0.007,0.007-0.011c0.013-0.02,0.028-0.043,0.045-0.064
			c0.001-0.005,0.003-0.007,0.006-0.009c0.017-0.03,0.033-0.059,0.052-0.091c0.005-0.007,0.01-0.013,0.013-0.021
			c0.016-0.028,0.032-0.054,0.048-0.083c0.005-0.006,0.008-0.013,0.012-0.021c0.02-0.035,0.039-0.072,0.059-0.106
			c0.008-0.018,0.019-0.032,0.027-0.048c0.012-0.024,0.023-0.045,0.035-0.071c0.029-0.055,0.06-0.11,0.091-0.169
			c0,0,0.001-0.002,0.004-0.002c0.021-0.044,0.047-0.086,0.07-0.132c0.007-0.012,0.013-0.022,0.019-0.032
			c0.026-0.05,0.055-0.1,0.084-0.149c0.026-0.046,0.053-0.089,0.081-0.13c0.007-0.006,0.011-0.015,0.016-0.024
			C18.69,17.46,18.706,17.441,18.721,17.421z"/>
		<radialGradient id="SVGID_5_" cx="19.5332" cy="10.6787" r="1.8977" gradientUnits="userSpaceOnUse">
			<stop  offset="0" style="stop-color:#ADC83E"/>
			<stop  offset="1" style="stop-color:#34582C"/>
			<a:midPointStop  offset="0" style="stop-color:#ADC83E"/>
			<a:midPointStop  offset="0.5" style="stop-color:#ADC83E"/>
			<a:midPointStop  offset="1" style="stop-color:#34582C"/>
		</radialGradient>
		<path fill="url(#SVGID_5_)" d="M21.412,10.853c0.003-0.04,0.007-0.079,0.007-0.118c0-0.004,0-0.009,0-0.013
			c0-0.004,0-0.008,0-0.013c0-0.041-0.002-0.082-0.005-0.121c-0.002-0.002-0.002-0.004-0.002-0.005
			c-0.004-0.038-0.01-0.077-0.017-0.116c-0.001-0.006-0.005-0.015-0.006-0.021c-0.011-0.038-0.022-0.076-0.035-0.113
			c-0.003-0.008-0.006-0.015-0.009-0.021c-0.018-0.039-0.034-0.076-0.057-0.113c-0.232-0.385-0.568-0.666-1.005-0.735L17.425,9.02
			c0.438,0.068,0.772,0.351,1.006,0.737c0.022,0.036,0.038,0.072,0.055,0.111c0.004,0.008,0.006,0.015,0.009,0.021
			c0.015,0.037,0.025,0.073,0.036,0.112c0.002,0.009,0.003,0.014,0.004,0.023c0.008,0.038,0.015,0.077,0.02,0.116
			c0,0,0,0.002,0,0.004c0.004,0.04,0.004,0.08,0.004,0.122c0,0.008,0,0.016,0,0.026c0,0.039-0.001,0.078-0.004,0.117
			c-0.001,0.009-0.002,0.015-0.002,0.024c-0.006,0.037-0.01,0.077-0.015,0.114c-0.001,0.002-0.001,0.005-0.001,0.008
			c-0.011,0.06-0.021,0.118-0.031,0.176c-0.002,0.006-0.003,0.009-0.005,0.013c-0.01,0.056-0.021,0.11-0.034,0.164
			c-0.013,0.056-0.024,0.11-0.035,0.162c-0.002,0.007-0.003,0.012-0.005,0.018c-0.011,0.051-0.02,0.1-0.027,0.147
			c0,0.005-0.001,0.009-0.001,0.011c0,0.002,0,0.002,0,0.006c-0.005,0.03-0.01,0.058-0.013,0.086c0,0.002,0,0.004,0,0.008
			c-0.002,0.025-0.004,0.051-0.004,0.074c0,0.003,0,0.006,0,0.011c0,0.004,0,0.008,0,0.013c0,0.02,0.002,0.036,0.003,0.054
			c0,0.007,0.001,0.014,0.001,0.022c0.003,0.023,0.007,0.045,0.013,0.067c0,0.004,0.001,0.006,0.002,0.008
			c0.005,0.02,0.012,0.038,0.02,0.056c0.004,0.005,0.007,0.012,0.01,0.018c0.006,0.015,0.015,0.028,0.024,0.042
			c0.002,0.006,0.006,0.01,0.012,0.016c0.014,0.018,0.028,0.033,0.045,0.05c0,0,0.004,0.001,0.004,0.002
			c0.017,0.015,0.038,0.027,0.056,0.04c0.008,0.004,0.015,0.008,0.022,0.012c0.017,0.008,0.036,0.017,0.055,0.024
			c0.009,0.004,0.018,0.007,0.024,0.011c0.031,0.009,0.06,0.02,0.094,0.025c0.005,0.002,0.012,0.003,0.018,0.003l2.86,0.444
			c-0.007-0.002-0.012-0.002-0.019-0.004c-0.035-0.006-0.063-0.015-0.092-0.026c-0.01-0.002-0.017-0.004-0.023-0.009
			c-0.022-0.007-0.042-0.015-0.058-0.025c-0.008-0.005-0.015-0.008-0.021-0.011c-0.02-0.013-0.04-0.025-0.058-0.04
			c0-0.001-0.001-0.001-0.003-0.001c-0.017-0.016-0.032-0.033-0.045-0.052c-0.004-0.004-0.009-0.01-0.012-0.015
			c-0.009-0.012-0.017-0.027-0.023-0.042c-0.005-0.005-0.009-0.012-0.012-0.017c-0.006-0.019-0.013-0.038-0.019-0.057
			c0-0.002-0.001-0.004-0.001-0.007c-0.006-0.021-0.011-0.045-0.012-0.069c-0.002-0.006-0.002-0.013-0.004-0.02
			c-0.001-0.018-0.001-0.037-0.002-0.056c0-0.009,0-0.016,0-0.023c0.001-0.025,0.002-0.049,0.006-0.073c0-0.003,0-0.006,0-0.008
			c0.001-0.028,0.006-0.056,0.01-0.085c0.002-0.007,0.002-0.012,0.003-0.02c0.007-0.047,0.017-0.095,0.026-0.145
			c0.002-0.008,0.004-0.014,0.004-0.022c0.012-0.051,0.022-0.103,0.035-0.153c0.012-0.058,0.026-0.116,0.038-0.174
			c0-0.002,0-0.004,0.001-0.006c0.012-0.061,0.022-0.119,0.032-0.177c0-0.002,0.001-0.002,0.001-0.002c0-0.002,0-0.002,0-0.004
			c0.004-0.04,0.011-0.08,0.014-0.119C21.411,10.864,21.412,10.86,21.412,10.853z"/>
		<g>
			<g enable-background="new    ">
				<defs>
					<path id="SVGID_6_" enable-background="new    " d="M17.705,19.059c-0.953-0.147-1.905-0.294-2.859-0.443
						c-0.079-0.01-0.155-0.071-0.226-0.176c-0.246-0.369-0.943-3.131-0.998-3.353c-0.056-0.22-0.09-0.465-0.091-0.478l2.861,0.443
						c0.001,0.013,0.035,0.257,0.089,0.478c0.056,0.221,0.752,2.983,0.999,3.354C17.551,18.987,17.627,19.046,17.705,19.059z"/>
				</defs>
				<clipPath id="SVGID_7_">
					<use xlink:href="#SVGID_6_"  overflow="visible"/>
				</clipPath>
			</g>
			<g>
				<g enable-background="new    ">
					<defs>
						<path id="SVGID_8_" enable-background="new    " d="M21.532,12.696c-0.953-0.147-1.907-0.295-2.86-0.443
							c0.232,0.036,0.496-0.096,0.979-0.35c0.04-0.022,0.083-0.043,0.127-0.067c0.76-0.399,2.003-1.527,2.067-1.587l2.86,0.442
							c-0.065,0.059-1.31,1.19-2.068,1.588c-0.044,0.024-0.087,0.045-0.127,0.067C22.025,12.6,21.764,12.732,21.532,12.696z"/>
					</defs>
					<clipPath id="SVGID_9_">
						<use xlink:href="#SVGID_8_"  overflow="visible"/>
					</clipPath>
					<g clip-path="url(#SVGID_9_)" enable-background="new    ">
						<path fill="#312850" d="M21.532,12.696l-2.86-0.443c0.007,0,0.014,0.002,0.021,0.002l2.859,0.444
							C21.545,12.699,21.539,12.698,21.532,12.696"/>
						<path fill="#342851" d="M21.552,12.699l-2.859-0.444c0.035,0.004,0.072,0.004,0.109,0.002L21.66,12.7
							C21.623,12.704,21.587,12.704,21.552,12.699"/>
						<radialGradient id="SVGID_10_" cx="21.7539" cy="11.543" r="2.2791" gradientUnits="userSpaceOnUse">
							<stop  offset="0" style="stop-color:#FFFFFF"/>
							<stop  offset="0.2485" style="stop-color:#D13829"/>
							<stop  offset="0.5515" style="stop-color:#C53022"/>
							<stop  offset="0.7636" style="stop-color:#871D22"/>
							<stop  offset="1" style="stop-color:#76171C"/>
							<a:midPointStop  offset="0" style="stop-color:#FFFFFF"/>
							<a:midPointStop  offset="0.5" style="stop-color:#FFFFFF"/>
							<a:midPointStop  offset="0.2485" style="stop-color:#D13829"/>
							<a:midPointStop  offset="0.5" style="stop-color:#D13829"/>
							<a:midPointStop  offset="0.5515" style="stop-color:#C53022"/>
							<a:midPointStop  offset="0.5" style="stop-color:#C53022"/>
							<a:midPointStop  offset="0.7636" style="stop-color:#871D22"/>
							<a:midPointStop  offset="0.5" style="stop-color:#871D22"/>
							<a:midPointStop  offset="1" style="stop-color:#76171C"/>
						</radialGradient>
						<path fill="url(#SVGID_10_)" d="M21.463,12.836l-2.661-0.579c0.204-0.02,0.452-0.146,0.85-0.354
							c0.04-0.022,0.083-0.043,0.127-0.067c0.76-0.399,2.003-1.527,2.067-1.587l2.86,0.442c-0.065,0.059-1.31,1.19-2.068,1.588
							c-0.044,0.024-0.087,0.045-0.127,0.067c-0.398,0.209-0.696,0.454-0.899,0.473"/>
					</g>
				</g>
				<radialGradient id="SVGID_11_" cx="16.7148" cy="12.1279" r="3.0049" gradientUnits="userSpaceOnUse">
					<stop  offset="0" style="stop-color:#FFFFFF"/>
					<stop  offset="0.2485" style="stop-color:#D13829"/>
					<stop  offset="0.5515" style="stop-color:#C53022"/>
					<stop  offset="0.7636" style="stop-color:#871D22"/>
					<stop  offset="1" style="stop-color:#76171C"/>
					<a:midPointStop  offset="0" style="stop-color:#FFFFFF"/>
					<a:midPointStop  offset="0.5" style="stop-color:#FFFFFF"/>
					<a:midPointStop  offset="0.2485" style="stop-color:#D13829"/>
					<a:midPointStop  offset="0.5" style="stop-color:#D13829"/>
					<a:midPointStop  offset="0.5515" style="stop-color:#C53022"/>
					<a:midPointStop  offset="0.5" style="stop-color:#C53022"/>
					<a:midPointStop  offset="0.7636" style="stop-color:#871D22"/>
					<a:midPointStop  offset="0.5" style="stop-color:#871D22"/>
					<a:midPointStop  offset="1" style="stop-color:#76171C"/>
				</radialGradient>
				<path fill="url(#SVGID_11_)" d="M19.858,13.104c-0.003-0.009-0.006-0.02-0.01-0.026c-0.004-0.014-0.011-0.028-0.019-0.039
					c-0.004-0.007-0.005-0.013-0.009-0.02c-0.012-0.02-0.027-0.037-0.044-0.055c-0.131-0.141-0.944-0.278-1.196-0.83
					c-0.029-0.065-0.058-0.13-0.081-0.192c-0.002-0.009-0.006-0.016-0.007-0.024c-0.022-0.06-0.039-0.119-0.054-0.178
					c-0.005-0.009-0.006-0.019-0.009-0.028c-0.014-0.058-0.026-0.115-0.035-0.169c-0.001-0.01-0.003-0.02-0.003-0.028
					c-0.009-0.055-0.013-0.11-0.017-0.166c0-0.007,0-0.015,0-0.02c-0.003-0.052-0.001-0.102,0.003-0.151c0-0.006,0-0.015,0-0.022
					c0.004-0.048,0.009-0.097,0.017-0.145c0.007-0.033,0.015-0.067,0.021-0.101c0.006-0.023,0.011-0.049,0.018-0.07
					c0.009-0.033,0.02-0.063,0.03-0.091c0.006-0.024,0.017-0.048,0.024-0.072c0.017-0.042,0.038-0.084,0.059-0.125
					c0.006-0.011,0.009-0.021,0.014-0.03c0.031-0.057,0.066-0.112,0.104-0.166c0.016-0.025,0.036-0.047,0.055-0.072
					c0.012-0.015,0.024-0.033,0.037-0.049c0.022-0.027,0.048-0.053,0.071-0.08c0.012-0.012,0.024-0.025,0.036-0.036
					c0.021-0.023,0.046-0.042,0.068-0.064c0.018-0.015,0.034-0.033,0.053-0.049c0.025-0.021,0.051-0.041,0.078-0.059
					c0.016-0.015,0.033-0.03,0.052-0.043c0.028-0.022,0.061-0.041,0.09-0.061c0.018-0.011,0.033-0.023,0.048-0.032
					c0.048-0.03,0.098-0.058,0.146-0.083l-2.858-0.442c-0.05,0.026-0.099,0.054-0.146,0.084c-0.015,0.008-0.028,0.017-0.042,0.028
					c-0.034,0.02-0.067,0.042-0.098,0.064c-0.018,0.012-0.032,0.027-0.048,0.039c-0.028,0.021-0.056,0.042-0.083,0.064
					c-0.016,0.015-0.031,0.03-0.049,0.045c-0.022,0.02-0.044,0.041-0.066,0.061c-0.002,0.002-0.003,0.005-0.004,0.007
					c-0.014,0.012-0.022,0.024-0.035,0.037c-0.023,0.027-0.05,0.052-0.073,0.08c-0.013,0.015-0.024,0.031-0.037,0.048
					c-0.015,0.02-0.031,0.039-0.046,0.058c-0.004,0.004-0.006,0.011-0.01,0.015c-0.034,0.053-0.07,0.108-0.103,0.165
					c0,0-0.002,0.001,0,0.002c-0.006,0.011-0.011,0.022-0.015,0.032c-0.021,0.041-0.041,0.08-0.059,0.123
					c-0.001,0.003-0.002,0.006-0.004,0.01c-0.008,0.02-0.013,0.039-0.021,0.058c-0.011,0.032-0.021,0.061-0.03,0.092
					c-0.001,0.005-0.005,0.009-0.005,0.015c-0.005,0.017-0.007,0.036-0.012,0.053c-0.008,0.035-0.017,0.07-0.021,0.106
					c0,0.007-0.004,0.012-0.004,0.021c-0.007,0.04-0.011,0.081-0.015,0.123c0,0.006,0,0.016,0,0.021
					c-0.001,0.028-0.003,0.057-0.003,0.085c0,0.021,0,0.043,0.002,0.065c0,0.008,0,0.014,0,0.021
					c0.002,0.054,0.007,0.109,0.016,0.164c0.002,0.011,0.004,0.02,0.005,0.03c0.009,0.056,0.02,0.112,0.032,0.168
					c0.004,0.011,0.006,0.021,0.01,0.031c0.014,0.058,0.033,0.117,0.053,0.178c0.002,0.006,0.006,0.015,0.01,0.021
					c0.024,0.063,0.048,0.128,0.079,0.193c0.252,0.55,1.065,0.688,1.197,0.831c0.018,0.017,0.03,0.036,0.042,0.054
					c0.005,0.006,0.008,0.013,0.011,0.02c0.008,0.013,0.014,0.025,0.02,0.039c0.005,0.009,0.005,0.018,0.009,0.025
					c0.004,0.012,0.008,0.024,0.009,0.038c0.001,0.009,0.001,0.018,0.004,0.029c0,0.012,0.002,0.023,0.001,0.037
					c0.001,0.006,0,0.011,0,0.015c-0.001,0.017-0.004,0.033-0.006,0.051c-0.002,0.007-0.003,0.013-0.004,0.02
					c-0.003,0.016-0.008,0.032-0.013,0.049c-0.002,0.006-0.007,0.015-0.01,0.021c-0.005,0.013-0.012,0.029-0.019,0.043
					c-0.005,0.013-0.009,0.024-0.016,0.036c-0.011,0.022-0.026,0.046-0.042,0.071c-0.012,0.021-0.029,0.041-0.049,0.064l0,0
					c-0.016,0.02-0.035,0.039-0.058,0.059c-0.007,0.006-0.015,0.014-0.021,0.023c-0.018,0.013-0.035,0.028-0.053,0.044
					c-0.009,0.007-0.019,0.015-0.027,0.023c-0.023,0.019-0.048,0.039-0.074,0.058c-0.005,0.003-0.012,0.006-0.016,0.011
					c-0.032,0.022-0.066,0.047-0.103,0.071c-0.01,0.006-0.019,0.013-0.029,0.021c-0.027,0.016-0.055,0.035-0.086,0.053
					c-0.013,0.007-0.026,0.015-0.04,0.023c-0.027,0.019-0.058,0.035-0.089,0.052c-0.013,0.009-0.024,0.017-0.038,0.024
					c-0.044,0.025-0.089,0.049-0.134,0.074c-0.147,0.078-0.306,0.152-0.474,0.223c-0.632,0.267-1.988,0.619-2.06,0.637l2.858,0.443
					c0.072-0.018,1.429-0.37,2.062-0.637c0.168-0.07,0.326-0.145,0.471-0.222c0.046-0.026,0.093-0.05,0.135-0.073
					c0.015-0.009,0.027-0.017,0.041-0.024c0.03-0.018,0.059-0.035,0.086-0.051c0.017-0.008,0.029-0.016,0.043-0.026
					c0.028-0.018,0.055-0.035,0.082-0.053c0.01-0.006,0.021-0.013,0.032-0.021c0.036-0.023,0.071-0.048,0.102-0.072
					c0.006-0.002,0.01-0.007,0.018-0.011c0.024-0.019,0.05-0.039,0.074-0.057c0.008-0.007,0.016-0.015,0.024-0.023
					c0.02-0.015,0.035-0.03,0.054-0.045c0.009-0.007,0.016-0.016,0.022-0.022c0.005-0.004,0.009-0.009,0.015-0.013
					c0.015-0.015,0.028-0.03,0.043-0.046l0,0c0.015-0.017,0.025-0.032,0.036-0.044c0.005-0.008,0.008-0.013,0.012-0.02
					c0.015-0.021,0.026-0.042,0.039-0.063c0.003-0.003,0.004-0.007,0.004-0.008c0.005-0.012,0.012-0.023,0.016-0.035
					c0.004-0.01,0.012-0.021,0.015-0.032c0.001-0.004,0.003-0.006,0.005-0.011c0.003-0.008,0.004-0.015,0.007-0.023
					c0.003-0.009,0.007-0.017,0.01-0.025c0.001-0.008,0.003-0.016,0.004-0.023c0.002-0.004,0.003-0.013,0.005-0.02
					c0-0.004,0.002-0.009,0.002-0.013c0.002-0.012,0.002-0.024,0.004-0.038c0-0.003,0-0.01,0-0.013c0-0.001,0.001-0.003,0.001-0.003
					c0-0.013-0.003-0.024-0.003-0.035c-0.001-0.009-0.001-0.019-0.002-0.03C19.865,13.127,19.861,13.114,19.858,13.104z"/>
			</g>
		</g>
		<g>
			<radialGradient id="SVGID_12_" cx="20.1875" cy="19.1621" r="2.1315" gradientUnits="userSpaceOnUse">
				<stop  offset="0" style="stop-color:#FFFFFF"/>
				<stop  offset="0.2485" style="stop-color:#D13829"/>
				<stop  offset="0.5515" style="stop-color:#C53022"/>
				<stop  offset="0.7636" style="stop-color:#871D22"/>
				<stop  offset="1" style="stop-color:#76171C"/>
				<a:midPointStop  offset="0" style="stop-color:#FFFFFF"/>
				<a:midPointStop  offset="0.5" style="stop-color:#FFFFFF"/>
				<a:midPointStop  offset="0.2485" style="stop-color:#D13829"/>
				<a:midPointStop  offset="0.5" style="stop-color:#D13829"/>
				<a:midPointStop  offset="0.5515" style="stop-color:#C53022"/>
				<a:midPointStop  offset="0.5" style="stop-color:#C53022"/>
				<a:midPointStop  offset="0.7636" style="stop-color:#871D22"/>
				<a:midPointStop  offset="0.5" style="stop-color:#871D22"/>
				<a:midPointStop  offset="1" style="stop-color:#76171C"/>
			</radialGradient>
			<path fill="url(#SVGID_12_)" d="M20.966,18.903c0-0.009-0.001-0.018-0.001-0.028c0-0.018,0-0.039,0-0.056
				c-0.003-0.033-0.007-0.068-0.009-0.1c-0.002-0.021-0.004-0.039-0.006-0.059c-0.006-0.035-0.012-0.069-0.02-0.104
				c-0.002-0.016-0.005-0.033-0.01-0.05c-0.011-0.05-0.027-0.1-0.043-0.147c-0.206-0.575-0.704-1.047-1.249-1.131
				c-0.951-0.147-1.905-0.295-2.858-0.442c0.545,0.083,1.042,0.555,1.247,1.128c0.018,0.049,0.032,0.099,0.045,0.15
				c0.005,0.016,0.006,0.033,0.009,0.048c0.009,0.035,0.015,0.07,0.019,0.106c0.003,0.018,0.005,0.037,0.006,0.054
				c0.004,0.035,0.009,0.069,0.009,0.104c0.001,0.019,0.001,0.035,0.001,0.055c0.002,0.039,0,0.08-0.001,0.121
				c0,0.011,0,0.02-0.003,0.03c-0.005,0.052-0.01,0.102-0.018,0.151c-0.001,0.011-0.004,0.021-0.005,0.033
				c-0.008,0.038-0.016,0.079-0.026,0.12c-0.003,0.011-0.006,0.023-0.009,0.037c-0.007,0.021-0.012,0.043-0.019,0.063
				c-0.016,0.053-0.032,0.106-0.053,0.158c-0.007,0.018-0.012,0.034-0.02,0.052c-0.028,0.067-0.058,0.134-0.093,0.198
				c-0.024,0.044-0.049,0.089-0.074,0.131c-0.001,0.002-0.002,0.004-0.005,0.008c-0.024,0.04-0.054,0.081-0.082,0.119
				c-0.016,0.022-0.034,0.046-0.052,0.067c-0.017,0.021-0.033,0.041-0.049,0.061c-0.02,0.021-0.038,0.041-0.058,0.063
				c-0.019,0.02-0.036,0.04-0.054,0.059c-0.01,0.009-0.02,0.017-0.029,0.025c-0.027,0.026-0.053,0.048-0.079,0.072
				c-0.013,0.011-0.025,0.02-0.039,0.029c-0.024,0.022-0.052,0.04-0.078,0.059c-0.013,0.01-0.024,0.018-0.036,0.026
				c-0.039,0.023-0.076,0.048-0.119,0.069c-0.03,0.018-0.063,0.03-0.095,0.045c-0.009,0.005-0.02,0.009-0.031,0.011
				c-0.021,0.009-0.045,0.021-0.068,0.029c-0.011,0.002-0.021,0.006-0.033,0.008c-0.027,0.007-0.057,0.015-0.084,0.021
				c-0.006,0-0.011,0.002-0.016,0.002c-0.034,0.01-0.068,0.014-0.102,0.016c-0.01,0.003-0.021,0.003-0.03,0.003
				c-0.021,0.002-0.043,0.004-0.064,0.004c-0.012,0-0.024,0-0.036,0c-0.02-0.002-0.04-0.004-0.06-0.004
				c-0.02-0.003-0.04-0.005-0.059-0.007c0.953,0.146,1.906,0.294,2.86,0.441c0.013,0.002,0.024,0.004,0.038,0.006
				c0.007,0,0.014,0,0.02,0.002c0.019,0,0.041,0.002,0.062,0.002c0.012,0,0.023,0,0.035,0c0.021,0,0.043,0,0.064-0.002
				c0.006,0,0.015,0,0.021,0c0.002,0,0.005-0.002,0.009-0.002c0.033-0.002,0.066-0.006,0.101-0.015c0.007,0,0.013-0.002,0.019-0.002
				c0.026-0.009,0.055-0.013,0.081-0.022c0.013-0.004,0.021-0.007,0.033-0.011c0.023-0.009,0.047-0.015,0.07-0.025
				c0.01-0.002,0.021-0.007,0.029-0.014c0.033-0.013,0.064-0.027,0.097-0.043c0.039-0.021,0.078-0.045,0.118-0.071
				c0.012-0.007,0.022-0.018,0.035-0.023c0.025-0.021,0.053-0.039,0.079-0.061c0.013-0.012,0.024-0.021,0.038-0.028
				c0.026-0.023,0.053-0.046,0.079-0.071c0.009-0.009,0.019-0.018,0.029-0.028c0.003-0.003,0.007-0.005,0.009-0.009
				c0.017-0.015,0.03-0.032,0.046-0.048c0.019-0.021,0.039-0.041,0.057-0.063c0.018-0.02,0.034-0.041,0.05-0.063
				c0.018-0.022,0.035-0.043,0.052-0.066c0.004-0.005,0.007-0.008,0.009-0.012c0.025-0.036,0.05-0.073,0.073-0.108
				c0.001-0.004,0.003-0.004,0.003-0.006c0.025-0.042,0.049-0.08,0.07-0.121c0.002-0.002,0.003-0.007,0.006-0.009
				c0.034-0.064,0.063-0.133,0.093-0.199c0.002-0.007,0.006-0.013,0.01-0.02c0.004-0.011,0.005-0.023,0.009-0.032
				c0.02-0.052,0.038-0.104,0.054-0.158c0.004-0.013,0.008-0.021,0.012-0.035c0.002-0.008,0.004-0.019,0.006-0.027
				c0.003-0.011,0.007-0.026,0.01-0.039c0.01-0.039,0.018-0.08,0.025-0.121c0.002-0.009,0.003-0.019,0.004-0.03
				c0.002-0.005,0.003-0.009,0.003-0.013c0.008-0.048,0.012-0.094,0.016-0.139c0.001-0.011,0.001-0.021,0.001-0.032
				C20.965,18.963,20.966,18.936,20.966,18.903z"/>
			<path fill="#312850" d="M18.197,21.012c-0.001-0.01-0.001-0.021-0.001-0.032c-0.003-0.023-0.003-0.048-0.003-0.069
				c0-0.028,0.003-0.052,0.005-0.078c0.002-0.007,0.002-0.013,0.002-0.021c0.001-0.004,0.003-0.006,0.003-0.011
				c0.003-0.024,0.01-0.045,0.016-0.064c0.002-0.006,0.004-0.012,0.006-0.018c0.006-0.02,0.013-0.036,0.021-0.052
				c0-0.005,0.002-0.005,0.003-0.009c0.009-0.017,0.021-0.034,0.032-0.05c0.004-0.004,0.009-0.009,0.013-0.015
				c0.01-0.011,0.019-0.021,0.03-0.029c0.004-0.004,0.008-0.008,0.011-0.01c0.014-0.014,0.031-0.021,0.046-0.03
				c0.019-0.012,0.038-0.018,0.059-0.024c0.006-0.002,0.014-0.002,0.019-0.004c0.013-0.002,0.028-0.007,0.044-0.007
				c0.006-0.002,0.013-0.002,0.019-0.002c0.021-0.002,0.041-0.002,0.064,0c0.011,0.002,0.021,0.002,0.031,0.004l-2.858-0.442
				c-0.007,0-0.015,0-0.021-0.005c-0.003,0-0.009,0-0.013,0c-0.022,0-0.044,0-0.063,0c-0.007,0-0.01,0-0.014,0
				c-0.002,0-0.005,0-0.007,0c-0.014,0.005-0.028,0.007-0.042,0.009c-0.008,0.002-0.014,0.002-0.02,0.004
				c-0.02,0.007-0.04,0.016-0.058,0.023c-0.017,0.009-0.032,0.021-0.047,0.031c-0.004,0.004-0.007,0.006-0.012,0.011
				c-0.006,0.004-0.01,0.006-0.014,0.011c-0.006,0.006-0.011,0.014-0.015,0.018c-0.006,0.004-0.01,0.011-0.014,0.017
				c-0.003,0.003-0.006,0.005-0.007,0.007c-0.009,0.013-0.017,0.024-0.023,0.039c-0.001,0-0.003,0.002-0.003,0.002
				c-0.001,0.002-0.001,0.007-0.002,0.009c-0.007,0.011-0.011,0.021-0.016,0.032c-0.003,0.007-0.004,0.014-0.007,0.021
				c-0.001,0.005-0.003,0.009-0.006,0.015c-0.002,0.005-0.002,0.009-0.003,0.015c-0.005,0.015-0.007,0.033-0.012,0.049
				c0,0.007-0.003,0.009-0.003,0.014v0.002c-0.001,0.006,0,0.015-0.001,0.021c-0.004,0.024-0.005,0.05-0.005,0.079
				c0,0-0.003,0.004-0.003,0.006c0,0.02,0.003,0.038,0.004,0.061c0,0.011,0,0.021,0.001,0.035c0.004,0.036,0.009,0.073,0.017,0.114
				c0.115,0.646,1.461,3.312,1.532,3.452l2.86,0.443c-0.071-0.141-1.417-2.804-1.533-3.452C18.205,21.088,18.2,21.049,18.197,21.012
				z"/>
		</g>
		<g enable-background="new    ">
			<defs>
				<path id="SVGID_13_" enable-background="new    " d="M14.327,9.573c-0.333-0.052-0.666-0.104-1-0.156
					c-0.62-0.095-1.239-0.192-1.857-0.288c-0.026-0.004-0.052-0.011-0.082-0.019c-0.439-0.124-1.372-3.756-1.422-3.946l2.862,0.442
					c0.047,0.192,0.982,3.822,1.419,3.947C14.275,9.563,14.303,9.569,14.327,9.573z"/>
			</defs>
			<clipPath id="SVGID_14_">
				<use xlink:href="#SVGID_13_"  overflow="visible"/>
			</clipPath>
			<g clip-path="url(#SVGID_14_)" enable-background="new    ">
				<path fill="#1B7C3B" d="M14.327,9.573L11.47,9.13c-0.026-0.004-0.052-0.011-0.082-0.019c-0.439-0.124-1.372-3.756-1.422-3.946
					l2.862,0.442c0.047,0.192,0.982,3.822,1.419,3.947C14.275,9.563,14.303,9.569,14.327,9.573"/>
			</g>
		</g>
		<g>
			<path fill="#1B7C3B" d="M17.382,9.809c0-0.033,0.002-0.064,0.004-0.095c0-0.015,0.001-0.032,0.001-0.048c0-0.008,0-0.018,0-0.026
				c0-0.017-0.001-0.037-0.001-0.056c0-0.03-0.002-0.061-0.004-0.091c-0.001-0.02-0.003-0.039-0.004-0.058
				c-0.001-0.029-0.004-0.059-0.008-0.087c-0.001-0.019-0.004-0.039-0.006-0.058c-0.004-0.028-0.01-0.056-0.012-0.083
				c-0.003-0.019-0.009-0.038-0.01-0.056c-0.005-0.027-0.012-0.053-0.016-0.08c-0.004-0.019-0.008-0.035-0.012-0.053
				c-0.005-0.028-0.015-0.052-0.021-0.078c-0.003-0.018-0.007-0.032-0.012-0.049c-0.007-0.025-0.016-0.051-0.025-0.077
				c-0.005-0.013-0.008-0.026-0.014-0.039c-0.014-0.036-0.026-0.072-0.041-0.106c-0.144-0.325-0.611-0.725-1.107-0.801l-2.859-0.443
				c0.494,0.076,0.964,0.476,1.108,0.803c0.014,0.032,0.027,0.067,0.041,0.105c0.005,0.013,0.01,0.026,0.014,0.04
				c0.009,0.024,0.016,0.048,0.023,0.075c0.004,0.017,0.009,0.033,0.013,0.05c0.01,0.025,0.015,0.05,0.021,0.075
				c0.004,0.019,0.008,0.038,0.013,0.057c0.005,0.024,0.009,0.05,0.015,0.076c0.003,0.021,0.006,0.041,0.009,0.062
				c0.006,0.025,0.01,0.051,0.014,0.077c0.001,0.021,0.004,0.043,0.005,0.064c0.003,0.026,0.007,0.053,0.01,0.081
				c0.001,0.022,0.001,0.042,0.002,0.063c0.002,0.028,0.003,0.056,0.003,0.085c0.001,0.021,0.004,0.042,0.001,0.064
				c0,0.021-0.001,0.043-0.001,0.065c0,0.035-0.001,0.067-0.004,0.102c0,0.022-0.001,0.043-0.004,0.065
				c-0.004,0.032-0.008,0.064-0.011,0.097c-0.004,0.02-0.006,0.04-0.009,0.058c-0.012,0.068-0.024,0.135-0.042,0.202
				c-0.001,0.007-0.005,0.013-0.006,0.02c-0.015,0.049-0.03,0.095-0.049,0.14c-0.006,0.02-0.014,0.038-0.024,0.057
				c-0.009,0.027-0.023,0.054-0.036,0.082c-0.011,0.02-0.021,0.038-0.03,0.056c-0.015,0.024-0.028,0.048-0.045,0.069
				c-0.018,0.028-0.037,0.057-0.059,0.083c-0.003,0.002-0.007,0.006-0.009,0.008c-0.028,0.036-0.061,0.069-0.096,0.1
				c-0.094,0.086-0.191,0.154-0.291,0.206c-0.042,0.022-0.082,0.039-0.122,0.056c-0.015,0.006-0.027,0.011-0.043,0.016
				c-0.026,0.01-0.052,0.019-0.08,0.027c-0.017,0.004-0.034,0.008-0.05,0.012c-0.023,0.007-0.048,0.014-0.073,0.019
				c-0.016,0.002-0.033,0.005-0.05,0.008c-0.024,0.003-0.048,0.008-0.071,0.01c-0.015,0.002-0.028,0.002-0.043,0.002
				c-0.043,0.005-0.083,0.005-0.124,0.005c-0.009,0-0.017,0-0.024,0.002c-0.048-0.002-0.096-0.007-0.142-0.011
				c-0.03-0.002-0.059-0.006-0.088-0.011c0.955,0.149,1.907,0.296,2.86,0.443c0.024,0.004,0.049,0.006,0.074,0.01
				c0.004,0,0.01,0,0.013,0.002c0.045,0.004,0.093,0.006,0.141,0.009c0.01-0.001,0.018,0,0.023,0c0.042,0,0.085-0.002,0.128-0.005
				c0.006,0,0.016,0.001,0.021-0.001c0.008-0.001,0.013-0.001,0.021-0.002c0.024-0.003,0.047-0.005,0.071-0.009
				c0.018-0.002,0.033-0.004,0.051-0.009c0.023-0.004,0.051-0.011,0.075-0.017c0.015-0.004,0.031-0.007,0.047-0.011
				c0.027-0.009,0.055-0.019,0.082-0.03c0.014-0.004,0.027-0.009,0.04-0.013c0.04-0.018,0.082-0.035,0.123-0.056
				c0.099-0.053,0.196-0.121,0.292-0.207c0.013-0.01,0.021-0.021,0.033-0.031c0.021-0.021,0.043-0.044,0.063-0.068
				c0.001-0.003,0.005-0.005,0.005-0.007c0.016-0.02,0.032-0.037,0.046-0.058c0.006-0.007,0.01-0.017,0.015-0.024
				c0.017-0.024,0.029-0.048,0.043-0.072c0.009-0.01,0.015-0.021,0.021-0.034c0.004-0.007,0.007-0.014,0.013-0.022
				c0.012-0.026,0.024-0.054,0.036-0.081c0.006-0.014,0.014-0.025,0.019-0.04c0.003-0.005,0.005-0.011,0.006-0.017
				c0.018-0.044,0.032-0.091,0.046-0.139c0.003-0.006,0.005-0.011,0.007-0.017v-0.002c0.017-0.067,0.029-0.134,0.04-0.204
				c0.002-0.007,0.006-0.014,0.006-0.023c0.003-0.009,0.003-0.022,0.004-0.033c0.005-0.032,0.01-0.063,0.011-0.096
				C17.378,9.854,17.379,9.832,17.382,9.809z"/>
			<g enable-background="new    ">
				<defs>
					<path id="SVGID_15_" enable-background="new    " d="M12.324,10.584c0.954,0.149,1.906,0.296,2.859,0.442
						c-0.084-0.012-0.155,0-0.217,0.033c-0.183,0.095-0.255,0.37-0.222,0.638c0.049,0.396,1.497,3.405,1.573,3.564l-2.859-0.444
						c-0.077-0.158-1.524-3.168-1.572-3.564c-0.034-0.266,0.037-0.541,0.222-0.638C12.168,10.584,12.239,10.572,12.324,10.584z"/>
				</defs>
				<clipPath id="SVGID_16_">
					<use xlink:href="#SVGID_15_"  overflow="visible"/>
				</clipPath>
				<g clip-path="url(#SVGID_16_)" enable-background="new    ">
					<path fill="#1B7C3B" d="M16.318,15.262l-2.859-0.444c-0.077-0.158-1.524-3.168-1.572-3.564
						c-0.007-0.045-0.009-0.088-0.009-0.133l2.859,0.442c-0.001,0.045,0.003,0.091,0.008,0.134
						C14.794,12.093,16.242,15.103,16.318,15.262"/>
					<path fill="#197F3B" d="M14.737,11.563l-2.859-0.442c0-0.044,0.004-0.087,0.011-0.131l2.859,0.443
						C14.741,11.476,14.737,11.519,14.737,11.563"/>
					<path fill="#20833B" d="M14.748,11.434l-2.859-0.443c0.005-0.03,0.01-0.062,0.019-0.091l2.861,0.443
						C14.76,11.373,14.753,11.401,14.748,11.434"/>
					<path fill="#20873B" d="M14.769,11.342l-2.861-0.443c0.006-0.024,0.015-0.047,0.022-0.069l2.86,0.443
						C14.781,11.297,14.772,11.319,14.769,11.342"/>
					<path fill="#1C8B3B" d="M14.79,11.273l-2.86-0.443c0.007-0.02,0.019-0.039,0.026-0.056l2.861,0.442
						C14.807,11.234,14.798,11.254,14.79,11.273"/>
					<path fill="#26903A" d="M14.817,11.216l-2.861-0.442c0.009-0.02,0.021-0.035,0.032-0.05l2.858,0.441
						C14.836,11.18,14.827,11.199,14.817,11.216"/>
					<path fill="#29923A" d="M14.847,11.166l-2.858-0.441c0.014-0.017,0.026-0.036,0.041-0.05l2.86,0.443
						C14.874,11.132,14.859,11.148,14.847,11.166"/>
					<path fill="#29973A" d="M14.89,11.118l-2.86-0.443c0.022-0.024,0.05-0.043,0.079-0.059c0.033-0.019,0.073-0.031,0.118-0.034
						l2.859,0.443c-0.043,0.002-0.082,0.015-0.119,0.035C14.938,11.074,14.913,11.094,14.89,11.118"/>
					<path fill="#29923A" d="M15.086,11.025l-2.859-0.443c0.025-0.002,0.052-0.001,0.079,0.001l2.86,0.443
						C15.139,11.022,15.112,11.022,15.086,11.025"/>
					<path fill="#26903A" d="M15.166,11.026l-2.86-0.443c0.005,0,0.013,0.001,0.019,0.002l2.859,0.442
						C15.177,11.027,15.171,11.027,15.166,11.026"/>
				</g>
			</g>
		</g>
		<g>
			<g enable-background="new    ">
				<defs>
					<path id="SVGID_17_" enable-background="new    " d="M8.164,19.441c-0.955-0.149-1.908-0.296-2.861-0.445
						c-0.026-0.002-0.05-0.009-0.069-0.019c-0.435-0.245-3.408-8.824-3.563-9.276l2.858,0.443c0.157,0.452,3.129,9.029,3.563,9.274
						C8.11,19.429,8.135,19.435,8.164,19.441z"/>
				</defs>
				<use xlink:href="#SVGID_17_"  overflow="visible" fill="#5B2513"/>
				<clipPath id="SVGID_18_">
					<use xlink:href="#SVGID_17_"  overflow="visible"/>
				</clipPath>
				<g clip-path="url(#SVGID_18_)">
					
						<linearGradient id="SVGID_19_" gradientUnits="userSpaceOnUse" x1="6.3145" y1="14.2534" x2="7.4921" y2="21.7615" gradientTransform="matrix(0.997 -0.0769 0.0769 0.997 -2.9837 -1.3041)">
						<stop  offset="0" style="stop-color:#4E2254"/>
						<stop  offset="0.6848" style="stop-color:#79217E"/>
						<stop  offset="1" style="stop-color:#964C8F"/>
						<a:midPointStop  offset="0" style="stop-color:#4E2254"/>
						<a:midPointStop  offset="0.5" style="stop-color:#4E2254"/>
						<a:midPointStop  offset="0.6848" style="stop-color:#79217E"/>
						<a:midPointStop  offset="0.5" style="stop-color:#79217E"/>
						<a:midPointStop  offset="1" style="stop-color:#964C8F"/>
					</linearGradient>
					<path fill="url(#SVGID_19_)" d="M8.164,19.441l-2.861-0.445c-0.026-0.002-0.05-0.009-0.069-0.019
						c-0.435-0.245-3.408-8.824-3.563-9.276l2.858,0.443c0.157,0.452,3.129,9.029,3.563,9.274
						C8.11,19.429,8.135,19.435,8.164,19.441"/>
				</g>
			</g>
			<g>
				
					<linearGradient id="SVGID_20_" gradientUnits="userSpaceOnUse" x1="11.0811" y1="8.8477" x2="5.1463" y2="12.2981" gradientTransform="matrix(0.997 -0.0769 0.0769 0.997 -2.9837 -1.3041)">
					<stop  offset="0" style="stop-color:#4E2254"/>
					<stop  offset="0.6848" style="stop-color:#79217E"/>
					<stop  offset="1" style="stop-color:#964C8F"/>
					<a:midPointStop  offset="0" style="stop-color:#4E2254"/>
					<a:midPointStop  offset="0.5" style="stop-color:#4E2254"/>
					<a:midPointStop  offset="0.6848" style="stop-color:#79217E"/>
					<a:midPointStop  offset="0.5" style="stop-color:#79217E"/>
					<a:midPointStop  offset="1" style="stop-color:#964C8F"/>
				</linearGradient>
				<polygon fill="url(#SVGID_20_)" points="4.529,10.144 1.671,9.701 10.049,5.19 12.908,5.633 				"/>
			</g>
			<g>
				
					<radialGradient id="SVGID_21_" cx="8.4395" cy="9.8447" r="10.3698" gradientTransform="matrix(0.997 -0.0769 0.0769 0.997 -2.9837 -1.3041)" gradientUnits="userSpaceOnUse">
					<stop  offset="0.3152" style="stop-color:#964C8F"/>
					<stop  offset="1" style="stop-color:#4E2254"/>
					<a:midPointStop  offset="0.3152" style="stop-color:#964C8F"/>
					<a:midPointStop  offset="0.5" style="stop-color:#964C8F"/>
					<a:midPointStop  offset="1" style="stop-color:#4E2254"/>
				</radialGradient>
				<path fill="url(#SVGID_21_)" d="M12.908,5.633c0.035,0.177,0.707,3.544,1.104,3.809c0.152,0.103,0.278,0.11,0.389,0.054
					c0.173-0.093,0.306-0.355,0.418-0.675c0.196-0.55,0.469-0.89,0.768-1.046c0.563-0.296,1.217,0.055,1.625,0.868
					c0.369,0.74,0.428,1.584-0.154,2.144c-0.104,0.101-0.211,0.175-0.315,0.231c-0.677,0.355-1.293-0.155-1.545-0.069
					c-0.047,0.017-0.093,0.035-0.14,0.061c-0.239,0.125-0.44,0.385-0.224,0.999c0.262,0.729,1.43,3.134,1.485,3.254
					c-0.542,0.477-1.229,0.79-1.845,1.113c-0.271,0.142-0.552,0.261-0.844,0.348c-0.595,0.179-0.86-0.002-0.625-0.834
					c0.413-1.463-0.939-2.231-1.95-1.697c-0.021,0.009-0.039,0.02-0.058,0.03c-1.092,0.634-1.418,2.04-0.129,2.869
					c0.361,0.23,0.856,0.523,0.582,0.785c-0.128,0.121-0.753,0.508-1.437,0.867c-0.805,0.424-1.688,0.807-1.921,0.675
					c-0.435-0.245-3.406-8.822-3.563-9.274L12.908,5.633z"/>
			</g>
			
				<radialGradient id="SVGID_22_" cx="13.8477" cy="12.7495" r="11.384" fx="11.6149" fy="9.4564" gradientTransform="matrix(0.997 -0.0769 0.0769 0.997 -2.9837 -1.3041)" gradientUnits="userSpaceOnUse">
				<stop  offset="0" style="stop-color:#C797BD"/>
				<stop  offset="0.3152" style="stop-color:#964C8F"/>
				<stop  offset="1" style="stop-color:#4E2254"/>
				<a:midPointStop  offset="0" style="stop-color:#C797BD"/>
				<a:midPointStop  offset="0.5" style="stop-color:#C797BD"/>
				<a:midPointStop  offset="0.3152" style="stop-color:#964C8F"/>
				<a:midPointStop  offset="0.5" style="stop-color:#964C8F"/>
				<a:midPointStop  offset="1" style="stop-color:#4E2254"/>
			</radialGradient>
			<path fill="url(#SVGID_22_)" d="M4.529,10.144c0.113,0.324,1.68,4.848,2.714,7.458c1.189-2.506,3.203-5.668,6.529-8.58
				c-0.382-0.971-0.837-3.243-0.864-3.388L4.529,10.144z"/>
		</g>
		<g>
			<g>
				
					<linearGradient id="SVGID_23_" gradientUnits="userSpaceOnUse" x1="20.5674" y1="4.2241" x2="12.1753" y2="10.1317" gradientTransform="matrix(0.997 -0.0769 0.0769 0.997 -2.9837 -1.3041)">
					<stop  offset="0" style="stop-color:#34582C"/>
					<stop  offset="0.0078" style="stop-color:#355A2C"/>
					<stop  offset="0.1194" style="stop-color:#466B31"/>
					<stop  offset="0.2404" style="stop-color:#507533"/>
					<stop  offset="0.3879" style="stop-color:#537834"/>
					<stop  offset="1" style="stop-color:#ADC83E"/>
					<a:midPointStop  offset="0" style="stop-color:#34582C"/>
					<a:midPointStop  offset="0.2542" style="stop-color:#34582C"/>
					<a:midPointStop  offset="0.3879" style="stop-color:#537834"/>
					<a:midPointStop  offset="0.5" style="stop-color:#537834"/>
					<a:midPointStop  offset="1" style="stop-color:#ADC83E"/>
				</linearGradient>
				<polygon fill="url(#SVGID_23_)" points="12.828,5.607 9.966,5.165 18.415,0.722 21.275,1.165 				"/>
			</g>
			<g>
				
					<radialGradient id="SVGID_24_" cx="22.6367" cy="5.2988" r="10.7557" gradientTransform="matrix(0.997 -0.0769 0.0769 0.997 -2.9837 -1.3041)" gradientUnits="userSpaceOnUse">
					<stop  offset="0" style="stop-color:#ADC83E"/>
					<stop  offset="1" style="stop-color:#34582C"/>
					<a:midPointStop  offset="0" style="stop-color:#ADC83E"/>
					<a:midPointStop  offset="0.5" style="stop-color:#ADC83E"/>
					<a:midPointStop  offset="1" style="stop-color:#34582C"/>
				</radialGradient>
				<path fill="url(#SVGID_24_)" d="M21.275,1.165l3.388,9.499c-0.067,0.056-1.361,1.157-2.342,1.673
					c-0.327,0.172-0.612,0.274-0.789,0.235c-0.906-0.191,0.137-1.352-0.335-2.135c-0.374-0.618-1.017-0.973-1.919-0.594
					c-0.03,0.013-0.06,0.026-0.087,0.04c-0.985,0.518-1.124,2.458-0.04,2.891c0.513,0.202,0.695,0.419,0.581,0.587
					c-0.344,0.506-0.86,0.891-1.42,1.185c-0.682,0.359-1.428,0.582-1.994,0.718c-0.076-0.159-1.524-3.169-1.573-3.564
					c-0.033-0.269,0.039-0.543,0.222-0.638c0.087-0.048,0.199-0.052,0.339,0.002c0.356,0.14,0.877,0.249,1.364-0.008
					c0.099-0.053,0.196-0.121,0.292-0.207c0.56-0.505,0.484-1.621,0.24-2.177c-0.201-0.457-1.041-1.058-1.698-0.712
					c-0.141,0.074-0.274,0.192-0.39,0.365c-0.507,0.752-0.488,1.149-0.653,1.237c-0.048,0.025-0.113,0.025-0.214-0.005
					c-0.437-0.125-1.372-3.755-1.419-3.947L21.275,1.165z"/>
			</g>
			
				<radialGradient id="SVGID_25_" cx="22.6367" cy="5.2988" r="10.755" gradientTransform="matrix(0.997 -0.0769 0.0769 0.997 -2.9837 -1.3041)" gradientUnits="userSpaceOnUse">
				<stop  offset="0" style="stop-color:#D0DFA0"/>
				<stop  offset="0.303" style="stop-color:#ADC83E"/>
				<stop  offset="1" style="stop-color:#34582C"/>
				<a:midPointStop  offset="0" style="stop-color:#D0DFA0"/>
				<a:midPointStop  offset="0.5" style="stop-color:#D0DFA0"/>
				<a:midPointStop  offset="0.303" style="stop-color:#ADC83E"/>
				<a:midPointStop  offset="0.5" style="stop-color:#ADC83E"/>
				<a:midPointStop  offset="1" style="stop-color:#34582C"/>
			</radialGradient>
			<path fill="url(#SVGID_25_)" d="M21.275,1.165l-6.461,3.398c4.44,0.787,6.648,3.214,8.953,6.817
				c0.485-0.369,0.859-0.688,0.896-0.716L21.275,1.165z"/>
		</g>
		<path fill="none" d="M19.106,17.39c0.279-0.012,0.558-0.017,0.839-0.021C19.676,17.271,19.388,17.268,19.106,17.39z"/>
		<g>
			<g>
				
					<radialGradient id="SVGID_26_" cx="22.8271" cy="14.9238" r="8.669" fx="23.1977" fy="15.2211" gradientTransform="matrix(0.997 -0.0769 0.0769 0.997 -2.9837 -1.3041)" gradientUnits="userSpaceOnUse">
					<stop  offset="0.2485" style="stop-color:#D13829"/>
					<stop  offset="0.5515" style="stop-color:#C53022"/>
					<stop  offset="0.7636" style="stop-color:#871D22"/>
					<stop  offset="1" style="stop-color:#76171C"/>
					<a:midPointStop  offset="0.2485" style="stop-color:#D13829"/>
					<a:midPointStop  offset="0.5" style="stop-color:#D13829"/>
					<a:midPointStop  offset="0.5515" style="stop-color:#C53022"/>
					<a:midPointStop  offset="0.5" style="stop-color:#C53022"/>
					<a:midPointStop  offset="0.7636" style="stop-color:#871D22"/>
					<a:midPointStop  offset="0.5" style="stop-color:#871D22"/>
					<a:midPointStop  offset="1" style="stop-color:#76171C"/>
				</radialGradient>
				<path fill="url(#SVGID_26_)" d="M19.46,9.887c0.737-0.383,1.646,0.039,1.906,1.012c0.108,0.412-0.348,1.522-0.006,1.765
					c0.321,0.228,0.52-0.121,1.182-0.469c0.04-0.022,0.083-0.043,0.127-0.067c0.759-0.399,1.977-1.375,2.043-1.435l3.504,9.553
					l-8.391,4.413c-0.069-0.141-1.416-2.804-1.532-3.452c-0.06-0.336,0.024-0.53,0.168-0.606c0.136-0.07,0.296,0.029,0.497,0.071
					c0.412,0.089,0.733,0.131,1.074-0.049c0.705-0.37,1.229-1.338,0.925-2.186c-0.282-0.794-1.123-1.389-1.872-1.042
					c-0.016,0.007-0.032,0.015-0.047,0.021c-0.248,0.133-0.48,0.387-0.634,0.865c-0.151,0.472-0.317,0.744-0.479,0.828
					c-0.128,0.067-0.254,0.016-0.364-0.149c-0.245-0.369-0.942-3.131-0.999-3.353c-0.055-0.22-0.242-0.333-0.243-0.346
					c0.07-0.019,1.552-0.61,2.182-0.876c0.167-0.072,0.338-0.2,0.485-0.277c0.406-0.214,0.612-0.349,0.716-0.511
					c0.142-0.22,0.268-0.333,0.136-0.476c-0.131-0.141-0.945-0.279-1.197-0.83C18.117,11.166,18.655,10.311,19.46,9.887z"/>
			</g>
			
				<radialGradient id="SVGID_27_" cx="22.8311" cy="14.9238" r="9.727" fx="22.4011" fy="16.3811" gradientTransform="matrix(0.997 -0.0769 0.0769 0.997 -2.9837 -1.3041)" gradientUnits="userSpaceOnUse">
				<stop  offset="0" style="stop-color:#F5D194"/>
				<stop  offset="0.4424" style="stop-color:#D13829"/>
				<stop  offset="0.9975" style="stop-color:#76171C"/>
				<a:midPointStop  offset="0" style="stop-color:#F5D194"/>
				<a:midPointStop  offset="0.5" style="stop-color:#F5D194"/>
				<a:midPointStop  offset="0.4424" style="stop-color:#D13829"/>
				<a:midPointStop  offset="0.5" style="stop-color:#D13829"/>
				<a:midPointStop  offset="0.9975" style="stop-color:#76171C"/>
			</radialGradient>
			<path fill="url(#SVGID_27_)" d="M22.669,12.128c-0.044,0.024-0.087,0.045-0.127,0.067c-0.662,0.348-0.744,0.632-1.182,0.469
				c-0.335-0.125,0.114-1.353,0.006-1.765c-0.26-0.974-1.169-1.396-1.906-1.012c-0.805,0.424-1.431,1.282-0.864,2.389
				c0.28,0.546,1.11,0.706,1.241,0.847c0.132,0.143-0.09,0.422-0.279,0.6c-0.169,0.157-0.197,0.113-0.572,0.386
				c-0.135,0.097-0.318,0.205-0.485,0.277c-0.63,0.266-2.111,0.857-2.182,0.876c0.001,0.012,0.057,0.188,0.149,0.404
				c0.051,0.12,0.359,0.996,0.603,1.85c0.671-0.063,1.352-0.106,2.036-0.127c0.281-0.122,0.569-0.118,0.839-0.021
				c2.395-0.017,4.89,0.223,7.512,0.809l-2.745-7.485C24.646,10.753,23.428,11.729,22.669,12.128z"/>
		</g>
		<g>
			<g>
				
					<linearGradient id="SVGID_28_" gradientUnits="userSpaceOnUse" x1="7.9517" y1="21.7979" x2="12.6768" y2="35.8247" gradientTransform="matrix(0.997 -0.0769 0.0769 0.997 -2.9837 -1.3041)">
					<stop  offset="0" style="stop-color:#1B2B59"/>
					<stop  offset="0.3939" style="stop-color:#0B3581"/>
					<stop  offset="0.6606" style="stop-color:#3368A9"/>
					<stop  offset="0.7212" style="stop-color:#2C5EA1"/>
					<stop  offset="0.7818" style="stop-color:#1A2F6D"/>
					<stop  offset="1" style="stop-color:#1B2B59"/>
					<a:midPointStop  offset="0" style="stop-color:#1B2B59"/>
					<a:midPointStop  offset="0.5" style="stop-color:#1B2B59"/>
					<a:midPointStop  offset="0.3939" style="stop-color:#0B3581"/>
					<a:midPointStop  offset="0.5" style="stop-color:#0B3581"/>
					<a:midPointStop  offset="0.6606" style="stop-color:#3368A9"/>
					<a:midPointStop  offset="0.5" style="stop-color:#3368A9"/>
					<a:midPointStop  offset="0.7212" style="stop-color:#2C5EA1"/>
					<a:midPointStop  offset="0.5" style="stop-color:#2C5EA1"/>
					<a:midPointStop  offset="0.7818" style="stop-color:#1A2F6D"/>
					<a:midPointStop  offset="0.5" style="stop-color:#1A2F6D"/>
					<a:midPointStop  offset="1" style="stop-color:#1B2B59"/>
				</linearGradient>
				<polygon fill="url(#SVGID_28_)" points="11.57,28.998 8.71,28.555 5.182,18.925 8.063,19.392 				"/>
			</g>
			<g>
				
					<radialGradient id="SVGID_29_" cx="12.3379" cy="19.3408" r="11.9256" gradientTransform="matrix(0.997 -0.0769 0.0769 0.997 -2.9837 -1.3041)" gradientUnits="userSpaceOnUse">
					<stop  offset="0" style="stop-color:#37ACD6"/>
					<stop  offset="0.5212" style="stop-color:#37ACD6"/>
					<stop  offset="1" style="stop-color:#1B2651"/>
					<a:midPointStop  offset="0" style="stop-color:#37ACD6"/>
					<a:midPointStop  offset="0.5" style="stop-color:#37ACD6"/>
					<a:midPointStop  offset="0.5212" style="stop-color:#37ACD6"/>
					<a:midPointStop  offset="0.5" style="stop-color:#37ACD6"/>
					<a:midPointStop  offset="1" style="stop-color:#1B2651"/>
				</radialGradient>
				<path fill="url(#SVGID_29_)" d="M11.318,14.213c0.014-0.007,0.027-0.015,0.043-0.022c0.543-0.274,1.271-0.218,1.622,0.3
					c0.524,0.778-0.287,1.838,0.076,2.418c0.162,0.257,0.664,0.045,1.236-0.229c0.016-0.007,0.033-0.018,0.051-0.023
					c0.61-0.322,1.896-1.334,1.972-1.394c0.052,0.163,1.185,3.15,1.474,3.576c0.094,0.134,0.177,0.169,0.261,0.123
					c0.184-0.095,0.382-0.558,0.729-1.17c0.14-0.241,0.311-0.408,0.499-0.51c0.514-0.269,1.161-0.046,1.625,0.497
					c0.635,0.744,0.134,2.191-0.326,2.59c-0.078,0.068-0.16,0.125-0.24,0.168c-0.392,0.206-0.813,0.136-1.347-0.017
					c-0.152-0.044-0.26-0.044-0.332-0.006c-0.237,0.127-0.116,0.637,0.015,1.251c0.169,0.805,1.229,2.719,1.283,2.822l-8.389,4.411
					l-3.508-9.606c0.1-0.027,2.071-0.574,2.824-0.932c0.029-0.013,0.058-0.028,0.085-0.044c0.671-0.353,0.738-0.819,0.669-1.012
					c-0.07-0.197-0.89-0.584-1.141-0.897c-0.148-0.186-0.221-0.5-0.208-0.823C10.321,14.945,10.762,14.506,11.318,14.213z"/>
			</g>
			
				<radialGradient id="SVGID_30_" cx="15.2178" cy="19.1152" r="11.8983" gradientTransform="matrix(0.997 -0.0769 0.0769 0.997 -2.9837 -1.3041)" gradientUnits="userSpaceOnUse">
				<stop  offset="0" style="stop-color:#8BC9E9"/>
				<stop  offset="0.5212" style="stop-color:#37ACD6"/>
				<stop  offset="1" style="stop-color:#1B2651"/>
				<a:midPointStop  offset="0" style="stop-color:#8BC9E9"/>
				<a:midPointStop  offset="0.5" style="stop-color:#8BC9E9"/>
				<a:midPointStop  offset="0.5212" style="stop-color:#37ACD6"/>
				<a:midPointStop  offset="0.5" style="stop-color:#37ACD6"/>
				<a:midPointStop  offset="1" style="stop-color:#1B2651"/>
			</radialGradient>
			<path fill="url(#SVGID_30_)" d="M18.676,21.765c-0.131-0.614-0.252-1.124-0.015-1.251c0.072-0.038,0.18-0.038,0.332,0.006
				c0.533,0.152,0.955,0.223,1.347,0.017c0.08-0.043,0.162-0.1,0.24-0.168c0.46-0.398,0.961-1.846,0.326-2.59
				c-0.464-0.543-1.111-0.766-1.625-0.497c-0.188,0.102-0.359,0.269-0.499,0.51c-0.348,0.612-0.546,1.075-0.729,1.17
				c-0.084,0.046-0.167,0.011-0.261-0.123c-0.289-0.426-1.422-3.413-1.474-3.576c-0.414,0.218-1.361,1.072-1.972,1.394
				c-0.018,0.006-0.035,0.017-0.051,0.023c-0.572,0.274-1.074,0.486-1.236,0.229c-0.363-0.58,0.448-1.64-0.076-2.418
				c-0.351-0.518-1.079-0.574-1.622-0.3c-0.016,0.007-0.029,0.015-0.043,0.022c-0.557,0.293-0.997,0.732-1.026,1.471
				c-0.013,0.323,0.06,0.637,0.208,0.823c0.251,0.313,1.07,0.7,1.141,0.897c0.066,0.186,0,0.632-0.612,0.979
				c2.952,1.581,5.838,3.647,8.612,6.37l0.318-0.167C19.904,24.483,18.845,22.569,18.676,21.765z"/>
		</g>
	</g>
</g>
</svg>
