<?xml version="1.0" encoding="utf-8"?>
<!-- Generator: Adobe Illustrator 15.1.0, SVG Export Plug-In . SVG Version: 6.00 Build 0)  -->
<!DOCTYPE svg PUBLIC "-//W3C//DTD SVG 1.1//EN" "http://www.w3.org/Graphics/SVG/1.1/DTD/svg11.dtd" [
	<!ENTITY ns_flows "http://ns.adobe.com/Flows/1.0/">
	<!ENTITY ns_extend "http://ns.adobe.com/Extensibility/1.0/">
	<!ENTITY ns_ai "http://ns.adobe.com/AdobeIllustrator/10.0/">
	<!ENTITY ns_graphs "http://ns.adobe.com/Graphs/1.0/">
]>
<svg version="1.1" id="圖層_1" xmlns:x="&ns_extend;" xmlns:i="&ns_ai;" xmlns:graph="&ns_graphs;"
	 xmlns="http://www.w3.org/2000/svg" xmlns:xlink="http://www.w3.org/1999/xlink" xmlns:a="http://ns.adobe.com/AdobeSVGViewerExtensions/3.0/"
	 x="0px" y="0px" width="30px" height="30px" viewBox="0 0 30 30" enable-background="new 0 0 30 30" xml:space="preserve">
<g>
	
		<linearGradient id="SVGID_1_" gradientUnits="userSpaceOnUse" x1="5.249" y1="22.7891" x2="5.833" y2="22.7891" gradientTransform="matrix(1 0.0176 0 1 -1.2529 -4.6864)">
		<stop  offset="0" style="stop-color:#159342"/>
		<stop  offset="0.8" style="stop-color:#026736"/>
		<stop  offset="1" style="stop-color:#006435"/>
		<a:midPointStop  offset="0" style="stop-color:#159342"/>
		<a:midPointStop  offset="0.5" style="stop-color:#159342"/>
		<a:midPointStop  offset="0.8" style="stop-color:#026736"/>
		<a:midPointStop  offset="0.5" style="stop-color:#026736"/>
		<a:midPointStop  offset="1" style="stop-color:#006435"/>
	</linearGradient>
	<polygon fill="url(#SVGID_1_)" points="4.58,29.379 3.996,29.379 3.996,7.013 4.58,7.021 	"/>
	<path opacity="0.5" fill="#FFFFFF" d="M2.832,7.967v0.257c0-0.537,0.628-1.222,1.164-1.211L3.807,7.008
		C3.271,6.998,2.832,7.429,2.832,7.967z"/>
	<path opacity="0.5" fill="#FFFFFF" d="M2.832,28.42v-0.256c0,0.535,0.628,1.221,1.164,1.212l-0.189,0.003
		C3.271,29.388,2.832,28.955,2.832,28.42z"/>
	<g>
		<g>
			<path fill-rule="evenodd" clip-rule="evenodd" fill="#E8E7E2" d="M21.727,27.83c0,0.805-0.612,1.458-1.366,1.458H5.353
				c-0.755,0-1.367-0.653-1.367-1.458l0,0c0-0.805,0.612-1.459,1.367-1.459H20.36C21.114,26.371,21.727,27.025,21.727,27.83
				L21.727,27.83z"/>
			<path fill-rule="evenodd" clip-rule="evenodd" fill="#E6E5E0" d="M21.728,27.827c0,0.805-0.612,1.458-1.366,1.458H5.353
				c-0.755,0-1.367-0.653-1.367-1.458l0,0c0-0.805,0.612-1.459,1.367-1.459h15.008C21.115,26.368,21.728,27.022,21.728,27.827
				L21.728,27.827z"/>
			<path fill-rule="evenodd" clip-rule="evenodd" fill="#E5E4DF" d="M21.728,27.823c0,0.805-0.612,1.458-1.366,1.458H5.354
				c-0.755,0-1.367-0.653-1.367-1.458l0,0c0-0.805,0.612-1.459,1.367-1.459h15.007C21.115,26.364,21.728,27.019,21.728,27.823
				L21.728,27.823z"/>
			<path fill-rule="evenodd" clip-rule="evenodd" fill="#E3E2DD" d="M21.729,27.82c0,0.805-0.612,1.458-1.366,1.458H5.354
				c-0.755,0-1.367-0.653-1.367-1.458l0,0c0-0.805,0.612-1.459,1.367-1.459h15.008C21.116,26.361,21.729,27.016,21.729,27.82
				L21.729,27.82z"/>
			<path fill-rule="evenodd" clip-rule="evenodd" fill="#E2E1DC" d="M21.729,27.816c0,0.805-0.612,1.458-1.366,1.458H5.355
				c-0.755,0-1.367-0.653-1.367-1.458l0,0c0-0.805,0.612-1.459,1.367-1.459h15.008C21.117,26.357,21.729,27.012,21.729,27.816
				L21.729,27.816z"/>
			<path fill-rule="evenodd" clip-rule="evenodd" fill="#E0DFDA" d="M21.729,27.813c0,0.805-0.612,1.458-1.366,1.458H5.356
				c-0.755,0-1.367-0.653-1.367-1.458l0,0c0-0.805,0.612-1.459,1.367-1.459h15.007C21.117,26.354,21.729,27.009,21.729,27.813
				L21.729,27.813z"/>
			<path fill-rule="evenodd" clip-rule="evenodd" fill="#DEDDD9" d="M21.73,27.81c0,0.805-0.612,1.458-1.366,1.458H5.356
				c-0.755,0-1.367-0.653-1.367-1.458l0,0c0-0.805,0.612-1.459,1.367-1.459h15.008C21.118,26.351,21.73,27.005,21.73,27.81
				L21.73,27.81z"/>
			<path fill-rule="evenodd" clip-rule="evenodd" fill="#DDDCD7" d="M21.731,27.807c0,0.805-0.612,1.458-1.366,1.458H5.357
				c-0.755,0-1.367-0.653-1.367-1.458l0,0c0-0.805,0.612-1.459,1.367-1.459h15.008C21.119,26.348,21.731,27.002,21.731,27.807
				L21.731,27.807z"/>
			<path fill-rule="evenodd" clip-rule="evenodd" fill="#DBDAD5" d="M21.731,27.804c0,0.805-0.612,1.457-1.366,1.457H5.358
				c-0.755,0-1.367-0.652-1.367-1.457l0,0c0-0.805,0.612-1.459,1.367-1.459h15.007C21.119,26.345,21.731,26.999,21.731,27.804
				L21.731,27.804z"/>
			<path fill-rule="evenodd" clip-rule="evenodd" fill="#DAD8D4" d="M21.732,27.8c0,0.805-0.612,1.458-1.366,1.458H5.358
				c-0.755,0-1.367-0.653-1.367-1.458l0,0c0-0.805,0.612-1.459,1.367-1.459h15.008C21.12,26.341,21.732,26.995,21.732,27.8
				L21.732,27.8z"/>
			<path fill-rule="evenodd" clip-rule="evenodd" fill="#D8D7D2" d="M21.733,27.797c0,0.805-0.612,1.458-1.366,1.458H5.359
				c-0.755,0-1.367-0.653-1.367-1.458l0,0c0-0.805,0.612-1.459,1.367-1.459h15.008C21.121,26.338,21.733,26.992,21.733,27.797
				L21.733,27.797z"/>
			<path fill-rule="evenodd" clip-rule="evenodd" fill="#D7D5D1" d="M21.734,27.793c0,0.805-0.613,1.458-1.367,1.458H5.36
				c-0.755,0-1.367-0.653-1.367-1.458l0,0c0-0.805,0.612-1.459,1.367-1.459h15.007C21.121,26.334,21.734,26.988,21.734,27.793
				L21.734,27.793z"/>
			<path fill-rule="evenodd" clip-rule="evenodd" fill="#D5D4CF" d="M21.734,27.79c0,0.805-0.612,1.458-1.366,1.458H5.36
				c-0.755,0-1.367-0.653-1.367-1.458l0,0c0-0.805,0.612-1.459,1.367-1.459h15.008C21.122,26.331,21.734,26.985,21.734,27.79
				L21.734,27.79z"/>
			<path fill-rule="evenodd" clip-rule="evenodd" fill="#D3D2CD" d="M21.735,27.786c0,0.805-0.612,1.458-1.366,1.458H5.361
				c-0.755,0-1.367-0.653-1.367-1.458l0,0c0-0.805,0.612-1.459,1.367-1.459h15.008C21.123,26.327,21.735,26.981,21.735,27.786
				L21.735,27.786z"/>
			<path fill-rule="evenodd" clip-rule="evenodd" fill="#D2D0CC" d="M21.736,27.783c0,0.805-0.613,1.458-1.367,1.458H5.362
				c-0.755,0-1.367-0.653-1.367-1.458l0,0c0-0.805,0.612-1.459,1.367-1.459h15.007C21.123,26.324,21.736,26.979,21.736,27.783
				L21.736,27.783z"/>
			<path fill-rule="evenodd" clip-rule="evenodd" fill="#D0CFCA" d="M21.736,27.78c0,0.805-0.612,1.457-1.366,1.457H5.362
				c-0.755,0-1.367-0.652-1.367-1.457l0,0c0-0.806,0.612-1.459,1.367-1.459H20.37C21.124,26.321,21.736,26.975,21.736,27.78
				L21.736,27.78z"/>
			<path fill-rule="evenodd" clip-rule="evenodd" fill="#CFCDC9" d="M21.737,27.776c0,0.805-0.612,1.458-1.366,1.458H5.363
				c-0.755,0-1.367-0.653-1.367-1.458l0,0c0-0.805,0.612-1.459,1.367-1.459h15.008C21.125,26.317,21.737,26.972,21.737,27.776
				L21.737,27.776z"/>
			<path fill-rule="evenodd" clip-rule="evenodd" fill="#CDCCC7" d="M21.738,27.773c0,0.805-0.613,1.458-1.367,1.458H5.364
				c-0.755,0-1.367-0.653-1.367-1.458l0,0c0-0.805,0.612-1.459,1.367-1.459h15.007C21.125,26.314,21.738,26.969,21.738,27.773
				L21.738,27.773z"/>
			<path fill-rule="evenodd" clip-rule="evenodd" fill="#CBCAC6" d="M21.738,27.77c0,0.805-0.612,1.458-1.366,1.458H5.364
				c-0.755,0-1.367-0.653-1.367-1.458l0,0c0-0.805,0.612-1.459,1.367-1.459h15.008C21.126,26.311,21.738,26.965,21.738,27.77
				L21.738,27.77z"/>
			<path fill-rule="evenodd" clip-rule="evenodd" fill="#CAC8C4" d="M21.739,27.767c0,0.805-0.612,1.458-1.366,1.458H5.365
				c-0.755,0-1.367-0.653-1.367-1.458l0,0c0-0.805,0.612-1.459,1.367-1.459h15.008C21.127,26.308,21.739,26.962,21.739,27.767
				L21.739,27.767z"/>
			<path fill-rule="evenodd" clip-rule="evenodd" fill="#C8C7C2" d="M21.74,27.763c0,0.805-0.613,1.458-1.367,1.458H5.366
				c-0.755,0-1.367-0.653-1.367-1.458l0,0c0-0.805,0.612-1.459,1.367-1.459h15.007C21.127,26.304,21.74,26.958,21.74,27.763
				L21.74,27.763z"/>
			<path fill-rule="evenodd" clip-rule="evenodd" fill="#C7C5C1" d="M21.74,27.76c0,0.805-0.612,1.458-1.366,1.458H5.366
				c-0.755,0-1.367-0.653-1.367-1.458l0,0c0-0.805,0.612-1.459,1.367-1.459h15.008C21.128,26.301,21.74,26.955,21.74,27.76
				L21.74,27.76z"/>
			<path fill-rule="evenodd" clip-rule="evenodd" fill="#C5C3BF" d="M21.741,27.757c0,0.805-0.612,1.457-1.366,1.457H5.367
				C4.612,29.214,4,28.562,4,27.757l0,0c0-0.806,0.612-1.459,1.367-1.459h15.008C21.129,26.298,21.741,26.951,21.741,27.757
				L21.741,27.757z"/>
			<path fill-rule="evenodd" clip-rule="evenodd" fill="#C3C2BE" d="M21.742,27.753c0,0.805-0.613,1.458-1.367,1.458H5.368
				C4.613,29.211,4,28.558,4,27.753l0,0c0-0.805,0.612-1.459,1.367-1.459h15.007C21.129,26.294,21.742,26.948,21.742,27.753
				L21.742,27.753z"/>
			<path fill-rule="evenodd" clip-rule="evenodd" fill="#C2C0BC" d="M21.742,27.75c0,0.805-0.612,1.457-1.366,1.457H5.368
				c-0.755,0-1.367-0.652-1.367-1.457l0,0c0-0.805,0.612-1.459,1.367-1.459h15.008C21.13,26.291,21.742,26.945,21.742,27.75
				L21.742,27.75z"/>
			<path fill-rule="evenodd" clip-rule="evenodd" fill="#C0BFBA" d="M21.743,27.746c0,0.805-0.612,1.458-1.366,1.458H5.369
				c-0.755,0-1.367-0.653-1.367-1.458l0,0c0-0.805,0.612-1.459,1.367-1.459h15.008C21.131,26.287,21.743,26.941,21.743,27.746
				L21.743,27.746z"/>
			<path fill-rule="evenodd" clip-rule="evenodd" fill="#BFBDB9" d="M21.744,27.743c0,0.805-0.613,1.458-1.367,1.458H5.37
				c-0.755,0-1.367-0.653-1.367-1.458l0,0c0-0.805,0.612-1.459,1.367-1.459h15.007C21.131,26.284,21.744,26.938,21.744,27.743
				L21.744,27.743z"/>
			<path fill-rule="evenodd" clip-rule="evenodd" fill="#BDBBB7" d="M21.745,27.739c0,0.805-0.613,1.458-1.367,1.458H5.37
				c-0.755,0-1.367-0.653-1.367-1.458l0,0c0-0.805,0.612-1.459,1.367-1.459h15.008C21.132,26.28,21.745,26.935,21.745,27.739
				L21.745,27.739z"/>
			<path fill-rule="evenodd" clip-rule="evenodd" fill="#BCBAB6" d="M21.745,27.736c0,0.805-0.612,1.458-1.366,1.458H5.371
				c-0.755,0-1.367-0.653-1.367-1.458l0,0c0-0.805,0.612-1.459,1.367-1.459h15.008C21.133,26.277,21.745,26.932,21.745,27.736
				L21.745,27.736z"/>
			<path fill-rule="evenodd" clip-rule="evenodd" fill="#BAB8B4" d="M21.746,27.733c0,0.805-0.613,1.457-1.367,1.457H5.372
				c-0.755,0-1.367-0.652-1.367-1.457l0,0c0-0.806,0.612-1.459,1.367-1.459h15.007C21.133,26.274,21.746,26.928,21.746,27.733
				L21.746,27.733z"/>
			<path fill-rule="evenodd" clip-rule="evenodd" fill="#B8B7B3" d="M21.747,27.729c0,0.805-0.613,1.458-1.367,1.458H5.372
				c-0.755,0-1.367-0.653-1.367-1.458l0,0c0-0.805,0.612-1.459,1.367-1.459H20.38C21.134,26.271,21.747,26.925,21.747,27.729
				L21.747,27.729z"/>
			<path fill-rule="evenodd" clip-rule="evenodd" fill="#B7B5B1" d="M21.747,27.727c0,0.805-0.612,1.457-1.366,1.457H5.373
				c-0.755,0-1.367-0.652-1.367-1.457l0,0c0-0.805,0.612-1.459,1.367-1.459h15.008C21.135,26.268,21.747,26.922,21.747,27.727
				L21.747,27.727z"/>
			<path fill-rule="evenodd" clip-rule="evenodd" fill="#B5B3AF" d="M21.748,27.723c0,0.805-0.613,1.458-1.367,1.458H5.374
				c-0.755,0-1.367-0.653-1.367-1.458l0,0c0-0.805,0.612-1.459,1.367-1.459h15.007C21.135,26.264,21.748,26.918,21.748,27.723
				L21.748,27.723z"/>
			<path fill-rule="evenodd" clip-rule="evenodd" fill="#B4B2AE" d="M21.749,27.72c0,0.805-0.613,1.457-1.367,1.457H5.374
				c-0.755,0-1.367-0.652-1.367-1.457l0,0c0-0.805,0.612-1.459,1.367-1.459h15.008C21.136,26.261,21.749,26.915,21.749,27.72
				L21.749,27.72z"/>
			<path fill-rule="evenodd" clip-rule="evenodd" fill="#B2B0AC" d="M21.749,27.716c0,0.805-0.612,1.458-1.366,1.458H5.375
				c-0.755,0-1.367-0.653-1.367-1.458l0,0c0-0.805,0.612-1.459,1.367-1.459h15.008C21.137,26.257,21.749,26.911,21.749,27.716
				L21.749,27.716z"/>
			<path fill-rule="evenodd" clip-rule="evenodd" fill="#B0AEAB" d="M21.75,27.713c0,0.805-0.613,1.458-1.367,1.458H5.375
				c-0.755,0-1.367-0.653-1.367-1.458l0,0c0-0.805,0.612-1.459,1.367-1.459h15.007C21.137,26.254,21.75,26.908,21.75,27.713
				L21.75,27.713z"/>
			<path fill-rule="evenodd" clip-rule="evenodd" fill="#AFADA9" d="M21.751,27.71c0,0.805-0.613,1.457-1.367,1.457H5.376
				c-0.755,0-1.367-0.652-1.367-1.457l0,0c0-0.806,0.612-1.459,1.367-1.459h15.008C21.138,26.251,21.751,26.904,21.751,27.71
				L21.751,27.71z"/>
			<path fill-rule="evenodd" clip-rule="evenodd" fill="#ADABA8" d="M21.751,27.706c0,0.805-0.612,1.458-1.366,1.458H5.377
				c-0.755,0-1.367-0.653-1.367-1.458l0,0c0-0.805,0.612-1.459,1.367-1.459h15.008C21.139,26.247,21.751,26.901,21.751,27.706
				L21.751,27.706z"/>
			<path fill-rule="evenodd" clip-rule="evenodd" fill="#ACAAA6" d="M21.752,27.703c0,0.805-0.612,1.457-1.366,1.457H5.377
				c-0.755,0-1.367-0.652-1.367-1.457l0,0c0-0.805,0.612-1.459,1.367-1.459h15.008C21.14,26.244,21.752,26.898,21.752,27.703
				L21.752,27.703z"/>
			<path fill-rule="evenodd" clip-rule="evenodd" fill="#AAA8A4" d="M21.753,27.699c0,0.805-0.613,1.458-1.367,1.458H5.378
				c-0.755,0-1.367-0.653-1.367-1.458l0,0c0-0.805,0.612-1.459,1.367-1.459h15.008C21.14,26.24,21.753,26.895,21.753,27.699
				L21.753,27.699z"/>
			<path fill-rule="evenodd" clip-rule="evenodd" fill="#A9A6A3" d="M21.753,27.696c0,0.805-0.612,1.457-1.366,1.457H5.379
				c-0.755,0-1.367-0.652-1.367-1.457l0,0c0-0.805,0.612-1.459,1.367-1.459h15.008C21.141,26.237,21.753,26.892,21.753,27.696
				L21.753,27.696z"/>
			<path fill-rule="evenodd" clip-rule="evenodd" fill="#A7A5A1" d="M21.754,27.693c0,0.805-0.612,1.457-1.366,1.457H5.379
				c-0.755,0-1.367-0.652-1.367-1.457l0,0c0-0.806,0.612-1.459,1.367-1.459h15.008C21.142,26.234,21.754,26.888,21.754,27.693
				L21.754,27.693z"/>
			<path fill-rule="evenodd" clip-rule="evenodd" fill="#A5A3A0" d="M21.755,27.689c0,0.805-0.613,1.457-1.367,1.457H5.38
				c-0.755,0-1.367-0.652-1.367-1.457l0,0c0-0.805,0.612-1.459,1.367-1.459h15.008C21.142,26.23,21.755,26.885,21.755,27.689
				L21.755,27.689z"/>
			<path fill-rule="evenodd" clip-rule="evenodd" fill="#A4A29E" d="M21.755,27.687c0,0.805-0.612,1.457-1.366,1.457H5.381
				c-0.755,0-1.367-0.652-1.367-1.457l0,0c0-0.806,0.612-1.459,1.367-1.459h15.008C21.143,26.228,21.755,26.881,21.755,27.687
				L21.755,27.687z"/>
			<path fill-rule="evenodd" clip-rule="evenodd" fill="#A2A09C" d="M21.756,27.683c0,0.805-0.612,1.458-1.366,1.458H5.381
				c-0.755,0-1.367-0.653-1.367-1.458l0,0c0-0.805,0.612-1.459,1.367-1.459H20.39C21.144,26.224,21.756,26.878,21.756,27.683
				L21.756,27.683z"/>
			<path fill-rule="evenodd" clip-rule="evenodd" fill="#A19E9B" d="M21.757,27.68c0,0.805-0.613,1.457-1.367,1.457H5.382
				c-0.755,0-1.367-0.652-1.367-1.457l0,0c0-0.806,0.612-1.459,1.367-1.459H20.39C21.144,26.221,21.757,26.874,21.757,27.68
				L21.757,27.68z"/>
			<path fill-rule="evenodd" clip-rule="evenodd" fill="#9F9D99" d="M21.758,27.676c0,0.805-0.613,1.458-1.367,1.458H5.383
				c-0.755,0-1.367-0.653-1.367-1.458l0,0c0-0.805,0.612-1.459,1.367-1.459h15.008C21.145,26.217,21.758,26.871,21.758,27.676
				L21.758,27.676z"/>
			<path fill-rule="evenodd" clip-rule="evenodd" fill="#9D9B98" d="M21.758,27.673c0,0.805-0.612,1.457-1.366,1.457H5.383
				c-0.755,0-1.367-0.652-1.367-1.457l0,0c0-0.805,0.612-1.459,1.367-1.459h15.008C21.146,26.214,21.758,26.868,21.758,27.673
				L21.758,27.673z"/>
			<path fill-rule="evenodd" clip-rule="evenodd" fill="#9C9996" d="M21.759,27.67c0,0.805-0.613,1.457-1.367,1.457H5.384
				c-0.755,0-1.367-0.652-1.367-1.457l0,0c0-0.806,0.612-1.459,1.367-1.459h15.008C21.146,26.211,21.759,26.864,21.759,27.67
				L21.759,27.67z"/>
			<path fill-rule="evenodd" clip-rule="evenodd" fill="#9A9895" d="M21.76,27.666c0,0.805-0.613,1.457-1.367,1.457H5.385
				c-0.755,0-1.367-0.652-1.367-1.457l0,0c0-0.805,0.612-1.459,1.367-1.459h15.008C21.146,26.207,21.76,26.861,21.76,27.666
				L21.76,27.666z"/>
			<path fill-rule="evenodd" clip-rule="evenodd" fill="#999693" d="M21.76,27.663c0,0.805-0.612,1.457-1.366,1.457H5.385
				c-0.755,0-1.367-0.652-1.367-1.457l0,0c0-0.806,0.612-1.459,1.367-1.459h15.008C21.147,26.204,21.76,26.857,21.76,27.663
				L21.76,27.663z"/>
			<path fill-rule="evenodd" clip-rule="evenodd" fill="#979591" d="M21.761,27.659c0,0.805-0.613,1.458-1.367,1.458H5.386
				c-0.755,0-1.367-0.653-1.367-1.458l0,0c0-0.805,0.612-1.459,1.367-1.459h15.008C21.147,26.2,21.761,26.854,21.761,27.659
				L21.761,27.659z"/>
			<path fill-rule="evenodd" clip-rule="evenodd" fill="#959390" d="M21.762,27.656c0,0.805-0.613,1.457-1.367,1.457H5.387
				c-0.755,0-1.367-0.652-1.367-1.457l0,0c0-0.806,0.612-1.459,1.367-1.459h15.008C21.148,26.197,21.762,26.851,21.762,27.656
				L21.762,27.656z"/>
			<path fill-rule="evenodd" clip-rule="evenodd" fill="#94918E" d="M21.762,27.652c0,0.805-0.612,1.458-1.366,1.458H5.387
				c-0.755,0-1.367-0.653-1.367-1.458l0,0c0-0.805,0.612-1.459,1.367-1.459h15.008C21.149,26.193,21.762,26.848,21.762,27.652
				L21.762,27.652z"/>
			<path fill-rule="evenodd" clip-rule="evenodd" fill="#92908D" d="M21.763,27.649c0,0.805-0.613,1.457-1.367,1.457H5.388
				c-0.755,0-1.367-0.652-1.367-1.457l0,0c0-0.805,0.612-1.459,1.367-1.459h15.007C21.149,26.19,21.763,26.845,21.763,27.649
				L21.763,27.649z"/>
			<path fill-rule="evenodd" clip-rule="evenodd" fill="#918E8B" d="M21.764,27.646c0,0.805-0.613,1.457-1.367,1.457H5.389
				c-0.755,0-1.367-0.652-1.367-1.457l0,0c0-0.806,0.612-1.459,1.367-1.459h15.008C21.15,26.188,21.764,26.841,21.764,27.646
				L21.764,27.646z"/>
			<path fill-rule="evenodd" clip-rule="evenodd" fill="#8F8D89" d="M21.764,27.643c0,0.805-0.612,1.457-1.366,1.457H5.389
				c-0.755,0-1.367-0.652-1.367-1.457l0,0c0-0.805,0.612-1.459,1.367-1.459h15.008C21.151,26.184,21.764,26.838,21.764,27.643
				L21.764,27.643z"/>
			<path fill-rule="evenodd" clip-rule="evenodd" fill="#8E8B88" d="M21.765,27.64c0,0.805-0.613,1.457-1.367,1.457H5.39
				c-0.755,0-1.367-0.652-1.367-1.457l0,0c0-0.806,0.612-1.459,1.367-1.459h15.007C21.151,26.181,21.765,26.834,21.765,27.64
				L21.765,27.64z"/>
			<path fill-rule="evenodd" clip-rule="evenodd" fill="#8C8986" d="M21.766,27.636c0,0.805-0.613,1.457-1.367,1.457H5.391
				c-0.755,0-1.367-0.652-1.367-1.457l0,0c0-0.805,0.612-1.459,1.367-1.459h15.008C21.152,26.177,21.766,26.831,21.766,27.636
				L21.766,27.636z"/>
			<path fill-rule="evenodd" clip-rule="evenodd" fill="#8A8885" d="M21.766,27.633c0,0.805-0.612,1.457-1.366,1.457H5.391
				c-0.755,0-1.367-0.652-1.367-1.457l0,0c0-0.806,0.612-1.459,1.367-1.459h15.008C21.153,26.174,21.766,26.827,21.766,27.633
				L21.766,27.633z"/>
			<path fill-rule="evenodd" clip-rule="evenodd" fill="#898683" d="M21.767,27.629c0,0.805-0.613,1.458-1.367,1.458H5.392
				c-0.755,0-1.367-0.653-1.367-1.458l0,0c0-0.805,0.612-1.459,1.367-1.459h15.007C21.153,26.17,21.767,26.824,21.767,27.629
				L21.767,27.629z"/>
			<path fill-rule="evenodd" clip-rule="evenodd" fill="#878482" d="M21.768,27.626c0,0.805-0.613,1.457-1.367,1.457H5.393
				c-0.755,0-1.367-0.652-1.367-1.457l0,0c0-0.805,0.612-1.459,1.367-1.459H20.4C21.154,26.167,21.768,26.821,21.768,27.626
				L21.768,27.626z"/>
			<path fill-rule="evenodd" clip-rule="evenodd" fill="#868380" d="M21.768,27.623c0,0.805-0.612,1.457-1.366,1.457H5.393
				c-0.755,0-1.367-0.652-1.367-1.457l0,0c0-0.806,0.612-1.459,1.367-1.459h15.008C21.155,26.164,21.768,26.817,21.768,27.623
				L21.768,27.623z"/>
			<path fill-rule="evenodd" clip-rule="evenodd" fill="#84817E" d="M21.769,27.619c0,0.805-0.613,1.457-1.367,1.457H5.394
				c-0.755,0-1.367-0.652-1.367-1.457l0,0c0-0.805,0.612-1.459,1.367-1.459h15.007C21.155,26.16,21.769,26.814,21.769,27.619
				L21.769,27.619z"/>
			<path fill-rule="evenodd" clip-rule="evenodd" fill="#82807D" d="M21.77,27.616c0,0.805-0.613,1.457-1.367,1.457H5.395
				c-0.755,0-1.367-0.652-1.367-1.457l0,0c0-0.806,0.612-1.459,1.367-1.459h15.008C21.156,26.157,21.77,26.811,21.77,27.616
				L21.77,27.616z"/>
			<path fill-rule="evenodd" clip-rule="evenodd" fill="#817E7B" d="M21.771,27.612c0,0.805-0.613,1.457-1.367,1.457H5.395
				c-0.755,0-1.367-0.652-1.367-1.457l0,0c0-0.805,0.612-1.459,1.367-1.459h15.008C21.157,26.153,21.771,26.808,21.771,27.612
				L21.771,27.612z"/>
			<path fill-rule="evenodd" clip-rule="evenodd" fill="#7F7C7A" d="M21.771,27.609c0,0.805-0.613,1.457-1.367,1.457H5.396
				c-0.755,0-1.367-0.652-1.367-1.457l0,0c0-0.806,0.612-1.459,1.367-1.459h15.007C21.157,26.15,21.771,26.804,21.771,27.609
				L21.771,27.609z"/>
			<path fill-rule="evenodd" clip-rule="evenodd" fill="#7E7B78" d="M21.771,27.605c0,0.805-0.613,1.457-1.367,1.457H5.396
				c-0.755,0-1.367-0.652-1.367-1.457l0,0c0-0.805,0.612-1.459,1.367-1.459h15.008C21.158,26.146,21.771,26.801,21.771,27.605
				L21.771,27.605z"/>
			<path fill-rule="evenodd" clip-rule="evenodd" fill="#7C7977" d="M21.772,27.603c0,0.805-0.613,1.457-1.367,1.457H5.397
				c-0.755,0-1.367-0.652-1.367-1.457l0,0c0-0.805,0.612-1.459,1.367-1.459h15.008C21.159,26.144,21.772,26.798,21.772,27.603
				L21.772,27.603z"/>
			<path fill-rule="evenodd" clip-rule="evenodd" fill="#7A7875" d="M21.772,27.6c0,0.805-0.613,1.457-1.367,1.457H5.398
				c-0.755,0-1.367-0.652-1.367-1.457l0,0c0-0.806,0.612-1.459,1.367-1.459h15.007C21.159,26.141,21.772,26.794,21.772,27.6
				L21.772,27.6z"/>
			<path fill-rule="evenodd" clip-rule="evenodd" fill="#797673" d="M21.773,27.596c0,0.805-0.613,1.457-1.367,1.457H5.398
				c-0.755,0-1.367-0.652-1.367-1.457l0,0c0-0.805,0.612-1.459,1.367-1.459h15.008C21.16,26.137,21.773,26.791,21.773,27.596
				L21.773,27.596z"/>
			<path fill-rule="evenodd" clip-rule="evenodd" fill="#777472" d="M21.774,27.593c0,0.805-0.613,1.457-1.367,1.457H5.399
				c-0.755,0-1.367-0.652-1.367-1.457l0,0c0-0.806,0.612-1.459,1.367-1.459h15.008C21.161,26.134,21.774,26.787,21.774,27.593
				L21.774,27.593z"/>
			<path fill-rule="evenodd" clip-rule="evenodd" fill="#767370" d="M21.774,27.589c0,0.805-0.613,1.457-1.367,1.457H5.4
				c-0.755,0-1.367-0.652-1.367-1.457l0,0c0-0.805,0.612-1.459,1.367-1.459h15.007C21.161,26.13,21.774,26.784,21.774,27.589
				L21.774,27.589z"/>
			<path fill-rule="evenodd" clip-rule="evenodd" fill="#74716F" d="M21.775,27.586c0,0.805-0.613,1.457-1.367,1.457H5.4
				c-0.755,0-1.367-0.652-1.367-1.457l0,0c0-0.806,0.612-1.459,1.367-1.459h15.008C21.162,26.127,21.775,26.78,21.775,27.586
				L21.775,27.586z"/>
			<path fill-rule="evenodd" clip-rule="evenodd" fill="#736F6D" d="M21.776,27.582c0,0.805-0.613,1.457-1.367,1.457H5.401
				c-0.755,0-1.367-0.652-1.367-1.457l0,0c0-0.805,0.612-1.459,1.367-1.459h15.008C21.163,26.123,21.776,26.777,21.776,27.582
				L21.776,27.582z"/>
			<path fill-rule="evenodd" clip-rule="evenodd" fill="#716E6B" d="M21.776,27.579c0,0.805-0.613,1.457-1.367,1.457H5.402
				c-0.755,0-1.367-0.652-1.367-1.457l0,0c0-0.806,0.612-1.459,1.367-1.459h15.007C21.163,26.12,21.776,26.773,21.776,27.579
				L21.776,27.579z"/>
			<path fill-rule="evenodd" clip-rule="evenodd" fill="#6F6C6A" d="M21.777,27.576c0,0.805-0.613,1.457-1.367,1.457H5.402
				c-0.755,0-1.367-0.652-1.367-1.457l0,0c0-0.806,0.612-1.459,1.367-1.459H20.41C21.164,26.117,21.777,26.771,21.777,27.576
				L21.777,27.576z"/>
			<path fill-rule="evenodd" clip-rule="evenodd" fill="#6E6B68" d="M21.778,27.572c0,0.805-0.613,1.457-1.367,1.457H5.403
				c-0.755,0-1.367-0.652-1.367-1.457l0,0c0-0.805,0.612-1.459,1.367-1.459h15.008C21.165,26.113,21.778,26.768,21.778,27.572
				L21.778,27.572z"/>
			<path fill-rule="evenodd" clip-rule="evenodd" fill="#6C6967" d="M21.778,27.569c0,0.805-0.613,1.457-1.367,1.457H5.404
				c-0.755,0-1.367-0.652-1.367-1.457l0,0c0-0.806,0.612-1.459,1.367-1.459h15.007C21.165,26.11,21.778,26.764,21.778,27.569
				L21.778,27.569z"/>
			<path fill-rule="evenodd" clip-rule="evenodd" fill="#6B6765" d="M21.779,27.565c0,0.805-0.613,1.457-1.367,1.457H5.404
				c-0.755,0-1.367-0.652-1.367-1.457l0,0c0-0.805,0.612-1.459,1.367-1.459h15.008C21.166,26.106,21.779,26.761,21.779,27.565
				L21.779,27.565z"/>
			<path fill-rule="evenodd" clip-rule="evenodd" fill="#696664" d="M21.78,27.563c0,0.805-0.613,1.457-1.367,1.457H5.405
				c-0.755,0-1.367-0.652-1.367-1.457l0,0c0-0.806,0.612-1.459,1.367-1.459h15.008C21.167,26.104,21.78,26.757,21.78,27.563
				L21.78,27.563z"/>
			<path fill-rule="evenodd" clip-rule="evenodd" fill="#676462" d="M21.781,27.559c0,0.805-0.614,1.457-1.368,1.457H5.406
				c-0.755,0-1.367-0.652-1.367-1.457l0,0c0-0.805,0.612-1.459,1.367-1.459h15.007C21.167,26.1,21.781,26.754,21.781,27.559
				L21.781,27.559z"/>
			<path fill-rule="evenodd" clip-rule="evenodd" fill="#666360" d="M21.781,27.556c0,0.805-0.613,1.457-1.367,1.457H5.406
				c-0.755,0-1.367-0.652-1.367-1.457l0,0c0-0.806,0.612-1.459,1.367-1.459h15.008C21.168,26.097,21.781,26.75,21.781,27.556
				L21.781,27.556z"/>
			<path fill-rule="evenodd" clip-rule="evenodd" fill="#64615F" d="M21.782,27.553c0,0.805-0.613,1.456-1.367,1.456H5.407
				c-0.755,0-1.367-0.651-1.367-1.456l0,0c0-0.806,0.612-1.459,1.367-1.459h15.008C21.169,26.094,21.782,26.747,21.782,27.553
				L21.782,27.553z"/>
			<path fill-rule="evenodd" clip-rule="evenodd" fill="#635F5D" d="M21.783,27.549c0,0.805-0.614,1.457-1.368,1.457H5.408
				c-0.755,0-1.367-0.652-1.367-1.457l0,0c0-0.805,0.612-1.459,1.367-1.459h15.007C21.169,26.09,21.783,26.744,21.783,27.549
				L21.783,27.549z"/>
			<path fill-rule="evenodd" clip-rule="evenodd" fill="#615E5C" d="M21.783,27.546c0,0.805-0.613,1.457-1.367,1.457H5.408
				c-0.755,0-1.367-0.652-1.367-1.457l0,0c0-0.806,0.612-1.459,1.367-1.459h15.008C21.17,26.087,21.783,26.74,21.783,27.546
				L21.783,27.546z"/>
			<path fill-rule="evenodd" clip-rule="evenodd" fill="#5F5C5A" d="M21.784,27.542c0,0.805-0.613,1.457-1.367,1.457H5.409
				c-0.755,0-1.367-0.652-1.367-1.457l0,0c0-0.805,0.612-1.459,1.367-1.459h15.008C21.171,26.083,21.784,26.737,21.784,27.542
				L21.784,27.542z"/>
			<path fill-rule="evenodd" clip-rule="evenodd" fill="#5E5A59" d="M21.785,27.539c0,0.805-0.614,1.457-1.368,1.457H5.41
				c-0.755,0-1.367-0.652-1.367-1.457l0,0c0-0.806,0.612-1.459,1.367-1.459h15.007C21.171,26.08,21.785,26.733,21.785,27.539
				L21.785,27.539z"/>
			<path fill-rule="evenodd" clip-rule="evenodd" fill="#5C5957" d="M21.785,27.535c0,0.805-0.613,1.457-1.367,1.457H5.41
				c-0.755,0-1.367-0.652-1.367-1.457l0,0c0-0.805,0.612-1.459,1.367-1.459h15.008C21.172,26.076,21.785,26.73,21.785,27.535
				L21.785,27.535z"/>
			<path fill-rule="evenodd" clip-rule="evenodd" fill="#5B5755" d="M21.786,27.532c0,0.805-0.613,1.457-1.367,1.457H5.411
				c-0.755,0-1.367-0.652-1.367-1.457l0,0c0-0.806,0.612-1.459,1.367-1.459h15.008C21.173,26.073,21.786,26.727,21.786,27.532
				L21.786,27.532z"/>
			<path fill-rule="evenodd" clip-rule="evenodd" fill="#595654" d="M21.787,27.529c0,0.805-0.614,1.456-1.368,1.456H5.412
				c-0.755,0-1.367-0.651-1.367-1.456l0,0c0-0.806,0.612-1.459,1.367-1.459h15.007C21.173,26.07,21.787,26.724,21.787,27.529
				L21.787,27.529z"/>
			<path fill-rule="evenodd" clip-rule="evenodd" fill="#585452" d="M21.787,27.525c0,0.805-0.613,1.457-1.367,1.457H5.412
				c-0.755,0-1.367-0.652-1.367-1.457l0,0c0-0.805,0.612-1.459,1.367-1.459H20.42C21.174,26.066,21.787,26.721,21.787,27.525
				L21.787,27.525z"/>
			<path fill-rule="evenodd" clip-rule="evenodd" fill="#565251" d="M21.788,27.522c0,0.805-0.613,1.456-1.367,1.456H5.413
				c-0.756,0-1.367-0.651-1.367-1.456l0,0c0-0.806,0.611-1.459,1.367-1.459h15.008C21.175,26.063,21.788,26.717,21.788,27.522
				L21.788,27.522z"/>
			<path fill-rule="evenodd" clip-rule="evenodd" fill="#54514F" d="M21.789,27.519c0,0.805-0.614,1.457-1.368,1.457H5.414
				c-0.755,0-1.367-0.652-1.367-1.457l0,0c0-0.805,0.612-1.459,1.367-1.459h15.007C21.175,26.06,21.789,26.714,21.789,27.519
				L21.789,27.519z"/>
			<path fill-rule="evenodd" clip-rule="evenodd" fill="#534F4D" d="M21.789,27.516c0,0.805-0.613,1.457-1.367,1.457H5.414
				c-0.755,0-1.367-0.652-1.367-1.457l0,0c0-0.806,0.612-1.459,1.367-1.459h15.008C21.176,26.057,21.789,26.71,21.789,27.516
				L21.789,27.516z"/>
			<path fill-rule="evenodd" clip-rule="evenodd" fill="#514E4C" d="M21.79,27.512c0,0.805-0.613,1.457-1.367,1.457H5.415
				c-0.756,0-1.367-0.652-1.367-1.457l0,0c0-0.805,0.611-1.459,1.367-1.459h15.008C21.177,26.053,21.79,26.707,21.79,27.512
				L21.79,27.512z"/>
			<path fill-rule="evenodd" clip-rule="evenodd" fill="#504C4A" d="M21.791,27.509c0,0.805-0.614,1.457-1.368,1.457H5.416
				c-0.755,0-1.367-0.652-1.367-1.457l0,0c0-0.806,0.612-1.459,1.367-1.459h15.007C21.177,26.05,21.791,26.703,21.791,27.509
				L21.791,27.509z"/>
			<path fill-rule="evenodd" clip-rule="evenodd" fill="#4E4A49" d="M21.791,27.506c0,0.805-0.613,1.456-1.367,1.456H5.416
				c-0.755,0-1.367-0.651-1.367-1.456l0,0c0-0.806,0.612-1.459,1.367-1.459h15.008C21.178,26.047,21.791,26.7,21.791,27.506
				L21.791,27.506z"/>
			<path fill-rule="evenodd" clip-rule="evenodd" fill="#4C4947" d="M21.792,27.502c0,0.805-0.613,1.457-1.367,1.457H5.417
				c-0.756,0-1.367-0.652-1.367-1.457l0,0c0-0.805,0.611-1.459,1.367-1.459h15.008C21.179,26.043,21.792,26.697,21.792,27.502
				L21.792,27.502z"/>
			<path fill-rule="evenodd" clip-rule="evenodd" fill="#4B4746" d="M21.793,27.499c0,0.805-0.614,1.456-1.368,1.456H5.417
				c-0.755,0-1.367-0.651-1.367-1.456l0,0c0-0.806,0.612-1.459,1.367-1.459h15.007C21.179,26.04,21.793,26.693,21.793,27.499
				L21.793,27.499z"/>
			<path fill-rule="evenodd" clip-rule="evenodd" fill="#494544" d="M21.794,27.495c0,0.805-0.614,1.457-1.368,1.457H5.418
				c-0.755,0-1.367-0.652-1.367-1.457l0,0c0-0.805,0.612-1.459,1.367-1.459h15.008C21.18,26.036,21.794,26.69,21.794,27.495
				L21.794,27.495z"/>
			<path fill-rule="evenodd" clip-rule="evenodd" fill="#484442" d="M21.794,27.492c0,0.805-0.613,1.457-1.367,1.457H5.419
				c-0.756,0-1.367-0.652-1.367-1.457l0,0c0-0.806,0.611-1.459,1.367-1.459h15.008C21.181,26.033,21.794,26.687,21.794,27.492
				L21.794,27.492z"/>
			<path fill-rule="evenodd" clip-rule="evenodd" fill="#464241" d="M21.795,27.488c0,0.805-0.614,1.457-1.368,1.457H5.419
				c-0.755,0-1.367-0.652-1.367-1.457l0,0c0-0.805,0.612-1.459,1.367-1.459h15.007C21.181,26.029,21.795,26.684,21.795,27.488
				L21.795,27.488z"/>
			<path fill-rule="evenodd" clip-rule="evenodd" fill="#44413F" d="M21.796,27.485c0,0.805-0.614,1.457-1.368,1.457H5.42
				c-0.755,0-1.367-0.652-1.367-1.457l0,0c0-0.806,0.612-1.459,1.367-1.459h15.008C21.182,26.026,21.796,26.68,21.796,27.485
				L21.796,27.485z"/>
			<path fill-rule="evenodd" clip-rule="evenodd" fill="#433F3E" d="M21.796,27.482c0,0.805-0.613,1.456-1.367,1.456H5.421
				c-0.756,0-1.367-0.651-1.367-1.456l0,0c0-0.806,0.611-1.459,1.367-1.459h15.008C21.183,26.023,21.796,26.677,21.796,27.482
				L21.796,27.482z"/>
			<path fill-rule="evenodd" clip-rule="evenodd" fill="#413D3C" d="M21.797,27.479c0,0.805-0.614,1.457-1.368,1.457H5.421
				c-0.755,0-1.367-0.652-1.367-1.457l0,0c0-0.806,0.612-1.459,1.367-1.459h15.007C21.183,26.02,21.797,26.673,21.797,27.479
				L21.797,27.479z"/>
			<path fill-rule="evenodd" clip-rule="evenodd" fill="#403C3A" d="M21.798,27.476c0,0.805-0.614,1.456-1.368,1.456H5.422
				c-0.755,0-1.367-0.651-1.367-1.456l0,0c0-0.806,0.612-1.459,1.367-1.459H20.43C21.184,26.017,21.798,26.67,21.798,27.476
				L21.798,27.476z"/>
			<path fill-rule="evenodd" clip-rule="evenodd" fill="#3E3A39" d="M21.798,27.472c0,0.805-0.613,1.457-1.367,1.457H5.423
				c-0.756,0-1.367-0.652-1.367-1.457l0,0c0-0.805,0.611-1.459,1.367-1.459h15.008C21.185,26.013,21.798,26.667,21.798,27.472
				L21.798,27.472z"/>
			<path fill-rule="evenodd" clip-rule="evenodd" fill="#3D3937" d="M21.799,27.469c0,0.805-0.613,1.456-1.367,1.456H5.423
				c-0.756,0-1.367-0.651-1.367-1.456l0,0c0-0.806,0.611-1.459,1.367-1.459h15.008C21.186,26.01,21.799,26.663,21.799,27.469
				L21.799,27.469z"/>
			<path fill-rule="evenodd" clip-rule="evenodd" fill="#3B3736" d="M21.8,27.466c0,0.805-0.614,1.456-1.368,1.456H5.424
				c-0.755,0-1.367-0.651-1.367-1.456l0,0c0-0.806,0.612-1.459,1.367-1.459h15.008C21.186,26.007,21.8,26.66,21.8,27.466
				L21.8,27.466z"/>
			<path fill-rule="evenodd" clip-rule="evenodd" fill="#393534" d="M21.8,27.462c0,0.805-0.613,1.457-1.367,1.457H5.425
				c-0.756,0-1.367-0.652-1.367-1.457l0,0c0-0.806,0.611-1.459,1.367-1.459h15.008C21.187,26.003,21.8,26.656,21.8,27.462
				L21.8,27.462z"/>
			<path fill-rule="evenodd" clip-rule="evenodd" fill="#383433" d="M21.801,27.459c0,0.805-0.613,1.456-1.367,1.456H5.425
				c-0.756,0-1.367-0.651-1.367-1.456l0,0C4.058,26.653,4.669,26,5.425,26h15.008C21.188,26,21.801,26.653,21.801,27.459
				L21.801,27.459z"/>
			<path fill-rule="evenodd" clip-rule="evenodd" fill="#363231" d="M21.802,27.455c0,0.805-0.614,1.457-1.368,1.457H5.426
				c-0.755,0-1.367-0.652-1.367-1.457l0,0c0-0.806,0.612-1.459,1.367-1.459h15.008C21.188,25.996,21.802,26.649,21.802,27.455
				L21.802,27.455z"/>
			<path fill-rule="evenodd" clip-rule="evenodd" fill="#35302F" d="M21.802,27.452c0,0.805-0.613,1.456-1.367,1.456H5.427
				c-0.756,0-1.367-0.651-1.367-1.456l0,0c0-0.806,0.611-1.459,1.367-1.459h15.008C21.188,25.993,21.802,26.646,21.802,27.452
				L21.802,27.452z"/>
			<path fill-rule="evenodd" clip-rule="evenodd" fill="#332F2E" d="M21.803,27.448c0,0.805-0.613,1.457-1.367,1.457H5.427
				c-0.756,0-1.367-0.652-1.367-1.457l0,0c0-0.805,0.611-1.459,1.367-1.459h15.008C21.189,25.989,21.803,26.644,21.803,27.448
				L21.803,27.448z"/>
			<path fill-rule="evenodd" clip-rule="evenodd" fill="#312D2C" d="M21.804,27.445c0,0.805-0.614,1.456-1.368,1.456H5.428
				c-0.755,0-1.367-0.651-1.367-1.456l0,0c0-0.806,0.612-1.459,1.367-1.459h15.008C21.189,25.986,21.804,26.64,21.804,27.445
				L21.804,27.445z"/>
			<path fill-rule="evenodd" clip-rule="evenodd" fill="#302C2B" d="M21.804,27.442c0,0.805-0.613,1.456-1.367,1.456H5.429
				c-0.756,0-1.367-0.651-1.367-1.456l0,0c0-0.806,0.611-1.459,1.367-1.459h15.008C21.19,25.983,21.804,26.637,21.804,27.442
				L21.804,27.442z"/>
			<path fill-rule="evenodd" clip-rule="evenodd" fill="#2E2A29" d="M21.805,27.438c0,0.805-0.613,1.456-1.367,1.456H5.429
				c-0.756,0-1.367-0.651-1.367-1.456l0,0c0-0.806,0.611-1.459,1.367-1.459h15.008C21.191,25.979,21.805,26.633,21.805,27.438
				L21.805,27.438z"/>
			<path fill-rule="evenodd" clip-rule="evenodd" fill="#2D2828" d="M21.806,27.436c0,0.805-0.614,1.456-1.368,1.456H5.43
				c-0.755,0-1.367-0.651-1.367-1.456l0,0c0-0.806,0.612-1.459,1.367-1.459h15.008C21.191,25.977,21.806,26.63,21.806,27.436
				L21.806,27.436z"/>
			<path fill-rule="evenodd" clip-rule="evenodd" fill="#2B2726" d="M21.807,27.432c0,0.805-0.614,1.457-1.368,1.457H5.431
				c-0.756,0-1.367-0.652-1.367-1.457l0,0c0-0.806,0.611-1.459,1.367-1.459h15.008C21.192,25.973,21.807,26.626,21.807,27.432
				L21.807,27.432z"/>
			<path fill-rule="evenodd" clip-rule="evenodd" fill="#2A2524" d="M21.807,27.429c0,0.805-0.613,1.456-1.367,1.456H5.431
				c-0.756,0-1.367-0.651-1.367-1.456l0,0c0-0.806,0.611-1.459,1.367-1.459h15.008C21.193,25.97,21.807,26.623,21.807,27.429
				L21.807,27.429z"/>
			<path fill-rule="evenodd" clip-rule="evenodd" fill="#282423" d="M21.808,27.425c0,0.805-0.614,1.457-1.368,1.457H5.432
				c-0.755,0-1.367-0.652-1.367-1.457l0,0c0-0.805,0.612-1.459,1.367-1.459h15.008C21.193,25.966,21.808,26.62,21.808,27.425
				L21.808,27.425z"/>
			<path fill-rule="evenodd" clip-rule="evenodd" fill="#262221" d="M21.809,27.422c0,0.805-0.614,1.456-1.368,1.456H5.433
				c-0.756,0-1.367-0.651-1.367-1.456l0,0c0-0.806,0.611-1.459,1.367-1.459H20.44C21.194,25.963,21.809,26.616,21.809,27.422
				L21.809,27.422z"/>
			<path fill-rule="evenodd" clip-rule="evenodd" fill="#252020" d="M21.809,27.419c0,0.805-0.613,1.456-1.367,1.456H5.433
				c-0.756,0-1.367-0.651-1.367-1.456l0,0c0-0.806,0.611-1.459,1.367-1.459h15.008C21.195,25.96,21.809,26.613,21.809,27.419
				L21.809,27.419z"/>
			<path fill-rule="evenodd" clip-rule="evenodd" fill="#231F1E" d="M21.81,27.415c0,0.805-0.614,1.456-1.368,1.456H5.434
				c-0.755,0-1.367-0.651-1.367-1.456l0,0c0-0.806,0.612-1.459,1.367-1.459h15.008C21.195,25.956,21.81,26.609,21.81,27.415
				L21.81,27.415z"/>
			<path fill-rule="evenodd" clip-rule="evenodd" fill="#221D1C" d="M21.811,27.412c0,0.805-0.614,1.456-1.368,1.456H5.435
				c-0.756,0-1.367-0.651-1.367-1.456l0,0c0-0.806,0.611-1.459,1.367-1.459h15.008C21.196,25.953,21.811,26.606,21.811,27.412
				L21.811,27.412z"/>
			<path fill-rule="evenodd" clip-rule="evenodd" fill="#201B1B" d="M21.811,27.408c0,0.805-0.613,1.456-1.367,1.456H5.435
				c-0.756,0-1.367-0.651-1.367-1.456l0,0c0-0.806,0.611-1.459,1.367-1.459h15.008C21.197,25.949,21.811,26.603,21.811,27.408
				L21.811,27.408z"/>
			<path fill-rule="evenodd" clip-rule="evenodd" fill="#1E1A19" d="M21.812,27.405c0,0.805-0.614,1.456-1.368,1.456H5.436
				c-0.756,0-1.367-0.651-1.367-1.456l0,0c0-0.806,0.611-1.459,1.367-1.459h15.007C21.197,25.946,21.812,26.6,21.812,27.405
				L21.812,27.405z"/>
			<path fill-rule="evenodd" clip-rule="evenodd" fill="#1D1818" d="M21.813,27.401c0,0.805-0.614,1.457-1.368,1.457H5.437
				c-0.756,0-1.367-0.652-1.367-1.457l0,0c0-0.805,0.611-1.459,1.367-1.459h15.008C21.198,25.942,21.813,26.597,21.813,27.401
				L21.813,27.401z"/>
			<path fill-rule="evenodd" clip-rule="evenodd" fill="#1B1716" d="M21.813,27.398c0,0.805-0.613,1.456-1.367,1.456H5.437
				c-0.756,0-1.367-0.651-1.367-1.456l0,0c0-0.806,0.611-1.459,1.367-1.459h15.008C21.199,25.939,21.813,26.593,21.813,27.398
				L21.813,27.398z"/>
			<path fill-rule="evenodd" clip-rule="evenodd" fill="#1A1515" d="M21.813,27.396c0,0.805-0.614,1.456-1.368,1.456H5.438
				c-0.756,0-1.367-0.651-1.367-1.456l0,0c0-0.806,0.611-1.459,1.367-1.459h15.007C21.199,25.937,21.813,26.59,21.813,27.396
				L21.813,27.396z"/>
			<path fill-rule="evenodd" clip-rule="evenodd" fill="#181313" d="M21.814,27.392c0,0.805-0.614,1.456-1.368,1.456H5.438
				c-0.756,0-1.367-0.651-1.367-1.456l0,0c0-0.806,0.611-1.459,1.367-1.459h15.008C21.2,25.933,21.814,26.586,21.814,27.392
				L21.814,27.392z"/>
			<path fill-rule="evenodd" clip-rule="evenodd" fill="#161211" d="M21.814,27.389c0,0.805-0.613,1.456-1.367,1.456H5.439
				c-0.756,0-1.367-0.651-1.367-1.456l0,0c0-0.806,0.611-1.459,1.367-1.459h15.008C21.201,25.93,21.814,26.583,21.814,27.389
				L21.814,27.389z"/>
			<path fill-rule="evenodd" clip-rule="evenodd" fill="#151010" d="M21.815,27.385c0,0.805-0.614,1.456-1.368,1.456H5.44
				c-0.756,0-1.367-0.651-1.367-1.456l0,0c0-0.806,0.611-1.459,1.367-1.459h15.007C21.201,25.926,21.815,26.579,21.815,27.385
				L21.815,27.385z"/>
			<path fill-rule="evenodd" clip-rule="evenodd" fill="#130F0E" d="M21.816,27.382c0,0.805-0.614,1.456-1.368,1.456H5.44
				c-0.756,0-1.367-0.651-1.367-1.456l0,0c0-0.806,0.611-1.459,1.367-1.459h15.008C21.202,25.923,21.816,26.576,21.816,27.382
				L21.816,27.382z"/>
			<path fill-rule="evenodd" clip-rule="evenodd" fill="#120D0D" d="M21.817,27.378c0,0.805-0.614,1.457-1.368,1.457H5.441
				c-0.756,0-1.367-0.652-1.367-1.457l0,0c0-0.806,0.611-1.459,1.367-1.459h15.008C21.203,25.919,21.817,26.572,21.817,27.378
				L21.817,27.378z"/>
			<path fill-rule="evenodd" clip-rule="evenodd" fill="#100B0B" d="M21.817,27.375c0,0.805-0.614,1.456-1.368,1.456H5.442
				c-0.756,0-1.367-0.651-1.367-1.456l0,0c0-0.806,0.611-1.459,1.367-1.459h15.007C21.203,25.916,21.817,26.569,21.817,27.375
				L21.817,27.375z"/>
			<path fill-rule="evenodd" clip-rule="evenodd" fill="#0F0A09" d="M21.818,27.372c0,0.805-0.614,1.456-1.368,1.456H5.442
				c-0.756,0-1.367-0.651-1.367-1.456l0,0c0-0.806,0.611-1.459,1.367-1.459H20.45C21.204,25.913,21.818,26.566,21.818,27.372
				L21.818,27.372z"/>
			<path fill-rule="evenodd" clip-rule="evenodd" fill="#0D0808" d="M21.819,27.368c0,0.805-0.614,1.456-1.368,1.456H5.443
				c-0.756,0-1.367-0.651-1.367-1.456l0,0c0-0.806,0.611-1.459,1.367-1.459h15.008C21.205,25.909,21.819,26.563,21.819,27.368
				L21.819,27.368z"/>
			<path fill-rule="evenodd" clip-rule="evenodd" fill="#0B0606" d="M21.819,27.365c0,0.805-0.614,1.456-1.368,1.456H5.444
				c-0.756,0-1.367-0.651-1.367-1.456l0,0c0-0.806,0.611-1.459,1.367-1.459h15.007C21.205,25.906,21.819,26.56,21.819,27.365
				L21.819,27.365z"/>
			<path fill-rule="evenodd" clip-rule="evenodd" fill="#0A0505" d="M21.82,27.361c0,0.805-0.614,1.456-1.368,1.456H5.444
				c-0.756,0-1.367-0.651-1.367-1.456l0,0c0-0.806,0.611-1.459,1.367-1.459h15.008C21.206,25.902,21.82,26.556,21.82,27.361
				L21.82,27.361z"/>
			<path fill-rule="evenodd" clip-rule="evenodd" fill="#080303" d="M21.821,27.358c0,0.805-0.614,1.456-1.368,1.456H5.445
				c-0.756,0-1.367-0.651-1.367-1.456l0,0c0-0.806,0.611-1.459,1.367-1.459h15.008C21.207,25.899,21.821,26.553,21.821,27.358
				L21.821,27.358z"/>
			<path fill-rule="evenodd" clip-rule="evenodd" fill="#070202" d="M21.821,27.354c0,0.805-0.614,1.456-1.368,1.456H5.446
				c-0.756,0-1.367-0.651-1.367-1.456l0,0c0-0.806,0.611-1.459,1.367-1.459h15.007C21.207,25.896,21.821,26.549,21.821,27.354
				L21.821,27.354z"/>
			<path fill-rule="evenodd" clip-rule="evenodd" fill="#050000" d="M21.822,27.352c0,0.805-0.614,1.456-1.368,1.456H5.446
				c-0.756,0-1.367-0.651-1.367-1.456l0,0c0-0.806,0.611-1.459,1.367-1.459h15.008C21.208,25.893,21.822,26.546,21.822,27.352
				L21.822,27.352z"/>
		</g>
		<g>
			<path fill-rule="evenodd" clip-rule="evenodd" fill="#050000" d="M20.518,27.885c0,0.804-0.607,1.458-1.355,1.458H4.278
				c-0.747,0-1.354-0.654-1.354-1.458l0,0c0-0.806,0.607-1.459,1.354-1.459h14.884C19.91,26.426,20.518,27.079,20.518,27.885
				L20.518,27.885z"/>
		</g>
		<path fill="#3D3A39" d="M20.861,28.869c0.495-0.049,0.899-0.526,0.899-1.064V7.323c0-0.537-0.404-0.938-0.899-0.893L3.73,6.785
			C3.235,6.832,2.832,7.311,2.832,7.85v20.481c0,0.537,0.403,0.938,0.898,0.891L20.861,28.869z"/>
		<g>
			
				<linearGradient id="SVGID_2_" gradientUnits="userSpaceOnUse" x1="4.6499" y1="11.8647" x2="6.4153" y2="35.0604" gradientTransform="matrix(0.9995 0.0301 -0.0312 1.0332 8.3914 -7.1152)">
				<stop  offset="0" style="stop-color:#918F8F"/>
				<stop  offset="1" style="stop-color:#94ADBE"/>
				<a:midPointStop  offset="0" style="stop-color:#918F8F"/>
				<a:midPointStop  offset="0.497" style="stop-color:#918F8F"/>
				<a:midPointStop  offset="1" style="stop-color:#94ADBE"/>
			</linearGradient>
			<path fill="url(#SVGID_2_)" d="M20.326,28.662c-0.006,0.189-0.148,0.34-0.316,0.335L5.598,28.622
				c-0.168-0.005-0.299-0.163-0.293-0.352L6.054,5.926c0.005-0.187,0.147-0.34,0.315-0.335l14.412,0.375
				c0.168,0.006,0.3,0.163,0.293,0.353L20.326,28.662z"/>
			
				<linearGradient id="SVGID_3_" gradientUnits="userSpaceOnUse" x1="18.9033" y1="18.6367" x2="18.9033" y2="-3.6094" gradientTransform="matrix(0.9976 -0.0687 0.0687 0.9976 -5.8397 10.564)">
				<stop  offset="0" style="stop-color:#807D7D"/>
				<stop  offset="0.2985" style="stop-color:#817F80"/>
				<stop  offset="0.5195" style="stop-color:#85868A"/>
				<stop  offset="0.7157" style="stop-color:#8A939A"/>
				<stop  offset="0.8963" style="stop-color:#93A4B0"/>
				<stop  offset="1" style="stop-color:#99B1C1"/>
				<a:midPointStop  offset="0" style="stop-color:#807D7D"/>
				<a:midPointStop  offset="0.7647" style="stop-color:#807D7D"/>
				<a:midPointStop  offset="1" style="stop-color:#99B1C1"/>
			</linearGradient>
			<path fill="url(#SVGID_3_)" d="M21.716,26.992c0.011,0.182-0.115,0.34-0.28,0.353L7.134,28.351
				c-0.166,0.012-0.31-0.127-0.323-0.31L5.354,6.529c-0.012-0.184,0.115-0.341,0.28-0.353l14.302-1.006
				c0.166-0.012,0.313,0.127,0.323,0.31L21.716,26.992z"/>
			
				<linearGradient id="SVGID_4_" gradientUnits="userSpaceOnUse" x1="5.9785" y1="13.4141" x2="21.0778" y2="13.6776" gradientTransform="matrix(0.9946 -0.1036 0.1036 0.9946 -1.6676 5.0641)">
				<stop  offset="0" style="stop-color:#BFCED8"/>
				<stop  offset="1" style="stop-color:#F8F7F7"/>
				<a:midPointStop  offset="0" style="stop-color:#BFCED8"/>
				<a:midPointStop  offset="0.503" style="stop-color:#BFCED8"/>
				<a:midPointStop  offset="1" style="stop-color:#F8F7F7"/>
			</linearGradient>
			<path fill="url(#SVGID_4_)" d="M21.624,27.013c0.018,0.181-0.104,0.343-0.268,0.362L7.192,28.942
				c-0.164,0.018-0.313-0.114-0.332-0.296L4.757,7.258C4.739,7.076,4.858,6.914,5.023,6.895l14.164-1.566
				c0.164-0.021,0.313,0.115,0.332,0.296L21.624,27.013z"/>
		</g>
		
			<linearGradient id="SVGID_5_" gradientUnits="userSpaceOnUse" x1="4.085" y1="22.791" x2="21.7471" y2="22.791" gradientTransform="matrix(1 0.0176 0 1 -1.2529 -4.6864)">
			<stop  offset="0" style="stop-color:#159342"/>
			<stop  offset="0.8" style="stop-color:#026736"/>
			<stop  offset="1" style="stop-color:#006435"/>
			<a:midPointStop  offset="0" style="stop-color:#159342"/>
			<a:midPointStop  offset="0.5" style="stop-color:#159342"/>
			<a:midPointStop  offset="0.8" style="stop-color:#026736"/>
			<a:midPointStop  offset="0.5" style="stop-color:#026736"/>
			<a:midPointStop  offset="1" style="stop-color:#006435"/>
		</linearGradient>
		<path fill="url(#SVGID_5_)" d="M20.494,28.42c0,0.535-0.438,0.968-0.975,0.959H6.395H5.813H5.487H4.904H4.58H3.996H3.807
			c-0.535-0.011-0.975-0.451-0.975-0.987V7.967c0-0.538,0.439-0.969,0.975-0.959l0.189,0.005L4.58,7.021l0.324,0.006l0.583,0.011
			l0.325,0.006l0.582,0.01L19.52,7.284c0.536,0.011,0.975,0.457,0.975,0.992V28.42z"/>
		
			<linearGradient id="SVGID_6_" gradientUnits="userSpaceOnUse" x1="6.1572" y1="22.7813" x2="6.7402" y2="22.7813" gradientTransform="matrix(1 0.0176 0 1 -1.2529 -4.6864)">
			<stop  offset="0" style="stop-color:#159342"/>
			<stop  offset="0.8" style="stop-color:#026736"/>
			<stop  offset="1" style="stop-color:#006435"/>
			<a:midPointStop  offset="0" style="stop-color:#159342"/>
			<a:midPointStop  offset="0.5" style="stop-color:#159342"/>
			<a:midPointStop  offset="0.8" style="stop-color:#026736"/>
			<a:midPointStop  offset="0.5" style="stop-color:#026736"/>
			<a:midPointStop  offset="1" style="stop-color:#006435"/>
		</linearGradient>
		<polygon fill="url(#SVGID_6_)" points="5.487,29.379 4.904,29.379 4.904,7.026 5.487,7.037 		"/>
		<path fill-rule="evenodd" clip-rule="evenodd" fill="#FFFFFF"  a:adobe-blending-mode="overlay" d="M5.813,29.372V7.078h0.002
			V7.043c0.083,0.005,0.179,0.005,0.253,0.005L6.732,7.06v22.319H6.051C6.019,29.379,5.928,29.377,5.813,29.372z"/>
		<g>
			
				<linearGradient id="SVGID_7_" gradientUnits="userSpaceOnUse" x1="-87.7021" y1="-121.5864" x2="-85.6436" y2="-121.5864" gradientTransform="matrix(1 0 0 -1 111.168 -98.3594)">
				<stop  offset="0" style="stop-color:#060001"/>
				<stop  offset="0.0695" style="stop-color:#353031"/>
				<stop  offset="0.1851" style="stop-color:#7E7C7C"/>
				<stop  offset="0.2679" style="stop-color:#ADABAB"/>
				<stop  offset="0.3091" style="stop-color:#BEBDBD"/>
				<stop  offset="0.3479" style="stop-color:#A9A7A7"/>
				<stop  offset="0.481" style="stop-color:#636060"/>
				<stop  offset="0.592" style="stop-color:#312C2D"/>
				<stop  offset="0.6752" style="stop-color:#120C0D"/>
				<stop  offset="0.7212" style="stop-color:#060001"/>
				<stop  offset="0.7903" style="stop-color:#090404"/>
				<stop  offset="0.8519" style="stop-color:#140E0F"/>
				<stop  offset="0.9105" style="stop-color:#262121"/>
				<stop  offset="0.967" style="stop-color:#3E3A3B"/>
				<stop  offset="1" style="stop-color:#514C4D"/>
				<a:midPointStop  offset="0" style="stop-color:#060001"/>
				<a:midPointStop  offset="0.449" style="stop-color:#060001"/>
				<a:midPointStop  offset="0.3091" style="stop-color:#BEBDBD"/>
				<a:midPointStop  offset="0.4242" style="stop-color:#BEBDBD"/>
				<a:midPointStop  offset="0.7212" style="stop-color:#060001"/>
				<a:midPointStop  offset="0.7304" style="stop-color:#060001"/>
				<a:midPointStop  offset="1" style="stop-color:#514C4D"/>
			</linearGradient>
			<path fill="url(#SVGID_7_)" d="M25.146,28.571c-0.006,0.067-0.1,0.226-0.215,0.226h-0.875c-0.112,0-0.206-0.158-0.214-0.226
				c-0.056-0.479-0.377-5.346-0.377-10.914h2.059C25.524,23.226,25.202,28.092,25.146,28.571z"/>
			
				<linearGradient id="SVGID_8_" gradientUnits="userSpaceOnUse" x1="-87.3252" y1="-127.0435" x2="-86.0215" y2="-127.0435" gradientTransform="matrix(1 0 0 -1 111.168 -98.3594)">
				<stop  offset="0" style="stop-color:#1F191A"/>
				<stop  offset="0.1455" style="stop-color:#8F8C8D"/>
				<stop  offset="0.3429" style="stop-color:#FFFFFF"/>
				<stop  offset="0.4787" style="stop-color:#CECDCD"/>
				<stop  offset="0.7455" style="stop-color:#716E6E"/>
				<stop  offset="0.7889" style="stop-color:#767374"/>
				<stop  offset="0.8436" style="stop-color:#858383"/>
				<stop  offset="0.9044" style="stop-color:#9F9C9D"/>
				<stop  offset="0.9691" style="stop-color:#C1C0C0"/>
				<stop  offset="1" style="stop-color:#D5D4D4"/>
				<a:midPointStop  offset="0" style="stop-color:#1F191A"/>
				<a:midPointStop  offset="0.5" style="stop-color:#1F191A"/>
				<a:midPointStop  offset="0.1455" style="stop-color:#8F8C8D"/>
				<a:midPointStop  offset="0.5" style="stop-color:#8F8C8D"/>
				<a:midPointStop  offset="0.3429" style="stop-color:#FFFFFF"/>
				<a:midPointStop  offset="0.4902" style="stop-color:#FFFFFF"/>
				<a:midPointStop  offset="0.7455" style="stop-color:#716E6E"/>
				<a:midPointStop  offset="0.6585" style="stop-color:#716E6E"/>
				<a:midPointStop  offset="1" style="stop-color:#D5D4D4"/>
			</linearGradient>
			<path fill="url(#SVGID_8_)" d="M25.146,28.571c-0.006,0.067-0.1,0.226-0.215,0.226h-0.875c-0.112,0-0.206-0.158-0.214-0.226
				H25.146z"/>
			
				<linearGradient id="SVGID_9_" gradientUnits="userSpaceOnUse" x1="-87.1113" y1="-127.2124" x2="-86.2363" y2="-127.2124" gradientTransform="matrix(1 0 0 -1 111.168 -98.3594)">
				<stop  offset="0" style="stop-color:#060001"/>
				<stop  offset="0.0695" style="stop-color:#353031"/>
				<stop  offset="0.1851" style="stop-color:#7E7C7C"/>
				<stop  offset="0.2679" style="stop-color:#ADABAB"/>
				<stop  offset="0.3091" style="stop-color:#BEBDBD"/>
				<stop  offset="0.3479" style="stop-color:#A9A7A7"/>
				<stop  offset="0.481" style="stop-color:#636060"/>
				<stop  offset="0.592" style="stop-color:#312C2D"/>
				<stop  offset="0.6752" style="stop-color:#120C0D"/>
				<stop  offset="0.7212" style="stop-color:#060001"/>
				<stop  offset="0.7903" style="stop-color:#090404"/>
				<stop  offset="0.8519" style="stop-color:#140E0F"/>
				<stop  offset="0.9105" style="stop-color:#262121"/>
				<stop  offset="0.967" style="stop-color:#3E3A3B"/>
				<stop  offset="1" style="stop-color:#514C4D"/>
				<a:midPointStop  offset="0" style="stop-color:#060001"/>
				<a:midPointStop  offset="0.449" style="stop-color:#060001"/>
				<a:midPointStop  offset="0.3091" style="stop-color:#BEBDBD"/>
				<a:midPointStop  offset="0.4242" style="stop-color:#BEBDBD"/>
				<a:midPointStop  offset="0.7212" style="stop-color:#060001"/>
				<a:midPointStop  offset="0.7304" style="stop-color:#060001"/>
				<a:midPointStop  offset="1" style="stop-color:#514C4D"/>
			</linearGradient>
			<path fill="url(#SVGID_9_)" d="M24.495,28.909c-0.438,0-0.438-0.112-0.438-0.112h0.875
				C24.932,28.797,24.932,28.909,24.495,28.909z"/>
			<g>
				
					<linearGradient id="SVGID_10_" gradientUnits="userSpaceOnUse" x1="-87.8003" y1="114.7813" x2="-85.5464" y2="114.7813" gradientTransform="matrix(1 0 0 1 111.168 -97.2783)">
					<stop  offset="0" style="stop-color:#1F191A"/>
					<stop  offset="0.1455" style="stop-color:#8F8C8D"/>
					<stop  offset="0.3429" style="stop-color:#FFFFFF"/>
					<stop  offset="0.4787" style="stop-color:#CECDCD"/>
					<stop  offset="0.7455" style="stop-color:#716E6E"/>
					<stop  offset="0.7889" style="stop-color:#767374"/>
					<stop  offset="0.8436" style="stop-color:#858383"/>
					<stop  offset="0.9044" style="stop-color:#9F9C9D"/>
					<stop  offset="0.9691" style="stop-color:#C1C0C0"/>
					<stop  offset="1" style="stop-color:#D5D4D4"/>
					<a:midPointStop  offset="0" style="stop-color:#1F191A"/>
					<a:midPointStop  offset="0.5" style="stop-color:#1F191A"/>
					<a:midPointStop  offset="0.1455" style="stop-color:#8F8C8D"/>
					<a:midPointStop  offset="0.5" style="stop-color:#8F8C8D"/>
					<a:midPointStop  offset="0.3429" style="stop-color:#FFFFFF"/>
					<a:midPointStop  offset="0.4902" style="stop-color:#FFFFFF"/>
					<a:midPointStop  offset="0.7455" style="stop-color:#716E6E"/>
					<a:midPointStop  offset="0.6585" style="stop-color:#716E6E"/>
					<a:midPointStop  offset="1" style="stop-color:#D5D4D4"/>
				</linearGradient>
				<path fill="url(#SVGID_10_)" d="M25.616,17.35h-2.243c-0.023,0.001,0.036,0.263,0.036,0.263
					c0.008,0.024,0.031,0.045,0.057,0.045h2.059c0.026,0,0.049-0.021,0.058-0.045C25.582,17.612,25.64,17.35,25.616,17.35z"/>
				<g>
					
						<linearGradient id="SVGID_11_" gradientUnits="userSpaceOnUse" x1="-87.7949" y1="204.6826" x2="-85.5518" y2="204.6826" gradientTransform="matrix(1 0 0 1 111.168 -192.29)">
						<stop  offset="0" style="stop-color:#060001"/>
						<stop  offset="0.1442" style="stop-color:#4A4647"/>
						<stop  offset="0.2543" style="stop-color:#787575"/>
						<stop  offset="0.3091" style="stop-color:#8A8788"/>
						<stop  offset="0.4094" style="stop-color:#635F60"/>
						<stop  offset="0.5529" style="stop-color:#312C2D"/>
						<stop  offset="0.6613" style="stop-color:#110C0D"/>
						<stop  offset="0.7212" style="stop-color:#060001"/>
						<stop  offset="0.7903" style="stop-color:#090404"/>
						<stop  offset="0.8519" style="stop-color:#140E0F"/>
						<stop  offset="0.9105" style="stop-color:#262121"/>
						<stop  offset="0.967" style="stop-color:#3E3A3B"/>
						<stop  offset="1" style="stop-color:#514C4D"/>
						<a:midPointStop  offset="0" style="stop-color:#060001"/>
						<a:midPointStop  offset="0.449" style="stop-color:#060001"/>
						<a:midPointStop  offset="0.3091" style="stop-color:#8A8788"/>
						<a:midPointStop  offset="0.4242" style="stop-color:#8A8788"/>
						<a:midPointStop  offset="0.7212" style="stop-color:#060001"/>
						<a:midPointStop  offset="0.7304" style="stop-color:#060001"/>
						<a:midPointStop  offset="1" style="stop-color:#514C4D"/>
					</linearGradient>
					<path fill="url(#SVGID_11_)" d="M25.189,7.66c-0.009-0.123-0.108-0.225-0.228-0.225h-0.933c-0.119,0-0.221,0.102-0.228,0.225
						c-0.163,2.42-0.429,4.719-0.429,9.689h2.243C25.616,12.394,25.352,10.08,25.189,7.66z"/>
					
						<linearGradient id="SVGID_12_" gradientUnits="userSpaceOnUse" x1="-87.3662" y1="199.8379" x2="-85.9785" y2="199.8379" gradientTransform="matrix(1 0 0 1 111.168 -192.29)">
						<stop  offset="0" style="stop-color:#1F191A"/>
						<stop  offset="0.1455" style="stop-color:#8F8C8D"/>
						<stop  offset="0.3429" style="stop-color:#FFFFFF"/>
						<stop  offset="0.4787" style="stop-color:#CECDCD"/>
						<stop  offset="0.7455" style="stop-color:#716E6E"/>
						<stop  offset="0.7889" style="stop-color:#767374"/>
						<stop  offset="0.8436" style="stop-color:#858383"/>
						<stop  offset="0.9044" style="stop-color:#9F9C9D"/>
						<stop  offset="0.9691" style="stop-color:#C1C0C0"/>
						<stop  offset="1" style="stop-color:#D5D4D4"/>
						<a:midPointStop  offset="0" style="stop-color:#1F191A"/>
						<a:midPointStop  offset="0.5" style="stop-color:#1F191A"/>
						<a:midPointStop  offset="0.1455" style="stop-color:#8F8C8D"/>
						<a:midPointStop  offset="0.5" style="stop-color:#8F8C8D"/>
						<a:midPointStop  offset="0.3429" style="stop-color:#FFFFFF"/>
						<a:midPointStop  offset="0.4902" style="stop-color:#FFFFFF"/>
						<a:midPointStop  offset="0.7455" style="stop-color:#716E6E"/>
						<a:midPointStop  offset="0.6585" style="stop-color:#716E6E"/>
						<a:midPointStop  offset="1" style="stop-color:#D5D4D4"/>
					</linearGradient>
					<path fill="url(#SVGID_12_)" d="M25.189,7.66c-0.009-0.123-0.108-0.225-0.228-0.225h-0.933c-0.119,0-0.221,0.102-0.228,0.225
						H25.189z"/>
					
						<linearGradient id="SVGID_13_" gradientUnits="userSpaceOnUse" x1="-87.1387" y1="199.668" x2="-86.2061" y2="199.668" gradientTransform="matrix(1 0 0 1 111.168 -192.29)">
						<stop  offset="0" style="stop-color:#060001"/>
						<stop  offset="0.0695" style="stop-color:#353031"/>
						<stop  offset="0.1851" style="stop-color:#7E7C7C"/>
						<stop  offset="0.2679" style="stop-color:#ADABAB"/>
						<stop  offset="0.3091" style="stop-color:#BEBDBD"/>
						<stop  offset="0.3479" style="stop-color:#A9A7A7"/>
						<stop  offset="0.481" style="stop-color:#636060"/>
						<stop  offset="0.592" style="stop-color:#312C2D"/>
						<stop  offset="0.6752" style="stop-color:#120C0D"/>
						<stop  offset="0.7212" style="stop-color:#060001"/>
						<stop  offset="0.7903" style="stop-color:#090404"/>
						<stop  offset="0.8519" style="stop-color:#140E0F"/>
						<stop  offset="0.9105" style="stop-color:#262121"/>
						<stop  offset="0.967" style="stop-color:#3E3A3B"/>
						<stop  offset="1" style="stop-color:#514C4D"/>
						<a:midPointStop  offset="0" style="stop-color:#060001"/>
						<a:midPointStop  offset="0.449" style="stop-color:#060001"/>
						<a:midPointStop  offset="0.3091" style="stop-color:#BEBDBD"/>
						<a:midPointStop  offset="0.4242" style="stop-color:#BEBDBD"/>
						<a:midPointStop  offset="0.7212" style="stop-color:#060001"/>
						<a:midPointStop  offset="0.7304" style="stop-color:#060001"/>
						<a:midPointStop  offset="1" style="stop-color:#514C4D"/>
					</linearGradient>
					<path fill="url(#SVGID_13_)" d="M24.495,7.32c-0.466,0.002-0.466,0.115-0.466,0.115h0.933
						C24.962,7.436,24.962,7.322,24.495,7.32z"/>
					
						<linearGradient id="SVGID_14_" gradientUnits="userSpaceOnUse" x1="-86.6724" y1="207.9189" x2="-86.6724" y2="199.9502" gradientTransform="matrix(1 0 0 1 111.168 -192.29)">
						<stop  offset="0" style="stop-color:#060001"/>
						<stop  offset="0.0727" style="stop-color:#FFFFFF"/>
						<stop  offset="0.2727" style="stop-color:#646161"/>
						<stop  offset="0.7157" style="stop-color:#FFFFFF"/>
						<stop  offset="0.9212" style="stop-color:#737071"/>
						<stop  offset="1" style="stop-color:#FFFFFF"/>
						<a:midPointStop  offset="0" style="stop-color:#060001"/>
						<a:midPointStop  offset="0.5" style="stop-color:#060001"/>
						<a:midPointStop  offset="0.0727" style="stop-color:#FFFFFF"/>
						<a:midPointStop  offset="0.5" style="stop-color:#FFFFFF"/>
						<a:midPointStop  offset="0.2727" style="stop-color:#646161"/>
						<a:midPointStop  offset="0.5" style="stop-color:#646161"/>
						<a:midPointStop  offset="0.7157" style="stop-color:#FFFFFF"/>
						<a:midPointStop  offset="0.5" style="stop-color:#FFFFFF"/>
						<a:midPointStop  offset="0.9212" style="stop-color:#737071"/>
						<a:midPointStop  offset="0.5" style="stop-color:#737071"/>
						<a:midPointStop  offset="1" style="stop-color:#FFFFFF"/>
					</linearGradient>
					<path fill="url(#SVGID_14_)" d="M24.883,15.175c0,0.248-0.174,0.454-0.388,0.454c-0.213,0-0.385-0.206-0.385-0.456
						c0,0,0.216-0.112,0.216-0.997c0-0.881-0.216-6.06-0.216-6.06c0-0.455-0.309-0.456-0.309-0.456h1.388
						c0,0-0.307,0.001-0.307,0.456c0,0-0.219,5.179-0.219,6.06C24.664,15.061,24.883,15.175,24.883,15.175z"/>
				</g>
			</g>
		</g>
		
			<linearGradient id="SVGID_15_" gradientUnits="userSpaceOnUse" x1="7.0654" y1="22.7734" x2="7.6475" y2="22.7734" gradientTransform="matrix(1 0.0176 0 1 -1.2529 -4.6864)">
			<stop  offset="0" style="stop-color:#159342"/>
			<stop  offset="0.8" style="stop-color:#026736"/>
			<stop  offset="1" style="stop-color:#006435"/>
			<a:midPointStop  offset="0" style="stop-color:#159342"/>
			<a:midPointStop  offset="0.5" style="stop-color:#159342"/>
			<a:midPointStop  offset="0.8" style="stop-color:#026736"/>
			<a:midPointStop  offset="0.5" style="stop-color:#026736"/>
			<a:midPointStop  offset="1" style="stop-color:#006435"/>
		</linearGradient>
		<polygon fill="url(#SVGID_15_)" points="6.395,29.379 5.813,29.379 5.813,7.043 6.395,7.053 		"/>
		<g opacity="0.5">
			<path fill="#FFFFFF" d="M19.52,7.284v0.259c0.536,0.008,0.975,0.456,0.975,0.991V8.276C20.494,7.741,20.056,7.295,19.52,7.284z"
				/>
			<polygon fill="#FFFFFF" points="19.52,7.284 6.732,7.06 6.732,7.06 19.52,7.543 			"/>
		</g>
		<g>
			<g>
				<linearGradient id="SVGID_16_" gradientUnits="userSpaceOnUse" x1="15.5327" y1="25.5215" x2="15.5327" y2="28.0009">
					<stop  offset="0" style="stop-color:#517662"/>
					<stop  offset="1" style="stop-color:#A1B2A6"/>
					<a:midPointStop  offset="0" style="stop-color:#517662"/>
					<a:midPointStop  offset="0.5" style="stop-color:#517662"/>
					<a:midPointStop  offset="1" style="stop-color:#A1B2A6"/>
				</linearGradient>
				<path fill-rule="evenodd" clip-rule="evenodd" fill="url(#SVGID_16_)" d="M12.905,25.563h5.257c0.157,0,0.286,0.13,0.286,0.286
					v1.844c0,0.158-0.129,0.287-0.286,0.287h-5.257c-0.159,0-0.287-0.129-0.287-0.287V25.85
					C12.618,25.693,12.746,25.563,12.905,25.563z"/>
				<linearGradient id="SVGID_17_" gradientUnits="userSpaceOnUse" x1="15.5327" y1="25.5498" x2="15.5327" y2="27.9982">
					<stop  offset="0" style="stop-color:#557965"/>
					<stop  offset="1" style="stop-color:#A1B2A6"/>
					<a:midPointStop  offset="0" style="stop-color:#557965"/>
					<a:midPointStop  offset="0.5" style="stop-color:#557965"/>
					<a:midPointStop  offset="1" style="stop-color:#A1B2A6"/>
				</linearGradient>
				<path fill-rule="evenodd" clip-rule="evenodd" fill="url(#SVGID_17_)" d="M12.92,25.591h5.228c0.156,0,0.284,0.128,0.284,0.282
					v1.821c0,0.156-0.128,0.283-0.284,0.283H12.92c-0.158,0-0.286-0.127-0.286-0.283v-1.821
					C12.634,25.719,12.762,25.591,12.92,25.591z"/>
				<linearGradient id="SVGID_18_" gradientUnits="userSpaceOnUse" x1="15.5327" y1="25.5771" x2="15.5327" y2="27.9945">
					<stop  offset="0" style="stop-color:#597C68"/>
					<stop  offset="1" style="stop-color:#A1B2A6"/>
					<a:midPointStop  offset="0" style="stop-color:#597C68"/>
					<a:midPointStop  offset="0.5" style="stop-color:#597C68"/>
					<a:midPointStop  offset="1" style="stop-color:#A1B2A6"/>
				</linearGradient>
				<path fill-rule="evenodd" clip-rule="evenodd" fill="url(#SVGID_18_)" d="M12.935,25.618h5.198c0.155,0,0.283,0.126,0.283,0.278
					v1.798c0,0.154-0.128,0.28-0.283,0.28h-5.198c-0.158,0-0.284-0.126-0.284-0.28v-1.798C12.65,25.744,12.777,25.618,12.935,25.618
					z"/>
				<linearGradient id="SVGID_19_" gradientUnits="userSpaceOnUse" x1="15.5327" y1="25.6055" x2="15.5327" y2="27.9917">
					<stop  offset="0" style="stop-color:#5C7F6C"/>
					<stop  offset="1" style="stop-color:#A1B2A6"/>
					<a:midPointStop  offset="0" style="stop-color:#5C7F6C"/>
					<a:midPointStop  offset="0.5" style="stop-color:#5C7F6C"/>
					<a:midPointStop  offset="1" style="stop-color:#A1B2A6"/>
				</linearGradient>
				<path fill-rule="evenodd" clip-rule="evenodd" fill="url(#SVGID_19_)" d="M12.949,25.646h5.169c0.155,0,0.281,0.124,0.281,0.275
					v1.774c0,0.152-0.126,0.276-0.281,0.276h-5.169c-0.156,0-0.282-0.124-0.282-0.276v-1.774
					C12.667,25.77,12.792,25.646,12.949,25.646z"/>
				<linearGradient id="SVGID_20_" gradientUnits="userSpaceOnUse" x1="15.5327" y1="25.6318" x2="15.5327" y2="27.988">
					<stop  offset="0" style="stop-color:#60816F"/>
					<stop  offset="1" style="stop-color:#A1B2A6"/>
					<a:midPointStop  offset="0" style="stop-color:#60816F"/>
					<a:midPointStop  offset="0.5" style="stop-color:#60816F"/>
					<a:midPointStop  offset="1" style="stop-color:#A1B2A6"/>
				</linearGradient>
				<path fill-rule="evenodd" clip-rule="evenodd" fill="url(#SVGID_20_)" d="M12.963,25.672h5.14c0.154,0,0.28,0.124,0.28,0.272
					v1.752c0,0.15-0.126,0.272-0.28,0.272h-5.14c-0.156,0-0.281-0.122-0.281-0.272v-1.752
					C12.683,25.796,12.808,25.672,12.963,25.672z"/>
				<linearGradient id="SVGID_21_" gradientUnits="userSpaceOnUse" x1="15.5327" y1="25.6602" x2="15.5327" y2="27.9853">
					<stop  offset="0" style="stop-color:#648472"/>
					<stop  offset="1" style="stop-color:#A1B2A6"/>
					<a:midPointStop  offset="0" style="stop-color:#648472"/>
					<a:midPointStop  offset="0.5" style="stop-color:#648472"/>
					<a:midPointStop  offset="1" style="stop-color:#A1B2A6"/>
				</linearGradient>
				<path fill-rule="evenodd" clip-rule="evenodd" fill="url(#SVGID_21_)" d="M12.978,25.699h5.111c0.153,0,0.278,0.122,0.278,0.269
					v1.729c0,0.148-0.125,0.269-0.278,0.269h-5.111c-0.155,0-0.279-0.12-0.279-0.269v-1.729
					C12.699,25.821,12.823,25.699,12.978,25.699z"/>
				<linearGradient id="SVGID_22_" gradientUnits="userSpaceOnUse" x1="15.5327" y1="25.6875" x2="15.5327" y2="27.9826">
					<stop  offset="0" style="stop-color:#688775"/>
					<stop  offset="1" style="stop-color:#A1B2A6"/>
					<a:midPointStop  offset="0" style="stop-color:#688775"/>
					<a:midPointStop  offset="0.5" style="stop-color:#688775"/>
					<a:midPointStop  offset="1" style="stop-color:#A1B2A6"/>
				</linearGradient>
				<path fill-rule="evenodd" clip-rule="evenodd" fill="url(#SVGID_22_)" d="M12.993,25.727h5.082c0.152,0,0.277,0.12,0.277,0.265
					v1.706c0,0.146-0.125,0.267-0.277,0.267h-5.082c-0.154,0-0.278-0.12-0.278-0.267v-1.706
					C12.715,25.847,12.838,25.727,12.993,25.727z"/>
				<linearGradient id="SVGID_23_" gradientUnits="userSpaceOnUse" x1="15.5327" y1="25.7158" x2="15.5327" y2="27.9799">
					<stop  offset="0" style="stop-color:#6B8A79"/>
					<stop  offset="1" style="stop-color:#A1B2A6"/>
					<a:midPointStop  offset="0" style="stop-color:#6B8A79"/>
					<a:midPointStop  offset="0.5" style="stop-color:#6B8A79"/>
					<a:midPointStop  offset="1" style="stop-color:#A1B2A6"/>
				</linearGradient>
				<path fill-rule="evenodd" clip-rule="evenodd" fill="url(#SVGID_23_)" d="M13.007,25.754h5.052c0.152,0,0.275,0.118,0.275,0.262
					v1.683c0,0.145-0.123,0.263-0.275,0.263h-5.052c-0.153,0-0.276-0.118-0.276-0.263v-1.683
					C12.731,25.872,12.854,25.754,13.007,25.754z"/>
				<linearGradient id="SVGID_24_" gradientUnits="userSpaceOnUse" x1="15.5327" y1="25.7432" x2="15.5327" y2="27.9761">
					<stop  offset="0" style="stop-color:#6F8D7C"/>
					<stop  offset="1" style="stop-color:#A1B2A6"/>
					<a:midPointStop  offset="0" style="stop-color:#6F8D7C"/>
					<a:midPointStop  offset="0.5" style="stop-color:#6F8D7C"/>
					<a:midPointStop  offset="1" style="stop-color:#A1B2A6"/>
				</linearGradient>
				<path fill-rule="evenodd" clip-rule="evenodd" fill="url(#SVGID_24_)" d="M13.021,25.781h5.023c0.151,0,0.273,0.116,0.273,0.258
					v1.66c0,0.143-0.122,0.259-0.273,0.259h-5.023c-0.152,0-0.274-0.116-0.274-0.259v-1.66
					C12.747,25.897,12.869,25.781,13.021,25.781z"/>
				<linearGradient id="SVGID_25_" gradientUnits="userSpaceOnUse" x1="15.5327" y1="25.7715" x2="15.5327" y2="27.9734">
					<stop  offset="0" style="stop-color:#73907F"/>
					<stop  offset="1" style="stop-color:#A1B2A6"/>
					<a:midPointStop  offset="0" style="stop-color:#73907F"/>
					<a:midPointStop  offset="0.5" style="stop-color:#73907F"/>
					<a:midPointStop  offset="1" style="stop-color:#A1B2A6"/>
				</linearGradient>
				<path fill-rule="evenodd" clip-rule="evenodd" fill="url(#SVGID_25_)" d="M13.036,25.809h4.994c0.15,0,0.272,0.114,0.272,0.254
					v1.637c0,0.141-0.122,0.256-0.272,0.256h-4.994c-0.151,0-0.273-0.115-0.273-0.256v-1.637
					C12.763,25.923,12.885,25.809,13.036,25.809z"/>
				<linearGradient id="SVGID_26_" gradientUnits="userSpaceOnUse" x1="15.5327" y1="25.7988" x2="15.5327" y2="27.9697">
					<stop  offset="0" style="stop-color:#779382"/>
					<stop  offset="1" style="stop-color:#A1B2A6"/>
					<a:midPointStop  offset="0" style="stop-color:#779382"/>
					<a:midPointStop  offset="0.5" style="stop-color:#779382"/>
					<a:midPointStop  offset="1" style="stop-color:#A1B2A6"/>
				</linearGradient>
				<path fill-rule="evenodd" clip-rule="evenodd" fill="url(#SVGID_26_)" d="M13.051,25.836h4.965c0.149,0,0.271,0.112,0.271,0.25
					V27.7c0,0.139-0.121,0.252-0.271,0.252h-4.965c-0.151,0-0.271-0.113-0.271-0.252v-1.614
					C12.779,25.948,12.9,25.836,13.051,25.836z"/>
				<linearGradient id="SVGID_27_" gradientUnits="userSpaceOnUse" x1="15.5327" y1="25.8262" x2="15.5327" y2="27.967">
					<stop  offset="0" style="stop-color:#7A9586"/>
					<stop  offset="1" style="stop-color:#A0B2A6"/>
					<a:midPointStop  offset="0" style="stop-color:#7A9586"/>
					<a:midPointStop  offset="0.5" style="stop-color:#7A9586"/>
					<a:midPointStop  offset="1" style="stop-color:#A0B2A6"/>
				</linearGradient>
				<path fill-rule="evenodd" clip-rule="evenodd" fill="url(#SVGID_27_)" d="M13.065,25.862h4.937c0.148,0,0.269,0.112,0.269,0.248
					v1.591c0,0.137-0.12,0.248-0.269,0.248h-4.937c-0.15,0-0.271-0.111-0.271-0.248V26.11
					C12.795,25.975,12.916,25.862,13.065,25.862z"/>
				<linearGradient id="SVGID_28_" gradientUnits="userSpaceOnUse" x1="15.5322" y1="25.8535" x2="15.5322" y2="27.9633">
					<stop  offset="0" style="stop-color:#7E9889"/>
					<stop  offset="1" style="stop-color:#A0B2A6"/>
					<a:midPointStop  offset="0" style="stop-color:#7E9889"/>
					<a:midPointStop  offset="0.5" style="stop-color:#7E9889"/>
					<a:midPointStop  offset="1" style="stop-color:#A0B2A6"/>
				</linearGradient>
				<path fill-rule="evenodd" clip-rule="evenodd" fill="url(#SVGID_28_)" d="M13.08,25.89h4.907c0.147,0,0.267,0.11,0.267,0.244
					v1.568c0,0.135-0.119,0.244-0.267,0.244H13.08c-0.149,0-0.269-0.109-0.269-0.244v-1.568C12.811,26,12.931,25.89,13.08,25.89z"/>
				<linearGradient id="SVGID_29_" gradientUnits="userSpaceOnUse" x1="15.5327" y1="25.8818" x2="15.5327" y2="27.9605">
					<stop  offset="0" style="stop-color:#829B8C"/>
					<stop  offset="1" style="stop-color:#A0B2A6"/>
					<a:midPointStop  offset="0" style="stop-color:#829B8C"/>
					<a:midPointStop  offset="0.5" style="stop-color:#829B8C"/>
					<a:midPointStop  offset="1" style="stop-color:#A0B2A6"/>
				</linearGradient>
				<path fill-rule="evenodd" clip-rule="evenodd" fill="url(#SVGID_29_)" d="M13.095,25.917h4.878c0.146,0,0.266,0.108,0.266,0.24
					v1.545c0,0.133-0.119,0.241-0.266,0.241h-4.878c-0.148,0-0.268-0.108-0.268-0.241v-1.545
					C12.827,26.025,12.946,25.917,13.095,25.917z"/>
				<linearGradient id="SVGID_30_" gradientUnits="userSpaceOnUse" x1="15.5322" y1="25.9092" x2="15.5322" y2="27.9568">
					<stop  offset="0" style="stop-color:#869E8F"/>
					<stop  offset="1" style="stop-color:#A0B2A6"/>
					<a:midPointStop  offset="0" style="stop-color:#869E8F"/>
					<a:midPointStop  offset="0.5" style="stop-color:#869E8F"/>
					<a:midPointStop  offset="1" style="stop-color:#A0B2A6"/>
				</linearGradient>
				<path fill-rule="evenodd" clip-rule="evenodd" fill="url(#SVGID_30_)" d="M13.109,25.944h4.849c0.146,0,0.264,0.106,0.264,0.236
					v1.522c0,0.131-0.118,0.237-0.264,0.237h-4.849c-0.147,0-0.266-0.106-0.266-0.237v-1.522
					C12.843,26.051,12.961,25.944,13.109,25.944z"/>
				<linearGradient id="SVGID_31_" gradientUnits="userSpaceOnUse" x1="15.5317" y1="25.9375" x2="15.5317" y2="27.9541">
					<stop  offset="0" style="stop-color:#89A193"/>
					<stop  offset="1" style="stop-color:#A0B2A6"/>
					<a:midPointStop  offset="0" style="stop-color:#89A193"/>
					<a:midPointStop  offset="0.5" style="stop-color:#89A193"/>
					<a:midPointStop  offset="1" style="stop-color:#A0B2A6"/>
				</linearGradient>
				<path fill-rule="evenodd" clip-rule="evenodd" fill="url(#SVGID_31_)" d="M13.124,25.972h4.82c0.146,0,0.262,0.104,0.262,0.233
					v1.499c0,0.129-0.116,0.233-0.262,0.233h-4.82c-0.146,0-0.264-0.104-0.264-0.233v-1.499
					C12.859,26.076,12.977,25.972,13.124,25.972z"/>
				<linearGradient id="SVGID_32_" gradientUnits="userSpaceOnUse" x1="15.5322" y1="25.9658" x2="15.5322" y2="27.9524">
					<stop  offset="0" style="stop-color:#8DA496"/>
					<stop  offset="1" style="stop-color:#A0B2A6"/>
					<a:midPointStop  offset="0" style="stop-color:#8DA496"/>
					<a:midPointStop  offset="0.5" style="stop-color:#8DA496"/>
					<a:midPointStop  offset="1" style="stop-color:#A0B2A6"/>
				</linearGradient>
				<path fill-rule="evenodd" clip-rule="evenodd" fill="url(#SVGID_32_)" d="M13.138,25.999h4.791c0.145,0,0.261,0.103,0.261,0.229
					v1.476c0,0.127-0.116,0.231-0.261,0.231h-4.791c-0.146,0-0.263-0.104-0.263-0.231v-1.476
					C12.875,26.102,12.992,25.999,13.138,25.999z"/>
				<linearGradient id="SVGID_33_" gradientUnits="userSpaceOnUse" x1="15.5317" y1="25.9932" x2="15.5317" y2="27.9487">
					<stop  offset="0" style="stop-color:#91A799"/>
					<stop  offset="1" style="stop-color:#A0B2A6"/>
					<a:midPointStop  offset="0" style="stop-color:#91A799"/>
					<a:midPointStop  offset="0.5" style="stop-color:#91A799"/>
					<a:midPointStop  offset="1" style="stop-color:#A0B2A6"/>
				</linearGradient>
				<path fill-rule="evenodd" clip-rule="evenodd" fill="url(#SVGID_33_)" d="M13.153,26.026h4.761c0.144,0,0.259,0.101,0.259,0.226
					v1.453c0,0.125-0.115,0.228-0.259,0.228h-4.761c-0.145,0-0.261-0.103-0.261-0.228v-1.453
					C12.892,26.127,13.008,26.026,13.153,26.026z"/>
				<linearGradient id="SVGID_34_" gradientUnits="userSpaceOnUse" x1="15.5322" y1="26.0205" x2="15.5322" y2="27.9459">
					<stop  offset="0" style="stop-color:#95A99C"/>
					<stop  offset="1" style="stop-color:#A0B2A6"/>
					<a:midPointStop  offset="0" style="stop-color:#95A99C"/>
					<a:midPointStop  offset="0.5" style="stop-color:#95A99C"/>
					<a:midPointStop  offset="1" style="stop-color:#A0B2A6"/>
				</linearGradient>
				<path fill-rule="evenodd" clip-rule="evenodd" fill="url(#SVGID_34_)" d="M13.167,26.053h4.732c0.143,0,0.258,0.101,0.258,0.223
					v1.431c0,0.123-0.115,0.224-0.258,0.224h-4.732c-0.145,0-0.26-0.101-0.26-0.224v-1.431
					C12.908,26.153,13.023,26.053,13.167,26.053z"/>
				<linearGradient id="SVGID_35_" gradientUnits="userSpaceOnUse" x1="15.5317" y1="26.0479" x2="15.5317" y2="27.9422">
					<stop  offset="0" style="stop-color:#98ACA0"/>
					<stop  offset="1" style="stop-color:#A0B2A6"/>
					<a:midPointStop  offset="0" style="stop-color:#98ACA0"/>
					<a:midPointStop  offset="0.5" style="stop-color:#98ACA0"/>
					<a:midPointStop  offset="1" style="stop-color:#A0B2A6"/>
				</linearGradient>
				<path fill-rule="evenodd" clip-rule="evenodd" fill="url(#SVGID_35_)" d="M13.182,26.08h4.703c0.143,0,0.256,0.099,0.256,0.22
					v1.407c0,0.121-0.113,0.22-0.256,0.22h-4.703c-0.143,0-0.258-0.099-0.258-0.22V26.3C12.924,26.179,13.039,26.08,13.182,26.08z"
					/>
				<linearGradient id="SVGID_36_" gradientUnits="userSpaceOnUse" x1="15.5322" y1="26.0762" x2="15.5322" y2="27.9395">
					<stop  offset="0" style="stop-color:#9CAFA3"/>
					<stop  offset="1" style="stop-color:#A0B2A6"/>
					<a:midPointStop  offset="0" style="stop-color:#9CAFA3"/>
					<a:midPointStop  offset="0.5" style="stop-color:#9CAFA3"/>
					<a:midPointStop  offset="1" style="stop-color:#A0B2A6"/>
				</linearGradient>
				<path fill-rule="evenodd" clip-rule="evenodd" fill="url(#SVGID_36_)" d="M13.196,26.107h4.674c0.142,0,0.255,0.097,0.255,0.216
					v1.384c0,0.119-0.113,0.217-0.255,0.217h-4.674c-0.143,0-0.256-0.098-0.256-0.217v-1.384
					C12.94,26.204,13.054,26.107,13.196,26.107z"/>
				<path fill-rule="evenodd" clip-rule="evenodd" fill="#A0B2A6" d="M13.211,26.135h4.645c0.141,0,0.253,0.095,0.253,0.212v1.361
					c0,0.117-0.112,0.213-0.253,0.213h-4.645c-0.142,0-0.255-0.096-0.255-0.213v-1.361C12.956,26.229,13.069,26.135,13.211,26.135z"
					/>
			</g>
			<radialGradient id="SVGID_37_" cx="15.5938" cy="25.5166" r="4.077" gradientUnits="userSpaceOnUse">
				<stop  offset="0" style="stop-color:#159342"/>
				<stop  offset="0.8" style="stop-color:#016E38"/>
				<stop  offset="1" style="stop-color:#016E38"/>
				<a:midPointStop  offset="0" style="stop-color:#159342"/>
				<a:midPointStop  offset="0.5" style="stop-color:#159342"/>
				<a:midPointStop  offset="0.8" style="stop-color:#016E38"/>
				<a:midPointStop  offset="0.5" style="stop-color:#016E38"/>
				<a:midPointStop  offset="1" style="stop-color:#016E38"/>
			</radialGradient>
			<path fill-rule="evenodd" clip-rule="evenodd" fill="url(#SVGID_37_)" d="M12.495,25.377h6.076v2.789h-6.076V25.377
				L12.495,25.377z M12.764,25.624v2.297h5.538v-2.297H12.764z"/>
			<linearGradient id="SVGID_38_" gradientUnits="userSpaceOnUse" x1="15.5337" y1="25.3633" x2="15.5337" y2="25.16">
				<stop  offset="0" style="stop-color:#129841"/>
				<stop  offset="1" style="stop-color:#129041"/>
				<a:midPointStop  offset="0" style="stop-color:#129841"/>
				<a:midPointStop  offset="0.5" style="stop-color:#129841"/>
				<a:midPointStop  offset="1" style="stop-color:#129041"/>
			</linearGradient>
			<rect x="12.495" y="25.26" fill-rule="evenodd" clip-rule="evenodd" fill="url(#SVGID_38_)" width="6.076" height="0.117"/>
			<radialGradient id="SVGID_39_" cx="15.3511" cy="25.3242" r="3.2205" gradientUnits="userSpaceOnUse">
				<stop  offset="0" style="stop-color:#8BC39A"/>
				<stop  offset="1" style="stop-color:#57AE78"/>
				<a:midPointStop  offset="0" style="stop-color:#8BC39A"/>
				<a:midPointStop  offset="0.5" style="stop-color:#8BC39A"/>
				<a:midPointStop  offset="1" style="stop-color:#57AE78"/>
			</radialGradient>
			<rect x="12.495" y="25.326" fill-rule="evenodd" clip-rule="evenodd" fill="url(#SVGID_39_)" width="6.076" height="0.051"/>
			<rect x="12.764" y="27.84" fill-rule="evenodd" clip-rule="evenodd" fill="#3AA86D" width="5.538" height="0.081"/>
			<linearGradient id="SVGID_40_" gradientUnits="userSpaceOnUse" x1="15.5327" y1="25.8506" x2="15.5327" y2="25.5623">
				<stop  offset="0" style="stop-color:#005830"/>
				<stop  offset="1" style="stop-color:#004123"/>
				<a:midPointStop  offset="0" style="stop-color:#005830"/>
				<a:midPointStop  offset="0.5" style="stop-color:#005830"/>
				<a:midPointStop  offset="1" style="stop-color:#004123"/>
			</linearGradient>
			<rect x="12.764" y="25.597" fill-rule="evenodd" clip-rule="evenodd" fill="url(#SVGID_40_)" width="5.538" height="0.108"/>
			<linearGradient id="SVGID_41_" gradientUnits="userSpaceOnUse" x1="12.6763" y1="25.7666" x2="12.8902" y2="27.2885">
				<stop  offset="0" style="stop-color:#004123"/>
				<stop  offset="1" style="stop-color:#0D883F"/>
				<a:midPointStop  offset="0" style="stop-color:#004123"/>
				<a:midPointStop  offset="0.5" style="stop-color:#004123"/>
				<a:midPointStop  offset="1" style="stop-color:#0D883F"/>
			</linearGradient>
			<polygon fill-rule="evenodd" clip-rule="evenodd" fill="url(#SVGID_41_)" points="12.764,25.597 12.883,25.704 12.883,27.841 
				12.764,27.924 			"/>
			<linearGradient id="SVGID_42_" gradientUnits="userSpaceOnUse" x1="18.373" y1="25.7607" x2="18.1858" y2="27.2859">
				<stop  offset="0" style="stop-color:#004123"/>
				<stop  offset="1" style="stop-color:#0D883F"/>
				<a:midPointStop  offset="0" style="stop-color:#004123"/>
				<a:midPointStop  offset="0.5" style="stop-color:#004123"/>
				<a:midPointStop  offset="1" style="stop-color:#0D883F"/>
			</linearGradient>
			<polygon fill-rule="evenodd" clip-rule="evenodd" fill="url(#SVGID_42_)" points="18.302,25.597 18.185,25.704 18.185,27.841 
				18.302,27.924 			"/>
			<linearGradient id="SVGID_43_" gradientUnits="userSpaceOnUse" x1="15.5327" y1="27.4951" x2="15.5327" y2="24.5016">
				<stop  offset="0" style="stop-color:#A1B2A6"/>
				<stop  offset="1" style="stop-color:#FFFFFF"/>
				<a:midPointStop  offset="0" style="stop-color:#A1B2A6"/>
				<a:midPointStop  offset="0.5" style="stop-color:#A1B2A6"/>
				<a:midPointStop  offset="1" style="stop-color:#FFFFFF"/>
			</linearGradient>
			<path fill-rule="evenodd" clip-rule="evenodd" fill="url(#SVGID_43_)" d="M13.237,25.875h4.592c0.137,0,0.25,0.044,0.25,0.178
				v0.703h-5.093v-0.703C12.986,25.919,13.1,25.875,13.237,25.875z"/>
			<linearGradient id="SVGID_44_" gradientUnits="userSpaceOnUse" x1="15.5327" y1="27.5254" x2="15.5327" y2="28.6466">
				<stop  offset="0" style="stop-color:#A1B2A6"/>
				<stop  offset="1" style="stop-color:#E9F2EA"/>
				<a:midPointStop  offset="0" style="stop-color:#A1B2A6"/>
				<a:midPointStop  offset="0.5" style="stop-color:#A1B2A6"/>
				<a:midPointStop  offset="1" style="stop-color:#E9F2EA"/>
			</linearGradient>
			<path fill-rule="evenodd" clip-rule="evenodd" fill="url(#SVGID_44_)" d="M13.237,27.755h4.592c0.137,0,0.25-0.109,0.25-0.244
				v-0.126c0,0.135-0.113,0.245-0.25,0.245h-4.592c-0.138,0-0.251-0.11-0.251-0.245v0.126C12.986,27.646,13.1,27.755,13.237,27.755z
				"/>
		</g>
		
			<radialGradient id="SVGID_45_" cx="24.7676" cy="3.5449" r="4.6953" gradientTransform="matrix(1 0 0 0.8 0 0.709)" gradientUnits="userSpaceOnUse">
			<stop  offset="0" style="stop-color:#D93B2A"/>
			<stop  offset="0.3211" style="stop-color:#CB2E28"/>
			<stop  offset="0.8631" style="stop-color:#B81C25"/>
			<stop  offset="1" style="stop-color:#B91C22"/>
			<a:midPointStop  offset="0" style="stop-color:#D93B2A"/>
			<a:midPointStop  offset="0.4524" style="stop-color:#D93B2A"/>
			<a:midPointStop  offset="0.8631" style="stop-color:#B81C25"/>
			<a:midPointStop  offset="0.5" style="stop-color:#B81C25"/>
			<a:midPointStop  offset="1" style="stop-color:#B91C22"/>
		</radialGradient>
		<path fill="url(#SVGID_45_)" d="M24.426,2.044c-0.775-0.47-1.653-0.493-2.156,0.013c-0.634,0.631-0.44,1.848,0.431,2.721
			c0.306,0.304,0.654,0.527,1.005,0.659c1.063,0.407,2.064,0.418,3.023-0.542c0.985-0.985,1.206-2.366,0.49-3.08
			C26.57,1.164,25.377,1.283,24.426,2.044z"/>
	</g>
</g>
</svg>
