<?xml version="1.0" encoding="utf-8"?>
<!-- Generator: Adobe Illustrator 15.1.0, SVG Export Plug-In . SVG Version: 6.00 Build 0)  -->
<!DOCTYPE svg PUBLIC "-//W3C//DTD SVG 1.1//EN" "http://www.w3.org/Graphics/SVG/1.1/DTD/svg11.dtd" [
	<!ENTITY ns_flows "http://ns.adobe.com/Flows/1.0/">
	<!ENTITY ns_extend "http://ns.adobe.com/Extensibility/1.0/">
	<!ENTITY ns_ai "http://ns.adobe.com/AdobeIllustrator/10.0/">
	<!ENTITY ns_graphs "http://ns.adobe.com/Graphs/1.0/">
]>
<svg version="1.1" id="圖層_1" xmlns:x="&ns_extend;" xmlns:i="&ns_ai;" xmlns:graph="&ns_graphs;"
	 xmlns="http://www.w3.org/2000/svg" xmlns:xlink="http://www.w3.org/1999/xlink" xmlns:a="http://ns.adobe.com/AdobeSVGViewerExtensions/3.0/"
	 x="0px" y="0px" width="60px" height="60px" viewBox="0 0 60 60" enable-background="new 0 0 60 60" xml:space="preserve">
<rect x="0.065" y="0.042" fill="#C5C5C6" width="59.871" height="59.958"/>
<path fill="#EDEBEA" d="M53.271,58.503c-0.424-3.121-2.125-7.838-8.357-9.868c-6.561-2.537-7.035-2.795-7.035-2.795
	s-1.531-2.523-2.238-2.686c-0.705-0.162-0.117-1.161,0-1.444c0.117-0.279,1.021,0.003,1.021-3.659c0-1.206-0.156-1.286,0.432-1.286
	c0.59,0,1.963-0.846,1.963-3.785c0-2.936,0-3.059-0.506-3.139c-0.08-1.125,0.549-2.935,0.549-7.042
	c-0.629-4.277-2.359-6.437-3.664-7.301c-0.363-0.235-0.617-1.137-0.842-1.645c-1.703,0.125-3.246,0.972-5.056,0.972
	c-6.218,0-9.526,3.868-9.526,7.974c0,4.106,0.631,5.917,0.553,7.042c-0.514,0.081-0.514,0.204-0.514,3.14
	c0,2.939,1.377,3.786,1.968,3.786c0.589,0,0.432,0.08,0.432,1.288c0,3.661,0.905,3.382,1.022,3.661c0.121,0.284,0.711,1.29,0,1.45
	c-0.708,0.163-2.242,2.698-2.242,2.698s-0.471,0.281-7.043,2.818c-6.19,2.012-7.917,6.62-8.36,9.741C5.775,59.096,5.856,59,6.049,60
	h47.064C53.26,60,53.311,59.15,53.271,58.503z"/>
</svg>
