<?xml version="1.0" encoding="utf-8"?>
<!-- Generator: Adobe Illustrator 16.0.0, SVG Export Plug-In . SVG Version: 6.00 Build 0)  -->
<!DOCTYPE svg PUBLIC "-//W3C//DTD SVG 1.1//EN" "http://www.w3.org/Graphics/SVG/1.1/DTD/svg11.dtd">
<svg version="1.1" xmlns="http://www.w3.org/2000/svg" xmlns:xlink="http://www.w3.org/1999/xlink" x="0px" y="0px" width="30px"
	 height="30px" viewBox="0 0 30 30" enable-background="new 0 0 30 30" xml:space="preserve">
<g id="首頁BK" display="none">
</g>
<g id="首頁UI__x26__logo" display="none">
</g>
<g id="首頁UI__x26__logo_拷貝" display="none">
</g>
<g id="內頁_x5F_左" display="none">
</g>
<g id="內頁" display="none">
</g>
<g id="Easy_我的作品" display="none">
</g>
<g id="EASY_雲端作品庫" display="none">
</g>
<g id="福利中心頁_x5F_bk" display="none">
</g>
<g id="兌換商品" display="none">
</g>
<g id="版型下載" display="none">
</g>
<g id="Top_banner_1_" display="none">
</g>
<g id="商品說明" display="none">
</g>
<g id="填寫兌換頁" display="none">
</g>
<g id="會員資料" display="none">
</g>
<g id="集到先師" display="none">
</g>
<g id="Play" display="none">
	<g display="inline">
	</g>
</g>
<g id="製作頁">
	<g id="步驟2_1_" display="none">
		<g id="_x31__x3001_2">
			<g display="inline">
			</g>
		</g>
	</g>
	<g id="步驟1_1_" display="none">
		<g display="inline">
		</g>
	</g>
	<g id="提示_1_" display="none">
	</g>
	<path fill="#58595B" d="M15.979,9.021C7.904,9.254,1.424,15.666,1.422,23.557c0,0.057,0,0.098,0,0.152
		c0,0.547,0.375,1.018,0.918,1.17c0.543,0.154,1.125-0.057,1.42-0.525c2.59-3.932,7.08-6.574,12.219-6.732v2.119
		c0,0.535,0.303,1.031,0.779,1.275c0.471,0.244,1.051,0.213,1.488-0.088l9.779-6.791c0.35-0.232,0.559-0.641,0.553-1.061
		c0-0.42-0.207-0.824-0.555-1.059l-9.789-6.695c-0.443-0.303-1.01-0.332-1.48-0.086c-0.482,0.246-0.775,0.744-0.775,1.271V9.021
		L15.979,9.021z"/>
</g>
<g id="pop_up" display="none">
</g>
<g id="guide">
</g>
</svg>
