<?xml version="1.0" encoding="utf-8"?>
<!-- Generator: Adobe Illustrator 15.1.0, SVG Export Plug-In . SVG Version: 6.00 Build 0)  -->
<!DOCTYPE svg PUBLIC "-//W3C//DTD SVG 1.1//EN" "http://www.w3.org/Graphics/SVG/1.1/DTD/svg11.dtd">
<svg version="1.1" id="圖層_1" xmlns="http://www.w3.org/2000/svg" xmlns:xlink="http://www.w3.org/1999/xlink" x="0px" y="0px"
	 width="32px" height="32px" viewBox="0 0 32 32" enable-background="new 0 0 32 32" xml:space="preserve">
<g>
	<g>
		<g opacity="0.67">
			<path fill="#66A034" d="M19.717,28.553c-0.633,0-1.269-0.234-1.769-0.707l-10.541-9.98c-0.515-0.485-0.806-1.162-0.806-1.871
				c0-0.707,0.29-1.383,0.806-1.869l10.541-9.979c1.03-0.979,2.664-0.935,3.641,0.099c0.979,1.033,0.934,2.663-0.1,3.64l-8.564,8.11
				l8.564,8.112c1.033,0.977,1.079,2.609,0.1,3.641C21.083,28.28,20.402,28.553,19.717,28.553z"/>
		</g>
		<g>
			<path fill="#FFFFFF" d="M19.717,28.103c-0.633,0-1.269-0.233-1.769-0.707l-10.541-9.98c-0.515-0.485-0.806-1.162-0.806-1.871
				c0-0.707,0.29-1.384,0.806-1.87l10.541-9.979c1.03-0.979,2.664-0.935,3.641,0.099c0.979,1.033,0.934,2.663-0.1,3.64l-8.564,8.11
				l8.564,8.112c1.033,0.978,1.079,2.609,0.1,3.642C21.083,27.83,20.402,28.103,19.717,28.103z"/>
		</g>
	</g>
</g>
</svg>
