<?xml version="1.0" encoding="utf-8"?>
<!-- Generator: Adobe Illustrator 16.0.0, SVG Export Plug-In . SVG Version: 6.00 Build 0)  -->
<!DOCTYPE svg PUBLIC "-//W3C//DTD SVG 1.1//EN" "http://www.w3.org/Graphics/SVG/1.1/DTD/svg11.dtd">
<svg version="1.1" id="圖層_1" xmlns="http://www.w3.org/2000/svg" xmlns:xlink="http://www.w3.org/1999/xlink" x="0px" y="0px"
	 width="30px" height="30px" viewBox="0 0 30 30" enable-background="new 0 0 30 30" xml:space="preserve">
<g>
	<g opacity="0.67">
		<path fill="#462301" d="M21.034,10.907c0,1.191-0.62,2.5-1.859,3.928c-1.036,1.19-2.223,2.177-3.554,2.956
			c-0.697-0.354-1.1-0.786-1.208-1.302c0.867-0.867,1.728-1.729,2.579-2.582c1.162-1.28,1.742-2.265,1.742-2.957
			c0-0.603-0.317-1.125-0.952-1.567c-0.636-0.441-1.316-0.662-2.044-0.662c-1.456,0-3.051,0.86-4.786,2.582
			c-0.697-0.412-1.13-0.824-1.301-1.236c0.635-1.059,1.518-1.897,2.648-2.515c1.146-0.618,2.338-0.927,3.578-0.927
			c1.348,0,2.523,0.368,3.531,1.103C20.491,8.568,21.034,9.627,21.034,10.907z M17.339,20.527c0,0.279-0.14,0.742-0.418,1.391
			c-0.264,0.646-0.511,1.073-0.744,1.279c-1.13-0.266-2.083-0.662-2.857-1.191c0.155-0.633,0.55-1.479,1.185-2.537
			C15.295,19.498,16.24,19.852,17.339,20.527z"/>
	</g>
	<g opacity="0.67">
		<path fill="#462301" d="M15.186,3.788c5.962,0,10.814,4.935,10.814,11c0,6.065-4.852,11-10.814,11
			c-5.964,0-10.815-4.935-10.815-11C4.371,8.722,9.222,3.788,15.186,3.788 M15.186,0.788c-7.629,0-13.815,6.269-13.815,14
			c0,7.733,6.187,14,13.815,14C22.814,28.788,29,22.521,29,14.787C29,7.057,22.814,0.788,15.186,0.788L15.186,0.788z"/>
	</g>
	<g>
		<path fill="#FFFFFF" d="M20.758,10.239c0,1.222-0.605,2.565-1.816,4.028c-1.015,1.223-2.172,2.233-3.474,3.032
			c-0.681-0.361-1.075-0.807-1.181-1.335c0.847-0.89,1.688-1.772,2.52-2.647c1.137-1.313,1.703-2.323,1.703-3.033
			c0-0.619-0.311-1.154-0.931-1.607c-0.621-0.453-1.287-0.679-1.998-0.679c-1.423,0-2.982,0.882-4.677,2.648
			c-0.68-0.421-1.104-0.844-1.271-1.267c0.621-1.086,1.483-1.946,2.588-2.58c1.12-0.633,2.285-0.95,3.496-0.95
			c1.317,0,2.467,0.377,3.451,1.131C20.229,7.84,20.758,8.927,20.758,10.239z M17.148,20.105c0,0.287-0.137,0.763-0.408,1.427
			c-0.258,0.663-0.5,1.102-0.727,1.313c-1.105-0.271-2.037-0.68-2.792-1.223c0.151-0.648,0.537-1.518,1.158-2.604
			C15.15,19.051,16.073,19.413,17.148,20.105z"/>
	</g>
	<g>
		<path fill="#FFFFFF" d="M14.815,3.788c5.962,0,10.815,4.832,10.815,10.771s-4.853,10.77-10.815,10.77
			C8.852,25.329,4,20.497,4,14.558S8.852,3.788,14.815,3.788 M14.815,0.788C7.187,0.788,1,6.954,1,14.558
			c0,7.608,6.186,13.77,13.815,13.77c7.628,0,13.815-6.162,13.815-13.77C28.63,6.954,22.445,0.788,14.815,0.788L14.815,0.788z"/>
	</g>
</g>
</svg>
