<?xml version="1.0" encoding="utf-8"?>
<!-- Generator: Adobe Illustrator 15.1.0, SVG Export Plug-In . SVG Version: 6.00 Build 0)  -->
<!DOCTYPE svg PUBLIC "-//W3C//DTD SVG 1.1//EN" "http://www.w3.org/Graphics/SVG/1.1/DTD/svg11.dtd" [
	<!ENTITY ns_flows "http://ns.adobe.com/Flows/1.0/">
	<!ENTITY ns_extend "http://ns.adobe.com/Extensibility/1.0/">
	<!ENTITY ns_ai "http://ns.adobe.com/AdobeIllustrator/10.0/">
	<!ENTITY ns_graphs "http://ns.adobe.com/Graphs/1.0/">
]>
<svg version="1.1" id="圖層_1" xmlns:x="&ns_extend;" xmlns:i="&ns_ai;" xmlns:graph="&ns_graphs;"
	 xmlns="http://www.w3.org/2000/svg" xmlns:xlink="http://www.w3.org/1999/xlink" xmlns:a="http://ns.adobe.com/AdobeSVGViewerExtensions/3.0/"
	 x="0px" y="0px" width="32px" height="32px" viewBox="0 0 32 32" enable-background="new 0 0 32 32" xml:space="preserve">
<g>
	<g>
		<g opacity="0.67"  a:adobe-blending-mode="multiply"  a:adobe-opacity-share="1">
			<path fill="#66A034"  a:adobe-blending-mode="normal"  a:adobe-opacity-share="0" d="M28.621,4.19H4.596
				c-0.905,0-1.638,0.851-1.638,1.9c0,1.047,0.732,1.898,1.638,1.898h24.025c0.904,0,1.637-0.851,1.637-1.898
				C30.258,5.041,29.525,4.19,28.621,4.19z"/>
		</g>
		<g>
			<path fill="#FFFFFF" d="M28.321,3.79H4.296c-0.905,0-1.638,0.851-1.638,1.9c0,1.047,0.732,1.898,1.638,1.898h24.025
				c0.904,0,1.637-0.851,1.637-1.898C29.958,4.641,29.226,3.79,28.321,3.79z"/>
		</g>
	</g>
	<g>
		<g opacity="0.67"  a:adobe-blending-mode="multiply"  a:adobe-opacity-share="1">
			<path fill="#66A034"  a:adobe-blending-mode="normal"  a:adobe-opacity-share="0" d="M28.621,14.644H4.596
				c-0.905,0-1.638,0.853-1.638,1.901c0,1.047,0.732,1.898,1.638,1.898h24.025c0.904,0,1.637-0.851,1.637-1.898
				C30.258,15.497,29.525,14.644,28.621,14.644z"/>
		</g>
		<g>
			<path fill="#FFFFFF" d="M28.321,14.244H4.296c-0.905,0-1.638,0.853-1.638,1.901c0,1.047,0.732,1.897,1.638,1.897h24.025
				c0.904,0,1.637-0.851,1.637-1.897C29.958,15.097,29.226,14.244,28.321,14.244z"/>
		</g>
	</g>
	<g>
		<g opacity="0.67"  a:adobe-blending-mode="multiply"  a:adobe-opacity-share="1">
			<path fill="#66A034"  a:adobe-blending-mode="normal"  a:adobe-opacity-share="0" d="M28.621,25.1H4.596
				c-0.905,0-1.638,0.85-1.638,1.9c0,1.047,0.732,1.898,1.638,1.898h24.025c0.904,0,1.637-0.852,1.637-1.898
				C30.258,25.949,29.525,25.1,28.621,25.1z"/>
		</g>
		<g>
			<path fill="#FFFFFF" d="M28.321,24.699H4.296c-0.905,0-1.638,0.85-1.638,1.9c0,1.047,0.732,1.898,1.638,1.898h24.025
				c0.904,0,1.637-0.852,1.637-1.898C29.958,25.549,29.226,24.699,28.321,24.699z"/>
		</g>
	</g>
</g>
</svg>
