<?xml version="1.0" encoding="utf-8"?>
<!-- Generator: Adobe Illustrator 15.1.0, SVG Export Plug-In . SVG Version: 6.00 Build 0)  -->
<!DOCTYPE svg PUBLIC "-//W3C//DTD SVG 1.1//EN" "http://www.w3.org/Graphics/SVG/1.1/DTD/svg11.dtd" [
	<!ENTITY ns_flows "http://ns.adobe.com/Flows/1.0/">
	<!ENTITY ns_extend "http://ns.adobe.com/Extensibility/1.0/">
	<!ENTITY ns_ai "http://ns.adobe.com/AdobeIllustrator/10.0/">
	<!ENTITY ns_graphs "http://ns.adobe.com/Graphs/1.0/">
]>
<svg version="1.1" id="圖層_1" xmlns:x="&ns_extend;" xmlns:i="&ns_ai;" xmlns:graph="&ns_graphs;"
	 xmlns="http://www.w3.org/2000/svg" xmlns:xlink="http://www.w3.org/1999/xlink" xmlns:a="http://ns.adobe.com/AdobeSVGViewerExtensions/3.0/"
	 x="0px" y="0px" width="32px" height="32px" viewBox="0 0 32 32" enable-background="new 0 0 32 32" xml:space="preserve">
<g>
	<g>
		<g opacity="0.67"  a:adobe-blending-mode="multiply"  a:adobe-opacity-share="1">
			<path fill="#66A034"  a:adobe-blending-mode="normal"  a:adobe-opacity-share="0" d="M20.303,29.973
				c-0.704,0-1.411-0.26-1.966-0.785L6.625,18.098c-0.572-0.539-0.895-1.291-0.895-2.079c0-0.785,0.322-1.537,0.895-2.077
				L18.337,2.854c1.146-1.088,2.96-1.039,4.045,0.11c1.089,1.148,1.038,2.959-0.11,4.044l-9.516,9.011l9.516,9.013
				c1.148,1.086,1.199,2.899,0.11,4.046C21.82,29.67,21.064,29.973,20.303,29.973z"/>
		</g>
		<g>
			<path fill="#FFFFFF" d="M20.303,29.473c-0.704,0-1.411-0.26-1.966-0.785L6.625,17.598c-0.572-0.539-0.895-1.291-0.895-2.079
				c0-0.785,0.322-1.537,0.895-2.077L18.337,2.354c1.146-1.088,2.96-1.039,4.045,0.11c1.089,1.148,1.038,2.959-0.11,4.044
				l-9.516,9.011l9.516,9.013c1.148,1.086,1.199,2.899,0.11,4.046C21.82,29.17,21.064,29.473,20.303,29.473z"/>
		</g>
	</g>
</g>
</svg>
