<?xml version="1.0" encoding="utf-8"?>
<!-- Generator: Adobe Illustrator 15.1.0, SVG Export Plug-In . SVG Version: 6.00 Build 0)  -->
<!DOCTYPE svg PUBLIC "-//W3C//DTD SVG 1.1//EN" "http://www.w3.org/Graphics/SVG/1.1/DTD/svg11.dtd" [
	<!ENTITY ns_flows "http://ns.adobe.com/Flows/1.0/">
	<!ENTITY ns_extend "http://ns.adobe.com/Extensibility/1.0/">
	<!ENTITY ns_ai "http://ns.adobe.com/AdobeIllustrator/10.0/">
	<!ENTITY ns_graphs "http://ns.adobe.com/Graphs/1.0/">
]>
<svg version="1.1" id="圖層_1" xmlns:x="&ns_extend;" xmlns:i="&ns_ai;" xmlns:graph="&ns_graphs;"
	 xmlns="http://www.w3.org/2000/svg" xmlns:xlink="http://www.w3.org/1999/xlink" xmlns:a="http://ns.adobe.com/AdobeSVGViewerExtensions/3.0/"
	 x="0px" y="0px" width="32px" height="32px" viewBox="0 0 32 32" enable-background="new 0 0 32 32" xml:space="preserve">
<g>
	<g opacity="0.67"  a:adobe-blending-mode="multiply"  a:adobe-opacity-share="1">
		<path fill-rule="evenodd" clip-rule="evenodd" fill="#66A034"  a:adobe-blending-mode="normal"  a:adobe-opacity-share="0" d="
			M23.128,23.253H9.758c-0.509,0-0.92,0.411-0.92,0.92c0,0.51,0.411,0.924,0.92,0.924h13.37c0.51,0,0.92-0.414,0.92-0.924
			C24.048,23.664,23.638,23.253,23.128,23.253z"/>
		<path fill-rule="evenodd" clip-rule="evenodd" fill="#66A034"  a:adobe-blending-mode="normal"  a:adobe-opacity-share="0" d="
			M23.128,18.641H9.758c-0.509,0-0.92,0.412-0.92,0.923c0,0.51,0.411,0.922,0.92,0.922h13.37c0.51,0,0.92-0.412,0.92-0.922
			C24.048,19.053,23.638,18.641,23.128,18.641z"/>
		<path fill-rule="evenodd" clip-rule="evenodd" fill="#66A034"  a:adobe-blending-mode="normal"  a:adobe-opacity-share="0" d="
			M24.409,2.045h-0.841h-1.503h-4.471h-3.16H6.991H5.535H4.788c-1.017,0-1.842,0.825-1.842,1.845v24.433
			c0,1.018,0.825,1.845,1.842,1.845h23.308c1.02,0,1.847-0.827,1.847-1.845V8.037L24.409,2.045z M13.535,2.864
			c-0.005,0.035-0.021,0.066-0.021,0.102v6.199c0,0.508,0.412,0.921,0.921,0.921h3.16c0.51,0,0.922-0.413,0.922-0.921V2.966
			c0-0.036-0.017-0.067-0.02-0.102h3.568c0,1.829,0,6.273,0,8.179c0,0.602-0.695,1.146-1.242,1.146c-2.702,0-10.452,0-13.005,0
			c-0.527,0-0.827-0.269-0.827-0.922c0-1.917,0-6.532,0-8.403H13.535z M26.354,26.479c0,0.511-0.403,0.921-0.899,0.921H7.895
			c-0.5,0-0.903-0.41-0.903-0.921V15.876c0-0.509,0.403-0.922,0.903-0.922h17.56c0.496,0,0.899,0.414,0.899,0.922V26.479z"/>
	</g>
	<g>
		<g>
			<path fill-rule="evenodd" clip-rule="evenodd" fill="#FFFFFF" d="M22.828,22.953H9.458c-0.509,0-0.92,0.411-0.92,0.92
				c0,0.51,0.411,0.924,0.92,0.924h13.37c0.51,0,0.92-0.414,0.92-0.924C23.748,23.364,23.338,22.953,22.828,22.953z"/>
			<path fill-rule="evenodd" clip-rule="evenodd" fill="#FFFFFF" d="M22.828,18.341H9.458c-0.509,0-0.92,0.412-0.92,0.923
				c0,0.51,0.411,0.922,0.92,0.922h13.37c0.51,0,0.92-0.412,0.92-0.922C23.748,18.753,23.338,18.341,22.828,18.341z"/>
			<path fill-rule="evenodd" clip-rule="evenodd" fill="#FFFFFF" d="M24.109,1.746h-0.841h-1.503h-4.471h-3.16H6.691H5.235H4.488
				c-1.017,0-1.842,0.825-1.842,1.845v24.433c0,1.018,0.825,1.845,1.842,1.845h23.308c1.02,0,1.847-0.827,1.847-1.845V7.737
				L24.109,1.746z M13.235,2.564C13.23,2.6,13.214,2.631,13.214,2.667v6.199c0,0.508,0.412,0.921,0.921,0.921h3.16
				c0.51,0,0.922-0.413,0.922-0.921V2.667c0-0.036-0.017-0.067-0.02-0.102h3.568c0,1.829,0,6.273,0,8.179
				c0,0.602-0.695,1.146-1.242,1.146c-2.702,0-10.452,0-13.005,0c-0.527,0-0.827-0.269-0.827-0.922c0-1.917,0-6.532,0-8.403H13.235z
				 M26.054,26.179c0,0.511-0.403,0.921-0.899,0.921H7.595c-0.5,0-0.903-0.41-0.903-0.921V15.576c0-0.509,0.403-0.922,0.903-0.922
				h17.56c0.496,0,0.899,0.414,0.899,0.922V26.179z"/>
		</g>
	</g>
</g>
</svg>
