<?xml version="1.0" encoding="utf-8"?>
<!-- Generator: Adobe Illustrator 15.1.0, SVG Export Plug-In . SVG Version: 6.00 Build 0)  -->
<!DOCTYPE svg PUBLIC "-//W3C//DTD SVG 1.1//EN" "http://www.w3.org/Graphics/SVG/1.1/DTD/svg11.dtd" [
	<!ENTITY ns_flows "http://ns.adobe.com/Flows/1.0/">
	<!ENTITY ns_extend "http://ns.adobe.com/Extensibility/1.0/">
	<!ENTITY ns_ai "http://ns.adobe.com/AdobeIllustrator/10.0/">
	<!ENTITY ns_graphs "http://ns.adobe.com/Graphs/1.0/">
]>
<svg version="1.1" id="圖層_1" xmlns:x="&ns_extend;" xmlns:i="&ns_ai;" xmlns:graph="&ns_graphs;"
	 xmlns="http://www.w3.org/2000/svg" xmlns:xlink="http://www.w3.org/1999/xlink" xmlns:a="http://ns.adobe.com/AdobeSVGViewerExtensions/3.0/"
	 x="0px" y="0px" width="32px" height="32px" viewBox="0 0 32 32" enable-background="new 0 0 32 32" xml:space="preserve">
<g>
	<g>
		<g opacity="0.67"  a:adobe-blending-mode="multiply"  a:adobe-opacity-share="1">
			<path fill="#66A034"  a:adobe-blending-mode="normal"  a:adobe-opacity-share="0" d="M29.957,27.173l-6.239-6.704
				c1.6-1.942,2.563-4.432,2.563-7.142c0-6.213-5.054-11.266-11.266-11.266c-6.211,0-11.267,5.053-11.267,11.266
				c0,6.211,5.056,11.266,11.267,11.266c2.235,0,4.315-0.664,6.067-1.791l6.302,6.768c0.348,0.371,0.817,0.559,1.288,0.559
				c0.43,0,0.857-0.154,1.197-0.47C30.58,28.997,30.619,27.884,29.957,27.173z M6.983,13.327c0-4.429,3.603-8.031,8.031-8.031
				c4.428,0,8.03,3.602,8.03,8.031c0,4.427-3.603,8.03-8.03,8.03C10.586,21.356,6.983,17.754,6.983,13.327z"/>
		</g>
		<g>
			<path fill="#FFFFFF" d="M29.657,26.873l-6.239-6.704c1.6-1.942,2.563-4.432,2.563-7.142c0-6.213-5.054-11.266-11.266-11.266
				c-6.211,0-11.267,5.053-11.267,11.266c0,6.211,5.056,11.266,11.267,11.266c2.235,0,4.315-0.664,6.067-1.791l6.302,6.768
				c0.348,0.371,0.817,0.559,1.288,0.559c0.43,0,0.857-0.154,1.197-0.47C30.28,28.697,30.319,27.584,29.657,26.873z M6.684,13.027
				c0-4.429,3.603-8.031,8.031-8.031c4.428,0,8.03,3.602,8.03,8.031c0,4.427-3.603,8.03-8.03,8.03
				C10.286,21.057,6.684,17.454,6.684,13.027z"/>
		</g>
	</g>
</g>
</svg>
