<?xml version="1.0" encoding="utf-8"?>
<!-- Generator: Adobe Illustrator 15.1.0, SVG Export Plug-In . SVG Version: 6.00 Build 0)  -->
<!DOCTYPE svg PUBLIC "-//W3C//DTD SVG 1.1//EN" "http://www.w3.org/Graphics/SVG/1.1/DTD/svg11.dtd" [
	<!ENTITY ns_flows "http://ns.adobe.com/Flows/1.0/">
	<!ENTITY ns_extend "http://ns.adobe.com/Extensibility/1.0/">
	<!ENTITY ns_ai "http://ns.adobe.com/AdobeIllustrator/10.0/">
	<!ENTITY ns_graphs "http://ns.adobe.com/Graphs/1.0/">
]>
<svg version="1.1" id="圖層_1" xmlns:x="&ns_extend;" xmlns:i="&ns_ai;" xmlns:graph="&ns_graphs;"
	 xmlns="http://www.w3.org/2000/svg" xmlns:xlink="http://www.w3.org/1999/xlink" xmlns:a="http://ns.adobe.com/AdobeSVGViewerExtensions/3.0/"
	 x="0px" y="0px" width="32px" height="32px" viewBox="0 0 32 32" enable-background="new 0 0 32 32" xml:space="preserve">
<g>
	<g opacity="0.75"  a:adobe-blending-mode="multiply"  a:adobe-opacity-share="1">
		<path fill-rule="evenodd" clip-rule="evenodd" fill="#649A34"  a:adobe-blending-mode="normal"  a:adobe-opacity-share="0" d="
			M10.816,8.452l-2.47,2.722h-3.6v15.002h18.604v-5.459l2.738-1.963v10.201H2.002V8.452H10.816z"/>
		<path fill-rule="evenodd" clip-rule="evenodd" fill="#649A34"  a:adobe-blending-mode="normal"  a:adobe-opacity-share="0" d="
			M21.261,15.034v5.042l9.729-8.224l-9.733-8.157v4.907c0,0-12.81-0.202-12.878,11.408C8.379,20.009,12.936,13.848,21.261,15.034z"
			/>
	</g>
	<g>
		<g>
			<path fill-rule="evenodd" clip-rule="evenodd" fill="#FFFFFF" d="M10.517,8.152l-2.47,2.722h-3.6v15.002h18.604v-5.459
				l2.738-1.963v10.201H1.702V8.152H10.517z"/>
			<path fill-rule="evenodd" clip-rule="evenodd" fill="#FFFFFF" d="M20.961,14.734v5.042l9.729-8.224l-9.733-8.157v4.907
				c0,0-12.81-0.202-12.878,11.408C8.079,19.709,12.636,13.548,20.961,14.734z"/>
		</g>
	</g>
</g>
</svg>
