<?xml version="1.0" encoding="utf-8"?>
<!-- Generator: Adobe Illustrator 16.0.0, SVG Export Plug-In . SVG Version: 6.00 Build 0)  -->
<!DOCTYPE svg PUBLIC "-//W3C//DTD SVG 1.1//EN" "http://www.w3.org/Graphics/SVG/1.1/DTD/svg11.dtd">
<svg version="1.1" id="圖層_1" xmlns="http://www.w3.org/2000/svg" xmlns:xlink="http://www.w3.org/1999/xlink" x="0px" y="0px"
	 width="20px" height="20px" viewBox="0 0 20 20" enable-background="new 0 0 20 20" xml:space="preserve">
<path fill="#BDBDBD" stroke="#424242" stroke-width="0.5" stroke-linecap="round" stroke-linejoin="round" stroke-miterlimit="10" d="
	M17.887,10.631c0-0.407-0.082-0.776-0.164-1.132l-0.035-0.16l0.01,0.003l0.107-0.119c0.305-0.338,0.354-1.788,0.354-1.802
	c0-0.493-0.005-1.066-0.06-1.615c-0.08-0.79-0.479-1.6-1.156-2.314c-0.076-0.08-0.279-0.293-0.354-0.446l-0.074-0.143h-0.063
	c-0.012-0.36-0.084-0.75-0.434-1.031c-0.308-0.248-0.611-0.22-0.875-0.207l-0.199,0.006L14.881,1.72
	c-0.018,0.013-0.038,0.025-0.057,0.032l-0.131,0.053l-0.049,0.012c-0.271-0.244-0.625-0.363-1.08-0.363
	c-0.41,0-0.842,0.099-1.223,0.186c-0.15,0.035-0.294,0.068-0.428,0.092c-0.363,0.067-0.666,0.201-0.958,0.331
	c-0.123,0.054-0.247,0.109-0.378,0.161l-0.264,0.101C9.847,2.503,9.363,2.688,8.943,2.969C8.86,3.025,8.764,3.08,8.665,3.136
	C8.261,3.368,7.759,3.655,7.689,4.154L7.631,4.23C7.5,4.244,7.387,4.285,7.285,4.322C7.224,4.344,7.163,4.367,7.1,4.379L6.635,4.473
	C6.563,4.487,6.496,4.506,6.432,4.526c-0.086,0.026-0.154,0.047-0.23,0.047c-0.114,0-0.197,0.071-0.236,0.105L5.854,4.774
	l0.016,0.08L5.823,4.879L5.81,5.011C5.748,5.63,6.358,5.836,6.804,5.987c0.63,0.212,0.75,0.318,0.675,0.593L7.458,6.663
	C7.383,6.945,7.291,7.295,7.072,7.405C6.895,7.494,6.717,7.569,6.54,7.644c-0.399,0.169-0.812,0.344-1.188,0.66
	C5.075,8.537,4.761,8.881,4.839,9.195c0.025,0.098,0.109,0.271,0.4,0.333c0.292,0.06,0.584,0.162,0.866,0.304
	c0.282,0.141,0.288,0.19,0.192,0.405c-0.058,0.126-0.076,0.26-0.092,0.377c-0.01,0.069-0.024,0.175-0.03,0.192l-0.081-0.002
	c-0.815-0.115-1.164,0.359-1.508,0.813c-0.024,0.031-0.048,0.064-0.073,0.097c-0.074-0.114-0.125-0.248-0.175-0.379
	c-0.121-0.317-0.287-0.751-0.86-0.751c-0.085,0-0.181,0.01-0.25,0.025l-0.063,0.006c-0.438,0.008-0.972,0.191-1.208,0.591
	c-0.115,0.194-0.203,0.517,0.031,0.94c0.345,0.625,0.643,1.166,1.623,1.213l0.11,0.004c0.844-0.002,1.218-0.486,1.651-1.049
	l0.044-0.058c0.139-0.18,0.308-0.282,0.519-0.321l0.031,0.033c-0.003,0.426-0.007,1.006,0.636,1.229
	c0.509,0.176,0.967,0.199,1.428,0.201c-0.005,0.084-0.029,0.229-0.045,0.336c-0.045,0.279-0.071,0.459-0.043,0.563
	c-0.011,0.031-0.088,0.104-0.129,0.141c-0.052,0.049-0.1,0.096-0.132,0.137c-0.795,0.99-0.899,2.249-0.901,3.234v0.182l0.173,0.056
	c1.021,0.333,2.083,0.502,3.156,0.502c2.528,0,4.956-0.937,6.834-2.636l0.149-0.137L16.991,15.6
	c-0.035-0.062-0.067-0.123-0.099-0.188c-0.084-0.165-0.178-0.352-0.334-0.514c-0.119-0.123-0.256-0.263-0.356-0.404
	c-0.171-0.241-0.466-0.501-0.759-0.662l-0.074-0.044l-0.047-0.089c-0.022-0.088-0.03-0.184-0.038-0.271l-0.017-0.142
	c-0.039-0.343-0.09-0.765-0.347-1.084l0.021-0.05l-0.008-0.02c0.137-0.098,0.246-0.229,0.346-0.348
	c0.037-0.045,0.072-0.09,0.109-0.131c0.098-0.105,0.178-0.225,0.289-0.379c0.022-0.022,0.051-0.051,0.077-0.086l0.003,0.002
	l0.137-0.043c0.39,0,0.797,0.561,1.096,0.97c0.107,0.147,0.207,0.282,0.296,0.385l0.097,0.099l0.25-0.018l0.074-0.078
	c0.182-0.193,0.313-0.951,0.305-1.084c-0.009-0.138-0.037-0.275-0.066-0.416C17.914,10.873,17.887,10.744,17.887,10.631z"/>
</svg>
