<?xml version="1.0" encoding="utf-8"?>
<!-- Generator: Adobe Illustrator 15.1.0, SVG Export Plug-In . SVG Version: 6.00 Build 0)  -->
<!DOCTYPE svg PUBLIC "-//W3C//DTD SVG 1.1//EN" "http://www.w3.org/Graphics/SVG/1.1/DTD/svg11.dtd" [
	<!ENTITY ns_flows "http://ns.adobe.com/Flows/1.0/">
	<!ENTITY ns_extend "http://ns.adobe.com/Extensibility/1.0/">
	<!ENTITY ns_ai "http://ns.adobe.com/AdobeIllustrator/10.0/">
	<!ENTITY ns_graphs "http://ns.adobe.com/Graphs/1.0/">
]>
<svg version="1.1" id="圖層_1" xmlns:x="&ns_extend;" xmlns:i="&ns_ai;" xmlns:graph="&ns_graphs;"
	 xmlns="http://www.w3.org/2000/svg" xmlns:xlink="http://www.w3.org/1999/xlink" xmlns:a="http://ns.adobe.com/AdobeSVGViewerExtensions/3.0/"
	 x="0px" y="0px" width="30px" height="30px" viewBox="0 0 30 30" enable-background="new 0 0 30 30" xml:space="preserve">
<path fill="#888888" d="M28.177,11.778h-9.947V1.84c0-0.89-0.724-1.61-1.613-1.61h-3.363c-0.889,0-1.612,0.72-1.612,1.61v9.938
	H1.829c-0.898,0-1.621,0.723-1.621,1.613v3.357c0,0.888,0.723,1.607,1.621,1.607h9.812v9.805c0,0.891,0.723,1.609,1.612,1.609h3.363
	c0.89,0,1.613-0.719,1.613-1.609v-9.805h9.947c0.893,0,1.615-0.72,1.615-1.607v-3.357C29.792,12.5,29.069,11.778,28.177,11.778z"/>
</svg>
