<?xml version="1.0" encoding="utf-8"?>
<!-- Generator: Adobe Illustrator 16.0.0, SVG Export Plug-In . SVG Version: 6.00 Build 0)  -->
<!DOCTYPE svg PUBLIC "-//W3C//DTD SVG 1.1//EN" "http://www.w3.org/Graphics/SVG/1.1/DTD/svg11.dtd">
<svg version="1.1" id="圖層_1" xmlns="http://www.w3.org/2000/svg" xmlns:xlink="http://www.w3.org/1999/xlink" x="0px" y="0px"
	 width="18px" height="18px" viewBox="-411.5 386.5 18 18" enable-background="new -411.5 386.5 18 18" xml:space="preserve">
<g>
	<path fill="#747374" d="M-395.713,389.415h-13.576c-0.951,0-1.711,0.76-1.711,1.712v8.746c0,0.951,0.76,1.712,1.711,1.712h13.614
		c0.95,0,1.711-0.761,1.673-1.674v-8.784C-394.001,390.175-394.764,389.415-395.713,389.415z M-409.289,390.556h13.576
		c0.305,0,0.57,0.265,0.57,0.571v0.951h-14.715v-0.951C-409.859,390.82-409.593,390.556-409.289,390.556z M-395.713,400.48h-13.576
		c-0.304,0-0.57-0.266-0.57-0.569v-5.706h14.715v5.706C-395.144,400.215-395.408,400.48-395.713,400.48z"/>
	<path fill="#747374" d="M-398.196,396.084c-0.416,0-0.789,0.167-1.074,0.429c-0.286-0.262-0.656-0.429-1.072-0.429
		c-0.89,0-1.609,0.721-1.609,1.609s0.719,1.608,1.609,1.608c0.416,0,0.786-0.166,1.072-0.427c0.285,0.261,0.658,0.427,1.074,0.427
		c0.887,0,1.608-0.72,1.608-1.608S-397.309,396.084-398.196,396.084z"/>
	<path fill="#747374" d="M-402.801,395.652h-5.835c-0.179,0-0.301,0.119-0.301,0.298c0,0.181,0.122,0.301,0.301,0.301h5.835
		c0.18,0,0.299-0.178,0.299-0.301C-402.501,395.771-402.621,395.652-402.801,395.652z"/>
</g>
</svg>
