<?xml version="1.0" encoding="utf-8"?>
<!-- Generator: Adobe Illustrator 16.0.0, SVG Export Plug-In . SVG Version: 6.00 Build 0)  -->
<!DOCTYPE svg PUBLIC "-//W3C//DTD SVG 1.1//EN" "http://www.w3.org/Graphics/SVG/1.1/DTD/svg11.dtd">
<svg version="1.1" id="圖層_1" xmlns="http://www.w3.org/2000/svg" xmlns:xlink="http://www.w3.org/1999/xlink" x="0px" y="0px"
	 width="18px" height="18px" viewBox="-411.5 346.5 18 18" enable-background="new -411.5 346.5 18 18" xml:space="preserve">
<g>
	<g>
		<path fill="#747374" d="M-402.501,363.999c-4.686,0-8.499-3.816-8.499-8.504c0-4.683,3.813-8.494,8.499-8.494
			c2.28,0,4.417,0.887,6.025,2.494c1.602,1.607,2.481,3.736,2.476,6.003C-394,360.183-397.813,363.999-402.501,363.999z
			 M-402.501,349.504c-3.306,0-5.994,2.688-5.994,5.991c0,3.311,2.688,6.001,5.994,6.001c3.308,0,5.996-2.69,5.996-6.001
			c0.005-1.601-0.614-3.1-1.741-4.229C-399.382,350.129-400.891,349.504-402.501,349.504z"/>
	</g>
	<path fill="#747374" d="M-400.482,358.285c-0.304,0.372-0.71,0.62-1.172,0.751c-0.208,0.061-0.298,0.156-0.288,0.371
		c0.009,0.207,0,0.416,0,0.624c0,0.188-0.099,0.287-0.28,0.287c-0.226,0.01-0.441,0.01-0.668,0c-0.198,0-0.287-0.119-0.287-0.308
		v-0.449c0-0.339-0.013-0.347-0.337-0.396c-0.416-0.069-0.818-0.162-1.196-0.345c-0.297-0.154-0.327-0.223-0.235-0.536
		c0.057-0.227,0.128-0.468,0.196-0.693c0.078-0.267,0.158-0.297,0.393-0.167c0.419,0.218,0.862,0.332,1.327,0.393
		c0.295,0.043,0.593,0.013,0.867-0.115c0.516-0.23,0.604-0.831,0.161-1.187c-0.149-0.122-0.317-0.217-0.496-0.287
		c-0.455-0.198-0.928-0.358-1.352-0.612c-0.693-0.414-1.137-0.991-1.09-1.841c0.063-0.961,0.606-1.552,1.474-1.866
		c0.364-0.127,0.364-0.127,0.364-0.506v-0.383c0.012-0.287,0.06-0.337,0.336-0.347h0.268c0.604,0,0.604,0,0.604,0.604
		c0,0.426,0,0.426,0.426,0.493c0.327,0.048,0.641,0.147,0.936,0.274c0.171,0.069,0.228,0.19,0.178,0.369
		c-0.077,0.256-0.146,0.524-0.225,0.777c-0.079,0.248-0.161,0.278-0.396,0.169c-0.476-0.229-0.969-0.324-1.494-0.295
		c-0.139,0.008-0.267,0.029-0.395,0.078c-0.455,0.198-0.524,0.692-0.138,1.002c0.198,0.156,0.414,0.265,0.639,0.363
		c0.398,0.163,0.802,0.325,1.181,0.532C-399.957,355.734-399.63,357.246-400.482,358.285L-400.482,358.285z"/>
	<path fill="#747374" d="M-402.5,355.5"/>
</g>
</svg>
