<?xml version="1.0" encoding="utf-8"?>
<!-- Generator: Adobe Illustrator 15.1.0, SVG Export Plug-In . SVG Version: 6.00 Build 0)  -->
<!DOCTYPE svg PUBLIC "-//W3C//DTD SVG 1.1//EN" "http://www.w3.org/Graphics/SVG/1.1/DTD/svg11.dtd" [
	<!ENTITY ns_flows "http://ns.adobe.com/Flows/1.0/">
	<!ENTITY ns_extend "http://ns.adobe.com/Extensibility/1.0/">
	<!ENTITY ns_ai "http://ns.adobe.com/AdobeIllustrator/10.0/">
	<!ENTITY ns_graphs "http://ns.adobe.com/Graphs/1.0/">
]>
<svg version="1.1" id="圖層_1" xmlns:x="&ns_extend;" xmlns:i="&ns_ai;" xmlns:graph="&ns_graphs;"
	 xmlns="http://www.w3.org/2000/svg" xmlns:xlink="http://www.w3.org/1999/xlink" xmlns:a="http://ns.adobe.com/AdobeSVGViewerExtensions/3.0/"
	 x="0px" y="0px" width="18px" height="18px" viewBox="0 0 18 18" enable-background="new 0 0 18 18" xml:space="preserve">
<g>
	<rect x="1.293" y="15.754" fill="#747374" width="15.414" height="0.518"/>
	<rect x="3.017" y="10.817" fill="#747374" width="3.88" height="4.552"/>
	<rect x="7.56" y="6.853" fill="#747374" width="3.877" height="8.517"/>
	<rect x="12.098" y="2.302" fill="#747374" width="3.88" height="13.067"/>
	<rect x="1.293" y="2.302" fill="#747374" width="0.514" height="0.516"/>
	<rect x="1.293" y="3.559" fill="#747374" width="0.514" height="0.515"/>
	<rect x="1.293" y="4.813" fill="#747374" width="0.514" height="0.515"/>
	<rect x="1.293" y="6.068" fill="#747374" width="0.514" height="0.516"/>
	<rect x="1.293" y="7.323" fill="#747374" width="0.514" height="0.515"/>
	<rect x="1.293" y="8.578" fill="#747374" width="0.514" height="0.516"/>
	<rect x="1.293" y="9.834" fill="#747374" width="0.514" height="0.515"/>
	<rect x="1.293" y="11.089" fill="#747374" width="0.514" height="0.515"/>
	<rect x="1.293" y="12.344" fill="#747374" width="0.514" height="0.514"/>
	<rect x="1.293" y="13.6" fill="#747374" width="0.514" height="0.512"/>
	<rect x="1.293" y="14.852" fill="#747374" width="0.514" height="0.518"/>
</g>
</svg>
