<?xml version="1.0" encoding="utf-8"?>
<!-- Generator: Adobe Illustrator 15.1.0, SVG Export Plug-In . SVG Version: 6.00 Build 0)  -->
<!DOCTYPE svg PUBLIC "-//W3C//DTD SVG 1.1//EN" "http://www.w3.org/Graphics/SVG/1.1/DTD/svg11.dtd" [
	<!ENTITY ns_flows "http://ns.adobe.com/Flows/1.0/">
	<!ENTITY ns_extend "http://ns.adobe.com/Extensibility/1.0/">
	<!ENTITY ns_ai "http://ns.adobe.com/AdobeIllustrator/10.0/">
	<!ENTITY ns_graphs "http://ns.adobe.com/Graphs/1.0/">
]>
<svg version="1.1" id="圖層_1" xmlns:x="&ns_extend;" xmlns:i="&ns_ai;" xmlns:graph="&ns_graphs;"
	 xmlns="http://www.w3.org/2000/svg" xmlns:xlink="http://www.w3.org/1999/xlink" xmlns:a="http://ns.adobe.com/AdobeSVGViewerExtensions/3.0/"
	 x="0px" y="0px" width="18px" height="18px" viewBox="0 0 18 18" enable-background="new 0 0 18 18" xml:space="preserve">
<g>
	<path fill="#747374" d="M15.033,1.51H7.146c-1.138,0-2.063,0.924-2.063,2.062v0.449h1.192c0.025-0.735,0.627-1.324,1.369-1.324
		h6.889c0.76,0,1.376,0.616,1.376,1.375v6.89c0,0.759-0.616,1.375-1.376,1.375h-0.588v1.187h1.087c1.139,0,2.063-0.926,2.063-2.063
		V3.572C17.096,2.435,16.172,1.51,15.033,1.51z"/>
	<path fill="#747374" d="M10.854,5.052H2.968c-1.141,0-2.063,0.923-2.063,2.062v7.889c0,1.137,0.923,2.063,2.063,2.063h7.886
		c1.139,0,2.063-0.926,2.063-2.063V7.113C12.916,5.975,11.992,5.052,10.854,5.052z M11.731,14.504c0,0.756-0.617,1.373-1.377,1.373
		H3.466c-0.761,0-1.374-0.617-1.374-1.373V7.612c0-0.759,0.613-1.375,1.374-1.375h6.889c0.76,0,1.377,0.616,1.377,1.375V14.504z"/>
	<path fill="#747374" d="M9.526,7.991H4.318c-0.284,0-0.513,0.229-0.513,0.514c0,0.284,0.229,0.514,0.513,0.514h5.208
		c0.282,0,0.514-0.23,0.514-0.514C10.04,8.221,9.809,7.991,9.526,7.991z"/>
	<path fill="#747374" d="M9.526,10.564H4.318c-0.284,0-0.513,0.23-0.513,0.515s0.229,0.514,0.513,0.514h5.208
		c0.282,0,0.514-0.229,0.514-0.514S9.809,10.564,9.526,10.564z"/>
	<path fill="#747374" d="M9.526,13.141H4.318c-0.284,0-0.513,0.229-0.513,0.516c0,0.283,0.229,0.512,0.513,0.512h5.208
		c0.282,0,0.514-0.229,0.514-0.512C10.04,13.369,9.809,13.141,9.526,13.141z"/>
</g>
</svg>
