<?xml version="1.0" encoding="utf-8"?>
<!-- Generator: Adobe Illustrator 15.1.0, SVG Export Plug-In . SVG Version: 6.00 Build 0)  -->
<!DOCTYPE svg PUBLIC "-//W3C//DTD SVG 1.1//EN" "http://www.w3.org/Graphics/SVG/1.1/DTD/svg11.dtd">
<svg version="1.1" id="圖層_1" xmlns="http://www.w3.org/2000/svg" xmlns:xlink="http://www.w3.org/1999/xlink" x="0px" y="0px"
	 width="25px" height="25px" viewBox="0 0 25 25" enable-background="new 0 0 25 25" xml:space="preserve">
<linearGradient id="SVGID_1_" gradientUnits="userSpaceOnUse" x1="393.6934" y1="-246.7563" x2="393.6934" y2="-267.2592" gradientTransform="matrix(1 0 0 -1 -380.96 -241.6602)">
	<stop  offset="0" style="stop-color:#FFFFFF"/>
	<stop  offset="0.3083" style="stop-color:#FDFDFD"/>
	<stop  offset="0.5518" style="stop-color:#F5F5F5"/>
	<stop  offset="0.7731" style="stop-color:#E6E6E6"/>
	<stop  offset="0.9801" style="stop-color:#D2D3D2"/>
	<stop  offset="1" style="stop-color:#CFD0D0"/>
</linearGradient>
<rect x="4.005" y="4.003" fill="url(#SVGID_1_)" stroke="#A5A5A4" stroke-miterlimit="10" width="17.457" height="17.457"/>
<path fill="#898989" d="M14.349,12.627l3.597-3.624c0.485-0.492,0.485-1.284-0.007-1.772c-0.491-0.486-1.284-0.484-1.771,0.007
	l-3.583,3.61l-3.583-3.61C8.514,6.749,7.723,6.746,7.231,7.232c-0.489,0.488-0.492,1.28-0.006,1.771l3.597,3.625L7.225,16.25
	c-0.486,0.492-0.483,1.284,0.006,1.772c0.245,0.24,0.564,0.363,0.884,0.363c0.323,0,0.642-0.123,0.89-0.369l3.581-3.611l3.582,3.611
	c0.246,0.246,0.567,0.369,0.889,0.369c0.319,0,0.639-0.121,0.883-0.363c0.492-0.488,0.492-1.28,0.007-1.772L14.349,12.627z"/>
</svg>
