<?xml version="1.0" encoding="utf-8"?>
<!-- Generator: Adobe Illustrator 15.1.0, SVG Export Plug-In . SVG Version: 6.00 Build 0)  -->
<!DOCTYPE svg PUBLIC "-//W3C//DTD SVG 1.1//EN" "http://www.w3.org/Graphics/SVG/1.1/DTD/svg11.dtd">
<svg version="1.1" id="圖層_1" xmlns="http://www.w3.org/2000/svg" xmlns:xlink="http://www.w3.org/1999/xlink" x="0px" y="0px"
	 width="25px" height="25px" viewBox="0 0 25 25" enable-background="new 0 0 25 25" xml:space="preserve">
<linearGradient id="SVGID_1_" gradientUnits="userSpaceOnUse" x1="393.6934" y1="-247.668" x2="393.6934" y2="-265.7232" gradientTransform="matrix(1 0 0 -1 -380.96 -241.6602)">
	<stop  offset="0" style="stop-color:#FFFFFF"/>
	<stop  offset="0.3083" style="stop-color:#FDFDFD"/>
	<stop  offset="0.5518" style="stop-color:#F5F5F5"/>
	<stop  offset="0.7731" style="stop-color:#E6E6E6"/>
	<stop  offset="0.9801" style="stop-color:#D2D3D2"/>
	<stop  offset="1" style="stop-color:#CFD0D0"/>
</linearGradient>
<rect x="5.047" y="5.045" fill="url(#SVGID_1_)" stroke="#A5A5A4" stroke-miterlimit="10" width="15.373" height="15.373"/>
<path fill="#898989" d="M14.156,12.64l3.167-3.191c0.428-0.433,0.428-1.13-0.006-1.56c-0.433-0.428-1.131-0.426-1.561,0.006
	l-3.155,3.179L9.447,7.894C9.018,7.463,8.321,7.46,7.888,7.889c-0.431,0.43-0.433,1.127-0.005,1.56l3.167,3.192L7.883,15.83
	c-0.428,0.434-0.426,1.131,0.005,1.561c0.215,0.212,0.497,0.32,0.778,0.32c0.284,0,0.565-0.108,0.784-0.325l3.153-3.181l3.154,3.181
	c0.217,0.217,0.5,0.325,0.783,0.325c0.281,0,0.563-0.106,0.777-0.32c0.434-0.43,0.434-1.127,0.006-1.561L14.156,12.64z"/>
</svg>
