<?xml version="1.0" encoding="utf-8"?>
<!-- Generator: Adobe Illustrator 15.1.0, SVG Export Plug-In . SVG Version: 6.00 Build 0)  -->
<!DOCTYPE svg PUBLIC "-//W3C//DTD SVG 1.1//EN" "http://www.w3.org/Graphics/SVG/1.1/DTD/svg11.dtd">
<svg version="1.1" id="圖層_1" xmlns="http://www.w3.org/2000/svg" xmlns:xlink="http://www.w3.org/1999/xlink" x="0px" y="0px"
	 width="25px" height="25px" viewBox="0 0 25 25" enable-background="new 0 0 25 25" xml:space="preserve">
<linearGradient id="SVGID_1_" gradientUnits="userSpaceOnUse" x1="11.9995" y1="3.8154" x2="11.9995" y2="28.4794">
	<stop  offset="0" style="stop-color:#FFFFFF"/>
	<stop  offset="0.3083" style="stop-color:#FDFDFD"/>
	<stop  offset="0.5518" style="stop-color:#F5F5F5"/>
	<stop  offset="0.7731" style="stop-color:#E6E6E6"/>
	<stop  offset="0.9801" style="stop-color:#D2D3D2"/>
	<stop  offset="1" style="stop-color:#CFD0D0"/>
</linearGradient>
<rect x="1.5" y="2.5" fill="url(#SVGID_1_)" stroke="#A5A5A4" stroke-miterlimit="10" width="21" height="21"/>
<path fill="#898989" d="M13.944,12.875l4.325-4.36c0.585-0.591,0.584-1.544-0.007-2.131c-0.591-0.585-1.545-0.582-2.132,0.008
	l-4.309,4.343l-4.31-4.343C6.924,5.803,5.972,5.8,5.381,6.385c-0.589,0.587-0.592,1.54-0.007,2.131l4.326,4.36l-4.326,4.357
	c-0.585,0.591-0.582,1.545,0.007,2.132c0.294,0.29,0.678,0.437,1.063,0.437c0.388,0,0.772-0.147,1.07-0.445l4.308-4.343l4.308,4.343
	c0.297,0.298,0.682,0.445,1.069,0.445c0.385,0,0.769-0.146,1.063-0.437c0.591-0.587,0.592-1.541,0.007-2.132L13.944,12.875z"/>
</svg>
