<?xml version="1.0" encoding="utf-8"?>
<!-- Generator: Adobe Illustrator 15.1.0, SVG Export Plug-In . SVG Version: 6.00 Build 0)  -->
<!DOCTYPE svg PUBLIC "-//W3C//DTD SVG 1.1//EN" "http://www.w3.org/Graphics/SVG/1.1/DTD/svg11.dtd">
<svg version="1.1" id="圖層_1" xmlns="http://www.w3.org/2000/svg" xmlns:xlink="http://www.w3.org/1999/xlink" x="0px" y="0px"
	 width="18px" height="18px" viewBox="0 0 18 18" enable-background="new 0 0 18 18" xml:space="preserve">
<path fill="#737374" d="M13.743,16.951c-0.128,0-0.255-0.035-0.368-0.105l-4.26-2.641l-4.262,2.643
	c-0.243,0.149-0.549,0.134-0.779-0.031c-0.229-0.168-0.334-0.457-0.267-0.732l1.196-4.865l-3.83-3.235
	C0.956,7.8,0.872,7.503,0.959,7.232S1.29,6.771,1.574,6.751l4.999-0.366l1.894-4.641c0.107-0.263,0.363-0.436,0.647-0.436
	c0,0,0,0,0,0c0.284,0,0.541,0.172,0.648,0.436l1.893,4.64l5,0.367c0.283,0.021,0.525,0.211,0.613,0.48
	c0.088,0.271,0.005,0.566-0.211,0.751l-3.831,3.236l1.159,4.71c0.051,0.097,0.078,0.206,0.078,0.322c0,0.387-0.313,0.7-0.699,0.7
	C13.755,16.95,13.749,16.951,13.743,16.951z M3.388,8.021l2.85,2.407c0.201,0.17,0.29,0.438,0.23,0.694l-0.893,3.632l3.17-1.968
	c0.227-0.141,0.512-0.141,0.738,0l3.17,1.965l-0.892-3.621c-0.063-0.258,0.025-0.53,0.229-0.702l2.852-2.407l-3.719-0.272
	c-0.267-0.018-0.5-0.187-0.602-0.434L9.114,3.861L7.705,7.315c-0.1,0.246-0.332,0.414-0.597,0.434L3.388,8.021z"/>
</svg>
