<?xml version="1.0" encoding="utf-8"?>
<!-- Generator: Adobe Illustrator 15.1.0, SVG Export Plug-In . SVG Version: 6.00 Build 0)  -->
<!DOCTYPE svg PUBLIC "-//W3C//DTD SVG 1.1//EN" "http://www.w3.org/Graphics/SVG/1.1/DTD/svg11.dtd" [
	<!ENTITY ns_flows "http://ns.adobe.com/Flows/1.0/">
	<!ENTITY ns_extend "http://ns.adobe.com/Extensibility/1.0/">
	<!ENTITY ns_ai "http://ns.adobe.com/AdobeIllustrator/10.0/">
	<!ENTITY ns_graphs "http://ns.adobe.com/Graphs/1.0/">
]>
<svg version="1.1" id="圖層_1" xmlns:x="&ns_extend;" xmlns:i="&ns_ai;" xmlns:graph="&ns_graphs;"
	 xmlns="http://www.w3.org/2000/svg" xmlns:xlink="http://www.w3.org/1999/xlink" xmlns:a="http://ns.adobe.com/AdobeSVGViewerExtensions/3.0/"
	 x="0px" y="0px" width="18px" height="18px" viewBox="0 0 18 18" enable-background="new 0 0 18 18" xml:space="preserve">
<g>
	<path fill-rule="evenodd" clip-rule="evenodd" fill="#747374" d="M15.001,14.656c0,0.41-0.339,0.717-0.782,0.871
		c0.018-0.082,0.021-0.176,0.017-0.289c-0.101-0.723-0.497-1.83-1.944-2.303c-1.525-0.592-1.636-0.656-1.636-0.656
		s-0.354-0.59-0.52-0.626c-0.166-0.039-0.027-0.272,0-0.338c0.027-0.064,0.235,0,0.235-0.853c0-0.281-0.036-0.299,0.102-0.299
		c0.139,0,0.455-0.195,0.455-0.879s0-0.712-0.116-0.73c-0.018-0.261,0.128-0.684,0.128-1.636c-0.146-0.994-0.548-1.497-0.854-1.697
		c-0.083-0.056-0.142-0.264-0.193-0.384c-0.395,0.03-0.757,0.226-1.176,0.226c-1.447,0-2.214,0.9-2.214,1.855
		c0,0.953,0.144,1.375,0.126,1.636c-0.117,0.019-0.117,0.047-0.117,0.73s0.319,0.879,0.455,0.879c0.139,0,0.102,0.018,0.102,0.299
		c0,0.853,0.211,0.788,0.238,0.853c0.027,0.065,0.165,0.299,0,0.338c-0.165,0.036-0.521,0.626-0.521,0.626s-0.109,0.064-1.637,0.656
		c-1.439,0.469-1.841,1.559-1.943,2.285c-0.169-0.152-0.276-0.344-0.276-0.564V3.8c0-0.602,0.781-0.868,1.503-0.868h9.13
		c0.719,0,1.439,0.266,1.439,0.868v1.435h1.27V2.714c0-0.599-0.688-1.054-1.406-1.054H3.128c-0.72,0-1.471,0.455-1.471,1.054v13.028
		c0,0.6,0.751,1.172,1.471,1.172h11.736c0.719,0,1.406-0.572,1.406-1.172v-2.404h-1.27V14.656z"/>
	<polygon fill-rule="evenodd" clip-rule="evenodd" fill="#747374" points="15.024,8.158 15.024,7.035 12.153,9.202 15.024,11.368 
		15.024,10.247 17.395,10.247 17.395,8.158 	"/>
</g>
</svg>
