<?xml version="1.0" encoding="utf-8"?>
<!-- Generator: Adobe Illustrator 15.1.0, SVG Export Plug-In . SVG Version: 6.00 Build 0)  -->
<!DOCTYPE svg PUBLIC "-//W3C//DTD SVG 1.1//EN" "http://www.w3.org/Graphics/SVG/1.1/DTD/svg11.dtd">
<svg version="1.1" id="圖層_1" xmlns="http://www.w3.org/2000/svg" xmlns:xlink="http://www.w3.org/1999/xlink" x="0px" y="0px"
	 width="14px" height="14px" viewBox="2 2 14 14" enable-background="new 2 2 14 14" xml:space="preserve">
<g>
	<path fill="#5A5A5A" d="M14.004,13.515c0,0.345-0.285,0.603-0.658,0.732c0.016-0.068,0.019-0.147,0.016-0.243
		c-0.086-0.607-0.418-1.538-1.636-1.937c-1.281-0.498-1.375-0.551-1.375-0.551s-0.298-0.496-0.438-0.527
		c-0.14-0.032-0.022-0.229,0-0.284c0.022-0.054,0.197,0,0.197-0.717c0-0.236-0.03-0.251,0.086-0.251s0.383-0.165,0.383-0.74
		c0-0.576,0-0.599-0.097-0.614c-0.017-0.219,0.106-0.575,0.106-1.375c-0.123-0.836-0.46-1.259-0.718-1.427
		c-0.07-0.047-0.12-0.222-0.163-0.323c-0.332,0.025-0.636,0.19-0.988,0.19c-1.217,0-1.862,0.756-1.862,1.56
		c0,0.802,0.121,1.156,0.106,1.375C6.866,8.4,6.866,8.423,6.866,8.998c0,0.574,0.268,0.74,0.382,0.74
		c0.117,0,0.086,0.015,0.086,0.251c0,0.717,0.177,0.663,0.2,0.717c0.022,0.055,0.139,0.252,0,0.284
		c-0.139,0.031-0.438,0.527-0.438,0.527s-0.092,0.053-1.376,0.551c-1.21,0.395-1.548,1.312-1.634,1.922
		c-0.142-0.128-0.231-0.29-0.231-0.475V4.386c0-0.506,0.656-0.729,1.263-0.729h7.678c0.604,0,1.21,0.224,1.21,0.729v1.207h1.067
		v-2.12c0-0.503-0.578-0.886-1.182-0.886H4.02c-0.605,0-1.237,0.383-1.237,0.886v10.955c0,0.505,0.632,0.985,1.237,0.985h9.869
		c0.604,0,1.182-0.48,1.182-0.985v-2.021h-1.067L14.004,13.515L14.004,13.515z"/>
	<polygon fill="#5A5A5A" points="14.022,8.051 14.022,7.106 11.608,8.929 14.022,10.75 14.022,9.808 16.017,9.808 16.017,8.051 	"/>
</g>
</svg>
