<?xml version="1.0" encoding="utf-8"?>
<!-- Generator: Adobe Illustrator 16.0.0, SVG Export Plug-In . SVG Version: 6.00 Build 0)  -->
<!DOCTYPE svg PUBLIC "-//W3C//DTD SVG 1.1//EN" "http://www.w3.org/Graphics/SVG/1.1/DTD/svg11.dtd">
<svg version="1.1" id="圖層_1" xmlns="http://www.w3.org/2000/svg" xmlns:xlink="http://www.w3.org/1999/xlink" x="0px" y="0px"
	 width="18px" height="18px" viewBox="-411.5 306.5 18 18" enable-background="new -411.5 306.5 18 18" xml:space="preserve">
<g>
	<path fill="#747374" d="M-398.429,312.137v0.096v0.359v0.004c-0.478,0-0.759,0.387-0.759,0.865v4.074v0.106
		c0,0.479,0.281,0.807,0.759,0.807v0.318v0.114v0.373h-0.488h-2.73h-0.487v-0.373v-0.114v-0.318c0.478,0,0.789-0.437,0.789-0.913
		v-1.503h-2.289v1.503v0.106c0,0.479,0.251,0.807,0.729,0.807v0.318v0.114v0.373h-0.486h-2.662h-0.488v-0.373v-0.114v-0.318h0.006
		c0.479,0,0.722-0.327,0.722-0.807v-0.21v-3.971v-0.106c0-0.478-0.28-0.759-0.759-0.759v-0.004v-0.359v-0.096v-0.391h0.488h2.661
		h0.487v0.391v0.096v0.358v0.005c-0.478,0-0.699,0.387-0.699,0.865v1.11h2.289v-1.11v-0.106c0-0.478-0.25-0.759-0.729-0.759v-0.005
		v-0.358v-0.096v-0.391h0.488h2.67h0.488V312.137z"/>
	<g>
		<path fill="#747374" d="M-402.501,323.999c-4.686,0-8.499-3.816-8.499-8.504c0-4.683,3.813-8.494,8.499-8.494
			c2.28,0,4.417,0.887,6.025,2.494c1.602,1.607,2.481,3.736,2.476,6.003C-394,320.183-397.813,323.999-402.501,323.999z
			 M-402.501,309.504c-3.306,0-5.994,2.688-5.994,5.991c0,3.311,2.688,6.001,5.994,6.001c3.308,0,5.996-2.69,5.996-6.001
			c0.005-1.601-0.614-3.1-1.741-4.229C-399.382,310.129-400.891,309.504-402.501,309.504z"/>
	</g>
</g>
</svg>
