<?xml version="1.0" encoding="utf-8"?>
<!-- Generator: Adobe Illustrator 15.1.0, SVG Export Plug-In . SVG Version: 6.00 Build 0)  -->
<!DOCTYPE svg PUBLIC "-//W3C//DTD SVG 1.1//EN" "http://www.w3.org/Graphics/SVG/1.1/DTD/svg11.dtd" [
	<!ENTITY ns_flows "http://ns.adobe.com/Flows/1.0/">
	<!ENTITY ns_extend "http://ns.adobe.com/Extensibility/1.0/">
	<!ENTITY ns_ai "http://ns.adobe.com/AdobeIllustrator/10.0/">
	<!ENTITY ns_graphs "http://ns.adobe.com/Graphs/1.0/">
]>
<svg version="1.1" id="圖層_1" xmlns:x="&ns_extend;" xmlns:i="&ns_ai;" xmlns:graph="&ns_graphs;"
	 xmlns="http://www.w3.org/2000/svg" xmlns:xlink="http://www.w3.org/1999/xlink" xmlns:a="http://ns.adobe.com/AdobeSVGViewerExtensions/3.0/"
	 x="0px" y="0px" width="18px" height="18px" viewBox="0 0 18 18" enable-background="new 0 0 18 18" xml:space="preserve">
<g>
	<path fill="#747374" d="M14.779,2.272H3.221c-1.233,0-2.234,1.002-2.234,2.234v8.125c0,1.232,1.001,2.234,2.234,2.234h11.558
		c1.232,0,2.234-1.002,2.234-2.234v-0.394v-0.649V4.506C17.014,3.274,16.012,2.272,14.779,2.272z M15.793,11.588v0.649v0.394
		c0,0.561-0.453,1.016-1.014,1.016H3.221c-0.56,0-1.014-0.455-1.014-1.016V4.506c0-0.56,0.454-1.015,1.014-1.015h11.558
		c0.561,0,1.014,0.455,1.014,1.015V11.588z"/>
	<path fill="#747374" d="M12.387,15.541H5.615c-0.226,0-0.407,0.184-0.407,0.406c0,0.225,0.182,0.404,0.407,0.404h6.772
		c0.225,0,0.406-0.18,0.406-0.404C12.793,15.725,12.611,15.541,12.387,15.541z"/>
	<path fill="#747374" d="M14.576,9.014h-2.297l-0.963-2.081c-0.084-0.182-0.279-0.29-0.469-0.274
		c-0.199,0.018-0.365,0.155-0.418,0.348l-0.971,3.591L7.82,4.649C7.767,4.45,7.59,4.31,7.382,4.302
		C7.181,4.288,6.99,4.418,6.919,4.613L5.355,8.936H3.423c-0.262,0-0.473,0.211-0.473,0.473c0,0.262,0.211,0.473,0.473,0.473h2.264
		c0.197,0,0.379-0.125,0.446-0.312l1.17-3.234l1.702,6.184c0.056,0.205,0.243,0.348,0.455,0.348l0,0
		c0.215,0,0.401-0.143,0.458-0.348l1.085-4.01l0.543,1.177c0.078,0.167,0.246,0.274,0.43,0.274h2.6c0.262,0,0.475-0.211,0.475-0.471
		C15.051,9.227,14.838,9.014,14.576,9.014z"/>
</g>
</svg>
