<?xml version="1.0" encoding="utf-8"?>
<!-- Generator: Adobe Illustrator 15.1.0, SVG Export Plug-In . SVG Version: 6.00 Build 0)  -->
<!DOCTYPE svg PUBLIC "-//W3C//DTD SVG 1.1//EN" "http://www.w3.org/Graphics/SVG/1.1/DTD/svg11.dtd" [
	<!ENTITY ns_flows "http://ns.adobe.com/Flows/1.0/">
	<!ENTITY ns_extend "http://ns.adobe.com/Extensibility/1.0/">
	<!ENTITY ns_ai "http://ns.adobe.com/AdobeIllustrator/10.0/">
	<!ENTITY ns_graphs "http://ns.adobe.com/Graphs/1.0/">
]>
<svg version="1.1" id="圖層_1" xmlns:x="&ns_extend;" xmlns:i="&ns_ai;" xmlns:graph="&ns_graphs;"
	 xmlns="http://www.w3.org/2000/svg" xmlns:xlink="http://www.w3.org/1999/xlink" xmlns:a="http://ns.adobe.com/AdobeSVGViewerExtensions/3.0/"
	 x="0px" y="0px" width="18px" height="18px" viewBox="0 0 18 18" enable-background="new 0 0 18 18" xml:space="preserve">
<g>
	<path fill="#747374" d="M6.983,4.916c0,0.372-0.302,0.671-0.673,0.671l0,0c-0.372,0-0.675-0.299-0.675-0.671V2.224
		c0-0.371,0.303-0.672,0.675-0.672l0,0c0.371,0,0.673,0.301,0.673,0.672V4.916z"/>
	<path fill="#747374" d="M12.363,4.916c0,0.372-0.303,0.671-0.674,0.671l0,0c-0.371,0-0.672-0.299-0.672-0.671V2.224
		c0-0.371,0.301-0.672,0.672-0.672l0,0c0.371,0,0.674,0.301,0.674,0.672V4.916z"/>
	<path fill="#747374" d="M6.311,8.95H4.964V7.605h1.347V8.95z"/>
	<path fill="#747374" d="M9.672,8.95H8.328V7.605h1.344V8.95z"/>
	<path fill="#747374" d="M13.036,8.95h-1.347V7.605h1.347V8.95z"/>
	<path fill="#747374" d="M6.311,10.967H4.964V9.624h1.347V10.967z"/>
	<path fill="#747374" d="M9.672,10.967H8.328V9.624h1.344V10.967z"/>
	<path fill="#747374" d="M13.036,10.967h-1.347V9.624h1.347V10.967z"/>
	<path fill="#747374" d="M6.311,12.986H4.964V11.64h1.347V12.986z"/>
	<path fill="#747374" d="M9.672,12.986H8.328V11.64h1.344V12.986z"/>
	<path fill="#747374" d="M13.036,12.986h-1.347V11.64h1.347V12.986z"/>
	<path fill="#747374" d="M15.054,4.242c0.372,0,0.671,0.3,0.671,0.674v10.086c0,0.373-0.299,0.672-0.671,0.672H2.948
		c-0.372,0-0.675-0.299-0.675-0.672V4.916c0-0.374,0.303-0.674,0.675-0.674H15.054 M15.054,2.896H2.948
		c-1.115,0-2.018,0.903-2.018,2.019v10.086c0,1.115,0.902,2.02,2.018,2.02h12.105c1.115,0,2.018-0.904,2.018-2.02V4.916
		C17.071,3.799,16.169,2.896,15.054,2.896L15.054,2.896z"/>
</g>
</svg>
