<?xml version="1.0" encoding="utf-8"?>
<!-- Generator: Adobe Illustrator 15.1.0, SVG Export Plug-In . SVG Version: 6.00 Build 0)  -->
<!DOCTYPE svg PUBLIC "-//W3C//DTD SVG 1.1//EN" "http://www.w3.org/Graphics/SVG/1.1/DTD/svg11.dtd">
<svg version="1.1" id="圖層_1" xmlns="http://www.w3.org/2000/svg" xmlns:xlink="http://www.w3.org/1999/xlink" x="0px" y="0px"
	 width="18px" height="18px" viewBox="0 0 18 18" enable-background="new 0 0 18 18" xml:space="preserve">
<path fill="#888888" d="M4.25,14.442c-0.033,0.033-0.094,0.094-0.176,0.177c-0.245,0.244-0.666,0.665-1.023,1.021
	c-0.444,0.466-0.626,0.6-0.763-0.146c-0.177-1.697-0.582-4.885-0.582-4.885s3.372,0.268,5.038,0.427
	c0.819,0.056,0.597,0.302,0.148,0.764c-0.167,0.167-0.38,0.384-0.647,0.651l-0.25,0.25c-0.104,0.104-0.211,0.21-0.332,0.328
	c0,0,0.001,0.002,0.002,0.002L5.62,13.077c2.059,1.895,5.273,1.853,7.271-0.146c2.049-2.048,2.049-5.381,0-7.43
	c-1.353-1.353-3.264-1.806-4.998-1.373C7.799,4.151,7.705,4.173,7.609,4.205C7.604,4.206,7.6,4.208,7.595,4.209
	C6.68,4.521,5.746,5.243,5.426,5.533C5.031,5.891,4.42,5.858,4.06,5.468c-0.349-0.385-0.328-0.97,0.035-1.333L4.092,4.132
	C4.099,4.126,4.107,4.12,4.114,4.113c0.004-0.004,0.007-0.009,0.011-0.012c0.018-0.016,0.054-0.048,0.1-0.088
	c0.764-0.726,1.648-1.25,2.588-1.577c0.08-0.029,0.161-0.057,0.242-0.084c0.043-0.013,0.085-0.026,0.13-0.04
	c0.145-0.042,0.292-0.081,0.44-0.11c0.005-0.001,0.012,0,0.018-0.001c2.31-0.501,4.824,0.138,6.614,1.931
	c2.806,2.803,2.806,7.365,0,10.167C11.505,17.051,7.063,17.094,4.25,14.442z"/>
</svg>
