<?xml version="1.0" encoding="utf-8"?>
<!-- Generator: Adobe Illustrator 16.0.0, SVG Export Plug-In . SVG Version: 6.00 Build 0)  -->
<!DOCTYPE svg PUBLIC "-//W3C//DTD SVG 1.1//EN" "http://www.w3.org/Graphics/SVG/1.1/DTD/svg11.dtd">
<svg version="1.1" id="圖層_1" xmlns="http://www.w3.org/2000/svg" xmlns:xlink="http://www.w3.org/1999/xlink" x="0px" y="0px"
	 width="18px" height="18px" viewBox="-270.5 289.5 18 18" enable-background="new -270.5 289.5 18 18" xml:space="preserve">
<g>
	<path fill="#737374" d="M-253.998,298.147c-2.304-2.833-4.791-4.271-7.399-4.271c-1.034,0-2.08,0.23-3.113,0.682
		c-0.813,0.358-1.619,0.853-2.394,1.473c-1.311,1.049-2.083,2.096-2.114,2.138c-0.149,0.206-0.143,0.486,0.016,0.687
		c2.3,2.835,4.791,4.27,7.399,4.27c1.034,0,2.08-0.229,3.113-0.681c0.813-0.358,1.619-0.854,2.394-1.473
		c1.311-1.05,2.083-2.096,2.114-2.14C-253.832,298.626-253.839,298.346-253.998,298.147L-253.998,298.147z M-256.821,300.114
		c-1.083,0.862-2.79,1.89-4.782,1.89c-2.151,0-4.249-1.18-6.241-3.508c0.314-0.37,0.89-0.99,1.662-1.606
		c1.083-0.862,2.789-1.891,4.782-1.891c2.151,0,4.249,1.181,6.241,3.509C-255.473,298.879-256.049,299.501-256.821,300.114
		L-256.821,300.114z M-256.821,300.114"/>
	<path fill="#737374" d="M-259.473,300.148c0.056-0.068,0.115-0.133,0.163-0.206c0.049-0.075,0.085-0.153,0.126-0.232
		c0.039-0.074,0.082-0.146,0.114-0.226c0.031-0.078,0.05-0.159,0.074-0.239c0.025-0.085,0.054-0.168,0.071-0.255
		c0.016-0.087,0.019-0.174,0.026-0.261c0.006-0.077,0.023-0.15,0.023-0.228c0-0.006-0.004-0.012-0.004-0.018
		c-0.005-0.682-0.27-1.361-0.799-1.872c-0.498-0.481-1.139-0.718-1.781-0.729c-0.015-0.002-0.028-0.01-0.043-0.01
		c-0.01,0-0.02,0.004-0.03,0.004c-0.083,0-0.166,0.016-0.249,0.024c-0.089,0.01-0.181,0.013-0.267,0.03
		c-0.042,0.01-0.083,0.028-0.125,0.04c-0.122,0.031-0.244,0.063-0.358,0.112c-0.055,0.022-0.104,0.058-0.157,0.085
		c-0.098,0.051-0.198,0.097-0.288,0.159c-0.056,0.037-0.105,0.087-0.159,0.13c-0.081,0.065-0.165,0.128-0.238,0.201
		c-0.006,0.007-0.014,0.011-0.02,0.017c-0.009,0.01-0.012,0.021-0.02,0.031c-0.442,0.472-0.717,1.1-0.717,1.794
		c0,0.733,0.304,1.396,0.79,1.873c0.005,0.006,0.007,0.013,0.012,0.018c0.062,0.06,0.132,0.104,0.199,0.155
		c0.061,0.05,0.118,0.103,0.184,0.146c0.081,0.055,0.167,0.094,0.252,0.138c0.068,0.034,0.133,0.073,0.204,0.102
		c0.086,0.036,0.177,0.059,0.266,0.083c0.076,0.022,0.15,0.049,0.229,0.064c0.098,0.019,0.196,0.022,0.296,0.03
		c0.065,0.005,0.129,0.019,0.196,0.019c0.009,0,0.017-0.002,0.025-0.002c0.104-0.002,0.207-0.019,0.31-0.031
		c0.068-0.01,0.14-0.01,0.206-0.024c0.092-0.019,0.181-0.055,0.271-0.084c0.071-0.023,0.146-0.038,0.214-0.067
		c0.098-0.041,0.188-0.099,0.281-0.152c0.054-0.032,0.113-0.056,0.164-0.091c0.069-0.046,0.129-0.106,0.193-0.159
		c0.069-0.057,0.141-0.109,0.204-0.172c0.007-0.007,0.015-0.012,0.022-0.019C-259.56,300.272-259.521,300.207-259.473,300.148z
		 M-260.009,298.63c-0.004,0.051-0.006,0.103-0.016,0.152c-0.009,0.048-0.026,0.097-0.04,0.145
		c-0.015,0.046-0.026,0.094-0.043,0.139s-0.043,0.085-0.064,0.129c-0.024,0.045-0.045,0.092-0.073,0.134
		c-0.027,0.041-0.061,0.077-0.092,0.116s-0.06,0.08-0.095,0.115c-0.034,0.035-0.072,0.063-0.108,0.093
		c-0.04,0.033-0.076,0.069-0.119,0.098c-0.016,0.012-0.035,0.018-0.051,0.028c-0.066,0.041-0.133,0.08-0.205,0.111
		c-0.018,0.008-0.036,0.01-0.054,0.017c-0.073,0.027-0.147,0.054-0.225,0.07c-0.03,0.006-0.061,0.006-0.091,0.01
		c-0.068,0.011-0.135,0.021-0.205,0.021c-0.038,0-0.075-0.006-0.112-0.009c-0.063-0.004-0.125-0.007-0.185-0.018
		c-0.042-0.008-0.082-0.023-0.122-0.034c-0.055-0.016-0.109-0.029-0.161-0.051c-0.039-0.016-0.075-0.037-0.113-0.057
		c-0.05-0.025-0.102-0.049-0.148-0.081c-0.038-0.024-0.072-0.055-0.107-0.085c-0.345-0.275-0.571-0.695-0.571-1.171
		c0-0.411,0.166-0.783,0.434-1.056c0.045-0.046,0.095-0.083,0.144-0.122c0.028-0.022,0.054-0.049,0.084-0.069
		c0.058-0.039,0.12-0.068,0.181-0.1c0.025-0.012,0.048-0.028,0.074-0.04c0.074-0.03,0.15-0.052,0.227-0.071
		c0.017-0.004,0.033-0.012,0.05-0.015c0.054-0.012,0.109-0.014,0.164-0.02c0.043-0.004,0.086-0.013,0.13-0.013
		c0.383-0.005,0.768,0.135,1.065,0.422C-260.118,297.745-259.972,298.193-260.009,298.63z"/>
</g>
<path d="M-255.997,297.787"/>
<path fill="#737374" d="M-259.562,298.668c-0.005,0.066-0.007,0.134-0.02,0.198c-0.011,0.063-0.034,0.126-0.051,0.188
	c-0.019,0.06-0.034,0.122-0.057,0.181c-0.023,0.058-0.056,0.11-0.083,0.167c-0.031,0.059-0.059,0.119-0.095,0.174
	c-0.035,0.054-0.079,0.101-0.12,0.151c-0.041,0.051-0.077,0.104-0.124,0.149c-0.044,0.046-0.094,0.081-0.141,0.12
	c-0.052,0.044-0.099,0.091-0.155,0.127c-0.021,0.016-0.045,0.023-0.066,0.037c-0.086,0.054-0.173,0.104-0.266,0.145
	c-0.023,0.011-0.047,0.013-0.07,0.021c-0.094,0.036-0.191,0.07-0.292,0.092c-0.04,0.008-0.08,0.008-0.119,0.013
	c-0.088,0.014-0.176,0.026-0.266,0.026c-0.049,0-0.098-0.008-0.146-0.012c-0.082-0.005-0.162-0.009-0.24-0.022
	c-0.054-0.01-0.106-0.03-0.158-0.044c-0.071-0.021-0.142-0.038-0.209-0.066c-0.05-0.021-0.098-0.048-0.146-0.073
	c-0.065-0.033-0.132-0.063-0.193-0.105c-0.049-0.032-0.093-0.071-0.14-0.11c-0.449-0.358-0.742-0.903-0.742-1.521
	c0-0.534,0.216-1.018,0.563-1.371c0.059-0.06,0.124-0.108,0.187-0.159c0.037-0.029,0.07-0.063,0.109-0.09
	c0.075-0.051,0.156-0.089,0.235-0.13c0.033-0.015,0.063-0.036,0.096-0.052c0.096-0.039,0.194-0.067,0.295-0.093
	c0.022-0.005,0.043-0.015,0.065-0.019c0.069-0.016,0.142-0.018,0.213-0.025c0.057-0.005,0.112-0.017,0.169-0.017
	c0.498-0.007,0.998,0.175,1.383,0.548C-259.703,297.519-259.513,298.101-259.562,298.668z"/>
</svg>
