<?xml version="1.0" encoding="utf-8"?>
<!-- Generator: Adobe Illustrator 15.1.0, SVG Export Plug-In . SVG Version: 6.00 Build 0)  -->
<!DOCTYPE svg PUBLIC "-//W3C//DTD SVG 1.1//EN" "http://www.w3.org/Graphics/SVG/1.1/DTD/svg11.dtd">
<svg version="1.1" id="圖層_1" xmlns="http://www.w3.org/2000/svg" xmlns:xlink="http://www.w3.org/1999/xlink" x="0px" y="0px"
	 width="18px" height="18px" viewBox="0 0 18 18" enable-background="new 0 0 18 18" xml:space="preserve">
<g>
	<path fill="#3D3A39" d="M12.646,3.128c0,0-0.027-0.634,0.523-0.249l4.324,3.222c0,0,0.578,0.469,0,0.854l-4.518,3.443
		c0,0-0.313,0.233-0.33-0.551V9.021c0,0,0.083-0.633-0.605-0.661c0,0-3.415-0.551-6.224,1.901c0,0-0.661,0.577-0.826-0.057
		c0,0,0-0.577,1.019-1.789c0,0,1.708-2.478,5.646-3.554c0,0,0.937-0.109,0.991-0.661V3.128z"/>
	<path fill="#3D3A39" d="M13.349,13.604c0,0.746-0.607,1.356-1.356,1.356H3.856c-0.75,0-1.357-0.61-1.357-1.356V5.467
		c0-0.75,0.608-1.357,1.357-1.357h5.425l1.354-1.356H3.404c-1.248,0-2.259,1.013-2.259,2.26v9.041c0,1.247,1.011,2.259,2.259,2.259
		h9.041c1.248,0,2.261-1.012,2.261-2.259v-2.884l-1.356,0.964V13.604z"/>
</g>
</svg>
