<?xml version="1.0" encoding="utf-8"?>
<!-- Generator: Adobe Illustrator 15.1.0, SVG Export Plug-In . SVG Version: 6.00 Build 0)  -->
<!DOCTYPE svg PUBLIC "-//W3C//DTD SVG 1.1//EN" "http://www.w3.org/Graphics/SVG/1.1/DTD/svg11.dtd">
<svg version="1.1" id="圖層_1" xmlns="http://www.w3.org/2000/svg" xmlns:xlink="http://www.w3.org/1999/xlink" x="0px" y="0px"
	 width="46px" height="52px" viewBox="0 0 46 52" enable-background="new 0 0 46 52" xml:space="preserve">
<g>
	<path fill="#001E51" d="M26.328,22.363c0.519-0.535,1.24-0.867,2.04-0.867c0.719,0,1.373,0.268,1.874,0.706
		c-0.522-0.597-1.287-0.974-2.143-0.974c-0.799,0-1.52,0.333-2.038,0.873l-5.427-2.664c-0.005,0.043-0.015,0.117-0.021,0.159
		L26.328,22.363z"/>
	<path fill="#001E51" d="M18.083,16.333c0.77,0,1.466,0.309,1.978,0.8l5.504-2.572c-0.031-0.17-0.053-0.347-0.053-0.529
		c0-1.584,1.278-2.868,2.855-2.868c0.719,0,1.373,0.268,1.874,0.707c-0.522-0.597-1.287-0.975-2.143-0.975
		c-1.576,0-2.856,1.284-2.856,2.869c0,0.18,0.023,0.353,0.058,0.528l-5.507,2.575c-0.514-0.495-1.208-0.803-1.978-0.803
		c-1.576,0-2.855,1.283-2.855,2.865c0,0.861,0.38,1.633,0.981,2.157c-0.443-0.504-0.714-1.165-0.714-1.89
		C15.227,17.616,16.506,16.333,18.083,16.333z"/>
	<path fill="#001E51" d="M25.588,23.758l-0.285-0.126c-0.016,0.111-0.057,0.35-0.057,0.464c0,0.864,0.385,1.638,0.984,2.163
		c-0.443-0.505-0.715-1.168-0.715-1.894C25.513,24.206,25.563,23.911,25.588,23.758z"/>
</g>
<polygon fill="#001E51" points="37.138,0 37.138,41.111 23.285,35.314 8.802,41.375 8.802,42.223 23.285,36.164 37.138,41.961 
	37.769,42.223 37.769,41.375 37.769,0 "/>
<path fill="#1C39B1" d="M23.285,0H8.802v41.375l14.483-6.061l13.853,5.795V0H23.285z M20.684,18.931
	c0,0.171-0.021,0.336-0.051,0.499l5.437,2.666c0.519-0.539,1.241-0.871,2.04-0.871c1.579,0,2.857,1.285,2.857,2.869
	c0,1.58-1.283,2.875-2.857,2.875c-1.581,0-2.855-1.286-2.855-2.875c0-0.163,0.021-0.316,0.046-0.466l-5.457-2.672
	c-0.515,0.516-1.23,0.836-2.019,0.836c-1.577,0-2.855-1.281-2.855-2.864c0-1.582,1.279-2.862,2.855-2.862
	c0.771,0,1.465,0.308,1.978,0.805l5.505-2.572c-0.031-0.171-0.054-0.346-0.054-0.528c0-1.584,1.277-2.868,2.855-2.868
	s2.855,1.283,2.855,2.868s-1.281,2.869-2.855,2.869c-0.778,0-1.483-0.315-1.998-0.823l-5.486,2.564
	C20.663,18.56,20.684,18.744,20.684,18.931z"/>
</svg>
