<?xml version="1.0" encoding="utf-8"?>
<!-- Generator: Adobe Illustrator 15.1.0, SVG Export Plug-In . SVG Version: 6.00 Build 0)  -->
<!DOCTYPE svg PUBLIC "-//W3C//DTD SVG 1.1//EN" "http://www.w3.org/Graphics/SVG/1.1/DTD/svg11.dtd">
<svg version="1.1" id="圖層_1" xmlns="http://www.w3.org/2000/svg" xmlns:xlink="http://www.w3.org/1999/xlink" x="0px" y="0px"
	 width="46px" height="52px" viewBox="0 0 46 52" enable-background="new 0 0 46 52" xml:space="preserve">
<g>
	<polygon fill="#800003" points="36.787,0 36.787,40.914 23,35.146 8.585,41.176 8.585,42.018 23,35.988 36.787,41.758 
		37.415,42.018 37.415,41.176 37.415,0 	"/>
	<polygon fill="none" points="25.685,16.398 22.999,9.819 20.314,16.398 13.226,16.918 18.655,21.506 16.959,28.408 22.999,24.662 
		29.041,28.408 27.343,21.506 32.774,16.918 	"/>
	<polygon fill="none" points="29.041,28.408 27.343,21.506 32.457,17.185 25.996,16.713 25.873,16.414 25.685,16.398 23.219,10.358 
		20.628,16.713 13.592,17.228 18.655,21.506 18.646,21.547 18.969,21.819 17.42,28.123 22.999,24.662 	"/>
	<polygon fill="#800003" points="18.655,21.506 16.959,28.408 17.42,28.123 18.989,21.759 	"/>
	<polygon fill="#800003" points="23.219,10.358 22.999,9.819 20.314,16.398 13.226,16.918 13.592,17.228 20.628,16.713 	"/>
	<polygon fill="#800003" points="32.457,17.185 32.774,16.918 25.685,16.398 25.809,16.697 	"/>
	<path fill="#CF1E1B" d="M23,0H8.585v41.176l0.313-0.131L23,35.146l13.787,5.768V0.313V0H23z M32.457,17.185l-5.113,4.32
		l1.697,6.903l-6.042-3.747l-5.579,3.462l-0.461,0.285l1.686-6.863l0.009-0.041l-5.063-4.278l-0.366-0.31l7.088-0.52l2.685-6.581
		l0.22,0.541l2.463,6.04l0.192,0.015l6.896,0.505L32.457,17.185z"/>
</g>
</svg>
