<?xml version="1.0" encoding="utf-8"?>
<!-- Generator: Adobe Illustrator 15.1.0, SVG Export Plug-In . SVG Version: 6.00 Build 0)  -->
<!DOCTYPE svg PUBLIC "-//W3C//DTD SVG 1.1//EN" "http://www.w3.org/Graphics/SVG/1.1/DTD/svg11.dtd" [
	<!ENTITY ns_flows "http://ns.adobe.com/Flows/1.0/">
	<!ENTITY ns_extend "http://ns.adobe.com/Extensibility/1.0/">
	<!ENTITY ns_ai "http://ns.adobe.com/AdobeIllustrator/10.0/">
	<!ENTITY ns_graphs "http://ns.adobe.com/Graphs/1.0/">
]>
<svg version="1.1" id="圖層_1" xmlns:x="&ns_extend;" xmlns:i="&ns_ai;" xmlns:graph="&ns_graphs;"
	 xmlns="http://www.w3.org/2000/svg" xmlns:xlink="http://www.w3.org/1999/xlink" xmlns:a="http://ns.adobe.com/AdobeSVGViewerExtensions/3.0/"
	 x="0px" y="0px" width="46px" height="52px" viewBox="0 0 46 52" enable-background="new 0 0 46 52" xml:space="preserve">
<g>
	<polygon fill="#800003" points="38.503,0.001 38.503,46.007 22.999,39.521 6.79,46.304 6.79,47.251 22.999,40.472 38.503,46.957 
		39.208,47.251 39.208,46.304 39.208,0.001 	"/>
	<polygon fill="none" points="26.018,18.441 22.998,11.042 19.98,18.441 12.008,19.027 18.114,24.184 16.206,31.946 22.998,27.732 
		29.791,31.946 27.883,24.184 33.988,19.027 	"/>
	<polygon fill="none" points="29.791,31.946 27.883,24.184 33.633,19.327 26.369,18.795 26.232,18.458 26.018,18.441 23.247,11.65 
		20.332,18.795 12.42,19.374 18.114,24.184 18.102,24.229 18.466,24.536 16.724,31.624 22.998,27.732 	"/>
	<path fill="#CF1E1B" d="M22.999,0.001H6.79v46.303l0.353-0.148l15.856-6.635l15.504,6.486V0.353V0.001H22.999z M33.633,19.327
		l-5.75,4.857l1.908,7.762l-6.793-4.214l-6.274,3.892l-0.518,0.322l1.896-7.717l0.012-0.045l-5.694-4.811l-0.412-0.347l7.972-0.585
		l3.018-7.4l0.249,0.608l2.771,6.792l0.215,0.017l7.756,0.569L33.633,19.327z"/>
	<path fill="#800003" d="M16.206,32.299c-0.073,0-0.146-0.023-0.208-0.067c-0.115-0.085-0.168-0.23-0.134-0.369l1.856-7.551
		l-5.939-5.017c-0.109-0.092-0.152-0.242-0.108-0.378c0.045-0.136,0.167-0.231,0.31-0.242l7.754-0.568l2.937-7.199
		c0.053-0.132,0.184-0.218,0.326-0.218l0,0c0.143,0,0.272,0.086,0.327,0.218l2.936,7.199l7.754,0.568
		c0.143,0.011,0.265,0.106,0.309,0.242c0.044,0.136,0.003,0.286-0.107,0.378l-5.938,5.017l1.855,7.551
		c0.034,0.139-0.019,0.284-0.136,0.369c-0.115,0.084-0.271,0.09-0.392,0.013l-6.607-4.097l-6.606,4.097
		C16.335,32.281,16.271,32.299,16.206,32.299z M12.896,19.314l5.446,4.601c0.102,0.086,0.147,0.223,0.114,0.353l-1.701,6.923
		l6.058-3.757c0.114-0.072,0.258-0.072,0.373,0l6.058,3.757l-1.702-6.923c-0.032-0.13,0.013-0.267,0.114-0.353l5.447-4.601
		l-7.11-0.521c-0.134-0.01-0.25-0.095-0.301-0.219l-2.692-6.601l-2.693,6.601c-0.049,0.124-0.166,0.209-0.3,0.219L12.896,19.314z"/>
	<path fill="#EEE93A" d="M22.998,11.042l3.02,7.4l7.971,0.585l-6.105,5.157l1.908,7.762l-6.793-4.214l-6.792,4.214l1.908-7.762
		l-6.106-5.157l7.972-0.585L22.998,11.042z"/>
</g>
</svg>
