<?xml version="1.0" encoding="utf-8"?>
<!-- Generator: Adobe Illustrator 16.0.0, SVG Export Plug-In . SVG Version: 6.00 Build 0)  -->
<!DOCTYPE svg PUBLIC "-//W3C//DTD SVG 1.1//EN" "http://www.w3.org/Graphics/SVG/1.1/DTD/svg11.dtd">
<svg version="1.1" id="圖層_1" xmlns="http://www.w3.org/2000/svg" xmlns:xlink="http://www.w3.org/1999/xlink" x="0px" y="0px"
	 width="46px" height="52px" viewBox="0 0 46 52" enable-background="new 0 0 46 52" xml:space="preserve">
<g>
	<g>
		<path fill="#212121" d="M18.66,3.152H9.021v32.293l13.805,9.808l14.186-10.31V3.152H18.66z"/>
		<path fill="#F44336" d="M18.497,3.152H9.021v31.745l13.774,9.845l13.814-10.019V3.152H18.497z"/>
		<path fill="#FFEB3B" d="M23.217,10.874l2.625,6.592l6.934,0.521l-5.309,4.594l1.66,6.913l-5.909-3.752l-5.907,3.754l1.66-6.914
			l-5.311-4.595l6.934-0.521L23.217,10.874z"/>
		<path fill="#2E0707" d="M23.383,12.129l2.35,5.764l6.209,0.454l-4.754,4.016l1.485,6.042l-5.29-3.276l-5.289,3.279l1.486-6.042
			l-4.755-4.016l6.208-0.456L23.383,12.129z"/>
		<path fill="#FFEB3B" d="M23.625,12.592l2.285,5.6l6.031,0.44l-4.619,3.9l1.445,5.872l-5.142-3.188l-5.139,3.188l1.445-5.87
			l-4.62-3.901l6.03-0.443L23.625,12.592z"/>
		<path fill="#CF1E1B" d="M19.69,3.152h-6.858V32.93l9.97,6.543l9.999-6.67V3.152H19.69z M23.383,12.129l2.35,5.764l6.209,0.454
			l-4.754,4.016l1.485,6.042l-5.29-3.276l-5.289,3.279l1.486-6.042l-4.755-4.016l6.208-0.456L23.383,12.129z"/>
	</g>
	<rect x="9.021" y="2.569" opacity="0.5" fill="#424242" enable-background="new    " width="27.981" height="2.105"/>
	<g>
		<rect x="38.59" y="1.009" fill="#484342" width="1.66" height="1.627"/>
		<path fill="#F9CE1D" d="M39.964,1.824c0,1.01,0.825,1.825,1.824,1.825c1.009,0,1.835-0.815,1.835-1.825
			c0-1.01-0.826-1.824-1.835-1.824C40.789,0,39.964,0.813,39.964,1.824L39.964,1.824z"/>
		<rect x="8.98" y="0.12" fill="#3E2723" width="30.465" height="3.408"/>
	</g>
</g>
</svg>
