<?xml version="1.0" encoding="utf-8"?>
<!-- Generator: Adobe Illustrator 16.0.0, SVG Export Plug-In . SVG Version: 6.00 Build 0)  -->
<!DOCTYPE svg PUBLIC "-//W3C//DTD SVG 1.1//EN" "http://www.w3.org/Graphics/SVG/1.1/DTD/svg11.dtd">
<svg version="1.1" id="圖層_1" xmlns="http://www.w3.org/2000/svg" xmlns:xlink="http://www.w3.org/1999/xlink" x="0px" y="0px"
	 width="46px" height="52px" viewBox="0 0 46 52" enable-background="new 0 0 46 52" xml:space="preserve">
<g>
	<g>
		<path fill="#212121" d="M18.66,3.152H9.021v32.293L23.034,45.46l14.052-10.19V3.152H18.66z"/>
		<path fill="#AFAFAF" d="M18.497,3.152H9.021v31.745l13.774,9.845l13.814-10.019V3.152H18.497z"/>
		<path fill="#FFFFFF" d="M20.334,21.037c0,0.172-0.022,0.34-0.054,0.506l5.516,2.703c0.529-0.545,1.261-0.882,2.07-0.882
			c1.604,0,2.899,1.302,2.899,2.91c0,1.604-1.303,2.916-2.899,2.916c-1.603,0-2.896-1.305-2.896-2.916
			c0-0.164,0.021-0.32,0.047-0.471l-5.537-2.712c-0.523,0.523-1.248,0.849-2.049,0.849c-1.6,0-2.897-1.298-2.897-2.906
			c0-1.605,1.297-2.904,2.897-2.904c0.782,0,1.486,0.313,2.008,0.818l5.583-2.61c-0.031-0.174-0.058-0.352-0.058-0.535
			c0-1.609,1.298-2.913,2.896-2.913c1.603,0,2.896,1.304,2.896,2.913c0,1.608-1.297,2.911-2.896,2.911
			c-0.789,0-1.504-0.318-2.026-0.834l-5.565,2.598C20.312,20.66,20.334,20.845,20.334,21.037z"/>
		<g>
			<path fill="#001E51" d="M26,24.53c0.523-0.543,1.25-0.881,2.055-0.881c0.728,0,1.385,0.273,1.889,0.717
				c-0.522-0.605-1.295-0.988-2.157-0.988c-0.81,0-1.535,0.337-2.056,0.888l-5.472-2.708c-0.007,0.045-0.017,0.121-0.022,0.164
				L26,24.53z"/>
			<path fill="#001E51" d="M17.687,18.408c0.777,0,1.477,0.316,1.994,0.813l5.547-2.611c-0.029-0.172-0.054-0.351-0.054-0.536
				c0-1.608,1.287-2.916,2.878-2.916c0.725,0,1.381,0.275,1.889,0.721c-0.525-0.607-1.297-0.989-2.164-0.989
				c-1.588,0-2.875,1.3-2.875,2.913c0,0.182,0.021,0.359,0.059,0.537l-5.553,2.616c-0.519-0.508-1.217-0.82-1.993-0.82
				c-1.589,0-2.878,1.307-2.878,2.912c0,0.873,0.382,1.656,0.988,2.189c-0.445-0.514-0.719-1.188-0.719-1.922
				C14.809,19.712,16.097,18.408,17.687,18.408z"/>
			<path fill="#001E51" d="M25.254,25.948l-0.287-0.129c-0.016,0.113-0.061,0.354-0.061,0.473c0,0.875,0.389,1.662,0.994,2.192
				c-0.447-0.51-0.721-1.182-0.721-1.922C25.178,26.403,25.229,26.104,25.254,25.948z"/>
		</g>
		<path fill="#8B8B8C" d="M19.69,3.152h-6.858V32.93l9.969,6.543l9.998-6.67V3.152H19.69z M20.391,20.984
			c0,0.172-0.022,0.34-0.054,0.506l5.517,2.703c0.528-0.545,1.26-0.882,2.069-0.882c1.604,0,2.899,1.302,2.899,2.912
			c0,1.604-1.303,2.916-2.899,2.916c-1.603,0-2.896-1.305-2.896-2.916c0-0.166,0.021-0.322,0.048-0.473l-5.537-2.71
			c-0.523,0.521-1.248,0.847-2.049,0.847c-1.6,0-2.897-1.298-2.897-2.906c0-1.604,1.297-2.902,2.897-2.902
			c0.781,0,1.486,0.313,2.008,0.816l5.583-2.61c-0.031-0.174-0.057-0.352-0.057-0.535c0-1.607,1.297-2.912,2.896-2.912
			c1.603,0,2.896,1.305,2.896,2.912c0,1.608-1.297,2.911-2.896,2.911c-0.789,0-1.504-0.318-2.026-0.834l-5.565,2.6
			C20.369,20.609,20.391,20.792,20.391,20.984z"/>
	</g>
	<rect x="9.021" y="2.569" opacity="0.5" fill="#424242" enable-background="new    " width="27.981" height="2.105"/>
	<g>
		<rect x="38.59" y="1.009" fill="#484342" width="1.66" height="1.627"/>
		<path fill="#F9CE1D" d="M39.964,1.824c0,1.01,0.825,1.825,1.824,1.825c1.009,0,1.835-0.815,1.835-1.825
			c0-1.01-0.826-1.824-1.835-1.824C40.789,0,39.964,0.813,39.964,1.824L39.964,1.824z"/>
		<rect x="8.98" y="0.12" fill="#424242" width="30.465" height="3.408"/>
	</g>
</g>
</svg>
