<?xml version="1.0" encoding="utf-8"?>
<!-- Generator: Adobe Illustrator 15.1.0, SVG Export Plug-In . SVG Version: 6.00 Build 0)  -->
<!DOCTYPE svg PUBLIC "-//W3C//DTD SVG 1.1//EN" "http://www.w3.org/Graphics/SVG/1.1/DTD/svg11.dtd" [
	<!ENTITY ns_flows "http://ns.adobe.com/Flows/1.0/">
	<!ENTITY ns_extend "http://ns.adobe.com/Extensibility/1.0/">
	<!ENTITY ns_ai "http://ns.adobe.com/AdobeIllustrator/10.0/">
	<!ENTITY ns_graphs "http://ns.adobe.com/Graphs/1.0/">
]>
<svg version="1.1" id="圖層_1" xmlns:x="&ns_extend;" xmlns:i="&ns_ai;" xmlns:graph="&ns_graphs;"
	 xmlns="http://www.w3.org/2000/svg" xmlns:xlink="http://www.w3.org/1999/xlink" xmlns:a="http://ns.adobe.com/AdobeSVGViewerExtensions/3.0/"
	 x="0px" y="0px" width="46px" height="52px" viewBox="0 0 46 52" enable-background="new 0 0 46 52" xml:space="preserve">
<g>
	<path fill="#1E3E95" d="M23.285,0.086H7.134V46.22l16.151-6.756l15.447,6.462V0.086H23.285z M20.384,21.196
		c0,0.19-0.024,0.375-0.056,0.557l6.062,2.972c0.579-0.595,1.383-0.967,2.275-0.967c1.76,0,3.187,1.432,3.187,3.2
		c0,1.767-1.427,3.198-3.187,3.198c-1.759,0-3.184-1.432-3.184-3.198c0-0.178,0.023-0.35,0.052-0.52l-6.085-2.98
		c-0.575,0.576-1.372,0.933-2.251,0.933c-1.757,0-3.184-1.429-3.184-3.194c0-1.764,1.426-3.195,3.184-3.195
		c0.86,0,1.635,0.344,2.206,0.897l6.137-2.866c-0.035-0.191-0.059-0.388-0.059-0.589c0-1.768,1.425-3.2,3.184-3.2
		c1.76,0,3.187,1.432,3.187,3.2c0,1.767-1.427,3.198-3.187,3.198c-0.868,0-1.653-0.351-2.229-0.919l-6.116,2.859
		C20.361,20.781,20.384,20.986,20.384,21.196z"/>
	<polygon fill="#001E51" points="38.731,0.086 38.731,45.926 23.285,39.464 7.134,46.22 7.134,47.166 23.285,40.41 38.731,46.873 
		39.435,47.166 39.435,46.22 39.435,0.086 	"/>
	<path fill="#001E51" d="M28.666,23.419c-0.872,0-1.694,0.316-2.341,0.895l-5.613-2.751c0.016-0.126,0.022-0.242,0.022-0.354
		c0-0.134-0.008-0.27-0.026-0.408l5.662-2.647c0.641,0.551,1.444,0.851,2.295,0.851c1.949,0,3.536-1.592,3.536-3.549
		c0-1.958-1.587-3.549-3.536-3.549c-1.951,0-3.537,1.591-3.537,3.549c0,0.123,0.009,0.249,0.023,0.383l-5.686,2.657
		c-0.636-0.538-1.433-0.833-2.269-0.833c-1.949,0-3.535,1.591-3.535,3.546c0,1.955,1.586,3.545,3.535,3.545
		c0.859,0,1.671-0.304,2.313-0.862l5.639,2.76c-0.012,0.103-0.021,0.209-0.021,0.317c0,1.958,1.586,3.549,3.537,3.549
		c1.949,0,3.536-1.591,3.536-3.549S30.615,23.419,28.666,23.419z M28.666,30.167c-1.76,0-3.186-1.432-3.186-3.198
		c0-0.178,0.024-0.35,0.052-0.519l-6.084-2.981c-0.576,0.576-1.373,0.933-2.25,0.933c-1.758,0-3.184-1.428-3.184-3.194
		c0-1.764,1.425-3.195,3.184-3.195c0.859,0,1.634,0.344,2.206,0.898l6.136-2.867c-0.036-0.191-0.06-0.388-0.06-0.589
		c0-1.767,1.426-3.198,3.186-3.198c1.759,0,3.186,1.432,3.186,3.198s-1.427,3.198-3.186,3.198c-0.869,0-1.655-0.351-2.23-0.918
		l-6.115,2.858c0.04,0.199,0.063,0.405,0.063,0.615c0,0.191-0.024,0.375-0.055,0.558l6.063,2.971
		c0.578-0.595,1.383-0.966,2.275-0.966c1.759,0,3.186,1.432,3.186,3.198S30.425,30.167,28.666,30.167z"/>
	<path fill="#EEE93A" d="M28.666,23.771c-0.893,0-1.697,0.371-2.275,0.966l-6.063-2.971c0.031-0.182,0.055-0.366,0.055-0.558
		c0-0.21-0.023-0.416-0.063-0.615l6.115-2.858c0.575,0.567,1.361,0.918,2.23,0.918c1.759,0,3.186-1.432,3.186-3.198
		s-1.427-3.198-3.186-3.198c-1.76,0-3.186,1.432-3.186,3.198c0,0.202,0.023,0.398,0.06,0.589l-6.136,2.867
		c-0.572-0.554-1.347-0.898-2.206-0.898c-1.758,0-3.184,1.431-3.184,3.195c0,1.766,1.425,3.194,3.184,3.194
		c0.878,0,1.675-0.357,2.25-0.933l6.084,2.981c-0.027,0.169-0.052,0.341-0.052,0.519c0,1.767,1.426,3.198,3.186,3.198
		c1.759,0,3.186-1.432,3.186-3.198S30.425,23.771,28.666,23.771z"/>
</g>
</svg>
