<?xml version="1.0" encoding="utf-8"?>
<!-- Generator: Adobe Illustrator 16.0.0, SVG Export Plug-In . SVG Version: 6.00 Build 0)  -->
<!DOCTYPE svg PUBLIC "-//W3C//DTD SVG 1.1//EN" "http://www.w3.org/Graphics/SVG/1.1/DTD/svg11.dtd">
<svg version="1.1" id="圖層_1" xmlns="http://www.w3.org/2000/svg" xmlns:xlink="http://www.w3.org/1999/xlink" x="0px" y="0px"
	 width="46px" height="52px" viewBox="0 0 46 52" enable-background="new 0 0 46 52" xml:space="preserve">
<g>
	<g>
		<path fill="#212121" d="M18.745,3.152H9.106v32.293l13.805,9.808l14.185-10.31V3.152H18.745z"/>
		<path fill="#CF1E1B" d="M18.496,3.152H9.021v31.745l13.773,9.845l13.813-10.019V3.152H18.496z"/>
		<path fill="#001E51" d="M20.391,20.985c0,0.172-0.022,0.34-0.054,0.506l5.517,2.702c0.529-0.545,1.262-0.882,2.07-0.882
			c1.604,0,2.898,1.302,2.898,2.912c0,1.604-1.303,2.916-2.898,2.916c-1.604,0-2.896-1.305-2.896-2.916
			c0-0.166,0.021-0.322,0.048-0.473l-5.537-2.71c-0.523,0.521-1.248,0.849-2.049,0.849c-1.6,0-2.896-1.299-2.896-2.907
			c0-1.604,1.297-2.902,2.896-2.902c0.781,0,1.486,0.313,2.008,0.816l5.583-2.609c-0.03-0.174-0.057-0.352-0.057-0.535
			c0-1.608,1.297-2.912,2.896-2.912c1.603,0,2.896,1.304,2.896,2.912c0,1.607-1.297,2.91-2.896,2.91
			c-0.789,0-1.504-0.317-2.026-0.834l-5.565,2.6C20.368,20.608,20.391,20.793,20.391,20.985z"/>
		<path fill="#FFFFFF" d="M20.632,21.172c0,0.168-0.022,0.332-0.053,0.494l5.39,2.641c0.52-0.533,1.229-0.863,2.022-0.863
			c1.565,0,2.834,1.273,2.834,2.845c0,1.566-1.272,2.85-2.834,2.85c-1.563,0-2.828-1.274-2.828-2.85
			c0-0.162,0.021-0.314,0.045-0.463L19.8,23.18c-0.511,0.51-1.219,0.829-2.001,0.829c-1.563,0-2.83-1.269-2.83-2.838
			c0-1.566,1.267-2.837,2.83-2.837c0.763,0,1.452,0.306,1.962,0.799l5.455-2.55c-0.028-0.17-0.055-0.344-0.055-0.523
			c0-1.57,1.269-2.845,2.83-2.845s2.827,1.274,2.827,2.845c0,1.572-1.268,2.844-2.827,2.844c-0.771,0-1.472-0.311-1.981-0.814
			l-5.437,2.539C20.609,20.805,20.632,20.985,20.632,21.172z"/>
		<path fill="#1C39B1" d="M19.69,3.152h-6.857V32.93l9.969,6.543l9.998-6.67V3.152H19.69z M20.391,20.985
			c0,0.172-0.022,0.34-0.054,0.506l5.517,2.702c0.529-0.545,1.262-0.882,2.07-0.882c1.604,0,2.898,1.302,2.898,2.912
			c0,1.604-1.303,2.916-2.898,2.916c-1.604,0-2.896-1.305-2.896-2.916c0-0.166,0.021-0.322,0.048-0.473l-5.537-2.71
			c-0.523,0.521-1.248,0.849-2.049,0.849c-1.6,0-2.896-1.299-2.896-2.907c0-1.604,1.297-2.902,2.896-2.902
			c0.781,0,1.486,0.313,2.008,0.816l5.583-2.609c-0.03-0.174-0.057-0.352-0.057-0.535c0-1.608,1.297-2.912,2.896-2.912
			c1.603,0,2.896,1.304,2.896,2.912c0,1.607-1.297,2.91-2.896,2.91c-0.789,0-1.504-0.317-2.026-0.834l-5.565,2.6
			C20.368,20.608,20.391,20.793,20.391,20.985z"/>
	</g>
	<rect x="9.021" y="2.569" opacity="0.5" fill="#424242" enable-background="new    " width="27.981" height="2.105"/>
	<g>
		<rect x="38.59" y="1.009" fill="#484342" width="1.66" height="1.627"/>
		<path fill="#F9CE1D" d="M39.964,1.824c0,1.01,0.825,1.825,1.824,1.825c1.009,0,1.835-0.815,1.835-1.825
			c0-1.01-0.826-1.824-1.835-1.824C40.789,0,39.964,0.813,39.964,1.824L39.964,1.824z"/>
		<rect x="8.98" y="0.12" fill="#3E2723" width="30.465" height="3.408"/>
	</g>
</g>
</svg>
