<?xml version="1.0" encoding="utf-8"?>
<!-- Generator: Adobe Illustrator 15.1.0, SVG Export Plug-In . SVG Version: 6.00 Build 0)  -->
<!DOCTYPE svg PUBLIC "-//W3C//DTD SVG 1.1//EN" "http://www.w3.org/Graphics/SVG/1.1/DTD/svg11.dtd" [
	<!ENTITY ns_flows "http://ns.adobe.com/Flows/1.0/">
	<!ENTITY ns_extend "http://ns.adobe.com/Extensibility/1.0/">
	<!ENTITY ns_ai "http://ns.adobe.com/AdobeIllustrator/10.0/">
	<!ENTITY ns_graphs "http://ns.adobe.com/Graphs/1.0/">
]>
<svg version="1.1" id="圖層_1" xmlns:x="&ns_extend;" xmlns:i="&ns_ai;" xmlns:graph="&ns_graphs;"
	 xmlns="http://www.w3.org/2000/svg" xmlns:xlink="http://www.w3.org/1999/xlink" xmlns:a="http://ns.adobe.com/AdobeSVGViewerExtensions/3.0/"
	 x="0px" y="0px" width="46px" height="52px" viewBox="0 0 46 52" enable-background="new 0 0 46 52" xml:space="preserve">
<g>
	<path fill="#001E51" d="M26.694,25.055c0.581-0.599,1.389-0.971,2.286-0.971c0.805,0,1.537,0.3,2.1,0.792
		c-0.586-0.668-1.442-1.092-2.4-1.092c-0.896,0-1.704,0.374-2.284,0.972l-6.081-2.984c-0.007,0.048-0.016,0.132-0.024,0.179
		L26.694,25.055z"/>
	<path fill="#001E51" d="M17.457,18.299c0.863,0,1.642,0.346,2.216,0.902l6.167-2.881c-0.036-0.192-0.06-0.389-0.06-0.593
		c0-1.775,1.433-3.214,3.2-3.214c0.805,0,1.537,0.3,2.1,0.792c-0.586-0.668-1.442-1.092-2.4-1.092c-1.767,0-3.199,1.439-3.199,3.214
		c0,0.203,0.024,0.4,0.06,0.592l-6.167,2.881C18.799,18.345,18.02,18,17.157,18c-1.766,0-3.199,1.438-3.199,3.21
		c0,0.965,0.426,1.829,1.098,2.417c-0.496-0.565-0.799-1.305-0.799-2.117C14.257,19.737,15.69,18.299,17.457,18.299z"/>
	<path fill="#001E51" d="M25.864,26.619l-0.319-0.142c-0.018,0.125-0.064,0.392-0.064,0.521c0,0.968,0.427,1.833,1.101,2.422
		c-0.497-0.566-0.801-1.308-0.801-2.122C25.78,27.12,25.837,26.79,25.864,26.619z"/>
</g>
<polygon fill="#001E51" points="38.807,-0.001 38.807,46.062 23.285,39.567 7.056,46.357 7.056,47.307 23.285,40.519 38.807,47.013 
	39.514,47.307 39.514,46.357 39.514,-0.001 "/>
<path fill="#1E3E95" d="M23.285-0.001H7.056v46.358l16.229-6.79l15.521,6.494V-0.001H23.285z M20.371,21.211
	c0,0.192-0.024,0.377-0.056,0.559l6.092,2.986c0.581-0.598,1.39-0.971,2.286-0.971c1.769,0,3.2,1.44,3.2,3.215
	c0,1.775-1.432,3.214-3.2,3.214s-3.2-1.438-3.2-3.214c0-0.178,0.024-0.352,0.052-0.522l-6.114-2.995
	c-0.578,0.579-1.379,0.938-2.262,0.938c-1.767,0-3.199-1.436-3.199-3.209c0-1.773,1.433-3.21,3.199-3.21
	c0.864,0,1.642,0.345,2.217,0.902l6.167-2.881c-0.036-0.192-0.06-0.389-0.06-0.592c0-1.775,1.432-3.214,3.2-3.214
	s3.2,1.439,3.2,3.214c0,1.775-1.432,3.214-3.2,3.214c-0.873,0-1.663-0.353-2.24-0.922l-6.146,2.873
	C20.347,20.794,20.371,21,20.371,21.211z"/>
</svg>
