<?xml version="1.0" encoding="utf-8"?>
<!-- Generator: Adobe Illustrator 15.1.0, SVG Export Plug-In . SVG Version: 6.00 Build 0)  -->
<!DOCTYPE svg PUBLIC "-//W3C//DTD SVG 1.1//EN" "http://www.w3.org/Graphics/SVG/1.1/DTD/svg11.dtd">
<svg version="1.1" xmlns="http://www.w3.org/2000/svg" xmlns:xlink="http://www.w3.org/1999/xlink" x="0px" y="0px" width="70px"
	 height="70px" viewBox="0 0 70 70" enable-background="new 0 0 70 70" xml:space="preserve">
<g id="圖層_2">
</g>
<g id="圖層_1">
	<g>
		<path fill="#639537" d="M31.843,44.482c2.085,0,3.267-1.07,3.544-3.235h-1.793c-0.235,1.081-0.819,1.611-1.751,1.611
			c-0.833,0-1.459-0.32-1.875-0.975c-0.361-0.54-0.529-1.265-0.529-2.154c0-0.876,0.181-1.598,0.542-2.154
			c0.417-0.666,1.029-1,1.862-1c0.514,0,0.89,0.126,1.126,0.361c0.237,0.249,0.403,0.639,0.487,1.182h1.792
			c-0.028-1.015-0.361-1.806-0.987-2.376c-0.598-0.53-1.404-0.806-2.419-0.806c-1.375,0-2.445,0.47-3.196,1.416
			c-0.695,0.876-1.042,2.001-1.042,3.377c0,1.403,0.334,2.53,1.029,3.363C29.369,44.025,30.44,44.482,31.843,44.482z"/>
		<rect x="37.713" y="35.101" fill="#639537" width="1.669" height="9.201"/>
		<path fill="#639537" d="M42.76,40.522c-0.724,0.389-1.069,1-1.069,1.835c0,0.652,0.235,1.181,0.709,1.571
			c0.444,0.359,1.015,0.541,1.695,0.541c0.611,0,1.098-0.195,1.46-0.556v0.403h1.736c-0.11-0.668-0.166-1.237-0.166-1.738v-2.571
			c0-0.765-0.235-1.349-0.708-1.751c-0.445-0.36-1.057-0.555-1.836-0.555c-0.778,0-1.402,0.194-1.875,0.583
			c-0.474,0.39-0.752,0.958-0.836,1.696h1.695c0.084-0.5,0.419-0.766,1.002-0.766c0.599,0,0.903,0.292,0.916,0.85h-0.527
			C44.054,40.065,43.315,40.217,42.76,40.522z M45.499,41.481c-0.057,1.001-0.486,1.487-1.279,1.487
			c-0.223,0-0.43-0.057-0.596-0.181c-0.182-0.125-0.266-0.293-0.266-0.501c0-0.527,0.529-0.806,1.613-0.806H45.499z"/>
		<path fill="#639537" d="M51.382,42.955c-0.389,0-0.683-0.057-0.849-0.181c-0.208-0.139-0.32-0.403-0.333-0.765h-1.654
			c0.056,1.654,0.959,2.473,2.683,2.473c0.834,0,1.501-0.165,2.016-0.5c0.583-0.389,0.89-0.973,0.89-1.778
			c0-0.876-0.709-1.515-2.1-1.932c-0.333-0.083-0.681-0.153-1.014-0.237c-0.389-0.097-0.569-0.208-0.569-0.318
			c0-0.306,0.278-0.474,0.833-0.474c0.611,0,0.959,0.238,1.016,0.695h1.652c-0.028-1.474-0.903-2.224-2.613-2.224
			c-0.736,0-1.333,0.152-1.778,0.458c-0.542,0.362-0.806,0.89-0.806,1.584c0,0.849,0.625,1.447,1.877,1.778
			c0.333,0.084,0.681,0.169,1.014,0.252c0.514,0.154,0.777,0.319,0.777,0.5C52.423,42.732,52.077,42.955,51.382,42.955z"/>
		<path fill="#639537" d="M57.945,42.955c-0.389,0-0.681-0.057-0.847-0.181c-0.21-0.139-0.321-0.403-0.335-0.765h-1.652
			c0.054,1.654,0.957,2.473,2.681,2.473c0.834,0,1.501-0.165,2.016-0.5c0.583-0.389,0.89-0.973,0.89-1.778
			c0-0.876-0.709-1.515-2.1-1.932c-0.333-0.083-0.681-0.153-1.013-0.237c-0.39-0.097-0.57-0.208-0.57-0.318
			c0-0.306,0.278-0.474,0.833-0.474c0.611,0,0.959,0.238,1.016,0.695h1.652c-0.028-1.474-0.902-2.224-2.611-2.224
			c-0.738,0-1.335,0.152-1.78,0.458c-0.542,0.362-0.806,0.89-0.806,1.584c0,0.849,0.625,1.447,1.877,1.778
			c0.333,0.084,0.681,0.169,1.014,0.252c0.514,0.154,0.779,0.319,0.779,0.5C58.988,42.732,58.641,42.955,57.945,42.955z"/>
		<path fill="#639537" d="M64.067,27.307H26.169c-0.21-1.719-1.658-3.054-3.433-3.054h-2.181c0.871,0.762,1.439,1.84,1.553,3.054
			c0.014,0.142,0.048,0.277,0.048,0.422v1.897v6.215c0,1.888-1.141,3.504-2.764,4.226c-0.469,0.208-0.972,0.353-1.506,0.394v9.805
			v0.108c0,1.376-0.614,2.601-1.57,3.449c0.087,0.008,0.17,0.028,0.259,0.028h1.89c1.775,0,3.224-1.336,3.433-3.056h42.168
			c1.277,0,2.318-0.967,2.318-2.153V29.46C66.386,28.273,65.345,27.307,64.067,27.307z M64.067,48.478l-42.125-0.011v-9.149h0.794
			c1.92,0,3.476-1.557,3.476-3.476v-6.214l37.855,0.011V48.478z"/>
		<path fill="#639537" d="M15.946,21.757c0.486,0.202,1.017,0.314,1.575,0.314c2.274,0,4.118-1.843,4.118-4.118
			s-1.843-4.118-4.118-4.118c-0.558,0-1.089,0.113-1.575,0.314c1.004,0.962,1.637,2.308,1.637,3.804S16.95,20.795,15.946,21.757z"/>
		<circle fill="#639537" cx="12.306" cy="17.953" r="4.118"/>
		<path fill="#639537" d="M16.728,39.317h0.793c1.92,0,3.476-1.557,3.476-3.476v-8.112c0-1.92-1.556-3.477-3.476-3.477H7.091
			c-1.921,0-3.477,1.556-3.477,3.477v8.112c0,1.919,1.556,3.476,3.477,3.476h0.793v11.057c0,1.92,1.557,3.478,3.477,3.478h1.89
			c1.92,0,3.477-1.558,3.477-3.478V39.317z"/>
	</g>
</g>
</svg>
