<?xml version="1.0" encoding="utf-8"?>
<!-- Generator: Adobe Illustrator 16.0.0, SVG Export Plug-In . SVG Version: 6.00 Build 0)  -->
<!DOCTYPE svg PUBLIC "-//W3C//DTD SVG 1.1//EN" "http://www.w3.org/Graphics/SVG/1.1/DTD/svg11.dtd">
<svg version="1.1" xmlns="http://www.w3.org/2000/svg" xmlns:xlink="http://www.w3.org/1999/xlink" x="0px" y="0px" width="35px"
	 height="35px" viewBox="0 0 35 35" enable-background="new 0 0 35 35" xml:space="preserve">
<g id="首頁BK" display="none">
</g>
<g id="首頁UI__x26__logo" display="none">
</g>
<g id="內頁_x5F_左">
</g>
<g id="內頁">
</g>
<g id="Easy_我的作品" display="none">
</g>
<g id="EASY_雲端作品庫" display="none">
</g>
<g id="福利中心頁_x5F_bk">
</g>
<g id="兌換商品">
</g>
<g id="版型下載" display="none">
</g>
<g id="Top_banner_1_">
</g>
<g id="商品說明">
	<g>
		<g>
			<path fill="#58595B" d="M8.865,25.232l6.742-7.682l-6.238-7.098h3.908l2.834,3.465c0.531,0.659,0.961,1.211,1.285,1.657
				c0.51-0.612,0.979-1.156,1.408-1.628l3.109-3.493h3.736l-6.377,6.958l6.863,7.822h-3.84l-3.789-4.593L17.5,19.401l-4.848,5.832
				H8.865z"/>
		</g>
		<path fill="#58595B" d="M17.5,33.5c-8.822,0-16-7.178-16-16c0-8.823,7.178-16,16-16s16,7.177,16,16
			C33.5,26.322,26.322,33.5,17.5,33.5z M17.5,3.804C9.949,3.804,3.805,9.948,3.805,17.5c0,7.552,6.145,13.696,13.695,13.696
			c7.553,0,13.697-6.145,13.697-13.696C31.197,9.948,25.053,3.804,17.5,3.804z"/>
	</g>
	<rect opacity="0.5" fill="none" width="35" height="35"/>
</g>
<g id="填寫兌換頁" display="none">
</g>
<g id="會員資料" display="none">
</g>
<g id="集到先師" display="none">
</g>
<g id="Play" display="none">
</g>
<g id="製作頁" display="none">
</g>
<g id="pop_up" display="none">
</g>
<g id="guide" display="none">
</g>
</svg>
