<?xml version="1.0" encoding="utf-8"?>
<!-- Generator: Adobe Illustrator 15.1.0, SVG Export Plug-In . SVG Version: 6.00 Build 0)  -->
<!DOCTYPE svg PUBLIC "-//W3C//DTD SVG 1.1//EN" "http://www.w3.org/Graphics/SVG/1.1/DTD/svg11.dtd">
<svg version="1.1" id="圖層_1" xmlns="http://www.w3.org/2000/svg" xmlns:xlink="http://www.w3.org/1999/xlink" x="0px" y="0px"
	 width="12px" height="12px" viewBox="0 0 12 12" enable-background="new 0 0 12 12" xml:space="preserve">
<g>
	<path fill-rule="evenodd" clip-rule="evenodd" fill="#FFFFFF" d="M11.358,11c-1.758,0-8.781,0-10.727,0
		c-0.317,0-0.442-0.356-0.286-0.628C1.359,8.67,4.771,2.913,5.685,1.377c0.19-0.31,0.408-0.29,0.62,0.048
		c0.932,1.564,4.498,7.575,5.324,8.931C11.823,10.675,11.703,11,11.358,11z M5.971,3.989c-0.3,0-0.572,0.171-0.572,0.629
		c0,0.457,0.286,3.336,0.286,3.336h0.572c0,0,0.287-2.841,0.287-3.336C6.544,4.123,6.271,3.989,5.971,3.989z M5.971,8.535
		c-0.316,0-0.572,0.259-0.572,0.58c0,0.319,0.256,0.579,0.572,0.579s0.573-0.26,0.573-0.579C6.544,8.794,6.287,8.535,5.971,8.535z"
		/>
</g>
</svg>
