<?xml version="1.0" encoding="utf-8"?>
<!-- Generator: Adobe Illustrator 15.1.0, SVG Export Plug-In . SVG Version: 6.00 Build 0)  -->
<!DOCTYPE svg PUBLIC "-//W3C//DTD SVG 1.1//EN" "http://www.w3.org/Graphics/SVG/1.1/DTD/svg11.dtd">
<svg version="1.1" id="圖層_2" xmlns="http://www.w3.org/2000/svg" xmlns:xlink="http://www.w3.org/1999/xlink" x="0px" y="0px"
	 width="70px" height="70px" viewBox="0 0 70 70" enable-background="new 0 0 70 70" xml:space="preserve">
<g>
	<g>
		<circle fill="#639537" cx="34.662" cy="9.618" r="3.821"/>
		<path fill="#639537" d="M39.501,15.463h-9.678c-1.782,0-3.227,1.444-3.227,3.227v7.528c0,1.782,1.444,3.226,3.227,3.226h0.736
			v10.26c0,1.783,1.444,3.227,3.226,3.227h1.754c1.782,0,3.227-1.443,3.227-3.227v-10.26h0.734c1.783,0,3.227-1.444,3.227-3.226
			v-7.528C42.728,16.907,41.284,15.463,39.501,15.463z"/>
	</g>
	<g>
		<circle fill="#639537" cx="13.415" cy="29.179" r="3.822"/>
		<path fill="#639537" d="M18.254,35.023H8.575c-1.782,0-3.226,1.445-3.226,3.227v7.527c0,1.783,1.444,3.227,3.226,3.227h0.736
			v10.262c0,1.781,1.444,3.227,3.226,3.227h1.754c1.782,0,3.227-1.445,3.227-3.227V49.004h0.736c1.782,0,3.227-1.443,3.227-3.227
			V38.25C21.48,36.469,20.036,35.023,18.254,35.023z"/>
	</g>
	<g>
		<circle fill="#639537" cx="56.247" cy="29.179" r="3.822"/>
		<path fill="#639537" d="M61.087,35.023h-9.68c-1.781,0-3.225,1.445-3.225,3.227v7.527c0,1.783,1.443,3.227,3.225,3.227h0.736
			v10.262c0,1.781,1.445,3.227,3.227,3.227h1.754c1.783,0,3.227-1.445,3.227-3.227V49.004h0.736c1.781,0,3.227-1.443,3.227-3.227
			V38.25C64.313,36.469,62.868,35.023,61.087,35.023z"/>
	</g>
	<path fill="#639537" d="M36.511,50.234c0,0.205-0.166,0.371-0.371,0.371h-2.955c-0.204,0-0.37-0.166-0.37-0.371v-2.955
		c0-0.203,0.166-0.369,0.37-0.369h2.955c0.205,0,0.371,0.166,0.371,0.369V50.234z"/>
	<path fill="#639537" d="M36.511,57.879c0,0.205-0.166,0.371-0.371,0.371h-2.955c-0.204,0-0.37-0.166-0.37-0.371v-2.955
		c0-0.203,0.166-0.369,0.37-0.369h2.955c0.205,0,0.371,0.166,0.371,0.369V57.879z"/>
	<path fill="#639537" d="M28.444,57.879c0,0.205-0.166,0.371-0.37,0.371h-2.956c-0.204,0-0.37-0.166-0.37-0.371v-2.955
		c0-0.203,0.166-0.369,0.37-0.369h2.956c0.204,0,0.37,0.166,0.37,0.369V57.879z"/>
	<path fill="#639537" d="M44.575,57.879c0,0.205-0.166,0.371-0.369,0.371h-2.955c-0.205,0-0.371-0.166-0.371-0.371v-2.955
		c0-0.203,0.166-0.369,0.371-0.369h2.955c0.203,0,0.369,0.166,0.369,0.369V57.879z"/>
</g>
</svg>
