<?xml version="1.0" encoding="utf-8"?>
<!-- Generator: Adobe Illustrator 15.1.0, SVG Export Plug-In . SVG Version: 6.00 Build 0)  -->
<!DOCTYPE svg PUBLIC "-//W3C//DTD SVG 1.1//EN" "http://www.w3.org/Graphics/SVG/1.1/DTD/svg11.dtd">
<svg version="1.1" id="圖層_1" xmlns="http://www.w3.org/2000/svg" xmlns:xlink="http://www.w3.org/1999/xlink" x="0px" y="0px"
	 width="70px" height="70px" viewBox="0 0 70 70" enable-background="new 0 0 70 70" xml:space="preserve">
<g>
	<polygon fill="#649A36" points="32.488,37.52 35.799,45.62 39.109,37.52 39.109,34.886 32.488,34.886 	"/>
	<circle fill="#649A36" cx="36.359" cy="21.358" r="12.1"/>
	<path fill="#649A36" d="M43.639,34.886l-7.84,18.037l-7.842-18.037c-8.602,0-15.574,6.973-15.574,15.576v15.576h6.9V51.672h1.51
		v14.366h0.75V51.672h1.137v14.366h0.75V51.672h1.137v14.366h0.75V51.672h1.51v14.366h1.131h15.682h15.576V50.462
		C59.215,41.858,52.24,34.886,43.639,34.886z M52.297,51.943h-9.549v-3.998h9.549V51.943z"/>
</g>
</svg>
