<?xml version="1.0" encoding="utf-8"?>
<!-- Generator: Adobe Illustrator 15.1.0, SVG Export Plug-In . SVG Version: 6.00 Build 0)  -->
<!DOCTYPE svg PUBLIC "-//W3C//DTD SVG 1.1//EN" "http://www.w3.org/Graphics/SVG/1.1/DTD/svg11.dtd">
<svg version="1.1" id="圖層_1" xmlns="http://www.w3.org/2000/svg" xmlns:xlink="http://www.w3.org/1999/xlink" x="0px" y="0px"
	 width="70px" height="70px" viewBox="0 0 70 70" enable-background="new 0 0 70 70" xml:space="preserve">
<g>
	<g>
		<polygon fill="#649A36" points="26.013,17.31 45.657,17.31 45.657,7.182 50.874,7.182 50.874,20.073 53.022,20.073 53.022,7.182 
			55.785,7.182 55.785,4.419 14.658,4.419 14.658,7.182 26.013,7.182 		"/>
		<path fill="#649A36" d="M46.577,22.298c0-0.764-0.081-1.506-0.234-2.226H25.326c-0.151,0.72-0.234,1.461-0.234,2.226
			c0,5.933,4.811,10.744,10.742,10.744C41.768,33.042,46.577,28.231,46.577,22.298z"/>
		<rect x="12.497" y="49.936" fill="#649A36" width="7.085" height="1.702"/>
		<rect x="12.497" y="54.661" fill="#649A36" width="7.085" height="1.703"/>
		<rect x="12.497" y="59.389" fill="#649A36" width="7.085" height="1.703"/>
		<rect x="24.445" y="49.936" fill="#649A36" width="7.084" height="1.702"/>
		<rect x="24.445" y="54.661" fill="#649A36" width="7.084" height="1.703"/>
		<rect x="24.445" y="59.389" fill="#649A36" width="7.084" height="1.703"/>
		<path fill="#649A36" d="M65.639,24.155l-1.662-0.875l-9.029,17.136c-2.789-3.384-7.014-5.541-11.742-5.541l-7.658,17.614
			l-1.348-3.097v-3.184h-1.384l-4.927-11.334c-7.058,0-12.967,4.816-14.683,11.334H9.377V65.58h24.822h24.217v-0.282V60.24V50.086
			c0-2.916-0.835-5.627-2.256-7.943L65.639,24.155z M20.936,63.878h-8.259h-1.596V47.912h1.769h8.086V63.878z M32.496,63.878H22.64
			V47.912h9.856V63.878z"/>
		<polygon fill="#649A36" points="32.313,37.444 35.547,45.356 38.779,37.444 38.779,34.875 32.313,34.875 		"/>
	</g>
</g>
</svg>
